ISO-10303-21;
HEADER;
/* Generated by software containing ST-Developer
 * from STEP Tools, Inc. (www.steptools.com) 
 */
/* OPTION: using custom renumber hook */

FILE_DESCRIPTION(
/* description */ ('STEP AP242 Edition 2',
'CAx-IF Rec.Pracs.---Representation and Presentation of Product Manufa
cturing Information (PMI)---4.0---2014-10-13',
'CAx-IF Rec.Pracs.---3D Tessellated Geometry---0.4---2014-09-14','2;1',
'CAx-IF Rec.Pracs.---User Defined Attributes---1.5---2016-08-15'),
/* implementation_level */ '2;1');

FILE_NAME(
/* name */ 'NOT-618 - Z-BaseMount',
/* time_stamp */ '2026-07-26T08:51:50Z',
/* author */ (''),
/* organization */ (''),
/* preprocessor_version */ 'ST-DEVELOPER v20',
/* originating_system */ 'ONSHAPE BY PTC INC, 1.218',
/* authorisation */ '  ');

FILE_SCHEMA (('AP242_MANAGED_MODEL_BASED_3D_ENGINEERING_MIM_LF { 1 0 10303 442 3 1 4 }'));
ENDSEC;

DATA;
#10=SHAPE_REPRESENTATION_RELATIONSHIP('','',#1126,#11);
#11=ADVANCED_BREP_SHAPE_REPRESENTATION('',(#1124),#1826);
#12=CONICAL_SURFACE('',#1203,0.00265,0.785398163397477);
#13=CONICAL_SURFACE('',#1204,0.00265,0.785398163397477);
#14=CYLINDRICAL_SURFACE('',#1156,0.013);
#15=CYLINDRICAL_SURFACE('',#1158,0.013);
#16=CYLINDRICAL_SURFACE('',#1161,0.00265);
#17=CYLINDRICAL_SURFACE('',#1163,0.00265);
#18=CYLINDRICAL_SURFACE('',#1171,0.006);
#19=CYLINDRICAL_SURFACE('',#1176,0.006);
#20=CYLINDRICAL_SURFACE('',#1179,0.0125);
#21=CYLINDRICAL_SURFACE('',#1182,0.0015443795837001);
#22=CYLINDRICAL_SURFACE('',#1185,0.00154437958583803);
#23=CYLINDRICAL_SURFACE('',#1188,0.00154437958175155);
#24=CYLINDRICAL_SURFACE('',#1191,0.00154437958829301);
#25=CYLINDRICAL_SURFACE('',#1211,0.0011);
#26=CYLINDRICAL_SURFACE('',#1214,0.0011);
#27=CIRCLE('',#1130,0.00465);
#28=CIRCLE('',#1131,0.00465);
#29=CIRCLE('',#1132,0.013);
#30=CIRCLE('',#1133,0.013);
#31=CIRCLE('',#1150,0.00265);
#32=CIRCLE('',#1151,0.00265);
#33=CIRCLE('',#1157,0.013);
#34=CIRCLE('',#1159,0.013);
#35=CIRCLE('',#1162,0.00265);
#36=CIRCLE('',#1164,0.00265);
#37=CIRCLE('',#1168,0.006);
#38=CIRCLE('',#1170,0.006);
#39=CIRCLE('',#1173,0.006);
#40=CIRCLE('',#1175,0.006);
#41=CIRCLE('',#1180,0.0125);
#42=CIRCLE('',#1181,0.0125);
#43=CIRCLE('',#1183,0.0015443795837001);
#44=CIRCLE('',#1184,0.0015443795837001);
#45=CIRCLE('',#1186,0.00154437958583803);
#46=CIRCLE('',#1187,0.00154437958583803);
#47=CIRCLE('',#1189,0.00154437958175155);
#48=CIRCLE('',#1190,0.00154437958175155);
#49=CIRCLE('',#1192,0.00154437958829301);
#50=CIRCLE('',#1193,0.00154437958829301);
#51=CIRCLE('',#1209,0.0011);
#52=CIRCLE('',#1210,0.0011);
#53=CIRCLE('',#1212,0.0011);
#54=CIRCLE('',#1215,0.0011);
#55=ORIENTED_EDGE('',*,*,#337,.T.);
#56=ORIENTED_EDGE('',*,*,#338,.T.);
#57=ORIENTED_EDGE('',*,*,#339,.F.);
#58=ORIENTED_EDGE('',*,*,#340,.T.);
#59=ORIENTED_EDGE('',*,*,#341,.T.);
#60=ORIENTED_EDGE('',*,*,#342,.F.);
#61=ORIENTED_EDGE('',*,*,#343,.T.);
#62=ORIENTED_EDGE('',*,*,#344,.T.);
#63=ORIENTED_EDGE('',*,*,#345,.F.);
#64=ORIENTED_EDGE('',*,*,#346,.T.);
#65=ORIENTED_EDGE('',*,*,#347,.T.);
#66=ORIENTED_EDGE('',*,*,#348,.T.);
#67=ORIENTED_EDGE('',*,*,#349,.F.);
#68=ORIENTED_EDGE('',*,*,#350,.F.);
#69=ORIENTED_EDGE('',*,*,#339,.T.);
#70=ORIENTED_EDGE('',*,*,#351,.T.);
#71=ORIENTED_EDGE('',*,*,#352,.F.);
#72=ORIENTED_EDGE('',*,*,#353,.F.);
#73=ORIENTED_EDGE('',*,*,#354,.T.);
#74=ORIENTED_EDGE('',*,*,#355,.T.);
#75=ORIENTED_EDGE('',*,*,#345,.T.);
#76=ORIENTED_EDGE('',*,*,#356,.T.);
#77=ORIENTED_EDGE('',*,*,#357,.F.);
#78=ORIENTED_EDGE('',*,*,#358,.F.);
#79=ORIENTED_EDGE('',*,*,#359,.F.);
#80=ORIENTED_EDGE('',*,*,#360,.T.);
#81=ORIENTED_EDGE('',*,*,#361,.F.);
#82=ORIENTED_EDGE('',*,*,#362,.T.);
#83=ORIENTED_EDGE('',*,*,#363,.F.);
#84=ORIENTED_EDGE('',*,*,#364,.T.);
#85=ORIENTED_EDGE('',*,*,#365,.T.);
#86=ORIENTED_EDGE('',*,*,#366,.T.);
#87=ORIENTED_EDGE('',*,*,#367,.T.);
#88=ORIENTED_EDGE('',*,*,#368,.T.);
#89=ORIENTED_EDGE('',*,*,#369,.T.);
#90=ORIENTED_EDGE('',*,*,#370,.F.);
#91=ORIENTED_EDGE('',*,*,#371,.T.);
#92=ORIENTED_EDGE('',*,*,#372,.T.);
#93=ORIENTED_EDGE('',*,*,#373,.F.);
#94=ORIENTED_EDGE('',*,*,#374,.F.);
#95=ORIENTED_EDGE('',*,*,#370,.T.);
#96=ORIENTED_EDGE('',*,*,#373,.T.);
#97=ORIENTED_EDGE('',*,*,#375,.F.);
#98=ORIENTED_EDGE('',*,*,#376,.T.);
#99=ORIENTED_EDGE('',*,*,#363,.T.);
#100=ORIENTED_EDGE('',*,*,#377,.T.);
#101=ORIENTED_EDGE('',*,*,#378,.F.);
#102=ORIENTED_EDGE('',*,*,#379,.F.);
#103=ORIENTED_EDGE('',*,*,#380,.T.);
#104=ORIENTED_EDGE('',*,*,#361,.T.);
#105=ORIENTED_EDGE('',*,*,#381,.T.);
#106=ORIENTED_EDGE('',*,*,#382,.T.);
#107=ORIENTED_EDGE('',*,*,#383,.F.);
#108=ORIENTED_EDGE('',*,*,#383,.T.);
#109=ORIENTED_EDGE('',*,*,#384,.F.);
#110=ORIENTED_EDGE('',*,*,#385,.F.);
#111=ORIENTED_EDGE('',*,*,#386,.F.);
#112=ORIENTED_EDGE('',*,*,#387,.F.);
#113=ORIENTED_EDGE('',*,*,#386,.T.);
#114=ORIENTED_EDGE('',*,*,#388,.F.);
#115=ORIENTED_EDGE('',*,*,#367,.F.);
#116=ORIENTED_EDGE('',*,*,#389,.F.);
#117=ORIENTED_EDGE('',*,*,#378,.T.);
#118=ORIENTED_EDGE('',*,*,#390,.T.);
#119=ORIENTED_EDGE('',*,*,#379,.T.);
#120=ORIENTED_EDGE('',*,*,#387,.T.);
#121=ORIENTED_EDGE('',*,*,#389,.T.);
#122=ORIENTED_EDGE('',*,*,#371,.F.);
#123=ORIENTED_EDGE('',*,*,#374,.T.);
#124=ORIENTED_EDGE('',*,*,#390,.F.);
#125=ORIENTED_EDGE('',*,*,#377,.F.);
#126=ORIENTED_EDGE('',*,*,#362,.F.);
#127=ORIENTED_EDGE('',*,*,#380,.F.);
#128=ORIENTED_EDGE('',*,*,#391,.T.);
#129=ORIENTED_EDGE('',*,*,#392,.F.);
#130=ORIENTED_EDGE('',*,*,#393,.F.);
#131=ORIENTED_EDGE('',*,*,#342,.T.);
#132=ORIENTED_EDGE('',*,*,#392,.T.);
#133=ORIENTED_EDGE('',*,*,#394,.F.);
#134=ORIENTED_EDGE('',*,*,#395,.T.);
#135=ORIENTED_EDGE('',*,*,#396,.F.);
#136=ORIENTED_EDGE('',*,*,#397,.T.);
#137=ORIENTED_EDGE('',*,*,#396,.T.);
#138=ORIENTED_EDGE('',*,*,#398,.T.);
#139=ORIENTED_EDGE('',*,*,#399,.F.);
#140=ORIENTED_EDGE('',*,*,#400,.T.);
#141=ORIENTED_EDGE('',*,*,#399,.T.);
#142=ORIENTED_EDGE('',*,*,#401,.T.);
#143=ORIENTED_EDGE('',*,*,#402,.T.);
#144=ORIENTED_EDGE('',*,*,#403,.F.);
#145=ORIENTED_EDGE('',*,*,#404,.T.);
#146=ORIENTED_EDGE('',*,*,#405,.T.);
#147=ORIENTED_EDGE('',*,*,#406,.T.);
#148=ORIENTED_EDGE('',*,*,#357,.T.);
#149=ORIENTED_EDGE('',*,*,#407,.T.);
#150=ORIENTED_EDGE('',*,*,#408,.F.);
#151=ORIENTED_EDGE('',*,*,#403,.T.);
#152=ORIENTED_EDGE('',*,*,#408,.T.);
#153=ORIENTED_EDGE('',*,*,#409,.T.);
#154=ORIENTED_EDGE('',*,*,#343,.F.);
#155=ORIENTED_EDGE('',*,*,#393,.T.);
#156=ORIENTED_EDGE('',*,*,#397,.F.);
#157=ORIENTED_EDGE('',*,*,#400,.F.);
#158=ORIENTED_EDGE('',*,*,#404,.F.);
#159=ORIENTED_EDGE('',*,*,#409,.F.);
#160=ORIENTED_EDGE('',*,*,#407,.F.);
#161=ORIENTED_EDGE('',*,*,#356,.F.);
#162=ORIENTED_EDGE('',*,*,#344,.F.);
#163=ORIENTED_EDGE('',*,*,#372,.F.);
#164=ORIENTED_EDGE('',*,*,#410,.F.);
#165=ORIENTED_EDGE('',*,*,#391,.F.);
#166=ORIENTED_EDGE('',*,*,#341,.F.);
#167=ORIENTED_EDGE('',*,*,#411,.T.);
#168=ORIENTED_EDGE('',*,*,#412,.F.);
#169=ORIENTED_EDGE('',*,*,#413,.T.);
#170=ORIENTED_EDGE('',*,*,#375,.T.);
#171=ORIENTED_EDGE('',*,*,#414,.T.);
#172=ORIENTED_EDGE('',*,*,#415,.T.);
#173=ORIENTED_EDGE('',*,*,#412,.T.);
#174=ORIENTED_EDGE('',*,*,#416,.T.);
#175=ORIENTED_EDGE('',*,*,#365,.F.);
#176=ORIENTED_EDGE('',*,*,#417,.T.);
#177=ORIENTED_EDGE('',*,*,#418,.T.);
#178=ORIENTED_EDGE('',*,*,#394,.T.);
#179=ORIENTED_EDGE('',*,*,#410,.T.);
#180=ORIENTED_EDGE('',*,*,#369,.F.);
#181=ORIENTED_EDGE('',*,*,#419,.T.);
#182=ORIENTED_EDGE('',*,*,#420,.F.);
#183=ORIENTED_EDGE('',*,*,#359,.T.);
#184=ORIENTED_EDGE('',*,*,#421,.T.);
#185=ORIENTED_EDGE('',*,*,#422,.F.);
#186=ORIENTED_EDGE('',*,*,#423,.F.);
#187=ORIENTED_EDGE('',*,*,#360,.F.);
#188=ORIENTED_EDGE('',*,*,#420,.T.);
#189=ORIENTED_EDGE('',*,*,#350,.T.);
#190=ORIENTED_EDGE('',*,*,#424,.F.);
#191=ORIENTED_EDGE('',*,*,#349,.T.);
#192=ORIENTED_EDGE('',*,*,#425,.F.);
#193=ORIENTED_EDGE('',*,*,#426,.T.);
#194=ORIENTED_EDGE('',*,*,#421,.F.);
#195=ORIENTED_EDGE('',*,*,#358,.T.);
#196=ORIENTED_EDGE('',*,*,#427,.T.);
#197=ORIENTED_EDGE('',*,*,#428,.T.);
#198=ORIENTED_EDGE('',*,*,#415,.F.);
#199=ORIENTED_EDGE('',*,*,#429,.T.);
#200=ORIENTED_EDGE('',*,*,#414,.F.);
#201=ORIENTED_EDGE('',*,*,#411,.F.);
#202=ORIENTED_EDGE('',*,*,#340,.F.);
#203=ORIENTED_EDGE('',*,*,#366,.F.);
#204=ORIENTED_EDGE('',*,*,#416,.F.);
#205=ORIENTED_EDGE('',*,*,#413,.F.);
#206=ORIENTED_EDGE('',*,*,#417,.F.);
#207=ORIENTED_EDGE('',*,*,#364,.F.);
#208=ORIENTED_EDGE('',*,*,#376,.F.);
#209=ORIENTED_EDGE('',*,*,#430,.F.);
#210=ORIENTED_EDGE('',*,*,#425,.T.);
#211=ORIENTED_EDGE('',*,*,#431,.T.);
#212=ORIENTED_EDGE('',*,*,#431,.F.);
#213=ORIENTED_EDGE('',*,*,#430,.T.);
#214=ORIENTED_EDGE('',*,*,#432,.F.);
#215=ORIENTED_EDGE('',*,*,#424,.T.);
#216=ORIENTED_EDGE('',*,*,#433,.T.);
#217=ORIENTED_EDGE('',*,*,#433,.F.);
#218=ORIENTED_EDGE('',*,*,#432,.T.);
#219=ORIENTED_EDGE('',*,*,#402,.F.);
#220=ORIENTED_EDGE('',*,*,#434,.T.);
#221=ORIENTED_EDGE('',*,*,#384,.T.);
#222=ORIENTED_EDGE('',*,*,#435,.T.);
#223=ORIENTED_EDGE('',*,*,#436,.T.);
#224=ORIENTED_EDGE('',*,*,#437,.T.);
#225=ORIENTED_EDGE('',*,*,#438,.T.);
#226=ORIENTED_EDGE('',*,*,#439,.T.);
#227=ORIENTED_EDGE('',*,*,#422,.T.);
#228=ORIENTED_EDGE('',*,*,#440,.F.);
#229=ORIENTED_EDGE('',*,*,#441,.F.);
#230=ORIENTED_EDGE('',*,*,#442,.F.);
#231=ORIENTED_EDGE('',*,*,#443,.F.);
#232=ORIENTED_EDGE('',*,*,#444,.F.);
#233=ORIENTED_EDGE('',*,*,#445,.F.);
#234=ORIENTED_EDGE('',*,*,#446,.F.);
#235=ORIENTED_EDGE('',*,*,#447,.F.);
#236=ORIENTED_EDGE('',*,*,#448,.F.);
#237=ORIENTED_EDGE('',*,*,#449,.F.);
#238=ORIENTED_EDGE('',*,*,#401,.F.);
#239=ORIENTED_EDGE('',*,*,#398,.F.);
#240=ORIENTED_EDGE('',*,*,#395,.F.);
#241=ORIENTED_EDGE('',*,*,#418,.F.);
#242=ORIENTED_EDGE('',*,*,#368,.F.);
#243=ORIENTED_EDGE('',*,*,#388,.T.);
#244=ORIENTED_EDGE('',*,*,#385,.T.);
#245=ORIENTED_EDGE('',*,*,#434,.F.);
#246=ORIENTED_EDGE('',*,*,#449,.T.);
#247=ORIENTED_EDGE('',*,*,#447,.T.);
#248=ORIENTED_EDGE('',*,*,#445,.T.);
#249=ORIENTED_EDGE('',*,*,#443,.T.);
#250=ORIENTED_EDGE('',*,*,#441,.T.);
#251=ORIENTED_EDGE('',*,*,#450,.F.);
#252=ORIENTED_EDGE('',*,*,#451,.F.);
#253=ORIENTED_EDGE('',*,*,#426,.F.);
#254=ORIENTED_EDGE('',*,*,#452,.T.);
#255=ORIENTED_EDGE('',*,*,#453,.T.);
#256=ORIENTED_EDGE('',*,*,#454,.F.);
#257=ORIENTED_EDGE('',*,*,#436,.F.);
#258=ORIENTED_EDGE('',*,*,#419,.F.);
#259=ORIENTED_EDGE('',*,*,#451,.T.);
#260=ORIENTED_EDGE('',*,*,#440,.T.);
#261=ORIENTED_EDGE('',*,*,#442,.T.);
#262=ORIENTED_EDGE('',*,*,#444,.T.);
#263=ORIENTED_EDGE('',*,*,#446,.T.);
#264=ORIENTED_EDGE('',*,*,#448,.T.);
#265=ORIENTED_EDGE('',*,*,#437,.F.);
#266=ORIENTED_EDGE('',*,*,#454,.T.);
#267=ORIENTED_EDGE('',*,*,#450,.T.);
#268=ORIENTED_EDGE('',*,*,#455,.F.);
#269=ORIENTED_EDGE('',*,*,#456,.T.);
#270=ORIENTED_EDGE('',*,*,#457,.T.);
#271=ORIENTED_EDGE('',*,*,#458,.T.);
#272=ORIENTED_EDGE('',*,*,#459,.T.);
#273=ORIENTED_EDGE('',*,*,#460,.F.);
#274=ORIENTED_EDGE('',*,*,#459,.F.);
#275=ORIENTED_EDGE('',*,*,#461,.F.);
#276=ORIENTED_EDGE('',*,*,#405,.F.);
#277=ORIENTED_EDGE('',*,*,#435,.F.);
#278=ORIENTED_EDGE('',*,*,#382,.F.);
#279=ORIENTED_EDGE('',*,*,#461,.T.);
#280=ORIENTED_EDGE('',*,*,#458,.F.);
#281=ORIENTED_EDGE('',*,*,#462,.F.);
#282=ORIENTED_EDGE('',*,*,#452,.F.);
#283=ORIENTED_EDGE('',*,*,#427,.F.);
#284=ORIENTED_EDGE('',*,*,#406,.F.);
#285=ORIENTED_EDGE('',*,*,#423,.T.);
#286=ORIENTED_EDGE('',*,*,#439,.F.);
#287=ORIENTED_EDGE('',*,*,#463,.F.);
#288=ORIENTED_EDGE('',*,*,#456,.F.);
#289=ORIENTED_EDGE('',*,*,#460,.T.);
#290=ORIENTED_EDGE('',*,*,#381,.F.);
#291=ORIENTED_EDGE('',*,*,#462,.T.);
#292=ORIENTED_EDGE('',*,*,#457,.F.);
#293=ORIENTED_EDGE('',*,*,#463,.T.);
#294=ORIENTED_EDGE('',*,*,#438,.F.);
#295=ORIENTED_EDGE('',*,*,#455,.T.);
#296=ORIENTED_EDGE('',*,*,#453,.F.);
#297=ORIENTED_EDGE('',*,*,#347,.F.);
#298=ORIENTED_EDGE('',*,*,#428,.F.);
#299=ORIENTED_EDGE('',*,*,#348,.F.);
#300=ORIENTED_EDGE('',*,*,#429,.F.);
#301=ORIENTED_EDGE('',*,*,#464,.T.);
#302=ORIENTED_EDGE('',*,*,#465,.T.);
#303=ORIENTED_EDGE('',*,*,#354,.F.);
#304=ORIENTED_EDGE('',*,*,#466,.T.);
#305=ORIENTED_EDGE('',*,*,#352,.T.);
#306=ORIENTED_EDGE('',*,*,#467,.T.);
#307=ORIENTED_EDGE('',*,*,#468,.F.);
#308=ORIENTED_EDGE('',*,*,#469,.F.);
#309=ORIENTED_EDGE('',*,*,#468,.T.);
#310=ORIENTED_EDGE('',*,*,#470,.T.);
#311=ORIENTED_EDGE('',*,*,#464,.F.);
#312=ORIENTED_EDGE('',*,*,#471,.T.);
#313=ORIENTED_EDGE('',*,*,#472,.F.);
#314=ORIENTED_EDGE('',*,*,#473,.F.);
#315=ORIENTED_EDGE('',*,*,#466,.F.);
#316=ORIENTED_EDGE('',*,*,#353,.T.);
#317=ORIENTED_EDGE('',*,*,#469,.T.);
#318=ORIENTED_EDGE('',*,*,#471,.F.);
#319=ORIENTED_EDGE('',*,*,#474,.F.);
#320=ORIENTED_EDGE('',*,*,#473,.T.);
#321=ORIENTED_EDGE('',*,*,#474,.T.);
#322=ORIENTED_EDGE('',*,*,#475,.F.);
#323=ORIENTED_EDGE('',*,*,#472,.T.);
#324=ORIENTED_EDGE('',*,*,#475,.T.);
#325=ORIENTED_EDGE('',*,*,#355,.F.);
#326=ORIENTED_EDGE('',*,*,#465,.F.);
#327=ORIENTED_EDGE('',*,*,#476,.F.);
#328=ORIENTED_EDGE('',*,*,#346,.F.);
#329=ORIENTED_EDGE('',*,*,#476,.T.);
#330=ORIENTED_EDGE('',*,*,#470,.F.);
#331=ORIENTED_EDGE('',*,*,#477,.F.);
#332=ORIENTED_EDGE('',*,*,#337,.F.);
#333=ORIENTED_EDGE('',*,*,#351,.F.);
#334=ORIENTED_EDGE('',*,*,#338,.F.);
#335=ORIENTED_EDGE('',*,*,#477,.T.);
#336=ORIENTED_EDGE('',*,*,#467,.F.);
#337=EDGE_CURVE('',#478,#479,#578,.T.);
#338=EDGE_CURVE('',#479,#480,#579,.T.);
#339=EDGE_CURVE('',#481,#480,#580,.T.);
#340=EDGE_CURVE('',#481,#482,#581,.T.);
#341=EDGE_CURVE('',#482,#483,#582,.T.);
#342=EDGE_CURVE('',#484,#483,#583,.T.);
#343=EDGE_CURVE('',#484,#485,#584,.T.);
#344=EDGE_CURVE('',#485,#486,#585,.T.);
#345=EDGE_CURVE('',#487,#486,#586,.T.);
#346=EDGE_CURVE('',#487,#478,#587,.T.);
#347=EDGE_CURVE('',#488,#488,#27,.F.);
#348=EDGE_CURVE('',#489,#489,#28,.F.);
#349=EDGE_CURVE('',#490,#490,#29,.T.);
#350=EDGE_CURVE('',#491,#491,#30,.T.);
#351=EDGE_CURVE('',#480,#492,#588,.T.);
#352=EDGE_CURVE('',#493,#492,#589,.T.);
#353=EDGE_CURVE('',#494,#493,#590,.T.);
#354=EDGE_CURVE('',#494,#495,#591,.T.);
#355=EDGE_CURVE('',#495,#487,#592,.F.);
#356=EDGE_CURVE('',#486,#496,#593,.T.);
#357=EDGE_CURVE('',#497,#496,#594,.T.);
#358=EDGE_CURVE('',#498,#497,#595,.T.);
#359=EDGE_CURVE('',#499,#498,#596,.T.);
#360=EDGE_CURVE('',#499,#500,#597,.T.);
#361=EDGE_CURVE('',#501,#500,#598,.T.);
#362=EDGE_CURVE('',#501,#502,#599,.F.);
#363=EDGE_CURVE('',#503,#502,#600,.T.);
#364=EDGE_CURVE('',#503,#504,#601,.T.);
#365=EDGE_CURVE('',#504,#505,#602,.T.);
#366=EDGE_CURVE('',#505,#481,#603,.F.);
#367=EDGE_CURVE('',#506,#507,#604,.T.);
#368=EDGE_CURVE('',#507,#508,#605,.T.);
#369=EDGE_CURVE('',#508,#509,#606,.T.);
#370=EDGE_CURVE('',#510,#509,#607,.T.);
#371=EDGE_CURVE('',#510,#506,#608,.T.);
#372=EDGE_CURVE('',#509,#511,#609,.T.);
#373=EDGE_CURVE('',#512,#511,#610,.T.);
#374=EDGE_CURVE('',#510,#512,#611,.T.);
#375=EDGE_CURVE('',#513,#511,#612,.T.);
#376=EDGE_CURVE('',#513,#503,#613,.T.);
#377=EDGE_CURVE('',#502,#514,#614,.T.);
#378=EDGE_CURVE('',#512,#514,#615,.T.);
#379=EDGE_CURVE('',#515,#516,#616,.T.);
#380=EDGE_CURVE('',#515,#501,#617,.T.);
#381=EDGE_CURVE('',#500,#517,#618,.T.);
#382=EDGE_CURVE('',#517,#518,#619,.T.);
#383=EDGE_CURVE('',#516,#518,#620,.T.);
#384=EDGE_CURVE('',#519,#518,#621,.T.);
#385=EDGE_CURVE('',#520,#519,#622,.T.);
#386=EDGE_CURVE('',#521,#520,#623,.T.);
#387=EDGE_CURVE('',#516,#521,#624,.T.);
#388=EDGE_CURVE('',#507,#520,#625,.T.);
#389=EDGE_CURVE('',#521,#506,#626,.T.);
#390=EDGE_CURVE('',#514,#515,#627,.F.);
#391=EDGE_CURVE('',#483,#522,#628,.T.);
#392=EDGE_CURVE('',#523,#522,#629,.T.);
#393=EDGE_CURVE('',#484,#523,#630,.T.);
#394=EDGE_CURVE('',#524,#522,#631,.T.);
#395=EDGE_CURVE('',#524,#525,#632,.T.);
#396=EDGE_CURVE('',#526,#525,#633,.T.);
#397=EDGE_CURVE('',#526,#523,#634,.T.);
#398=EDGE_CURVE('',#525,#527,#635,.T.);
#399=EDGE_CURVE('',#528,#527,#636,.T.);
#400=EDGE_CURVE('',#528,#526,#637,.T.);
#401=EDGE_CURVE('',#527,#529,#638,.T.);
#402=EDGE_CURVE('',#529,#530,#639,.T.);
#403=EDGE_CURVE('',#531,#530,#640,.T.);
#404=EDGE_CURVE('',#531,#528,#641,.T.);
#405=EDGE_CURVE('',#530,#532,#642,.T.);
#406=EDGE_CURVE('',#532,#497,#643,.T.);
#407=EDGE_CURVE('',#496,#533,#644,.T.);
#408=EDGE_CURVE('',#531,#533,#645,.T.);
#409=EDGE_CURVE('',#533,#485,#646,.T.);
#410=EDGE_CURVE('',#522,#509,#647,.T.);
#411=EDGE_CURVE('',#482,#534,#648,.F.);
#412=EDGE_CURVE('',#535,#534,#649,.T.);
#413=EDGE_CURVE('',#535,#513,#650,.T.);
#414=EDGE_CURVE('',#536,#536,#31,.T.);
#415=EDGE_CURVE('',#537,#537,#32,.T.);
#416=EDGE_CURVE('',#534,#505,#651,.T.);
#417=EDGE_CURVE('',#504,#535,#652,.T.);
#418=EDGE_CURVE('',#508,#524,#653,.T.);
#419=EDGE_CURVE('',#538,#539,#654,.T.);
#420=EDGE_CURVE('',#499,#539,#655,.T.);
#421=EDGE_CURVE('',#498,#538,#656,.T.);
#422=EDGE_CURVE('',#540,#539,#657,.T.);
#423=EDGE_CURVE('',#500,#540,#658,.T.);
#424=EDGE_CURVE('',#541,#541,#33,.T.);
#425=EDGE_CURVE('',#542,#542,#34,.T.);
#426=EDGE_CURVE('',#543,#538,#659,.T.);
#427=EDGE_CURVE('',#497,#543,#660,.T.);
#428=EDGE_CURVE('',#544,#544,#35,.T.);
#429=EDGE_CURVE('',#545,#545,#36,.T.);
#430=EDGE_CURVE('',#546,#546,#37,.T.);
#431=EDGE_CURVE('',#547,#547,#38,.T.);
#432=EDGE_CURVE('',#548,#548,#39,.T.);
#433=EDGE_CURVE('',#549,#549,#40,.T.);
#434=EDGE_CURVE('',#529,#519,#661,.T.);
#435=EDGE_CURVE('',#518,#530,#662,.T.);
#436=EDGE_CURVE('',#539,#550,#663,.T.);
#437=EDGE_CURVE('',#550,#551,#664,.T.);
#438=EDGE_CURVE('',#551,#552,#665,.F.);
#439=EDGE_CURVE('',#552,#540,#666,.F.);
#440=EDGE_CURVE('',#553,#553,#41,.T.);
#441=EDGE_CURVE('',#554,#554,#42,.T.);
#442=EDGE_CURVE('',#555,#555,#43,.T.);
#443=EDGE_CURVE('',#556,#556,#44,.T.);
#444=EDGE_CURVE('',#557,#557,#45,.T.);
#445=EDGE_CURVE('',#558,#558,#46,.T.);
#446=EDGE_CURVE('',#559,#559,#47,.T.);
#447=EDGE_CURVE('',#560,#560,#48,.T.);
#448=EDGE_CURVE('',#561,#561,#49,.T.);
#449=EDGE_CURVE('',#562,#562,#50,.T.);
#450=EDGE_CURVE('',#563,#564,#667,.T.);
#451=EDGE_CURVE('',#538,#563,#668,.F.);
#452=EDGE_CURVE('',#543,#565,#669,.F.);
#453=EDGE_CURVE('',#565,#564,#670,.F.);
#454=EDGE_CURVE('',#550,#563,#671,.F.);
#455=EDGE_CURVE('',#551,#564,#672,.T.);
#456=EDGE_CURVE('',#566,#567,#673,.T.);
#457=EDGE_CURVE('',#567,#568,#674,.T.);
#458=EDGE_CURVE('',#568,#569,#675,.T.);
#459=EDGE_CURVE('',#569,#566,#676,.T.);
#460=EDGE_CURVE('',#566,#517,#677,.T.);
#461=EDGE_CURVE('',#532,#569,#678,.F.);
#462=EDGE_CURVE('',#565,#568,#679,.F.);
#463=EDGE_CURVE('',#567,#552,#680,.T.);
#464=EDGE_CURVE('',#570,#571,#681,.T.);
#465=EDGE_CURVE('',#571,#495,#682,.T.);
#466=EDGE_CURVE('',#494,#570,#683,.T.);
#467=EDGE_CURVE('',#492,#572,#684,.T.);
#468=EDGE_CURVE('',#573,#572,#685,.T.);
#469=EDGE_CURVE('',#493,#573,#686,.T.);
#470=EDGE_CURVE('',#572,#571,#687,.T.);
#471=EDGE_CURVE('',#570,#573,#688,.T.);
#472=EDGE_CURVE('',#574,#574,#51,.T.);
#473=EDGE_CURVE('',#575,#575,#52,.T.);
#474=EDGE_CURVE('',#576,#576,#53,.T.);
#475=EDGE_CURVE('',#577,#577,#54,.T.);
#476=EDGE_CURVE('',#478,#571,#689,.F.);
#477=EDGE_CURVE('',#479,#572,#690,.T.);
#478=VERTEX_POINT('',#1522);
#479=VERTEX_POINT('',#1523);
#480=VERTEX_POINT('',#1525);
#481=VERTEX_POINT('',#1527);
#482=VERTEX_POINT('',#1529);
#483=VERTEX_POINT('',#1531);
#484=VERTEX_POINT('',#1533);
#485=VERTEX_POINT('',#1535);
#486=VERTEX_POINT('',#1537);
#487=VERTEX_POINT('',#1539);
#488=VERTEX_POINT('',#1543);
#489=VERTEX_POINT('',#1545);
#490=VERTEX_POINT('',#1547);
#491=VERTEX_POINT('',#1549);
#492=VERTEX_POINT('',#1551);
#493=VERTEX_POINT('',#1553);
#494=VERTEX_POINT('',#1555);
#495=VERTEX_POINT('',#1557);
#496=VERTEX_POINT('',#1560);
#497=VERTEX_POINT('',#1562);
#498=VERTEX_POINT('',#1564);
#499=VERTEX_POINT('',#1566);
#500=VERTEX_POINT('',#1568);
#501=VERTEX_POINT('',#1570);
#502=VERTEX_POINT('',#1572);
#503=VERTEX_POINT('',#1574);
#504=VERTEX_POINT('',#1576);
#505=VERTEX_POINT('',#1578);
#506=VERTEX_POINT('',#1582);
#507=VERTEX_POINT('',#1583);
#508=VERTEX_POINT('',#1585);
#509=VERTEX_POINT('',#1587);
#510=VERTEX_POINT('',#1589);
#511=VERTEX_POINT('',#1593);
#512=VERTEX_POINT('',#1595);
#513=VERTEX_POINT('',#1599);
#514=VERTEX_POINT('',#1602);
#515=VERTEX_POINT('',#1606);
#516=VERTEX_POINT('',#1607);
#517=VERTEX_POINT('',#1610);
#518=VERTEX_POINT('',#1612);
#519=VERTEX_POINT('',#1616);
#520=VERTEX_POINT('',#1618);
#521=VERTEX_POINT('',#1620);
#522=VERTEX_POINT('',#1630);
#523=VERTEX_POINT('',#1632);
#524=VERTEX_POINT('',#1636);
#525=VERTEX_POINT('',#1638);
#526=VERTEX_POINT('',#1640);
#527=VERTEX_POINT('',#1644);
#528=VERTEX_POINT('',#1646);
#529=VERTEX_POINT('',#1650);
#530=VERTEX_POINT('',#1652);
#531=VERTEX_POINT('',#1654);
#532=VERTEX_POINT('',#1658);
#533=VERTEX_POINT('',#1661);
#534=VERTEX_POINT('',#1669);
#535=VERTEX_POINT('',#1671);
#536=VERTEX_POINT('',#1674);
#537=VERTEX_POINT('',#1676);
#538=VERTEX_POINT('',#1684);
#539=VERTEX_POINT('',#1685);
#540=VERTEX_POINT('',#1690);
#541=VERTEX_POINT('',#1694);
#542=VERTEX_POINT('',#1697);
#543=VERTEX_POINT('',#1700);
#544=VERTEX_POINT('',#1704);
#545=VERTEX_POINT('',#1707);
#546=VERTEX_POINT('',#1712);
#547=VERTEX_POINT('',#1715);
#548=VERTEX_POINT('',#1719);
#549=VERTEX_POINT('',#1722);
#550=VERTEX_POINT('',#1729);
#551=VERTEX_POINT('',#1731);
#552=VERTEX_POINT('',#1733);
#553=VERTEX_POINT('',#1737);
#554=VERTEX_POINT('',#1739);
#555=VERTEX_POINT('',#1742);
#556=VERTEX_POINT('',#1744);
#557=VERTEX_POINT('',#1747);
#558=VERTEX_POINT('',#1749);
#559=VERTEX_POINT('',#1752);
#560=VERTEX_POINT('',#1754);
#561=VERTEX_POINT('',#1757);
#562=VERTEX_POINT('',#1759);
#563=VERTEX_POINT('',#1763);
#564=VERTEX_POINT('',#1764);
#565=VERTEX_POINT('',#1767);
#566=VERTEX_POINT('',#1775);
#567=VERTEX_POINT('',#1776);
#568=VERTEX_POINT('',#1778);
#569=VERTEX_POINT('',#1780);
#570=VERTEX_POINT('',#1794);
#571=VERTEX_POINT('',#1795);
#572=VERTEX_POINT('',#1800);
#573=VERTEX_POINT('',#1802);
#574=VERTEX_POINT('',#1809);
#575=VERTEX_POINT('',#1811);
#576=VERTEX_POINT('',#1814);
#577=VERTEX_POINT('',#1818);
#578=LINE('',#1521,#691);
#579=LINE('',#1524,#692);
#580=LINE('',#1526,#693);
#581=LINE('',#1528,#694);
#582=LINE('',#1530,#695);
#583=LINE('',#1532,#696);
#584=LINE('',#1534,#697);
#585=LINE('',#1536,#698);
#586=LINE('',#1538,#699);
#587=LINE('',#1540,#700);
#588=LINE('',#1550,#701);
#589=LINE('',#1552,#702);
#590=LINE('',#1554,#703);
#591=LINE('',#1556,#704);
#592=LINE('',#1558,#705);
#593=LINE('',#1559,#706);
#594=LINE('',#1561,#707);
#595=LINE('',#1563,#708);
#596=LINE('',#1565,#709);
#597=LINE('',#1567,#710);
#598=LINE('',#1569,#711);
#599=LINE('',#1571,#712);
#600=LINE('',#1573,#713);
#601=LINE('',#1575,#714);
#602=LINE('',#1577,#715);
#603=LINE('',#1579,#716);
#604=LINE('',#1581,#717);
#605=LINE('',#1584,#718);
#606=LINE('',#1586,#719);
#607=LINE('',#1588,#720);
#608=LINE('',#1590,#721);
#609=LINE('',#1592,#722);
#610=LINE('',#1594,#723);
#611=LINE('',#1596,#724);
#612=LINE('',#1598,#725);
#613=LINE('',#1600,#726);
#614=LINE('',#1601,#727);
#615=LINE('',#1603,#728);
#616=LINE('',#1605,#729);
#617=LINE('',#1608,#730);
#618=LINE('',#1609,#731);
#619=LINE('',#1611,#732);
#620=LINE('',#1613,#733);
#621=LINE('',#1615,#734);
#622=LINE('',#1617,#735);
#623=LINE('',#1619,#736);
#624=LINE('',#1621,#737);
#625=LINE('',#1623,#738);
#626=LINE('',#1624,#739);
#627=LINE('',#1626,#740);
#628=LINE('',#1629,#741);
#629=LINE('',#1631,#742);
#630=LINE('',#1633,#743);
#631=LINE('',#1635,#744);
#632=LINE('',#1637,#745);
#633=LINE('',#1639,#746);
#634=LINE('',#1641,#747);
#635=LINE('',#1643,#748);
#636=LINE('',#1645,#749);
#637=LINE('',#1647,#750);
#638=LINE('',#1649,#751);
#639=LINE('',#1651,#752);
#640=LINE('',#1653,#753);
#641=LINE('',#1655,#754);
#642=LINE('',#1657,#755);
#643=LINE('',#1659,#756);
#644=LINE('',#1660,#757);
#645=LINE('',#1662,#758);
#646=LINE('',#1664,#759);
#647=LINE('',#1667,#760);
#648=LINE('',#1668,#761);
#649=LINE('',#1670,#762);
#650=LINE('',#1672,#763);
#651=LINE('',#1678,#764);
#652=LINE('',#1679,#765);
#653=LINE('',#1681,#766);
#654=LINE('',#1683,#767);
#655=LINE('',#1686,#768);
#656=LINE('',#1687,#769);
#657=LINE('',#1689,#770);
#658=LINE('',#1691,#771);
#659=LINE('',#1699,#772);
#660=LINE('',#1701,#773);
#661=LINE('',#1725,#774);
#662=LINE('',#1726,#775);
#663=LINE('',#1728,#776);
#664=LINE('',#1730,#777);
#665=LINE('',#1732,#778);
#666=LINE('',#1734,#779);
#667=LINE('',#1762,#780);
#668=LINE('',#1765,#781);
#669=LINE('',#1766,#782);
#670=LINE('',#1768,#783);
#671=LINE('',#1770,#784);
#672=LINE('',#1772,#785);
#673=LINE('',#1774,#786);
#674=LINE('',#1777,#787);
#675=LINE('',#1779,#788);
#676=LINE('',#1781,#789);
#677=LINE('',#1783,#790);
#678=LINE('',#1784,#791);
#679=LINE('',#1786,#792);
#680=LINE('',#1788,#793);
#681=LINE('',#1793,#794);
#682=LINE('',#1796,#795);
#683=LINE('',#1797,#796);
#684=LINE('',#1799,#797);
#685=LINE('',#1801,#798);
#686=LINE('',#1803,#799);
#687=LINE('',#1805,#800);
#688=LINE('',#1806,#801);
#689=LINE('',#1821,#802);
#690=LINE('',#1823,#803);
#691=VECTOR('',#1224,1.);
#692=VECTOR('',#1225,1.);
#693=VECTOR('',#1226,1.);
#694=VECTOR('',#1227,1.);
#695=VECTOR('',#1228,1.);
#696=VECTOR('',#1229,1.);
#697=VECTOR('',#1230,1.);
#698=VECTOR('',#1231,1.);
#699=VECTOR('',#1232,1.);
#700=VECTOR('',#1233,1.);
#701=VECTOR('',#1244,1.);
#702=VECTOR('',#1245,1.);
#703=VECTOR('',#1246,1.);
#704=VECTOR('',#1247,1.);
#705=VECTOR('',#1248,1.);
#706=VECTOR('',#1249,1.);
#707=VECTOR('',#1250,1.);
#708=VECTOR('',#1251,1.);
#709=VECTOR('',#1252,1.);
#710=VECTOR('',#1253,1.);
#711=VECTOR('',#1254,1.);
#712=VECTOR('',#1255,1.);
#713=VECTOR('',#1256,1.);
#714=VECTOR('',#1257,1.);
#715=VECTOR('',#1258,1.);
#716=VECTOR('',#1259,1.);
#717=VECTOR('',#1262,1.);
#718=VECTOR('',#1263,1.);
#719=VECTOR('',#1264,1.);
#720=VECTOR('',#1265,1.);
#721=VECTOR('',#1266,1.);
#722=VECTOR('',#1269,1.);
#723=VECTOR('',#1270,1.);
#724=VECTOR('',#1271,1.);
#725=VECTOR('',#1274,1.);
#726=VECTOR('',#1275,1.);
#727=VECTOR('',#1276,1.);
#728=VECTOR('',#1277,1.);
#729=VECTOR('',#1280,1.);
#730=VECTOR('',#1281,1.);
#731=VECTOR('',#1282,1.);
#732=VECTOR('',#1283,1.);
#733=VECTOR('',#1284,1.);
#734=VECTOR('',#1287,1.);
#735=VECTOR('',#1288,1.);
#736=VECTOR('',#1289,1.);
#737=VECTOR('',#1290,1.);
#738=VECTOR('',#1293,1.);
#739=VECTOR('',#1294,1.);
#740=VECTOR('',#1297,1.);
#741=VECTOR('',#1302,1.);
#742=VECTOR('',#1303,1.);
#743=VECTOR('',#1304,1.);
#744=VECTOR('',#1307,1.);
#745=VECTOR('',#1308,1.);
#746=VECTOR('',#1309,1.);
#747=VECTOR('',#1310,1.);
#748=VECTOR('',#1313,1.);
#749=VECTOR('',#1314,1.);
#750=VECTOR('',#1315,1.);
#751=VECTOR('',#1318,1.);
#752=VECTOR('',#1319,1.);
#753=VECTOR('',#1320,1.);
#754=VECTOR('',#1321,1.);
#755=VECTOR('',#1324,1.);
#756=VECTOR('',#1325,1.);
#757=VECTOR('',#1326,1.);
#758=VECTOR('',#1327,1.);
#759=VECTOR('',#1330,1.);
#760=VECTOR('',#1335,1.);
#761=VECTOR('',#1336,1.);
#762=VECTOR('',#1337,1.);
#763=VECTOR('',#1338,1.);
#764=VECTOR('',#1345,1.);
#765=VECTOR('',#1346,1.);
#766=VECTOR('',#1349,1.);
#767=VECTOR('',#1352,1.);
#768=VECTOR('',#1353,1.);
#769=VECTOR('',#1354,1.);
#770=VECTOR('',#1357,1.);
#771=VECTOR('',#1358,1.);
#772=VECTOR('',#1369,1.);
#773=VECTOR('',#1370,1.);
#774=VECTOR('',#1405,1.);
#775=VECTOR('',#1406,1.);
#776=VECTOR('',#1409,1.);
#777=VECTOR('',#1410,1.);
#778=VECTOR('',#1411,1.);
#779=VECTOR('',#1412,1.);
#780=VECTOR('',#1447,1.);
#781=VECTOR('',#1448,1.);
#782=VECTOR('',#1449,1.);
#783=VECTOR('',#1450,1.);
#784=VECTOR('',#1453,1.);
#785=VECTOR('',#1456,1.);
#786=VECTOR('',#1459,1.);
#787=VECTOR('',#1460,1.);
#788=VECTOR('',#1461,1.);
#789=VECTOR('',#1462,1.);
#790=VECTOR('',#1465,1.);
#791=VECTOR('',#1466,1.);
#792=VECTOR('',#1469,1.);
#793=VECTOR('',#1472,1.);
#794=VECTOR('',#1481,1.);
#795=VECTOR('',#1482,1.);
#796=VECTOR('',#1483,1.);
#797=VECTOR('',#1486,1.);
#798=VECTOR('',#1487,1.);
#799=VECTOR('',#1488,1.);
#800=VECTOR('',#1491,1.);
#801=VECTOR('',#1492,1.);
#802=VECTOR('',#1513,1.);
#803=VECTOR('',#1516,1.);
#804=EDGE_LOOP('',(#55,#56,#57,#58,#59,#60,#61,#62,#63,#64));
#805=EDGE_LOOP('',(#65));
#806=EDGE_LOOP('',(#66));
#807=EDGE_LOOP('',(#67));
#808=EDGE_LOOP('',(#68));
#809=EDGE_LOOP('',(#69,#70,#71,#72,#73,#74,#75,#76,#77,#78,#79,#80,#81,
#82,#83,#84,#85,#86));
#810=EDGE_LOOP('',(#87,#88,#89,#90,#91));
#811=EDGE_LOOP('',(#92,#93,#94,#95));
#812=EDGE_LOOP('',(#96,#97,#98,#99,#100,#101));
#813=EDGE_LOOP('',(#102,#103,#104,#105,#106,#107));
#814=EDGE_LOOP('',(#108,#109,#110,#111,#112));
#815=EDGE_LOOP('',(#113,#114,#115,#116));
#816=EDGE_LOOP('',(#117,#118,#119,#120,#121,#122,#123));
#817=EDGE_LOOP('',(#124,#125,#126,#127));
#818=EDGE_LOOP('',(#128,#129,#130,#131));
#819=EDGE_LOOP('',(#132,#133,#134,#135,#136));
#820=EDGE_LOOP('',(#137,#138,#139,#140));
#821=EDGE_LOOP('',(#141,#142,#143,#144,#145));
#822=EDGE_LOOP('',(#146,#147,#148,#149,#150,#151));
#823=EDGE_LOOP('',(#152,#153,#154,#155,#156,#157,#158));
#824=EDGE_LOOP('',(#159,#160,#161,#162));
#825=EDGE_LOOP('',(#163,#164,#165,#166,#167,#168,#169,#170));
#826=EDGE_LOOP('',(#171));
#827=EDGE_LOOP('',(#172));
#828=EDGE_LOOP('',(#173,#174,#175,#176));
#829=EDGE_LOOP('',(#177,#178,#179,#180));
#830=EDGE_LOOP('',(#181,#182,#183,#184));
#831=EDGE_LOOP('',(#185,#186,#187,#188));
#832=EDGE_LOOP('',(#189));
#833=EDGE_LOOP('',(#190));
#834=EDGE_LOOP('',(#191));
#835=EDGE_LOOP('',(#192));
#836=EDGE_LOOP('',(#193,#194,#195,#196));
#837=EDGE_LOOP('',(#197));
#838=EDGE_LOOP('',(#198));
#839=EDGE_LOOP('',(#199));
#840=EDGE_LOOP('',(#200));
#841=EDGE_LOOP('',(#201,#202,#203,#204));
#842=EDGE_LOOP('',(#205,#206,#207,#208));
#843=EDGE_LOOP('',(#209));
#844=EDGE_LOOP('',(#210));
#845=EDGE_LOOP('',(#211));
#846=EDGE_LOOP('',(#212));
#847=EDGE_LOOP('',(#213));
#848=EDGE_LOOP('',(#214));
#849=EDGE_LOOP('',(#215));
#850=EDGE_LOOP('',(#216));
#851=EDGE_LOOP('',(#217));
#852=EDGE_LOOP('',(#218));
#853=EDGE_LOOP('',(#219,#220,#221,#222));
#854=EDGE_LOOP('',(#223,#224,#225,#226,#227));
#855=EDGE_LOOP('',(#228));
#856=EDGE_LOOP('',(#229));
#857=EDGE_LOOP('',(#230));
#858=EDGE_LOOP('',(#231));
#859=EDGE_LOOP('',(#232));
#860=EDGE_LOOP('',(#233));
#861=EDGE_LOOP('',(#234));
#862=EDGE_LOOP('',(#235));
#863=EDGE_LOOP('',(#236));
#864=EDGE_LOOP('',(#237));
#865=EDGE_LOOP('',(#238,#239,#240,#241,#242,#243,#244,#245));
#866=EDGE_LOOP('',(#246));
#867=EDGE_LOOP('',(#247));
#868=EDGE_LOOP('',(#248));
#869=EDGE_LOOP('',(#249));
#870=EDGE_LOOP('',(#250));
#871=EDGE_LOOP('',(#251,#252,#253,#254,#255));
#872=EDGE_LOOP('',(#256,#257,#258,#259));
#873=EDGE_LOOP('',(#260));
#874=EDGE_LOOP('',(#261));
#875=EDGE_LOOP('',(#262));
#876=EDGE_LOOP('',(#263));
#877=EDGE_LOOP('',(#264));
#878=EDGE_LOOP('',(#265,#266,#267,#268));
#879=EDGE_LOOP('',(#269,#270,#271,#272));
#880=EDGE_LOOP('',(#273,#274,#275,#276,#277,#278));
#881=EDGE_LOOP('',(#279,#280,#281,#282,#283,#284));
#882=EDGE_LOOP('',(#285,#286,#287,#288,#289,#290));
#883=EDGE_LOOP('',(#291,#292,#293,#294,#295,#296));
#884=EDGE_LOOP('',(#297));
#885=EDGE_LOOP('',(#298));
#886=EDGE_LOOP('',(#299));
#887=EDGE_LOOP('',(#300));
#888=EDGE_LOOP('',(#301,#302,#303,#304));
#889=EDGE_LOOP('',(#305,#306,#307,#308));
#890=EDGE_LOOP('',(#309,#310,#311,#312));
#891=EDGE_LOOP('',(#313));
#892=EDGE_LOOP('',(#314));
#893=EDGE_LOOP('',(#315,#316,#317,#318));
#894=EDGE_LOOP('',(#319));
#895=EDGE_LOOP('',(#320));
#896=EDGE_LOOP('',(#321));
#897=EDGE_LOOP('',(#322));
#898=EDGE_LOOP('',(#323));
#899=EDGE_LOOP('',(#324));
#900=EDGE_LOOP('',(#325,#326,#327,#328));
#901=EDGE_LOOP('',(#329,#330,#331,#332));
#902=EDGE_LOOP('',(#333,#334,#335,#336));
#903=FACE_BOUND('',#804,.T.);
#904=FACE_BOUND('',#805,.T.);
#905=FACE_BOUND('',#806,.T.);
#906=FACE_BOUND('',#807,.T.);
#907=FACE_BOUND('',#808,.T.);
#908=FACE_BOUND('',#809,.T.);
#909=FACE_BOUND('',#810,.T.);
#910=FACE_BOUND('',#811,.T.);
#911=FACE_BOUND('',#812,.T.);
#912=FACE_BOUND('',#813,.T.);
#913=FACE_BOUND('',#814,.T.);
#914=FACE_BOUND('',#815,.T.);
#915=FACE_BOUND('',#816,.T.);
#916=FACE_BOUND('',#817,.T.);
#917=FACE_BOUND('',#818,.T.);
#918=FACE_BOUND('',#819,.T.);
#919=FACE_BOUND('',#820,.T.);
#920=FACE_BOUND('',#821,.T.);
#921=FACE_BOUND('',#822,.T.);
#922=FACE_BOUND('',#823,.T.);
#923=FACE_BOUND('',#824,.T.);
#924=FACE_BOUND('',#825,.T.);
#925=FACE_BOUND('',#826,.T.);
#926=FACE_BOUND('',#827,.T.);
#927=FACE_BOUND('',#828,.T.);
#928=FACE_BOUND('',#829,.T.);
#929=FACE_BOUND('',#830,.T.);
#930=FACE_BOUND('',#831,.T.);
#931=FACE_BOUND('',#832,.T.);
#932=FACE_BOUND('',#833,.T.);
#933=FACE_BOUND('',#834,.T.);
#934=FACE_BOUND('',#835,.T.);
#935=FACE_BOUND('',#836,.T.);
#936=FACE_BOUND('',#837,.T.);
#937=FACE_BOUND('',#838,.T.);
#938=FACE_BOUND('',#839,.T.);
#939=FACE_BOUND('',#840,.T.);
#940=FACE_BOUND('',#841,.T.);
#941=FACE_BOUND('',#842,.T.);
#942=FACE_BOUND('',#843,.T.);
#943=FACE_BOUND('',#844,.T.);
#944=FACE_BOUND('',#845,.T.);
#945=FACE_BOUND('',#846,.T.);
#946=FACE_BOUND('',#847,.T.);
#947=FACE_BOUND('',#848,.T.);
#948=FACE_BOUND('',#849,.T.);
#949=FACE_BOUND('',#850,.T.);
#950=FACE_BOUND('',#851,.T.);
#951=FACE_BOUND('',#852,.T.);
#952=FACE_BOUND('',#853,.T.);
#953=FACE_BOUND('',#854,.T.);
#954=FACE_BOUND('',#855,.T.);
#955=FACE_BOUND('',#856,.T.);
#956=FACE_BOUND('',#857,.T.);
#957=FACE_BOUND('',#858,.T.);
#958=FACE_BOUND('',#859,.T.);
#959=FACE_BOUND('',#860,.T.);
#960=FACE_BOUND('',#861,.T.);
#961=FACE_BOUND('',#862,.T.);
#962=FACE_BOUND('',#863,.T.);
#963=FACE_BOUND('',#864,.T.);
#964=FACE_BOUND('',#865,.T.);
#965=FACE_BOUND('',#866,.T.);
#966=FACE_BOUND('',#867,.T.);
#967=FACE_BOUND('',#868,.T.);
#968=FACE_BOUND('',#869,.T.);
#969=FACE_BOUND('',#870,.T.);
#970=FACE_BOUND('',#871,.T.);
#971=FACE_BOUND('',#872,.T.);
#972=FACE_BOUND('',#873,.T.);
#973=FACE_BOUND('',#874,.T.);
#974=FACE_BOUND('',#875,.T.);
#975=FACE_BOUND('',#876,.T.);
#976=FACE_BOUND('',#877,.T.);
#977=FACE_BOUND('',#878,.T.);
#978=FACE_BOUND('',#879,.T.);
#979=FACE_BOUND('',#880,.T.);
#980=FACE_BOUND('',#881,.T.);
#981=FACE_BOUND('',#882,.T.);
#982=FACE_BOUND('',#883,.T.);
#983=FACE_BOUND('',#884,.T.);
#984=FACE_BOUND('',#885,.T.);
#985=FACE_BOUND('',#886,.T.);
#986=FACE_BOUND('',#887,.T.);
#987=FACE_BOUND('',#888,.T.);
#988=FACE_BOUND('',#889,.T.);
#989=FACE_BOUND('',#890,.T.);
#990=FACE_BOUND('',#891,.T.);
#991=FACE_BOUND('',#892,.T.);
#992=FACE_BOUND('',#893,.T.);
#993=FACE_BOUND('',#894,.T.);
#994=FACE_BOUND('',#895,.T.);
#995=FACE_BOUND('',#896,.T.);
#996=FACE_BOUND('',#897,.T.);
#997=FACE_BOUND('',#898,.T.);
#998=FACE_BOUND('',#899,.T.);
#999=FACE_BOUND('',#900,.T.);
#1000=FACE_BOUND('',#901,.T.);
#1001=FACE_BOUND('',#902,.T.);
#1002=PLANE('',#1128);
#1003=PLANE('',#1129);
#1004=PLANE('',#1134);
#1005=PLANE('',#1135);
#1006=PLANE('',#1136);
#1007=PLANE('',#1137);
#1008=PLANE('',#1138);
#1009=PLANE('',#1139);
#1010=PLANE('',#1140);
#1011=PLANE('',#1141);
#1012=PLANE('',#1142);
#1013=PLANE('',#1143);
#1014=PLANE('',#1144);
#1015=PLANE('',#1145);
#1016=PLANE('',#1146);
#1017=PLANE('',#1147);
#1018=PLANE('',#1148);
#1019=PLANE('',#1149);
#1020=PLANE('',#1152);
#1021=PLANE('',#1153);
#1022=PLANE('',#1154);
#1023=PLANE('',#1155);
#1024=PLANE('',#1160);
#1025=PLANE('',#1165);
#1026=PLANE('',#1166);
#1027=PLANE('',#1167);
#1028=PLANE('',#1169);
#1029=PLANE('',#1172);
#1030=PLANE('',#1174);
#1031=PLANE('',#1177);
#1032=PLANE('',#1178);
#1033=PLANE('',#1194);
#1034=PLANE('',#1195);
#1035=PLANE('',#1196);
#1036=PLANE('',#1197);
#1037=PLANE('',#1198);
#1038=PLANE('',#1199);
#1039=PLANE('',#1200);
#1040=PLANE('',#1201);
#1041=PLANE('',#1202);
#1042=PLANE('',#1205);
#1043=PLANE('',#1206);
#1044=PLANE('',#1207);
#1045=PLANE('',#1208);
#1046=PLANE('',#1213);
#1047=PLANE('',#1216);
#1048=PLANE('',#1217);
#1049=PLANE('',#1218);
#1050=PLANE('',#1219);
#1051=ADVANCED_FACE('',(#903),#1002,.T.);
#1052=ADVANCED_FACE('',(#904,#905,#906,#907,#908),#1003,.T.);
#1053=ADVANCED_FACE('',(#909),#1004,.T.);
#1054=ADVANCED_FACE('',(#910),#1005,.F.);
#1055=ADVANCED_FACE('',(#911),#1006,.F.);
#1056=ADVANCED_FACE('',(#912),#1007,.F.);
#1057=ADVANCED_FACE('',(#913),#1008,.F.);
#1058=ADVANCED_FACE('',(#914),#1009,.F.);
#1059=ADVANCED_FACE('',(#915),#1010,.T.);
#1060=ADVANCED_FACE('',(#916),#1011,.F.);
#1061=ADVANCED_FACE('',(#917),#1012,.F.);
#1062=ADVANCED_FACE('',(#918),#1013,.T.);
#1063=ADVANCED_FACE('',(#919),#1014,.T.);
#1064=ADVANCED_FACE('',(#920),#1015,.T.);
#1065=ADVANCED_FACE('',(#921),#1016,.F.);
#1066=ADVANCED_FACE('',(#922),#1017,.T.);
#1067=ADVANCED_FACE('',(#923),#1018,.T.);
#1068=ADVANCED_FACE('',(#924,#925,#926),#1019,.F.);
#1069=ADVANCED_FACE('',(#927),#1020,.T.);
#1070=ADVANCED_FACE('',(#928),#1021,.F.);
#1071=ADVANCED_FACE('',(#929),#1022,.T.);
#1072=ADVANCED_FACE('',(#930),#1023,.F.);
#1073=ADVANCED_FACE('',(#931,#932),#14,.T.);
#1074=ADVANCED_FACE('',(#933,#934),#15,.T.);
#1075=ADVANCED_FACE('',(#935),#1024,.T.);
#1076=ADVANCED_FACE('',(#936,#937),#16,.F.);
#1077=ADVANCED_FACE('',(#938,#939),#17,.F.);
#1078=ADVANCED_FACE('',(#940),#1025,.F.);
#1079=ADVANCED_FACE('',(#941),#1026,.T.);
#1080=ADVANCED_FACE('',(#942,#943),#1027,.T.);
#1081=ADVANCED_FACE('',(#944),#1028,.T.);
#1082=ADVANCED_FACE('',(#945,#946),#18,.F.);
#1083=ADVANCED_FACE('',(#947,#948),#1029,.T.);
#1084=ADVANCED_FACE('',(#949),#1030,.T.);
#1085=ADVANCED_FACE('',(#950,#951),#19,.F.);
#1086=ADVANCED_FACE('',(#952),#1031,.F.);
#1087=ADVANCED_FACE('',(#953),#1032,.T.);
#1088=ADVANCED_FACE('',(#954,#955),#20,.F.);
#1089=ADVANCED_FACE('',(#956,#957),#21,.F.);
#1090=ADVANCED_FACE('',(#958,#959),#22,.F.);
#1091=ADVANCED_FACE('',(#960,#961),#23,.F.);
#1092=ADVANCED_FACE('',(#962,#963),#24,.F.);
#1093=ADVANCED_FACE('',(#964,#965,#966,#967,#968,#969),#1033,.F.);
#1094=ADVANCED_FACE('',(#970),#1034,.F.);
#1095=ADVANCED_FACE('',(#971),#1035,.F.);
#1096=ADVANCED_FACE('',(#972,#973,#974,#975,#976,#977),#1036,.F.);
#1097=ADVANCED_FACE('',(#978),#1037,.T.);
#1098=ADVANCED_FACE('',(#979),#1038,.F.);
#1099=ADVANCED_FACE('',(#980),#1039,.F.);
#1100=ADVANCED_FACE('',(#981),#1040,.F.);
#1101=ADVANCED_FACE('',(#982),#1041,.F.);
#1102=ADVANCED_FACE('',(#983,#984),#12,.F.);
#1103=ADVANCED_FACE('',(#985,#986),#13,.F.);
#1104=ADVANCED_FACE('',(#987),#1042,.T.);
#1105=ADVANCED_FACE('',(#988),#1043,.F.);
#1106=ADVANCED_FACE('',(#989),#1044,.T.);
#1107=ADVANCED_FACE('',(#990,#991,#992),#1045,.T.);
#1108=ADVANCED_FACE('',(#993,#994),#25,.F.);
#1109=ADVANCED_FACE('',(#995),#1046,.T.);
#1110=ADVANCED_FACE('',(#996,#997),#26,.F.);
#1111=ADVANCED_FACE('',(#998),#1047,.T.);
#1112=ADVANCED_FACE('',(#999),#1048,.F.);
#1113=ADVANCED_FACE('',(#1000),#1049,.F.);
#1114=ADVANCED_FACE('',(#1001),#1050,.T.);
#1115=CLOSED_SHELL('',(#1051,#1052,#1053,#1054,#1055,#1056,#1057,#1058,
#1059,#1060,#1061,#1062,#1063,#1064,#1065,#1066,#1067,#1068,#1069,#1070,
#1071,#1072,#1073,#1074,#1075,#1076,#1077,#1078,#1079,#1080,#1081,#1082,
#1083,#1084,#1085,#1086,#1087,#1088,#1089,#1090,#1091,#1092,#1093,#1094,
#1095,#1096,#1097,#1098,#1099,#1100,#1101,#1102,#1103,#1104,#1105,#1106,
#1107,#1108,#1109,#1110,#1111,#1112,#1113,#1114));
#1116=STYLED_ITEM('',(#1117),#1124);
#1117=PRESENTATION_STYLE_ASSIGNMENT((#1118));
#1118=SURFACE_STYLE_USAGE(.BOTH.,#1119);
#1119=SURFACE_SIDE_STYLE('',(#1120));
#1120=SURFACE_STYLE_FILL_AREA(#1121);
#1121=FILL_AREA_STYLE('',(#1122));
#1122=FILL_AREA_STYLE_COLOUR('',#1123);
#1123=COLOUR_RGB('',0.866666666666667,0.32156862745098,0.156862745098039);
#1124=MANIFOLD_SOLID_BREP('Z-BaseMount',#1115);
#1125=SHAPE_DEFINITION_REPRESENTATION(#1831,#1126);
#1126=SHAPE_REPRESENTATION('Z-BaseMount',(#1127),#1826);
#1127=AXIS2_PLACEMENT_3D('',#1519,#1220,#1221);
#1128=AXIS2_PLACEMENT_3D('',#1520,#1222,#1223);
#1129=AXIS2_PLACEMENT_3D('',#1541,#1234,#1235);
#1130=AXIS2_PLACEMENT_3D('',#1542,#1236,#1237);
#1131=AXIS2_PLACEMENT_3D('',#1544,#1238,#1239);
#1132=AXIS2_PLACEMENT_3D('',#1546,#1240,#1241);
#1133=AXIS2_PLACEMENT_3D('',#1548,#1242,#1243);
#1134=AXIS2_PLACEMENT_3D('',#1580,#1260,#1261);
#1135=AXIS2_PLACEMENT_3D('',#1591,#1267,#1268);
#1136=AXIS2_PLACEMENT_3D('',#1597,#1272,#1273);
#1137=AXIS2_PLACEMENT_3D('',#1604,#1278,#1279);
#1138=AXIS2_PLACEMENT_3D('',#1614,#1285,#1286);
#1139=AXIS2_PLACEMENT_3D('',#1622,#1291,#1292);
#1140=AXIS2_PLACEMENT_3D('',#1625,#1295,#1296);
#1141=AXIS2_PLACEMENT_3D('',#1627,#1298,#1299);
#1142=AXIS2_PLACEMENT_3D('',#1628,#1300,#1301);
#1143=AXIS2_PLACEMENT_3D('',#1634,#1305,#1306);
#1144=AXIS2_PLACEMENT_3D('',#1642,#1311,#1312);
#1145=AXIS2_PLACEMENT_3D('',#1648,#1316,#1317);
#1146=AXIS2_PLACEMENT_3D('',#1656,#1322,#1323);
#1147=AXIS2_PLACEMENT_3D('',#1663,#1328,#1329);
#1148=AXIS2_PLACEMENT_3D('',#1665,#1331,#1332);
#1149=AXIS2_PLACEMENT_3D('',#1666,#1333,#1334);
#1150=AXIS2_PLACEMENT_3D('',#1673,#1339,#1340);
#1151=AXIS2_PLACEMENT_3D('',#1675,#1341,#1342);
#1152=AXIS2_PLACEMENT_3D('',#1677,#1343,#1344);
#1153=AXIS2_PLACEMENT_3D('',#1680,#1347,#1348);
#1154=AXIS2_PLACEMENT_3D('',#1682,#1350,#1351);
#1155=AXIS2_PLACEMENT_3D('',#1688,#1355,#1356);
#1156=AXIS2_PLACEMENT_3D('',#1692,#1359,#1360);
#1157=AXIS2_PLACEMENT_3D('',#1693,#1361,#1362);
#1158=AXIS2_PLACEMENT_3D('',#1695,#1363,#1364);
#1159=AXIS2_PLACEMENT_3D('',#1696,#1365,#1366);
#1160=AXIS2_PLACEMENT_3D('',#1698,#1367,#1368);
#1161=AXIS2_PLACEMENT_3D('',#1702,#1371,#1372);
#1162=AXIS2_PLACEMENT_3D('',#1703,#1373,#1374);
#1163=AXIS2_PLACEMENT_3D('',#1705,#1375,#1376);
#1164=AXIS2_PLACEMENT_3D('',#1706,#1377,#1378);
#1165=AXIS2_PLACEMENT_3D('',#1708,#1379,#1380);
#1166=AXIS2_PLACEMENT_3D('',#1709,#1381,#1382);
#1167=AXIS2_PLACEMENT_3D('',#1710,#1383,#1384);
#1168=AXIS2_PLACEMENT_3D('',#1711,#1385,#1386);
#1169=AXIS2_PLACEMENT_3D('',#1713,#1387,#1388);
#1170=AXIS2_PLACEMENT_3D('',#1714,#1389,#1390);
#1171=AXIS2_PLACEMENT_3D('',#1716,#1391,#1392);
#1172=AXIS2_PLACEMENT_3D('',#1717,#1393,#1394);
#1173=AXIS2_PLACEMENT_3D('',#1718,#1395,#1396);
#1174=AXIS2_PLACEMENT_3D('',#1720,#1397,#1398);
#1175=AXIS2_PLACEMENT_3D('',#1721,#1399,#1400);
#1176=AXIS2_PLACEMENT_3D('',#1723,#1401,#1402);
#1177=AXIS2_PLACEMENT_3D('',#1724,#1403,#1404);
#1178=AXIS2_PLACEMENT_3D('',#1727,#1407,#1408);
#1179=AXIS2_PLACEMENT_3D('',#1735,#1413,#1414);
#1180=AXIS2_PLACEMENT_3D('',#1736,#1415,#1416);
#1181=AXIS2_PLACEMENT_3D('',#1738,#1417,#1418);
#1182=AXIS2_PLACEMENT_3D('',#1740,#1419,#1420);
#1183=AXIS2_PLACEMENT_3D('',#1741,#1421,#1422);
#1184=AXIS2_PLACEMENT_3D('',#1743,#1423,#1424);
#1185=AXIS2_PLACEMENT_3D('',#1745,#1425,#1426);
#1186=AXIS2_PLACEMENT_3D('',#1746,#1427,#1428);
#1187=AXIS2_PLACEMENT_3D('',#1748,#1429,#1430);
#1188=AXIS2_PLACEMENT_3D('',#1750,#1431,#1432);
#1189=AXIS2_PLACEMENT_3D('',#1751,#1433,#1434);
#1190=AXIS2_PLACEMENT_3D('',#1753,#1435,#1436);
#1191=AXIS2_PLACEMENT_3D('',#1755,#1437,#1438);
#1192=AXIS2_PLACEMENT_3D('',#1756,#1439,#1440);
#1193=AXIS2_PLACEMENT_3D('',#1758,#1441,#1442);
#1194=AXIS2_PLACEMENT_3D('',#1760,#1443,#1444);
#1195=AXIS2_PLACEMENT_3D('',#1761,#1445,#1446);
#1196=AXIS2_PLACEMENT_3D('',#1769,#1451,#1452);
#1197=AXIS2_PLACEMENT_3D('',#1771,#1454,#1455);
#1198=AXIS2_PLACEMENT_3D('',#1773,#1457,#1458);
#1199=AXIS2_PLACEMENT_3D('',#1782,#1463,#1464);
#1200=AXIS2_PLACEMENT_3D('',#1785,#1467,#1468);
#1201=AXIS2_PLACEMENT_3D('',#1787,#1470,#1471);
#1202=AXIS2_PLACEMENT_3D('',#1789,#1473,#1474);
#1203=AXIS2_PLACEMENT_3D('',#1790,#1475,#1476);
#1204=AXIS2_PLACEMENT_3D('',#1791,#1477,#1478);
#1205=AXIS2_PLACEMENT_3D('',#1792,#1479,#1480);
#1206=AXIS2_PLACEMENT_3D('',#1798,#1484,#1485);
#1207=AXIS2_PLACEMENT_3D('',#1804,#1489,#1490);
#1208=AXIS2_PLACEMENT_3D('',#1807,#1493,#1494);
#1209=AXIS2_PLACEMENT_3D('',#1808,#1495,#1496);
#1210=AXIS2_PLACEMENT_3D('',#1810,#1497,#1498);
#1211=AXIS2_PLACEMENT_3D('',#1812,#1499,#1500);
#1212=AXIS2_PLACEMENT_3D('',#1813,#1501,#1502);
#1213=AXIS2_PLACEMENT_3D('',#1815,#1503,#1504);
#1214=AXIS2_PLACEMENT_3D('',#1816,#1505,#1506);
#1215=AXIS2_PLACEMENT_3D('',#1817,#1507,#1508);
#1216=AXIS2_PLACEMENT_3D('',#1819,#1509,#1510);
#1217=AXIS2_PLACEMENT_3D('',#1820,#1511,#1512);
#1218=AXIS2_PLACEMENT_3D('',#1822,#1514,#1515);
#1219=AXIS2_PLACEMENT_3D('',#1824,#1517,#1518);
#1220=DIRECTION('',(0.,0.,1.));
#1221=DIRECTION('',(1.,0.,0.));
#1222=DIRECTION('',(0.,6.03382078600629E-17,1.));
#1223=DIRECTION('',(0.,-1.,6.03382078600629E-17));
#1224=DIRECTION('',(-1.,-1.23908819712629E-16,7.47643611951566E-33));
#1225=DIRECTION('',(0.,1.,-6.03382078600629E-17));
#1226=DIRECTION('',(1.,0.,0.));
#1227=DIRECTION('',(0.,-1.,6.03382078600629E-17));
#1228=DIRECTION('',(1.,0.,0.));
#1229=DIRECTION('',(0.,1.,-6.03382078600629E-17));
#1230=DIRECTION('',(1.,0.,0.));
#1231=DIRECTION('',(0.,1.,-6.03382078600629E-17));
#1232=DIRECTION('',(1.,0.,0.));
#1233=DIRECTION('',(0.,-1.,6.03382078600629E-17));
#1234=DIRECTION('',(0.,1.,-6.03382078600629E-17));
#1235=DIRECTION('',(1.,0.,0.));
#1236=DIRECTION('',(0.,1.,-6.03382078600629E-17));
#1237=DIRECTION('',(0.,6.03382078600629E-17,1.));
#1238=DIRECTION('',(0.,1.,-6.03382078600629E-17));
#1239=DIRECTION('',(0.,6.03382078600629E-17,1.));
#1240=DIRECTION('',(0.,1.,-6.03382078600629E-17));
#1241=DIRECTION('',(0.,6.03382078600629E-17,1.));
#1242=DIRECTION('',(0.,1.,-6.03382078600629E-17));
#1243=DIRECTION('',(0.,6.03382078600629E-17,1.));
#1244=DIRECTION('',(0.707106781186548,-4.26655559424939E-17,-0.707106781186547));
#1245=DIRECTION('',(0.,0.,1.));
#1246=DIRECTION('',(-1.,0.,0.));
#1247=DIRECTION('',(0.,0.,1.));
#1248=DIRECTION('',(-0.707106781186548,-4.26655559424939E-17,-0.707106781186547));
#1249=DIRECTION('',(0.707106781186548,-4.26655559424939E-17,-0.707106781186548));
#1250=DIRECTION('',(0.,6.03382078600629E-17,1.));
#1251=DIRECTION('',(1.,0.,0.));
#1252=DIRECTION('',(0.,6.03382078600629E-17,1.));
#1253=DIRECTION('',(1.,0.,0.));
#1254=DIRECTION('',(0.,6.03382078600629E-17,1.));
#1255=DIRECTION('',(0.707106781186548,4.26655559424938E-17,0.707106781186547));
#1256=DIRECTION('',(1.,0.,0.));
#1257=DIRECTION('',(-0.707106781186548,4.26655559424938E-17,0.707106781186547));
#1258=DIRECTION('',(0.,6.03382078600629E-17,1.));
#1259=DIRECTION('',(-0.707106781186548,-4.26655559424939E-17,-0.707106781186548));
#1260=DIRECTION('',(0.707106781186545,4.2665555942494E-17,0.70710678118655));
#1261=DIRECTION('',(0.70710678118655,0.,-0.707106781186545));
#1262=DIRECTION('',(0.,1.,-6.03382078600629E-17));
#1263=DIRECTION('',(-0.70710678118655,4.26655559424937E-17,0.707106781186545));
#1264=DIRECTION('',(0.,-1.,6.03382078600628E-17));
#1265=DIRECTION('',(0.,1.,-6.03382078600629E-17));
#1266=DIRECTION('',(0.70710678118655,-4.26655559424937E-17,-0.707106781186545));
#1267=DIRECTION('',(1.,2.63017720613742E-32,4.35905755145622E-16));
#1268=DIRECTION('',(4.35905755145622E-16,0.,-1.));
#1269=DIRECTION('',(4.35905755145622E-16,-6.03382078600629E-17,-1.));
#1270=DIRECTION('',(0.,1.,-6.03382078600629E-17));
#1271=DIRECTION('',(4.35905755145622E-16,-6.03382078600629E-17,-1.));
#1272=DIRECTION('',(0.,6.03382078600629E-17,1.));
#1273=DIRECTION('',(0.,-1.,6.03382078600629E-17));
#1274=DIRECTION('',(1.,0.,0.));
#1275=DIRECTION('',(0.,1.,-6.03382078600629E-17));
#1276=DIRECTION('',(0.,-1.,6.03382078600629E-17));
#1277=DIRECTION('',(1.,0.,0.));
#1278=DIRECTION('',(-1.,0.,0.));
#1279=DIRECTION('',(0.,1.,0.));
#1280=DIRECTION('',(0.,6.03382078600629E-17,1.));
#1281=DIRECTION('',(0.,1.,-6.03382078600629E-17));
#1282=DIRECTION('',(0.,-1.,0.));
#1283=DIRECTION('',(0.,5.78241158658936E-17,1.));
#1284=DIRECTION('',(0.,1.,-6.03382078600629E-17));
#1285=DIRECTION('',(0.707106781186547,-4.26655559424939E-17,-0.707106781186548));
#1286=DIRECTION('',(-0.707106781186548,0.,-0.707106781186547));
#1287=DIRECTION('',(0.,-1.,6.03382078600628E-17));
#1288=DIRECTION('',(0.707106781186548,4.26655559424938E-17,0.707106781186547));
#1289=DIRECTION('',(0.,1.,-6.03382078600629E-17));
#1290=DIRECTION('',(-0.707106781186548,-4.26655559424938E-17,-0.707106781186547));
#1291=DIRECTION('',(-3.18752924251619E-16,-6.03382078600629E-17,-1.));
#1292=DIRECTION('',(-1.,0.,3.18752924251619E-16));
#1293=DIRECTION('',(1.,-1.92329801994971E-32,-3.18752924251619E-16));
#1294=DIRECTION('',(-1.,1.92329801994971E-32,3.18752924251619E-16));
#1295=DIRECTION('',(0.,-1.,6.03382078600629E-17));
#1296=DIRECTION('',(1.,0.,0.));
#1297=DIRECTION('',(-0.707106781186548,-4.26655559424938E-17,-0.707106781186547));
#1298=DIRECTION('',(-0.707106781186547,4.26655559424939E-17,0.707106781186548));
#1299=DIRECTION('',(0.,1.,-6.03382078600629E-17));
#1300=DIRECTION('',(1.,2.63017720613742E-32,4.35905755145621E-16));
#1301=DIRECTION('',(4.35905755145621E-16,0.,-1.));
#1302=DIRECTION('',(4.35905755145621E-16,-6.03382078600629E-17,-1.));
#1303=DIRECTION('',(0.,1.,-6.03382078600629E-17));
#1304=DIRECTION('',(4.35905755145621E-16,-6.03382078600629E-17,-1.));
#1305=DIRECTION('',(0.707106781186546,-4.2665555942494E-17,-0.70710678118655));
#1306=DIRECTION('',(-0.70710678118655,0.,-0.707106781186546));
#1307=DIRECTION('',(0.,-1.,6.03382078600628E-17));
#1308=DIRECTION('',(0.70710678118655,4.26655559424938E-17,0.707106781186546));
#1309=DIRECTION('',(0.,1.,-6.03382078600629E-17));
#1310=DIRECTION('',(-0.70710678118655,-4.26655559424937E-17,-0.707106781186546));
#1311=DIRECTION('',(0.,-6.03382078600629E-17,-1.));
#1312=DIRECTION('',(0.,1.,-6.03382078600629E-17));
#1313=DIRECTION('',(1.,0.,0.));
#1314=DIRECTION('',(0.,1.,-6.03382078600629E-17));
#1315=DIRECTION('',(-1.,0.,0.));
#1316=DIRECTION('',(-0.707106781186548,-4.26655559424939E-17,-0.707106781186548));
#1317=DIRECTION('',(-0.707106781186548,0.,0.707106781186548));
#1318=DIRECTION('',(0.707106781186548,-4.26655559424939E-17,-0.707106781186548));
#1319=DIRECTION('',(0.,-1.,6.03382078600628E-17));
#1320=DIRECTION('',(0.,1.,-6.03382078600629E-17));
#1321=DIRECTION('',(-0.707106781186548,4.26655559424939E-17,0.707106781186548));
#1322=DIRECTION('',(-1.,0.,0.));
#1323=DIRECTION('',(0.,1.,0.));
#1324=DIRECTION('',(0.,6.03382078600629E-17,1.));
#1325=DIRECTION('',(0.,1.,0.));
#1326=DIRECTION('',(0.,-1.,6.03382078600629E-17));
#1327=DIRECTION('',(0.,6.03382078600629E-17,1.));
#1328=DIRECTION('',(0.,-1.,6.03382078600629E-17));
#1329=DIRECTION('',(1.,0.,0.));
#1330=DIRECTION('',(-0.707106781186548,4.26655559424939E-17,0.707106781186548));
#1331=DIRECTION('',(0.707106781186548,4.26655559424939E-17,0.707106781186548));
#1332=DIRECTION('',(0.,-1.,6.03382078600629E-17));
#1333=DIRECTION('',(0.,1.,-6.03382078600629E-17));
#1334=DIRECTION('',(1.,0.,0.));
#1335=DIRECTION('',(0.,-6.03382078600629E-17,-1.));
#1336=DIRECTION('',(0.707106781186548,4.26655559424939E-17,0.707106781186548));
#1337=DIRECTION('',(0.,6.03382078600629E-17,1.));
#1338=DIRECTION('',(0.707106781186548,-4.26655559424938E-17,-0.707106781186547));
#1339=DIRECTION('',(0.,1.,-6.03382078600629E-17));
#1340=DIRECTION('',(0.,6.03382078600629E-17,1.));
#1341=DIRECTION('',(0.,1.,-6.03382078600629E-17));
#1342=DIRECTION('',(0.,6.03382078600629E-17,1.));
#1343=DIRECTION('',(-1.,0.,0.));
#1344=DIRECTION('',(0.,1.,0.));
#1345=DIRECTION('',(0.,1.,-6.03382078600629E-17));
#1346=DIRECTION('',(0.,-1.,6.03382078600629E-17));
#1347=DIRECTION('',(-1.,0.,0.));
#1348=DIRECTION('',(0.,1.,0.));
#1349=DIRECTION('',(0.,6.03382078600629E-17,1.));
#1350=DIRECTION('',(-1.,0.,0.));
#1351=DIRECTION('',(0.,1.,0.));
#1352=DIRECTION('',(0.,-6.03382078600629E-17,-1.));
#1353=DIRECTION('',(0.,1.,-6.03382078600629E-17));
#1354=DIRECTION('',(0.,1.,-6.03382078600629E-17));
#1355=DIRECTION('',(0.,6.03382078600629E-17,1.));
#1356=DIRECTION('',(0.,-1.,6.03382078600629E-17));
#1357=DIRECTION('',(-1.,6.54188160457621E-33,1.0842021724855E-16));
#1358=DIRECTION('',(0.,1.,-6.03382078600629E-17));
#1359=DIRECTION('',(0.,1.,-6.03382078600629E-17));
#1360=DIRECTION('',(0.,6.03382078600629E-17,1.));
#1361=DIRECTION('',(0.,1.,-6.03382078600629E-17));
#1362=DIRECTION('',(0.,6.03382078600629E-17,1.));
#1363=DIRECTION('',(0.,1.,-6.03382078600629E-17));
#1364=DIRECTION('',(0.,6.03382078600629E-17,1.));
#1365=DIRECTION('',(0.,1.,-6.03382078600629E-17));
#1366=DIRECTION('',(0.,6.03382078600629E-17,1.));
#1367=DIRECTION('',(0.,6.03382078600629E-17,1.));
#1368=DIRECTION('',(0.,-1.,6.03382078600629E-17));
#1369=DIRECTION('',(-1.,0.,0.));
#1370=DIRECTION('',(0.,1.,-6.03382078600629E-17));
#1371=DIRECTION('',(0.,1.,-6.03382078600628E-17));
#1372=DIRECTION('',(0.,6.03382078600629E-17,1.));
#1373=DIRECTION('',(0.,1.,0.));
#1374=DIRECTION('',(1.,0.,0.));
#1375=DIRECTION('',(0.,1.,-6.03382078600628E-17));
#1376=DIRECTION('',(0.,6.03382078600629E-17,1.));
#1377=DIRECTION('',(0.,1.,0.));
#1378=DIRECTION('',(1.,0.,0.));
#1379=DIRECTION('',(0.707106781186548,-4.26655559424939E-17,-0.707106781186548));
#1380=DIRECTION('',(0.,1.,-6.03382078600629E-17));
#1381=DIRECTION('',(-0.707106781186547,-4.26655559424939E-17,-0.707106781186548));
#1382=DIRECTION('',(0.,-1.,6.03382078600629E-17));
#1383=DIRECTION('',(0.,1.,-6.03382078600629E-17));
#1384=DIRECTION('',(1.,0.,0.));
#1385=DIRECTION('',(0.,1.,-6.03382078600629E-17));
#1386=DIRECTION('',(0.,6.03382078600629E-17,1.));
#1387=DIRECTION('',(0.,1.,-6.03382078600629E-17));
#1388=DIRECTION('',(1.,0.,0.));
#1389=DIRECTION('',(0.,1.,-6.03382078600629E-17));
#1390=DIRECTION('',(0.,6.03382078600629E-17,1.));
#1391=DIRECTION('',(0.,1.,-6.03382078600629E-17));
#1392=DIRECTION('',(0.,6.03382078600629E-17,1.));
#1393=DIRECTION('',(0.,1.,-6.03382078600629E-17));
#1394=DIRECTION('',(1.,0.,0.));
#1395=DIRECTION('',(0.,1.,-6.03382078600629E-17));
#1396=DIRECTION('',(0.,6.03382078600629E-17,1.));
#1397=DIRECTION('',(0.,1.,-6.03382078600629E-17));
#1398=DIRECTION('',(1.,0.,0.));
#1399=DIRECTION('',(0.,1.,-6.03382078600629E-17));
#1400=DIRECTION('',(0.,6.03382078600629E-17,1.));
#1401=DIRECTION('',(0.,1.,-6.03382078600629E-17));
#1402=DIRECTION('',(0.,6.03382078600629E-17,1.));
#1403=DIRECTION('',(1.,0.,0.));
#1404=DIRECTION('',(0.,0.,-1.));
#1405=DIRECTION('',(0.,-6.03382078600629E-17,-1.));
#1406=DIRECTION('',(0.,5.78241158658936E-17,1.));
#1407=DIRECTION('',(-9.38946624210725E-17,0.5,-0.866025403784439));
#1408=DIRECTION('',(1.,-6.54188160457621E-33,-1.0842021724855E-16));
#1409=DIRECTION('',(0.447213595499959,0.774596669241483,0.447213595499958));
#1410=DIRECTION('',(1.,0.,0.));
#1411=DIRECTION('',(-0.654653670707978,0.654653670707977,0.377964473009227));
#1412=DIRECTION('',(0.447213595499958,0.774596669241484,0.447213595499958));
#1413=DIRECTION('',(0.,-1.,6.03382078600629E-17));
#1414=DIRECTION('',(0.,-6.03382078600629E-17,-1.));
#1415=DIRECTION('',(0.,-1.,0.));
#1416=DIRECTION('',(-1.,0.,0.));
#1417=DIRECTION('',(0.,1.,-6.03382078600629E-17));
#1418=DIRECTION('',(0.,6.03382078600629E-17,1.));
#1419=DIRECTION('',(0.,-1.,6.03382078600629E-17));
#1420=DIRECTION('',(0.,-6.03382078600629E-17,-1.));
#1421=DIRECTION('',(0.,-1.,0.));
#1422=DIRECTION('',(-1.,0.,0.));
#1423=DIRECTION('',(0.,1.,-6.03382078600629E-17));
#1424=DIRECTION('',(0.,6.03382078600629E-17,1.));
#1425=DIRECTION('',(0.,-1.,6.03382078600629E-17));
#1426=DIRECTION('',(0.,-6.03382078600629E-17,-1.));
#1427=DIRECTION('',(0.,-1.,0.));
#1428=DIRECTION('',(-1.,0.,0.));
#1429=DIRECTION('',(0.,1.,-6.03382078600629E-17));
#1430=DIRECTION('',(0.,6.03382078600629E-17,1.));
#1431=DIRECTION('',(0.,-1.,6.03382078600629E-17));
#1432=DIRECTION('',(0.,-6.03382078600629E-17,-1.));
#1433=DIRECTION('',(0.,-1.,0.));
#1434=DIRECTION('',(-1.,0.,0.));
#1435=DIRECTION('',(0.,1.,-6.03382078600629E-17));
#1436=DIRECTION('',(0.,6.03382078600629E-17,1.));
#1437=DIRECTION('',(0.,-1.,6.03382078600629E-17));
#1438=DIRECTION('',(0.,-6.03382078600629E-17,-1.));
#1439=DIRECTION('',(0.,-1.,0.));
#1440=DIRECTION('',(-1.,0.,0.));
#1441=DIRECTION('',(0.,1.,-6.03382078600629E-17));
#1442=DIRECTION('',(0.,6.03382078600629E-17,1.));
#1443=DIRECTION('',(0.,1.,-6.03382078600629E-17));
#1444=DIRECTION('',(1.,0.,0.));
#1445=DIRECTION('',(0.,-0.5,-0.866025403784439));
#1446=DIRECTION('',(-1.,0.,0.));
#1447=DIRECTION('',(1.,0.,0.));
#1448=DIRECTION('',(-0.447213595499959,-0.774596669241483,0.447213595499958));
#1449=DIRECTION('',(-0.447213595499972,-0.774596669241468,0.447213595499971));
#1450=DIRECTION('',(0.654653670707973,-0.654653670707972,0.377964473009243));
#1451=DIRECTION('',(0.866025403784439,-0.5,3.01691039300314E-17));
#1452=DIRECTION('',(0.,-6.03382078600629E-17,-1.));
#1453=DIRECTION('',(3.48362805504269E-17,0.,-1.));
#1454=DIRECTION('',(0.,-1.,0.));
#1455=DIRECTION('',(-1.,0.,0.));
#1456=DIRECTION('',(0.,0.,1.));
#1457=DIRECTION('',(1.,0.,0.));
#1458=DIRECTION('',(0.,0.,-1.));
#1459=DIRECTION('',(0.,1.,0.));
#1460=DIRECTION('',(0.,-6.26466578345044E-17,1.));
#1461=DIRECTION('',(0.,-1.,0.));
#1462=DIRECTION('',(0.,-5.78241158658936E-17,-1.));
#1463=DIRECTION('',(-0.707106781186547,0.707106781186548,-4.088782444489E-17));
#1464=DIRECTION('',(0.,5.78241158658936E-17,1.));
#1465=DIRECTION('',(-0.577350269189626,-0.577350269189625,-0.577350269189626));
#1466=DIRECTION('',(-0.577350269189626,-0.577350269189626,0.577350269189625));
#1467=DIRECTION('',(-0.707106781186547,0.,-0.707106781186548));
#1468=DIRECTION('',(0.,1.,0.));
#1469=DIRECTION('',(-0.577350269189626,0.577350269189626,0.577350269189625));
#1470=DIRECTION('',(-0.707106781186548,0.,0.707106781186548));
#1471=DIRECTION('',(0.,-1.,0.));
#1472=DIRECTION('',(-0.577350269189626,0.577350269189626,-0.577350269189626));
#1473=DIRECTION('',(-0.707106781186547,-0.707106781186548,-4.42978765734514E-17));
#1474=DIRECTION('',(0.,6.26466578345044E-17,-1.));
#1475=DIRECTION('',(0.,1.,0.));
#1476=DIRECTION('',(1.,0.,0.));
#1477=DIRECTION('',(0.,1.,0.));
#1478=DIRECTION('',(1.,0.,0.));
#1479=DIRECTION('',(-1.,0.,0.));
#1480=DIRECTION('',(0.,1.,0.));
#1481=DIRECTION('',(0.,0.,1.));
#1482=DIRECTION('',(0.,1.,-6.03382078600629E-17));
#1483=DIRECTION('',(0.,-1.,0.));
#1484=DIRECTION('',(-1.,0.,0.));
#1485=DIRECTION('',(0.,1.,0.));
#1486=DIRECTION('',(0.,-1.,6.03382078600629E-17));
#1487=DIRECTION('',(0.,0.,1.));
#1488=DIRECTION('',(0.,-1.,0.));
#1489=DIRECTION('',(-1.23908819712629E-16,1.,0.));
#1490=DIRECTION('',(1.,1.23908819712629E-16,0.));
#1491=DIRECTION('',(1.,1.23908819712629E-16,-7.47643611951566E-33));
#1492=DIRECTION('',(-1.,-1.23908819712629E-16,0.));
#1493=DIRECTION('',(0.,0.,1.));
#1494=DIRECTION('',(1.,0.,0.));
#1495=DIRECTION('',(0.,0.,1.));
#1496=DIRECTION('',(0.,-1.,0.));
#1497=DIRECTION('',(0.,0.,1.));
#1498=DIRECTION('',(0.,-1.,0.));
#1499=DIRECTION('',(0.,0.,1.));
#1500=DIRECTION('',(0.,-1.,0.));
#1501=DIRECTION('',(0.,0.,1.));
#1502=DIRECTION('',(0.,-1.,0.));
#1503=DIRECTION('',(0.,0.,1.));
#1504=DIRECTION('',(1.,0.,0.));
#1505=DIRECTION('',(0.,0.,1.));
#1506=DIRECTION('',(0.,-1.,0.));
#1507=DIRECTION('',(0.,0.,1.));
#1508=DIRECTION('',(0.,-1.,0.));
#1509=DIRECTION('',(0.,0.,1.));
#1510=DIRECTION('',(1.,0.,0.));
#1511=DIRECTION('',(0.707106781186547,-4.26655559424939E-17,-0.707106781186548));
#1512=DIRECTION('',(0.,-1.,6.03382078600629E-17));
#1513=DIRECTION('',(0.577350269189626,-0.577350269189626,0.577350269189626));
#1514=DIRECTION('',(8.76167666676213E-17,-0.707106781186548,-0.707106781186547));
#1515=DIRECTION('',(-1.,-1.23908819712629E-16,7.47643611951566E-33));
#1516=DIRECTION('',(0.577350269189626,0.577350269189626,-0.577350269189626));
#1517=DIRECTION('',(0.707106781186547,4.26655559424939E-17,0.707106781186548));
#1518=DIRECTION('',(0.,1.,-6.03382078600629E-17));
#1519=CARTESIAN_POINT('',(0.,0.,0.));
#1520=CARTESIAN_POINT('',(-0.15164565552567,0.00640142588316315,0.0985));
#1521=CARTESIAN_POINT('',(-0.15164565552567,0.0214014258831632,0.0985));
#1522=CARTESIAN_POINT('',(-0.135736132310247,0.0214014258831632,0.0985));
#1523=CARTESIAN_POINT('',(-0.155736132310247,0.0214014258831632,0.0985));
#1524=CARTESIAN_POINT('',(-0.155736132310247,0.0344014258831632,0.0985));
#1525=CARTESIAN_POINT('',(-0.155736132310247,0.0344014258831632,0.0985));
#1526=CARTESIAN_POINT('',(-0.15164565552567,0.0344014258831632,0.0985));
#1527=CARTESIAN_POINT('',(-0.174486132310247,0.0344014258831632,0.0985));
#1528=CARTESIAN_POINT('',(-0.174486132310247,0.0264014258831631,0.0985));
#1529=CARTESIAN_POINT('',(-0.174486132310247,0.0264014258831631,0.0985));
#1530=CARTESIAN_POINT('',(-0.15164565552567,0.0264014258831631,0.0985));
#1531=CARTESIAN_POINT('',(-0.163105178741093,0.0264014258831631,0.0985));
#1532=CARTESIAN_POINT('',(-0.163105178741093,0.00640142588316315,0.0985));
#1533=CARTESIAN_POINT('',(-0.163105178741093,0.00640142588316315,0.0985));
#1534=CARTESIAN_POINT('',(-0.15164565552567,0.00640142588316315,0.0985));
#1535=CARTESIAN_POINT('',(-0.128805178741093,0.00640142588316315,0.0985));
#1536=CARTESIAN_POINT('',(-0.128805178741093,0.0264014258831631,0.0985));
#1537=CARTESIAN_POINT('',(-0.128805178741093,0.0344014258831632,0.0985));
#1538=CARTESIAN_POINT('',(-0.15164565552567,0.0344014258831632,0.0985));
#1539=CARTESIAN_POINT('',(-0.135736132310247,0.0344014258831632,0.0985));
#1540=CARTESIAN_POINT('',(-0.135736132310247,0.00640142588316315,0.0985));
#1541=CARTESIAN_POINT('',(0.0331595232154231,0.0344014258831632,0.0185));
#1542=CARTESIAN_POINT('',(-0.173139499088135,0.0344014258831632,0.06835));
#1543=CARTESIAN_POINT('',(-0.173139499088135,0.0344014258831632,0.073));
#1544=CARTESIAN_POINT('',(-0.173139499088135,0.0344014258831632,-0.03165));
#1545=CARTESIAN_POINT('',(-0.173139499088135,0.0344014258831632,-0.027));
#1546=CARTESIAN_POINT('',(-0.141955178741093,0.0344014258831632,0.0735));
#1547=CARTESIAN_POINT('',(-0.141955178741093,0.0344014258831632,0.0865));
#1548=CARTESIAN_POINT('',(-0.141955178741093,0.0344014258831632,-0.0365));
#1549=CARTESIAN_POINT('',(-0.141955178741093,0.0344014258831632,-0.0235));
#1550=CARTESIAN_POINT('',(-0.0212883045474119,0.0344014258831632,-0.035947827762835));
#1551=CARTESIAN_POINT('',(-0.152736132310247,0.0344014258831632,0.0955));
#1552=CARTESIAN_POINT('',(-0.152736132310247,0.0344014258831632,0.0885));
#1553=CARTESIAN_POINT('',(-0.152736132310247,0.0344014258831632,0.0885));
#1554=CARTESIAN_POINT('',(-0.145736132310247,0.0344014258831632,0.0885));
#1555=CARTESIAN_POINT('',(-0.138736132310247,0.0344014258831632,0.0885));
#1556=CARTESIAN_POINT('',(-0.138736132310247,0.0344014258831632,0.0885));
#1557=CARTESIAN_POINT('',(-0.138736132310247,0.0344014258831632,0.0955));
#1558=CARTESIAN_POINT('',(-0.0912883045474119,0.0344014258831632,0.142947827762835));
#1559=CARTESIAN_POINT('',(-0.00782282776283503,0.0344014258831632,-0.0224823509782581));
#1560=CARTESIAN_POINT('',(-0.120805178741093,0.0344014258831632,0.0905));
#1561=CARTESIAN_POINT('',(-0.120805178741093,0.0344014258831632,0.0185));
#1562=CARTESIAN_POINT('',(-0.120805178741093,0.0344014258831632,0.04835));
#1563=CARTESIAN_POINT('',(-0.144805178741093,0.0344014258831632,0.04835));
#1564=CARTESIAN_POINT('',(-0.168805178741093,0.0344014258831632,0.04835));
#1565=CARTESIAN_POINT('',(-0.168805178741093,0.0344014258831632,0.01835));
#1566=CARTESIAN_POINT('',(-0.168805178741093,0.0344014258831632,-0.01165));
#1567=CARTESIAN_POINT('',(-0.144805178741093,0.0344014258831632,-0.01165));
#1568=CARTESIAN_POINT('',(-0.120805178741093,0.0344014258831632,-0.01165));
#1569=CARTESIAN_POINT('',(-0.120805178741093,0.0344014258831632,0.0185));
#1570=CARTESIAN_POINT('',(-0.120805178741093,0.0344014258831632,-0.0535));
#1571=CARTESIAN_POINT('',(-0.00782282776283489,0.0344014258831632,0.059482350978258));
#1572=CARTESIAN_POINT('',(-0.128805178741093,0.0344014258831632,-0.0615));
#1573=CARTESIAN_POINT('',(-0.15164565552567,0.0344014258831632,-0.0615));
#1574=CARTESIAN_POINT('',(-0.174486132310247,0.0344014258831632,-0.0615));
#1575=CARTESIAN_POINT('',(-0.110663304547412,0.0344014258831632,-0.125322827762835));
#1576=CARTESIAN_POINT('',(-0.182486132310247,0.0344014258831632,-0.0535));
#1577=CARTESIAN_POINT('',(-0.182486132310247,0.0344014258831632,0.0185));
#1578=CARTESIAN_POINT('',(-0.182486132310247,0.0344014258831632,0.0905));
#1579=CARTESIAN_POINT('',(-0.110663304547412,0.0344014258831632,0.162322827762835));
#1580=CARTESIAN_POINT('',(-0.160693508442536,0.00640142588316314,-0.000238329701443549));
#1581=CARTESIAN_POINT('',(-0.15828183814398,0.00640142588316314,-0.00265));
#1582=CARTESIAN_POINT('',(-0.15828183814398,0.00640142588316314,-0.00265));
#1583=CARTESIAN_POINT('',(-0.15828183814398,0.0464014258831634,-0.00265));
#1584=CARTESIAN_POINT('',(-0.0695715710484623,0.0464014258831631,-0.0913602670955172));
#1585=CARTESIAN_POINT('',(-0.163105178741093,0.0464014258831634,0.00217334059711293));
#1586=CARTESIAN_POINT('',(-0.163105178741093,0.877269922588015,0.00217334059711288));
#1587=CARTESIAN_POINT('',(-0.163105178741093,0.0264014258831631,0.00217334059711293));
#1588=CARTESIAN_POINT('',(-0.163105178741093,0.00640142588316314,0.00217334059711294));
#1589=CARTESIAN_POINT('',(-0.163105178741093,0.00640142588316314,0.00217334059711294));
#1590=CARTESIAN_POINT('',(-0.160693508442536,0.00640142588316314,-0.000238329701443549));
#1591=CARTESIAN_POINT('',(-0.163105178741093,0.00640142588316314,-0.0296633297014436));
#1592=CARTESIAN_POINT('',(-0.163105178741093,0.0264014258831631,-0.0296633297014436));
#1593=CARTESIAN_POINT('',(-0.163105178741093,0.0264014258831631,-0.0615));
#1594=CARTESIAN_POINT('',(-0.163105178741093,0.00640142588316314,-0.0615));
#1595=CARTESIAN_POINT('',(-0.163105178741093,0.00640142588316314,-0.0615));
#1596=CARTESIAN_POINT('',(-0.163105178741093,0.00640142588316314,-0.0296633297014436));
#1597=CARTESIAN_POINT('',(-0.15164565552567,0.00640142588316314,-0.0615));
#1598=CARTESIAN_POINT('',(-0.15164565552567,0.0264014258831631,-0.0615));
#1599=CARTESIAN_POINT('',(-0.174486132310247,0.0264014258831631,-0.0615));
#1600=CARTESIAN_POINT('',(-0.174486132310247,0.0344014258831632,-0.0615));
#1601=CARTESIAN_POINT('',(-0.128805178741093,0.00640142588316314,-0.0615));
#1602=CARTESIAN_POINT('',(-0.128805178741093,0.00640142588316314,-0.0615));
#1603=CARTESIAN_POINT('',(-0.15164565552567,0.00640142588316314,-0.0615));
#1604=CARTESIAN_POINT('',(-0.120805178741093,0.00640142588316314,0.0185));
#1605=CARTESIAN_POINT('',(-0.120805178741093,0.00640142588316314,0.0185));
#1606=CARTESIAN_POINT('',(-0.120805178741093,0.00640142588316314,-0.0535));
#1607=CARTESIAN_POINT('',(-0.120805178741093,0.00640142588316314,0.00217334059711297));
#1608=CARTESIAN_POINT('',(-0.120805178741093,0.00640142588316314,-0.0535));
#1609=CARTESIAN_POINT('',(-0.120805178741093,0.0364014258831631,-0.01165));
#1610=CARTESIAN_POINT('',(-0.120805178741093,0.0264014258831631,-0.01165));
#1611=CARTESIAN_POINT('',(-0.120805178741093,0.0264014258831631,0.01835));
#1612=CARTESIAN_POINT('',(-0.120805178741093,0.0264014258831631,0.00217334059711297));
#1613=CARTESIAN_POINT('',(-0.120805178741093,0.00640142588316314,0.00217334059711297));
#1614=CARTESIAN_POINT('',(-0.12321684903965,0.00640142588316314,-0.000238329701443527));
#1615=CARTESIAN_POINT('',(-0.120805178741093,0.877269922588015,0.00217334059711291));
#1616=CARTESIAN_POINT('',(-0.120805178741093,0.0464014258831631,0.00217334059711297));
#1617=CARTESIAN_POINT('',(-0.032094911645576,0.0464014258831632,0.0908836076926299));
#1618=CARTESIAN_POINT('',(-0.125628519338206,0.0464014258831632,-0.00265000000000004));
#1619=CARTESIAN_POINT('',(-0.125628519338206,0.00640142588316314,-0.00265000000000004));
#1620=CARTESIAN_POINT('',(-0.125628519338206,0.00640142588316314,-0.00265000000000004));
#1621=CARTESIAN_POINT('',(-0.12321684903965,0.00640142588316314,-0.000238329701443527));
#1622=CARTESIAN_POINT('',(-0.141955178741093,0.00640142588316314,-0.00265));
#1623=CARTESIAN_POINT('',(0.0402886960470539,0.0464014258831631,-0.00265000000000009));
#1624=CARTESIAN_POINT('',(-0.141955178741093,0.00640142588316314,-0.00265));
#1625=CARTESIAN_POINT('',(0.0303095232154231,0.00640142588316314,0.0185));
#1626=CARTESIAN_POINT('',(-0.00924782776283491,0.00640142588316314,0.058057350978258));
#1627=CARTESIAN_POINT('',(-0.120805178741093,0.00640142588316314,-0.0535));
#1628=CARTESIAN_POINT('',(-0.163105178741093,0.00640142588316315,0.0666633297014435));
#1629=CARTESIAN_POINT('',(-0.163105178741093,0.0264014258831631,0.0666633297014435));
#1630=CARTESIAN_POINT('',(-0.163105178741093,0.0264014258831631,0.0348266594028869));
#1631=CARTESIAN_POINT('',(-0.163105178741093,0.00640142588316314,0.0348266594028869));
#1632=CARTESIAN_POINT('',(-0.163105178741093,0.00640142588316314,0.0348266594028869));
#1633=CARTESIAN_POINT('',(-0.163105178741093,0.00640142588316315,0.0666633297014435));
#1634=CARTESIAN_POINT('',(-0.160693508442536,0.00640142588316314,0.0372383297014435));
#1635=CARTESIAN_POINT('',(-0.163105178741093,0.877269922588015,0.0348266594028869));
#1636=CARTESIAN_POINT('',(-0.163105178741093,0.0464014258831634,0.0348266594028869));
#1637=CARTESIAN_POINT('',(-0.0695715710484625,0.0464014258831632,0.128360267095517));
#1638=CARTESIAN_POINT('',(-0.15828183814398,0.0464014258831634,0.03965));
#1639=CARTESIAN_POINT('',(-0.15828183814398,0.00640142588316314,0.03965));
#1640=CARTESIAN_POINT('',(-0.15828183814398,0.00640142588316314,0.03965));
#1641=CARTESIAN_POINT('',(-0.160693508442536,0.00640142588316314,0.0372383297014435));
#1642=CARTESIAN_POINT('',(-0.141955178741093,0.00640142588316314,0.03965));
#1643=CARTESIAN_POINT('',(0.0402886960470539,0.0464014258831631,0.03965));
#1644=CARTESIAN_POINT('',(-0.125628519338206,0.0464014258831634,0.03965));
#1645=CARTESIAN_POINT('',(-0.125628519338206,0.00640142588316314,0.03965));
#1646=CARTESIAN_POINT('',(-0.125628519338206,0.00640142588316314,0.03965));
#1647=CARTESIAN_POINT('',(-0.141955178741093,0.00640142588316314,0.03965));
#1648=CARTESIAN_POINT('',(-0.12321684903965,0.00640142588316314,0.0372383297014435));
#1649=CARTESIAN_POINT('',(-0.032094911645576,0.0464014258831631,-0.0538836076926301));
#1650=CARTESIAN_POINT('',(-0.120805178741093,0.0464014258831634,0.0348266594028869));
#1651=CARTESIAN_POINT('',(-0.120805178741093,0.877269922588015,0.0348266594028869));
#1652=CARTESIAN_POINT('',(-0.120805178741093,0.0264014258831631,0.0348266594028869));
#1653=CARTESIAN_POINT('',(-0.120805178741093,0.00640142588316314,0.0348266594028869));
#1654=CARTESIAN_POINT('',(-0.120805178741093,0.00640142588316314,0.0348266594028869));
#1655=CARTESIAN_POINT('',(-0.12321684903965,0.00640142588316314,0.0372383297014435));
#1656=CARTESIAN_POINT('',(-0.120805178741093,0.00640142588316314,0.0185));
#1657=CARTESIAN_POINT('',(-0.120805178741093,0.0264014258831631,0.0185));
#1658=CARTESIAN_POINT('',(-0.120805178741093,0.0264014258831631,0.04835));
#1659=CARTESIAN_POINT('',(-0.120805178741093,0.0364014258831631,0.04835));
#1660=CARTESIAN_POINT('',(-0.120805178741093,0.00640142588316315,0.0905));
#1661=CARTESIAN_POINT('',(-0.120805178741093,0.00640142588316315,0.0905));
#1662=CARTESIAN_POINT('',(-0.120805178741093,0.00640142588316314,0.0185));
#1663=CARTESIAN_POINT('',(0.0303095232154231,0.00640142588316314,0.0185));
#1664=CARTESIAN_POINT('',(-0.00924782776283498,0.00640142588316314,-0.0210573509782582));
#1665=CARTESIAN_POINT('',(-0.128805178741093,0.00640142588316315,0.0985));
#1666=CARTESIAN_POINT('',(0.0402886960470539,0.0264014258831631,0.0185));
#1667=CARTESIAN_POINT('',(-0.163105178741093,0.0264014258831631,0.0185));
#1668=CARTESIAN_POINT('',(-0.182486132310247,0.0264014258831631,0.0905));
#1669=CARTESIAN_POINT('',(-0.182486132310247,0.0264014258831631,0.0905));
#1670=CARTESIAN_POINT('',(-0.182486132310247,0.0264014258831631,0.0185));
#1671=CARTESIAN_POINT('',(-0.182486132310247,0.0264014258831631,-0.0535));
#1672=CARTESIAN_POINT('',(-0.174486132310247,0.0264014258831631,-0.0615));
#1673=CARTESIAN_POINT('',(-0.173139499088135,0.0264014258831631,-0.03165));
#1674=CARTESIAN_POINT('',(-0.173139499088135,0.0264014258831631,-0.029));
#1675=CARTESIAN_POINT('',(-0.173139499088135,0.0264014258831631,0.06835));
#1676=CARTESIAN_POINT('',(-0.173139499088135,0.0264014258831631,0.071));
#1677=CARTESIAN_POINT('',(-0.182486132310247,0.0264014258831631,0.0185));
#1678=CARTESIAN_POINT('',(-0.182486132310247,0.0264014258831631,0.0905));
#1679=CARTESIAN_POINT('',(-0.182486132310247,0.0264014258831631,-0.0535));
#1680=CARTESIAN_POINT('',(-0.163105178741093,0.877269922588015,0.0185));
#1681=CARTESIAN_POINT('',(-0.163105178741093,0.0464014258831631,0.0185));
#1682=CARTESIAN_POINT('',(-0.168805178741093,0.0344014258831632,0.01835));
#1683=CARTESIAN_POINT('',(-0.168805178741093,0.0464014258831631,0.01835));
#1684=CARTESIAN_POINT('',(-0.168805178741093,0.0464014258831631,0.04835));
#1685=CARTESIAN_POINT('',(-0.168805178741093,0.0464014258831631,-0.01165));
#1686=CARTESIAN_POINT('',(-0.168805178741093,0.0344014258831632,-0.01165));
#1687=CARTESIAN_POINT('',(-0.168805178741093,0.0344014258831632,0.04835));
#1688=CARTESIAN_POINT('',(-0.144805178741093,0.0344014258831632,-0.01165));
#1689=CARTESIAN_POINT('',(-0.144805178741093,0.0464014258831631,-0.01165));
#1690=CARTESIAN_POINT('',(-0.120805178741093,0.0464014258831631,-0.01165));
#1691=CARTESIAN_POINT('',(-0.120805178741093,0.0344014258831632,-0.01165));
#1692=CARTESIAN_POINT('',(-0.141955178741093,0.0344014258831632,-0.0365));
#1693=CARTESIAN_POINT('',(-0.141955178741093,0.0514014258831631,-0.0365));
#1694=CARTESIAN_POINT('',(-0.141955178741093,0.0514014258831631,-0.0235));
#1695=CARTESIAN_POINT('',(-0.141955178741093,0.0344014258831632,0.0735));
#1696=CARTESIAN_POINT('',(-0.141955178741093,0.0514014258831632,0.0735));
#1697=CARTESIAN_POINT('',(-0.141955178741093,0.0514014258831632,0.0865));
#1698=CARTESIAN_POINT('',(-0.144805178741093,0.0344014258831632,0.04835));
#1699=CARTESIAN_POINT('',(-0.144805178741093,0.0464014258831631,0.04835));
#1700=CARTESIAN_POINT('',(-0.120805178741093,0.0464014258831631,0.04835));
#1701=CARTESIAN_POINT('',(-0.120805178741093,0.0344014258831632,0.04835));
#1702=CARTESIAN_POINT('',(-0.173139499088135,-0.816467070821689,0.06835));
#1703=CARTESIAN_POINT('',(-0.173139499088135,0.0324014258831632,0.06835));
#1704=CARTESIAN_POINT('',(-0.170489499088135,0.0324014258831632,0.06835));
#1705=CARTESIAN_POINT('',(-0.173139499088135,-0.816467070821689,-0.03165));
#1706=CARTESIAN_POINT('',(-0.173139499088135,0.0324014258831632,-0.03165));
#1707=CARTESIAN_POINT('',(-0.170489499088135,0.0324014258831632,-0.03165));
#1708=CARTESIAN_POINT('',(-0.182486132310247,0.0264014258831631,0.0905));
#1709=CARTESIAN_POINT('',(-0.174486132310247,0.0264014258831631,-0.0615));
#1710=CARTESIAN_POINT('',(0.0402886960470539,0.0514014258831631,0.0185));
#1711=CARTESIAN_POINT('',(-0.141955178741093,0.0514014258831632,0.0735));
#1712=CARTESIAN_POINT('',(-0.141955178741093,0.0514014258831632,0.0795));
#1713=CARTESIAN_POINT('',(0.0331595232154231,0.0344014258831632,0.0185));
#1714=CARTESIAN_POINT('',(-0.141955178741093,0.0344014258831632,0.0735));
#1715=CARTESIAN_POINT('',(-0.141955178741093,0.0344014258831632,0.0795));
#1716=CARTESIAN_POINT('',(-0.141955178741093,0.0344014258831632,0.0735));
#1717=CARTESIAN_POINT('',(0.0402886960470539,0.0514014258831631,0.0185));
#1718=CARTESIAN_POINT('',(-0.141955178741093,0.0514014258831631,-0.0365));
#1719=CARTESIAN_POINT('',(-0.141955178741093,0.0514014258831631,-0.0305));
#1720=CARTESIAN_POINT('',(0.0331595232154231,0.0344014258831632,0.0185));
#1721=CARTESIAN_POINT('',(-0.141955178741093,0.0344014258831632,-0.0365));
#1722=CARTESIAN_POINT('',(-0.141955178741093,0.0344014258831632,-0.0305));
#1723=CARTESIAN_POINT('',(-0.141955178741093,0.0344014258831632,-0.0365));
#1724=CARTESIAN_POINT('',(-0.120805178741093,0.0384014258831631,0.039425));
#1725=CARTESIAN_POINT('',(-0.120805178741093,0.0464014258831631,0.01835));
#1726=CARTESIAN_POINT('',(-0.120805178741093,0.0264014258831631,0.01835));
#1727=CARTESIAN_POINT('',(0.0471291728316309,0.0544014258831631,-0.00703119784648305));
#1728=CARTESIAN_POINT('',(-0.162805178741093,0.0567937307285764,-0.00565));
#1729=CARTESIAN_POINT('',(-0.166495777664335,0.0504014258831632,-0.00934059892324166));
#1730=CARTESIAN_POINT('',(-0.587804972300497,0.0504014258831632,-0.00934059892324166));
#1731=CARTESIAN_POINT('',(-0.120805178741093,0.0504014258831629,-0.00934059892324166));
#1732=CARTESIAN_POINT('',(-0.11794803588395,0.0475442830260202,-0.0109901711209262));
#1733=CARTESIAN_POINT('',(-0.119341077125955,0.0489373242680254,-0.0101858983848623));
#1734=CARTESIAN_POINT('',(-0.11908141831039,0.0493870665292182,-0.00992623956929669));
#1735=CARTESIAN_POINT('',(-0.141955178741093,0.0544014258831631,0.0185));
#1736=CARTESIAN_POINT('',(-0.141955178741093,0.0504014258831632,0.0185));
#1737=CARTESIAN_POINT('',(-0.154455178741093,0.0504014258831632,0.0185));
#1738=CARTESIAN_POINT('',(-0.141955178741093,0.0464014258831631,0.0185));
#1739=CARTESIAN_POINT('',(-0.141955178741093,0.0464014258831631,0.031));
#1740=CARTESIAN_POINT('',(-0.126455178741093,0.0544014258831631,0.034));
#1741=CARTESIAN_POINT('',(-0.126455178741093,0.0504014258831632,0.034));
#1742=CARTESIAN_POINT('',(-0.127999558324793,0.0504014258831632,0.034));
#1743=CARTESIAN_POINT('',(-0.126455178741093,0.0464014258831631,0.034));
#1744=CARTESIAN_POINT('',(-0.126455178741093,0.0464014258831631,0.0355443795837001));
#1745=CARTESIAN_POINT('',(-0.157455178741093,0.0544014258831631,0.034));
#1746=CARTESIAN_POINT('',(-0.157455178741093,0.0504014258831632,0.034));
#1747=CARTESIAN_POINT('',(-0.158999558326931,0.0504014258831632,0.034));
#1748=CARTESIAN_POINT('',(-0.157455178741093,0.0464014258831631,0.034));
#1749=CARTESIAN_POINT('',(-0.157455178741093,0.0464014258831631,0.035544379585838));
#1750=CARTESIAN_POINT('',(-0.126455178741093,0.0544014258831631,0.00299999999999996));
#1751=CARTESIAN_POINT('',(-0.126455178741093,0.0504014258831632,0.00299999999999996));
#1752=CARTESIAN_POINT('',(-0.127999558322845,0.0504014258831632,0.00299999999999996));
#1753=CARTESIAN_POINT('',(-0.126455178741093,0.0464014258831631,0.00299999999999996));
#1754=CARTESIAN_POINT('',(-0.126455178741093,0.0464014258831631,0.00454437958175151));
#1755=CARTESIAN_POINT('',(-0.157455178741093,0.0544014258831631,0.00299999999999996));
#1756=CARTESIAN_POINT('',(-0.157455178741093,0.0504014258831632,0.00299999999999996));
#1757=CARTESIAN_POINT('',(-0.158999558329386,0.0504014258831632,0.00299999999999996));
#1758=CARTESIAN_POINT('',(-0.157455178741093,0.0464014258831631,0.00299999999999996));
#1759=CARTESIAN_POINT('',(-0.157455178741093,0.0464014258831631,0.00454437958829297));
#1760=CARTESIAN_POINT('',(0.0471291728316309,0.0464014258831631,0.0185));
#1761=CARTESIAN_POINT('',(-0.144805178741093,0.0464014258831631,0.04835));
#1762=CARTESIAN_POINT('',(-0.587804972300497,0.0504014258831632,0.0460405989232413));
#1763=CARTESIAN_POINT('',(-0.166495777664335,0.0504014258831632,0.0460405989232413));
#1764=CARTESIAN_POINT('',(-0.120805178741093,0.0504014258831632,0.0460405989232413));
#1765=CARTESIAN_POINT('',(-0.164005178741093,0.0547152697594938,0.04355));
#1766=CARTESIAN_POINT('',(-0.11908141831039,0.0493870665292182,0.0466262395692965));
#1767=CARTESIAN_POINT('',(-0.119341077125955,0.0489373242680254,0.0468858983848622));
#1768=CARTESIAN_POINT('',(-0.11794803588395,0.0475442830260203,0.0476901711209261));
#1769=CARTESIAN_POINT('',(-0.168805178741093,0.0464014258831631,0.01835));
#1770=CARTESIAN_POINT('',(-0.166495777664335,0.0504014258831632,0.01835));
#1771=CARTESIAN_POINT('',(-0.587804972300497,0.0504014258831632,0.01835));
#1772=CARTESIAN_POINT('',(-0.120805178741093,0.0504014258831632,0.01835));
#1773=CARTESIAN_POINT('',(-0.116805178741093,0.0384014258831631,0.039425));
#1774=CARTESIAN_POINT('',(-0.116805178741093,0.0384014258831631,-0.00765));
#1775=CARTESIAN_POINT('',(-0.116805178741093,0.0304014258831631,-0.00765));
#1776=CARTESIAN_POINT('',(-0.116805178741093,0.0464014258831632,-0.00765));
#1777=CARTESIAN_POINT('',(-0.116805178741093,0.0464014258831632,0.039425));
#1778=CARTESIAN_POINT('',(-0.116805178741093,0.0464014258831632,0.04435));
#1779=CARTESIAN_POINT('',(-0.116805178741093,0.0384014258831631,0.04435));
#1780=CARTESIAN_POINT('',(-0.116805178741093,0.0304014258831631,0.04435));
#1781=CARTESIAN_POINT('',(-0.116805178741093,0.0304014258831631,0.039425));
#1782=CARTESIAN_POINT('',(-0.120805178741093,0.0264014258831631,0.01835));
#1783=CARTESIAN_POINT('',(-0.11747184540776,0.0297347592164964,-0.0083166666666667));
#1784=CARTESIAN_POINT('',(-0.110805178741093,0.0364014258831631,0.03835));
#1785=CARTESIAN_POINT('',(-0.120805178741093,0.0364014258831631,0.04835));
#1786=CARTESIAN_POINT('',(-0.116138512074426,0.0457347592164965,0.0436833333333333));
#1787=CARTESIAN_POINT('',(-0.120805178741093,0.0364014258831631,-0.01165));
#1788=CARTESIAN_POINT('',(-0.110805178741093,0.0404014258831632,-0.00165000000000007));
#1789=CARTESIAN_POINT('',(-0.120805178741093,0.0504014258831632,0.01835));
#1790=CARTESIAN_POINT('',(-0.173139499088135,0.0324014258831632,0.06835));
#1791=CARTESIAN_POINT('',(-0.173139499088135,0.0324014258831632,-0.03165));
#1792=CARTESIAN_POINT('',(-0.138736132310247,0.0294014258831631,0.0885));
#1793=CARTESIAN_POINT('',(-0.138736132310247,0.0244014258831632,0.0885));
#1794=CARTESIAN_POINT('',(-0.138736132310247,0.0244014258831632,0.0885));
#1795=CARTESIAN_POINT('',(-0.138736132310247,0.0244014258831632,0.0955));
#1796=CARTESIAN_POINT('',(-0.138736132310247,0.0294014258831631,0.0955));
#1797=CARTESIAN_POINT('',(-0.138736132310247,0.0294014258831631,0.0885));
#1798=CARTESIAN_POINT('',(-0.152736132310247,0.0294014258831631,0.0885));
#1799=CARTESIAN_POINT('',(-0.152736132310247,0.0244014258831632,0.0955));
#1800=CARTESIAN_POINT('',(-0.152736132310247,0.0244014258831632,0.0955));
#1801=CARTESIAN_POINT('',(-0.152736132310247,0.0244014258831632,0.0885));
#1802=CARTESIAN_POINT('',(-0.152736132310247,0.0244014258831632,0.0885));
#1803=CARTESIAN_POINT('',(-0.152736132310247,0.0294014258831631,0.0885));
#1804=CARTESIAN_POINT('',(-0.145736132310247,0.0244014258831632,0.0885));
#1805=CARTESIAN_POINT('',(-0.145736132310247,0.0244014258831632,0.0955));
#1806=CARTESIAN_POINT('',(-0.145736132310247,0.0244014258831632,0.0885));
#1807=CARTESIAN_POINT('',(-0.15164565552567,0.194453727770383,0.0885));
#1808=CARTESIAN_POINT('',(-0.149303978843555,0.0287938028896461,0.0885));
#1809=CARTESIAN_POINT('',(-0.149303978843555,0.0276938028896461,0.0885));
#1810=CARTESIAN_POINT('',(-0.142303978843555,0.0287938028896461,0.0885));
#1811=CARTESIAN_POINT('',(-0.142303978843555,0.0276938028896461,0.0885));
#1812=CARTESIAN_POINT('',(-0.142303978843555,0.0287938028896461,0.0835));
#1813=CARTESIAN_POINT('',(-0.142303978843555,0.0287938028896461,0.0835));
#1814=CARTESIAN_POINT('',(-0.142303978843555,0.0276938028896461,0.0835));
#1815=CARTESIAN_POINT('',(-0.145736132310247,0.196099916273624,0.0835));
#1816=CARTESIAN_POINT('',(-0.149303978843555,0.0287938028896461,0.0835));
#1817=CARTESIAN_POINT('',(-0.149303978843555,0.0287938028896461,0.0835));
#1818=CARTESIAN_POINT('',(-0.149303978843555,0.0276938028896461,0.0835));
#1819=CARTESIAN_POINT('',(-0.145736132310247,0.196099916273624,0.0835));
#1820=CARTESIAN_POINT('',(-0.135736132310247,0.00640142588316315,0.0985));
#1821=CARTESIAN_POINT('',(-0.141039306715388,0.0267046002883042,0.0931968255948589));
#1822=CARTESIAN_POINT('',(-0.15164565552567,0.0214014258831632,0.0985));
#1823=CARTESIAN_POINT('',(-0.15106946564358,0.0260680925498298,0.0938333333333333));
#1824=CARTESIAN_POINT('',(-0.152736132310247,0.0294014258831631,0.0955));
#1825=MECHANICAL_DESIGN_GEOMETRIC_PRESENTATION_REPRESENTATION('',(#1116),
#1826);
#1826=(
GEOMETRIC_REPRESENTATION_CONTEXT(3)
GLOBAL_UNCERTAINTY_ASSIGNED_CONTEXT((#1827))
GLOBAL_UNIT_ASSIGNED_CONTEXT((#1830,#1829,#1828))
REPRESENTATION_CONTEXT('Z-BaseMount','TOP_LEVEL_ASSEMBLY_PART')
);
#1827=UNCERTAINTY_MEASURE_WITH_UNIT(LENGTH_MEASURE(1.E-8),#1830,
'DISTANCE_ACCURACY_VALUE','Maximum Tolerance applied to model');
#1828=(
NAMED_UNIT(*)
SI_UNIT($,.STERADIAN.)
SOLID_ANGLE_UNIT()
);
#1829=(
NAMED_UNIT(*)
PLANE_ANGLE_UNIT()
SI_UNIT($,.RADIAN.)
);
#1830=(
LENGTH_UNIT()
NAMED_UNIT(*)
SI_UNIT($,.METRE.)
);
#1831=PRODUCT_DEFINITION_SHAPE('','',#1832);
#1832=PRODUCT_DEFINITION('','',#1834,#1833);
#1833=PRODUCT_DEFINITION_CONTEXT('',#1840,'design');
#1834=PRODUCT_DEFINITION_FORMATION_WITH_SPECIFIED_SOURCE('','',#1836,
 .NOT_KNOWN.);
#1835=PRODUCT_RELATED_PRODUCT_CATEGORY('','',(#1836));
#1836=PRODUCT('Z-BaseMount','Z-BaseMount','Z-BaseMount',(#1838));
#1837=PRODUCT_CATEGORY('','');
#1838=PRODUCT_CONTEXT('',#1840,'mechanical');
#1839=APPLICATION_PROTOCOL_DEFINITION('international standard',
'ap242_managed_model_based_3d_engineering',2020,#1840);
#1840=APPLICATION_CONTEXT('managed model based 3d engineering');
ENDSEC;
END-ISO-10303-21;
