ISO-10303-21;
HEADER;
/* Generated by software containing ST-Developer
 * from STEP Tools, Inc. (www.steptools.com) 
 */
/* OPTION: using custom renumber hook */

FILE_DESCRIPTION(
/* description */ ('STEP AP242 Edition 2',
'CAx-IF Rec.Pracs.---Representation and Presentation of Product Manufa
cturing Information (PMI)---4.0---2014-10-13',
'CAx-IF Rec.Pracs.---3D Tessellated Geometry---0.4---2014-09-14','2;1',
'CAx-IF Rec.Pracs.---User Defined Attributes---1.5---2016-08-15'),
/* implementation_level */ '2;1');

FILE_NAME(
/* name */ 'NOT-618 - Linear Adapter (3)',
/* time_stamp */ '2026-07-26T08:51:50Z',
/* author */ (''),
/* organization */ (''),
/* preprocessor_version */ 'ST-DEVELOPER v20',
/* originating_system */ 'ONSHAPE BY PTC INC, 1.218',
/* authorisation */ '  ');

FILE_SCHEMA (('AP242_MANAGED_MODEL_BASED_3D_ENGINEERING_MIM_LF { 1 0 10303 442 3 1 4 }'));
ENDSEC;

DATA;
#10=SHAPE_REPRESENTATION_RELATIONSHIP('','',#401,#11);
#11=ADVANCED_BREP_SHAPE_REPRESENTATION('',(#399),#640);
#12=CONICAL_SURFACE('',#430,0.0025,0.785398163397448);
#13=CONICAL_SURFACE('',#431,0.0025,0.785398163397448);
#14=CIRCLE('',#407,0.0025);
#15=CIRCLE('',#408,0.0025);
#16=CIRCLE('',#413,0.0105);
#17=CIRCLE('',#414,0.0105);
#18=CIRCLE('',#416,0.00449999999999995);
#19=CIRCLE('',#419,0.0025);
#20=CIRCLE('',#423,0.0045);
#21=CIRCLE('',#425,0.0025);
#22=CYLINDRICAL_SURFACE('',#406,0.0025);
#23=CYLINDRICAL_SURFACE('',#412,0.0105);
#24=CYLINDRICAL_SURFACE('',#424,0.0025);
#25=ORIENTED_EDGE('',*,*,#123,.T.);
#26=ORIENTED_EDGE('',*,*,#124,.T.);
#27=ORIENTED_EDGE('',*,*,#125,.F.);
#28=ORIENTED_EDGE('',*,*,#126,.F.);
#29=ORIENTED_EDGE('',*,*,#127,.F.);
#30=ORIENTED_EDGE('',*,*,#128,.T.);
#31=ORIENTED_EDGE('',*,*,#129,.T.);
#32=ORIENTED_EDGE('',*,*,#130,.T.);
#33=ORIENTED_EDGE('',*,*,#131,.F.);
#34=ORIENTED_EDGE('',*,*,#132,.T.);
#35=ORIENTED_EDGE('',*,*,#133,.T.);
#36=ORIENTED_EDGE('',*,*,#134,.T.);
#37=ORIENTED_EDGE('',*,*,#135,.T.);
#38=ORIENTED_EDGE('',*,*,#136,.F.);
#39=ORIENTED_EDGE('',*,*,#137,.F.);
#40=ORIENTED_EDGE('',*,*,#126,.T.);
#41=ORIENTED_EDGE('',*,*,#138,.T.);
#42=ORIENTED_EDGE('',*,*,#139,.F.);
#43=ORIENTED_EDGE('',*,*,#140,.T.);
#44=ORIENTED_EDGE('',*,*,#141,.T.);
#45=ORIENTED_EDGE('',*,*,#142,.F.);
#46=ORIENTED_EDGE('',*,*,#143,.F.);
#47=ORIENTED_EDGE('',*,*,#144,.T.);
#48=ORIENTED_EDGE('',*,*,#145,.T.);
#49=ORIENTED_EDGE('',*,*,#146,.F.);
#50=ORIENTED_EDGE('',*,*,#143,.T.);
#51=ORIENTED_EDGE('',*,*,#147,.F.);
#52=ORIENTED_EDGE('',*,*,#148,.T.);
#53=ORIENTED_EDGE('',*,*,#149,.T.);
#54=ORIENTED_EDGE('',*,*,#150,.T.);
#55=ORIENTED_EDGE('',*,*,#151,.F.);
#56=ORIENTED_EDGE('',*,*,#136,.T.);
#57=ORIENTED_EDGE('',*,*,#152,.T.);
#58=ORIENTED_EDGE('',*,*,#153,.F.);
#59=ORIENTED_EDGE('',*,*,#154,.T.);
#60=ORIENTED_EDGE('',*,*,#155,.F.);
#61=ORIENTED_EDGE('',*,*,#156,.T.);
#62=ORIENTED_EDGE('',*,*,#131,.T.);
#63=ORIENTED_EDGE('',*,*,#157,.T.);
#64=ORIENTED_EDGE('',*,*,#149,.F.);
#65=ORIENTED_EDGE('',*,*,#158,.T.);
#66=ORIENTED_EDGE('',*,*,#140,.F.);
#67=ORIENTED_EDGE('',*,*,#146,.T.);
#68=ORIENTED_EDGE('',*,*,#159,.T.);
#69=ORIENTED_EDGE('',*,*,#152,.F.);
#70=ORIENTED_EDGE('',*,*,#129,.F.);
#71=ORIENTED_EDGE('',*,*,#160,.T.);
#72=ORIENTED_EDGE('',*,*,#123,.F.);
#73=ORIENTED_EDGE('',*,*,#137,.T.);
#74=ORIENTED_EDGE('',*,*,#151,.T.);
#75=ORIENTED_EDGE('',*,*,#161,.T.);
#76=ORIENTED_EDGE('',*,*,#139,.T.);
#77=ORIENTED_EDGE('',*,*,#153,.T.);
#78=ORIENTED_EDGE('',*,*,#162,.T.);
#79=ORIENTED_EDGE('',*,*,#142,.T.);
#80=ORIENTED_EDGE('',*,*,#163,.T.);
#81=ORIENTED_EDGE('',*,*,#147,.T.);
#82=ORIENTED_EDGE('',*,*,#135,.F.);
#83=ORIENTED_EDGE('',*,*,#164,.F.);
#84=ORIENTED_EDGE('',*,*,#144,.F.);
#85=ORIENTED_EDGE('',*,*,#164,.T.);
#86=ORIENTED_EDGE('',*,*,#165,.T.);
#87=ORIENTED_EDGE('',*,*,#159,.F.);
#88=ORIENTED_EDGE('',*,*,#145,.F.);
#89=ORIENTED_EDGE('',*,*,#166,.F.);
#90=ORIENTED_EDGE('',*,*,#167,.T.);
#91=ORIENTED_EDGE('',*,*,#155,.T.);
#92=ORIENTED_EDGE('',*,*,#165,.F.);
#93=ORIENTED_EDGE('',*,*,#134,.F.);
#94=ORIENTED_EDGE('',*,*,#168,.T.);
#95=ORIENTED_EDGE('',*,*,#125,.T.);
#96=ORIENTED_EDGE('',*,*,#169,.T.);
#97=ORIENTED_EDGE('',*,*,#127,.T.);
#98=ORIENTED_EDGE('',*,*,#170,.T.);
#99=ORIENTED_EDGE('',*,*,#166,.T.);
#100=ORIENTED_EDGE('',*,*,#133,.F.);
#101=ORIENTED_EDGE('',*,*,#171,.T.);
#102=ORIENTED_EDGE('',*,*,#162,.F.);
#103=ORIENTED_EDGE('',*,*,#169,.F.);
#104=ORIENTED_EDGE('',*,*,#124,.F.);
#105=ORIENTED_EDGE('',*,*,#160,.F.);
#106=ORIENTED_EDGE('',*,*,#128,.F.);
#107=ORIENTED_EDGE('',*,*,#170,.F.);
#108=ORIENTED_EDGE('',*,*,#132,.F.);
#109=ORIENTED_EDGE('',*,*,#156,.F.);
#110=ORIENTED_EDGE('',*,*,#167,.F.);
#111=ORIENTED_EDGE('',*,*,#158,.F.);
#112=ORIENTED_EDGE('',*,*,#148,.F.);
#113=ORIENTED_EDGE('',*,*,#163,.F.);
#114=ORIENTED_EDGE('',*,*,#141,.F.);
#115=ORIENTED_EDGE('',*,*,#157,.F.);
#116=ORIENTED_EDGE('',*,*,#130,.F.);
#117=ORIENTED_EDGE('',*,*,#161,.F.);
#118=ORIENTED_EDGE('',*,*,#150,.F.);
#119=ORIENTED_EDGE('',*,*,#154,.F.);
#120=ORIENTED_EDGE('',*,*,#171,.F.);
#121=ORIENTED_EDGE('',*,*,#168,.F.);
#122=ORIENTED_EDGE('',*,*,#138,.F.);
#123=EDGE_CURVE('',#172,#173,#207,.T.);
#124=EDGE_CURVE('',#173,#174,#208,.T.);
#125=EDGE_CURVE('',#175,#174,#209,.T.);
#126=EDGE_CURVE('',#172,#175,#210,.T.);
#127=EDGE_CURVE('',#176,#177,#211,.T.);
#128=EDGE_CURVE('',#176,#178,#212,.T.);
#129=EDGE_CURVE('',#178,#179,#213,.T.);
#130=EDGE_CURVE('',#179,#180,#214,.T.);
#131=EDGE_CURVE('',#181,#180,#215,.T.);
#132=EDGE_CURVE('',#181,#177,#216,.T.);
#133=EDGE_CURVE('',#175,#182,#217,.T.);
#134=EDGE_CURVE('',#182,#183,#218,.T.);
#135=EDGE_CURVE('',#183,#184,#219,.T.);
#136=EDGE_CURVE('',#185,#184,#220,.T.);
#137=EDGE_CURVE('',#172,#185,#221,.T.);
#138=EDGE_CURVE('',#186,#186,#14,.T.);
#139=EDGE_CURVE('',#187,#187,#15,.T.);
#140=EDGE_CURVE('',#188,#189,#222,.T.);
#141=EDGE_CURVE('',#189,#190,#223,.T.);
#142=EDGE_CURVE('',#191,#190,#224,.T.);
#143=EDGE_CURVE('',#188,#191,#225,.T.);
#144=EDGE_CURVE('',#191,#192,#226,.T.);
#145=EDGE_CURVE('',#192,#193,#227,.T.);
#146=EDGE_CURVE('',#188,#193,#228,.T.);
#147=EDGE_CURVE('',#194,#184,#229,.T.);
#148=EDGE_CURVE('',#194,#195,#230,.T.);
#149=EDGE_CURVE('',#195,#196,#231,.T.);
#150=EDGE_CURVE('',#196,#197,#232,.T.);
#151=EDGE_CURVE('',#185,#197,#233,.T.);
#152=EDGE_CURVE('',#198,#198,#16,.T.);
#153=EDGE_CURVE('',#199,#199,#17,.T.);
#154=EDGE_CURVE('',#200,#200,#18,.F.);
#155=EDGE_CURVE('',#201,#202,#234,.T.);
#156=EDGE_CURVE('',#201,#181,#235,.F.);
#157=EDGE_CURVE('',#180,#196,#236,.T.);
#158=EDGE_CURVE('',#195,#189,#237,.F.);
#159=EDGE_CURVE('',#193,#202,#238,.T.);
#160=EDGE_CURVE('',#178,#173,#239,.F.);
#161=EDGE_CURVE('',#197,#179,#240,.T.);
#162=EDGE_CURVE('',#203,#203,#19,.T.);
#163=EDGE_CURVE('',#190,#194,#241,.F.);
#164=EDGE_CURVE('',#192,#183,#242,.T.);
#165=EDGE_CURVE('',#183,#202,#243,.T.);
#166=EDGE_CURVE('',#204,#182,#244,.T.);
#167=EDGE_CURVE('',#204,#201,#245,.T.);
#168=EDGE_CURVE('',#205,#205,#20,.F.);
#169=EDGE_CURVE('',#174,#176,#246,.F.);
#170=EDGE_CURVE('',#177,#204,#247,.F.);
#171=EDGE_CURVE('',#206,#206,#21,.T.);
#172=VERTEX_POINT('',#536);
#173=VERTEX_POINT('',#537);
#174=VERTEX_POINT('',#539);
#175=VERTEX_POINT('',#541);
#176=VERTEX_POINT('',#545);
#177=VERTEX_POINT('',#546);
#178=VERTEX_POINT('',#548);
#179=VERTEX_POINT('',#550);
#180=VERTEX_POINT('',#552);
#181=VERTEX_POINT('',#554);
#182=VERTEX_POINT('',#558);
#183=VERTEX_POINT('',#560);
#184=VERTEX_POINT('',#562);
#185=VERTEX_POINT('',#564);
#186=VERTEX_POINT('',#568);
#187=VERTEX_POINT('',#570);
#188=VERTEX_POINT('',#573);
#189=VERTEX_POINT('',#574);
#190=VERTEX_POINT('',#576);
#191=VERTEX_POINT('',#578);
#192=VERTEX_POINT('',#582);
#193=VERTEX_POINT('',#584);
#194=VERTEX_POINT('',#588);
#195=VERTEX_POINT('',#590);
#196=VERTEX_POINT('',#592);
#197=VERTEX_POINT('',#594);
#198=VERTEX_POINT('',#598);
#199=VERTEX_POINT('',#600);
#200=VERTEX_POINT('',#603);
#201=VERTEX_POINT('',#605);
#202=VERTEX_POINT('',#606);
#203=VERTEX_POINT('',#616);
#204=VERTEX_POINT('',#623);
#205=VERTEX_POINT('',#627);
#206=VERTEX_POINT('',#632);
#207=LINE('',#535,#248);
#208=LINE('',#538,#249);
#209=LINE('',#540,#250);
#210=LINE('',#542,#251);
#211=LINE('',#544,#252);
#212=LINE('',#547,#253);
#213=LINE('',#549,#254);
#214=LINE('',#551,#255);
#215=LINE('',#553,#256);
#216=LINE('',#555,#257);
#217=LINE('',#557,#258);
#218=LINE('',#559,#259);
#219=LINE('',#561,#260);
#220=LINE('',#563,#261);
#221=LINE('',#565,#262);
#222=LINE('',#572,#263);
#223=LINE('',#575,#264);
#224=LINE('',#577,#265);
#225=LINE('',#579,#266);
#226=LINE('',#581,#267);
#227=LINE('',#583,#268);
#228=LINE('',#585,#269);
#229=LINE('',#587,#270);
#230=LINE('',#589,#271);
#231=LINE('',#591,#272);
#232=LINE('',#593,#273);
#233=LINE('',#595,#274);
#234=LINE('',#604,#275);
#235=LINE('',#607,#276);
#236=LINE('',#608,#277);
#237=LINE('',#609,#278);
#238=LINE('',#610,#279);
#239=LINE('',#612,#280);
#240=LINE('',#613,#281);
#241=LINE('',#617,#282);
#242=LINE('',#618,#283);
#243=LINE('',#620,#284);
#244=LINE('',#622,#285);
#245=LINE('',#624,#286);
#246=LINE('',#628,#287);
#247=LINE('',#629,#288);
#248=VECTOR('',#436,1.);
#249=VECTOR('',#437,1.);
#250=VECTOR('',#438,1.);
#251=VECTOR('',#439,1.);
#252=VECTOR('',#442,1.);
#253=VECTOR('',#443,1.);
#254=VECTOR('',#444,1.);
#255=VECTOR('',#445,1.);
#256=VECTOR('',#446,1.);
#257=VECTOR('',#447,1.);
#258=VECTOR('',#450,1.);
#259=VECTOR('',#451,1.);
#260=VECTOR('',#452,1.);
#261=VECTOR('',#453,1.);
#262=VECTOR('',#454,1.);
#263=VECTOR('',#463,1.);
#264=VECTOR('',#464,1.);
#265=VECTOR('',#465,1.);
#266=VECTOR('',#466,1.);
#267=VECTOR('',#469,1.);
#268=VECTOR('',#470,1.);
#269=VECTOR('',#471,1.);
#270=VECTOR('',#474,1.);
#271=VECTOR('',#475,1.);
#272=VECTOR('',#476,1.);
#273=VECTOR('',#477,1.);
#274=VECTOR('',#478,1.);
#275=VECTOR('',#489,1.);
#276=VECTOR('',#490,1.);
#277=VECTOR('',#491,1.);
#278=VECTOR('',#492,1.);
#279=VECTOR('',#493,1.);
#280=VECTOR('',#496,1.);
#281=VECTOR('',#497,1.);
#282=VECTOR('',#502,1.);
#283=VECTOR('',#503,1.);
#284=VECTOR('',#506,1.);
#285=VECTOR('',#509,1.);
#286=VECTOR('',#510,1.);
#287=VECTOR('',#515,1.);
#288=VECTOR('',#516,1.);
#289=EDGE_LOOP('',(#25,#26,#27,#28));
#290=EDGE_LOOP('',(#29,#30,#31,#32,#33,#34));
#291=EDGE_LOOP('',(#35,#36,#37,#38,#39,#40));
#292=EDGE_LOOP('',(#41));
#293=EDGE_LOOP('',(#42));
#294=EDGE_LOOP('',(#43,#44,#45,#46));
#295=EDGE_LOOP('',(#47,#48,#49,#50));
#296=EDGE_LOOP('',(#51,#52,#53,#54,#55,#56));
#297=EDGE_LOOP('',(#57));
#298=EDGE_LOOP('',(#58));
#299=EDGE_LOOP('',(#59));
#300=EDGE_LOOP('',(#60,#61,#62,#63,#64,#65,#66,#67,#68));
#301=EDGE_LOOP('',(#69));
#302=EDGE_LOOP('',(#70,#71,#72,#73,#74,#75));
#303=EDGE_LOOP('',(#76));
#304=EDGE_LOOP('',(#77));
#305=EDGE_LOOP('',(#78));
#306=EDGE_LOOP('',(#79,#80,#81,#82,#83,#84));
#307=EDGE_LOOP('',(#85,#86,#87,#88));
#308=EDGE_LOOP('',(#89,#90,#91,#92,#93));
#309=EDGE_LOOP('',(#94));
#310=EDGE_LOOP('',(#95,#96,#97,#98,#99,#100));
#311=EDGE_LOOP('',(#101));
#312=EDGE_LOOP('',(#102));
#313=EDGE_LOOP('',(#103,#104,#105,#106));
#314=EDGE_LOOP('',(#107,#108,#109,#110));
#315=EDGE_LOOP('',(#111,#112,#113,#114));
#316=EDGE_LOOP('',(#115,#116,#117,#118));
#317=EDGE_LOOP('',(#119));
#318=EDGE_LOOP('',(#120));
#319=EDGE_LOOP('',(#121));
#320=EDGE_LOOP('',(#122));
#321=FACE_BOUND('',#289,.T.);
#322=FACE_BOUND('',#290,.T.);
#323=FACE_BOUND('',#291,.T.);
#324=FACE_BOUND('',#292,.T.);
#325=FACE_BOUND('',#293,.T.);
#326=FACE_BOUND('',#294,.T.);
#327=FACE_BOUND('',#295,.T.);
#328=FACE_BOUND('',#296,.T.);
#329=FACE_BOUND('',#297,.T.);
#330=FACE_BOUND('',#298,.T.);
#331=FACE_BOUND('',#299,.T.);
#332=FACE_BOUND('',#300,.T.);
#333=FACE_BOUND('',#301,.T.);
#334=FACE_BOUND('',#302,.T.);
#335=FACE_BOUND('',#303,.T.);
#336=FACE_BOUND('',#304,.T.);
#337=FACE_BOUND('',#305,.T.);
#338=FACE_BOUND('',#306,.T.);
#339=FACE_BOUND('',#307,.T.);
#340=FACE_BOUND('',#308,.T.);
#341=FACE_BOUND('',#309,.T.);
#342=FACE_BOUND('',#310,.T.);
#343=FACE_BOUND('',#311,.T.);
#344=FACE_BOUND('',#312,.T.);
#345=FACE_BOUND('',#313,.T.);
#346=FACE_BOUND('',#314,.T.);
#347=FACE_BOUND('',#315,.T.);
#348=FACE_BOUND('',#316,.T.);
#349=FACE_BOUND('',#317,.T.);
#350=FACE_BOUND('',#318,.T.);
#351=FACE_BOUND('',#319,.T.);
#352=FACE_BOUND('',#320,.T.);
#353=PLANE('',#403);
#354=PLANE('',#404);
#355=PLANE('',#405);
#356=PLANE('',#409);
#357=PLANE('',#410);
#358=PLANE('',#411);
#359=PLANE('',#415);
#360=PLANE('',#417);
#361=PLANE('',#418);
#362=PLANE('',#420);
#363=PLANE('',#421);
#364=PLANE('',#422);
#365=PLANE('',#426);
#366=PLANE('',#427);
#367=PLANE('',#428);
#368=PLANE('',#429);
#369=ADVANCED_FACE('',(#321),#353,.F.);
#370=ADVANCED_FACE('',(#322),#354,.F.);
#371=ADVANCED_FACE('',(#323),#355,.T.);
#372=ADVANCED_FACE('',(#324,#325),#22,.F.);
#373=ADVANCED_FACE('',(#326),#356,.T.);
#374=ADVANCED_FACE('',(#327),#357,.F.);
#375=ADVANCED_FACE('',(#328),#358,.T.);
#376=ADVANCED_FACE('',(#329,#330),#23,.F.);
#377=ADVANCED_FACE('',(#331,#332,#333),#359,.T.);
#378=ADVANCED_FACE('',(#334,#335,#336),#360,.F.);
#379=ADVANCED_FACE('',(#337,#338),#361,.F.);
#380=ADVANCED_FACE('',(#339),#362,.T.);
#381=ADVANCED_FACE('',(#340),#363,.F.);
#382=ADVANCED_FACE('',(#341,#342),#364,.T.);
#383=ADVANCED_FACE('',(#343,#344),#24,.F.);
#384=ADVANCED_FACE('',(#345),#365,.F.);
#385=ADVANCED_FACE('',(#346),#366,.F.);
#386=ADVANCED_FACE('',(#347),#367,.F.);
#387=ADVANCED_FACE('',(#348),#368,.T.);
#388=ADVANCED_FACE('',(#349,#350),#12,.F.);
#389=ADVANCED_FACE('',(#351,#352),#13,.F.);
#390=CLOSED_SHELL('',(#369,#370,#371,#372,#373,#374,#375,#376,#377,#378,
#379,#380,#381,#382,#383,#384,#385,#386,#387,#388,#389));
#391=STYLED_ITEM('',(#392),#399);
#392=PRESENTATION_STYLE_ASSIGNMENT((#393));
#393=SURFACE_STYLE_USAGE(.BOTH.,#394);
#394=SURFACE_SIDE_STYLE('',(#395));
#395=SURFACE_STYLE_FILL_AREA(#396);
#396=FILL_AREA_STYLE('',(#397));
#397=FILL_AREA_STYLE_COLOUR('',#398);
#398=COLOUR_RGB('',0.866666666666667,0.32156862745098,0.156862745098039);
#399=MANIFOLD_SOLID_BREP('Linear Adapter',#390);
#400=SHAPE_DEFINITION_REPRESENTATION(#645,#401);
#401=SHAPE_REPRESENTATION('Linear Adapter',(#402),#640);
#402=AXIS2_PLACEMENT_3D('',#533,#432,#433);
#403=AXIS2_PLACEMENT_3D('',#534,#434,#435);
#404=AXIS2_PLACEMENT_3D('',#543,#440,#441);
#405=AXIS2_PLACEMENT_3D('',#556,#448,#449);
#406=AXIS2_PLACEMENT_3D('',#566,#455,#456);
#407=AXIS2_PLACEMENT_3D('',#567,#457,#458);
#408=AXIS2_PLACEMENT_3D('',#569,#459,#460);
#409=AXIS2_PLACEMENT_3D('',#571,#461,#462);
#410=AXIS2_PLACEMENT_3D('',#580,#467,#468);
#411=AXIS2_PLACEMENT_3D('',#586,#472,#473);
#412=AXIS2_PLACEMENT_3D('',#596,#479,#480);
#413=AXIS2_PLACEMENT_3D('',#597,#481,#482);
#414=AXIS2_PLACEMENT_3D('',#599,#483,#484);
#415=AXIS2_PLACEMENT_3D('',#601,#485,#486);
#416=AXIS2_PLACEMENT_3D('',#602,#487,#488);
#417=AXIS2_PLACEMENT_3D('',#611,#494,#495);
#418=AXIS2_PLACEMENT_3D('',#614,#498,#499);
#419=AXIS2_PLACEMENT_3D('',#615,#500,#501);
#420=AXIS2_PLACEMENT_3D('',#619,#504,#505);
#421=AXIS2_PLACEMENT_3D('',#621,#507,#508);
#422=AXIS2_PLACEMENT_3D('',#625,#511,#512);
#423=AXIS2_PLACEMENT_3D('',#626,#513,#514);
#424=AXIS2_PLACEMENT_3D('',#630,#517,#518);
#425=AXIS2_PLACEMENT_3D('',#631,#519,#520);
#426=AXIS2_PLACEMENT_3D('',#633,#521,#522);
#427=AXIS2_PLACEMENT_3D('',#634,#523,#524);
#428=AXIS2_PLACEMENT_3D('',#635,#525,#526);
#429=AXIS2_PLACEMENT_3D('',#636,#527,#528);
#430=AXIS2_PLACEMENT_3D('',#637,#529,#530);
#431=AXIS2_PLACEMENT_3D('',#638,#531,#532);
#432=DIRECTION('',(0.,0.,1.));
#433=DIRECTION('',(1.,0.,0.));
#434=DIRECTION('',(0.,0.,1.));
#435=DIRECTION('',(0.,-1.,0.));
#436=DIRECTION('',(1.,-6.12323399573677E-17,0.));
#437=DIRECTION('',(-6.12323399573677E-17,-1.,0.));
#438=DIRECTION('',(1.,-6.12323399573677E-17,0.));
#439=DIRECTION('',(0.,-1.,0.));
#440=DIRECTION('',(-1.,6.12323399573677E-17,0.));
#441=DIRECTION('',(6.12323399573677E-17,1.,0.));
#442=DIRECTION('',(0.,0.,1.));
#443=DIRECTION('',(6.12323399573677E-17,1.,0.));
#444=DIRECTION('',(0.,0.,1.));
#445=DIRECTION('',(-6.12323399573677E-17,-1.,0.));
#446=DIRECTION('',(0.,0.,1.));
#447=DIRECTION('',(6.12323399573677E-17,1.,0.));
#448=DIRECTION('',(-1.,0.,0.));
#449=DIRECTION('',(0.,1.,0.));
#450=DIRECTION('',(0.,0.,1.));
#451=DIRECTION('',(-6.12323399573677E-17,-1.,0.));
#452=DIRECTION('',(0.,0.,1.));
#453=DIRECTION('',(0.,-1.,0.));
#454=DIRECTION('',(0.,0.,1.));
#455=DIRECTION('',(6.12323399573677E-17,1.,0.));
#456=DIRECTION('',(1.,-6.12323399573677E-17,0.));
#457=DIRECTION('',(0.,-1.,0.));
#458=DIRECTION('',(-1.,0.,0.));
#459=DIRECTION('',(-6.12323399573677E-17,-1.,0.));
#460=DIRECTION('',(-1.,6.12323399573677E-17,0.));
#461=DIRECTION('',(-1.,6.12323399573677E-17,0.));
#462=DIRECTION('',(6.12323399573677E-17,1.,0.));
#463=DIRECTION('',(0.,0.,1.));
#464=DIRECTION('',(6.12323399573677E-17,1.,0.));
#465=DIRECTION('',(0.,0.,1.));
#466=DIRECTION('',(6.12323399573677E-17,1.,0.));
#467=DIRECTION('',(0.,0.,1.));
#468=DIRECTION('',(0.,-1.,0.));
#469=DIRECTION('',(1.,0.,0.));
#470=DIRECTION('',(-6.12323399573677E-17,-1.,0.));
#471=DIRECTION('',(1.,-6.12323399573677E-17,0.));
#472=DIRECTION('',(0.,0.,1.));
#473=DIRECTION('',(0.,-1.,0.));
#474=DIRECTION('',(1.,0.,0.));
#475=DIRECTION('',(-6.12323399573677E-17,-1.,0.));
#476=DIRECTION('',(1.,-6.12323399573677E-17,0.));
#477=DIRECTION('',(6.12323399573677E-17,1.,0.));
#478=DIRECTION('',(1.,-6.12323399573677E-17,0.));
#479=DIRECTION('',(6.12323399573677E-17,1.,0.));
#480=DIRECTION('',(1.,-6.12323399573677E-17,0.));
#481=DIRECTION('',(-6.12323399573677E-17,-1.,0.));
#482=DIRECTION('',(-1.,6.12323399573677E-17,0.));
#483=DIRECTION('',(-6.12323399573677E-17,-1.,0.));
#484=DIRECTION('',(-1.,6.12323399573677E-17,0.));
#485=DIRECTION('',(-6.12323399573677E-17,-1.,0.));
#486=DIRECTION('',(1.,-6.12323399573677E-17,0.));
#487=DIRECTION('',(-6.12323399573677E-17,-1.,0.));
#488=DIRECTION('',(-1.,6.12323399573677E-17,0.));
#489=DIRECTION('',(-1.,6.12323399573677E-17,0.));
#490=DIRECTION('',(-0.707106781186548,4.32978028117747E-17,-0.707106781186547));
#491=DIRECTION('',(-0.707106781186548,4.32978028117747E-17,0.707106781186547));
#492=DIRECTION('',(0.707106781186548,-4.32978028117747E-17,0.707106781186547));
#493=DIRECTION('',(0.,0.,1.));
#494=DIRECTION('',(-6.12323399573677E-17,-1.,0.));
#495=DIRECTION('',(1.,-6.12323399573677E-17,0.));
#496=DIRECTION('',(0.707106781186548,-4.32978028117747E-17,0.707106781186548));
#497=DIRECTION('',(0.707106781186548,-4.32978028117747E-17,-0.707106781186547));
#498=DIRECTION('',(0.,-1.,0.));
#499=DIRECTION('',(-1.,0.,0.));
#500=DIRECTION('',(0.,-1.,0.));
#501=DIRECTION('',(-1.,0.,0.));
#502=DIRECTION('',(-0.707106781186548,0.,-0.707106781186547));
#503=DIRECTION('',(0.,0.,1.));
#504=DIRECTION('',(1.,-6.12323399573677E-17,0.));
#505=DIRECTION('',(-6.12323399573677E-17,-1.,0.));
#506=DIRECTION('',(-6.12323399573677E-17,-1.,0.));
#507=DIRECTION('',(0.,0.,1.));
#508=DIRECTION('',(0.,-1.,0.));
#509=DIRECTION('',(-1.,6.12323399573677E-17,0.));
#510=DIRECTION('',(-6.12323399573677E-17,-1.,0.));
#511=DIRECTION('',(-6.12323399573677E-17,-1.,0.));
#512=DIRECTION('',(1.,-6.12323399573677E-17,0.));
#513=DIRECTION('',(-6.12323399573677E-17,-1.,0.));
#514=DIRECTION('',(-1.,6.12323399573677E-17,0.));
#515=DIRECTION('',(-0.707106781186548,4.32978028117747E-17,-0.707106781186548));
#516=DIRECTION('',(0.707106781186548,-4.32978028117747E-17,0.707106781186547));
#517=DIRECTION('',(-6.12323399573677E-17,-1.,0.));
#518=DIRECTION('',(-1.,6.12323399573677E-17,0.));
#519=DIRECTION('',(0.,-1.,0.));
#520=DIRECTION('',(-1.,0.,0.));
#521=DIRECTION('',(-0.707106781186548,4.32978028117746E-17,0.707106781186548));
#522=DIRECTION('',(6.12323399573677E-17,1.,0.));
#523=DIRECTION('',(-0.707106781186547,4.32978028117746E-17,0.707106781186548));
#524=DIRECTION('',(-6.12323399573677E-17,-1.,0.));
#525=DIRECTION('',(0.707106781186547,-4.32978028117746E-17,-0.707106781186548));
#526=DIRECTION('',(6.12323399573677E-17,1.,0.));
#527=DIRECTION('',(0.707106781186547,-4.32978028117746E-17,0.707106781186548));
#528=DIRECTION('',(-6.12323399573677E-17,-1.,0.));
#529=DIRECTION('',(0.,-1.,0.));
#530=DIRECTION('',(-1.,0.,0.));
#531=DIRECTION('',(0.,-1.,0.));
#532=DIRECTION('',(-1.,0.,0.));
#533=CARTESIAN_POINT('',(0.,0.,0.));
#534=CARTESIAN_POINT('',(0.129784798026085,0.1664,-0.0719985741168369));
#535=CARTESIAN_POINT('',(0.129784798026085,0.1914,-0.0719985741168369));
#536=CARTESIAN_POINT('',(0.119784798026085,0.1914,-0.0719985741168371));
#537=CARTESIAN_POINT('',(0.151784798026085,0.1914,-0.0719985741168369));
#538=CARTESIAN_POINT('',(0.151784798026085,0.1664,-0.0719985741168369));
#539=CARTESIAN_POINT('',(0.151784798026085,0.1864,-0.0719985741168369));
#540=CARTESIAN_POINT('',(0.129784798026085,0.1864,-0.0719985741168369));
#541=CARTESIAN_POINT('',(0.119784798026085,0.1864,-0.0719985741168369));
#542=CARTESIAN_POINT('',(0.119784798026085,0.1664,-0.0719985741168369));
#543=CARTESIAN_POINT('',(0.159784798026085,0.1664,-0.0444985741168369));
#544=CARTESIAN_POINT('',(0.159784798026085,0.1864,-0.0444985741168369));
#545=CARTESIAN_POINT('',(0.159784798026085,0.1864,-0.0639985741168369));
#546=CARTESIAN_POINT('',(0.159784798026085,0.1864,-0.0439985741168369));
#547=CARTESIAN_POINT('',(0.159784798026085,0.1664,-0.0639985741168369));
#548=CARTESIAN_POINT('',(0.159784798026085,0.1914,-0.0639985741168369));
#549=CARTESIAN_POINT('',(0.159784798026085,0.1914,-0.0444985741168369));
#550=CARTESIAN_POINT('',(0.159784798026085,0.1914,-0.0249985741168369));
#551=CARTESIAN_POINT('',(0.159784798026085,0.1664,-0.0249985741168369));
#552=CARTESIAN_POINT('',(0.159784798026085,0.1664,-0.0249985741168369));
#553=CARTESIAN_POINT('',(0.159784798026085,0.1664,-0.0444985741168369));
#554=CARTESIAN_POINT('',(0.159784798026085,0.1664,-0.0439985741168369));
#555=CARTESIAN_POINT('',(0.159784798026085,0.1664,-0.0439985741168369));
#556=CARTESIAN_POINT('',(0.119784798026085,0.1814,-0.741509020097639));
#557=CARTESIAN_POINT('',(0.119784798026085,0.1864,-0.0619985741168369));
#558=CARTESIAN_POINT('',(0.119784798026085,0.1864,-0.0519985741168369));
#559=CARTESIAN_POINT('',(0.119784798026085,0.1864,-0.0519985741168369));
#560=CARTESIAN_POINT('',(0.119784798026085,0.1714,-0.0519985741168369));
#561=CARTESIAN_POINT('',(0.119784798026085,0.1714,-0.741509020097639));
#562=CARTESIAN_POINT('',(0.119784798026085,0.1714,-0.0169985741168369));
#563=CARTESIAN_POINT('',(0.119784798026085,0.1664,-0.0169985741168369));
#564=CARTESIAN_POINT('',(0.119784798026085,0.1914,-0.0169985741168371));
#565=CARTESIAN_POINT('',(0.119784798026085,0.1914,-0.741509020097639));
#566=CARTESIAN_POINT('',(0.133744145256189,0.1664,-0.062));
#567=CARTESIAN_POINT('',(0.133744145256189,0.1884,-0.062));
#568=CARTESIAN_POINT('',(0.131244145256189,0.1884,-0.062));
#569=CARTESIAN_POINT('',(0.133744145256189,0.1914,-0.062));
#570=CARTESIAN_POINT('',(0.131244145256189,0.1914,-0.062));
#571=CARTESIAN_POINT('',(0.0997847980260849,0.1664,-0.0444985741168369));
#572=CARTESIAN_POINT('',(0.0997847980260849,0.1664,-0.0444985741168369));
#573=CARTESIAN_POINT('',(0.0997847980260849,0.1664,-0.0719985741168369));
#574=CARTESIAN_POINT('',(0.0997847980260849,0.1664,-0.0249985741168369));
#575=CARTESIAN_POINT('',(0.0997847980260849,0.1664,-0.0249985741168369));
#576=CARTESIAN_POINT('',(0.0997847980260849,0.1714,-0.0249985741168372));
#577=CARTESIAN_POINT('',(0.0997847980260849,0.1714,-0.741509020097639));
#578=CARTESIAN_POINT('',(0.0997847980260849,0.1714,-0.0719985741168371));
#579=CARTESIAN_POINT('',(0.0997847980260849,0.1664,-0.0719985741168369));
#580=CARTESIAN_POINT('',(0.129784798026085,0.1664,-0.0719985741168369));
#581=CARTESIAN_POINT('',(0.129784798026085,0.1714,-0.0719985741168369));
#582=CARTESIAN_POINT('',(0.119784798026085,0.1714,-0.0719985741168369));
#583=CARTESIAN_POINT('',(0.119784798026085,0.1864,-0.0719985741168369));
#584=CARTESIAN_POINT('',(0.119784798026085,0.1664,-0.0719985741168369));
#585=CARTESIAN_POINT('',(0.129784798026085,0.1664,-0.0719985741168369));
#586=CARTESIAN_POINT('',(0.129784798026085,0.1664,-0.0169985741168369));
#587=CARTESIAN_POINT('',(0.129784798026085,0.1714,-0.0169985741168369));
#588=CARTESIAN_POINT('',(0.107784798026085,0.1714,-0.0169985741168369));
#589=CARTESIAN_POINT('',(0.107784798026085,0.1664,-0.0169985741168369));
#590=CARTESIAN_POINT('',(0.107784798026085,0.1664,-0.0169985741168369));
#591=CARTESIAN_POINT('',(0.129784798026085,0.1664,-0.0169985741168369));
#592=CARTESIAN_POINT('',(0.151784798026085,0.1664,-0.0169985741168369));
#593=CARTESIAN_POINT('',(0.151784798026085,0.1914,-0.0169985741168369));
#594=CARTESIAN_POINT('',(0.151784798026085,0.1914,-0.0169985741168369));
#595=CARTESIAN_POINT('',(0.129784798026085,0.1914,-0.0169985741168369));
#596=CARTESIAN_POINT('',(0.141955178741093,0.1664,-0.0365));
#597=CARTESIAN_POINT('',(0.141955178741093,0.1664,-0.0365));
#598=CARTESIAN_POINT('',(0.131455178741093,0.1664,-0.0365));
#599=CARTESIAN_POINT('',(0.141955178741093,0.1914,-0.0365));
#600=CARTESIAN_POINT('',(0.131455178741093,0.1914,-0.0365));
#601=CARTESIAN_POINT('',(-0.0403580090403558,0.1664,0.018680451245188));
#602=CARTESIAN_POINT('',(0.109784798026085,0.1664,-0.0369985741168369));
#603=CARTESIAN_POINT('',(0.105284798026085,0.1664,-0.0369985741168369));
#604=CARTESIAN_POINT('',(0.139784798026085,0.1664,-0.0519985741168369));
#605=CARTESIAN_POINT('',(0.151784798026085,0.1664,-0.0519985741168369));
#606=CARTESIAN_POINT('',(0.119784798026085,0.1664,-0.0519985741168369));
#607=CARTESIAN_POINT('',(0.0910529071738769,0.1664,-0.112730464969045));
#608=CARTESIAN_POINT('',(0.037873881811852,0.1664,0.0969123420973958));
#609=CARTESIAN_POINT('',(0.051552907173877,0.1664,-0.0732304649690447));
#610=CARTESIAN_POINT('',(0.119784798026085,0.1664,-0.0619985741168369));
#611=CARTESIAN_POINT('',(-0.0403580090403558,0.1914,0.018680451245188));
#612=CARTESIAN_POINT('',(0.159784798026085,0.1914,-0.0639985741168369));
#613=CARTESIAN_POINT('',(0.151784798026085,0.1914,-0.0169985741168369));
#614=CARTESIAN_POINT('',(0.109784798026085,0.1714,-0.741509020097639));
#615=CARTESIAN_POINT('',(0.109784798026085,0.1714,-0.0369985741168369));
#616=CARTESIAN_POINT('',(0.107284798026085,0.1714,-0.0369985741168369));
#617=CARTESIAN_POINT('',(0.0997847980260849,0.1714,-0.0249985741168369));
#618=CARTESIAN_POINT('',(0.119784798026085,0.1714,-0.741509020097639));
#619=CARTESIAN_POINT('',(0.119784798026085,0.1864,-0.0619985741168369));
#620=CARTESIAN_POINT('',(0.119784798026085,0.1864,-0.0519985741168369));
#621=CARTESIAN_POINT('',(0.139784798026085,0.1864,-0.0519985741168369));
#622=CARTESIAN_POINT('',(0.139784798026085,0.1864,-0.0519985741168369));
#623=CARTESIAN_POINT('',(0.151784798026085,0.1864,-0.0519985741168369));
#624=CARTESIAN_POINT('',(0.151784798026085,0.1864,-0.0519985741168369));
#625=CARTESIAN_POINT('',(-0.0403580090403557,0.1864,0.018680451245188));
#626=CARTESIAN_POINT('',(0.133744145256189,0.1864,-0.062));
#627=CARTESIAN_POINT('',(0.129244145256189,0.1864,-0.062));
#628=CARTESIAN_POINT('',(0.101052907173877,0.1864,-0.122730464969045));
#629=CARTESIAN_POINT('',(0.151784798026085,0.1864,-0.0519985741168369));
#630=CARTESIAN_POINT('',(0.109784798026085,1.01726849670485,-0.0369985741168369));
#631=CARTESIAN_POINT('',(0.109784798026085,0.1684,-0.0369985741168369));
#632=CARTESIAN_POINT('',(0.107284798026085,0.1684,-0.0369985741168369));
#633=CARTESIAN_POINT('',(0.159784798026085,0.1664,-0.0639985741168369));
#634=CARTESIAN_POINT('',(0.151784798026085,0.1864,-0.0519985741168369));
#635=CARTESIAN_POINT('',(0.0997847980260849,0.1664,-0.0249985741168369));
#636=CARTESIAN_POINT('',(0.151784798026085,0.1664,-0.0169985741168369));
#637=CARTESIAN_POINT('',(0.109784798026085,0.1684,-0.0369985741168369));
#638=CARTESIAN_POINT('',(0.133744145256189,0.1884,-0.062));
#639=MECHANICAL_DESIGN_GEOMETRIC_PRESENTATION_REPRESENTATION('',(#391),
#640);
#640=(
GEOMETRIC_REPRESENTATION_CONTEXT(3)
GLOBAL_UNCERTAINTY_ASSIGNED_CONTEXT((#641))
GLOBAL_UNIT_ASSIGNED_CONTEXT((#644,#643,#642))
REPRESENTATION_CONTEXT('Linear Adapter','TOP_LEVEL_ASSEMBLY_PART')
);
#641=UNCERTAINTY_MEASURE_WITH_UNIT(LENGTH_MEASURE(1.E-8),#644,
'DISTANCE_ACCURACY_VALUE','Maximum Tolerance applied to model');
#642=(
NAMED_UNIT(*)
SI_UNIT($,.STERADIAN.)
SOLID_ANGLE_UNIT()
);
#643=(
NAMED_UNIT(*)
PLANE_ANGLE_UNIT()
SI_UNIT($,.RADIAN.)
);
#644=(
LENGTH_UNIT()
NAMED_UNIT(*)
SI_UNIT($,.METRE.)
);
#645=PRODUCT_DEFINITION_SHAPE('','',#646);
#646=PRODUCT_DEFINITION('','',#648,#647);
#647=PRODUCT_DEFINITION_CONTEXT('',#654,'design');
#648=PRODUCT_DEFINITION_FORMATION_WITH_SPECIFIED_SOURCE('','',#650,
 .NOT_KNOWN.);
#649=PRODUCT_RELATED_PRODUCT_CATEGORY('','',(#650));
#650=PRODUCT('Linear Adapter','Linear Adapter','Linear Adapter',(#652));
#651=PRODUCT_CATEGORY('','');
#652=PRODUCT_CONTEXT('',#654,'mechanical');
#653=APPLICATION_PROTOCOL_DEFINITION('international standard',
'ap242_managed_model_based_3d_engineering',2020,#654);
#654=APPLICATION_CONTEXT('managed model based 3d engineering');
ENDSEC;
END-ISO-10303-21;
