ISO-10303-21;
HEADER;
/* Generated by software containing ST-Developer
 * from STEP Tools, Inc. (www.steptools.com) 
 */
/* OPTION: using custom renumber hook */

FILE_DESCRIPTION(
/* description */ ('STEP AP242 Edition 2',
'CAx-IF Rec.Pracs.---Representation and Presentation of Product Manufa
cturing Information (PMI)---4.0---2014-10-13',
'CAx-IF Rec.Pracs.---3D Tessellated Geometry---0.4---2014-09-14','2;1',
'CAx-IF Rec.Pracs.---User Defined Attributes---1.5---2016-08-15'),
/* implementation_level */ '2;1');

FILE_NAME(
/* name */ 'NOT-618 - Z-TopMount (1)',
/* time_stamp */ '2026-07-26T08:51:50Z',
/* author */ (''),
/* organization */ (''),
/* preprocessor_version */ 'ST-DEVELOPER v20',
/* originating_system */ 'ONSHAPE BY PTC INC, 1.218',
/* authorisation */ '  ');

FILE_SCHEMA (('AP242_MANAGED_MODEL_BASED_3D_ENGINEERING_MIM_LF { 1 0 10303 442 3 1 4 }'));
ENDSEC;

DATA;
#10=SHAPE_REPRESENTATION_RELATIONSHIP('','',#801,#11);
#11=ADVANCED_BREP_SHAPE_REPRESENTATION('',(#799),#1275);
#12=CONICAL_SURFACE('',#833,0.0025,0.785398163397448);
#13=CONICAL_SURFACE('',#834,0.0025,0.785398163397448);
#14=CYLINDRICAL_SURFACE('',#817,0.0025);
#15=CYLINDRICAL_SURFACE('',#820,0.0025);
#16=CYLINDRICAL_SURFACE('',#830,0.006);
#17=CYLINDRICAL_SURFACE('',#831,0.006);
#18=CYLINDRICAL_SURFACE('',#832,0.004);
#19=CYLINDRICAL_SURFACE('',#840,0.0011);
#20=CYLINDRICAL_SURFACE('',#843,0.0011);
#21=LINE('',#1068,#105);
#22=LINE('',#1071,#106);
#23=LINE('',#1073,#107);
#24=LINE('',#1075,#108);
#25=LINE('',#1077,#109);
#26=LINE('',#1079,#110);
#27=LINE('',#1081,#111);
#28=LINE('',#1083,#112);
#29=LINE('',#1085,#113);
#30=LINE('',#1087,#114);
#31=LINE('',#1089,#115);
#32=LINE('',#1091,#116);
#33=LINE('',#1092,#117);
#34=LINE('',#1095,#118);
#35=LINE('',#1097,#119);
#36=LINE('',#1098,#120);
#37=LINE('',#1101,#121);
#38=LINE('',#1103,#122);
#39=LINE('',#1104,#123);
#40=LINE('',#1107,#124);
#41=LINE('',#1109,#125);
#42=LINE('',#1110,#126);
#43=LINE('',#1113,#127);
#44=LINE('',#1115,#128);
#45=LINE('',#1127,#129);
#46=LINE('',#1130,#130);
#47=LINE('',#1132,#131);
#48=LINE('',#1134,#132);
#49=LINE('',#1136,#133);
#50=LINE('',#1138,#134);
#51=LINE('',#1140,#135);
#52=LINE('',#1142,#136);
#53=LINE('',#1144,#137);
#54=LINE('',#1146,#138);
#55=LINE('',#1148,#139);
#56=LINE('',#1150,#140);
#57=LINE('',#1152,#141);
#58=LINE('',#1154,#142);
#59=LINE('',#1155,#143);
#60=LINE('',#1158,#144);
#61=LINE('',#1160,#145);
#62=LINE('',#1161,#146);
#63=LINE('',#1164,#147);
#64=LINE('',#1166,#148);
#65=LINE('',#1167,#149);
#66=LINE('',#1170,#150);
#67=LINE('',#1172,#151);
#68=LINE('',#1173,#152);
#69=LINE('',#1176,#153);
#70=LINE('',#1178,#154);
#71=LINE('',#1180,#155);
#72=LINE('',#1181,#156);
#73=LINE('',#1183,#157);
#74=LINE('',#1185,#158);
#75=LINE('',#1187,#159);
#76=LINE('',#1189,#160);
#77=LINE('',#1191,#161);
#78=LINE('',#1193,#162);
#79=LINE('',#1195,#163);
#80=LINE('',#1207,#164);
#81=LINE('',#1210,#165);
#82=LINE('',#1211,#166);
#83=LINE('',#1213,#167);
#84=LINE('',#1214,#168);
#85=LINE('',#1216,#169);
#86=LINE('',#1218,#170);
#87=LINE('',#1220,#171);
#88=LINE('',#1222,#172);
#89=LINE('',#1230,#173);
#90=LINE('',#1231,#174);
#91=LINE('',#1233,#175);
#92=LINE('',#1234,#176);
#93=LINE('',#1251,#177);
#94=LINE('',#1252,#178);
#95=LINE('',#1254,#179);
#96=LINE('',#1257,#180);
#97=LINE('',#1258,#181);
#98=LINE('',#1260,#182);
#99=LINE('',#1263,#183);
#100=LINE('',#1264,#184);
#101=LINE('',#1266,#185);
#102=LINE('',#1269,#186);
#103=LINE('',#1270,#187);
#104=LINE('',#1272,#188);
#105=VECTOR('',#870,1.);
#106=VECTOR('',#871,1.);
#107=VECTOR('',#872,1.);
#108=VECTOR('',#873,1.);
#109=VECTOR('',#874,1.);
#110=VECTOR('',#875,1.);
#111=VECTOR('',#876,1.);
#112=VECTOR('',#877,1.);
#113=VECTOR('',#878,1.);
#114=VECTOR('',#879,1.);
#115=VECTOR('',#880,1.);
#116=VECTOR('',#881,1.);
#117=VECTOR('',#882,1.);
#118=VECTOR('',#883,1.);
#119=VECTOR('',#884,1.);
#120=VECTOR('',#885,1.);
#121=VECTOR('',#886,1.);
#122=VECTOR('',#887,1.);
#123=VECTOR('',#888,1.);
#124=VECTOR('',#889,1.);
#125=VECTOR('',#890,1.);
#126=VECTOR('',#891,1.);
#127=VECTOR('',#892,1.);
#128=VECTOR('',#893,1.);
#129=VECTOR('',#906,1.);
#130=VECTOR('',#907,1.);
#131=VECTOR('',#908,1.);
#132=VECTOR('',#909,1.);
#133=VECTOR('',#910,1.);
#134=VECTOR('',#911,1.);
#135=VECTOR('',#912,1.);
#136=VECTOR('',#913,1.);
#137=VECTOR('',#914,1.);
#138=VECTOR('',#915,1.);
#139=VECTOR('',#916,1.);
#140=VECTOR('',#917,1.);
#141=VECTOR('',#918,1.);
#142=VECTOR('',#919,1.);
#143=VECTOR('',#920,1.);
#144=VECTOR('',#921,1.);
#145=VECTOR('',#922,1.);
#146=VECTOR('',#923,1.);
#147=VECTOR('',#924,1.);
#148=VECTOR('',#925,1.);
#149=VECTOR('',#926,1.);
#150=VECTOR('',#927,1.);
#151=VECTOR('',#928,1.);
#152=VECTOR('',#929,1.);
#153=VECTOR('',#930,1.);
#154=VECTOR('',#931,1.);
#155=VECTOR('',#934,1.);
#156=VECTOR('',#935,1.);
#157=VECTOR('',#938,1.);
#158=VECTOR('',#939,1.);
#159=VECTOR('',#940,1.);
#160=VECTOR('',#943,1.);
#161=VECTOR('',#944,1.);
#162=VECTOR('',#947,1.);
#163=VECTOR('',#948,1.);
#164=VECTOR('',#963,1.);
#165=VECTOR('',#964,1.);
#166=VECTOR('',#965,1.);
#167=VECTOR('',#968,1.);
#168=VECTOR('',#969,1.);
#169=VECTOR('',#972,1.);
#170=VECTOR('',#975,1.);
#171=VECTOR('',#978,1.);
#172=VECTOR('',#981,1.);
#173=VECTOR('',#996,1.);
#174=VECTOR('',#997,1.);
#175=VECTOR('',#1000,1.);
#176=VECTOR('',#1001,1.);
#177=VECTOR('',#1026,1.);
#178=VECTOR('',#1027,1.);
#179=VECTOR('',#1030,1.);
#180=VECTOR('',#1035,1.);
#181=VECTOR('',#1036,1.);
#182=VECTOR('',#1039,1.);
#183=VECTOR('',#1044,1.);
#184=VECTOR('',#1045,1.);
#185=VECTOR('',#1048,1.);
#186=VECTOR('',#1053,1.);
#187=VECTOR('',#1054,1.);
#188=VECTOR('',#1057,1.);
#189=ORIENTED_EDGE('',*,*,#389,.F.);
#190=ORIENTED_EDGE('',*,*,#390,.F.);
#191=ORIENTED_EDGE('',*,*,#391,.F.);
#192=ORIENTED_EDGE('',*,*,#392,.T.);
#193=ORIENTED_EDGE('',*,*,#393,.T.);
#194=ORIENTED_EDGE('',*,*,#394,.T.);
#195=ORIENTED_EDGE('',*,*,#395,.T.);
#196=ORIENTED_EDGE('',*,*,#396,.T.);
#197=ORIENTED_EDGE('',*,*,#397,.T.);
#198=ORIENTED_EDGE('',*,*,#398,.T.);
#199=ORIENTED_EDGE('',*,*,#399,.F.);
#200=ORIENTED_EDGE('',*,*,#400,.T.);
#201=ORIENTED_EDGE('',*,*,#401,.T.);
#202=ORIENTED_EDGE('',*,*,#402,.F.);
#203=ORIENTED_EDGE('',*,*,#403,.T.);
#204=ORIENTED_EDGE('',*,*,#404,.T.);
#205=ORIENTED_EDGE('',*,*,#405,.T.);
#206=ORIENTED_EDGE('',*,*,#406,.T.);
#207=ORIENTED_EDGE('',*,*,#407,.T.);
#208=ORIENTED_EDGE('',*,*,#408,.T.);
#209=ORIENTED_EDGE('',*,*,#409,.T.);
#210=ORIENTED_EDGE('',*,*,#410,.T.);
#211=ORIENTED_EDGE('',*,*,#411,.T.);
#212=ORIENTED_EDGE('',*,*,#412,.T.);
#213=ORIENTED_EDGE('',*,*,#413,.T.);
#214=ORIENTED_EDGE('',*,*,#414,.T.);
#215=ORIENTED_EDGE('',*,*,#415,.T.);
#216=ORIENTED_EDGE('',*,*,#416,.T.);
#217=ORIENTED_EDGE('',*,*,#417,.T.);
#218=ORIENTED_EDGE('',*,*,#418,.F.);
#219=ORIENTED_EDGE('',*,*,#419,.F.);
#220=ORIENTED_EDGE('',*,*,#420,.F.);
#221=ORIENTED_EDGE('',*,*,#421,.F.);
#222=ORIENTED_EDGE('',*,*,#422,.T.);
#223=ORIENTED_EDGE('',*,*,#423,.F.);
#224=ORIENTED_EDGE('',*,*,#424,.F.);
#225=ORIENTED_EDGE('',*,*,#425,.T.);
#226=ORIENTED_EDGE('',*,*,#426,.T.);
#227=ORIENTED_EDGE('',*,*,#427,.F.);
#228=ORIENTED_EDGE('',*,*,#428,.F.);
#229=ORIENTED_EDGE('',*,*,#429,.F.);
#230=ORIENTED_EDGE('',*,*,#430,.F.);
#231=ORIENTED_EDGE('',*,*,#431,.F.);
#232=ORIENTED_EDGE('',*,*,#432,.F.);
#233=ORIENTED_EDGE('',*,*,#433,.F.);
#234=ORIENTED_EDGE('',*,*,#434,.F.);
#235=ORIENTED_EDGE('',*,*,#435,.F.);
#236=ORIENTED_EDGE('',*,*,#436,.F.);
#237=ORIENTED_EDGE('',*,*,#437,.F.);
#238=ORIENTED_EDGE('',*,*,#438,.F.);
#239=ORIENTED_EDGE('',*,*,#439,.F.);
#240=ORIENTED_EDGE('',*,*,#440,.F.);
#241=ORIENTED_EDGE('',*,*,#441,.F.);
#242=ORIENTED_EDGE('',*,*,#442,.F.);
#243=ORIENTED_EDGE('',*,*,#443,.F.);
#244=ORIENTED_EDGE('',*,*,#444,.F.);
#245=ORIENTED_EDGE('',*,*,#445,.F.);
#246=ORIENTED_EDGE('',*,*,#446,.F.);
#247=ORIENTED_EDGE('',*,*,#394,.F.);
#248=ORIENTED_EDGE('',*,*,#447,.T.);
#249=ORIENTED_EDGE('',*,*,#421,.T.);
#250=ORIENTED_EDGE('',*,*,#448,.F.);
#251=ORIENTED_EDGE('',*,*,#449,.F.);
#252=ORIENTED_EDGE('',*,*,#428,.T.);
#253=ORIENTED_EDGE('',*,*,#450,.T.);
#254=ORIENTED_EDGE('',*,*,#451,.F.);
#255=ORIENTED_EDGE('',*,*,#452,.F.);
#256=ORIENTED_EDGE('',*,*,#429,.T.);
#257=ORIENTED_EDGE('',*,*,#449,.T.);
#258=ORIENTED_EDGE('',*,*,#453,.F.);
#259=ORIENTED_EDGE('',*,*,#454,.F.);
#260=ORIENTED_EDGE('',*,*,#430,.T.);
#261=ORIENTED_EDGE('',*,*,#452,.T.);
#262=ORIENTED_EDGE('',*,*,#455,.F.);
#263=ORIENTED_EDGE('',*,*,#456,.T.);
#264=ORIENTED_EDGE('',*,*,#457,.F.);
#265=ORIENTED_EDGE('',*,*,#458,.T.);
#266=ORIENTED_EDGE('',*,*,#459,.F.);
#267=ORIENTED_EDGE('',*,*,#460,.F.);
#268=ORIENTED_EDGE('',*,*,#461,.F.);
#269=ORIENTED_EDGE('',*,*,#399,.T.);
#270=ORIENTED_EDGE('',*,*,#462,.T.);
#271=ORIENTED_EDGE('',*,*,#427,.T.);
#272=ORIENTED_EDGE('',*,*,#463,.T.);
#273=ORIENTED_EDGE('',*,*,#400,.F.);
#274=ORIENTED_EDGE('',*,*,#461,.T.);
#275=ORIENTED_EDGE('',*,*,#464,.F.);
#276=ORIENTED_EDGE('',*,*,#450,.F.);
#277=ORIENTED_EDGE('',*,*,#448,.T.);
#278=ORIENTED_EDGE('',*,*,#434,.T.);
#279=ORIENTED_EDGE('',*,*,#465,.F.);
#280=ORIENTED_EDGE('',*,*,#395,.F.);
#281=ORIENTED_EDGE('',*,*,#465,.T.);
#282=ORIENTED_EDGE('',*,*,#433,.T.);
#283=ORIENTED_EDGE('',*,*,#466,.F.);
#284=ORIENTED_EDGE('',*,*,#396,.F.);
#285=ORIENTED_EDGE('',*,*,#466,.T.);
#286=ORIENTED_EDGE('',*,*,#432,.T.);
#287=ORIENTED_EDGE('',*,*,#467,.F.);
#288=ORIENTED_EDGE('',*,*,#397,.F.);
#289=ORIENTED_EDGE('',*,*,#467,.T.);
#290=ORIENTED_EDGE('',*,*,#431,.T.);
#291=ORIENTED_EDGE('',*,*,#454,.T.);
#292=ORIENTED_EDGE('',*,*,#468,.F.);
#293=ORIENTED_EDGE('',*,*,#462,.F.);
#294=ORIENTED_EDGE('',*,*,#398,.F.);
#295=ORIENTED_EDGE('',*,*,#464,.T.);
#296=ORIENTED_EDGE('',*,*,#460,.T.);
#297=ORIENTED_EDGE('',*,*,#468,.T.);
#298=ORIENTED_EDGE('',*,*,#455,.T.);
#299=ORIENTED_EDGE('',*,*,#453,.T.);
#300=ORIENTED_EDGE('',*,*,#451,.T.);
#301=ORIENTED_EDGE('',*,*,#457,.T.);
#302=ORIENTED_EDGE('',*,*,#459,.T.);
#303=ORIENTED_EDGE('',*,*,#420,.T.);
#304=ORIENTED_EDGE('',*,*,#390,.T.);
#305=ORIENTED_EDGE('',*,*,#419,.T.);
#306=ORIENTED_EDGE('',*,*,#389,.T.);
#307=ORIENTED_EDGE('',*,*,#391,.T.);
#308=ORIENTED_EDGE('',*,*,#418,.T.);
#309=ORIENTED_EDGE('',*,*,#416,.F.);
#310=ORIENTED_EDGE('',*,*,#456,.F.);
#311=ORIENTED_EDGE('',*,*,#417,.F.);
#312=ORIENTED_EDGE('',*,*,#458,.F.);
#313=ORIENTED_EDGE('',*,*,#402,.T.);
#314=ORIENTED_EDGE('',*,*,#469,.T.);
#315=ORIENTED_EDGE('',*,*,#425,.F.);
#316=ORIENTED_EDGE('',*,*,#470,.T.);
#317=ORIENTED_EDGE('',*,*,#423,.T.);
#318=ORIENTED_EDGE('',*,*,#471,.T.);
#319=ORIENTED_EDGE('',*,*,#392,.F.);
#320=ORIENTED_EDGE('',*,*,#472,.F.);
#321=ORIENTED_EDGE('',*,*,#473,.F.);
#322=ORIENTED_EDGE('',*,*,#474,.F.);
#323=ORIENTED_EDGE('',*,*,#470,.F.);
#324=ORIENTED_EDGE('',*,*,#424,.T.);
#325=ORIENTED_EDGE('',*,*,#472,.T.);
#326=ORIENTED_EDGE('',*,*,#403,.F.);
#327=ORIENTED_EDGE('',*,*,#475,.F.);
#328=ORIENTED_EDGE('',*,*,#474,.T.);
#329=ORIENTED_EDGE('',*,*,#475,.T.);
#330=ORIENTED_EDGE('',*,*,#476,.F.);
#331=ORIENTED_EDGE('',*,*,#473,.T.);
#332=ORIENTED_EDGE('',*,*,#476,.T.);
#333=ORIENTED_EDGE('',*,*,#422,.F.);
#334=ORIENTED_EDGE('',*,*,#447,.F.);
#335=ORIENTED_EDGE('',*,*,#393,.F.);
#336=ORIENTED_EDGE('',*,*,#471,.F.);
#337=ORIENTED_EDGE('',*,*,#426,.F.);
#338=ORIENTED_EDGE('',*,*,#469,.F.);
#339=ORIENTED_EDGE('',*,*,#401,.F.);
#340=ORIENTED_EDGE('',*,*,#463,.F.);
#341=ORIENTED_EDGE('',*,*,#436,.T.);
#342=ORIENTED_EDGE('',*,*,#477,.T.);
#343=ORIENTED_EDGE('',*,*,#405,.F.);
#344=ORIENTED_EDGE('',*,*,#478,.F.);
#345=ORIENTED_EDGE('',*,*,#437,.T.);
#346=ORIENTED_EDGE('',*,*,#478,.T.);
#347=ORIENTED_EDGE('',*,*,#404,.F.);
#348=ORIENTED_EDGE('',*,*,#479,.F.);
#349=ORIENTED_EDGE('',*,*,#435,.T.);
#350=ORIENTED_EDGE('',*,*,#479,.T.);
#351=ORIENTED_EDGE('',*,*,#406,.F.);
#352=ORIENTED_EDGE('',*,*,#477,.F.);
#353=ORIENTED_EDGE('',*,*,#439,.T.);
#354=ORIENTED_EDGE('',*,*,#480,.T.);
#355=ORIENTED_EDGE('',*,*,#408,.F.);
#356=ORIENTED_EDGE('',*,*,#481,.F.);
#357=ORIENTED_EDGE('',*,*,#440,.T.);
#358=ORIENTED_EDGE('',*,*,#481,.T.);
#359=ORIENTED_EDGE('',*,*,#407,.F.);
#360=ORIENTED_EDGE('',*,*,#482,.F.);
#361=ORIENTED_EDGE('',*,*,#438,.T.);
#362=ORIENTED_EDGE('',*,*,#482,.T.);
#363=ORIENTED_EDGE('',*,*,#409,.F.);
#364=ORIENTED_EDGE('',*,*,#480,.F.);
#365=ORIENTED_EDGE('',*,*,#442,.T.);
#366=ORIENTED_EDGE('',*,*,#483,.T.);
#367=ORIENTED_EDGE('',*,*,#411,.F.);
#368=ORIENTED_EDGE('',*,*,#484,.F.);
#369=ORIENTED_EDGE('',*,*,#443,.T.);
#370=ORIENTED_EDGE('',*,*,#484,.T.);
#371=ORIENTED_EDGE('',*,*,#410,.F.);
#372=ORIENTED_EDGE('',*,*,#485,.F.);
#373=ORIENTED_EDGE('',*,*,#441,.T.);
#374=ORIENTED_EDGE('',*,*,#485,.T.);
#375=ORIENTED_EDGE('',*,*,#412,.F.);
#376=ORIENTED_EDGE('',*,*,#483,.F.);
#377=ORIENTED_EDGE('',*,*,#445,.T.);
#378=ORIENTED_EDGE('',*,*,#486,.T.);
#379=ORIENTED_EDGE('',*,*,#414,.F.);
#380=ORIENTED_EDGE('',*,*,#487,.F.);
#381=ORIENTED_EDGE('',*,*,#446,.T.);
#382=ORIENTED_EDGE('',*,*,#487,.T.);
#383=ORIENTED_EDGE('',*,*,#413,.F.);
#384=ORIENTED_EDGE('',*,*,#488,.F.);
#385=ORIENTED_EDGE('',*,*,#444,.T.);
#386=ORIENTED_EDGE('',*,*,#488,.T.);
#387=ORIENTED_EDGE('',*,*,#415,.F.);
#388=ORIENTED_EDGE('',*,*,#486,.F.);
#389=EDGE_CURVE('',#489,#489,#561,.T.);
#390=EDGE_CURVE('',#490,#490,#562,.T.);
#391=EDGE_CURVE('',#491,#491,#563,.T.);
#392=EDGE_CURVE('',#492,#493,#21,.T.);
#393=EDGE_CURVE('',#493,#494,#22,.F.);
#394=EDGE_CURVE('',#494,#495,#23,.T.);
#395=EDGE_CURVE('',#495,#496,#24,.T.);
#396=EDGE_CURVE('',#496,#497,#25,.T.);
#397=EDGE_CURVE('',#497,#498,#26,.T.);
#398=EDGE_CURVE('',#498,#499,#27,.T.);
#399=EDGE_CURVE('',#500,#499,#28,.T.);
#400=EDGE_CURVE('',#500,#501,#29,.T.);
#401=EDGE_CURVE('',#501,#502,#30,.T.);
#402=EDGE_CURVE('',#503,#502,#31,.T.);
#403=EDGE_CURVE('',#503,#492,#32,.T.);
#404=EDGE_CURVE('',#504,#505,#33,.T.);
#405=EDGE_CURVE('',#505,#506,#34,.T.);
#406=EDGE_CURVE('',#506,#504,#35,.T.);
#407=EDGE_CURVE('',#507,#508,#36,.T.);
#408=EDGE_CURVE('',#508,#509,#37,.T.);
#409=EDGE_CURVE('',#509,#507,#38,.T.);
#410=EDGE_CURVE('',#510,#511,#39,.T.);
#411=EDGE_CURVE('',#511,#512,#40,.T.);
#412=EDGE_CURVE('',#512,#510,#41,.T.);
#413=EDGE_CURVE('',#513,#514,#42,.T.);
#414=EDGE_CURVE('',#514,#515,#43,.T.);
#415=EDGE_CURVE('',#515,#513,#44,.T.);
#416=EDGE_CURVE('',#516,#516,#564,.F.);
#417=EDGE_CURVE('',#517,#517,#565,.F.);
#418=EDGE_CURVE('',#518,#518,#566,.T.);
#419=EDGE_CURVE('',#519,#519,#567,.T.);
#420=EDGE_CURVE('',#520,#520,#568,.T.);
#421=EDGE_CURVE('',#521,#522,#45,.T.);
#422=EDGE_CURVE('',#521,#523,#46,.F.);
#423=EDGE_CURVE('',#524,#523,#47,.T.);
#424=EDGE_CURVE('',#525,#524,#48,.T.);
#425=EDGE_CURVE('',#525,#526,#49,.T.);
#426=EDGE_CURVE('',#526,#527,#50,.T.);
#427=EDGE_CURVE('',#528,#527,#51,.T.);
#428=EDGE_CURVE('',#529,#528,#52,.T.);
#429=EDGE_CURVE('',#530,#529,#53,.T.);
#430=EDGE_CURVE('',#531,#530,#54,.T.);
#431=EDGE_CURVE('',#532,#531,#55,.T.);
#432=EDGE_CURVE('',#533,#532,#56,.T.);
#433=EDGE_CURVE('',#534,#533,#57,.T.);
#434=EDGE_CURVE('',#522,#534,#58,.T.);
#435=EDGE_CURVE('',#535,#536,#59,.T.);
#436=EDGE_CURVE('',#537,#535,#60,.T.);
#437=EDGE_CURVE('',#536,#537,#61,.T.);
#438=EDGE_CURVE('',#538,#539,#62,.T.);
#439=EDGE_CURVE('',#540,#538,#63,.T.);
#440=EDGE_CURVE('',#539,#540,#64,.T.);
#441=EDGE_CURVE('',#541,#542,#65,.T.);
#442=EDGE_CURVE('',#543,#541,#66,.T.);
#443=EDGE_CURVE('',#542,#543,#67,.T.);
#444=EDGE_CURVE('',#544,#545,#68,.T.);
#445=EDGE_CURVE('',#546,#544,#69,.T.);
#446=EDGE_CURVE('',#545,#546,#70,.T.);
#447=EDGE_CURVE('',#494,#521,#71,.T.);
#448=EDGE_CURVE('',#495,#522,#72,.T.);
#449=EDGE_CURVE('',#529,#547,#73,.T.);
#450=EDGE_CURVE('',#528,#548,#74,.T.);
#451=EDGE_CURVE('',#547,#548,#75,.T.);
#452=EDGE_CURVE('',#530,#549,#76,.T.);
#453=EDGE_CURVE('',#549,#547,#77,.T.);
#454=EDGE_CURVE('',#531,#550,#78,.T.);
#455=EDGE_CURVE('',#550,#549,#79,.T.);
#456=EDGE_CURVE('',#551,#551,#569,.T.);
#457=EDGE_CURVE('',#552,#552,#570,.T.);
#458=EDGE_CURVE('',#553,#553,#571,.T.);
#459=EDGE_CURVE('',#554,#554,#572,.T.);
#460=EDGE_CURVE('',#555,#556,#80,.T.);
#461=EDGE_CURVE('',#500,#555,#81,.T.);
#462=EDGE_CURVE('',#499,#556,#82,.T.);
#463=EDGE_CURVE('',#527,#501,#83,.T.);
#464=EDGE_CURVE('',#548,#555,#84,.T.);
#465=EDGE_CURVE('',#496,#534,#85,.T.);
#466=EDGE_CURVE('',#497,#533,#86,.T.);
#467=EDGE_CURVE('',#498,#532,#87,.T.);
#468=EDGE_CURVE('',#556,#550,#88,.T.);
#469=EDGE_CURVE('',#502,#526,#89,.T.);
#470=EDGE_CURVE('',#525,#503,#90,.T.);
#471=EDGE_CURVE('',#523,#493,#91,.T.);
#472=EDGE_CURVE('',#524,#492,#92,.T.);
#473=EDGE_CURVE('',#557,#557,#573,.T.);
#474=EDGE_CURVE('',#558,#558,#574,.T.);
#475=EDGE_CURVE('',#559,#559,#575,.T.);
#476=EDGE_CURVE('',#560,#560,#576,.T.);
#477=EDGE_CURVE('',#535,#506,#93,.T.);
#478=EDGE_CURVE('',#537,#505,#94,.T.);
#479=EDGE_CURVE('',#536,#504,#95,.T.);
#480=EDGE_CURVE('',#538,#509,#96,.T.);
#481=EDGE_CURVE('',#540,#508,#97,.T.);
#482=EDGE_CURVE('',#539,#507,#98,.T.);
#483=EDGE_CURVE('',#541,#512,#99,.T.);
#484=EDGE_CURVE('',#543,#511,#100,.T.);
#485=EDGE_CURVE('',#542,#510,#101,.T.);
#486=EDGE_CURVE('',#544,#515,#102,.T.);
#487=EDGE_CURVE('',#546,#514,#103,.T.);
#488=EDGE_CURVE('',#545,#513,#104,.T.);
#489=VERTEX_POINT('',#1063);
#490=VERTEX_POINT('',#1065);
#491=VERTEX_POINT('',#1067);
#492=VERTEX_POINT('',#1069);
#493=VERTEX_POINT('',#1070);
#494=VERTEX_POINT('',#1072);
#495=VERTEX_POINT('',#1074);
#496=VERTEX_POINT('',#1076);
#497=VERTEX_POINT('',#1078);
#498=VERTEX_POINT('',#1080);
#499=VERTEX_POINT('',#1082);
#500=VERTEX_POINT('',#1084);
#501=VERTEX_POINT('',#1086);
#502=VERTEX_POINT('',#1088);
#503=VERTEX_POINT('',#1090);
#504=VERTEX_POINT('',#1093);
#505=VERTEX_POINT('',#1094);
#506=VERTEX_POINT('',#1096);
#507=VERTEX_POINT('',#1099);
#508=VERTEX_POINT('',#1100);
#509=VERTEX_POINT('',#1102);
#510=VERTEX_POINT('',#1105);
#511=VERTEX_POINT('',#1106);
#512=VERTEX_POINT('',#1108);
#513=VERTEX_POINT('',#1111);
#514=VERTEX_POINT('',#1112);
#515=VERTEX_POINT('',#1114);
#516=VERTEX_POINT('',#1118);
#517=VERTEX_POINT('',#1120);
#518=VERTEX_POINT('',#1122);
#519=VERTEX_POINT('',#1124);
#520=VERTEX_POINT('',#1126);
#521=VERTEX_POINT('',#1128);
#522=VERTEX_POINT('',#1129);
#523=VERTEX_POINT('',#1131);
#524=VERTEX_POINT('',#1133);
#525=VERTEX_POINT('',#1135);
#526=VERTEX_POINT('',#1137);
#527=VERTEX_POINT('',#1139);
#528=VERTEX_POINT('',#1141);
#529=VERTEX_POINT('',#1143);
#530=VERTEX_POINT('',#1145);
#531=VERTEX_POINT('',#1147);
#532=VERTEX_POINT('',#1149);
#533=VERTEX_POINT('',#1151);
#534=VERTEX_POINT('',#1153);
#535=VERTEX_POINT('',#1156);
#536=VERTEX_POINT('',#1157);
#537=VERTEX_POINT('',#1159);
#538=VERTEX_POINT('',#1162);
#539=VERTEX_POINT('',#1163);
#540=VERTEX_POINT('',#1165);
#541=VERTEX_POINT('',#1168);
#542=VERTEX_POINT('',#1169);
#543=VERTEX_POINT('',#1171);
#544=VERTEX_POINT('',#1174);
#545=VERTEX_POINT('',#1175);
#546=VERTEX_POINT('',#1177);
#547=VERTEX_POINT('',#1184);
#548=VERTEX_POINT('',#1186);
#549=VERTEX_POINT('',#1190);
#550=VERTEX_POINT('',#1194);
#551=VERTEX_POINT('',#1198);
#552=VERTEX_POINT('',#1200);
#553=VERTEX_POINT('',#1203);
#554=VERTEX_POINT('',#1205);
#555=VERTEX_POINT('',#1208);
#556=VERTEX_POINT('',#1209);
#557=VERTEX_POINT('',#1237);
#558=VERTEX_POINT('',#1239);
#559=VERTEX_POINT('',#1242);
#560=VERTEX_POINT('',#1246);
#561=CIRCLE('',#804,0.006);
#562=CIRCLE('',#805,0.006);
#563=CIRCLE('',#806,0.004);
#564=CIRCLE('',#808,0.0045);
#565=CIRCLE('',#809,0.0045);
#566=CIRCLE('',#810,0.004);
#567=CIRCLE('',#811,0.006);
#568=CIRCLE('',#812,0.006);
#569=CIRCLE('',#818,0.0025);
#570=CIRCLE('',#819,0.0025);
#571=CIRCLE('',#821,0.0025);
#572=CIRCLE('',#822,0.0025);
#573=CIRCLE('',#838,0.0011);
#574=CIRCLE('',#839,0.0011);
#575=CIRCLE('',#841,0.0011);
#576=CIRCLE('',#844,0.0011);
#577=EDGE_LOOP('',(#189));
#578=EDGE_LOOP('',(#190));
#579=EDGE_LOOP('',(#191));
#580=EDGE_LOOP('',(#192,#193,#194,#195,#196,#197,#198,#199,#200,#201,#202,
#203));
#581=EDGE_LOOP('',(#204,#205,#206));
#582=EDGE_LOOP('',(#207,#208,#209));
#583=EDGE_LOOP('',(#210,#211,#212));
#584=EDGE_LOOP('',(#213,#214,#215));
#585=EDGE_LOOP('',(#216));
#586=EDGE_LOOP('',(#217));
#587=EDGE_LOOP('',(#218));
#588=EDGE_LOOP('',(#219));
#589=EDGE_LOOP('',(#220));
#590=EDGE_LOOP('',(#221,#222,#223,#224,#225,#226,#227,#228,#229,#230,#231,
#232,#233,#234));
#591=EDGE_LOOP('',(#235,#236,#237));
#592=EDGE_LOOP('',(#238,#239,#240));
#593=EDGE_LOOP('',(#241,#242,#243));
#594=EDGE_LOOP('',(#244,#245,#246));
#595=EDGE_LOOP('',(#247,#248,#249,#250));
#596=EDGE_LOOP('',(#251,#252,#253,#254));
#597=EDGE_LOOP('',(#255,#256,#257,#258));
#598=EDGE_LOOP('',(#259,#260,#261,#262));
#599=EDGE_LOOP('',(#263));
#600=EDGE_LOOP('',(#264));
#601=EDGE_LOOP('',(#265));
#602=EDGE_LOOP('',(#266));
#603=EDGE_LOOP('',(#267,#268,#269,#270));
#604=EDGE_LOOP('',(#271,#272,#273,#274,#275,#276));
#605=EDGE_LOOP('',(#277,#278,#279,#280));
#606=EDGE_LOOP('',(#281,#282,#283,#284));
#607=EDGE_LOOP('',(#285,#286,#287,#288));
#608=EDGE_LOOP('',(#289,#290,#291,#292,#293,#294));
#609=EDGE_LOOP('',(#295,#296,#297,#298,#299,#300));
#610=EDGE_LOOP('',(#301));
#611=EDGE_LOOP('',(#302));
#612=EDGE_LOOP('',(#303));
#613=EDGE_LOOP('',(#304));
#614=EDGE_LOOP('',(#305));
#615=EDGE_LOOP('',(#306));
#616=EDGE_LOOP('',(#307));
#617=EDGE_LOOP('',(#308));
#618=EDGE_LOOP('',(#309));
#619=EDGE_LOOP('',(#310));
#620=EDGE_LOOP('',(#311));
#621=EDGE_LOOP('',(#312));
#622=EDGE_LOOP('',(#313,#314,#315,#316));
#623=EDGE_LOOP('',(#317,#318,#319,#320));
#624=EDGE_LOOP('',(#321));
#625=EDGE_LOOP('',(#322));
#626=EDGE_LOOP('',(#323,#324,#325,#326));
#627=EDGE_LOOP('',(#327));
#628=EDGE_LOOP('',(#328));
#629=EDGE_LOOP('',(#329));
#630=EDGE_LOOP('',(#330));
#631=EDGE_LOOP('',(#331));
#632=EDGE_LOOP('',(#332));
#633=EDGE_LOOP('',(#333,#334,#335,#336));
#634=EDGE_LOOP('',(#337,#338,#339,#340));
#635=EDGE_LOOP('',(#341,#342,#343,#344));
#636=EDGE_LOOP('',(#345,#346,#347,#348));
#637=EDGE_LOOP('',(#349,#350,#351,#352));
#638=EDGE_LOOP('',(#353,#354,#355,#356));
#639=EDGE_LOOP('',(#357,#358,#359,#360));
#640=EDGE_LOOP('',(#361,#362,#363,#364));
#641=EDGE_LOOP('',(#365,#366,#367,#368));
#642=EDGE_LOOP('',(#369,#370,#371,#372));
#643=EDGE_LOOP('',(#373,#374,#375,#376));
#644=EDGE_LOOP('',(#377,#378,#379,#380));
#645=EDGE_LOOP('',(#381,#382,#383,#384));
#646=EDGE_LOOP('',(#385,#386,#387,#388));
#647=FACE_BOUND('',#577,.T.);
#648=FACE_BOUND('',#578,.T.);
#649=FACE_BOUND('',#579,.T.);
#650=FACE_BOUND('',#580,.T.);
#651=FACE_BOUND('',#581,.T.);
#652=FACE_BOUND('',#582,.T.);
#653=FACE_BOUND('',#583,.T.);
#654=FACE_BOUND('',#584,.T.);
#655=FACE_BOUND('',#585,.T.);
#656=FACE_BOUND('',#586,.T.);
#657=FACE_BOUND('',#587,.T.);
#658=FACE_BOUND('',#588,.T.);
#659=FACE_BOUND('',#589,.T.);
#660=FACE_BOUND('',#590,.T.);
#661=FACE_BOUND('',#591,.T.);
#662=FACE_BOUND('',#592,.T.);
#663=FACE_BOUND('',#593,.T.);
#664=FACE_BOUND('',#594,.T.);
#665=FACE_BOUND('',#595,.T.);
#666=FACE_BOUND('',#596,.T.);
#667=FACE_BOUND('',#597,.T.);
#668=FACE_BOUND('',#598,.T.);
#669=FACE_BOUND('',#599,.T.);
#670=FACE_BOUND('',#600,.T.);
#671=FACE_BOUND('',#601,.T.);
#672=FACE_BOUND('',#602,.T.);
#673=FACE_BOUND('',#603,.T.);
#674=FACE_BOUND('',#604,.T.);
#675=FACE_BOUND('',#605,.T.);
#676=FACE_BOUND('',#606,.T.);
#677=FACE_BOUND('',#607,.T.);
#678=FACE_BOUND('',#608,.T.);
#679=FACE_BOUND('',#609,.T.);
#680=FACE_BOUND('',#610,.T.);
#681=FACE_BOUND('',#611,.T.);
#682=FACE_BOUND('',#612,.T.);
#683=FACE_BOUND('',#613,.T.);
#684=FACE_BOUND('',#614,.T.);
#685=FACE_BOUND('',#615,.T.);
#686=FACE_BOUND('',#616,.T.);
#687=FACE_BOUND('',#617,.T.);
#688=FACE_BOUND('',#618,.T.);
#689=FACE_BOUND('',#619,.T.);
#690=FACE_BOUND('',#620,.T.);
#691=FACE_BOUND('',#621,.T.);
#692=FACE_BOUND('',#622,.T.);
#693=FACE_BOUND('',#623,.T.);
#694=FACE_BOUND('',#624,.T.);
#695=FACE_BOUND('',#625,.T.);
#696=FACE_BOUND('',#626,.T.);
#697=FACE_BOUND('',#627,.T.);
#698=FACE_BOUND('',#628,.T.);
#699=FACE_BOUND('',#629,.T.);
#700=FACE_BOUND('',#630,.T.);
#701=FACE_BOUND('',#631,.T.);
#702=FACE_BOUND('',#632,.T.);
#703=FACE_BOUND('',#633,.T.);
#704=FACE_BOUND('',#634,.T.);
#705=FACE_BOUND('',#635,.T.);
#706=FACE_BOUND('',#636,.T.);
#707=FACE_BOUND('',#637,.T.);
#708=FACE_BOUND('',#638,.T.);
#709=FACE_BOUND('',#639,.T.);
#710=FACE_BOUND('',#640,.T.);
#711=FACE_BOUND('',#641,.T.);
#712=FACE_BOUND('',#642,.T.);
#713=FACE_BOUND('',#643,.T.);
#714=FACE_BOUND('',#644,.T.);
#715=FACE_BOUND('',#645,.T.);
#716=FACE_BOUND('',#646,.T.);
#717=PLANE('',#803);
#718=PLANE('',#807);
#719=PLANE('',#813);
#720=PLANE('',#814);
#721=PLANE('',#815);
#722=PLANE('',#816);
#723=PLANE('',#823);
#724=PLANE('',#824);
#725=PLANE('',#825);
#726=PLANE('',#826);
#727=PLANE('',#827);
#728=PLANE('',#828);
#729=PLANE('',#829);
#730=PLANE('',#835);
#731=PLANE('',#836);
#732=PLANE('',#837);
#733=PLANE('',#842);
#734=PLANE('',#845);
#735=PLANE('',#846);
#736=PLANE('',#847);
#737=PLANE('',#848);
#738=PLANE('',#849);
#739=PLANE('',#850);
#740=PLANE('',#851);
#741=PLANE('',#852);
#742=PLANE('',#853);
#743=PLANE('',#854);
#744=PLANE('',#855);
#745=PLANE('',#856);
#746=PLANE('',#857);
#747=PLANE('',#858);
#748=PLANE('',#859);
#749=ADVANCED_FACE('',(#647,#648,#649,#650,#651,#652,#653,#654),#717,.T.);
#750=ADVANCED_FACE('',(#655,#656,#657,#658,#659,#660,#661,#662,#663,#664),
#718,.T.);
#751=ADVANCED_FACE('',(#665),#719,.F.);
#752=ADVANCED_FACE('',(#666),#720,.T.);
#753=ADVANCED_FACE('',(#667),#721,.T.);
#754=ADVANCED_FACE('',(#668),#722,.T.);
#755=ADVANCED_FACE('',(#669,#670),#14,.F.);
#756=ADVANCED_FACE('',(#671,#672),#15,.F.);
#757=ADVANCED_FACE('',(#673),#723,.T.);
#758=ADVANCED_FACE('',(#674),#724,.F.);
#759=ADVANCED_FACE('',(#675),#725,.F.);
#760=ADVANCED_FACE('',(#676),#726,.F.);
#761=ADVANCED_FACE('',(#677),#727,.F.);
#762=ADVANCED_FACE('',(#678),#728,.F.);
#763=ADVANCED_FACE('',(#679,#680,#681),#729,.T.);
#764=ADVANCED_FACE('',(#682,#683),#16,.F.);
#765=ADVANCED_FACE('',(#684,#685),#17,.F.);
#766=ADVANCED_FACE('',(#686,#687),#18,.F.);
#767=ADVANCED_FACE('',(#688,#689),#12,.F.);
#768=ADVANCED_FACE('',(#690,#691),#13,.F.);
#769=ADVANCED_FACE('',(#692),#730,.T.);
#770=ADVANCED_FACE('',(#693),#731,.F.);
#771=ADVANCED_FACE('',(#694,#695,#696),#732,.T.);
#772=ADVANCED_FACE('',(#697,#698),#19,.F.);
#773=ADVANCED_FACE('',(#699),#733,.T.);
#774=ADVANCED_FACE('',(#700,#701),#20,.F.);
#775=ADVANCED_FACE('',(#702),#734,.T.);
#776=ADVANCED_FACE('',(#703),#735,.F.);
#777=ADVANCED_FACE('',(#704),#736,.T.);
#778=ADVANCED_FACE('',(#705),#737,.T.);
#779=ADVANCED_FACE('',(#706),#738,.T.);
#780=ADVANCED_FACE('',(#707),#739,.T.);
#781=ADVANCED_FACE('',(#708),#740,.T.);
#782=ADVANCED_FACE('',(#709),#741,.T.);
#783=ADVANCED_FACE('',(#710),#742,.T.);
#784=ADVANCED_FACE('',(#711),#743,.T.);
#785=ADVANCED_FACE('',(#712),#744,.T.);
#786=ADVANCED_FACE('',(#713),#745,.T.);
#787=ADVANCED_FACE('',(#714),#746,.T.);
#788=ADVANCED_FACE('',(#715),#747,.T.);
#789=ADVANCED_FACE('',(#716),#748,.T.);
#790=CLOSED_SHELL('',(#749,#750,#751,#752,#753,#754,#755,#756,#757,#758,
#759,#760,#761,#762,#763,#764,#765,#766,#767,#768,#769,#770,#771,#772,#773,
#774,#775,#776,#777,#778,#779,#780,#781,#782,#783,#784,#785,#786,#787,#788,
#789));
#791=STYLED_ITEM('',(#792),#799);
#792=PRESENTATION_STYLE_ASSIGNMENT((#793));
#793=SURFACE_STYLE_USAGE(.BOTH.,#794);
#794=SURFACE_SIDE_STYLE('',(#795));
#795=SURFACE_STYLE_FILL_AREA(#796);
#796=FILL_AREA_STYLE('',(#797));
#797=FILL_AREA_STYLE_COLOUR('',#798);
#798=COLOUR_RGB('',0.866666666666667,0.32156862745098,0.156862745098039);
#799=MANIFOLD_SOLID_BREP('Z-TopMount',#790);
#800=SHAPE_DEFINITION_REPRESENTATION(#1280,#801);
#801=SHAPE_REPRESENTATION('Z-TopMount',(#802),#1275);
#802=AXIS2_PLACEMENT_3D('',#1060,#860,#861);
#803=AXIS2_PLACEMENT_3D('',#1061,#862,#863);
#804=AXIS2_PLACEMENT_3D('',#1062,#864,#865);
#805=AXIS2_PLACEMENT_3D('',#1064,#866,#867);
#806=AXIS2_PLACEMENT_3D('',#1066,#868,#869);
#807=AXIS2_PLACEMENT_3D('',#1116,#894,#895);
#808=AXIS2_PLACEMENT_3D('',#1117,#896,#897);
#809=AXIS2_PLACEMENT_3D('',#1119,#898,#899);
#810=AXIS2_PLACEMENT_3D('',#1121,#900,#901);
#811=AXIS2_PLACEMENT_3D('',#1123,#902,#903);
#812=AXIS2_PLACEMENT_3D('',#1125,#904,#905);
#813=AXIS2_PLACEMENT_3D('',#1179,#932,#933);
#814=AXIS2_PLACEMENT_3D('',#1182,#936,#937);
#815=AXIS2_PLACEMENT_3D('',#1188,#941,#942);
#816=AXIS2_PLACEMENT_3D('',#1192,#945,#946);
#817=AXIS2_PLACEMENT_3D('',#1196,#949,#950);
#818=AXIS2_PLACEMENT_3D('',#1197,#951,#952);
#819=AXIS2_PLACEMENT_3D('',#1199,#953,#954);
#820=AXIS2_PLACEMENT_3D('',#1201,#955,#956);
#821=AXIS2_PLACEMENT_3D('',#1202,#957,#958);
#822=AXIS2_PLACEMENT_3D('',#1204,#959,#960);
#823=AXIS2_PLACEMENT_3D('',#1206,#961,#962);
#824=AXIS2_PLACEMENT_3D('',#1212,#966,#967);
#825=AXIS2_PLACEMENT_3D('',#1215,#970,#971);
#826=AXIS2_PLACEMENT_3D('',#1217,#973,#974);
#827=AXIS2_PLACEMENT_3D('',#1219,#976,#977);
#828=AXIS2_PLACEMENT_3D('',#1221,#979,#980);
#829=AXIS2_PLACEMENT_3D('',#1223,#982,#983);
#830=AXIS2_PLACEMENT_3D('',#1224,#984,#985);
#831=AXIS2_PLACEMENT_3D('',#1225,#986,#987);
#832=AXIS2_PLACEMENT_3D('',#1226,#988,#989);
#833=AXIS2_PLACEMENT_3D('',#1227,#990,#991);
#834=AXIS2_PLACEMENT_3D('',#1228,#992,#993);
#835=AXIS2_PLACEMENT_3D('',#1229,#994,#995);
#836=AXIS2_PLACEMENT_3D('',#1232,#998,#999);
#837=AXIS2_PLACEMENT_3D('',#1235,#1002,#1003);
#838=AXIS2_PLACEMENT_3D('',#1236,#1004,#1005);
#839=AXIS2_PLACEMENT_3D('',#1238,#1006,#1007);
#840=AXIS2_PLACEMENT_3D('',#1240,#1008,#1009);
#841=AXIS2_PLACEMENT_3D('',#1241,#1010,#1011);
#842=AXIS2_PLACEMENT_3D('',#1243,#1012,#1013);
#843=AXIS2_PLACEMENT_3D('',#1244,#1014,#1015);
#844=AXIS2_PLACEMENT_3D('',#1245,#1016,#1017);
#845=AXIS2_PLACEMENT_3D('',#1247,#1018,#1019);
#846=AXIS2_PLACEMENT_3D('',#1248,#1020,#1021);
#847=AXIS2_PLACEMENT_3D('',#1249,#1022,#1023);
#848=AXIS2_PLACEMENT_3D('',#1250,#1024,#1025);
#849=AXIS2_PLACEMENT_3D('',#1253,#1028,#1029);
#850=AXIS2_PLACEMENT_3D('',#1255,#1031,#1032);
#851=AXIS2_PLACEMENT_3D('',#1256,#1033,#1034);
#852=AXIS2_PLACEMENT_3D('',#1259,#1037,#1038);
#853=AXIS2_PLACEMENT_3D('',#1261,#1040,#1041);
#854=AXIS2_PLACEMENT_3D('',#1262,#1042,#1043);
#855=AXIS2_PLACEMENT_3D('',#1265,#1046,#1047);
#856=AXIS2_PLACEMENT_3D('',#1267,#1049,#1050);
#857=AXIS2_PLACEMENT_3D('',#1268,#1051,#1052);
#858=AXIS2_PLACEMENT_3D('',#1271,#1055,#1056);
#859=AXIS2_PLACEMENT_3D('',#1273,#1058,#1059);
#860=DIRECTION('',(0.,0.,1.));
#861=DIRECTION('',(1.,0.,0.));
#862=DIRECTION('',(0.,1.,0.));
#863=DIRECTION('',(1.,0.,0.));
#864=DIRECTION('',(0.,1.,0.));
#865=DIRECTION('',(1.,0.,0.));
#866=DIRECTION('',(0.,1.,0.));
#867=DIRECTION('',(1.,0.,0.));
#868=DIRECTION('',(0.,1.,0.));
#869=DIRECTION('',(1.,0.,0.));
#870=DIRECTION('',(0.,0.,1.));
#871=DIRECTION('',(-0.707106781186548,0.,-0.707106781186548));
#872=DIRECTION('',(1.,0.,0.));
#873=DIRECTION('',(0.707106781186548,0.,-0.707106781186548));
#874=DIRECTION('',(0.,0.,-1.));
#875=DIRECTION('',(-0.707106781186548,0.,-0.707106781186547));
#876=DIRECTION('',(-1.,0.,0.));
#877=DIRECTION('',(0.,0.,-1.));
#878=DIRECTION('',(1.,0.,0.));
#879=DIRECTION('',(0.707106781186548,0.,-0.707106781186548));
#880=DIRECTION('',(0.,0.,1.));
#881=DIRECTION('',(1.,0.,0.));
#882=DIRECTION('',(0.,0.,1.));
#883=DIRECTION('',(-0.484122918275927,0.,-0.875));
#884=DIRECTION('',(0.968245836551854,0.,-0.25));
#885=DIRECTION('',(-0.968245836551854,0.,0.25));
#886=DIRECTION('',(0.,0.,-1.));
#887=DIRECTION('',(0.484122918275927,0.,0.875));
#888=DIRECTION('',(0.,0.,1.));
#889=DIRECTION('',(-0.484122918275927,0.,-0.875));
#890=DIRECTION('',(0.968245836551854,0.,-0.25));
#891=DIRECTION('',(-0.968245836551854,0.,0.25));
#892=DIRECTION('',(0.,0.,-1.));
#893=DIRECTION('',(0.484122918275927,0.,0.875));
#894=DIRECTION('',(0.,-1.,0.));
#895=DIRECTION('',(1.,0.,0.));
#896=DIRECTION('',(0.,-1.,0.));
#897=DIRECTION('',(-1.,0.,0.));
#898=DIRECTION('',(0.,-1.,0.));
#899=DIRECTION('',(-1.,0.,0.));
#900=DIRECTION('',(0.,-1.,0.));
#901=DIRECTION('',(-1.,0.,0.));
#902=DIRECTION('',(0.,-1.,0.));
#903=DIRECTION('',(-1.,0.,0.));
#904=DIRECTION('',(0.,-1.,0.));
#905=DIRECTION('',(-1.,0.,0.));
#906=DIRECTION('',(1.,0.,0.));
#907=DIRECTION('',(0.707106781186548,0.,0.707106781186548));
#908=DIRECTION('',(0.,0.,1.));
#909=DIRECTION('',(1.,0.,0.));
#910=DIRECTION('',(0.,0.,1.));
#911=DIRECTION('',(-0.707106781186548,0.,0.707106781186548));
#912=DIRECTION('',(1.,0.,0.));
#913=DIRECTION('',(0.707106781186545,0.,0.70710678118655));
#914=DIRECTION('',(0.,0.,1.));
#915=DIRECTION('',(-0.707106781186548,0.,0.707106781186547));
#916=DIRECTION('',(-1.,0.,0.));
#917=DIRECTION('',(-0.707106781186548,0.,-0.707106781186547));
#918=DIRECTION('',(0.,0.,-1.));
#919=DIRECTION('',(0.707106781186548,0.,-0.707106781186548));
#920=DIRECTION('',(0.968245836551854,0.,-0.25));
#921=DIRECTION('',(-0.484122918275927,0.,-0.875));
#922=DIRECTION('',(0.,0.,1.));
#923=DIRECTION('',(0.484122918275927,0.,0.875));
#924=DIRECTION('',(0.,0.,-1.));
#925=DIRECTION('',(-0.968245836551854,0.,0.25));
#926=DIRECTION('',(0.968245836551854,0.,-0.25));
#927=DIRECTION('',(-0.484122918275927,0.,-0.875));
#928=DIRECTION('',(0.,0.,1.));
#929=DIRECTION('',(0.484122918275927,0.,0.875));
#930=DIRECTION('',(0.,0.,-1.));
#931=DIRECTION('',(-0.968245836551854,0.,0.25));
#932=DIRECTION('',(0.,0.,-1.));
#933=DIRECTION('',(0.,1.,0.));
#934=DIRECTION('',(0.,-1.,0.));
#935=DIRECTION('',(0.,-1.,0.));
#936=DIRECTION('',(-0.70710678118655,0.,0.707106781186545));
#937=DIRECTION('',(0.707106781186545,0.,0.70710678118655));
#938=DIRECTION('',(0.,1.,0.));
#939=DIRECTION('',(0.,1.,0.));
#940=DIRECTION('',(0.707106781186545,0.,0.70710678118655));
#941=DIRECTION('',(-1.,0.,0.));
#942=DIRECTION('',(0.,1.,0.));
#943=DIRECTION('',(0.,1.,0.));
#944=DIRECTION('',(0.,0.,1.));
#945=DIRECTION('',(-0.707106781186547,0.,-0.707106781186548));
#946=DIRECTION('',(-0.707106781186548,0.,0.707106781186547));
#947=DIRECTION('',(0.,1.,0.));
#948=DIRECTION('',(-0.707106781186548,0.,0.707106781186547));
#949=DIRECTION('',(0.,1.,0.));
#950=DIRECTION('',(1.,0.,0.));
#951=DIRECTION('',(0.,-1.,0.));
#952=DIRECTION('',(-1.,0.,0.));
#953=DIRECTION('',(0.,-1.,0.));
#954=DIRECTION('',(-1.,0.,0.));
#955=DIRECTION('',(0.,1.,0.));
#956=DIRECTION('',(1.,0.,0.));
#957=DIRECTION('',(0.,-1.,0.));
#958=DIRECTION('',(-1.,0.,0.));
#959=DIRECTION('',(0.,-1.,0.));
#960=DIRECTION('',(-1.,0.,0.));
#961=DIRECTION('',(-1.,0.,0.));
#962=DIRECTION('',(0.,1.,0.));
#963=DIRECTION('',(0.,0.,-1.));
#964=DIRECTION('',(0.,-1.,0.));
#965=DIRECTION('',(0.,-1.,0.));
#966=DIRECTION('',(0.,0.,-1.));
#967=DIRECTION('',(0.,1.,0.));
#968=DIRECTION('',(0.,1.,0.));
#969=DIRECTION('',(1.,0.,0.));
#970=DIRECTION('',(-0.707106781186548,0.,-0.707106781186548));
#971=DIRECTION('',(-0.707106781186548,0.,0.707106781186548));
#972=DIRECTION('',(0.,-1.,0.));
#973=DIRECTION('',(-1.,0.,0.));
#974=DIRECTION('',(0.,1.,0.));
#975=DIRECTION('',(0.,-1.,0.));
#976=DIRECTION('',(-0.707106781186547,0.,0.707106781186548));
#977=DIRECTION('',(0.707106781186548,0.,0.707106781186547));
#978=DIRECTION('',(0.,-1.,0.));
#979=DIRECTION('',(0.,0.,1.));
#980=DIRECTION('',(0.,-1.,0.));
#981=DIRECTION('',(-1.,0.,0.));
#982=DIRECTION('',(0.,1.,0.));
#983=DIRECTION('',(1.,0.,0.));
#984=DIRECTION('',(0.,1.,0.));
#985=DIRECTION('',(1.,0.,0.));
#986=DIRECTION('',(0.,1.,0.));
#987=DIRECTION('',(1.,0.,0.));
#988=DIRECTION('',(0.,-1.,0.));
#989=DIRECTION('',(-1.,0.,0.));
#990=DIRECTION('',(0.,-1.,0.));
#991=DIRECTION('',(-1.,0.,0.));
#992=DIRECTION('',(0.,-1.,0.));
#993=DIRECTION('',(-1.,0.,0.));
#994=DIRECTION('',(1.,0.,0.));
#995=DIRECTION('',(0.,-1.,0.));
#996=DIRECTION('',(0.,-1.,0.));
#997=DIRECTION('',(0.,1.,0.));
#998=DIRECTION('',(1.,0.,0.));
#999=DIRECTION('',(0.,-1.,0.));
#1000=DIRECTION('',(0.,1.,0.));
#1001=DIRECTION('',(0.,1.,0.));
#1002=DIRECTION('',(0.,0.,1.));
#1003=DIRECTION('',(1.,0.,0.));
#1004=DIRECTION('',(0.,0.,1.));
#1005=DIRECTION('',(0.,-1.,0.));
#1006=DIRECTION('',(0.,0.,1.));
#1007=DIRECTION('',(0.,-1.,0.));
#1008=DIRECTION('',(0.,0.,1.));
#1009=DIRECTION('',(0.,-1.,0.));
#1010=DIRECTION('',(0.,0.,1.));
#1011=DIRECTION('',(0.,-1.,0.));
#1012=DIRECTION('',(0.,0.,1.));
#1013=DIRECTION('',(1.,0.,0.));
#1014=DIRECTION('',(0.,0.,1.));
#1015=DIRECTION('',(0.,-1.,0.));
#1016=DIRECTION('',(0.,0.,1.));
#1017=DIRECTION('',(0.,-1.,0.));
#1018=DIRECTION('',(0.,0.,1.));
#1019=DIRECTION('',(1.,0.,0.));
#1020=DIRECTION('',(0.707106781186548,0.,-0.707106781186548));
#1021=DIRECTION('',(0.,1.,0.));
#1022=DIRECTION('',(0.707106781186548,0.,0.707106781186548));
#1023=DIRECTION('',(0.,-1.,0.));
#1024=DIRECTION('',(0.875,0.,-0.484122918275927));
#1025=DIRECTION('',(-0.484122918275927,0.,-0.875));
#1026=DIRECTION('',(0.,1.,0.));
#1027=DIRECTION('',(0.,1.,0.));
#1028=DIRECTION('',(-1.,0.,0.));
#1029=DIRECTION('',(0.,1.,0.));
#1030=DIRECTION('',(0.,1.,0.));
#1031=DIRECTION('',(0.25,0.,0.968245836551854));
#1032=DIRECTION('',(0.968245836551854,0.,-0.25));
#1033=DIRECTION('',(1.,0.,0.));
#1034=DIRECTION('',(0.,-1.,0.));
#1035=DIRECTION('',(0.,1.,0.));
#1036=DIRECTION('',(0.,1.,0.));
#1037=DIRECTION('',(-0.25,0.,-0.968245836551854));
#1038=DIRECTION('',(-0.968245836551854,0.,0.25));
#1039=DIRECTION('',(0.,1.,0.));
#1040=DIRECTION('',(-0.875,0.,0.484122918275927));
#1041=DIRECTION('',(0.484122918275927,0.,0.875));
#1042=DIRECTION('',(0.875,0.,-0.484122918275927));
#1043=DIRECTION('',(-0.484122918275927,0.,-0.875));
#1044=DIRECTION('',(0.,1.,0.));
#1045=DIRECTION('',(0.,1.,0.));
#1046=DIRECTION('',(-1.,0.,0.));
#1047=DIRECTION('',(0.,1.,0.));
#1048=DIRECTION('',(0.,1.,0.));
#1049=DIRECTION('',(0.25,0.,0.968245836551854));
#1050=DIRECTION('',(0.968245836551854,0.,-0.25));
#1051=DIRECTION('',(1.,0.,0.));
#1052=DIRECTION('',(0.,-1.,0.));
#1053=DIRECTION('',(0.,1.,0.));
#1054=DIRECTION('',(0.,1.,0.));
#1055=DIRECTION('',(-0.25,0.,-0.968245836551854));
#1056=DIRECTION('',(-0.968245836551854,0.,0.25));
#1057=DIRECTION('',(0.,1.,0.));
#1058=DIRECTION('',(-0.875,0.,0.484122918275927));
#1059=DIRECTION('',(0.484122918275927,0.,0.875));
#1060=CARTESIAN_POINT('',(0.,0.,0.));
#1061=CARTESIAN_POINT('',(0.030538696047054,0.324506029657602,0.0185));
#1062=CARTESIAN_POINT('',(-0.141955178741093,0.324506029657602,0.0735));
#1063=CARTESIAN_POINT('',(-0.135955178741093,0.324506029657602,0.0735));
#1064=CARTESIAN_POINT('',(-0.141955178741093,0.324506029657602,-0.0365));
#1065=CARTESIAN_POINT('',(-0.135955178741093,0.324506029657602,-0.0365));
#1066=CARTESIAN_POINT('',(-0.141955178741093,0.324506029657602,0.0185));
#1067=CARTESIAN_POINT('',(-0.137955178741093,0.324506029657602,0.0185));
#1068=CARTESIAN_POINT('',(-0.138736132310247,0.324506029657602,0.0885));
#1069=CARTESIAN_POINT('',(-0.138736132310247,0.324506029657602,0.0885));
#1070=CARTESIAN_POINT('',(-0.138736132310247,0.324506029657602,0.0955));
#1071=CARTESIAN_POINT('',(-0.0925987181315965,0.324506029657602,0.14163741417865));
#1072=CARTESIAN_POINT('',(-0.135736132310247,0.324506029657602,0.0985));
#1073=CARTESIAN_POINT('',(-0.15164565552567,0.324506029657602,0.0985));
#1074=CARTESIAN_POINT('',(-0.128805178741093,0.324506029657602,0.0985));
#1075=CARTESIAN_POINT('',(-0.124805178741093,0.324506029657602,0.0945));
#1076=CARTESIAN_POINT('',(-0.120805178741093,0.324506029657602,0.0905));
#1077=CARTESIAN_POINT('',(-0.120805178741093,0.324506029657602,0.0185));
#1078=CARTESIAN_POINT('',(-0.120805178741093,0.324506029657602,-0.0535));
#1079=CARTESIAN_POINT('',(-0.124805178741093,0.324506029657602,-0.0575));
#1080=CARTESIAN_POINT('',(-0.128805178741093,0.324506029657602,-0.0615));
#1081=CARTESIAN_POINT('',(-0.15164565552567,0.324506029657602,-0.0615));
#1082=CARTESIAN_POINT('',(-0.162986132310247,0.324506029657602,-0.0615));
#1083=CARTESIAN_POINT('',(-0.162986132310247,0.324506029657602,0.0185));
#1084=CARTESIAN_POINT('',(-0.162986132310247,0.324506029657602,0.0985));
#1085=CARTESIAN_POINT('',(-0.15164565552567,0.324506029657602,0.0985));
#1086=CARTESIAN_POINT('',(-0.155736132310247,0.324506029657602,0.0985));
#1087=CARTESIAN_POINT('',(-0.0225987181315965,0.324506029657602,-0.0346374141786505));
#1088=CARTESIAN_POINT('',(-0.152736132310247,0.324506029657602,0.0955));
#1089=CARTESIAN_POINT('',(-0.152736132310247,0.324506029657602,0.0885));
#1090=CARTESIAN_POINT('',(-0.152736132310247,0.324506029657602,0.0885));
#1091=CARTESIAN_POINT('',(-0.15164565552567,0.324506029657602,0.0885));
#1092=CARTESIAN_POINT('',(-0.128805178741093,0.324506029657602,0.0435310268666772));
#1093=CARTESIAN_POINT('',(-0.128805178741093,0.324506029657602,0.0285310268666772));
#1094=CARTESIAN_POINT('',(-0.128805178741093,0.324506029657602,0.0585310268666772));
#1095=CARTESIAN_POINT('',(-0.136067022515232,0.324506029657602,0.0454060268666772));
#1096=CARTESIAN_POINT('',(-0.143328866289371,0.324506029657602,0.0322810268666772));
#1097=CARTESIAN_POINT('',(-0.136067022515232,0.324506029657602,0.0304060268666772));
#1098=CARTESIAN_POINT('',(-0.147553279428728,0.324506029657602,0.00748190266297076));
#1099=CARTESIAN_POINT('',(-0.140291435654589,0.324506029657602,0.00560690266297076));
#1100=CARTESIAN_POINT('',(-0.154815123202867,0.324506029657602,0.00935690266297077));
#1101=CARTESIAN_POINT('',(-0.154815123202867,0.324506029657602,-0.00564309733702924));
#1102=CARTESIAN_POINT('',(-0.154815123202867,0.324506029657602,-0.0206430973370292));
#1103=CARTESIAN_POINT('',(-0.147553279428728,0.324506029657602,-0.00751809733702922));
#1104=CARTESIAN_POINT('',(-0.128805178741093,0.324506029657602,-0.00564309733702923));
#1105=CARTESIAN_POINT('',(-0.128805178741093,0.324506029657602,-0.0206430973370292));
#1106=CARTESIAN_POINT('',(-0.128805178741093,0.324506029657602,0.00935690266297077));
#1107=CARTESIAN_POINT('',(-0.136067022515232,0.324506029657602,-0.00376809733702924));
#1108=CARTESIAN_POINT('',(-0.143328866289371,0.324506029657602,-0.0168930973370292));
#1109=CARTESIAN_POINT('',(-0.136067022515232,0.324506029657602,-0.0187680973370292));
#1110=CARTESIAN_POINT('',(-0.147553279428728,0.324506029657602,0.0566560268666772));
#1111=CARTESIAN_POINT('',(-0.140291435654589,0.324506029657602,0.0547810268666772));
#1112=CARTESIAN_POINT('',(-0.154815123202867,0.324506029657602,0.0585310268666772));
#1113=CARTESIAN_POINT('',(-0.154815123202867,0.324506029657602,0.0435310268666771));
#1114=CARTESIAN_POINT('',(-0.154815123202867,0.324506029657602,0.0285310268666772));
#1115=CARTESIAN_POINT('',(-0.147553279428728,0.324506029657602,0.0416560268666772));
#1116=CARTESIAN_POINT('',(0.040288696047054,0.304506029657602,0.0188810511188456));
#1117=CARTESIAN_POINT('',(-0.173139499088135,0.304506029657602,-0.03165));
#1118=CARTESIAN_POINT('',(-0.177639499088135,0.304506029657602,-0.03165));
#1119=CARTESIAN_POINT('',(-0.173139499088135,0.304506029657602,0.06835));
#1120=CARTESIAN_POINT('',(-0.177639499088135,0.304506029657602,0.06835));
#1121=CARTESIAN_POINT('',(-0.141955178741093,0.304506029657602,0.0185));
#1122=CARTESIAN_POINT('',(-0.145955178741093,0.304506029657602,0.0185));
#1123=CARTESIAN_POINT('',(-0.141955178741093,0.304506029657602,0.0735));
#1124=CARTESIAN_POINT('',(-0.147955178741093,0.304506029657602,0.0735));
#1125=CARTESIAN_POINT('',(-0.141955178741093,0.304506029657602,-0.0365));
#1126=CARTESIAN_POINT('',(-0.147955178741093,0.304506029657602,-0.0365));
#1127=CARTESIAN_POINT('',(-0.15164565552567,0.304506029657602,0.0985));
#1128=CARTESIAN_POINT('',(-0.135736132310247,0.304506029657602,0.0985));
#1129=CARTESIAN_POINT('',(-0.128805178741093,0.304506029657602,0.0985));
#1130=CARTESIAN_POINT('',(-0.0875331925721737,0.304506029657602,0.146702939738073));
#1131=CARTESIAN_POINT('',(-0.138736132310247,0.304506029657602,0.0955));
#1132=CARTESIAN_POINT('',(-0.138736132310247,0.304506029657602,0.0885));
#1133=CARTESIAN_POINT('',(-0.138736132310247,0.304506029657602,0.0885));
#1134=CARTESIAN_POINT('',(-0.15164565552567,0.304506029657602,0.0885));
#1135=CARTESIAN_POINT('',(-0.152736132310247,0.304506029657602,0.0885));
#1136=CARTESIAN_POINT('',(-0.152736132310247,0.304506029657602,0.0885));
#1137=CARTESIAN_POINT('',(-0.152736132310247,0.304506029657602,0.0955));
#1138=CARTESIAN_POINT('',(-0.0179142436910193,0.304506029657602,-0.0393218886192278));
#1139=CARTESIAN_POINT('',(-0.155736132310247,0.304506029657602,0.0985));
#1140=CARTESIAN_POINT('',(-0.15164565552567,0.304506029657602,0.0985));
#1141=CARTESIAN_POINT('',(-0.174486132310247,0.304506029657602,0.0985));
#1142=CARTESIAN_POINT('',(-0.178486132310247,0.304506029657602,0.0945));
#1143=CARTESIAN_POINT('',(-0.182486132310247,0.304506029657602,0.0905));
#1144=CARTESIAN_POINT('',(-0.182486132310247,0.304506029657602,0.0185));
#1145=CARTESIAN_POINT('',(-0.182486132310247,0.304506029657602,-0.0535));
#1146=CARTESIAN_POINT('',(-0.178486132310247,0.304506029657602,-0.0575));
#1147=CARTESIAN_POINT('',(-0.174486132310247,0.304506029657602,-0.0615));
#1148=CARTESIAN_POINT('',(-0.15164565552567,0.304506029657602,-0.0615));
#1149=CARTESIAN_POINT('',(-0.128805178741093,0.304506029657602,-0.0615));
#1150=CARTESIAN_POINT('',(-0.124805178741093,0.304506029657602,-0.0575));
#1151=CARTESIAN_POINT('',(-0.120805178741093,0.304506029657602,-0.0535));
#1152=CARTESIAN_POINT('',(-0.120805178741093,0.304506029657602,0.0185));
#1153=CARTESIAN_POINT('',(-0.120805178741093,0.304506029657602,0.0905));
#1154=CARTESIAN_POINT('',(-0.124805178741093,0.304506029657602,0.0945));
#1155=CARTESIAN_POINT('',(-0.136067022515232,0.304506029657602,0.0304060268666772));
#1156=CARTESIAN_POINT('',(-0.143328866289371,0.304506029657602,0.0322810268666772));
#1157=CARTESIAN_POINT('',(-0.128805178741093,0.304506029657602,0.0285310268666772));
#1158=CARTESIAN_POINT('',(-0.136067022515232,0.304506029657602,0.0454060268666772));
#1159=CARTESIAN_POINT('',(-0.128805178741093,0.304506029657602,0.0585310268666772));
#1160=CARTESIAN_POINT('',(-0.128805178741093,0.304506029657602,0.0435310268666772));
#1161=CARTESIAN_POINT('',(-0.147553279428728,0.304506029657602,-0.00751809733702922));
#1162=CARTESIAN_POINT('',(-0.154815123202867,0.304506029657602,-0.0206430973370292));
#1163=CARTESIAN_POINT('',(-0.140291435654589,0.304506029657602,0.00560690266297076));
#1164=CARTESIAN_POINT('',(-0.154815123202867,0.304506029657602,-0.00564309733702924));
#1165=CARTESIAN_POINT('',(-0.154815123202867,0.304506029657602,0.00935690266297077));
#1166=CARTESIAN_POINT('',(-0.147553279428728,0.304506029657602,0.00748190266297076));
#1167=CARTESIAN_POINT('',(-0.136067022515232,0.304506029657602,-0.0187680973370292));
#1168=CARTESIAN_POINT('',(-0.143328866289371,0.304506029657602,-0.0168930973370292));
#1169=CARTESIAN_POINT('',(-0.128805178741093,0.304506029657602,-0.0206430973370292));
#1170=CARTESIAN_POINT('',(-0.136067022515232,0.304506029657602,-0.00376809733702924));
#1171=CARTESIAN_POINT('',(-0.128805178741093,0.304506029657602,0.00935690266297077));
#1172=CARTESIAN_POINT('',(-0.128805178741093,0.304506029657602,-0.00564309733702923));
#1173=CARTESIAN_POINT('',(-0.147553279428728,0.304506029657602,0.0416560268666772));
#1174=CARTESIAN_POINT('',(-0.154815123202867,0.304506029657602,0.0285310268666772));
#1175=CARTESIAN_POINT('',(-0.140291435654589,0.304506029657602,0.0547810268666772));
#1176=CARTESIAN_POINT('',(-0.154815123202867,0.304506029657602,0.0435310268666771));
#1177=CARTESIAN_POINT('',(-0.154815123202867,0.304506029657602,0.0585310268666772));
#1178=CARTESIAN_POINT('',(-0.147553279428728,0.304506029657602,0.0566560268666772));
#1179=CARTESIAN_POINT('',(-0.15164565552567,0.317506029657602,0.0985));
#1180=CARTESIAN_POINT('',(-0.135736132310247,0.317506029657602,0.0985));
#1181=CARTESIAN_POINT('',(-0.128805178741093,0.317506029657602,0.0985));
#1182=CARTESIAN_POINT('',(-0.178486132310247,0.297506029657602,0.0945));
#1183=CARTESIAN_POINT('',(-0.182486132310247,0.297506029657602,0.0905));
#1184=CARTESIAN_POINT('',(-0.182486132310247,0.312506029657602,0.0905));
#1185=CARTESIAN_POINT('',(-0.174486132310247,0.297506029657602,0.0985));
#1186=CARTESIAN_POINT('',(-0.174486132310247,0.312506029657602,0.0985));
#1187=CARTESIAN_POINT('',(-0.178486132310247,0.312506029657602,0.0945));
#1188=CARTESIAN_POINT('',(-0.182486132310247,0.297506029657602,0.0185));
#1189=CARTESIAN_POINT('',(-0.182486132310247,0.297506029657602,-0.0535));
#1190=CARTESIAN_POINT('',(-0.182486132310247,0.312506029657602,-0.0535));
#1191=CARTESIAN_POINT('',(-0.182486132310247,0.312506029657602,0.0185));
#1192=CARTESIAN_POINT('',(-0.178486132310247,0.297506029657602,-0.0575));
#1193=CARTESIAN_POINT('',(-0.174486132310247,0.297506029657602,-0.0615));
#1194=CARTESIAN_POINT('',(-0.174486132310247,0.312506029657602,-0.0615));
#1195=CARTESIAN_POINT('',(-0.178486132310247,0.312506029657602,-0.0575));
#1196=CARTESIAN_POINT('',(-0.173139499088135,0.297506029657602,-0.03165));
#1197=CARTESIAN_POINT('',(-0.173139499088135,0.306506029657602,-0.03165));
#1198=CARTESIAN_POINT('',(-0.175639499088135,0.306506029657602,-0.03165));
#1199=CARTESIAN_POINT('',(-0.173139499088135,0.312506029657602,-0.03165));
#1200=CARTESIAN_POINT('',(-0.175639499088135,0.312506029657602,-0.03165));
#1201=CARTESIAN_POINT('',(-0.173139499088135,0.297506029657602,0.06835));
#1202=CARTESIAN_POINT('',(-0.173139499088135,0.306506029657602,0.06835));
#1203=CARTESIAN_POINT('',(-0.175639499088135,0.306506029657602,0.06835));
#1204=CARTESIAN_POINT('',(-0.173139499088135,0.312506029657602,0.06835));
#1205=CARTESIAN_POINT('',(-0.175639499088135,0.312506029657602,0.06835));
#1206=CARTESIAN_POINT('',(-0.162986132310247,0.317506029657602,0.0185));
#1207=CARTESIAN_POINT('',(-0.162986132310247,0.312506029657602,0.0185));
#1208=CARTESIAN_POINT('',(-0.162986132310247,0.312506029657602,0.0985));
#1209=CARTESIAN_POINT('',(-0.162986132310247,0.312506029657602,-0.0615));
#1210=CARTESIAN_POINT('',(-0.162986132310247,0.317506029657602,0.0985));
#1211=CARTESIAN_POINT('',(-0.162986132310247,0.317506029657602,-0.0615));
#1212=CARTESIAN_POINT('',(-0.15164565552567,0.317506029657602,0.0985));
#1213=CARTESIAN_POINT('',(-0.155736132310247,0.324506029657602,0.0985));
#1214=CARTESIAN_POINT('',(-0.15164565552567,0.312506029657602,0.0985));
#1215=CARTESIAN_POINT('',(-0.124805178741093,0.317506029657602,0.0945));
#1216=CARTESIAN_POINT('',(-0.120805178741093,0.317506029657602,0.0905));
#1217=CARTESIAN_POINT('',(-0.120805178741093,0.317506029657602,0.0185));
#1218=CARTESIAN_POINT('',(-0.120805178741093,0.317506029657602,-0.0535));
#1219=CARTESIAN_POINT('',(-0.124805178741093,0.317506029657602,-0.0575));
#1220=CARTESIAN_POINT('',(-0.128805178741093,0.317506029657602,-0.0615));
#1221=CARTESIAN_POINT('',(-0.15164565552567,0.317506029657602,-0.0615));
#1222=CARTESIAN_POINT('',(-0.15164565552567,0.312506029657602,-0.0615));
#1223=CARTESIAN_POINT('',(0.030538696047054,0.312506029657602,0.0185));
#1224=CARTESIAN_POINT('',(-0.141955178741093,0.297506029657602,-0.0365));
#1225=CARTESIAN_POINT('',(-0.141955178741093,0.297506029657602,0.0735));
#1226=CARTESIAN_POINT('',(-0.141955178741093,1.15537452636245,0.0185));
#1227=CARTESIAN_POINT('',(-0.173139499088135,0.306506029657602,-0.03165));
#1228=CARTESIAN_POINT('',(-0.173139499088135,0.306506029657602,0.06835));
#1229=CARTESIAN_POINT('',(-0.152736132310247,0.314506029657602,0.0885));
#1230=CARTESIAN_POINT('',(-0.152736132310247,0.304506029657602,0.0955));
#1231=CARTESIAN_POINT('',(-0.152736132310247,0.314506029657602,0.0885));
#1232=CARTESIAN_POINT('',(-0.138736132310247,0.314506029657602,0.0885));
#1233=CARTESIAN_POINT('',(-0.138736132310247,0.314506029657602,0.0955));
#1234=CARTESIAN_POINT('',(-0.138736132310247,0.314506029657602,0.0885));
#1235=CARTESIAN_POINT('',(-0.15164565552567,0.154453727770382,0.0885));
#1236=CARTESIAN_POINT('',(-0.142168285776939,0.30961365265112,0.0885));
#1237=CARTESIAN_POINT('',(-0.142168285776939,0.30851365265112,0.0885));
#1238=CARTESIAN_POINT('',(-0.149168285776939,0.30961365265112,0.0885));
#1239=CARTESIAN_POINT('',(-0.149168285776939,0.30851365265112,0.0885));
#1240=CARTESIAN_POINT('',(-0.149168285776939,0.30961365265112,0.0835));
#1241=CARTESIAN_POINT('',(-0.149168285776939,0.30961365265112,0.0835));
#1242=CARTESIAN_POINT('',(-0.149168285776939,0.30851365265112,0.0835));
#1243=CARTESIAN_POINT('',(-0.145736132310247,0.156099916273624,0.0835));
#1244=CARTESIAN_POINT('',(-0.142168285776939,0.30961365265112,0.0835));
#1245=CARTESIAN_POINT('',(-0.142168285776939,0.30961365265112,0.0835));
#1246=CARTESIAN_POINT('',(-0.142168285776939,0.30851365265112,0.0835));
#1247=CARTESIAN_POINT('',(-0.145736132310247,0.156099916273624,0.0835));
#1248=CARTESIAN_POINT('',(-0.138736132310247,0.314506029657602,0.0955));
#1249=CARTESIAN_POINT('',(-0.155736132310247,0.317506029657602,0.0985));
#1250=CARTESIAN_POINT('',(-0.136067022515232,0.304504029657602,0.0454060268666772));
#1251=CARTESIAN_POINT('',(-0.143328866289371,0.304504029657602,0.0322810268666772));
#1252=CARTESIAN_POINT('',(-0.128805178741093,0.304504029657602,0.0585310268666772));
#1253=CARTESIAN_POINT('',(-0.128805178741093,0.304504029657602,0.0435310268666772));
#1254=CARTESIAN_POINT('',(-0.128805178741093,0.304504029657602,0.0285310268666772));
#1255=CARTESIAN_POINT('',(-0.136067022515232,0.304504029657602,0.0304060268666772));
#1256=CARTESIAN_POINT('',(-0.154815123202867,0.304504029657602,-0.00564309733702924));
#1257=CARTESIAN_POINT('',(-0.154815123202867,0.304504029657602,-0.0206430973370292));
#1258=CARTESIAN_POINT('',(-0.154815123202867,0.304504029657602,0.00935690266297077));
#1259=CARTESIAN_POINT('',(-0.147553279428728,0.304504029657602,0.00748190266297076));
#1260=CARTESIAN_POINT('',(-0.140291435654589,0.304504029657602,0.00560690266297076));
#1261=CARTESIAN_POINT('',(-0.147553279428728,0.304504029657602,-0.00751809733702922));
#1262=CARTESIAN_POINT('',(-0.136067022515232,0.304504029657602,-0.00376809733702924));
#1263=CARTESIAN_POINT('',(-0.143328866289371,0.304504029657602,-0.0168930973370292));
#1264=CARTESIAN_POINT('',(-0.128805178741093,0.304504029657602,0.00935690266297077));
#1265=CARTESIAN_POINT('',(-0.128805178741093,0.304504029657602,-0.00564309733702923));
#1266=CARTESIAN_POINT('',(-0.128805178741093,0.304504029657602,-0.0206430973370292));
#1267=CARTESIAN_POINT('',(-0.136067022515232,0.304504029657602,-0.0187680973370292));
#1268=CARTESIAN_POINT('',(-0.154815123202867,0.304504029657602,0.0435310268666771));
#1269=CARTESIAN_POINT('',(-0.154815123202867,0.304504029657602,0.0285310268666772));
#1270=CARTESIAN_POINT('',(-0.154815123202867,0.304504029657602,0.0585310268666772));
#1271=CARTESIAN_POINT('',(-0.147553279428728,0.304504029657602,0.0566560268666772));
#1272=CARTESIAN_POINT('',(-0.140291435654589,0.304504029657602,0.0547810268666772));
#1273=CARTESIAN_POINT('',(-0.147553279428728,0.304504029657602,0.0416560268666772));
#1274=MECHANICAL_DESIGN_GEOMETRIC_PRESENTATION_REPRESENTATION('',(#791),
#1275);
#1275=(
GEOMETRIC_REPRESENTATION_CONTEXT(3)
GLOBAL_UNCERTAINTY_ASSIGNED_CONTEXT((#1276))
GLOBAL_UNIT_ASSIGNED_CONTEXT((#1279,#1278,#1277))
REPRESENTATION_CONTEXT('Z-TopMount','TOP_LEVEL_ASSEMBLY_PART')
);
#1276=UNCERTAINTY_MEASURE_WITH_UNIT(LENGTH_MEASURE(1.E-8),#1279,
'DISTANCE_ACCURACY_VALUE','Maximum Tolerance applied to model');
#1277=(
NAMED_UNIT(*)
SI_UNIT($,.STERADIAN.)
SOLID_ANGLE_UNIT()
);
#1278=(
NAMED_UNIT(*)
PLANE_ANGLE_UNIT()
SI_UNIT($,.RADIAN.)
);
#1279=(
LENGTH_UNIT()
NAMED_UNIT(*)
SI_UNIT($,.METRE.)
);
#1280=PRODUCT_DEFINITION_SHAPE('','',#1281);
#1281=PRODUCT_DEFINITION('','',#1283,#1282);
#1282=PRODUCT_DEFINITION_CONTEXT('',#1289,'design');
#1283=PRODUCT_DEFINITION_FORMATION_WITH_SPECIFIED_SOURCE('','',#1285,
 .NOT_KNOWN.);
#1284=PRODUCT_RELATED_PRODUCT_CATEGORY('','',(#1285));
#1285=PRODUCT('Z-TopMount','Z-TopMount','Z-TopMount',(#1287));
#1286=PRODUCT_CATEGORY('','');
#1287=PRODUCT_CONTEXT('',#1289,'mechanical');
#1288=APPLICATION_PROTOCOL_DEFINITION('international standard',
'ap242_managed_model_based_3d_engineering',2020,#1289);
#1289=APPLICATION_CONTEXT('managed model based 3d engineering');
ENDSEC;
END-ISO-10303-21;
