ISO-10303-21;
HEADER;
/* Generated by software containing ST-Developer
 * from STEP Tools, Inc. (www.steptools.com) 
 */
/* OPTION: using custom renumber hook */

FILE_DESCRIPTION(
/* description */ ('STEP AP242 Edition 2',
'CAx-IF Rec.Pracs.---Representation and Presentation of Product Manufa
cturing Information (PMI)---4.0---2014-10-13',
'CAx-IF Rec.Pracs.---3D Tessellated Geometry---0.4---2014-09-14','2;1',
'CAx-IF Rec.Pracs.---User Defined Attributes---1.5---2016-08-15'),
/* implementation_level */ '2;1');

FILE_NAME(
/* name */ 'NOT-618 - XY1_BOT',
/* time_stamp */ '2026-07-26T08:51:50Z',
/* author */ (''),
/* organization */ (''),
/* preprocessor_version */ 'ST-DEVELOPER v20',
/* originating_system */ 'ONSHAPE BY PTC INC, 1.218',
/* authorisation */ '  ');

FILE_SCHEMA (('AP242_MANAGED_MODEL_BASED_3D_ENGINEERING_MIM_LF { 1 0 10303 442 3 1 4 }'));
ENDSEC;

DATA;
#10=SHAPE_REPRESENTATION_RELATIONSHIP('','',#926,#11);
#11=ADVANCED_BREP_SHAPE_REPRESENTATION('',(#924),#1487);
#12=ELLIPSE('',#949,0.00954738184006485,0.0095);
#13=CYLINDRICAL_SURFACE('',#933,0.0025);
#14=CYLINDRICAL_SURFACE('',#940,0.0105);
#15=CYLINDRICAL_SURFACE('',#944,0.005);
#16=CYLINDRICAL_SURFACE('',#948,0.0095);
#17=CYLINDRICAL_SURFACE('',#974,0.0025);
#18=CYLINDRICAL_SURFACE('',#989,0.0016);
#19=CIRCLE('',#931,0.0095);
#20=CIRCLE('',#934,0.0025);
#21=CIRCLE('',#935,0.0025);
#22=CIRCLE('',#937,0.0105);
#23=CIRCLE('',#939,0.0105);
#24=CIRCLE('',#945,0.005);
#25=CIRCLE('',#946,0.005);
#26=CIRCLE('',#950,0.0095);
#27=CIRCLE('',#954,0.0025);
#28=CIRCLE('',#975,0.0025);
#29=CIRCLE('',#988,0.0016);
#30=CIRCLE('',#990,0.0016);
#31=ORIENTED_EDGE('',*,*,#277,.F.);
#32=ORIENTED_EDGE('',*,*,#278,.F.);
#33=ORIENTED_EDGE('',*,*,#279,.T.);
#34=ORIENTED_EDGE('',*,*,#280,.T.);
#35=ORIENTED_EDGE('',*,*,#281,.T.);
#36=ORIENTED_EDGE('',*,*,#282,.F.);
#37=ORIENTED_EDGE('',*,*,#283,.T.);
#38=ORIENTED_EDGE('',*,*,#284,.F.);
#39=ORIENTED_EDGE('',*,*,#278,.T.);
#40=ORIENTED_EDGE('',*,*,#285,.T.);
#41=ORIENTED_EDGE('',*,*,#286,.T.);
#42=ORIENTED_EDGE('',*,*,#287,.F.);
#43=ORIENTED_EDGE('',*,*,#282,.T.);
#44=ORIENTED_EDGE('',*,*,#288,.F.);
#45=ORIENTED_EDGE('',*,*,#289,.T.);
#46=ORIENTED_EDGE('',*,*,#290,.T.);
#47=ORIENTED_EDGE('',*,*,#291,.F.);
#48=ORIENTED_EDGE('',*,*,#292,.F.);
#49=ORIENTED_EDGE('',*,*,#293,.F.);
#50=ORIENTED_EDGE('',*,*,#294,.T.);
#51=ORIENTED_EDGE('',*,*,#295,.T.);
#52=ORIENTED_EDGE('',*,*,#296,.T.);
#53=ORIENTED_EDGE('',*,*,#297,.F.);
#54=ORIENTED_EDGE('',*,*,#298,.T.);
#55=ORIENTED_EDGE('',*,*,#299,.T.);
#56=ORIENTED_EDGE('',*,*,#300,.T.);
#57=ORIENTED_EDGE('',*,*,#301,.T.);
#58=ORIENTED_EDGE('',*,*,#302,.F.);
#59=ORIENTED_EDGE('',*,*,#303,.T.);
#60=ORIENTED_EDGE('',*,*,#304,.T.);
#61=ORIENTED_EDGE('',*,*,#305,.T.);
#62=ORIENTED_EDGE('',*,*,#306,.T.);
#63=ORIENTED_EDGE('',*,*,#307,.F.);
#64=ORIENTED_EDGE('',*,*,#299,.F.);
#65=ORIENTED_EDGE('',*,*,#308,.T.);
#66=ORIENTED_EDGE('',*,*,#309,.F.);
#67=ORIENTED_EDGE('',*,*,#310,.F.);
#68=ORIENTED_EDGE('',*,*,#311,.T.);
#69=ORIENTED_EDGE('',*,*,#312,.F.);
#70=ORIENTED_EDGE('',*,*,#313,.F.);
#71=ORIENTED_EDGE('',*,*,#314,.T.);
#72=ORIENTED_EDGE('',*,*,#289,.F.);
#73=ORIENTED_EDGE('',*,*,#315,.T.);
#74=ORIENTED_EDGE('',*,*,#316,.T.);
#75=ORIENTED_EDGE('',*,*,#317,.T.);
#76=ORIENTED_EDGE('',*,*,#318,.T.);
#77=ORIENTED_EDGE('',*,*,#319,.T.);
#78=ORIENTED_EDGE('',*,*,#320,.T.);
#79=ORIENTED_EDGE('',*,*,#321,.T.);
#80=ORIENTED_EDGE('',*,*,#322,.F.);
#81=ORIENTED_EDGE('',*,*,#309,.T.);
#82=ORIENTED_EDGE('',*,*,#323,.T.);
#83=ORIENTED_EDGE('',*,*,#324,.T.);
#84=ORIENTED_EDGE('',*,*,#325,.F.);
#85=ORIENTED_EDGE('',*,*,#326,.T.);
#86=ORIENTED_EDGE('',*,*,#327,.T.);
#87=ORIENTED_EDGE('',*,*,#328,.T.);
#88=ORIENTED_EDGE('',*,*,#329,.T.);
#89=ORIENTED_EDGE('',*,*,#330,.T.);
#90=ORIENTED_EDGE('',*,*,#331,.T.);
#91=ORIENTED_EDGE('',*,*,#291,.T.);
#92=ORIENTED_EDGE('',*,*,#290,.F.);
#93=ORIENTED_EDGE('',*,*,#314,.F.);
#94=ORIENTED_EDGE('',*,*,#332,.T.);
#95=ORIENTED_EDGE('',*,*,#325,.T.);
#96=ORIENTED_EDGE('',*,*,#327,.F.);
#97=ORIENTED_EDGE('',*,*,#333,.T.);
#98=ORIENTED_EDGE('',*,*,#305,.F.);
#99=ORIENTED_EDGE('',*,*,#334,.F.);
#100=ORIENTED_EDGE('',*,*,#279,.F.);
#101=ORIENTED_EDGE('',*,*,#292,.T.);
#102=ORIENTED_EDGE('',*,*,#331,.F.);
#103=ORIENTED_EDGE('',*,*,#335,.T.);
#104=ORIENTED_EDGE('',*,*,#315,.F.);
#105=ORIENTED_EDGE('',*,*,#288,.T.);
#106=ORIENTED_EDGE('',*,*,#281,.F.);
#107=ORIENTED_EDGE('',*,*,#336,.T.);
#108=ORIENTED_EDGE('',*,*,#337,.F.);
#109=ORIENTED_EDGE('',*,*,#338,.F.);
#110=ORIENTED_EDGE('',*,*,#339,.F.);
#111=ORIENTED_EDGE('',*,*,#340,.F.);
#112=ORIENTED_EDGE('',*,*,#341,.T.);
#113=ORIENTED_EDGE('',*,*,#342,.T.);
#114=ORIENTED_EDGE('',*,*,#343,.T.);
#115=ORIENTED_EDGE('',*,*,#344,.T.);
#116=ORIENTED_EDGE('',*,*,#345,.T.);
#117=ORIENTED_EDGE('',*,*,#346,.T.);
#118=ORIENTED_EDGE('',*,*,#307,.T.);
#119=ORIENTED_EDGE('',*,*,#347,.T.);
#120=ORIENTED_EDGE('',*,*,#348,.T.);
#121=ORIENTED_EDGE('',*,*,#349,.T.);
#122=ORIENTED_EDGE('',*,*,#346,.F.);
#123=ORIENTED_EDGE('',*,*,#350,.T.);
#124=ORIENTED_EDGE('',*,*,#351,.T.);
#125=ORIENTED_EDGE('',*,*,#349,.F.);
#126=ORIENTED_EDGE('',*,*,#352,.T.);
#127=ORIENTED_EDGE('',*,*,#280,.F.);
#128=ORIENTED_EDGE('',*,*,#353,.T.);
#129=ORIENTED_EDGE('',*,*,#350,.F.);
#130=ORIENTED_EDGE('',*,*,#345,.F.);
#131=ORIENTED_EDGE('',*,*,#354,.T.);
#132=ORIENTED_EDGE('',*,*,#320,.F.);
#133=ORIENTED_EDGE('',*,*,#355,.T.);
#134=ORIENTED_EDGE('',*,*,#302,.T.);
#135=ORIENTED_EDGE('',*,*,#356,.T.);
#136=ORIENTED_EDGE('',*,*,#357,.T.);
#137=ORIENTED_EDGE('',*,*,#338,.T.);
#138=ORIENTED_EDGE('',*,*,#358,.F.);
#139=ORIENTED_EDGE('',*,*,#359,.T.);
#140=ORIENTED_EDGE('',*,*,#360,.F.);
#141=ORIENTED_EDGE('',*,*,#361,.T.);
#142=ORIENTED_EDGE('',*,*,#358,.T.);
#143=ORIENTED_EDGE('',*,*,#337,.T.);
#144=ORIENTED_EDGE('',*,*,#357,.F.);
#145=ORIENTED_EDGE('',*,*,#362,.T.);
#146=ORIENTED_EDGE('',*,*,#363,.F.);
#147=ORIENTED_EDGE('',*,*,#339,.T.);
#148=ORIENTED_EDGE('',*,*,#311,.F.);
#149=ORIENTED_EDGE('',*,*,#300,.F.);
#150=ORIENTED_EDGE('',*,*,#310,.T.);
#151=ORIENTED_EDGE('',*,*,#322,.T.);
#152=ORIENTED_EDGE('',*,*,#364,.T.);
#153=ORIENTED_EDGE('',*,*,#360,.T.);
#154=ORIENTED_EDGE('',*,*,#340,.T.);
#155=ORIENTED_EDGE('',*,*,#363,.T.);
#156=ORIENTED_EDGE('',*,*,#365,.T.);
#157=ORIENTED_EDGE('',*,*,#356,.F.);
#158=ORIENTED_EDGE('',*,*,#301,.F.);
#159=ORIENTED_EDGE('',*,*,#365,.F.);
#160=ORIENTED_EDGE('',*,*,#362,.F.);
#161=ORIENTED_EDGE('',*,*,#359,.F.);
#162=ORIENTED_EDGE('',*,*,#361,.F.);
#163=ORIENTED_EDGE('',*,*,#364,.F.);
#164=ORIENTED_EDGE('',*,*,#321,.F.);
#165=ORIENTED_EDGE('',*,*,#366,.F.);
#166=ORIENTED_EDGE('',*,*,#334,.T.);
#167=ORIENTED_EDGE('',*,*,#367,.F.);
#168=ORIENTED_EDGE('',*,*,#355,.F.);
#169=ORIENTED_EDGE('',*,*,#319,.F.);
#170=ORIENTED_EDGE('',*,*,#368,.F.);
#171=ORIENTED_EDGE('',*,*,#303,.F.);
#172=ORIENTED_EDGE('',*,*,#367,.T.);
#173=ORIENTED_EDGE('',*,*,#304,.F.);
#174=ORIENTED_EDGE('',*,*,#369,.F.);
#175=ORIENTED_EDGE('',*,*,#344,.F.);
#176=ORIENTED_EDGE('',*,*,#366,.T.);
#177=ORIENTED_EDGE('',*,*,#343,.F.);
#178=ORIENTED_EDGE('',*,*,#370,.F.);
#179=ORIENTED_EDGE('',*,*,#328,.F.);
#180=ORIENTED_EDGE('',*,*,#369,.T.);
#181=ORIENTED_EDGE('',*,*,#368,.T.);
#182=ORIENTED_EDGE('',*,*,#371,.F.);
#183=ORIENTED_EDGE('',*,*,#372,.F.);
#184=ORIENTED_EDGE('',*,*,#370,.T.);
#185=ORIENTED_EDGE('',*,*,#373,.F.);
#186=ORIENTED_EDGE('',*,*,#371,.T.);
#187=ORIENTED_EDGE('',*,*,#318,.F.);
#188=ORIENTED_EDGE('',*,*,#374,.F.);
#189=ORIENTED_EDGE('',*,*,#341,.F.);
#190=ORIENTED_EDGE('',*,*,#373,.T.);
#191=ORIENTED_EDGE('',*,*,#342,.F.);
#192=ORIENTED_EDGE('',*,*,#375,.F.);
#193=ORIENTED_EDGE('',*,*,#347,.F.);
#194=ORIENTED_EDGE('',*,*,#372,.T.);
#195=ORIENTED_EDGE('',*,*,#351,.F.);
#196=ORIENTED_EDGE('',*,*,#376,.F.);
#197=ORIENTED_EDGE('',*,*,#329,.F.);
#198=ORIENTED_EDGE('',*,*,#375,.T.);
#199=ORIENTED_EDGE('',*,*,#374,.T.);
#200=ORIENTED_EDGE('',*,*,#377,.F.);
#201=ORIENTED_EDGE('',*,*,#376,.T.);
#202=ORIENTED_EDGE('',*,*,#353,.F.);
#203=ORIENTED_EDGE('',*,*,#335,.F.);
#204=ORIENTED_EDGE('',*,*,#330,.F.);
#205=ORIENTED_EDGE('',*,*,#377,.T.);
#206=ORIENTED_EDGE('',*,*,#317,.F.);
#207=ORIENTED_EDGE('',*,*,#378,.F.);
#208=ORIENTED_EDGE('',*,*,#348,.F.);
#209=ORIENTED_EDGE('',*,*,#378,.T.);
#210=ORIENTED_EDGE('',*,*,#316,.F.);
#211=ORIENTED_EDGE('',*,*,#336,.F.);
#212=ORIENTED_EDGE('',*,*,#352,.F.);
#213=ORIENTED_EDGE('',*,*,#332,.F.);
#214=ORIENTED_EDGE('',*,*,#313,.T.);
#215=ORIENTED_EDGE('',*,*,#379,.F.);
#216=ORIENTED_EDGE('',*,*,#380,.F.);
#217=ORIENTED_EDGE('',*,*,#296,.F.);
#218=ORIENTED_EDGE('',*,*,#381,.T.);
#219=ORIENTED_EDGE('',*,*,#382,.T.);
#220=ORIENTED_EDGE('',*,*,#383,.F.);
#221=ORIENTED_EDGE('',*,*,#306,.F.);
#222=ORIENTED_EDGE('',*,*,#333,.F.);
#223=ORIENTED_EDGE('',*,*,#326,.F.);
#224=ORIENTED_EDGE('',*,*,#384,.F.);
#225=ORIENTED_EDGE('',*,*,#354,.F.);
#226=ORIENTED_EDGE('',*,*,#384,.T.);
#227=ORIENTED_EDGE('',*,*,#298,.F.);
#228=ORIENTED_EDGE('',*,*,#385,.T.);
#229=ORIENTED_EDGE('',*,*,#386,.T.);
#230=ORIENTED_EDGE('',*,*,#323,.F.);
#231=ORIENTED_EDGE('',*,*,#308,.F.);
#232=ORIENTED_EDGE('',*,*,#312,.T.);
#233=ORIENTED_EDGE('',*,*,#380,.T.);
#234=ORIENTED_EDGE('',*,*,#387,.F.);
#235=ORIENTED_EDGE('',*,*,#385,.F.);
#236=ORIENTED_EDGE('',*,*,#297,.T.);
#237=ORIENTED_EDGE('',*,*,#379,.T.);
#238=ORIENTED_EDGE('',*,*,#324,.F.);
#239=ORIENTED_EDGE('',*,*,#386,.F.);
#240=ORIENTED_EDGE('',*,*,#387,.T.);
#241=ORIENTED_EDGE('',*,*,#284,.T.);
#242=ORIENTED_EDGE('',*,*,#388,.T.);
#243=ORIENTED_EDGE('',*,*,#389,.F.);
#244=ORIENTED_EDGE('',*,*,#390,.F.);
#245=ORIENTED_EDGE('',*,*,#277,.T.);
#246=ORIENTED_EDGE('',*,*,#390,.T.);
#247=ORIENTED_EDGE('',*,*,#391,.F.);
#248=ORIENTED_EDGE('',*,*,#285,.F.);
#249=ORIENTED_EDGE('',*,*,#287,.T.);
#250=ORIENTED_EDGE('',*,*,#392,.T.);
#251=ORIENTED_EDGE('',*,*,#388,.F.);
#252=ORIENTED_EDGE('',*,*,#283,.F.);
#253=ORIENTED_EDGE('',*,*,#391,.T.);
#254=ORIENTED_EDGE('',*,*,#389,.T.);
#255=ORIENTED_EDGE('',*,*,#392,.F.);
#256=ORIENTED_EDGE('',*,*,#286,.F.);
#257=ORIENTED_EDGE('',*,*,#293,.T.);
#258=ORIENTED_EDGE('',*,*,#383,.T.);
#259=ORIENTED_EDGE('',*,*,#393,.T.);
#260=ORIENTED_EDGE('',*,*,#394,.F.);
#261=ORIENTED_EDGE('',*,*,#395,.T.);
#262=ORIENTED_EDGE('',*,*,#396,.F.);
#263=ORIENTED_EDGE('',*,*,#381,.F.);
#264=ORIENTED_EDGE('',*,*,#295,.F.);
#265=ORIENTED_EDGE('',*,*,#394,.T.);
#266=ORIENTED_EDGE('',*,*,#397,.F.);
#267=ORIENTED_EDGE('',*,*,#395,.F.);
#268=ORIENTED_EDGE('',*,*,#294,.F.);
#269=ORIENTED_EDGE('',*,*,#398,.T.);
#270=ORIENTED_EDGE('',*,*,#396,.T.);
#271=ORIENTED_EDGE('',*,*,#397,.T.);
#272=ORIENTED_EDGE('',*,*,#393,.F.);
#273=ORIENTED_EDGE('',*,*,#382,.F.);
#274=ORIENTED_EDGE('',*,*,#398,.F.);
#275=ORIENTED_EDGE('',*,*,#399,.F.);
#276=ORIENTED_EDGE('',*,*,#399,.T.);
#277=EDGE_CURVE('',#400,#401,#479,.T.);
#278=EDGE_CURVE('',#402,#400,#480,.T.);
#279=EDGE_CURVE('',#402,#403,#481,.T.);
#280=EDGE_CURVE('',#403,#404,#482,.T.);
#281=EDGE_CURVE('',#404,#405,#483,.T.);
#282=EDGE_CURVE('',#406,#405,#484,.T.);
#283=EDGE_CURVE('',#406,#407,#485,.T.);
#284=EDGE_CURVE('',#401,#407,#486,.T.);
#285=EDGE_CURVE('',#400,#408,#487,.T.);
#286=EDGE_CURVE('',#408,#409,#488,.T.);
#287=EDGE_CURVE('',#406,#409,#489,.T.);
#288=EDGE_CURVE('',#410,#405,#490,.F.);
#289=EDGE_CURVE('',#410,#411,#491,.T.);
#290=EDGE_CURVE('',#411,#412,#492,.T.);
#291=EDGE_CURVE('',#413,#412,#493,.T.);
#292=EDGE_CURVE('',#402,#413,#494,.T.);
#293=EDGE_CURVE('',#414,#415,#495,.T.);
#294=EDGE_CURVE('',#414,#416,#496,.T.);
#295=EDGE_CURVE('',#416,#417,#497,.T.);
#296=EDGE_CURVE('',#417,#418,#498,.T.);
#297=EDGE_CURVE('',#419,#418,#499,.T.);
#298=EDGE_CURVE('',#419,#420,#500,.T.);
#299=EDGE_CURVE('',#420,#421,#501,.T.);
#300=EDGE_CURVE('',#421,#422,#502,.T.);
#301=EDGE_CURVE('',#422,#423,#503,.T.);
#302=EDGE_CURVE('',#424,#423,#504,.T.);
#303=EDGE_CURVE('',#424,#425,#505,.T.);
#304=EDGE_CURVE('',#425,#426,#506,.T.);
#305=EDGE_CURVE('',#426,#427,#507,.T.);
#306=EDGE_CURVE('',#427,#415,#508,.T.);
#307=EDGE_CURVE('',#428,#428,#19,.T.);
#308=EDGE_CURVE('',#420,#429,#509,.T.);
#309=EDGE_CURVE('',#430,#429,#510,.T.);
#310=EDGE_CURVE('',#421,#430,#511,.T.);
#311=EDGE_CURVE('',#431,#431,#20,.T.);
#312=EDGE_CURVE('',#432,#432,#21,.F.);
#313=EDGE_CURVE('',#433,#434,#512,.T.);
#314=EDGE_CURVE('',#433,#411,#22,.T.);
#315=EDGE_CURVE('',#410,#435,#513,.T.);
#316=EDGE_CURVE('',#435,#436,#514,.T.);
#317=EDGE_CURVE('',#436,#437,#515,.T.);
#318=EDGE_CURVE('',#437,#438,#516,.T.);
#319=EDGE_CURVE('',#438,#439,#517,.T.);
#320=EDGE_CURVE('',#439,#440,#518,.T.);
#321=EDGE_CURVE('',#440,#441,#519,.T.);
#322=EDGE_CURVE('',#430,#441,#520,.T.);
#323=EDGE_CURVE('',#429,#442,#521,.T.);
#324=EDGE_CURVE('',#442,#434,#522,.T.);
#325=EDGE_CURVE('',#443,#412,#23,.T.);
#326=EDGE_CURVE('',#443,#444,#523,.T.);
#327=EDGE_CURVE('',#444,#445,#524,.T.);
#328=EDGE_CURVE('',#445,#446,#525,.T.);
#329=EDGE_CURVE('',#446,#447,#526,.T.);
#330=EDGE_CURVE('',#447,#448,#527,.T.);
#331=EDGE_CURVE('',#448,#413,#528,.T.);
#332=EDGE_CURVE('',#433,#443,#529,.T.);
#333=EDGE_CURVE('',#444,#427,#530,.F.);
#334=EDGE_CURVE('',#445,#426,#531,.F.);
#335=EDGE_CURVE('',#448,#403,#532,.T.);
#336=EDGE_CURVE('',#404,#435,#533,.T.);
#337=EDGE_CURVE('',#449,#450,#534,.T.);
#338=EDGE_CURVE('',#451,#449,#24,.F.);
#339=EDGE_CURVE('',#452,#451,#535,.F.);
#340=EDGE_CURVE('',#450,#452,#25,.T.);
#341=EDGE_CURVE('',#453,#454,#536,.T.);
#342=EDGE_CURVE('',#454,#455,#537,.T.);
#343=EDGE_CURVE('',#455,#456,#538,.T.);
#344=EDGE_CURVE('',#456,#453,#539,.T.);
#345=EDGE_CURVE('',#457,#458,#12,.F.);
#346=EDGE_CURVE('',#458,#457,#26,.F.);
#347=EDGE_CURVE('',#459,#460,#540,.T.);
#348=EDGE_CURVE('',#460,#461,#541,.T.);
#349=EDGE_CURVE('',#461,#457,#542,.T.);
#350=EDGE_CURVE('',#458,#462,#543,.T.);
#351=EDGE_CURVE('',#462,#459,#544,.T.);
#352=EDGE_CURVE('',#461,#404,#545,.F.);
#353=EDGE_CURVE('',#403,#462,#546,.F.);
#354=EDGE_CURVE('',#463,#463,#27,.T.);
#355=EDGE_CURVE('',#439,#424,#547,.T.);
#356=EDGE_CURVE('',#423,#464,#548,.T.);
#357=EDGE_CURVE('',#464,#451,#549,.T.);
#358=EDGE_CURVE('',#465,#449,#550,.T.);
#359=EDGE_CURVE('',#465,#440,#551,.F.);
#360=EDGE_CURVE('',#466,#450,#552,.T.);
#361=EDGE_CURVE('',#466,#465,#553,.T.);
#362=EDGE_CURVE('',#464,#467,#554,.T.);
#363=EDGE_CURVE('',#452,#467,#555,.T.);
#364=EDGE_CURVE('',#441,#466,#556,.F.);
#365=EDGE_CURVE('',#467,#422,#557,.T.);
#366=EDGE_CURVE('',#445,#456,#558,.F.);
#367=EDGE_CURVE('',#456,#426,#559,.F.);
#368=EDGE_CURVE('',#425,#438,#560,.T.);
#369=EDGE_CURVE('',#453,#425,#561,.T.);
#370=EDGE_CURVE('',#446,#455,#562,.T.);
#371=EDGE_CURVE('',#453,#438,#563,.T.);
#372=EDGE_CURVE('',#446,#459,#564,.F.);
#373=EDGE_CURVE('',#459,#455,#565,.T.);
#374=EDGE_CURVE('',#454,#437,#566,.F.);
#375=EDGE_CURVE('',#460,#454,#567,.F.);
#376=EDGE_CURVE('',#447,#462,#568,.T.);
#377=EDGE_CURVE('',#460,#437,#569,.T.);
#378=EDGE_CURVE('',#461,#436,#570,.T.);
#379=EDGE_CURVE('',#468,#434,#571,.T.);
#380=EDGE_CURVE('',#418,#468,#572,.T.);
#381=EDGE_CURVE('',#417,#469,#573,.T.);
#382=EDGE_CURVE('',#469,#470,#574,.T.);
#383=EDGE_CURVE('',#415,#470,#575,.T.);
#384=EDGE_CURVE('',#471,#471,#28,.T.);
#385=EDGE_CURVE('',#419,#472,#576,.T.);
#386=EDGE_CURVE('',#472,#442,#577,.T.);
#387=EDGE_CURVE('',#472,#468,#578,.T.);
#388=EDGE_CURVE('',#407,#473,#579,.T.);
#389=EDGE_CURVE('',#474,#473,#580,.T.);
#390=EDGE_CURVE('',#401,#474,#581,.T.);
#391=EDGE_CURVE('',#408,#474,#582,.T.);
#392=EDGE_CURVE('',#409,#473,#583,.T.);
#393=EDGE_CURVE('',#470,#475,#584,.T.);
#394=EDGE_CURVE('',#414,#475,#585,.T.);
#395=EDGE_CURVE('',#416,#476,#586,.T.);
#396=EDGE_CURVE('',#469,#476,#587,.T.);
#397=EDGE_CURVE('',#476,#475,#588,.T.);
#398=EDGE_CURVE('',#477,#477,#29,.F.);
#399=EDGE_CURVE('',#478,#478,#30,.T.);
#400=VERTEX_POINT('',#1235);
#401=VERTEX_POINT('',#1236);
#402=VERTEX_POINT('',#1238);
#403=VERTEX_POINT('',#1240);
#404=VERTEX_POINT('',#1242);
#405=VERTEX_POINT('',#1244);
#406=VERTEX_POINT('',#1246);
#407=VERTEX_POINT('',#1248);
#408=VERTEX_POINT('',#1252);
#409=VERTEX_POINT('',#1254);
#410=VERTEX_POINT('',#1257);
#411=VERTEX_POINT('',#1259);
#412=VERTEX_POINT('',#1261);
#413=VERTEX_POINT('',#1263);
#414=VERTEX_POINT('',#1267);
#415=VERTEX_POINT('',#1268);
#416=VERTEX_POINT('',#1270);
#417=VERTEX_POINT('',#1272);
#418=VERTEX_POINT('',#1274);
#419=VERTEX_POINT('',#1276);
#420=VERTEX_POINT('',#1278);
#421=VERTEX_POINT('',#1280);
#422=VERTEX_POINT('',#1282);
#423=VERTEX_POINT('',#1284);
#424=VERTEX_POINT('',#1286);
#425=VERTEX_POINT('',#1288);
#426=VERTEX_POINT('',#1290);
#427=VERTEX_POINT('',#1292);
#428=VERTEX_POINT('',#1295);
#429=VERTEX_POINT('',#1298);
#430=VERTEX_POINT('',#1300);
#431=VERTEX_POINT('',#1304);
#432=VERTEX_POINT('',#1306);
#433=VERTEX_POINT('',#1309);
#434=VERTEX_POINT('',#1310);
#435=VERTEX_POINT('',#1313);
#436=VERTEX_POINT('',#1315);
#437=VERTEX_POINT('',#1317);
#438=VERTEX_POINT('',#1319);
#439=VERTEX_POINT('',#1321);
#440=VERTEX_POINT('',#1323);
#441=VERTEX_POINT('',#1325);
#442=VERTEX_POINT('',#1328);
#443=VERTEX_POINT('',#1332);
#444=VERTEX_POINT('',#1334);
#445=VERTEX_POINT('',#1336);
#446=VERTEX_POINT('',#1338);
#447=VERTEX_POINT('',#1340);
#448=VERTEX_POINT('',#1342);
#449=VERTEX_POINT('',#1355);
#450=VERTEX_POINT('',#1356);
#451=VERTEX_POINT('',#1358);
#452=VERTEX_POINT('',#1360);
#453=VERTEX_POINT('',#1364);
#454=VERTEX_POINT('',#1365);
#455=VERTEX_POINT('',#1367);
#456=VERTEX_POINT('',#1369);
#457=VERTEX_POINT('',#1373);
#458=VERTEX_POINT('',#1374);
#459=VERTEX_POINT('',#1378);
#460=VERTEX_POINT('',#1379);
#461=VERTEX_POINT('',#1381);
#462=VERTEX_POINT('',#1384);
#463=VERTEX_POINT('',#1391);
#464=VERTEX_POINT('',#1394);
#465=VERTEX_POINT('',#1397);
#466=VERTEX_POINT('',#1401);
#467=VERTEX_POINT('',#1405);
#468=VERTEX_POINT('',#1440);
#469=VERTEX_POINT('',#1443);
#470=VERTEX_POINT('',#1445);
#471=VERTEX_POINT('',#1449);
#472=VERTEX_POINT('',#1453);
#473=VERTEX_POINT('',#1460);
#474=VERTEX_POINT('',#1462);
#475=VERTEX_POINT('',#1471);
#476=VERTEX_POINT('',#1475);
#477=VERTEX_POINT('',#1481);
#478=VERTEX_POINT('',#1484);
#479=LINE('',#1234,#589);
#480=LINE('',#1237,#590);
#481=LINE('',#1239,#591);
#482=LINE('',#1241,#592);
#483=LINE('',#1243,#593);
#484=LINE('',#1245,#594);
#485=LINE('',#1247,#595);
#486=LINE('',#1249,#596);
#487=LINE('',#1251,#597);
#488=LINE('',#1253,#598);
#489=LINE('',#1255,#599);
#490=LINE('',#1256,#600);
#491=LINE('',#1258,#601);
#492=LINE('',#1260,#602);
#493=LINE('',#1262,#603);
#494=LINE('',#1264,#604);
#495=LINE('',#1266,#605);
#496=LINE('',#1269,#606);
#497=LINE('',#1271,#607);
#498=LINE('',#1273,#608);
#499=LINE('',#1275,#609);
#500=LINE('',#1277,#610);
#501=LINE('',#1279,#611);
#502=LINE('',#1281,#612);
#503=LINE('',#1283,#613);
#504=LINE('',#1285,#614);
#505=LINE('',#1287,#615);
#506=LINE('',#1289,#616);
#507=LINE('',#1291,#617);
#508=LINE('',#1293,#618);
#509=LINE('',#1297,#619);
#510=LINE('',#1299,#620);
#511=LINE('',#1301,#621);
#512=LINE('',#1308,#622);
#513=LINE('',#1312,#623);
#514=LINE('',#1314,#624);
#515=LINE('',#1316,#625);
#516=LINE('',#1318,#626);
#517=LINE('',#1320,#627);
#518=LINE('',#1322,#628);
#519=LINE('',#1324,#629);
#520=LINE('',#1326,#630);
#521=LINE('',#1327,#631);
#522=LINE('',#1329,#632);
#523=LINE('',#1333,#633);
#524=LINE('',#1335,#634);
#525=LINE('',#1337,#635);
#526=LINE('',#1339,#636);
#527=LINE('',#1341,#637);
#528=LINE('',#1343,#638);
#529=LINE('',#1345,#639);
#530=LINE('',#1347,#640);
#531=LINE('',#1348,#641);
#532=LINE('',#1350,#642);
#533=LINE('',#1352,#643);
#534=LINE('',#1354,#644);
#535=LINE('',#1359,#645);
#536=LINE('',#1363,#646);
#537=LINE('',#1366,#647);
#538=LINE('',#1368,#648);
#539=LINE('',#1370,#649);
#540=LINE('',#1377,#650);
#541=LINE('',#1380,#651);
#542=LINE('',#1382,#652);
#543=LINE('',#1383,#653);
#544=LINE('',#1385,#654);
#545=LINE('',#1387,#655);
#546=LINE('',#1388,#656);
#547=LINE('',#1392,#657);
#548=LINE('',#1393,#658);
#549=LINE('',#1395,#659);
#550=LINE('',#1396,#660);
#551=LINE('',#1398,#661);
#552=LINE('',#1400,#662);
#553=LINE('',#1402,#663);
#554=LINE('',#1404,#664);
#555=LINE('',#1406,#665);
#556=LINE('',#1408,#666);
#557=LINE('',#1409,#667);
#558=LINE('',#1413,#668);
#559=LINE('',#1414,#669);
#560=LINE('',#1416,#670);
#561=LINE('',#1418,#671);
#562=LINE('',#1420,#672);
#563=LINE('',#1422,#673);
#564=LINE('',#1424,#674);
#565=LINE('',#1425,#675);
#566=LINE('',#1427,#676);
#567=LINE('',#1429,#677);
#568=LINE('',#1431,#678);
#569=LINE('',#1433,#679);
#570=LINE('',#1436,#680);
#571=LINE('',#1439,#681);
#572=LINE('',#1441,#682);
#573=LINE('',#1442,#683);
#574=LINE('',#1444,#684);
#575=LINE('',#1446,#685);
#576=LINE('',#1452,#686);
#577=LINE('',#1454,#687);
#578=LINE('',#1456,#688);
#579=LINE('',#1459,#689);
#580=LINE('',#1461,#690);
#581=LINE('',#1463,#691);
#582=LINE('',#1465,#692);
#583=LINE('',#1467,#693);
#584=LINE('',#1470,#694);
#585=LINE('',#1472,#695);
#586=LINE('',#1474,#696);
#587=LINE('',#1476,#697);
#588=LINE('',#1478,#698);
#589=VECTOR('',#996,1.);
#590=VECTOR('',#997,1.);
#591=VECTOR('',#998,1.);
#592=VECTOR('',#999,1.);
#593=VECTOR('',#1000,1.);
#594=VECTOR('',#1001,1.);
#595=VECTOR('',#1002,1.);
#596=VECTOR('',#1003,1.);
#597=VECTOR('',#1006,1.);
#598=VECTOR('',#1007,1.);
#599=VECTOR('',#1008,1.);
#600=VECTOR('',#1009,1.);
#601=VECTOR('',#1010,1.);
#602=VECTOR('',#1011,1.);
#603=VECTOR('',#1012,1.);
#604=VECTOR('',#1013,1.);
#605=VECTOR('',#1016,1.);
#606=VECTOR('',#1017,1.);
#607=VECTOR('',#1018,1.);
#608=VECTOR('',#1019,1.);
#609=VECTOR('',#1020,1.);
#610=VECTOR('',#1021,1.);
#611=VECTOR('',#1022,1.);
#612=VECTOR('',#1023,1.);
#613=VECTOR('',#1024,1.);
#614=VECTOR('',#1025,1.);
#615=VECTOR('',#1026,1.);
#616=VECTOR('',#1027,1.);
#617=VECTOR('',#1028,1.);
#618=VECTOR('',#1029,1.);
#619=VECTOR('',#1034,1.);
#620=VECTOR('',#1035,1.);
#621=VECTOR('',#1036,1.);
#622=VECTOR('',#1045,1.);
#623=VECTOR('',#1048,1.);
#624=VECTOR('',#1049,1.);
#625=VECTOR('',#1050,1.);
#626=VECTOR('',#1051,1.);
#627=VECTOR('',#1052,1.);
#628=VECTOR('',#1053,1.);
#629=VECTOR('',#1054,1.);
#630=VECTOR('',#1055,1.);
#631=VECTOR('',#1056,1.);
#632=VECTOR('',#1057,1.);
#633=VECTOR('',#1062,1.);
#634=VECTOR('',#1063,1.);
#635=VECTOR('',#1064,1.);
#636=VECTOR('',#1065,1.);
#637=VECTOR('',#1066,1.);
#638=VECTOR('',#1067,1.);
#639=VECTOR('',#1070,1.);
#640=VECTOR('',#1073,1.);
#641=VECTOR('',#1074,1.);
#642=VECTOR('',#1077,1.);
#643=VECTOR('',#1080,1.);
#644=VECTOR('',#1083,1.);
#645=VECTOR('',#1086,1.);
#646=VECTOR('',#1091,1.);
#647=VECTOR('',#1092,1.);
#648=VECTOR('',#1093,1.);
#649=VECTOR('',#1094,1.);
#650=VECTOR('',#1103,1.);
#651=VECTOR('',#1104,1.);
#652=VECTOR('',#1105,1.);
#653=VECTOR('',#1106,1.);
#654=VECTOR('',#1107,1.);
#655=VECTOR('',#1110,1.);
#656=VECTOR('',#1111,1.);
#657=VECTOR('',#1116,1.);
#658=VECTOR('',#1117,1.);
#659=VECTOR('',#1118,1.);
#660=VECTOR('',#1119,1.);
#661=VECTOR('',#1120,1.);
#662=VECTOR('',#1123,1.);
#663=VECTOR('',#1124,1.);
#664=VECTOR('',#1127,1.);
#665=VECTOR('',#1128,1.);
#666=VECTOR('',#1131,1.);
#667=VECTOR('',#1132,1.);
#668=VECTOR('',#1139,1.);
#669=VECTOR('',#1140,1.);
#670=VECTOR('',#1143,1.);
#671=VECTOR('',#1146,1.);
#672=VECTOR('',#1149,1.);
#673=VECTOR('',#1152,1.);
#674=VECTOR('',#1155,1.);
#675=VECTOR('',#1156,1.);
#676=VECTOR('',#1159,1.);
#677=VECTOR('',#1162,1.);
#678=VECTOR('',#1165,1.);
#679=VECTOR('',#1168,1.);
#680=VECTOR('',#1173,1.);
#681=VECTOR('',#1178,1.);
#682=VECTOR('',#1179,1.);
#683=VECTOR('',#1180,1.);
#684=VECTOR('',#1181,1.);
#685=VECTOR('',#1182,1.);
#686=VECTOR('',#1191,1.);
#687=VECTOR('',#1192,1.);
#688=VECTOR('',#1195,1.);
#689=VECTOR('',#1200,1.);
#690=VECTOR('',#1201,1.);
#691=VECTOR('',#1202,1.);
#692=VECTOR('',#1205,1.);
#693=VECTOR('',#1208,1.);
#694=VECTOR('',#1213,1.);
#695=VECTOR('',#1214,1.);
#696=VECTOR('',#1217,1.);
#697=VECTOR('',#1218,1.);
#698=VECTOR('',#1221,1.);
#699=EDGE_LOOP('',(#31,#32,#33,#34,#35,#36,#37,#38));
#700=EDGE_LOOP('',(#39,#40,#41,#42,#43,#44,#45,#46,#47,#48));
#701=EDGE_LOOP('',(#49,#50,#51,#52,#53,#54,#55,#56,#57,#58,#59,#60,#61,
#62));
#702=EDGE_LOOP('',(#63));
#703=EDGE_LOOP('',(#64,#65,#66,#67));
#704=EDGE_LOOP('',(#68));
#705=EDGE_LOOP('',(#69));
#706=EDGE_LOOP('',(#70,#71,#72,#73,#74,#75,#76,#77,#78,#79,#80,#81,#82,
#83));
#707=EDGE_LOOP('',(#84,#85,#86,#87,#88,#89,#90,#91));
#708=EDGE_LOOP('',(#92,#93,#94,#95));
#709=EDGE_LOOP('',(#96,#97,#98,#99));
#710=EDGE_LOOP('',(#100,#101,#102,#103));
#711=EDGE_LOOP('',(#104,#105,#106,#107));
#712=EDGE_LOOP('',(#108,#109,#110,#111));
#713=EDGE_LOOP('',(#112,#113,#114,#115));
#714=EDGE_LOOP('',(#116,#117));
#715=EDGE_LOOP('',(#118));
#716=EDGE_LOOP('',(#119,#120,#121,#122,#123,#124));
#717=EDGE_LOOP('',(#125,#126,#127,#128,#129,#130));
#718=EDGE_LOOP('',(#131));
#719=EDGE_LOOP('',(#132,#133,#134,#135,#136,#137,#138,#139));
#720=EDGE_LOOP('',(#140,#141,#142,#143));
#721=EDGE_LOOP('',(#144,#145,#146,#147));
#722=EDGE_LOOP('',(#148));
#723=EDGE_LOOP('',(#149,#150,#151,#152,#153,#154,#155,#156));
#724=EDGE_LOOP('',(#157,#158,#159,#160));
#725=EDGE_LOOP('',(#161,#162,#163,#164));
#726=EDGE_LOOP('',(#165,#166,#167));
#727=EDGE_LOOP('',(#168,#169,#170,#171));
#728=EDGE_LOOP('',(#172,#173,#174,#175));
#729=EDGE_LOOP('',(#176,#177,#178,#179));
#730=EDGE_LOOP('',(#180,#181,#182));
#731=EDGE_LOOP('',(#183,#184,#185));
#732=EDGE_LOOP('',(#186,#187,#188,#189));
#733=EDGE_LOOP('',(#190,#191,#192,#193));
#734=EDGE_LOOP('',(#194,#195,#196,#197));
#735=EDGE_LOOP('',(#198,#199,#200));
#736=EDGE_LOOP('',(#201,#202,#203,#204));
#737=EDGE_LOOP('',(#205,#206,#207,#208));
#738=EDGE_LOOP('',(#209,#210,#211,#212));
#739=EDGE_LOOP('',(#213,#214,#215,#216,#217,#218,#219,#220,#221,#222,#223));
#740=EDGE_LOOP('',(#224));
#741=EDGE_LOOP('',(#225));
#742=EDGE_LOOP('',(#226));
#743=EDGE_LOOP('',(#227,#228,#229,#230,#231));
#744=EDGE_LOOP('',(#232));
#745=EDGE_LOOP('',(#233,#234,#235,#236));
#746=EDGE_LOOP('',(#237,#238,#239,#240));
#747=EDGE_LOOP('',(#241,#242,#243,#244));
#748=EDGE_LOOP('',(#245,#246,#247,#248));
#749=EDGE_LOOP('',(#249,#250,#251,#252));
#750=EDGE_LOOP('',(#253,#254,#255,#256));
#751=EDGE_LOOP('',(#257,#258,#259,#260));
#752=EDGE_LOOP('',(#261,#262,#263,#264));
#753=EDGE_LOOP('',(#265,#266,#267,#268));
#754=EDGE_LOOP('',(#269));
#755=EDGE_LOOP('',(#270,#271,#272,#273));
#756=EDGE_LOOP('',(#274));
#757=EDGE_LOOP('',(#275));
#758=EDGE_LOOP('',(#276));
#759=FACE_BOUND('',#699,.T.);
#760=FACE_BOUND('',#700,.T.);
#761=FACE_BOUND('',#701,.T.);
#762=FACE_BOUND('',#702,.T.);
#763=FACE_BOUND('',#703,.T.);
#764=FACE_BOUND('',#704,.T.);
#765=FACE_BOUND('',#705,.T.);
#766=FACE_BOUND('',#706,.T.);
#767=FACE_BOUND('',#707,.T.);
#768=FACE_BOUND('',#708,.T.);
#769=FACE_BOUND('',#709,.T.);
#770=FACE_BOUND('',#710,.T.);
#771=FACE_BOUND('',#711,.T.);
#772=FACE_BOUND('',#712,.T.);
#773=FACE_BOUND('',#713,.T.);
#774=FACE_BOUND('',#714,.T.);
#775=FACE_BOUND('',#715,.T.);
#776=FACE_BOUND('',#716,.T.);
#777=FACE_BOUND('',#717,.T.);
#778=FACE_BOUND('',#718,.T.);
#779=FACE_BOUND('',#719,.T.);
#780=FACE_BOUND('',#720,.T.);
#781=FACE_BOUND('',#721,.T.);
#782=FACE_BOUND('',#722,.T.);
#783=FACE_BOUND('',#723,.T.);
#784=FACE_BOUND('',#724,.T.);
#785=FACE_BOUND('',#725,.T.);
#786=FACE_BOUND('',#726,.T.);
#787=FACE_BOUND('',#727,.T.);
#788=FACE_BOUND('',#728,.T.);
#789=FACE_BOUND('',#729,.T.);
#790=FACE_BOUND('',#730,.T.);
#791=FACE_BOUND('',#731,.T.);
#792=FACE_BOUND('',#732,.T.);
#793=FACE_BOUND('',#733,.T.);
#794=FACE_BOUND('',#734,.T.);
#795=FACE_BOUND('',#735,.T.);
#796=FACE_BOUND('',#736,.T.);
#797=FACE_BOUND('',#737,.T.);
#798=FACE_BOUND('',#738,.T.);
#799=FACE_BOUND('',#739,.T.);
#800=FACE_BOUND('',#740,.T.);
#801=FACE_BOUND('',#741,.T.);
#802=FACE_BOUND('',#742,.T.);
#803=FACE_BOUND('',#743,.T.);
#804=FACE_BOUND('',#744,.T.);
#805=FACE_BOUND('',#745,.T.);
#806=FACE_BOUND('',#746,.T.);
#807=FACE_BOUND('',#747,.T.);
#808=FACE_BOUND('',#748,.T.);
#809=FACE_BOUND('',#749,.T.);
#810=FACE_BOUND('',#750,.T.);
#811=FACE_BOUND('',#751,.T.);
#812=FACE_BOUND('',#752,.T.);
#813=FACE_BOUND('',#753,.T.);
#814=FACE_BOUND('',#754,.T.);
#815=FACE_BOUND('',#755,.T.);
#816=FACE_BOUND('',#756,.T.);
#817=FACE_BOUND('',#757,.T.);
#818=FACE_BOUND('',#758,.T.);
#819=PLANE('',#928);
#820=PLANE('',#929);
#821=PLANE('',#930);
#822=PLANE('',#932);
#823=PLANE('',#936);
#824=PLANE('',#938);
#825=PLANE('',#941);
#826=PLANE('',#942);
#827=PLANE('',#943);
#828=PLANE('',#947);
#829=PLANE('',#951);
#830=PLANE('',#952);
#831=PLANE('',#953);
#832=PLANE('',#955);
#833=PLANE('',#956);
#834=PLANE('',#957);
#835=PLANE('',#958);
#836=PLANE('',#959);
#837=PLANE('',#960);
#838=PLANE('',#961);
#839=PLANE('',#962);
#840=PLANE('',#963);
#841=PLANE('',#964);
#842=PLANE('',#965);
#843=PLANE('',#966);
#844=PLANE('',#967);
#845=PLANE('',#968);
#846=PLANE('',#969);
#847=PLANE('',#970);
#848=PLANE('',#971);
#849=PLANE('',#972);
#850=PLANE('',#973);
#851=PLANE('',#976);
#852=PLANE('',#977);
#853=PLANE('',#978);
#854=PLANE('',#979);
#855=PLANE('',#980);
#856=PLANE('',#981);
#857=PLANE('',#982);
#858=PLANE('',#983);
#859=PLANE('',#984);
#860=PLANE('',#985);
#861=PLANE('',#986);
#862=PLANE('',#987);
#863=PLANE('',#991);
#864=ADVANCED_FACE('',(#759),#819,.F.);
#865=ADVANCED_FACE('',(#760),#820,.T.);
#866=ADVANCED_FACE('',(#761,#762),#821,.T.);
#867=ADVANCED_FACE('',(#763),#822,.T.);
#868=ADVANCED_FACE('',(#764,#765),#13,.F.);
#869=ADVANCED_FACE('',(#766),#823,.F.);
#870=ADVANCED_FACE('',(#767),#824,.T.);
#871=ADVANCED_FACE('',(#768),#14,.F.);
#872=ADVANCED_FACE('',(#769),#825,.F.);
#873=ADVANCED_FACE('',(#770),#826,.T.);
#874=ADVANCED_FACE('',(#771),#827,.F.);
#875=ADVANCED_FACE('',(#772),#15,.F.);
#876=ADVANCED_FACE('',(#773),#828,.F.);
#877=ADVANCED_FACE('',(#774,#775),#16,.F.);
#878=ADVANCED_FACE('',(#776),#829,.F.);
#879=ADVANCED_FACE('',(#777),#830,.F.);
#880=ADVANCED_FACE('',(#778,#779),#831,.F.);
#881=ADVANCED_FACE('',(#780),#832,.F.);
#882=ADVANCED_FACE('',(#781),#833,.F.);
#883=ADVANCED_FACE('',(#782,#783),#834,.T.);
#884=ADVANCED_FACE('',(#784),#835,.T.);
#885=ADVANCED_FACE('',(#785),#836,.F.);
#886=ADVANCED_FACE('',(#786),#837,.T.);
#887=ADVANCED_FACE('',(#787),#838,.T.);
#888=ADVANCED_FACE('',(#788),#839,.T.);
#889=ADVANCED_FACE('',(#789),#840,.T.);
#890=ADVANCED_FACE('',(#790),#841,.T.);
#891=ADVANCED_FACE('',(#791),#842,.T.);
#892=ADVANCED_FACE('',(#792),#843,.F.);
#893=ADVANCED_FACE('',(#793),#844,.F.);
#894=ADVANCED_FACE('',(#794),#845,.T.);
#895=ADVANCED_FACE('',(#795),#846,.T.);
#896=ADVANCED_FACE('',(#796),#847,.T.);
#897=ADVANCED_FACE('',(#797),#848,.F.);
#898=ADVANCED_FACE('',(#798),#849,.F.);
#899=ADVANCED_FACE('',(#799),#850,.T.);
#900=ADVANCED_FACE('',(#800,#801),#17,.F.);
#901=ADVANCED_FACE('',(#802),#851,.T.);
#902=ADVANCED_FACE('',(#803,#804),#852,.T.);
#903=ADVANCED_FACE('',(#805),#853,.F.);
#904=ADVANCED_FACE('',(#806),#854,.F.);
#905=ADVANCED_FACE('',(#807),#855,.T.);
#906=ADVANCED_FACE('',(#808),#856,.T.);
#907=ADVANCED_FACE('',(#809),#857,.F.);
#908=ADVANCED_FACE('',(#810),#858,.T.);
#909=ADVANCED_FACE('',(#811),#859,.F.);
#910=ADVANCED_FACE('',(#812),#860,.T.);
#911=ADVANCED_FACE('',(#813),#861,.T.);
#912=ADVANCED_FACE('',(#814,#815),#862,.T.);
#913=ADVANCED_FACE('',(#816,#817),#18,.F.);
#914=ADVANCED_FACE('',(#818),#863,.T.);
#915=CLOSED_SHELL('',(#864,#865,#866,#867,#868,#869,#870,#871,#872,#873,
#874,#875,#876,#877,#878,#879,#880,#881,#882,#883,#884,#885,#886,#887,#888,
#889,#890,#891,#892,#893,#894,#895,#896,#897,#898,#899,#900,#901,#902,#903,
#904,#905,#906,#907,#908,#909,#910,#911,#912,#913,#914));
#916=STYLED_ITEM('',(#917),#924);
#917=PRESENTATION_STYLE_ASSIGNMENT((#918));
#918=SURFACE_STYLE_USAGE(.BOTH.,#919);
#919=SURFACE_SIDE_STYLE('',(#920));
#920=SURFACE_STYLE_FILL_AREA(#921);
#921=FILL_AREA_STYLE('',(#922));
#922=FILL_AREA_STYLE_COLOUR('',#923);
#923=COLOUR_RGB('',0.866666666666667,0.32156862745098,0.156862745098039);
#924=MANIFOLD_SOLID_BREP('XY1_BOT',#915);
#925=SHAPE_DEFINITION_REPRESENTATION(#1492,#926);
#926=SHAPE_REPRESENTATION('XY1_BOT',(#927),#1487);
#927=AXIS2_PLACEMENT_3D('',#1232,#992,#993);
#928=AXIS2_PLACEMENT_3D('',#1233,#994,#995);
#929=AXIS2_PLACEMENT_3D('',#1250,#1004,#1005);
#930=AXIS2_PLACEMENT_3D('',#1265,#1014,#1015);
#931=AXIS2_PLACEMENT_3D('',#1294,#1030,#1031);
#932=AXIS2_PLACEMENT_3D('',#1296,#1032,#1033);
#933=AXIS2_PLACEMENT_3D('',#1302,#1037,#1038);
#934=AXIS2_PLACEMENT_3D('',#1303,#1039,#1040);
#935=AXIS2_PLACEMENT_3D('',#1305,#1041,#1042);
#936=AXIS2_PLACEMENT_3D('',#1307,#1043,#1044);
#937=AXIS2_PLACEMENT_3D('',#1311,#1046,#1047);
#938=AXIS2_PLACEMENT_3D('',#1330,#1058,#1059);
#939=AXIS2_PLACEMENT_3D('',#1331,#1060,#1061);
#940=AXIS2_PLACEMENT_3D('',#1344,#1068,#1069);
#941=AXIS2_PLACEMENT_3D('',#1346,#1071,#1072);
#942=AXIS2_PLACEMENT_3D('',#1349,#1075,#1076);
#943=AXIS2_PLACEMENT_3D('',#1351,#1078,#1079);
#944=AXIS2_PLACEMENT_3D('',#1353,#1081,#1082);
#945=AXIS2_PLACEMENT_3D('',#1357,#1084,#1085);
#946=AXIS2_PLACEMENT_3D('',#1361,#1087,#1088);
#947=AXIS2_PLACEMENT_3D('',#1362,#1089,#1090);
#948=AXIS2_PLACEMENT_3D('',#1371,#1095,#1096);
#949=AXIS2_PLACEMENT_3D('',#1372,#1097,#1098);
#950=AXIS2_PLACEMENT_3D('',#1375,#1099,#1100);
#951=AXIS2_PLACEMENT_3D('',#1376,#1101,#1102);
#952=AXIS2_PLACEMENT_3D('',#1386,#1108,#1109);
#953=AXIS2_PLACEMENT_3D('',#1389,#1112,#1113);
#954=AXIS2_PLACEMENT_3D('',#1390,#1114,#1115);
#955=AXIS2_PLACEMENT_3D('',#1399,#1121,#1122);
#956=AXIS2_PLACEMENT_3D('',#1403,#1125,#1126);
#957=AXIS2_PLACEMENT_3D('',#1407,#1129,#1130);
#958=AXIS2_PLACEMENT_3D('',#1410,#1133,#1134);
#959=AXIS2_PLACEMENT_3D('',#1411,#1135,#1136);
#960=AXIS2_PLACEMENT_3D('',#1412,#1137,#1138);
#961=AXIS2_PLACEMENT_3D('',#1415,#1141,#1142);
#962=AXIS2_PLACEMENT_3D('',#1417,#1144,#1145);
#963=AXIS2_PLACEMENT_3D('',#1419,#1147,#1148);
#964=AXIS2_PLACEMENT_3D('',#1421,#1150,#1151);
#965=AXIS2_PLACEMENT_3D('',#1423,#1153,#1154);
#966=AXIS2_PLACEMENT_3D('',#1426,#1157,#1158);
#967=AXIS2_PLACEMENT_3D('',#1428,#1160,#1161);
#968=AXIS2_PLACEMENT_3D('',#1430,#1163,#1164);
#969=AXIS2_PLACEMENT_3D('',#1432,#1166,#1167);
#970=AXIS2_PLACEMENT_3D('',#1434,#1169,#1170);
#971=AXIS2_PLACEMENT_3D('',#1435,#1171,#1172);
#972=AXIS2_PLACEMENT_3D('',#1437,#1174,#1175);
#973=AXIS2_PLACEMENT_3D('',#1438,#1176,#1177);
#974=AXIS2_PLACEMENT_3D('',#1447,#1183,#1184);
#975=AXIS2_PLACEMENT_3D('',#1448,#1185,#1186);
#976=AXIS2_PLACEMENT_3D('',#1450,#1187,#1188);
#977=AXIS2_PLACEMENT_3D('',#1451,#1189,#1190);
#978=AXIS2_PLACEMENT_3D('',#1455,#1193,#1194);
#979=AXIS2_PLACEMENT_3D('',#1457,#1196,#1197);
#980=AXIS2_PLACEMENT_3D('',#1458,#1198,#1199);
#981=AXIS2_PLACEMENT_3D('',#1464,#1203,#1204);
#982=AXIS2_PLACEMENT_3D('',#1466,#1206,#1207);
#983=AXIS2_PLACEMENT_3D('',#1468,#1209,#1210);
#984=AXIS2_PLACEMENT_3D('',#1469,#1211,#1212);
#985=AXIS2_PLACEMENT_3D('',#1473,#1215,#1216);
#986=AXIS2_PLACEMENT_3D('',#1477,#1219,#1220);
#987=AXIS2_PLACEMENT_3D('',#1479,#1222,#1223);
#988=AXIS2_PLACEMENT_3D('',#1480,#1224,#1225);
#989=AXIS2_PLACEMENT_3D('',#1482,#1226,#1227);
#990=AXIS2_PLACEMENT_3D('',#1483,#1228,#1229);
#991=AXIS2_PLACEMENT_3D('',#1485,#1230,#1231);
#992=DIRECTION('',(0.,0.,1.));
#993=DIRECTION('',(1.,0.,0.));
#994=DIRECTION('',(-1.,-4.62592926927149E-16,0.));
#995=DIRECTION('',(-4.62592926927149E-16,1.,0.));
#996=DIRECTION('',(4.62592926927149E-16,-1.,0.));
#997=DIRECTION('',(2.83256473634769E-32,-6.12323399573677E-17,-1.));
#998=DIRECTION('',(4.62592926927149E-16,-1.,0.));
#999=DIRECTION('',(0.,0.,-1.));
#1000=DIRECTION('',(-4.62592926927149E-16,1.,0.));
#1001=DIRECTION('',(2.83256473634769E-32,-6.12323399573677E-17,-1.));
#1002=DIRECTION('',(4.62592926927149E-16,-1.,0.));
#1003=DIRECTION('',(0.,0.,-1.));
#1004=DIRECTION('',(0.,1.,-6.12323399573677E-17));
#1005=DIRECTION('',(1.,0.,0.));
#1006=DIRECTION('',(-1.,0.,0.));
#1007=DIRECTION('',(2.83256473634769E-32,-6.12323399573677E-17,-1.));
#1008=DIRECTION('',(-1.,0.,0.));
#1009=DIRECTION('',(-0.707106781186548,-4.32978028117746E-17,-0.707106781186547));
#1010=DIRECTION('',(-1.,0.,0.));
#1011=DIRECTION('',(0.,0.,1.));
#1012=DIRECTION('',(-1.,0.,0.));
#1013=DIRECTION('',(-0.707106781186548,4.32978028117746E-17,0.707106781186547));
#1014=DIRECTION('',(-1.,-4.62592926927149E-16,0.));
#1015=DIRECTION('',(-4.62592926927149E-16,1.,0.));
#1016=DIRECTION('',(-4.62592926927149E-16,1.,0.));
#1017=DIRECTION('',(0.,0.,-1.));
#1018=DIRECTION('',(-4.62592926927149E-16,1.,0.));
#1019=DIRECTION('',(2.83256473634769E-32,-6.12323399573677E-17,-1.));
#1020=DIRECTION('',(0.,1.,-6.12323399573677E-17));
#1021=DIRECTION('',(0.,-6.12323399573677E-17,-1.));
#1022=DIRECTION('',(4.62592926927149E-16,-1.,0.));
#1023=DIRECTION('',(0.,0.,1.));
#1024=DIRECTION('',(4.62592926927149E-16,-1.,0.));
#1025=DIRECTION('',(0.,0.,1.));
#1026=DIRECTION('',(4.62592926927149E-16,-1.,0.));
#1027=DIRECTION('',(0.,0.,1.));
#1028=DIRECTION('',(-4.62592926927149E-16,1.,0.));
#1029=DIRECTION('',(2.83256473634769E-32,-6.12323399573677E-17,-1.));
#1030=DIRECTION('',(-1.,-4.62592926927149E-16,0.));
#1031=DIRECTION('',(-4.62592926927149E-16,1.,0.));
#1032=DIRECTION('',(-0.707106781186547,-3.2710259555912E-16,-0.707106781186548));
#1033=DIRECTION('',(-4.62592926927149E-16,1.,0.));
#1034=DIRECTION('',(0.707106781186548,-4.32978028117746E-17,-0.707106781186547));
#1035=DIRECTION('',(-4.62592926927149E-16,1.,0.));
#1036=DIRECTION('',(0.707106781186548,0.,-0.707106781186547));
#1037=DIRECTION('',(0.,-1.,0.));
#1038=DIRECTION('',(-1.,0.,0.));
#1039=DIRECTION('',(0.,-1.,0.));
#1040=DIRECTION('',(-1.,0.,0.));
#1041=DIRECTION('',(0.,1.,-6.12323399573677E-17));
#1042=DIRECTION('',(0.,6.12323399573677E-17,1.));
#1043=DIRECTION('',(0.,0.,1.));
#1044=DIRECTION('',(1.,0.,0.));
#1045=DIRECTION('',(-1.,0.,0.));
#1046=DIRECTION('',(0.,0.,1.));
#1047=DIRECTION('',(0.,-1.,0.));
#1048=DIRECTION('',(4.62592926927149E-16,-1.,0.));
#1049=DIRECTION('',(-0.0995037190209989,-0.995037190209989,0.));
#1050=DIRECTION('',(0.,-1.,0.));
#1051=DIRECTION('',(-1.,0.,0.));
#1052=DIRECTION('',(-4.62592926927149E-16,1.,0.));
#1053=DIRECTION('',(1.,0.,0.));
#1054=DIRECTION('',(0.,1.,0.));
#1055=DIRECTION('',(1.,0.,0.));
#1056=DIRECTION('',(1.,0.,0.));
#1057=DIRECTION('',(0.,1.,-6.12323399573677E-17));
#1058=DIRECTION('',(0.,0.,1.));
#1059=DIRECTION('',(1.,0.,0.));
#1060=DIRECTION('',(0.,0.,1.));
#1061=DIRECTION('',(0.,-1.,0.));
#1062=DIRECTION('',(-1.,0.,0.));
#1063=DIRECTION('',(4.62592926927149E-16,-1.,0.));
#1064=DIRECTION('',(1.,0.,0.));
#1065=DIRECTION('',(0.,1.,0.));
#1066=DIRECTION('',(0.0995037190209989,0.995037190209989,0.));
#1067=DIRECTION('',(-4.62592926927149E-16,1.,0.));
#1068=DIRECTION('',(0.,0.,1.));
#1069=DIRECTION('',(0.,-1.,0.));
#1070=DIRECTION('',(0.,0.,1.));
#1071=DIRECTION('',(0.707106781186547,3.2710259555912E-16,-0.707106781186548));
#1072=DIRECTION('',(4.62592926927149E-16,-1.,0.));
#1073=DIRECTION('',(0.707106781186548,4.32978028117746E-17,0.707106781186547));
#1074=DIRECTION('',(0.707106781186548,-9.18543318284145E-17,0.707106781186547));
#1075=DIRECTION('',(0.707106781186547,3.2710259555912E-16,0.707106781186548));
#1076=DIRECTION('',(-4.62592926927149E-16,1.,0.));
#1077=DIRECTION('',(0.706667445230676,-0.0352454777567505,-0.706667445230675));
#1078=DIRECTION('',(-0.707106781186547,-3.2710259555912E-16,0.707106781186548));
#1079=DIRECTION('',(4.62592926927149E-16,-1.,0.));
#1080=DIRECTION('',(-0.706667445230674,0.0352454777568081,-0.706667445230673));
#1081=DIRECTION('',(0.,-1.,0.));
#1082=DIRECTION('',(-1.,0.,0.));
#1083=DIRECTION('',(0.,1.,0.));
#1084=DIRECTION('',(0.,-1.,0.));
#1085=DIRECTION('',(-1.,0.,0.));
#1086=DIRECTION('',(0.,1.,0.));
#1087=DIRECTION('',(0.,-1.,0.));
#1088=DIRECTION('',(-1.,0.,0.));
#1089=DIRECTION('',(0.,1.,0.));
#1090=DIRECTION('',(1.,0.,0.));
#1091=DIRECTION('',(1.,0.,0.));
#1092=DIRECTION('',(0.,0.,1.));
#1093=DIRECTION('',(-1.,0.,0.));
#1094=DIRECTION('',(0.,0.,-1.));
#1095=DIRECTION('',(1.,4.62592926927149E-16,0.));
#1096=DIRECTION('',(4.62592926927149E-16,-1.,0.));
#1097=DIRECTION('',(-0.995037190209989,0.0995037190209989,0.));
#1098=DIRECTION('',(0.0995037190209989,0.995037190209989,0.));
#1099=DIRECTION('',(-1.,0.,0.));
#1100=DIRECTION('',(0.,1.,0.));
#1101=DIRECTION('',(-1.,0.,0.));
#1102=DIRECTION('',(0.,1.,0.));
#1103=DIRECTION('',(0.,0.,-1.));
#1104=DIRECTION('',(0.,1.,0.));
#1105=DIRECTION('',(0.,0.,1.));
#1106=DIRECTION('',(0.,0.,1.));
#1107=DIRECTION('',(0.,-1.,0.));
#1108=DIRECTION('',(-0.995037190209989,0.0995037190209989,0.));
#1109=DIRECTION('',(0.,0.,1.));
#1110=DIRECTION('',(-0.0995037190209989,-0.995037190209989,0.));
#1111=DIRECTION('',(0.0995037190209989,0.995037190209989,0.));
#1112=DIRECTION('',(0.,-1.,0.));
#1113=DIRECTION('',(-1.,0.,0.));
#1114=DIRECTION('',(0.,-1.,0.));
#1115=DIRECTION('',(-1.,0.,0.));
#1116=DIRECTION('',(-0.707106781186548,0.,0.707106781186547));
#1117=DIRECTION('',(0.707106781186562,0.,-0.707106781186534));
#1118=DIRECTION('',(1.,0.,0.));
#1119=DIRECTION('',(0.,0.,1.));
#1120=DIRECTION('',(-0.707106781186551,0.,0.707106781186545));
#1121=DIRECTION('',(1.,0.,0.));
#1122=DIRECTION('',(0.,-1.,0.));
#1123=DIRECTION('',(0.,0.,1.));
#1124=DIRECTION('',(0.,-1.,0.));
#1125=DIRECTION('',(0.,0.,1.));
#1126=DIRECTION('',(0.,-1.,0.));
#1127=DIRECTION('',(-4.62592926927149E-16,1.,0.));
#1128=DIRECTION('',(-1.,0.,0.));
#1129=DIRECTION('',(0.,-1.,0.));
#1130=DIRECTION('',(1.,0.,0.));
#1131=DIRECTION('',(0.707106781186551,0.,-0.707106781186545));
#1132=DIRECTION('',(-0.707106781186562,0.,0.707106781186534));
#1133=DIRECTION('',(-0.707106781186534,-3.27102595559114E-16,-0.707106781186562));
#1134=DIRECTION('',(4.62592926927149E-16,-1.,0.));
#1135=DIRECTION('',(0.707106781186545,0.,0.707106781186551));
#1136=DIRECTION('',(0.,1.,0.));
#1137=DIRECTION('',(-0.577350269189626,-0.577350269189626,0.577350269189626));
#1138=DIRECTION('',(0.,-0.707106781186548,-0.707106781186547));
#1139=DIRECTION('',(-1.23903709934807E-16,0.707106781186548,0.707106781186547));
#1140=DIRECTION('',(0.707106781186548,-0.707106781186548,0.));
#1141=DIRECTION('',(-0.707106781186547,-3.2710259555912E-16,-0.707106781186548));
#1142=DIRECTION('',(-4.62592926927149E-16,1.,0.));
#1143=DIRECTION('',(0.707106781186548,-9.18543318284145E-17,-0.707106781186547));
#1144=DIRECTION('',(-0.707106781186548,-0.707106781186548,0.));
#1145=DIRECTION('',(0.,0.,-1.));
#1146=DIRECTION('',(-0.707106781186548,0.707106781186548,0.));
#1147=DIRECTION('',(0.,-0.707106781186547,0.707106781186548));
#1148=DIRECTION('',(1.,0.,0.));
#1149=DIRECTION('',(-1.23903709934807E-16,-0.707106781186548,-0.707106781186547));
#1150=DIRECTION('',(-0.577350269189626,-0.577350269189626,-0.577350269189626));
#1151=DIRECTION('',(0.,0.707106781186548,-0.707106781186547));
#1152=DIRECTION('',(-1.23903709934807E-16,0.707106781186548,-0.707106781186547));
#1153=DIRECTION('',(0.577350269189626,-0.577350269189625,0.577350269189626));
#1154=DIRECTION('',(0.707106781186548,0.,-0.707106781186548));
#1155=DIRECTION('',(-0.707106781186548,0.,0.707106781186548));
#1156=DIRECTION('',(-0.707106781186548,-0.707106781186548,9.33725767576153E-16));
#1157=DIRECTION('',(0.,0.707106781186547,0.707106781186548));
#1158=DIRECTION('',(-1.,0.,0.));
#1159=DIRECTION('',(-6.83925587035498E-17,-0.707106781186548,0.707106781186547));
#1160=DIRECTION('',(-0.707106781186548,0.707106781186548,0.));
#1161=DIRECTION('',(0.,0.,1.));
#1162=DIRECTION('',(0.707106781186548,0.707106781186548,-4.90355485027807E-15));
#1163=DIRECTION('',(0.707106781186548,0.,0.707106781186548));
#1164=DIRECTION('',(0.,1.,0.));
#1165=DIRECTION('',(0.706667445230675,-0.0352454777567609,-0.706667445230675));
#1166=DIRECTION('',(0.577350269189623,-0.577350269189627,-0.577350269189628));
#1167=DIRECTION('',(0.,0.707106781186548,-0.707106781186547));
#1168=DIRECTION('',(-0.707106781186551,0.,-0.707106781186545));
#1169=DIRECTION('',(0.703597544730294,-0.0703597544730294,0.707106781186546));
#1170=DIRECTION('',(-0.0995037190209989,-0.995037190209989,0.));
#1171=DIRECTION('',(-0.707106781186545,0.,0.707106781186551));
#1172=DIRECTION('',(0.,-1.,0.));
#1173=DIRECTION('',(-0.706667445230678,0.0352454777567595,-0.706667445230672));
#1174=DIRECTION('',(-0.703597544730291,0.070359754473029,0.707106781186549));
#1175=DIRECTION('',(-0.0995037190209989,-0.995037190209989,0.));
#1176=DIRECTION('',(0.,1.,-6.12323399573677E-17));
#1177=DIRECTION('',(1.,0.,0.));
#1178=DIRECTION('',(0.,-6.12323399573677E-17,-1.));
#1179=DIRECTION('',(1.,0.,0.));
#1180=DIRECTION('',(1.,0.,0.));
#1181=DIRECTION('',(-2.83256473634769E-32,6.12323399573677E-17,1.));
#1182=DIRECTION('',(1.,0.,0.));
#1183=DIRECTION('',(0.,1.,-6.12323399573677E-17));
#1184=DIRECTION('',(0.,6.12323399573677E-17,1.));
#1185=DIRECTION('',(0.,1.,-6.12323399573677E-17));
#1186=DIRECTION('',(0.,6.12323399573677E-17,1.));
#1187=DIRECTION('',(0.,1.,-6.12323399573677E-17));
#1188=DIRECTION('',(1.,0.,0.));
#1189=DIRECTION('',(0.,1.,-6.12323399573677E-17));
#1190=DIRECTION('',(1.,0.,0.));
#1191=DIRECTION('',(1.,0.,0.));
#1192=DIRECTION('',(0.,-6.12323399573677E-17,-1.));
#1193=DIRECTION('',(0.,6.12323399573677E-17,1.));
#1194=DIRECTION('',(0.,-1.,6.12323399573677E-17));
#1195=DIRECTION('',(0.,1.,-6.12323399573677E-17));
#1196=DIRECTION('',(1.,0.,0.));
#1197=DIRECTION('',(0.,-1.,0.));
#1198=DIRECTION('',(-4.62592926927148E-16,1.,0.));
#1199=DIRECTION('',(1.,4.62592926927148E-16,0.));
#1200=DIRECTION('',(-1.,-4.62592926927148E-16,0.));
#1201=DIRECTION('',(0.,0.,-1.));
#1202=DIRECTION('',(-1.,-4.62592926927148E-16,0.));
#1203=DIRECTION('',(0.,0.,-1.));
#1204=DIRECTION('',(0.,1.,0.));
#1205=DIRECTION('',(4.62592926927149E-16,-1.,0.));
#1206=DIRECTION('',(0.,0.,-1.));
#1207=DIRECTION('',(0.,1.,0.));
#1208=DIRECTION('',(4.62592926927149E-16,-1.,0.));
#1209=DIRECTION('',(1.,4.62592926927149E-16,0.));
#1210=DIRECTION('',(0.,0.,-1.));
#1211=DIRECTION('',(0.,0.,1.));
#1212=DIRECTION('',(0.,-1.,0.));
#1213=DIRECTION('',(4.62592926927149E-16,-1.,0.));
#1214=DIRECTION('',(1.,0.,0.));
#1215=DIRECTION('',(0.,0.,1.));
#1216=DIRECTION('',(0.,-1.,0.));
#1217=DIRECTION('',(1.,0.,0.));
#1218=DIRECTION('',(4.62592926927149E-16,-1.,0.));
#1219=DIRECTION('',(0.,1.,0.));
#1220=DIRECTION('',(1.,0.,0.));
#1221=DIRECTION('',(0.,0.,1.));
#1222=DIRECTION('',(-1.,-4.62592926927149E-16,0.));
#1223=DIRECTION('',(0.,0.,1.));
#1224=DIRECTION('',(-1.,-4.62592926927149E-16,0.));
#1225=DIRECTION('',(-4.62592926927149E-16,1.,0.));
#1226=DIRECTION('',(1.,0.,0.));
#1227=DIRECTION('',(0.,-1.,0.));
#1228=DIRECTION('',(-1.,-4.62592926927149E-16,0.));
#1229=DIRECTION('',(-4.62592926927149E-16,1.,0.));
#1230=DIRECTION('',(-1.,-4.62592926927149E-16,0.));
#1231=DIRECTION('',(0.,0.,1.));
#1232=CARTESIAN_POINT('',(0.,0.,0.));
#1233=CARTESIAN_POINT('',(0.163313524404355,0.400052546262741,-0.045));
#1234=CARTESIAN_POINT('',(0.163313524404355,0.400052546262741,-0.0175));
#1235=CARTESIAN_POINT('',(0.163313524404355,0.400450115781006,-0.0175));
#1236=CARTESIAN_POINT('',(0.163313524404355,0.387950115781006,-0.0175));
#1237=CARTESIAN_POINT('',(0.163313524404355,0.400450115781006,-0.045));
#1238=CARTESIAN_POINT('',(0.163313524404355,0.400450115781006,-0.005));
#1239=CARTESIAN_POINT('',(0.163313524404355,0.378052546262741,-0.005));
#1240=CARTESIAN_POINT('',(0.163313524404355,0.378052546262741,-0.005));
#1241=CARTESIAN_POINT('',(0.163313524404355,0.378052546262741,-0.045));
#1242=CARTESIAN_POINT('',(0.163313524404355,0.378052546262741,-0.04));
#1243=CARTESIAN_POINT('',(0.163313524404355,0.400052546262741,-0.04));
#1244=CARTESIAN_POINT('',(0.163313524404355,0.400450115781006,-0.04));
#1245=CARTESIAN_POINT('',(0.163313524404355,0.400450115781006,-0.045));
#1246=CARTESIAN_POINT('',(0.163313524404355,0.400450115781006,-0.0275));
#1247=CARTESIAN_POINT('',(0.163313524404355,0.400052546262741,-0.0275));
#1248=CARTESIAN_POINT('',(0.163313524404355,0.387950115781006,-0.0275));
#1249=CARTESIAN_POINT('',(0.163313524404355,0.387950115781006,-0.045));
#1250=CARTESIAN_POINT('',(0.163313524404355,0.400450115781006,-0.0225));
#1251=CARTESIAN_POINT('',(0.163313524404355,0.400450115781006,-0.0175));
#1252=CARTESIAN_POINT('',(0.160813524404355,0.400450115781006,-0.0175));
#1253=CARTESIAN_POINT('',(0.160813524404355,0.400450115781006,-0.0225));
#1254=CARTESIAN_POINT('',(0.160813524404355,0.400450115781006,-0.0275));
#1255=CARTESIAN_POINT('',(0.163313524404355,0.400450115781006,-0.0275));
#1256=CARTESIAN_POINT('',(0.158313524404355,0.400450115781006,-0.045));
#1257=CARTESIAN_POINT('',(0.158313524404355,0.400450115781006,-0.045));
#1258=CARTESIAN_POINT('',(-0.0397113039529461,0.400450115781006,-0.045));
#1259=CARTESIAN_POINT('',(0.157805994965578,0.400450115781006,-0.045));
#1260=CARTESIAN_POINT('',(0.157805994965578,0.400450115781006,-0.850868496704852));
#1261=CARTESIAN_POINT('',(0.157805994965578,0.400450115781006,0.));
#1262=CARTESIAN_POINT('',(-0.0397113039529461,0.400450115781006,0.));
#1263=CARTESIAN_POINT('',(0.158313524404355,0.400450115781006,0.));
#1264=CARTESIAN_POINT('',(0.163313524404355,0.400450115781006,-0.005));
#1265=CARTESIAN_POINT('',(0.123313524404355,0.400052546262741,-0.045));
#1266=CARTESIAN_POINT('',(0.123313524404355,0.400052546262741,-0.02));
#1267=CARTESIAN_POINT('',(0.123313524404355,0.390450115781006,-0.02));
#1268=CARTESIAN_POINT('',(0.123313524404355,0.400450115781006,-0.02));
#1269=CARTESIAN_POINT('',(0.123313524404355,0.390450115781006,-0.045));
#1270=CARTESIAN_POINT('',(0.123313524404355,0.390450115781006,-0.028));
#1271=CARTESIAN_POINT('',(0.123313524404355,0.400052546262741,-0.028));
#1272=CARTESIAN_POINT('',(0.123313524404355,0.400450115781006,-0.028));
#1273=CARTESIAN_POINT('',(0.123313524404355,0.400450115781006,-0.045));
#1274=CARTESIAN_POINT('',(0.123313524404355,0.400450115781006,-0.03));
#1275=CARTESIAN_POINT('',(0.123313524404355,0.390450115781006,-0.03));
#1276=CARTESIAN_POINT('',(0.123313524404355,0.390450115781006,-0.03));
#1277=CARTESIAN_POINT('',(0.123313524404355,0.390450115781006,-0.0375));
#1278=CARTESIAN_POINT('',(0.123313524404355,0.390450115781006,-0.04));
#1279=CARTESIAN_POINT('',(0.123313524404355,0.385052546262741,-0.04));
#1280=CARTESIAN_POINT('',(0.123313524404355,0.385052546262741,-0.04));
#1281=CARTESIAN_POINT('',(0.123313524404355,0.385052546262741,-0.850868496704852));
#1282=CARTESIAN_POINT('',(0.123313524404355,0.385052546262741,-0.0200000000000005));
#1283=CARTESIAN_POINT('',(0.123313524404355,0.375052546262741,-0.0200000000000005));
#1284=CARTESIAN_POINT('',(0.123313524404355,0.375052546262741,-0.0200000000000007));
#1285=CARTESIAN_POINT('',(0.123313524404355,0.375052546262741,-0.850868496704852));
#1286=CARTESIAN_POINT('',(0.123313524404355,0.375052546262741,-0.04));
#1287=CARTESIAN_POINT('',(0.123313524404355,0.340052546262741,-0.04));
#1288=CARTESIAN_POINT('',(0.123313524404355,0.345052546262741,-0.04));
#1289=CARTESIAN_POINT('',(0.123313524404355,0.345052546262741,0.));
#1290=CARTESIAN_POINT('',(0.123313524404355,0.345052546262741,-0.005));
#1291=CARTESIAN_POINT('',(0.123313524404355,0.400052546262741,-0.005));
#1292=CARTESIAN_POINT('',(0.123313524404355,0.400450115781006,-0.005));
#1293=CARTESIAN_POINT('',(0.123313524404355,0.400450115781006,-0.045));
#1294=CARTESIAN_POINT('',(0.123313524404355,0.364,-0.022));
#1295=CARTESIAN_POINT('',(0.123313524404355,0.3735,-0.022));
#1296=CARTESIAN_POINT('',(0.123313524404355,0.400052546262741,-0.04));
#1297=CARTESIAN_POINT('',(0.123313524404355,0.390450115781006,-0.04));
#1298=CARTESIAN_POINT('',(0.128313524404355,0.390450115781006,-0.045));
#1299=CARTESIAN_POINT('',(0.128313524404355,0.460052546262741,-0.045));
#1300=CARTESIAN_POINT('',(0.128313524404355,0.385052546262741,-0.045));
#1301=CARTESIAN_POINT('',(0.0330511102257044,0.385052546262741,0.0502624141786504));
#1302=CARTESIAN_POINT('',(0.129313524404355,0.395052546262741,-0.035));
#1303=CARTESIAN_POINT('',(0.129313524404355,0.385052546262741,-0.035));
#1304=CARTESIAN_POINT('',(0.126813524404355,0.385052546262741,-0.035));
#1305=CARTESIAN_POINT('',(0.129313524404355,0.390450115781006,-0.035));
#1306=CARTESIAN_POINT('',(0.129313524404355,0.390450115781006,-0.0325));
#1307=CARTESIAN_POINT('',(-0.0397113039529461,0.400052546262741,-0.045));
#1308=CARTESIAN_POINT('',(-0.0397113039529461,0.400450115781006,-0.045));
#1309=CARTESIAN_POINT('',(0.136821053843131,0.400450115781006,-0.045));
#1310=CARTESIAN_POINT('',(0.135313524404355,0.400450115781006,-0.045));
#1311=CARTESIAN_POINT('',(0.147313524404355,0.400052546262741,-0.045));
#1312=CARTESIAN_POINT('',(0.158313524404355,0.400052546262741,-0.045));
#1313=CARTESIAN_POINT('',(0.158313524404355,0.378301924368346,-0.045));
#1314=CARTESIAN_POINT('',(0.156338338453305,0.358550064857846,-0.045));
#1315=CARTESIAN_POINT('',(0.156313524404355,0.358301924368346,-0.045));
#1316=CARTESIAN_POINT('',(0.156313524404355,0.400052546262741,-0.045));
#1317=CARTESIAN_POINT('',(0.156313524404355,0.345052546262741,-0.045));
#1318=CARTESIAN_POINT('',(-0.0397113039529461,0.345052546262741,-0.045));
#1319=CARTESIAN_POINT('',(0.128313524404355,0.345052546262741,-0.045));
#1320=CARTESIAN_POINT('',(0.128313524404355,0.375052546262741,-0.045));
#1321=CARTESIAN_POINT('',(0.128313524404355,0.375052546262741,-0.045));
#1322=CARTESIAN_POINT('',(-0.0397113039529461,0.375052546262741,-0.045));
#1323=CARTESIAN_POINT('',(0.143313524404355,0.375052546262741,-0.045));
#1324=CARTESIAN_POINT('',(0.143313524404355,0.400052546262741,-0.045));
#1325=CARTESIAN_POINT('',(0.143313524404355,0.385052546262741,-0.045));
#1326=CARTESIAN_POINT('',(-0.0397113039529461,0.385052546262741,-0.045));
#1327=CARTESIAN_POINT('',(0.129313524404355,0.390450115781006,-0.045));
#1328=CARTESIAN_POINT('',(0.135313524404355,0.390450115781006,-0.045));
#1329=CARTESIAN_POINT('',(0.135313524404355,0.390450115781006,-0.045));
#1330=CARTESIAN_POINT('',(-0.0397113039529461,0.400052546262741,0.));
#1331=CARTESIAN_POINT('',(0.147313524404355,0.400052546262741,0.));
#1332=CARTESIAN_POINT('',(0.136821053843131,0.400450115781006,0.));
#1333=CARTESIAN_POINT('',(-0.0397113039529461,0.400450115781006,0.));
#1334=CARTESIAN_POINT('',(0.128313524404355,0.400450115781006,3.32282320069542E-24));
#1335=CARTESIAN_POINT('',(0.128313524404355,0.400052546262741,0.));
#1336=CARTESIAN_POINT('',(0.128313524404355,0.345052546262741,0.));
#1337=CARTESIAN_POINT('',(0.161313524404355,0.345052546262741,0.));
#1338=CARTESIAN_POINT('',(0.156313524404355,0.345052546262741,0.));
#1339=CARTESIAN_POINT('',(0.156313524404355,0.358052546262741,0.));
#1340=CARTESIAN_POINT('',(0.156313524404355,0.358301924368346,0.));
#1341=CARTESIAN_POINT('',(0.158506409459668,0.380230774921479,0.));
#1342=CARTESIAN_POINT('',(0.158313524404355,0.378301924368346,0.));
#1343=CARTESIAN_POINT('',(0.158313524404355,0.460052546262741,0.));
#1344=CARTESIAN_POINT('',(0.147313524404355,0.400052546262741,-0.850868496704852));
#1345=CARTESIAN_POINT('',(0.136821053843131,0.400450115781006,-0.868176704758173));
#1346=CARTESIAN_POINT('',(0.128313524404355,0.400052546262741,0.));
#1347=CARTESIAN_POINT('',(0.128313524404355,0.400450115781006,7.97843676060727E-20));
#1348=CARTESIAN_POINT('',(0.128313524404355,0.345052546262741,1.15648231731787E-18));
#1349=CARTESIAN_POINT('',(0.163313524404355,0.400052546262741,-0.005));
#1350=CARTESIAN_POINT('',(0.162765574106465,0.378079875624192,-0.00445204970210946));
#1351=CARTESIAN_POINT('',(0.158313524404355,0.400052546262741,-0.045));
#1352=CARTESIAN_POINT('',(0.157771785324975,0.378328943941415,-0.0455417390793799));
#1353=CARTESIAN_POINT('',(0.133313524404355,0.400052546262741,-0.03));
#1354=CARTESIAN_POINT('',(0.138313524404355,0.400052546262741,-0.03));
#1355=CARTESIAN_POINT('',(0.138313524404355,0.375052546262741,-0.0300000000000004));
#1356=CARTESIAN_POINT('',(0.138313524404355,0.385052546262741,-0.0300000000000004));
#1357=CARTESIAN_POINT('',(0.133313524404355,0.375052546262741,-0.03));
#1358=CARTESIAN_POINT('',(0.133313524404355,0.375052546262741,-0.025));
#1359=CARTESIAN_POINT('',(0.133313524404355,0.400052546262741,-0.025));
#1360=CARTESIAN_POINT('',(0.133313524404355,0.385052546262741,-0.025));
#1361=CARTESIAN_POINT('',(0.133313524404355,0.385052546262741,-0.03));
#1362=CARTESIAN_POINT('',(0.143313524404355,0.340052546262741,-0.045));
#1363=CARTESIAN_POINT('',(0.143313524404355,0.340052546262741,-0.04));
#1364=CARTESIAN_POINT('',(0.128313524404355,0.340052546262741,-0.04));
#1365=CARTESIAN_POINT('',(0.156313524404355,0.340052546262741,-0.04));
#1366=CARTESIAN_POINT('',(0.156313524404355,0.340052546262741,-0.045));
#1367=CARTESIAN_POINT('',(0.156313524404355,0.340052546262741,-0.005));
#1368=CARTESIAN_POINT('',(0.123313524404355,0.340052546262741,-0.005));
#1369=CARTESIAN_POINT('',(0.128313524404355,0.340052546262741,-0.005));
#1370=CARTESIAN_POINT('',(0.128313524404355,0.340052546262741,-0.045));
#1371=CARTESIAN_POINT('',(-0.687554972300497,0.364,-0.022));
#1372=CARTESIAN_POINT('',(0.16190826977808,0.364,-0.022));
#1373=CARTESIAN_POINT('',(0.161313524404355,0.358052546262741,-0.0294079547813932));
#1374=CARTESIAN_POINT('',(0.161313524404355,0.358052546262741,-0.014592045218607));
#1375=CARTESIAN_POINT('',(0.161313524404355,0.364,-0.022));
#1376=CARTESIAN_POINT('',(0.161313524404355,0.349052546262741,-0.850868496704852));
#1377=CARTESIAN_POINT('',(0.161313524404355,0.345052546262741,-0.850868496704852));
#1378=CARTESIAN_POINT('',(0.161313524404355,0.345052546262741,-0.005));
#1379=CARTESIAN_POINT('',(0.161313524404355,0.345052546262741,-0.04));
#1380=CARTESIAN_POINT('',(0.161313524404355,0.349052546262741,-0.04));
#1381=CARTESIAN_POINT('',(0.161313524404355,0.358052546262741,-0.04));
#1382=CARTESIAN_POINT('',(0.161313524404355,0.358052546262741,-0.850868496704852));
#1383=CARTESIAN_POINT('',(0.161313524404355,0.358052546262741,-0.850868496704852));
#1384=CARTESIAN_POINT('',(0.161313524404355,0.358052546262741,-0.00500000000000023));
#1385=CARTESIAN_POINT('',(0.161313524404355,0.340052546262741,-0.005));
#1386=CARTESIAN_POINT('',(0.161313524404355,0.358052546262741,-0.850868496704852));
#1387=CARTESIAN_POINT('',(0.163313524404355,0.378052546262741,-0.04));
#1388=CARTESIAN_POINT('',(0.161313524404355,0.358052546262741,-0.005));
#1389=CARTESIAN_POINT('',(0.130813524404355,0.375052546262741,-0.850868496704852));
#1390=CARTESIAN_POINT('',(0.129313524404355,0.375052546262741,-0.035));
#1391=CARTESIAN_POINT('',(0.126813524404355,0.375052546262741,-0.035));
#1392=CARTESIAN_POINT('',(0.123313524404355,0.375052546262741,-0.04));
#1393=CARTESIAN_POINT('',(0.542497772756781,0.375052546262741,-0.43918424835241));
#1394=CARTESIAN_POINT('',(0.128313524404355,0.375052546262741,-0.025));
#1395=CARTESIAN_POINT('',(0.130813524404355,0.375052546262741,-0.025));
#1396=CARTESIAN_POINT('',(0.138313524404355,0.375052546262741,-0.850868496704852));
#1397=CARTESIAN_POINT('',(0.138313524404355,0.375052546262741,-0.04));
#1398=CARTESIAN_POINT('',(0.539997772756781,0.375052546262741,-0.441684248352422));
#1399=CARTESIAN_POINT('',(0.138313524404355,0.400052546262741,-0.850868496704852));
#1400=CARTESIAN_POINT('',(0.138313524404355,0.385052546262741,-0.850868496704852));
#1401=CARTESIAN_POINT('',(0.138313524404355,0.385052546262741,-0.04));
#1402=CARTESIAN_POINT('',(0.138313524404355,0.400052546262741,-0.04));
#1403=CARTESIAN_POINT('',(0.130813524404355,0.375052546262741,-0.025));
#1404=CARTESIAN_POINT('',(0.128313524404355,0.385052546262741,-0.025));
#1405=CARTESIAN_POINT('',(0.128313524404355,0.385052546262741,-0.025));
#1406=CARTESIAN_POINT('',(0.130813524404355,0.385052546262741,-0.025));
#1407=CARTESIAN_POINT('',(-0.0397113039529461,0.385052546262741,-0.0225));
#1408=CARTESIAN_POINT('',(0.143313524404355,0.385052546262741,-0.045));
#1409=CARTESIAN_POINT('',(0.128313524404355,0.385052546262741,-0.025));
#1410=CARTESIAN_POINT('',(0.128313524404355,0.375052546262741,-0.025));
#1411=CARTESIAN_POINT('',(0.143313524404355,0.400052546262741,-0.045));
#1412=CARTESIAN_POINT('',(0.128313524404355,0.345052546262741,0.));
#1413=CARTESIAN_POINT('',(0.128313524404355,0.345052546262741,0.));
#1414=CARTESIAN_POINT('',(0.125813524404355,0.342552546262741,-0.005));
#1415=CARTESIAN_POINT('',(0.123313524404355,0.400052546262741,-0.04));
#1416=CARTESIAN_POINT('',(0.123313524404355,0.345052546262741,-0.04));
#1417=CARTESIAN_POINT('',(0.123313524404355,0.345052546262741,-0.045));
#1418=CARTESIAN_POINT('',(0.123313524404355,0.345052546262741,-0.04));
#1419=CARTESIAN_POINT('',(0.143313524404355,0.340052546262741,-0.005));
#1420=CARTESIAN_POINT('',(0.156313524404355,0.345052546262741,0.));
#1421=CARTESIAN_POINT('',(0.123313524404355,0.345052546262741,-0.04));
#1422=CARTESIAN_POINT('',(0.128313524404355,0.342552546262741,-0.0425));
#1423=CARTESIAN_POINT('',(0.156313524404355,0.345052546262741,0.));
#1424=CARTESIAN_POINT('',(0.156313524404355,0.345052546262741,0.));
#1425=CARTESIAN_POINT('',(0.158813524404355,0.342552546262741,-0.005));
#1426=CARTESIAN_POINT('',(-0.0397113039529461,0.345052546262741,-0.045));
#1427=CARTESIAN_POINT('',(0.156313524404355,0.340052546262741,-0.04));
#1428=CARTESIAN_POINT('',(0.156313524404355,0.340052546262741,-0.045));
#1429=CARTESIAN_POINT('',(0.156313524404355,0.340052546262741,-0.04));
#1430=CARTESIAN_POINT('',(0.161313524404355,0.349052546262741,-0.005));
#1431=CARTESIAN_POINT('',(0.161537685889856,0.358041366069421,-0.00522416148550076));
#1432=CARTESIAN_POINT('',(0.156313524404355,0.340052546262741,-0.04));
#1433=CARTESIAN_POINT('',(0.158813524404355,0.345052546262741,-0.0425));
#1434=CARTESIAN_POINT('',(0.158506409459668,0.380230774921479,0.));
#1435=CARTESIAN_POINT('',(0.156313524404355,0.400052546262741,-0.045));
#1436=CARTESIAN_POINT('',(0.15527364869053,0.358353788815461,-0.0460398757138252));
#1437=CARTESIAN_POINT('',(0.158506409459668,0.380230774921479,-0.045));
#1438=CARTESIAN_POINT('',(0.163313524404355,0.400450115781006,-0.0225));
#1439=CARTESIAN_POINT('',(0.135313524404355,0.400450115781006,-0.0375));
#1440=CARTESIAN_POINT('',(0.135313524404355,0.400450115781006,-0.03));
#1441=CARTESIAN_POINT('',(0.129313524404355,0.400450115781006,-0.03));
#1442=CARTESIAN_POINT('',(0.163313524404355,0.400450115781006,-0.028));
#1443=CARTESIAN_POINT('',(0.126813524404355,0.400450115781006,-0.028));
#1444=CARTESIAN_POINT('',(0.126813524404355,0.400450115781006,-0.0225));
#1445=CARTESIAN_POINT('',(0.126813524404355,0.400450115781006,-0.02));
#1446=CARTESIAN_POINT('',(0.163313524404355,0.400450115781006,-0.02));
#1447=CARTESIAN_POINT('',(0.129313524404355,0.370450115781006,-0.035));
#1448=CARTESIAN_POINT('',(0.129313524404355,0.370450115781006,-0.035));
#1449=CARTESIAN_POINT('',(0.129313524404355,0.370450115781006,-0.0325));
#1450=CARTESIAN_POINT('',(-0.00274222039327518,0.370450115781006,-0.0225));
#1451=CARTESIAN_POINT('',(-0.000992220393275178,0.390450115781006,-0.0225));
#1452=CARTESIAN_POINT('',(0.129313524404355,0.390450115781006,-0.03));
#1453=CARTESIAN_POINT('',(0.135313524404355,0.390450115781006,-0.03));
#1454=CARTESIAN_POINT('',(0.135313524404355,0.390450115781006,-0.0375));
#1455=CARTESIAN_POINT('',(0.129313524404355,0.390450115781006,-0.03));
#1456=CARTESIAN_POINT('',(0.135313524404355,0.390450115781006,-0.03));
#1457=CARTESIAN_POINT('',(0.135313524404355,0.390450115781006,-0.0375));
#1458=CARTESIAN_POINT('',(0.165813524404355,0.387950115781006,-0.0225));
#1459=CARTESIAN_POINT('',(0.165813524404355,0.387950115781006,-0.0275));
#1460=CARTESIAN_POINT('',(0.160813524404355,0.387950115781006,-0.0275));
#1461=CARTESIAN_POINT('',(0.160813524404355,0.387950115781006,-0.0225));
#1462=CARTESIAN_POINT('',(0.160813524404355,0.387950115781006,-0.0175));
#1463=CARTESIAN_POINT('',(0.165813524404355,0.387950115781006,-0.0175));
#1464=CARTESIAN_POINT('',(0.165813524404355,0.400450115781006,-0.0175));
#1465=CARTESIAN_POINT('',(0.160813524404355,0.400450115781006,-0.0175));
#1466=CARTESIAN_POINT('',(0.165813524404355,0.400450115781006,-0.0275));
#1467=CARTESIAN_POINT('',(0.160813524404355,0.400450115781006,-0.0275));
#1468=CARTESIAN_POINT('',(0.160813524404355,0.395501331021874,-0.0225));
#1469=CARTESIAN_POINT('',(0.119813524404355,0.400450115781006,-0.02));
#1470=CARTESIAN_POINT('',(0.126813524404355,0.400450115781006,-0.02));
#1471=CARTESIAN_POINT('',(0.126813524404355,0.390450115781006,-0.02));
#1472=CARTESIAN_POINT('',(0.119813524404355,0.390450115781006,-0.02));
#1473=CARTESIAN_POINT('',(0.119813524404355,0.400450115781006,-0.028));
#1474=CARTESIAN_POINT('',(0.119813524404355,0.390450115781006,-0.028));
#1475=CARTESIAN_POINT('',(0.126813524404355,0.390450115781006,-0.028));
#1476=CARTESIAN_POINT('',(0.126813524404355,0.400450115781006,-0.028));
#1477=CARTESIAN_POINT('',(0.119813524404355,0.390450115781006,-0.024));
#1478=CARTESIAN_POINT('',(0.126813524404355,0.390450115781006,-0.024));
#1479=CARTESIAN_POINT('',(0.126813524404355,0.422751331021874,-0.0225));
#1480=CARTESIAN_POINT('',(0.126813524404355,0.395450115781006,-0.024));
#1481=CARTESIAN_POINT('',(0.126813524404355,0.397050115781006,-0.024));
#1482=CARTESIAN_POINT('',(0.123313524404355,0.395450115781006,-0.024));
#1483=CARTESIAN_POINT('',(0.130313524404355,0.395450115781006,-0.024));
#1484=CARTESIAN_POINT('',(0.130313524404355,0.397050115781006,-0.024));
#1485=CARTESIAN_POINT('',(0.130313524404355,0.402150115781006,-0.024));
#1486=MECHANICAL_DESIGN_GEOMETRIC_PRESENTATION_REPRESENTATION('',(#916),
#1487);
#1487=(
GEOMETRIC_REPRESENTATION_CONTEXT(3)
GLOBAL_UNCERTAINTY_ASSIGNED_CONTEXT((#1488))
GLOBAL_UNIT_ASSIGNED_CONTEXT((#1491,#1490,#1489))
REPRESENTATION_CONTEXT('XY1_BOT','TOP_LEVEL_ASSEMBLY_PART')
);
#1488=UNCERTAINTY_MEASURE_WITH_UNIT(LENGTH_MEASURE(1.E-8),#1491,
'DISTANCE_ACCURACY_VALUE','Maximum Tolerance applied to model');
#1489=(
NAMED_UNIT(*)
SI_UNIT($,.STERADIAN.)
SOLID_ANGLE_UNIT()
);
#1490=(
NAMED_UNIT(*)
PLANE_ANGLE_UNIT()
SI_UNIT($,.RADIAN.)
);
#1491=(
LENGTH_UNIT()
NAMED_UNIT(*)
SI_UNIT($,.METRE.)
);
#1492=PRODUCT_DEFINITION_SHAPE('','',#1493);
#1493=PRODUCT_DEFINITION('','',#1495,#1494);
#1494=PRODUCT_DEFINITION_CONTEXT('',#1501,'design');
#1495=PRODUCT_DEFINITION_FORMATION_WITH_SPECIFIED_SOURCE('','',#1497,
 .NOT_KNOWN.);
#1496=PRODUCT_RELATED_PRODUCT_CATEGORY('','',(#1497));
#1497=PRODUCT('XY1_BOT','XY1_BOT','XY1_BOT',(#1499));
#1498=PRODUCT_CATEGORY('','');
#1499=PRODUCT_CONTEXT('',#1501,'mechanical');
#1500=APPLICATION_PROTOCOL_DEFINITION('international standard',
'ap242_managed_model_based_3d_engineering',2020,#1501);
#1501=APPLICATION_CONTEXT('managed model based 3d engineering');
ENDSEC;
END-ISO-10303-21;
