ISO-10303-21;
HEADER;
/* Generated by software containing ST-Developer
 * from STEP Tools, Inc. (www.steptools.com) 
 */
/* OPTION: using custom renumber hook */

FILE_DESCRIPTION(
/* description */ ('STEP AP242 Edition 2',
'CAx-IF Rec.Pracs.---Representation and Presentation of Product Manufa
cturing Information (PMI)---4.0---2014-10-13',
'CAx-IF Rec.Pracs.---3D Tessellated Geometry---0.4---2014-09-14','2;1',
'CAx-IF Rec.Pracs.---User Defined Attributes---1.5---2016-08-15'),
/* implementation_level */ '2;1');

FILE_NAME(
/* name */ 'NOT-618 - Ext Connector',
/* time_stamp */ '2026-07-11T05:54:11Z',
/* author */ (''),
/* organization */ (''),
/* preprocessor_version */ 'ST-DEVELOPER v20',
/* originating_system */ 'ONSHAPE BY PTC INC, 1.217',
/* authorisation */ '  ');

FILE_SCHEMA (('AP242_MANAGED_MODEL_BASED_3D_ENGINEERING_MIM_LF { 1 0 10303 442 3 1 4 }'));
ENDSEC;

DATA;
#10=SHAPE_REPRESENTATION_RELATIONSHIP('','',#807,#11);
#11=ADVANCED_BREP_SHAPE_REPRESENTATION('',(#805),#1301);
#12=CONICAL_SURFACE('',#869,0.00465,0.785398163397421);
#13=CONICAL_SURFACE('',#870,0.00465,0.785398163397414);
#14=CONICAL_SURFACE('',#871,0.00265,0.785398163397476);
#15=CONICAL_SURFACE('',#872,0.00265,0.785398163397483);
#16=CONICAL_SURFACE('',#873,0.00265,0.785398163397469);
#17=CYLINDRICAL_SURFACE('',#858,0.00265);
#18=CYLINDRICAL_SURFACE('',#860,0.00265);
#19=CYLINDRICAL_SURFACE('',#862,0.00265);
#20=CYLINDRICAL_SURFACE('',#864,0.00265);
#21=CYLINDRICAL_SURFACE('',#865,0.00265);
#22=CYLINDRICAL_SURFACE('',#867,0.00265);
#23=CIRCLE('',#815,0.00464999999999993);
#24=CIRCLE('',#816,0.00464999999999993);
#25=CIRCLE('',#817,0.00265);
#26=CIRCLE('',#819,0.00465);
#27=CIRCLE('',#820,0.00465);
#28=CIRCLE('',#821,0.00465);
#29=CIRCLE('',#824,0.00265);
#30=CIRCLE('',#827,0.00265);
#31=CIRCLE('',#829,0.00265);
#32=CIRCLE('',#830,0.00265);
#33=CIRCLE('',#831,0.00265);
#34=CIRCLE('',#833,0.00265);
#35=CIRCLE('',#834,0.00265);
#36=CIRCLE('',#859,0.00265);
#37=CIRCLE('',#861,0.00265);
#38=CIRCLE('',#863,0.00265);
#39=CIRCLE('',#866,0.00265);
#40=CIRCLE('',#868,0.00265);
#41=ORIENTED_EDGE('',*,*,#241,.F.);
#42=ORIENTED_EDGE('',*,*,#242,.T.);
#43=ORIENTED_EDGE('',*,*,#243,.F.);
#44=ORIENTED_EDGE('',*,*,#244,.T.);
#45=ORIENTED_EDGE('',*,*,#245,.T.);
#46=ORIENTED_EDGE('',*,*,#246,.T.);
#47=ORIENTED_EDGE('',*,*,#247,.T.);
#48=ORIENTED_EDGE('',*,*,#248,.T.);
#49=ORIENTED_EDGE('',*,*,#249,.F.);
#50=ORIENTED_EDGE('',*,*,#250,.F.);
#51=ORIENTED_EDGE('',*,*,#251,.T.);
#52=ORIENTED_EDGE('',*,*,#252,.T.);
#53=ORIENTED_EDGE('',*,*,#253,.T.);
#54=ORIENTED_EDGE('',*,*,#254,.T.);
#55=ORIENTED_EDGE('',*,*,#255,.T.);
#56=ORIENTED_EDGE('',*,*,#256,.T.);
#57=ORIENTED_EDGE('',*,*,#257,.F.);
#58=ORIENTED_EDGE('',*,*,#258,.T.);
#59=ORIENTED_EDGE('',*,*,#259,.T.);
#60=ORIENTED_EDGE('',*,*,#260,.F.);
#61=ORIENTED_EDGE('',*,*,#261,.T.);
#62=ORIENTED_EDGE('',*,*,#262,.T.);
#63=ORIENTED_EDGE('',*,*,#263,.T.);
#64=ORIENTED_EDGE('',*,*,#264,.T.);
#65=ORIENTED_EDGE('',*,*,#265,.F.);
#66=ORIENTED_EDGE('',*,*,#266,.T.);
#67=ORIENTED_EDGE('',*,*,#267,.T.);
#68=ORIENTED_EDGE('',*,*,#268,.F.);
#69=ORIENTED_EDGE('',*,*,#269,.T.);
#70=ORIENTED_EDGE('',*,*,#270,.T.);
#71=ORIENTED_EDGE('',*,*,#271,.T.);
#72=ORIENTED_EDGE('',*,*,#272,.T.);
#73=ORIENTED_EDGE('',*,*,#273,.T.);
#74=ORIENTED_EDGE('',*,*,#274,.T.);
#75=ORIENTED_EDGE('',*,*,#275,.T.);
#76=ORIENTED_EDGE('',*,*,#276,.T.);
#77=ORIENTED_EDGE('',*,*,#277,.T.);
#78=ORIENTED_EDGE('',*,*,#278,.T.);
#79=ORIENTED_EDGE('',*,*,#279,.T.);
#80=ORIENTED_EDGE('',*,*,#280,.T.);
#81=ORIENTED_EDGE('',*,*,#281,.T.);
#82=ORIENTED_EDGE('',*,*,#282,.T.);
#83=ORIENTED_EDGE('',*,*,#283,.T.);
#84=ORIENTED_EDGE('',*,*,#284,.T.);
#85=ORIENTED_EDGE('',*,*,#285,.T.);
#86=ORIENTED_EDGE('',*,*,#286,.T.);
#87=ORIENTED_EDGE('',*,*,#287,.F.);
#88=ORIENTED_EDGE('',*,*,#288,.F.);
#89=ORIENTED_EDGE('',*,*,#265,.T.);
#90=ORIENTED_EDGE('',*,*,#289,.T.);
#91=ORIENTED_EDGE('',*,*,#258,.F.);
#92=ORIENTED_EDGE('',*,*,#290,.F.);
#93=ORIENTED_EDGE('',*,*,#291,.T.);
#94=ORIENTED_EDGE('',*,*,#292,.T.);
#95=ORIENTED_EDGE('',*,*,#293,.F.);
#96=ORIENTED_EDGE('',*,*,#294,.T.);
#97=ORIENTED_EDGE('',*,*,#244,.F.);
#98=ORIENTED_EDGE('',*,*,#295,.F.);
#99=ORIENTED_EDGE('',*,*,#290,.T.);
#100=ORIENTED_EDGE('',*,*,#257,.T.);
#101=ORIENTED_EDGE('',*,*,#296,.F.);
#102=ORIENTED_EDGE('',*,*,#266,.F.);
#103=ORIENTED_EDGE('',*,*,#288,.T.);
#104=ORIENTED_EDGE('',*,*,#297,.T.);
#105=ORIENTED_EDGE('',*,*,#260,.T.);
#106=ORIENTED_EDGE('',*,*,#298,.F.);
#107=ORIENTED_EDGE('',*,*,#267,.F.);
#108=ORIENTED_EDGE('',*,*,#296,.T.);
#109=ORIENTED_EDGE('',*,*,#299,.F.);
#110=ORIENTED_EDGE('',*,*,#289,.F.);
#111=ORIENTED_EDGE('',*,*,#268,.T.);
#112=ORIENTED_EDGE('',*,*,#298,.T.);
#113=ORIENTED_EDGE('',*,*,#259,.F.);
#114=ORIENTED_EDGE('',*,*,#300,.T.);
#115=ORIENTED_EDGE('',*,*,#301,.T.);
#116=ORIENTED_EDGE('',*,*,#242,.F.);
#117=ORIENTED_EDGE('',*,*,#302,.T.);
#118=ORIENTED_EDGE('',*,*,#303,.F.);
#119=ORIENTED_EDGE('',*,*,#304,.T.);
#120=ORIENTED_EDGE('',*,*,#251,.F.);
#121=ORIENTED_EDGE('',*,*,#305,.F.);
#122=ORIENTED_EDGE('',*,*,#306,.F.);
#123=ORIENTED_EDGE('',*,*,#307,.F.);
#124=ORIENTED_EDGE('',*,*,#249,.T.);
#125=ORIENTED_EDGE('',*,*,#308,.F.);
#126=ORIENTED_EDGE('',*,*,#292,.F.);
#127=ORIENTED_EDGE('',*,*,#309,.T.);
#128=ORIENTED_EDGE('',*,*,#304,.F.);
#129=ORIENTED_EDGE('',*,*,#310,.F.);
#130=ORIENTED_EDGE('',*,*,#297,.F.);
#131=ORIENTED_EDGE('',*,*,#287,.T.);
#132=ORIENTED_EDGE('',*,*,#308,.T.);
#133=ORIENTED_EDGE('',*,*,#252,.F.);
#134=ORIENTED_EDGE('',*,*,#250,.T.);
#135=ORIENTED_EDGE('',*,*,#309,.F.);
#136=ORIENTED_EDGE('',*,*,#291,.F.);
#137=ORIENTED_EDGE('',*,*,#295,.T.);
#138=ORIENTED_EDGE('',*,*,#243,.T.);
#139=ORIENTED_EDGE('',*,*,#305,.T.);
#140=ORIENTED_EDGE('',*,*,#311,.F.);
#141=ORIENTED_EDGE('',*,*,#293,.T.);
#142=ORIENTED_EDGE('',*,*,#310,.T.);
#143=ORIENTED_EDGE('',*,*,#303,.T.);
#144=ORIENTED_EDGE('',*,*,#312,.F.);
#145=ORIENTED_EDGE('',*,*,#285,.F.);
#146=ORIENTED_EDGE('',*,*,#313,.F.);
#147=ORIENTED_EDGE('',*,*,#245,.F.);
#148=ORIENTED_EDGE('',*,*,#314,.F.);
#149=ORIENTED_EDGE('',*,*,#312,.T.);
#150=ORIENTED_EDGE('',*,*,#315,.F.);
#151=ORIENTED_EDGE('',*,*,#316,.F.);
#152=ORIENTED_EDGE('',*,*,#313,.T.);
#153=ORIENTED_EDGE('',*,*,#317,.F.);
#154=ORIENTED_EDGE('',*,*,#315,.T.);
#155=ORIENTED_EDGE('',*,*,#248,.F.);
#156=ORIENTED_EDGE('',*,*,#318,.F.);
#157=ORIENTED_EDGE('',*,*,#256,.F.);
#158=ORIENTED_EDGE('',*,*,#314,.T.);
#159=ORIENTED_EDGE('',*,*,#255,.F.);
#160=ORIENTED_EDGE('',*,*,#319,.F.);
#161=ORIENTED_EDGE('',*,*,#286,.F.);
#162=ORIENTED_EDGE('',*,*,#320,.F.);
#163=ORIENTED_EDGE('',*,*,#283,.F.);
#164=ORIENTED_EDGE('',*,*,#321,.F.);
#165=ORIENTED_EDGE('',*,*,#271,.F.);
#166=ORIENTED_EDGE('',*,*,#317,.T.);
#167=ORIENTED_EDGE('',*,*,#284,.F.);
#168=ORIENTED_EDGE('',*,*,#322,.F.);
#169=ORIENTED_EDGE('',*,*,#261,.F.);
#170=ORIENTED_EDGE('',*,*,#316,.T.);
#171=ORIENTED_EDGE('',*,*,#264,.F.);
#172=ORIENTED_EDGE('',*,*,#323,.F.);
#173=ORIENTED_EDGE('',*,*,#246,.F.);
#174=ORIENTED_EDGE('',*,*,#324,.F.);
#175=ORIENTED_EDGE('',*,*,#247,.F.);
#176=ORIENTED_EDGE('',*,*,#325,.F.);
#177=ORIENTED_EDGE('',*,*,#276,.F.);
#178=ORIENTED_EDGE('',*,*,#318,.T.);
#179=ORIENTED_EDGE('',*,*,#324,.T.);
#180=ORIENTED_EDGE('',*,*,#326,.F.);
#181=ORIENTED_EDGE('',*,*,#321,.T.);
#182=ORIENTED_EDGE('',*,*,#319,.T.);
#183=ORIENTED_EDGE('',*,*,#327,.F.);
#184=ORIENTED_EDGE('',*,*,#322,.T.);
#185=ORIENTED_EDGE('',*,*,#320,.T.);
#186=ORIENTED_EDGE('',*,*,#328,.F.);
#187=ORIENTED_EDGE('',*,*,#325,.T.);
#188=ORIENTED_EDGE('',*,*,#323,.T.);
#189=ORIENTED_EDGE('',*,*,#329,.F.);
#190=ORIENTED_EDGE('',*,*,#326,.T.);
#191=ORIENTED_EDGE('',*,*,#279,.F.);
#192=ORIENTED_EDGE('',*,*,#330,.F.);
#193=ORIENTED_EDGE('',*,*,#253,.F.);
#194=ORIENTED_EDGE('',*,*,#327,.T.);
#195=ORIENTED_EDGE('',*,*,#254,.F.);
#196=ORIENTED_EDGE('',*,*,#331,.F.);
#197=ORIENTED_EDGE('',*,*,#272,.F.);
#198=ORIENTED_EDGE('',*,*,#328,.T.);
#199=ORIENTED_EDGE('',*,*,#270,.F.);
#200=ORIENTED_EDGE('',*,*,#332,.F.);
#201=ORIENTED_EDGE('',*,*,#262,.F.);
#202=ORIENTED_EDGE('',*,*,#329,.T.);
#203=ORIENTED_EDGE('',*,*,#263,.F.);
#204=ORIENTED_EDGE('',*,*,#333,.F.);
#205=ORIENTED_EDGE('',*,*,#277,.F.);
#206=ORIENTED_EDGE('',*,*,#331,.T.);
#207=ORIENTED_EDGE('',*,*,#330,.T.);
#208=ORIENTED_EDGE('',*,*,#334,.F.);
#209=ORIENTED_EDGE('',*,*,#333,.T.);
#210=ORIENTED_EDGE('',*,*,#332,.T.);
#211=ORIENTED_EDGE('',*,*,#335,.F.);
#212=ORIENTED_EDGE('',*,*,#334,.T.);
#213=ORIENTED_EDGE('',*,*,#278,.F.);
#214=ORIENTED_EDGE('',*,*,#335,.T.);
#215=ORIENTED_EDGE('',*,*,#269,.F.);
#216=ORIENTED_EDGE('',*,*,#336,.T.);
#217=ORIENTED_EDGE('',*,*,#241,.T.);
#218=ORIENTED_EDGE('',*,*,#294,.F.);
#219=ORIENTED_EDGE('',*,*,#311,.T.);
#220=ORIENTED_EDGE('',*,*,#302,.F.);
#221=ORIENTED_EDGE('',*,*,#337,.T.);
#222=ORIENTED_EDGE('',*,*,#307,.T.);
#223=ORIENTED_EDGE('',*,*,#338,.T.);
#224=ORIENTED_EDGE('',*,*,#306,.T.);
#225=ORIENTED_EDGE('',*,*,#301,.F.);
#226=ORIENTED_EDGE('',*,*,#275,.F.);
#227=ORIENTED_EDGE('',*,*,#339,.T.);
#228=ORIENTED_EDGE('',*,*,#300,.F.);
#229=ORIENTED_EDGE('',*,*,#340,.T.);
#230=ORIENTED_EDGE('',*,*,#299,.T.);
#231=ORIENTED_EDGE('',*,*,#336,.F.);
#232=ORIENTED_EDGE('',*,*,#273,.F.);
#233=ORIENTED_EDGE('',*,*,#339,.F.);
#234=ORIENTED_EDGE('',*,*,#274,.F.);
#235=ORIENTED_EDGE('',*,*,#280,.F.);
#236=ORIENTED_EDGE('',*,*,#340,.F.);
#237=ORIENTED_EDGE('',*,*,#281,.F.);
#238=ORIENTED_EDGE('',*,*,#337,.F.);
#239=ORIENTED_EDGE('',*,*,#282,.F.);
#240=ORIENTED_EDGE('',*,*,#338,.F.);
#241=EDGE_CURVE('',#341,#342,#405,.T.);
#242=EDGE_CURVE('',#341,#343,#406,.T.);
#243=EDGE_CURVE('',#344,#343,#407,.T.);
#244=EDGE_CURVE('',#344,#342,#408,.T.);
#245=EDGE_CURVE('',#345,#346,#409,.T.);
#246=EDGE_CURVE('',#346,#347,#410,.T.);
#247=EDGE_CURVE('',#347,#348,#411,.T.);
#248=EDGE_CURVE('',#348,#345,#412,.T.);
#249=EDGE_CURVE('',#349,#350,#413,.T.);
#250=EDGE_CURVE('',#351,#349,#414,.T.);
#251=EDGE_CURVE('',#351,#352,#415,.T.);
#252=EDGE_CURVE('',#352,#350,#416,.T.);
#253=EDGE_CURVE('',#353,#354,#417,.T.);
#254=EDGE_CURVE('',#354,#355,#418,.T.);
#255=EDGE_CURVE('',#355,#356,#419,.T.);
#256=EDGE_CURVE('',#356,#353,#420,.T.);
#257=EDGE_CURVE('',#357,#358,#421,.T.);
#258=EDGE_CURVE('',#357,#359,#422,.T.);
#259=EDGE_CURVE('',#359,#360,#423,.T.);
#260=EDGE_CURVE('',#358,#360,#424,.T.);
#261=EDGE_CURVE('',#361,#362,#425,.T.);
#262=EDGE_CURVE('',#362,#363,#426,.T.);
#263=EDGE_CURVE('',#363,#364,#427,.T.);
#264=EDGE_CURVE('',#364,#361,#428,.T.);
#265=EDGE_CURVE('',#365,#366,#429,.T.);
#266=EDGE_CURVE('',#365,#367,#430,.T.);
#267=EDGE_CURVE('',#367,#368,#431,.T.);
#268=EDGE_CURVE('',#366,#368,#432,.T.);
#269=EDGE_CURVE('',#369,#370,#433,.T.);
#270=EDGE_CURVE('',#370,#371,#434,.T.);
#271=EDGE_CURVE('',#371,#372,#435,.T.);
#272=EDGE_CURVE('',#372,#369,#436,.T.);
#273=EDGE_CURVE('',#373,#373,#23,.T.);
#274=EDGE_CURVE('',#374,#374,#24,.T.);
#275=EDGE_CURVE('',#375,#375,#25,.T.);
#276=EDGE_CURVE('',#376,#377,#437,.T.);
#277=EDGE_CURVE('',#377,#378,#438,.T.);
#278=EDGE_CURVE('',#378,#379,#439,.T.);
#279=EDGE_CURVE('',#379,#376,#440,.T.);
#280=EDGE_CURVE('',#380,#380,#26,.F.);
#281=EDGE_CURVE('',#381,#381,#27,.F.);
#282=EDGE_CURVE('',#382,#382,#28,.F.);
#283=EDGE_CURVE('',#383,#384,#441,.T.);
#284=EDGE_CURVE('',#384,#385,#442,.T.);
#285=EDGE_CURVE('',#385,#386,#443,.T.);
#286=EDGE_CURVE('',#386,#383,#444,.T.);
#287=EDGE_CURVE('',#387,#388,#445,.T.);
#288=EDGE_CURVE('',#365,#387,#446,.T.);
#289=EDGE_CURVE('',#366,#359,#447,.T.);
#290=EDGE_CURVE('',#389,#357,#448,.T.);
#291=EDGE_CURVE('',#389,#390,#449,.T.);
#292=EDGE_CURVE('',#390,#388,#450,.T.);
#293=EDGE_CURVE('',#391,#392,#451,.T.);
#294=EDGE_CURVE('',#391,#342,#29,.T.);
#295=EDGE_CURVE('',#389,#344,#452,.T.);
#296=EDGE_CURVE('',#367,#358,#453,.T.);
#297=EDGE_CURVE('',#387,#392,#454,.T.);
#298=EDGE_CURVE('',#368,#360,#455,.T.);
#299=EDGE_CURVE('',#393,#393,#30,.T.);
#300=EDGE_CURVE('',#394,#394,#31,.T.);
#301=EDGE_CURVE('',#395,#395,#32,.T.);
#302=EDGE_CURVE('',#341,#396,#33,.T.);
#303=EDGE_CURVE('',#397,#396,#456,.T.);
#304=EDGE_CURVE('',#397,#352,#457,.T.);
#305=EDGE_CURVE('',#343,#351,#458,.T.);
#306=EDGE_CURVE('',#398,#398,#34,.T.);
#307=EDGE_CURVE('',#399,#399,#35,.T.);
#308=EDGE_CURVE('',#388,#350,#459,.T.);
#309=EDGE_CURVE('',#390,#349,#460,.T.);
#310=EDGE_CURVE('',#392,#397,#461,.T.);
#311=EDGE_CURVE('',#391,#396,#462,.F.);
#312=EDGE_CURVE('',#386,#345,#463,.T.);
#313=EDGE_CURVE('',#346,#385,#464,.T.);
#314=EDGE_CURVE('',#386,#356,#465,.T.);
#315=EDGE_CURVE('',#356,#345,#466,.F.);
#316=EDGE_CURVE('',#346,#361,#467,.T.);
#317=EDGE_CURVE('',#361,#385,#468,.F.);
#318=EDGE_CURVE('',#353,#348,#469,.T.);
#319=EDGE_CURVE('',#383,#355,#470,.F.);
#320=EDGE_CURVE('',#384,#371,#471,.F.);
#321=EDGE_CURVE('',#372,#383,#472,.F.);
#322=EDGE_CURVE('',#362,#384,#473,.T.);
#323=EDGE_CURVE('',#347,#364,#474,.F.);
#324=EDGE_CURVE('',#348,#376,#475,.F.);
#325=EDGE_CURVE('',#377,#347,#476,.F.);
#326=EDGE_CURVE('',#353,#376,#477,.F.);
#327=EDGE_CURVE('',#372,#355,#478,.T.);
#328=EDGE_CURVE('',#362,#371,#479,.F.);
#329=EDGE_CURVE('',#377,#364,#480,.T.);
#330=EDGE_CURVE('',#354,#379,#481,.T.);
#331=EDGE_CURVE('',#369,#354,#482,.F.);
#332=EDGE_CURVE('',#363,#370,#483,.T.);
#333=EDGE_CURVE('',#378,#363,#484,.F.);
#334=EDGE_CURVE('',#369,#379,#485,.F.);
#335=EDGE_CURVE('',#378,#370,#486,.F.);
#336=EDGE_CURVE('',#400,#400,#36,.F.);
#337=EDGE_CURVE('',#401,#401,#37,.T.);
#338=EDGE_CURVE('',#402,#402,#38,.T.);
#339=EDGE_CURVE('',#403,#403,#39,.F.);
#340=EDGE_CURVE('',#404,#404,#40,.T.);
#341=VERTEX_POINT('',#1091);
#342=VERTEX_POINT('',#1092);
#343=VERTEX_POINT('',#1094);
#344=VERTEX_POINT('',#1096);
#345=VERTEX_POINT('',#1100);
#346=VERTEX_POINT('',#1101);
#347=VERTEX_POINT('',#1103);
#348=VERTEX_POINT('',#1105);
#349=VERTEX_POINT('',#1108);
#350=VERTEX_POINT('',#1109);
#351=VERTEX_POINT('',#1111);
#352=VERTEX_POINT('',#1113);
#353=VERTEX_POINT('',#1117);
#354=VERTEX_POINT('',#1118);
#355=VERTEX_POINT('',#1120);
#356=VERTEX_POINT('',#1122);
#357=VERTEX_POINT('',#1125);
#358=VERTEX_POINT('',#1126);
#359=VERTEX_POINT('',#1128);
#360=VERTEX_POINT('',#1130);
#361=VERTEX_POINT('',#1134);
#362=VERTEX_POINT('',#1135);
#363=VERTEX_POINT('',#1137);
#364=VERTEX_POINT('',#1139);
#365=VERTEX_POINT('',#1142);
#366=VERTEX_POINT('',#1143);
#367=VERTEX_POINT('',#1145);
#368=VERTEX_POINT('',#1147);
#369=VERTEX_POINT('',#1151);
#370=VERTEX_POINT('',#1152);
#371=VERTEX_POINT('',#1154);
#372=VERTEX_POINT('',#1156);
#373=VERTEX_POINT('',#1160);
#374=VERTEX_POINT('',#1162);
#375=VERTEX_POINT('',#1164);
#376=VERTEX_POINT('',#1166);
#377=VERTEX_POINT('',#1167);
#378=VERTEX_POINT('',#1169);
#379=VERTEX_POINT('',#1171);
#380=VERTEX_POINT('',#1175);
#381=VERTEX_POINT('',#1177);
#382=VERTEX_POINT('',#1179);
#383=VERTEX_POINT('',#1181);
#384=VERTEX_POINT('',#1182);
#385=VERTEX_POINT('',#1184);
#386=VERTEX_POINT('',#1186);
#387=VERTEX_POINT('',#1190);
#388=VERTEX_POINT('',#1191);
#389=VERTEX_POINT('',#1195);
#390=VERTEX_POINT('',#1197);
#391=VERTEX_POINT('',#1201);
#392=VERTEX_POINT('',#1202);
#393=VERTEX_POINT('',#1211);
#394=VERTEX_POINT('',#1214);
#395=VERTEX_POINT('',#1216);
#396=VERTEX_POINT('',#1218);
#397=VERTEX_POINT('',#1220);
#398=VERTEX_POINT('',#1225);
#399=VERTEX_POINT('',#1227);
#400=VERTEX_POINT('',#1281);
#401=VERTEX_POINT('',#1284);
#402=VERTEX_POINT('',#1287);
#403=VERTEX_POINT('',#1291);
#404=VERTEX_POINT('',#1294);
#405=LINE('',#1090,#487);
#406=LINE('',#1093,#488);
#407=LINE('',#1095,#489);
#408=LINE('',#1097,#490);
#409=LINE('',#1099,#491);
#410=LINE('',#1102,#492);
#411=LINE('',#1104,#493);
#412=LINE('',#1106,#494);
#413=LINE('',#1107,#495);
#414=LINE('',#1110,#496);
#415=LINE('',#1112,#497);
#416=LINE('',#1114,#498);
#417=LINE('',#1116,#499);
#418=LINE('',#1119,#500);
#419=LINE('',#1121,#501);
#420=LINE('',#1123,#502);
#421=LINE('',#1124,#503);
#422=LINE('',#1127,#504);
#423=LINE('',#1129,#505);
#424=LINE('',#1131,#506);
#425=LINE('',#1133,#507);
#426=LINE('',#1136,#508);
#427=LINE('',#1138,#509);
#428=LINE('',#1140,#510);
#429=LINE('',#1141,#511);
#430=LINE('',#1144,#512);
#431=LINE('',#1146,#513);
#432=LINE('',#1148,#514);
#433=LINE('',#1150,#515);
#434=LINE('',#1153,#516);
#435=LINE('',#1155,#517);
#436=LINE('',#1157,#518);
#437=LINE('',#1165,#519);
#438=LINE('',#1168,#520);
#439=LINE('',#1170,#521);
#440=LINE('',#1172,#522);
#441=LINE('',#1180,#523);
#442=LINE('',#1183,#524);
#443=LINE('',#1185,#525);
#444=LINE('',#1187,#526);
#445=LINE('',#1189,#527);
#446=LINE('',#1192,#528);
#447=LINE('',#1193,#529);
#448=LINE('',#1194,#530);
#449=LINE('',#1196,#531);
#450=LINE('',#1198,#532);
#451=LINE('',#1200,#533);
#452=LINE('',#1204,#534);
#453=LINE('',#1205,#535);
#454=LINE('',#1206,#536);
#455=LINE('',#1208,#537);
#456=LINE('',#1219,#538);
#457=LINE('',#1221,#539);
#458=LINE('',#1222,#540);
#459=LINE('',#1228,#541);
#460=LINE('',#1229,#542);
#461=LINE('',#1231,#543);
#462=LINE('',#1234,#544);
#463=LINE('',#1236,#545);
#464=LINE('',#1237,#546);
#465=LINE('',#1239,#547);
#466=LINE('',#1240,#548);
#467=LINE('',#1242,#549);
#468=LINE('',#1243,#550);
#469=LINE('',#1245,#551);
#470=LINE('',#1247,#552);
#471=LINE('',#1249,#553);
#472=LINE('',#1250,#554);
#473=LINE('',#1252,#555);
#474=LINE('',#1254,#556);
#475=LINE('',#1256,#557);
#476=LINE('',#1257,#558);
#477=LINE('',#1259,#559);
#478=LINE('',#1261,#560);
#479=LINE('',#1263,#561);
#480=LINE('',#1265,#562);
#481=LINE('',#1267,#563);
#482=LINE('',#1269,#564);
#483=LINE('',#1271,#565);
#484=LINE('',#1273,#566);
#485=LINE('',#1275,#567);
#486=LINE('',#1277,#568);
#487=VECTOR('',#878,1.);
#488=VECTOR('',#879,1.);
#489=VECTOR('',#880,1.);
#490=VECTOR('',#881,1.);
#491=VECTOR('',#884,1.);
#492=VECTOR('',#885,1.);
#493=VECTOR('',#886,1.);
#494=VECTOR('',#887,1.);
#495=VECTOR('',#888,1.);
#496=VECTOR('',#889,1.);
#497=VECTOR('',#890,1.);
#498=VECTOR('',#891,1.);
#499=VECTOR('',#894,1.);
#500=VECTOR('',#895,1.);
#501=VECTOR('',#896,1.);
#502=VECTOR('',#897,1.);
#503=VECTOR('',#898,1.);
#504=VECTOR('',#899,1.);
#505=VECTOR('',#900,1.);
#506=VECTOR('',#901,1.);
#507=VECTOR('',#904,1.);
#508=VECTOR('',#905,1.);
#509=VECTOR('',#906,1.);
#510=VECTOR('',#907,1.);
#511=VECTOR('',#908,1.);
#512=VECTOR('',#909,1.);
#513=VECTOR('',#910,1.);
#514=VECTOR('',#911,1.);
#515=VECTOR('',#914,1.);
#516=VECTOR('',#915,1.);
#517=VECTOR('',#916,1.);
#518=VECTOR('',#917,1.);
#519=VECTOR('',#926,1.);
#520=VECTOR('',#927,1.);
#521=VECTOR('',#928,1.);
#522=VECTOR('',#929,1.);
#523=VECTOR('',#938,1.);
#524=VECTOR('',#939,1.);
#525=VECTOR('',#940,1.);
#526=VECTOR('',#941,1.);
#527=VECTOR('',#944,1.);
#528=VECTOR('',#945,1.);
#529=VECTOR('',#946,1.);
#530=VECTOR('',#947,1.);
#531=VECTOR('',#948,1.);
#532=VECTOR('',#949,1.);
#533=VECTOR('',#952,1.);
#534=VECTOR('',#955,1.);
#535=VECTOR('',#956,1.);
#536=VECTOR('',#957,1.);
#537=VECTOR('',#960,1.);
#538=VECTOR('',#973,1.);
#539=VECTOR('',#974,1.);
#540=VECTOR('',#975,1.);
#541=VECTOR('',#982,1.);
#542=VECTOR('',#983,1.);
#543=VECTOR('',#986,1.);
#544=VECTOR('',#991,1.);
#545=VECTOR('',#994,1.);
#546=VECTOR('',#995,1.);
#547=VECTOR('',#998,1.);
#548=VECTOR('',#999,1.);
#549=VECTOR('',#1002,1.);
#550=VECTOR('',#1003,1.);
#551=VECTOR('',#1006,1.);
#552=VECTOR('',#1009,1.);
#553=VECTOR('',#1012,1.);
#554=VECTOR('',#1013,1.);
#555=VECTOR('',#1016,1.);
#556=VECTOR('',#1019,1.);
#557=VECTOR('',#1022,1.);
#558=VECTOR('',#1023,1.);
#559=VECTOR('',#1026,1.);
#560=VECTOR('',#1029,1.);
#561=VECTOR('',#1032,1.);
#562=VECTOR('',#1035,1.);
#563=VECTOR('',#1038,1.);
#564=VECTOR('',#1041,1.);
#565=VECTOR('',#1044,1.);
#566=VECTOR('',#1047,1.);
#567=VECTOR('',#1050,1.);
#568=VECTOR('',#1053,1.);
#569=EDGE_LOOP('',(#41,#42,#43,#44));
#570=EDGE_LOOP('',(#45,#46,#47,#48));
#571=EDGE_LOOP('',(#49,#50,#51,#52));
#572=EDGE_LOOP('',(#53,#54,#55,#56));
#573=EDGE_LOOP('',(#57,#58,#59,#60));
#574=EDGE_LOOP('',(#61,#62,#63,#64));
#575=EDGE_LOOP('',(#65,#66,#67,#68));
#576=EDGE_LOOP('',(#69,#70,#71,#72));
#577=EDGE_LOOP('',(#73));
#578=EDGE_LOOP('',(#74));
#579=EDGE_LOOP('',(#75));
#580=EDGE_LOOP('',(#76,#77,#78,#79));
#581=EDGE_LOOP('',(#80));
#582=EDGE_LOOP('',(#81));
#583=EDGE_LOOP('',(#82));
#584=EDGE_LOOP('',(#83,#84,#85,#86));
#585=EDGE_LOOP('',(#87,#88,#89,#90,#91,#92,#93,#94));
#586=EDGE_LOOP('',(#95,#96,#97,#98,#99,#100,#101,#102,#103,#104));
#587=EDGE_LOOP('',(#105,#106,#107,#108));
#588=EDGE_LOOP('',(#109));
#589=EDGE_LOOP('',(#110,#111,#112,#113));
#590=EDGE_LOOP('',(#114));
#591=EDGE_LOOP('',(#115));
#592=EDGE_LOOP('',(#116,#117,#118,#119,#120,#121));
#593=EDGE_LOOP('',(#122));
#594=EDGE_LOOP('',(#123));
#595=EDGE_LOOP('',(#124,#125,#126,#127));
#596=EDGE_LOOP('',(#128,#129,#130,#131,#132,#133));
#597=EDGE_LOOP('',(#134,#135,#136,#137,#138,#139));
#598=EDGE_LOOP('',(#140,#141,#142,#143));
#599=EDGE_LOOP('',(#144,#145,#146,#147));
#600=EDGE_LOOP('',(#148,#149,#150));
#601=EDGE_LOOP('',(#151,#152,#153));
#602=EDGE_LOOP('',(#154,#155,#156,#157));
#603=EDGE_LOOP('',(#158,#159,#160,#161));
#604=EDGE_LOOP('',(#162,#163,#164,#165));
#605=EDGE_LOOP('',(#166,#167,#168,#169));
#606=EDGE_LOOP('',(#170,#171,#172,#173));
#607=EDGE_LOOP('',(#174,#175,#176,#177));
#608=EDGE_LOOP('',(#178,#179,#180));
#609=EDGE_LOOP('',(#181,#182,#183));
#610=EDGE_LOOP('',(#184,#185,#186));
#611=EDGE_LOOP('',(#187,#188,#189));
#612=EDGE_LOOP('',(#190,#191,#192,#193));
#613=EDGE_LOOP('',(#194,#195,#196,#197));
#614=EDGE_LOOP('',(#198,#199,#200,#201));
#615=EDGE_LOOP('',(#202,#203,#204,#205));
#616=EDGE_LOOP('',(#206,#207,#208));
#617=EDGE_LOOP('',(#209,#210,#211));
#618=EDGE_LOOP('',(#212,#213,#214,#215));
#619=EDGE_LOOP('',(#216));
#620=EDGE_LOOP('',(#217,#218,#219,#220));
#621=EDGE_LOOP('',(#221));
#622=EDGE_LOOP('',(#222));
#623=EDGE_LOOP('',(#223));
#624=EDGE_LOOP('',(#224));
#625=EDGE_LOOP('',(#225));
#626=EDGE_LOOP('',(#226));
#627=EDGE_LOOP('',(#227));
#628=EDGE_LOOP('',(#228));
#629=EDGE_LOOP('',(#229));
#630=EDGE_LOOP('',(#230));
#631=EDGE_LOOP('',(#231));
#632=EDGE_LOOP('',(#232));
#633=EDGE_LOOP('',(#233));
#634=EDGE_LOOP('',(#234));
#635=EDGE_LOOP('',(#235));
#636=EDGE_LOOP('',(#236));
#637=EDGE_LOOP('',(#237));
#638=EDGE_LOOP('',(#238));
#639=EDGE_LOOP('',(#239));
#640=EDGE_LOOP('',(#240));
#641=FACE_BOUND('',#569,.T.);
#642=FACE_BOUND('',#570,.T.);
#643=FACE_BOUND('',#571,.T.);
#644=FACE_BOUND('',#572,.T.);
#645=FACE_BOUND('',#573,.T.);
#646=FACE_BOUND('',#574,.T.);
#647=FACE_BOUND('',#575,.T.);
#648=FACE_BOUND('',#576,.T.);
#649=FACE_BOUND('',#577,.T.);
#650=FACE_BOUND('',#578,.T.);
#651=FACE_BOUND('',#579,.T.);
#652=FACE_BOUND('',#580,.T.);
#653=FACE_BOUND('',#581,.T.);
#654=FACE_BOUND('',#582,.T.);
#655=FACE_BOUND('',#583,.T.);
#656=FACE_BOUND('',#584,.T.);
#657=FACE_BOUND('',#585,.T.);
#658=FACE_BOUND('',#586,.T.);
#659=FACE_BOUND('',#587,.T.);
#660=FACE_BOUND('',#588,.T.);
#661=FACE_BOUND('',#589,.T.);
#662=FACE_BOUND('',#590,.T.);
#663=FACE_BOUND('',#591,.T.);
#664=FACE_BOUND('',#592,.T.);
#665=FACE_BOUND('',#593,.T.);
#666=FACE_BOUND('',#594,.T.);
#667=FACE_BOUND('',#595,.T.);
#668=FACE_BOUND('',#596,.T.);
#669=FACE_BOUND('',#597,.T.);
#670=FACE_BOUND('',#598,.T.);
#671=FACE_BOUND('',#599,.T.);
#672=FACE_BOUND('',#600,.T.);
#673=FACE_BOUND('',#601,.T.);
#674=FACE_BOUND('',#602,.T.);
#675=FACE_BOUND('',#603,.T.);
#676=FACE_BOUND('',#604,.T.);
#677=FACE_BOUND('',#605,.T.);
#678=FACE_BOUND('',#606,.T.);
#679=FACE_BOUND('',#607,.T.);
#680=FACE_BOUND('',#608,.T.);
#681=FACE_BOUND('',#609,.T.);
#682=FACE_BOUND('',#610,.T.);
#683=FACE_BOUND('',#611,.T.);
#684=FACE_BOUND('',#612,.T.);
#685=FACE_BOUND('',#613,.T.);
#686=FACE_BOUND('',#614,.T.);
#687=FACE_BOUND('',#615,.T.);
#688=FACE_BOUND('',#616,.T.);
#689=FACE_BOUND('',#617,.T.);
#690=FACE_BOUND('',#618,.T.);
#691=FACE_BOUND('',#619,.T.);
#692=FACE_BOUND('',#620,.T.);
#693=FACE_BOUND('',#621,.T.);
#694=FACE_BOUND('',#622,.T.);
#695=FACE_BOUND('',#623,.T.);
#696=FACE_BOUND('',#624,.T.);
#697=FACE_BOUND('',#625,.T.);
#698=FACE_BOUND('',#626,.T.);
#699=FACE_BOUND('',#627,.T.);
#700=FACE_BOUND('',#628,.T.);
#701=FACE_BOUND('',#629,.T.);
#702=FACE_BOUND('',#630,.T.);
#703=FACE_BOUND('',#631,.T.);
#704=FACE_BOUND('',#632,.T.);
#705=FACE_BOUND('',#633,.T.);
#706=FACE_BOUND('',#634,.T.);
#707=FACE_BOUND('',#635,.T.);
#708=FACE_BOUND('',#636,.T.);
#709=FACE_BOUND('',#637,.T.);
#710=FACE_BOUND('',#638,.T.);
#711=FACE_BOUND('',#639,.T.);
#712=FACE_BOUND('',#640,.T.);
#713=PLANE('',#809);
#714=PLANE('',#810);
#715=PLANE('',#811);
#716=PLANE('',#812);
#717=PLANE('',#813);
#718=PLANE('',#814);
#719=PLANE('',#818);
#720=PLANE('',#822);
#721=PLANE('',#823);
#722=PLANE('',#825);
#723=PLANE('',#826);
#724=PLANE('',#828);
#725=PLANE('',#832);
#726=PLANE('',#835);
#727=PLANE('',#836);
#728=PLANE('',#837);
#729=PLANE('',#838);
#730=PLANE('',#839);
#731=PLANE('',#840);
#732=PLANE('',#841);
#733=PLANE('',#842);
#734=PLANE('',#843);
#735=PLANE('',#844);
#736=PLANE('',#845);
#737=PLANE('',#846);
#738=PLANE('',#847);
#739=PLANE('',#848);
#740=PLANE('',#849);
#741=PLANE('',#850);
#742=PLANE('',#851);
#743=PLANE('',#852);
#744=PLANE('',#853);
#745=PLANE('',#854);
#746=PLANE('',#855);
#747=PLANE('',#856);
#748=PLANE('',#857);
#749=ADVANCED_FACE('',(#641),#713,.T.);
#750=ADVANCED_FACE('',(#642,#643),#714,.F.);
#751=ADVANCED_FACE('',(#644,#645),#715,.T.);
#752=ADVANCED_FACE('',(#646,#647),#716,.F.);
#753=ADVANCED_FACE('',(#648),#717,.T.);
#754=ADVANCED_FACE('',(#649,#650,#651,#652),#718,.F.);
#755=ADVANCED_FACE('',(#653,#654,#655,#656),#719,.T.);
#756=ADVANCED_FACE('',(#657),#720,.T.);
#757=ADVANCED_FACE('',(#658),#721,.F.);
#758=ADVANCED_FACE('',(#659),#722,.F.);
#759=ADVANCED_FACE('',(#660,#661),#723,.T.);
#760=ADVANCED_FACE('',(#662,#663,#664),#724,.F.);
#761=ADVANCED_FACE('',(#665,#666,#667),#725,.T.);
#762=ADVANCED_FACE('',(#668),#726,.F.);
#763=ADVANCED_FACE('',(#669),#727,.T.);
#764=ADVANCED_FACE('',(#670),#728,.T.);
#765=ADVANCED_FACE('',(#671),#729,.T.);
#766=ADVANCED_FACE('',(#672),#730,.T.);
#767=ADVANCED_FACE('',(#673),#731,.T.);
#768=ADVANCED_FACE('',(#674),#732,.T.);
#769=ADVANCED_FACE('',(#675),#733,.F.);
#770=ADVANCED_FACE('',(#676),#734,.F.);
#771=ADVANCED_FACE('',(#677),#735,.T.);
#772=ADVANCED_FACE('',(#678),#736,.F.);
#773=ADVANCED_FACE('',(#679),#737,.F.);
#774=ADVANCED_FACE('',(#680),#738,.T.);
#775=ADVANCED_FACE('',(#681),#739,.T.);
#776=ADVANCED_FACE('',(#682),#740,.T.);
#777=ADVANCED_FACE('',(#683),#741,.T.);
#778=ADVANCED_FACE('',(#684),#742,.T.);
#779=ADVANCED_FACE('',(#685),#743,.F.);
#780=ADVANCED_FACE('',(#686),#744,.T.);
#781=ADVANCED_FACE('',(#687),#745,.F.);
#782=ADVANCED_FACE('',(#688),#746,.T.);
#783=ADVANCED_FACE('',(#689),#747,.T.);
#784=ADVANCED_FACE('',(#690),#748,.T.);
#785=ADVANCED_FACE('',(#691,#692),#17,.F.);
#786=ADVANCED_FACE('',(#693,#694),#18,.F.);
#787=ADVANCED_FACE('',(#695,#696),#19,.F.);
#788=ADVANCED_FACE('',(#697,#698),#20,.F.);
#789=ADVANCED_FACE('',(#699,#700),#21,.F.);
#790=ADVANCED_FACE('',(#701,#702),#22,.F.);
#791=ADVANCED_FACE('',(#703,#704),#12,.F.);
#792=ADVANCED_FACE('',(#705,#706),#13,.F.);
#793=ADVANCED_FACE('',(#707,#708),#14,.F.);
#794=ADVANCED_FACE('',(#709,#710),#15,.F.);
#795=ADVANCED_FACE('',(#711,#712),#16,.F.);
#796=CLOSED_SHELL('',(#749,#750,#751,#752,#753,#754,#755,#756,#757,#758,
#759,#760,#761,#762,#763,#764,#765,#766,#767,#768,#769,#770,#771,#772,#773,
#774,#775,#776,#777,#778,#779,#780,#781,#782,#783,#784,#785,#786,#787,#788,
#789,#790,#791,#792,#793,#794,#795));
#797=STYLED_ITEM('',(#798),#805);
#798=PRESENTATION_STYLE_ASSIGNMENT((#799));
#799=SURFACE_STYLE_USAGE(.BOTH.,#800);
#800=SURFACE_SIDE_STYLE('',(#801));
#801=SURFACE_STYLE_FILL_AREA(#802);
#802=FILL_AREA_STYLE('',(#803));
#803=FILL_AREA_STYLE_COLOUR('',#804);
#804=COLOUR_RGB('',0.866666666666667,0.32156862745098,0.156862745098039);
#805=MANIFOLD_SOLID_BREP('Ext Connector',#796);
#806=SHAPE_DEFINITION_REPRESENTATION(#1306,#807);
#807=SHAPE_REPRESENTATION('Ext Connector',(#808),#1301);
#808=AXIS2_PLACEMENT_3D('',#1088,#874,#875);
#809=AXIS2_PLACEMENT_3D('',#1089,#876,#877);
#810=AXIS2_PLACEMENT_3D('',#1098,#882,#883);
#811=AXIS2_PLACEMENT_3D('',#1115,#892,#893);
#812=AXIS2_PLACEMENT_3D('',#1132,#902,#903);
#813=AXIS2_PLACEMENT_3D('',#1149,#912,#913);
#814=AXIS2_PLACEMENT_3D('',#1158,#918,#919);
#815=AXIS2_PLACEMENT_3D('',#1159,#920,#921);
#816=AXIS2_PLACEMENT_3D('',#1161,#922,#923);
#817=AXIS2_PLACEMENT_3D('',#1163,#924,#925);
#818=AXIS2_PLACEMENT_3D('',#1173,#930,#931);
#819=AXIS2_PLACEMENT_3D('',#1174,#932,#933);
#820=AXIS2_PLACEMENT_3D('',#1176,#934,#935);
#821=AXIS2_PLACEMENT_3D('',#1178,#936,#937);
#822=AXIS2_PLACEMENT_3D('',#1188,#942,#943);
#823=AXIS2_PLACEMENT_3D('',#1199,#950,#951);
#824=AXIS2_PLACEMENT_3D('',#1203,#953,#954);
#825=AXIS2_PLACEMENT_3D('',#1207,#958,#959);
#826=AXIS2_PLACEMENT_3D('',#1209,#961,#962);
#827=AXIS2_PLACEMENT_3D('',#1210,#963,#964);
#828=AXIS2_PLACEMENT_3D('',#1212,#965,#966);
#829=AXIS2_PLACEMENT_3D('',#1213,#967,#968);
#830=AXIS2_PLACEMENT_3D('',#1215,#969,#970);
#831=AXIS2_PLACEMENT_3D('',#1217,#971,#972);
#832=AXIS2_PLACEMENT_3D('',#1223,#976,#977);
#833=AXIS2_PLACEMENT_3D('',#1224,#978,#979);
#834=AXIS2_PLACEMENT_3D('',#1226,#980,#981);
#835=AXIS2_PLACEMENT_3D('',#1230,#984,#985);
#836=AXIS2_PLACEMENT_3D('',#1232,#987,#988);
#837=AXIS2_PLACEMENT_3D('',#1233,#989,#990);
#838=AXIS2_PLACEMENT_3D('',#1235,#992,#993);
#839=AXIS2_PLACEMENT_3D('',#1238,#996,#997);
#840=AXIS2_PLACEMENT_3D('',#1241,#1000,#1001);
#841=AXIS2_PLACEMENT_3D('',#1244,#1004,#1005);
#842=AXIS2_PLACEMENT_3D('',#1246,#1007,#1008);
#843=AXIS2_PLACEMENT_3D('',#1248,#1010,#1011);
#844=AXIS2_PLACEMENT_3D('',#1251,#1014,#1015);
#845=AXIS2_PLACEMENT_3D('',#1253,#1017,#1018);
#846=AXIS2_PLACEMENT_3D('',#1255,#1020,#1021);
#847=AXIS2_PLACEMENT_3D('',#1258,#1024,#1025);
#848=AXIS2_PLACEMENT_3D('',#1260,#1027,#1028);
#849=AXIS2_PLACEMENT_3D('',#1262,#1030,#1031);
#850=AXIS2_PLACEMENT_3D('',#1264,#1033,#1034);
#851=AXIS2_PLACEMENT_3D('',#1266,#1036,#1037);
#852=AXIS2_PLACEMENT_3D('',#1268,#1039,#1040);
#853=AXIS2_PLACEMENT_3D('',#1270,#1042,#1043);
#854=AXIS2_PLACEMENT_3D('',#1272,#1045,#1046);
#855=AXIS2_PLACEMENT_3D('',#1274,#1048,#1049);
#856=AXIS2_PLACEMENT_3D('',#1276,#1051,#1052);
#857=AXIS2_PLACEMENT_3D('',#1278,#1054,#1055);
#858=AXIS2_PLACEMENT_3D('',#1279,#1056,#1057);
#859=AXIS2_PLACEMENT_3D('',#1280,#1058,#1059);
#860=AXIS2_PLACEMENT_3D('',#1282,#1060,#1061);
#861=AXIS2_PLACEMENT_3D('',#1283,#1062,#1063);
#862=AXIS2_PLACEMENT_3D('',#1285,#1064,#1065);
#863=AXIS2_PLACEMENT_3D('',#1286,#1066,#1067);
#864=AXIS2_PLACEMENT_3D('',#1288,#1068,#1069);
#865=AXIS2_PLACEMENT_3D('',#1289,#1070,#1071);
#866=AXIS2_PLACEMENT_3D('',#1290,#1072,#1073);
#867=AXIS2_PLACEMENT_3D('',#1292,#1074,#1075);
#868=AXIS2_PLACEMENT_3D('',#1293,#1076,#1077);
#869=AXIS2_PLACEMENT_3D('',#1295,#1078,#1079);
#870=AXIS2_PLACEMENT_3D('',#1296,#1080,#1081);
#871=AXIS2_PLACEMENT_3D('',#1297,#1082,#1083);
#872=AXIS2_PLACEMENT_3D('',#1298,#1084,#1085);
#873=AXIS2_PLACEMENT_3D('',#1299,#1086,#1087);
#874=DIRECTION('',(0.,0.,1.));
#875=DIRECTION('',(1.,0.,0.));
#876=DIRECTION('',(0.,1.,0.));
#877=DIRECTION('',(-1.,0.,0.));
#878=DIRECTION('',(1.,0.,0.));
#879=DIRECTION('',(0.,0.,1.));
#880=DIRECTION('',(-1.,0.,0.));
#881=DIRECTION('',(0.,0.,-1.));
#882=DIRECTION('',(0.,-1.,0.));
#883=DIRECTION('',(0.,0.,-1.));
#884=DIRECTION('',(0.,0.,-1.));
#885=DIRECTION('',(-1.,0.,0.));
#886=DIRECTION('',(0.,0.,1.));
#887=DIRECTION('',(1.,0.,0.));
#888=DIRECTION('',(0.,0.,-1.));
#889=DIRECTION('',(1.,0.,0.));
#890=DIRECTION('',(0.,0.,-1.));
#891=DIRECTION('',(1.,0.,0.));
#892=DIRECTION('',(0.,0.,1.));
#893=DIRECTION('',(1.,0.,0.));
#894=DIRECTION('',(0.,-1.,0.));
#895=DIRECTION('',(1.,0.,0.));
#896=DIRECTION('',(0.,1.,0.));
#897=DIRECTION('',(-1.,0.,0.));
#898=DIRECTION('',(0.,-1.,0.));
#899=DIRECTION('',(1.,0.,0.));
#900=DIRECTION('',(0.,-1.,0.));
#901=DIRECTION('',(1.,0.,0.));
#902=DIRECTION('',(0.,0.,1.));
#903=DIRECTION('',(1.,0.,0.));
#904=DIRECTION('',(0.,-1.,0.));
#905=DIRECTION('',(-1.,0.,0.));
#906=DIRECTION('',(0.,1.,0.));
#907=DIRECTION('',(1.,0.,0.));
#908=DIRECTION('',(1.,0.,0.));
#909=DIRECTION('',(0.,-1.,0.));
#910=DIRECTION('',(1.,0.,0.));
#911=DIRECTION('',(0.,-1.,0.));
#912=DIRECTION('',(0.,-1.,0.));
#913=DIRECTION('',(0.,0.,-1.));
#914=DIRECTION('',(0.,0.,-1.));
#915=DIRECTION('',(1.,0.,0.));
#916=DIRECTION('',(0.,0.,1.));
#917=DIRECTION('',(-1.,0.,0.));
#918=DIRECTION('',(1.,0.,0.));
#919=DIRECTION('',(0.,1.,0.));
#920=DIRECTION('',(1.,0.,0.));
#921=DIRECTION('',(0.,0.,-1.));
#922=DIRECTION('',(1.,0.,0.));
#923=DIRECTION('',(0.,0.,-1.));
#924=DIRECTION('',(1.,0.,0.));
#925=DIRECTION('',(0.,0.,-1.));
#926=DIRECTION('',(0.,0.,-1.));
#927=DIRECTION('',(0.,-1.,0.));
#928=DIRECTION('',(0.,0.,1.));
#929=DIRECTION('',(0.,1.,0.));
#930=DIRECTION('',(1.,0.,0.));
#931=DIRECTION('',(0.,1.,0.));
#932=DIRECTION('',(1.,0.,0.));
#933=DIRECTION('',(0.,0.,-1.));
#934=DIRECTION('',(1.,0.,0.));
#935=DIRECTION('',(0.,0.,-1.));
#936=DIRECTION('',(1.,0.,0.));
#937=DIRECTION('',(0.,0.,-1.));
#938=DIRECTION('',(0.,0.,-1.));
#939=DIRECTION('',(0.,1.,0.));
#940=DIRECTION('',(0.,0.,1.));
#941=DIRECTION('',(0.,-1.,0.));
#942=DIRECTION('',(0.,-1.,0.));
#943=DIRECTION('',(0.,0.,-1.));
#944=DIRECTION('',(1.,0.,0.));
#945=DIRECTION('',(0.,0.,1.));
#946=DIRECTION('',(0.,0.,1.));
#947=DIRECTION('',(0.,0.,1.));
#948=DIRECTION('',(1.,0.,0.));
#949=DIRECTION('',(0.,0.,-1.));
#950=DIRECTION('',(-1.,0.,0.));
#951=DIRECTION('',(0.,0.,1.));
#952=DIRECTION('',(0.,0.,-1.));
#953=DIRECTION('',(-1.,0.,0.));
#954=DIRECTION('',(0.,0.,1.));
#955=DIRECTION('',(0.,-1.,0.));
#956=DIRECTION('',(0.,0.,1.));
#957=DIRECTION('',(0.,-1.,0.));
#958=DIRECTION('',(0.,-1.,0.));
#959=DIRECTION('',(0.,0.,-1.));
#960=DIRECTION('',(0.,0.,1.));
#961=DIRECTION('',(-1.,0.,0.));
#962=DIRECTION('',(0.,0.,1.));
#963=DIRECTION('',(-1.,0.,0.));
#964=DIRECTION('',(0.,0.,1.));
#965=DIRECTION('',(-1.,0.,0.));
#966=DIRECTION('',(0.,0.,1.));
#967=DIRECTION('',(-1.,0.,0.));
#968=DIRECTION('',(0.,0.,1.));
#969=DIRECTION('',(-1.,0.,0.));
#970=DIRECTION('',(0.,0.,1.));
#971=DIRECTION('',(-1.,0.,0.));
#972=DIRECTION('',(0.,0.,1.));
#973=DIRECTION('',(0.,0.,1.));
#974=DIRECTION('',(0.,1.,0.));
#975=DIRECTION('',(0.,1.,0.));
#976=DIRECTION('',(-1.,0.,0.));
#977=DIRECTION('',(0.,0.,1.));
#978=DIRECTION('',(-1.,0.,0.));
#979=DIRECTION('',(0.,0.,1.));
#980=DIRECTION('',(-1.,0.,0.));
#981=DIRECTION('',(0.,0.,1.));
#982=DIRECTION('',(0.,1.,0.));
#983=DIRECTION('',(0.,1.,0.));
#984=DIRECTION('',(0.,0.,-1.));
#985=DIRECTION('',(-1.,0.,0.));
#986=DIRECTION('',(-1.,0.,0.));
#987=DIRECTION('',(0.,0.,-1.));
#988=DIRECTION('',(-1.,0.,0.));
#989=DIRECTION('',(0.,1.,0.));
#990=DIRECTION('',(-1.,0.,0.));
#991=DIRECTION('',(1.,0.,0.));
#992=DIRECTION('',(0.707106781186548,0.707106781186548,0.));
#993=DIRECTION('',(0.,0.,1.));
#994=DIRECTION('',(-0.707106781186548,0.707106781186548,0.));
#995=DIRECTION('',(0.707106781186548,-0.707106781186548,0.));
#996=DIRECTION('',(0.577350269189626,0.577350269189626,0.577350269189626));
#997=DIRECTION('',(0.707106781186548,0.,-0.707106781186548));
#998=DIRECTION('',(-0.707106781186548,0.,0.707106781186548));
#999=DIRECTION('',(0.,-0.707106781186548,0.707106781186548));
#1000=DIRECTION('',(0.577350269189626,0.577350269189626,-0.577350269189626));
#1001=DIRECTION('',(-0.707106781186548,0.,-0.707106781186548));
#1002=DIRECTION('',(0.,-0.707106781186548,-0.707106781186548));
#1003=DIRECTION('',(-0.707106781186548,0.,-0.707106781186548));
#1004=DIRECTION('',(0.,0.707106781186548,0.707106781186548));
#1005=DIRECTION('',(-1.,0.,0.));
#1006=DIRECTION('',(0.,0.707106781186548,-0.707106781186548));
#1007=DIRECTION('',(-0.707106781186548,0.,-0.707106781186548));
#1008=DIRECTION('',(0.,-1.,0.));
#1009=DIRECTION('',(0.707106781186548,0.,-0.707106781186548));
#1010=DIRECTION('',(-0.707106781186548,0.707106781186548,0.));
#1011=DIRECTION('',(0.,0.,-1.));
#1012=DIRECTION('',(0.707106781186548,0.707106781186548,0.));
#1013=DIRECTION('',(-0.707106781186548,-0.707106781186548,0.));
#1014=DIRECTION('',(0.707106781186548,0.,-0.707106781186548));
#1015=DIRECTION('',(0.,1.,0.));
#1016=DIRECTION('',(0.707106781186548,0.,0.707106781186548));
#1017=DIRECTION('',(0.,-0.707106781186548,0.707106781186548));
#1018=DIRECTION('',(1.,0.,0.));
#1019=DIRECTION('',(0.,0.707106781186548,0.707106781186548));
#1020=DIRECTION('',(0.707106781186548,-0.707106781186548,0.));
#1021=DIRECTION('',(0.,0.,-1.));
#1022=DIRECTION('',(0.707106781186548,0.707106781186548,0.));
#1023=DIRECTION('',(-0.707106781186548,-0.707106781186548,0.));
#1024=DIRECTION('',(-0.577350269189626,0.577350269189626,0.577350269189626));
#1025=DIRECTION('',(0.707106781186548,0.,0.707106781186548));
#1026=DIRECTION('',(0.707106781186548,0.,0.707106781186548));
#1027=DIRECTION('',(0.577350269189626,-0.577350269189626,0.577350269189626));
#1028=DIRECTION('',(0.707106781186548,0.,-0.707106781186548));
#1029=DIRECTION('',(0.,0.707106781186548,0.707106781186548));
#1030=DIRECTION('',(0.577350269189626,-0.577350269189626,-0.577350269189626));
#1031=DIRECTION('',(-0.707106781186548,0.,-0.707106781186548));
#1032=DIRECTION('',(0.,0.707106781186548,-0.707106781186548));
#1033=DIRECTION('',(-0.577350269189626,0.577350269189626,-0.577350269189626));
#1034=DIRECTION('',(-0.707106781186548,0.,0.707106781186548));
#1035=DIRECTION('',(0.707106781186548,0.,-0.707106781186548));
#1036=DIRECTION('',(-0.707106781186548,0.,0.707106781186548));
#1037=DIRECTION('',(0.,1.,0.));
#1038=DIRECTION('',(-0.707106781186548,0.,-0.707106781186548));
#1039=DIRECTION('',(0.,0.707106781186548,-0.707106781186548));
#1040=DIRECTION('',(1.,0.,0.));
#1041=DIRECTION('',(0.,-0.707106781186548,-0.707106781186548));
#1042=DIRECTION('',(0.,-0.707106781186548,-0.707106781186548));
#1043=DIRECTION('',(-1.,0.,0.));
#1044=DIRECTION('',(0.,-0.707106781186548,0.707106781186548));
#1045=DIRECTION('',(0.707106781186548,0.,0.707106781186548));
#1046=DIRECTION('',(0.,-1.,0.));
#1047=DIRECTION('',(-0.707106781186548,0.,0.707106781186548));
#1048=DIRECTION('',(-0.577350269189626,-0.577350269189626,0.577350269189626));
#1049=DIRECTION('',(0.707106781186548,0.,0.707106781186548));
#1050=DIRECTION('',(0.707106781186548,-0.707106781186548,0.));
#1051=DIRECTION('',(-0.577350269189626,-0.577350269189626,-0.577350269189626));
#1052=DIRECTION('',(-0.707106781186548,0.,0.707106781186548));
#1053=DIRECTION('',(-0.707106781186548,0.707106781186548,0.));
#1054=DIRECTION('',(-0.707106781186548,-0.707106781186548,0.));
#1055=DIRECTION('',(0.,0.,1.));
#1056=DIRECTION('',(1.,0.,0.));
#1057=DIRECTION('',(0.,0.,-1.));
#1058=DIRECTION('',(1.,0.,0.));
#1059=DIRECTION('',(0.,0.,-1.));
#1060=DIRECTION('',(1.,0.,0.));
#1061=DIRECTION('',(0.,0.,-1.));
#1062=DIRECTION('',(1.,0.,0.));
#1063=DIRECTION('',(0.,0.,-1.));
#1064=DIRECTION('',(1.,0.,0.));
#1065=DIRECTION('',(0.,0.,-1.));
#1066=DIRECTION('',(1.,0.,0.));
#1067=DIRECTION('',(0.,0.,-1.));
#1068=DIRECTION('',(1.,0.,0.));
#1069=DIRECTION('',(0.,0.,-1.));
#1070=DIRECTION('',(1.,0.,0.));
#1071=DIRECTION('',(0.,0.,-1.));
#1072=DIRECTION('',(1.,0.,0.));
#1073=DIRECTION('',(0.,0.,-1.));
#1074=DIRECTION('',(1.,0.,0.));
#1075=DIRECTION('',(0.,0.,-1.));
#1076=DIRECTION('',(1.,0.,0.));
#1077=DIRECTION('',(0.,0.,-1.));
#1078=DIRECTION('',(-1.,0.,0.));
#1079=DIRECTION('',(0.,0.,1.));
#1080=DIRECTION('',(-1.,0.,0.));
#1081=DIRECTION('',(0.,0.,1.));
#1082=DIRECTION('',(1.,0.,0.));
#1083=DIRECTION('',(0.,0.,-1.));
#1084=DIRECTION('',(1.,0.,0.));
#1085=DIRECTION('',(0.,0.,-1.));
#1086=DIRECTION('',(1.,0.,0.));
#1087=DIRECTION('',(0.,0.,-1.));
#1088=CARTESIAN_POINT('',(0.,0.,0.));
#1089=CARTESIAN_POINT('',(-0.042211303952946,-0.198390007992224,0.332756029657602));
#1090=CARTESIAN_POINT('',(-0.662554972300497,-0.198390007992224,0.33515539688398));
#1091=CARTESIAN_POINT('',(0.163313524404355,-0.198390007992224,0.33515539688398));
#1092=CARTESIAN_POINT('',(0.163493760850153,-0.198390007992224,0.33515539688398));
#1093=CARTESIAN_POINT('',(0.163313524404355,-0.198390007992224,0.332506029657602));
#1094=CARTESIAN_POINT('',(0.163313524404355,-0.198390007992224,0.352506029657602));
#1095=CARTESIAN_POINT('',(0.173313524404355,-0.198390007992224,0.352506029657602));
#1096=CARTESIAN_POINT('',(0.163493760850153,-0.198390007992224,0.352506029657602));
#1097=CARTESIAN_POINT('',(0.163493760850153,-0.198390007992224,-0.49311246704725));
#1098=CARTESIAN_POINT('',(0.158313524404355,-0.168447915675596,0.332506029657602));
#1099=CARTESIAN_POINT('',(0.185313524404355,-0.168447915675596,0.307506029657602));
#1100=CARTESIAN_POINT('',(0.185313524404355,-0.168447915675596,0.354506029657602));
#1101=CARTESIAN_POINT('',(0.185313524404355,-0.168447915675596,0.310506029657602));
#1102=CARTESIAN_POINT('',(0.158313524404355,-0.168447915675596,0.310506029657602));
#1103=CARTESIAN_POINT('',(0.161313524404355,-0.168447915675596,0.310506029657602));
#1104=CARTESIAN_POINT('',(0.161313524404355,-0.168447915675596,0.332506029657602));
#1105=CARTESIAN_POINT('',(0.161313524404355,-0.168447915675596,0.354506029657602));
#1106=CARTESIAN_POINT('',(0.188313524404355,-0.168447915675596,0.354506029657602));
#1107=CARTESIAN_POINT('',(0.183313524404355,-0.168447915675596,0.332506029657602));
#1108=CARTESIAN_POINT('',(0.183313524404355,-0.168447915675596,0.352506029657602));
#1109=CARTESIAN_POINT('',(0.183313524404355,-0.168447915675596,0.312506029657602));
#1110=CARTESIAN_POINT('',(0.158313524404355,-0.168447915675596,0.352506029657602));
#1111=CARTESIAN_POINT('',(0.163313524404355,-0.168447915675596,0.352506029657602));
#1112=CARTESIAN_POINT('',(0.163313524404355,-0.168447915675596,0.332506029657602));
#1113=CARTESIAN_POINT('',(0.163313524404355,-0.168447915675596,0.312506029657602));
#1114=CARTESIAN_POINT('',(0.158313524404355,-0.168447915675596,0.312506029657602));
#1115=CARTESIAN_POINT('',(0.158313524404355,-0.190947915675596,0.357506029657602));
#1116=CARTESIAN_POINT('',(0.161313524404355,-0.213447915675597,0.357506029657602));
#1117=CARTESIAN_POINT('',(0.161313524404355,-0.171447915675597,0.357506029657602));
#1118=CARTESIAN_POINT('',(0.161313524404355,-0.210447915675597,0.357506029657602));
#1119=CARTESIAN_POINT('',(0.158313524404355,-0.210447915675597,0.357506029657602));
#1120=CARTESIAN_POINT('',(0.185313524404355,-0.210447915675597,0.357506029657602));
#1121=CARTESIAN_POINT('',(0.185313524404355,-0.190947915675596,0.357506029657602));
#1122=CARTESIAN_POINT('',(0.185313524404355,-0.171447915675597,0.357506029657602));
#1123=CARTESIAN_POINT('',(0.158313524404355,-0.171447915675597,0.357506029657602));
#1124=CARTESIAN_POINT('',(0.163493760850153,-0.190947915675596,0.357506029657602));
#1125=CARTESIAN_POINT('',(0.163493760850153,-0.188447915675596,0.357506029657602));
#1126=CARTESIAN_POINT('',(0.163493760850153,-0.20844506390927,0.357506029657602));
#1127=CARTESIAN_POINT('',(0.158313524404355,-0.188447915675596,0.357506029657602));
#1128=CARTESIAN_POINT('',(0.183493760850153,-0.188447915675596,0.357506029657602));
#1129=CARTESIAN_POINT('',(0.183493760850153,-0.190947915675596,0.357506029657602));
#1130=CARTESIAN_POINT('',(0.183493760850153,-0.20844506390927,0.357506029657602));
#1131=CARTESIAN_POINT('',(0.158313524404355,-0.20844506390927,0.357506029657602));
#1132=CARTESIAN_POINT('',(0.158313524404355,-0.190947915675596,0.307506029657602));
#1133=CARTESIAN_POINT('',(0.185313524404355,-0.213447915675597,0.307506029657602));
#1134=CARTESIAN_POINT('',(0.185313524404355,-0.171447915675597,0.307506029657602));
#1135=CARTESIAN_POINT('',(0.185313524404355,-0.210447915675597,0.307506029657602));
#1136=CARTESIAN_POINT('',(0.158313524404355,-0.210447915675597,0.307506029657602));
#1137=CARTESIAN_POINT('',(0.161313524404355,-0.210447915675597,0.307506029657602));
#1138=CARTESIAN_POINT('',(0.161313524404355,-0.190947915675596,0.307506029657602));
#1139=CARTESIAN_POINT('',(0.161313524404355,-0.171447915675597,0.307506029657602));
#1140=CARTESIAN_POINT('',(0.158313524404355,-0.171447915675597,0.307506029657602));
#1141=CARTESIAN_POINT('',(0.158313524404355,-0.188447915675596,0.307506029657602));
#1142=CARTESIAN_POINT('',(0.163493760850153,-0.188447915675596,0.307506029657602));
#1143=CARTESIAN_POINT('',(0.183493760850153,-0.188447915675596,0.307506029657602));
#1144=CARTESIAN_POINT('',(0.163493760850153,-0.190947915675596,0.307506029657602));
#1145=CARTESIAN_POINT('',(0.163493760850153,-0.20844506390927,0.307506029657602));
#1146=CARTESIAN_POINT('',(0.158313524404355,-0.20844506390927,0.307506029657602));
#1147=CARTESIAN_POINT('',(0.183493760850153,-0.20844506390927,0.307506029657602));
#1148=CARTESIAN_POINT('',(0.183493760850153,-0.190947915675596,0.307506029657602));
#1149=CARTESIAN_POINT('',(0.158313524404355,-0.213447915675597,0.332506029657602));
#1150=CARTESIAN_POINT('',(0.161313524404355,-0.213447915675597,0.307506029657602));
#1151=CARTESIAN_POINT('',(0.161313524404355,-0.213447915675597,0.354506029657602));
#1152=CARTESIAN_POINT('',(0.161313524404355,-0.213447915675597,0.310506029657602));
#1153=CARTESIAN_POINT('',(0.188313524404355,-0.213447915675597,0.310506029657602));
#1154=CARTESIAN_POINT('',(0.185313524404355,-0.213447915675597,0.310506029657602));
#1155=CARTESIAN_POINT('',(0.185313524404355,-0.213447915675597,0.332506029657602));
#1156=CARTESIAN_POINT('',(0.185313524404355,-0.213447915675597,0.354506029657602));
#1157=CARTESIAN_POINT('',(0.158313524404355,-0.213447915675597,0.354506029657602));
#1158=CARTESIAN_POINT('',(0.158313524404355,0.0413360041027791,0.332506029657602));
#1159=CARTESIAN_POINT('',(0.158313524404355,-0.198447915675596,0.332506029657602));
#1160=CARTESIAN_POINT('',(0.158313524404355,-0.198447915675596,0.327856029657602));
#1161=CARTESIAN_POINT('',(0.158313524404355,-0.177673297524452,0.342506029657602));
#1162=CARTESIAN_POINT('',(0.158313524404355,-0.177673297524452,0.337856029657602));
#1163=CARTESIAN_POINT('',(0.158313524404355,-0.177673297524452,0.322506029657602));
#1164=CARTESIAN_POINT('',(0.158313524404355,-0.177673297524452,0.319856029657602));
#1165=CARTESIAN_POINT('',(0.158313524404355,-0.171447915675597,0.332506029657602));
#1166=CARTESIAN_POINT('',(0.158313524404355,-0.171447915675597,0.354506029657602));
#1167=CARTESIAN_POINT('',(0.158313524404355,-0.171447915675597,0.310506029657602));
#1168=CARTESIAN_POINT('',(0.158313524404355,0.0413360041027791,0.310506029657602));
#1169=CARTESIAN_POINT('',(0.158313524404355,-0.210447915675597,0.310506029657602));
#1170=CARTESIAN_POINT('',(0.158313524404355,-0.210447915675597,0.357506029657602));
#1171=CARTESIAN_POINT('',(0.158313524404355,-0.210447915675597,0.354506029657602));
#1172=CARTESIAN_POINT('',(0.158313524404355,-0.168447915675596,0.354506029657602));
#1173=CARTESIAN_POINT('',(0.188313524404355,0.0413360041027791,0.332506029657602));
#1174=CARTESIAN_POINT('',(0.188313524404355,-0.198447915675596,0.332506029657602));
#1175=CARTESIAN_POINT('',(0.188313524404355,-0.198447915675596,0.327856029657602));
#1176=CARTESIAN_POINT('',(0.188313524404355,-0.177673297524452,0.322506029657602));
#1177=CARTESIAN_POINT('',(0.188313524404355,-0.177673297524452,0.317856029657602));
#1178=CARTESIAN_POINT('',(0.188313524404355,-0.177673297524452,0.342506029657602));
#1179=CARTESIAN_POINT('',(0.188313524404355,-0.177673297524452,0.337856029657602));
#1180=CARTESIAN_POINT('',(0.188313524404355,-0.210447915675597,0.332506029657602));
#1181=CARTESIAN_POINT('',(0.188313524404355,-0.210447915675597,0.354506029657602));
#1182=CARTESIAN_POINT('',(0.188313524404355,-0.210447915675597,0.310506029657602));
#1183=CARTESIAN_POINT('',(0.188313524404355,-0.168447915675596,0.310506029657602));
#1184=CARTESIAN_POINT('',(0.188313524404355,-0.171447915675597,0.310506029657602));
#1185=CARTESIAN_POINT('',(0.188313524404355,-0.171447915675597,0.357506029657602));
#1186=CARTESIAN_POINT('',(0.188313524404355,-0.171447915675597,0.354506029657602));
#1187=CARTESIAN_POINT('',(0.188313524404355,0.0413360041027791,0.354506029657602));
#1188=CARTESIAN_POINT('',(0.173493760850154,-0.188447915675596,-0.49311246704725));
#1189=CARTESIAN_POINT('',(0.173493760850154,-0.188447915675596,0.312506029657602));
#1190=CARTESIAN_POINT('',(0.163493760850153,-0.188447915675596,0.312506029657602));
#1191=CARTESIAN_POINT('',(0.183313524404355,-0.188447915675596,0.312506029657602));
#1192=CARTESIAN_POINT('',(0.163493760850153,-0.188447915675596,-0.49311246704725));
#1193=CARTESIAN_POINT('',(0.183493760850153,-0.188447915675596,-0.49311246704725));
#1194=CARTESIAN_POINT('',(0.163493760850153,-0.188447915675596,-0.49311246704725));
#1195=CARTESIAN_POINT('',(0.163493760850153,-0.188447915675596,0.352506029657602));
#1196=CARTESIAN_POINT('',(0.173493760850154,-0.188447915675596,0.352506029657602));
#1197=CARTESIAN_POINT('',(0.183313524404355,-0.188447915675596,0.352506029657602));
#1198=CARTESIAN_POINT('',(0.183313524404355,-0.188447915675596,-0.49311246704725));
#1199=CARTESIAN_POINT('',(0.163493760850153,-0.198446489792433,-0.49311246704725));
#1200=CARTESIAN_POINT('',(0.163493760850153,-0.198390007992224,-0.49311246704725));
#1201=CARTESIAN_POINT('',(0.163493760850153,-0.198390007992224,0.329856662431224));
#1202=CARTESIAN_POINT('',(0.163493760850153,-0.198390007992224,0.312506029657602));
#1203=CARTESIAN_POINT('',(0.163493760850153,-0.198447915675596,0.332506029657602));
#1204=CARTESIAN_POINT('',(0.163493760850153,-0.198446489792433,0.352506029657602));
#1205=CARTESIAN_POINT('',(0.163493760850153,-0.20844506390927,-0.49311246704725));
#1206=CARTESIAN_POINT('',(0.163493760850153,-0.198446489792433,0.312506029657602));
#1207=CARTESIAN_POINT('',(0.173493760850154,-0.20844506390927,-0.49311246704725));
#1208=CARTESIAN_POINT('',(0.183493760850153,-0.20844506390927,-0.49311246704725));
#1209=CARTESIAN_POINT('',(0.183493760850153,-0.198446489792433,-0.49311246704725));
#1210=CARTESIAN_POINT('',(0.183493760850153,-0.198447915675596,0.332506029657602));
#1211=CARTESIAN_POINT('',(0.183493760850153,-0.198447915675596,0.335156029657602));
#1212=CARTESIAN_POINT('',(0.163313524404355,-0.198390007992224,0.332506029657602));
#1213=CARTESIAN_POINT('',(0.163313524404355,-0.177673297524452,0.342506029657602));
#1214=CARTESIAN_POINT('',(0.163313524404355,-0.177673297524452,0.345156029657602));
#1215=CARTESIAN_POINT('',(0.163313524404355,-0.177673297524452,0.322506029657602));
#1216=CARTESIAN_POINT('',(0.163313524404355,-0.177673297524452,0.325156029657602));
#1217=CARTESIAN_POINT('',(0.163313524404355,-0.198447915675596,0.332506029657602));
#1218=CARTESIAN_POINT('',(0.163313524404355,-0.198390007992224,0.329856662431224));
#1219=CARTESIAN_POINT('',(0.163313524404355,-0.198390007992224,0.332506029657602));
#1220=CARTESIAN_POINT('',(0.163313524404355,-0.198390007992224,0.312506029657602));
#1221=CARTESIAN_POINT('',(0.163313524404355,-0.198390007992224,0.312506029657602));
#1222=CARTESIAN_POINT('',(0.163313524404355,-0.198390007992224,0.352506029657602));
#1223=CARTESIAN_POINT('',(0.183313524404355,-0.198390007992224,0.332506029657602));
#1224=CARTESIAN_POINT('',(0.183313524404355,-0.177673297524452,0.342506029657602));
#1225=CARTESIAN_POINT('',(0.183313524404355,-0.177673297524452,0.345156029657602));
#1226=CARTESIAN_POINT('',(0.183313524404355,-0.177673297524452,0.322506029657602));
#1227=CARTESIAN_POINT('',(0.183313524404355,-0.177673297524452,0.325156029657602));
#1228=CARTESIAN_POINT('',(0.183313524404355,-0.198390007992224,0.312506029657602));
#1229=CARTESIAN_POINT('',(0.183313524404355,-0.198390007992224,0.352506029657602));
#1230=CARTESIAN_POINT('',(0.173313524404355,-0.198390007992224,0.312506029657602));
#1231=CARTESIAN_POINT('',(0.173313524404355,-0.198390007992224,0.312506029657602));
#1232=CARTESIAN_POINT('',(0.173313524404355,-0.198390007992224,0.352506029657602));
#1233=CARTESIAN_POINT('',(-0.042211303952946,-0.198390007992224,0.332756029657602));
#1234=CARTESIAN_POINT('',(-0.662554972300497,-0.198390007992224,0.329856662431224));
#1235=CARTESIAN_POINT('',(0.185313524404355,-0.168447915675596,0.332506029657602));
#1236=CARTESIAN_POINT('',(0.188313524404355,-0.171447915675597,0.354506029657602));
#1237=CARTESIAN_POINT('',(0.185313524404355,-0.168447915675596,0.310506029657602));
#1238=CARTESIAN_POINT('',(0.188313524404355,-0.171447915675597,0.354506029657602));
#1239=CARTESIAN_POINT('',(0.188313524404355,-0.171447915675597,0.354506029657602));
#1240=CARTESIAN_POINT('',(0.185313524404355,-0.169947915675597,0.356006029657602));
#1241=CARTESIAN_POINT('',(0.185313524404355,-0.168447915675596,0.310506029657602));
#1242=CARTESIAN_POINT('',(0.185313524404355,-0.168447915675596,0.310506029657602));
#1243=CARTESIAN_POINT('',(0.186813524404355,-0.171447915675597,0.309006029657602));
#1244=CARTESIAN_POINT('',(0.158313524404355,-0.168447915675596,0.354506029657602));
#1245=CARTESIAN_POINT('',(0.161313524404355,-0.168447915675596,0.354506029657602));
#1246=CARTESIAN_POINT('',(0.188313524404355,0.0413360041027791,0.354506029657602));
#1247=CARTESIAN_POINT('',(0.186813524404355,-0.210447915675597,0.356006029657602));
#1248=CARTESIAN_POINT('',(0.188313524404355,-0.210447915675597,0.332506029657602));
#1249=CARTESIAN_POINT('',(0.188313524404355,-0.210447915675597,0.310506029657602));
#1250=CARTESIAN_POINT('',(0.185313524404355,-0.213447915675597,0.354506029657602));
#1251=CARTESIAN_POINT('',(0.185313524404355,-0.190947915675596,0.307506029657602));
#1252=CARTESIAN_POINT('',(0.188313524404355,-0.210447915675597,0.310506029657602));
#1253=CARTESIAN_POINT('',(0.158313524404355,-0.171447915675597,0.307506029657602));
#1254=CARTESIAN_POINT('',(0.161313524404355,-0.169947915675597,0.309006029657602));
#1255=CARTESIAN_POINT('',(0.158313524404355,-0.171447915675597,0.332506029657602));
#1256=CARTESIAN_POINT('',(0.161313524404355,-0.168447915675596,0.354506029657602));
#1257=CARTESIAN_POINT('',(0.158313524404355,-0.171447915675597,0.310506029657602));
#1258=CARTESIAN_POINT('',(0.161313524404355,-0.168447915675596,0.354506029657602));
#1259=CARTESIAN_POINT('',(0.159813524404355,-0.171447915675597,0.356006029657602));
#1260=CARTESIAN_POINT('',(0.185313524404355,-0.213447915675597,0.354506029657602));
#1261=CARTESIAN_POINT('',(0.185313524404355,-0.213447915675597,0.354506029657602));
#1262=CARTESIAN_POINT('',(0.188313524404355,-0.210447915675597,0.310506029657602));
#1263=CARTESIAN_POINT('',(0.185313524404355,-0.211947915675597,0.309006029657602));
#1264=CARTESIAN_POINT('',(0.158313524404355,-0.171447915675597,0.310506029657602));
#1265=CARTESIAN_POINT('',(0.158313524404355,-0.171447915675597,0.310506029657602));
#1266=CARTESIAN_POINT('',(0.161313524404355,-0.190947915675596,0.357506029657602));
#1267=CARTESIAN_POINT('',(0.158313524404355,-0.210447915675597,0.354506029657602));
#1268=CARTESIAN_POINT('',(0.158313524404355,-0.210447915675597,0.357506029657602));
#1269=CARTESIAN_POINT('',(0.161313524404355,-0.211947915675597,0.356006029657602));
#1270=CARTESIAN_POINT('',(0.158313524404355,-0.213447915675597,0.310506029657602));
#1271=CARTESIAN_POINT('',(0.161313524404355,-0.213447915675597,0.310506029657602));
#1272=CARTESIAN_POINT('',(0.158313524404355,0.0413360041027791,0.310506029657602));
#1273=CARTESIAN_POINT('',(0.159813524404355,-0.210447915675597,0.309006029657602));
#1274=CARTESIAN_POINT('',(0.158313524404355,-0.210447915675597,0.354506029657602));
#1275=CARTESIAN_POINT('',(0.158313524404355,-0.210447915675597,0.354506029657602));
#1276=CARTESIAN_POINT('',(0.161313524404355,-0.213447915675597,0.310506029657602));
#1277=CARTESIAN_POINT('',(0.161313524404355,-0.213447915675597,0.310506029657602));
#1278=CARTESIAN_POINT('',(0.161313524404355,-0.213447915675597,0.332506029657602));
#1279=CARTESIAN_POINT('',(-0.662554972300497,-0.198447915675596,0.332506029657602));
#1280=CARTESIAN_POINT('',(0.160313524404355,-0.198447915675596,0.332506029657602));
#1281=CARTESIAN_POINT('',(0.160313524404355,-0.198447915675596,0.329856029657602));
#1282=CARTESIAN_POINT('',(-0.662554972300497,-0.177673297524452,0.322506029657602));
#1283=CARTESIAN_POINT('',(0.186313524404355,-0.177673297524452,0.322506029657602));
#1284=CARTESIAN_POINT('',(0.186313524404355,-0.177673297524452,0.319856029657602));
#1285=CARTESIAN_POINT('',(-0.662554972300497,-0.177673297524452,0.342506029657602));
#1286=CARTESIAN_POINT('',(0.186313524404355,-0.177673297524452,0.342506029657602));
#1287=CARTESIAN_POINT('',(0.186313524404355,-0.177673297524452,0.339856029657602));
#1288=CARTESIAN_POINT('',(-0.662554972300497,-0.177673297524452,0.322506029657602));
#1289=CARTESIAN_POINT('',(-0.662554972300497,-0.177673297524452,0.342506029657602));
#1290=CARTESIAN_POINT('',(0.160313524404355,-0.177673297524452,0.342506029657602));
#1291=CARTESIAN_POINT('',(0.160313524404355,-0.177673297524452,0.339856029657602));
#1292=CARTESIAN_POINT('',(-0.662554972300497,-0.198447915675596,0.332506029657602));
#1293=CARTESIAN_POINT('',(0.186313524404355,-0.198447915675596,0.332506029657602));
#1294=CARTESIAN_POINT('',(0.186313524404355,-0.198447915675596,0.329856029657602));
#1295=CARTESIAN_POINT('',(0.158313524404355,-0.198447915675596,0.332506029657602));
#1296=CARTESIAN_POINT('',(0.158313524404355,-0.177673297524452,0.342506029657602));
#1297=CARTESIAN_POINT('',(0.186313524404355,-0.198447915675596,0.332506029657602));
#1298=CARTESIAN_POINT('',(0.186313524404355,-0.177673297524452,0.322506029657602));
#1299=CARTESIAN_POINT('',(0.186313524404355,-0.177673297524452,0.342506029657602));
#1300=MECHANICAL_DESIGN_GEOMETRIC_PRESENTATION_REPRESENTATION('',(#797),
#1301);
#1301=(
GEOMETRIC_REPRESENTATION_CONTEXT(3)
GLOBAL_UNCERTAINTY_ASSIGNED_CONTEXT((#1302))
GLOBAL_UNIT_ASSIGNED_CONTEXT((#1305,#1304,#1303))
REPRESENTATION_CONTEXT('Ext Connector','TOP_LEVEL_ASSEMBLY_PART')
);
#1302=UNCERTAINTY_MEASURE_WITH_UNIT(LENGTH_MEASURE(1.E-8),#1305,
'DISTANCE_ACCURACY_VALUE','Maximum Tolerance applied to model');
#1303=(
NAMED_UNIT(*)
SI_UNIT($,.STERADIAN.)
SOLID_ANGLE_UNIT()
);
#1304=(
NAMED_UNIT(*)
PLANE_ANGLE_UNIT()
SI_UNIT($,.RADIAN.)
);
#1305=(
LENGTH_UNIT()
NAMED_UNIT(*)
SI_UNIT($,.METRE.)
);
#1306=PRODUCT_DEFINITION_SHAPE('','',#1307);
#1307=PRODUCT_DEFINITION('','',#1309,#1308);
#1308=PRODUCT_DEFINITION_CONTEXT('',#1315,'design');
#1309=PRODUCT_DEFINITION_FORMATION_WITH_SPECIFIED_SOURCE('','',#1311,
 .NOT_KNOWN.);
#1310=PRODUCT_RELATED_PRODUCT_CATEGORY('','',(#1311));
#1311=PRODUCT('Ext Connector','Ext Connector','Ext Connector',(#1313));
#1312=PRODUCT_CATEGORY('','');
#1313=PRODUCT_CONTEXT('',#1315,'mechanical');
#1314=APPLICATION_PROTOCOL_DEFINITION('international standard',
'ap242_managed_model_based_3d_engineering',2020,#1315);
#1315=APPLICATION_CONTEXT('managed model based 3d engineering');
ENDSEC;
END-ISO-10303-21;
