ISO-10303-21;
HEADER;
/* Generated by software containing ST-Developer
 * from STEP Tools, Inc. (www.steptools.com) 
 */
/* OPTION: using custom renumber hook */

FILE_DESCRIPTION(
/* description */ ('STEP AP242 Edition 2',
'CAx-IF Rec.Pracs.---Representation and Presentation of Product Manufa
cturing Information (PMI)---4.0---2014-10-13',
'CAx-IF Rec.Pracs.---3D Tessellated Geometry---0.4---2014-09-14','2;1',
'CAx-IF Rec.Pracs.---User Defined Attributes---1.5---2016-08-15'),
/* implementation_level */ '2;1');

FILE_NAME(
/* name */ 'NOT-618 - Bed Adapter',
/* time_stamp */ '2026-07-26T08:51:49Z',
/* author */ (''),
/* organization */ (''),
/* preprocessor_version */ 'ST-DEVELOPER v20',
/* originating_system */ 'ONSHAPE BY PTC INC, 1.218',
/* authorisation */ '  ');

FILE_SCHEMA (('AP242_MANAGED_MODEL_BASED_3D_ENGINEERING_MIM_LF { 1 0 10303 442 3 1 4 }'));
ENDSEC;

DATA;
#10=SHAPE_REPRESENTATION_RELATIONSHIP('','',#332,#11);
#11=ADVANCED_BREP_SHAPE_REPRESENTATION('',(#330),#524);
#12=CYLINDRICAL_SURFACE('',#339,0.0015);
#13=CYLINDRICAL_SURFACE('',#342,0.00265);
#14=CIRCLE('',#336,0.0015);
#15=CIRCLE('',#340,0.0015);
#16=CIRCLE('',#343,0.00265);
#17=CIRCLE('',#344,0.00265);
#18=ORIENTED_EDGE('',*,*,#100,.T.);
#19=ORIENTED_EDGE('',*,*,#101,.T.);
#20=ORIENTED_EDGE('',*,*,#102,.F.);
#21=ORIENTED_EDGE('',*,*,#103,.T.);
#22=ORIENTED_EDGE('',*,*,#104,.F.);
#23=ORIENTED_EDGE('',*,*,#105,.T.);
#24=ORIENTED_EDGE('',*,*,#106,.T.);
#25=ORIENTED_EDGE('',*,*,#107,.F.);
#26=ORIENTED_EDGE('',*,*,#108,.T.);
#27=ORIENTED_EDGE('',*,*,#109,.T.);
#28=ORIENTED_EDGE('',*,*,#110,.T.);
#29=ORIENTED_EDGE('',*,*,#111,.F.);
#30=ORIENTED_EDGE('',*,*,#112,.T.);
#31=ORIENTED_EDGE('',*,*,#113,.F.);
#32=ORIENTED_EDGE('',*,*,#114,.T.);
#33=ORIENTED_EDGE('',*,*,#115,.T.);
#34=ORIENTED_EDGE('',*,*,#116,.T.);
#35=ORIENTED_EDGE('',*,*,#117,.T.);
#36=ORIENTED_EDGE('',*,*,#118,.T.);
#37=ORIENTED_EDGE('',*,*,#119,.F.);
#38=ORIENTED_EDGE('',*,*,#120,.T.);
#39=ORIENTED_EDGE('',*,*,#121,.T.);
#40=ORIENTED_EDGE('',*,*,#106,.F.);
#41=ORIENTED_EDGE('',*,*,#122,.T.);
#42=ORIENTED_EDGE('',*,*,#123,.T.);
#43=ORIENTED_EDGE('',*,*,#109,.F.);
#44=ORIENTED_EDGE('',*,*,#124,.T.);
#45=ORIENTED_EDGE('',*,*,#125,.T.);
#46=ORIENTED_EDGE('',*,*,#126,.F.);
#47=ORIENTED_EDGE('',*,*,#119,.T.);
#48=ORIENTED_EDGE('',*,*,#127,.T.);
#49=ORIENTED_EDGE('',*,*,#104,.T.);
#50=ORIENTED_EDGE('',*,*,#128,.T.);
#51=ORIENTED_EDGE('',*,*,#122,.F.);
#52=ORIENTED_EDGE('',*,*,#129,.T.);
#53=ORIENTED_EDGE('',*,*,#115,.F.);
#54=ORIENTED_EDGE('',*,*,#130,.T.);
#55=ORIENTED_EDGE('',*,*,#121,.F.);
#56=ORIENTED_EDGE('',*,*,#125,.F.);
#57=ORIENTED_EDGE('',*,*,#113,.T.);
#58=ORIENTED_EDGE('',*,*,#131,.T.);
#59=ORIENTED_EDGE('',*,*,#132,.T.);
#60=ORIENTED_EDGE('',*,*,#133,.T.);
#61=ORIENTED_EDGE('',*,*,#100,.F.);
#62=ORIENTED_EDGE('',*,*,#134,.T.);
#63=ORIENTED_EDGE('',*,*,#117,.F.);
#64=ORIENTED_EDGE('',*,*,#135,.T.);
#65=ORIENTED_EDGE('',*,*,#126,.T.);
#66=ORIENTED_EDGE('',*,*,#128,.F.);
#67=ORIENTED_EDGE('',*,*,#103,.F.);
#68=ORIENTED_EDGE('',*,*,#110,.F.);
#69=ORIENTED_EDGE('',*,*,#123,.F.);
#70=ORIENTED_EDGE('',*,*,#129,.F.);
#71=ORIENTED_EDGE('',*,*,#124,.F.);
#72=ORIENTED_EDGE('',*,*,#108,.F.);
#73=ORIENTED_EDGE('',*,*,#116,.F.);
#74=ORIENTED_EDGE('',*,*,#127,.F.);
#75=ORIENTED_EDGE('',*,*,#118,.F.);
#76=ORIENTED_EDGE('',*,*,#134,.F.);
#77=ORIENTED_EDGE('',*,*,#105,.F.);
#78=ORIENTED_EDGE('',*,*,#130,.F.);
#79=ORIENTED_EDGE('',*,*,#114,.F.);
#80=ORIENTED_EDGE('',*,*,#135,.F.);
#81=ORIENTED_EDGE('',*,*,#120,.F.);
#82=ORIENTED_EDGE('',*,*,#136,.T.);
#83=ORIENTED_EDGE('',*,*,#137,.T.);
#84=ORIENTED_EDGE('',*,*,#132,.F.);
#85=ORIENTED_EDGE('',*,*,#138,.T.);
#86=ORIENTED_EDGE('',*,*,#102,.T.);
#87=ORIENTED_EDGE('',*,*,#139,.T.);
#88=ORIENTED_EDGE('',*,*,#136,.F.);
#89=ORIENTED_EDGE('',*,*,#140,.T.);
#90=ORIENTED_EDGE('',*,*,#111,.T.);
#91=ORIENTED_EDGE('',*,*,#107,.T.);
#92=ORIENTED_EDGE('',*,*,#139,.F.);
#93=ORIENTED_EDGE('',*,*,#101,.F.);
#94=ORIENTED_EDGE('',*,*,#133,.F.);
#95=ORIENTED_EDGE('',*,*,#137,.F.);
#96=ORIENTED_EDGE('',*,*,#140,.F.);
#97=ORIENTED_EDGE('',*,*,#138,.F.);
#98=ORIENTED_EDGE('',*,*,#131,.F.);
#99=ORIENTED_EDGE('',*,*,#112,.F.);
#100=EDGE_CURVE('',#141,#142,#169,.T.);
#101=EDGE_CURVE('',#142,#143,#170,.T.);
#102=EDGE_CURVE('',#144,#143,#171,.T.);
#103=EDGE_CURVE('',#144,#145,#172,.T.);
#104=EDGE_CURVE('',#146,#145,#173,.T.);
#105=EDGE_CURVE('',#146,#141,#174,.T.);
#106=EDGE_CURVE('',#147,#147,#14,.T.);
#107=EDGE_CURVE('',#148,#144,#175,.T.);
#108=EDGE_CURVE('',#148,#149,#176,.F.);
#109=EDGE_CURVE('',#149,#150,#177,.T.);
#110=EDGE_CURVE('',#150,#144,#178,.T.);
#111=EDGE_CURVE('',#151,#148,#179,.T.);
#112=EDGE_CURVE('',#151,#152,#180,.T.);
#113=EDGE_CURVE('',#153,#152,#181,.T.);
#114=EDGE_CURVE('',#153,#154,#182,.T.);
#115=EDGE_CURVE('',#154,#155,#183,.T.);
#116=EDGE_CURVE('',#155,#148,#184,.T.);
#117=EDGE_CURVE('',#156,#157,#185,.T.);
#118=EDGE_CURVE('',#157,#158,#186,.T.);
#119=EDGE_CURVE('',#159,#158,#187,.T.);
#120=EDGE_CURVE('',#159,#156,#188,.T.);
#121=EDGE_CURVE('',#160,#160,#15,.T.);
#122=EDGE_CURVE('',#161,#162,#189,.T.);
#123=EDGE_CURVE('',#162,#150,#190,.T.);
#124=EDGE_CURVE('',#149,#161,#191,.T.);
#125=EDGE_CURVE('',#163,#163,#16,.T.);
#126=EDGE_CURVE('',#164,#164,#17,.T.);
#127=EDGE_CURVE('',#158,#146,#192,.F.);
#128=EDGE_CURVE('',#145,#162,#193,.T.);
#129=EDGE_CURVE('',#161,#155,#194,.F.);
#130=EDGE_CURVE('',#154,#159,#195,.T.);
#131=EDGE_CURVE('',#152,#165,#196,.F.);
#132=EDGE_CURVE('',#165,#166,#197,.T.);
#133=EDGE_CURVE('',#166,#142,#198,.T.);
#134=EDGE_CURVE('',#141,#157,#199,.F.);
#135=EDGE_CURVE('',#156,#153,#200,.T.);
#136=EDGE_CURVE('',#167,#168,#201,.T.);
#137=EDGE_CURVE('',#168,#166,#202,.T.);
#138=EDGE_CURVE('',#165,#167,#203,.T.);
#139=EDGE_CURVE('',#143,#168,#204,.T.);
#140=EDGE_CURVE('',#167,#151,#205,.F.);
#141=VERTEX_POINT('',#439);
#142=VERTEX_POINT('',#440);
#143=VERTEX_POINT('',#442);
#144=VERTEX_POINT('',#444);
#145=VERTEX_POINT('',#446);
#146=VERTEX_POINT('',#448);
#147=VERTEX_POINT('',#452);
#148=VERTEX_POINT('',#454);
#149=VERTEX_POINT('',#456);
#150=VERTEX_POINT('',#458);
#151=VERTEX_POINT('',#462);
#152=VERTEX_POINT('',#464);
#153=VERTEX_POINT('',#466);
#154=VERTEX_POINT('',#468);
#155=VERTEX_POINT('',#470);
#156=VERTEX_POINT('',#474);
#157=VERTEX_POINT('',#475);
#158=VERTEX_POINT('',#477);
#159=VERTEX_POINT('',#479);
#160=VERTEX_POINT('',#483);
#161=VERTEX_POINT('',#486);
#162=VERTEX_POINT('',#487);
#163=VERTEX_POINT('',#492);
#164=VERTEX_POINT('',#494);
#165=VERTEX_POINT('',#502);
#166=VERTEX_POINT('',#504);
#167=VERTEX_POINT('',#514);
#168=VERTEX_POINT('',#515);
#169=LINE('',#438,#206);
#170=LINE('',#441,#207);
#171=LINE('',#443,#208);
#172=LINE('',#445,#209);
#173=LINE('',#447,#210);
#174=LINE('',#449,#211);
#175=LINE('',#453,#212);
#176=LINE('',#455,#213);
#177=LINE('',#457,#214);
#178=LINE('',#459,#215);
#179=LINE('',#461,#216);
#180=LINE('',#463,#217);
#181=LINE('',#465,#218);
#182=LINE('',#467,#219);
#183=LINE('',#469,#220);
#184=LINE('',#471,#221);
#185=LINE('',#473,#222);
#186=LINE('',#476,#223);
#187=LINE('',#478,#224);
#188=LINE('',#480,#225);
#189=LINE('',#485,#226);
#190=LINE('',#488,#227);
#191=LINE('',#489,#228);
#192=LINE('',#496,#229);
#193=LINE('',#497,#230);
#194=LINE('',#498,#231);
#195=LINE('',#499,#232);
#196=LINE('',#501,#233);
#197=LINE('',#503,#234);
#198=LINE('',#505,#235);
#199=LINE('',#506,#236);
#200=LINE('',#507,#237);
#201=LINE('',#513,#238);
#202=LINE('',#516,#239);
#203=LINE('',#517,#240);
#204=LINE('',#519,#241);
#205=LINE('',#520,#242);
#206=VECTOR('',#359,1.);
#207=VECTOR('',#360,1.);
#208=VECTOR('',#361,1.);
#209=VECTOR('',#362,1.);
#210=VECTOR('',#363,1.);
#211=VECTOR('',#364,1.);
#212=VECTOR('',#369,1.);
#213=VECTOR('',#370,1.);
#214=VECTOR('',#371,1.);
#215=VECTOR('',#372,1.);
#216=VECTOR('',#375,1.);
#217=VECTOR('',#376,1.);
#218=VECTOR('',#377,1.);
#219=VECTOR('',#378,1.);
#220=VECTOR('',#379,1.);
#221=VECTOR('',#380,1.);
#222=VECTOR('',#383,1.);
#223=VECTOR('',#384,1.);
#224=VECTOR('',#385,1.);
#225=VECTOR('',#386,1.);
#226=VECTOR('',#393,1.);
#227=VECTOR('',#394,1.);
#228=VECTOR('',#395,1.);
#229=VECTOR('',#404,1.);
#230=VECTOR('',#405,1.);
#231=VECTOR('',#406,1.);
#232=VECTOR('',#407,1.);
#233=VECTOR('',#410,1.);
#234=VECTOR('',#411,1.);
#235=VECTOR('',#412,1.);
#236=VECTOR('',#413,1.);
#237=VECTOR('',#414,1.);
#238=VECTOR('',#425,1.);
#239=VECTOR('',#426,1.);
#240=VECTOR('',#427,1.);
#241=VECTOR('',#430,1.);
#242=VECTOR('',#431,1.);
#243=EDGE_LOOP('',(#18,#19,#20,#21,#22,#23));
#244=EDGE_LOOP('',(#24));
#245=EDGE_LOOP('',(#25,#26,#27,#28));
#246=EDGE_LOOP('',(#29,#30,#31,#32,#33,#34));
#247=EDGE_LOOP('',(#35,#36,#37,#38));
#248=EDGE_LOOP('',(#39));
#249=EDGE_LOOP('',(#40));
#250=EDGE_LOOP('',(#41,#42,#43,#44));
#251=EDGE_LOOP('',(#45));
#252=EDGE_LOOP('',(#46));
#253=EDGE_LOOP('',(#47,#48,#49,#50,#51,#52,#53,#54));
#254=EDGE_LOOP('',(#55));
#255=EDGE_LOOP('',(#56));
#256=EDGE_LOOP('',(#57,#58,#59,#60,#61,#62,#63,#64));
#257=EDGE_LOOP('',(#65));
#258=EDGE_LOOP('',(#66,#67,#68,#69));
#259=EDGE_LOOP('',(#70,#71,#72,#73));
#260=EDGE_LOOP('',(#74,#75,#76,#77));
#261=EDGE_LOOP('',(#78,#79,#80,#81));
#262=EDGE_LOOP('',(#82,#83,#84,#85));
#263=EDGE_LOOP('',(#86,#87,#88,#89,#90,#91));
#264=EDGE_LOOP('',(#92,#93,#94,#95));
#265=EDGE_LOOP('',(#96,#97,#98,#99));
#266=FACE_BOUND('',#243,.T.);
#267=FACE_BOUND('',#244,.T.);
#268=FACE_BOUND('',#245,.T.);
#269=FACE_BOUND('',#246,.T.);
#270=FACE_BOUND('',#247,.T.);
#271=FACE_BOUND('',#248,.T.);
#272=FACE_BOUND('',#249,.T.);
#273=FACE_BOUND('',#250,.T.);
#274=FACE_BOUND('',#251,.T.);
#275=FACE_BOUND('',#252,.T.);
#276=FACE_BOUND('',#253,.T.);
#277=FACE_BOUND('',#254,.T.);
#278=FACE_BOUND('',#255,.T.);
#279=FACE_BOUND('',#256,.T.);
#280=FACE_BOUND('',#257,.T.);
#281=FACE_BOUND('',#258,.T.);
#282=FACE_BOUND('',#259,.T.);
#283=FACE_BOUND('',#260,.T.);
#284=FACE_BOUND('',#261,.T.);
#285=FACE_BOUND('',#262,.T.);
#286=FACE_BOUND('',#263,.T.);
#287=FACE_BOUND('',#264,.T.);
#288=FACE_BOUND('',#265,.T.);
#289=PLANE('',#334);
#290=PLANE('',#335);
#291=PLANE('',#337);
#292=PLANE('',#338);
#293=PLANE('',#341);
#294=PLANE('',#345);
#295=PLANE('',#346);
#296=PLANE('',#347);
#297=PLANE('',#348);
#298=PLANE('',#349);
#299=PLANE('',#350);
#300=PLANE('',#351);
#301=PLANE('',#352);
#302=PLANE('',#353);
#303=PLANE('',#354);
#304=ADVANCED_FACE('',(#266),#289,.F.);
#305=ADVANCED_FACE('',(#267,#268),#290,.F.);
#306=ADVANCED_FACE('',(#269),#291,.T.);
#307=ADVANCED_FACE('',(#270),#292,.F.);
#308=ADVANCED_FACE('',(#271,#272),#12,.F.);
#309=ADVANCED_FACE('',(#273),#293,.T.);
#310=ADVANCED_FACE('',(#274,#275),#13,.F.);
#311=ADVANCED_FACE('',(#276,#277,#278),#294,.T.);
#312=ADVANCED_FACE('',(#279,#280),#295,.F.);
#313=ADVANCED_FACE('',(#281),#296,.T.);
#314=ADVANCED_FACE('',(#282),#297,.F.);
#315=ADVANCED_FACE('',(#283),#298,.F.);
#316=ADVANCED_FACE('',(#284),#299,.T.);
#317=ADVANCED_FACE('',(#285),#300,.T.);
#318=ADVANCED_FACE('',(#286),#301,.F.);
#319=ADVANCED_FACE('',(#287),#302,.T.);
#320=ADVANCED_FACE('',(#288),#303,.F.);
#321=CLOSED_SHELL('',(#304,#305,#306,#307,#308,#309,#310,#311,#312,#313,
#314,#315,#316,#317,#318,#319,#320));
#322=STYLED_ITEM('',(#323),#330);
#323=PRESENTATION_STYLE_ASSIGNMENT((#324));
#324=SURFACE_STYLE_USAGE(.BOTH.,#325);
#325=SURFACE_SIDE_STYLE('',(#326));
#326=SURFACE_STYLE_FILL_AREA(#327);
#327=FILL_AREA_STYLE('',(#328));
#328=FILL_AREA_STYLE_COLOUR('',#329);
#329=COLOUR_RGB('',0.866666666666667,0.32156862745098,0.156862745098039);
#330=MANIFOLD_SOLID_BREP('Bed Adapter',#321);
#331=SHAPE_DEFINITION_REPRESENTATION(#529,#332);
#332=SHAPE_REPRESENTATION('Bed Adapter',(#333),#524);
#333=AXIS2_PLACEMENT_3D('',#436,#355,#356);
#334=AXIS2_PLACEMENT_3D('',#437,#357,#358);
#335=AXIS2_PLACEMENT_3D('',#450,#365,#366);
#336=AXIS2_PLACEMENT_3D('',#451,#367,#368);
#337=AXIS2_PLACEMENT_3D('',#460,#373,#374);
#338=AXIS2_PLACEMENT_3D('',#472,#381,#382);
#339=AXIS2_PLACEMENT_3D('',#481,#387,#388);
#340=AXIS2_PLACEMENT_3D('',#482,#389,#390);
#341=AXIS2_PLACEMENT_3D('',#484,#391,#392);
#342=AXIS2_PLACEMENT_3D('',#490,#396,#397);
#343=AXIS2_PLACEMENT_3D('',#491,#398,#399);
#344=AXIS2_PLACEMENT_3D('',#493,#400,#401);
#345=AXIS2_PLACEMENT_3D('',#495,#402,#403);
#346=AXIS2_PLACEMENT_3D('',#500,#408,#409);
#347=AXIS2_PLACEMENT_3D('',#508,#415,#416);
#348=AXIS2_PLACEMENT_3D('',#509,#417,#418);
#349=AXIS2_PLACEMENT_3D('',#510,#419,#420);
#350=AXIS2_PLACEMENT_3D('',#511,#421,#422);
#351=AXIS2_PLACEMENT_3D('',#512,#423,#424);
#352=AXIS2_PLACEMENT_3D('',#518,#428,#429);
#353=AXIS2_PLACEMENT_3D('',#521,#432,#433);
#354=AXIS2_PLACEMENT_3D('',#522,#434,#435);
#355=DIRECTION('',(0.,0.,1.));
#356=DIRECTION('',(1.,0.,0.));
#357=DIRECTION('',(-1.,6.12323399573677E-17,1.98254111540206E-16));
#358=DIRECTION('',(1.98254111540206E-16,0.,1.));
#359=DIRECTION('',(-1.98254111540206E-16,1.21395631557758E-32,-1.));
#360=DIRECTION('',(-6.12323399573677E-17,-1.,0.));
#361=DIRECTION('',(1.86978540197378E-16,-0.148328633189258,0.988938125757222));
#362=DIRECTION('',(6.12323399573677E-17,1.,0.));
#363=DIRECTION('',(-1.98254111540206E-16,1.21395631557758E-32,-1.));
#364=DIRECTION('',(-6.12323399573677E-17,-1.,0.));
#365=DIRECTION('',(6.12323399573677E-17,1.,0.));
#366=DIRECTION('',(1.,-6.12323399573677E-17,0.));
#367=DIRECTION('',(6.12323399573677E-17,1.,0.));
#368=DIRECTION('',(1.,-6.12323399573677E-17,0.));
#369=DIRECTION('',(1.,-6.12323399573677E-17,0.));
#370=DIRECTION('',(-0.316227766016839,1.9363366072702E-17,0.948683298050513));
#371=DIRECTION('',(1.,-6.12323399573677E-17,0.));
#372=DIRECTION('',(0.316227766016838,-1.93633660727019E-17,0.948683298050514));
#373=DIRECTION('',(-1.,6.12323399573677E-17,1.98254111540206E-16));
#374=DIRECTION('',(1.98254111540206E-16,0.,1.));
#375=DIRECTION('',(-1.86978540197378E-16,0.148328633189258,-0.988938125757222));
#376=DIRECTION('',(6.12323399573677E-17,1.,0.));
#377=DIRECTION('',(-1.98254111540206E-16,1.21395631557758E-32,-1.));
#378=DIRECTION('',(6.12323399573677E-17,1.,0.));
#379=DIRECTION('',(-1.98254111540206E-16,1.21395631557758E-32,-1.));
#380=DIRECTION('',(-6.12323399573677E-17,-1.,0.));
#381=DIRECTION('',(0.,0.,-1.));
#382=DIRECTION('',(0.,1.,0.));
#383=DIRECTION('',(1.,-6.12323399573677E-17,0.));
#384=DIRECTION('',(6.12323399573677E-17,1.,0.));
#385=DIRECTION('',(1.,-6.12323399573677E-17,0.));
#386=DIRECTION('',(-6.12323399573677E-17,-1.,0.));
#387=DIRECTION('',(-6.12323399573677E-17,-1.,0.));
#388=DIRECTION('',(-1.,6.12323399573677E-17,0.));
#389=DIRECTION('',(6.12323399573677E-17,1.,0.));
#390=DIRECTION('',(1.,-6.12323399573677E-17,0.));
#391=DIRECTION('',(0.,0.,-1.));
#392=DIRECTION('',(0.,1.,0.));
#393=DIRECTION('',(1.,-6.12323399573677E-17,0.));
#394=DIRECTION('',(-6.12323399573677E-17,-1.,0.));
#395=DIRECTION('',(6.12323399573677E-17,1.,0.));
#396=DIRECTION('',(-6.12323399573677E-17,-1.,0.));
#397=DIRECTION('',(-1.,6.12323399573677E-17,0.));
#398=DIRECTION('',(6.12323399573677E-17,1.,0.));
#399=DIRECTION('',(1.,-6.12323399573677E-17,0.));
#400=DIRECTION('',(6.12323399573677E-17,1.,0.));
#401=DIRECTION('',(1.,-6.12323399573677E-17,0.));
#402=DIRECTION('',(6.12323399573677E-17,1.,0.));
#403=DIRECTION('',(1.,-6.12323399573677E-17,0.));
#404=DIRECTION('',(-0.707106781186548,4.32978028117747E-17,0.707106781186548));
#405=DIRECTION('',(-0.316227766016838,1.93633660727019E-17,-0.948683298050514));
#406=DIRECTION('',(0.316227766016839,-1.9363366072702E-17,-0.948683298050513));
#407=DIRECTION('',(0.707106781186548,-4.32978028117747E-17,0.707106781186548));
#408=DIRECTION('',(6.12323399573677E-17,1.,0.));
#409=DIRECTION('',(1.,-6.12323399573677E-17,0.));
#410=DIRECTION('',(-0.707106781186547,4.32978028117746E-17,-0.707106781186548));
#411=DIRECTION('',(1.,-6.12323399573677E-17,0.));
#412=DIRECTION('',(0.707106781186548,-4.32978028117746E-17,-0.707106781186548));
#413=DIRECTION('',(0.707106781186548,-4.32978028117747E-17,-0.707106781186548));
#414=DIRECTION('',(-0.707106781186548,4.32978028117747E-17,-0.707106781186548));
#415=DIRECTION('',(0.948683298050514,-5.80900982181058E-17,-0.316227766016838));
#416=DIRECTION('',(6.12323399573677E-17,1.,0.));
#417=DIRECTION('',(0.948683298050513,-5.80900982181058E-17,0.316227766016839));
#418=DIRECTION('',(-6.12323399573677E-17,-1.,0.));
#419=DIRECTION('',(-0.707106781186548,4.32978028117746E-17,-0.707106781186548));
#420=DIRECTION('',(-6.12323399573677E-17,-1.,0.));
#421=DIRECTION('',(-0.707106781186548,4.32978028117746E-17,0.707106781186548));
#422=DIRECTION('',(6.12323399573677E-17,1.,0.));
#423=DIRECTION('',(0.,0.,1.));
#424=DIRECTION('',(0.,-1.,0.));
#425=DIRECTION('',(1.,-6.12323399573677E-17,0.));
#426=DIRECTION('',(6.12323399573677E-17,1.,0.));
#427=DIRECTION('',(-6.12323399573677E-17,-1.,0.));
#428=DIRECTION('',(8.99617569020777E-17,0.988938125757222,0.148328633189258));
#429=DIRECTION('',(0.,-0.148328633189258,0.988938125757222));
#430=DIRECTION('',(-0.703163191233471,-0.105465885426145,0.703163191233472));
#431=DIRECTION('',(0.703163191233471,-0.105465885426145,0.703163191233472));
#432=DIRECTION('',(0.707106781186548,-4.32978028117747E-17,0.707106781186547));
#433=DIRECTION('',(-6.12323399573677E-17,-1.,0.));
#434=DIRECTION('',(0.707106781186548,-4.32978028117747E-17,-0.707106781186547));
#435=DIRECTION('',(6.12323399573677E-17,1.,0.));
#436=CARTESIAN_POINT('',(0.,0.,0.));
#437=CARTESIAN_POINT('',(0.0820248503983022,0.2174,0.0743594766072129));
#438=CARTESIAN_POINT('',(0.0820248503983022,0.2114,0.0743594766072129));
#439=CARTESIAN_POINT('',(0.0820248503983022,0.2114,0.104359476607213));
#440=CARTESIAN_POINT('',(0.0820248503983022,0.2114,0.0863623283735393));
#441=CARTESIAN_POINT('',(0.0820248503983022,0.20615,0.0863623283735393));
#442=CARTESIAN_POINT('',(0.0820248503983022,0.20659996333742,0.0863623283735393));
#443=CARTESIAN_POINT('',(0.0820248503983022,0.208775,0.0718609024903761));
#444=CARTESIAN_POINT('',(0.0820248503983022,0.2114,0.0543594766072129));
#445=CARTESIAN_POINT('',(0.0820248503983022,0.2174,0.0543594766072129));
#446=CARTESIAN_POINT('',(0.0820248503983022,0.2174,0.0543594766072129));
#447=CARTESIAN_POINT('',(0.0820248503983022,0.2174,0.0743594766072129));
#448=CARTESIAN_POINT('',(0.0820248503983022,0.2174,0.104359476607213));
#449=CARTESIAN_POINT('',(0.0820248503983022,0.2174,0.104359476607213));
#450=CARTESIAN_POINT('',(-0.000755854743810778,0.2114,0.018680451245188));
#451=CARTESIAN_POINT('',(0.0720248503983021,0.2114,0.0493594766072129));
#452=CARTESIAN_POINT('',(0.0735248503983021,0.2114,0.0493594766072129));
#453=CARTESIAN_POINT('',(0.0720248503983021,0.2114,0.0543594766072129));
#454=CARTESIAN_POINT('',(0.0620248503983021,0.2114,0.0543594766072129));
#455=CARTESIAN_POINT('',(0.0620248503983021,0.2114,0.0543594766072129));
#456=CARTESIAN_POINT('',(0.0670248503983021,0.2114,0.0393594766072129));
#457=CARTESIAN_POINT('',(0.0720248503983021,0.2114,0.0393594766072129));
#458=CARTESIAN_POINT('',(0.0770248503983022,0.2114,0.0393594766072129));
#459=CARTESIAN_POINT('',(0.0770248503983022,0.2114,0.0393594766072129));
#460=CARTESIAN_POINT('',(0.0620248503983021,0.2174,0.0743594766072129));
#461=CARTESIAN_POINT('',(0.0620248503983021,0.208598251490496,0.0730393218957232));
#462=CARTESIAN_POINT('',(0.0620248503983021,0.20659996333742,0.0863623283735393));
#463=CARTESIAN_POINT('',(0.0620248503983021,0.2174,0.0863623283735393));
#464=CARTESIAN_POINT('',(0.0620248503983021,0.2114,0.0863623283735393));
#465=CARTESIAN_POINT('',(0.0620248503983021,0.2114,0.0743594766072129));
#466=CARTESIAN_POINT('',(0.0620248503983021,0.2114,0.104359476607213));
#467=CARTESIAN_POINT('',(0.0620248503983021,0.2174,0.104359476607213));
#468=CARTESIAN_POINT('',(0.0620248503983021,0.2174,0.104359476607213));
#469=CARTESIAN_POINT('',(0.0620248503983021,0.2174,0.0743594766072129));
#470=CARTESIAN_POINT('',(0.0620248503983021,0.2174,0.0543594766072129));
#471=CARTESIAN_POINT('',(0.0620248503983021,0.2174,0.0543594766072129));
#472=CARTESIAN_POINT('',(-0.290255854743811,0.2174,0.109359476607213));
#473=CARTESIAN_POINT('',(-0.290255854743811,0.2114,0.109359476607213));
#474=CARTESIAN_POINT('',(0.0670248503983021,0.2114,0.109359476607213));
#475=CARTESIAN_POINT('',(0.0770248503983022,0.2114,0.109359476607213));
#476=CARTESIAN_POINT('',(0.0770248503983022,0.2174,0.109359476607213));
#477=CARTESIAN_POINT('',(0.0770248503983022,0.2174,0.109359476607213));
#478=CARTESIAN_POINT('',(-0.290255854743811,0.2174,0.109359476607213));
#479=CARTESIAN_POINT('',(0.0670248503983021,0.2174,0.109359476607213));
#480=CARTESIAN_POINT('',(0.0670248503983021,0.2114,0.109359476607213));
#481=CARTESIAN_POINT('',(0.0720248503983021,0.2174,0.0493594766072129));
#482=CARTESIAN_POINT('',(0.0720248503983021,0.2174,0.0493594766072129));
#483=CARTESIAN_POINT('',(0.0735248503983021,0.2174,0.0493594766072129));
#484=CARTESIAN_POINT('',(0.0720248503983021,0.2174,0.0393594766072129));
#485=CARTESIAN_POINT('',(0.0720248503983021,0.2174,0.0393594766072129));
#486=CARTESIAN_POINT('',(0.0670248503983021,0.2174,0.0393594766072129));
#487=CARTESIAN_POINT('',(0.0770248503983022,0.2174,0.0393594766072129));
#488=CARTESIAN_POINT('',(0.0770248503983022,0.2114,0.0393594766072129));
#489=CARTESIAN_POINT('',(0.0670248503983021,0.2174,0.0393594766072129));
#490=CARTESIAN_POINT('',(0.0720248503983021,0.2174,0.0993609024903761));
#491=CARTESIAN_POINT('',(0.0720248503983021,0.2174,0.0993609024903761));
#492=CARTESIAN_POINT('',(0.0746748503983021,0.2174,0.0993609024903761));
#493=CARTESIAN_POINT('',(0.0720248503983021,0.2114,0.0993609024903761));
#494=CARTESIAN_POINT('',(0.0746748503983021,0.2114,0.0993609024903761));
#495=CARTESIAN_POINT('',(-0.000755854743810778,0.2174,0.018680451245188));
#496=CARTESIAN_POINT('',(0.0834740105082582,0.2174,0.102910316497257));
#497=CARTESIAN_POINT('',(0.0630430722754834,0.2174,-0.00258585776124336));
#498=CARTESIAN_POINT('',(0.0664504874926983,0.2174,0.0410825653240244));
#499=CARTESIAN_POINT('',(-0.0122050148537668,0.2174,0.0301296113551441));
#500=CARTESIAN_POINT('',(-0.000755854743810778,0.2114,0.018680451245188));
#501=CARTESIAN_POINT('',(-0.00320644073692988,0.2114,0.0211310372383071));
#502=CARTESIAN_POINT('',(0.0650248503983021,0.2114,0.0893623283735393));
#503=CARTESIAN_POINT('',(0.0720248503983021,0.2114,0.0893623283735393));
#504=CARTESIAN_POINT('',(0.0790248503983022,0.2114,0.0893623283735393));
#505=CARTESIAN_POINT('',(0.0744754363914213,0.2114,0.0939117423804201));
#506=CARTESIAN_POINT('',(0.0820248503983022,0.2114,0.104359476607213));
#507=CARTESIAN_POINT('',(0.0670248503983021,0.2114,0.109359476607213));
#508=CARTESIAN_POINT('',(0.0770248503983022,0.2174,0.0393594766072129));
#509=CARTESIAN_POINT('',(0.0620248503983021,0.2174,0.0543594766072129));
#510=CARTESIAN_POINT('',(0.0820248503983022,0.2174,0.104359476607213));
#511=CARTESIAN_POINT('',(0.0670248503983021,0.2174,0.109359476607213));
#512=CARTESIAN_POINT('',(0.0720248503983021,0.206148,0.0893623283735393));
#513=CARTESIAN_POINT('',(0.0720248503983021,0.20615,0.0893623283735393));
#514=CARTESIAN_POINT('',(0.0650248503983021,0.20615,0.0893623283735393));
#515=CARTESIAN_POINT('',(0.0790248503983022,0.20615,0.0893623283735393));
#516=CARTESIAN_POINT('',(0.0790248503983022,0.2114,0.0893623283735393));
#517=CARTESIAN_POINT('',(0.0650248503983021,0.206148,0.0893623283735393));
#518=CARTESIAN_POINT('',(0.0820268503983022,0.208775,0.0718609024903761));
#519=CARTESIAN_POINT('',(0.079024702078845,0.206149977753894,0.0893624766929964));
#520=CARTESIAN_POINT('',(0.06122392261094,0.206720092717498,0.0855614005861772));
#521=CARTESIAN_POINT('',(0.0790248503983022,0.206148,0.0893623283735393));
#522=CARTESIAN_POINT('',(0.0620248503983021,0.2174,0.0863623283735393));
#523=MECHANICAL_DESIGN_GEOMETRIC_PRESENTATION_REPRESENTATION('',(#322),
#524);
#524=(
GEOMETRIC_REPRESENTATION_CONTEXT(3)
GLOBAL_UNCERTAINTY_ASSIGNED_CONTEXT((#525))
GLOBAL_UNIT_ASSIGNED_CONTEXT((#528,#527,#526))
REPRESENTATION_CONTEXT('Bed Adapter','TOP_LEVEL_ASSEMBLY_PART')
);
#525=UNCERTAINTY_MEASURE_WITH_UNIT(LENGTH_MEASURE(1.E-8),#528,
'DISTANCE_ACCURACY_VALUE','Maximum Tolerance applied to model');
#526=(
NAMED_UNIT(*)
SI_UNIT($,.STERADIAN.)
SOLID_ANGLE_UNIT()
);
#527=(
NAMED_UNIT(*)
PLANE_ANGLE_UNIT()
SI_UNIT($,.RADIAN.)
);
#528=(
LENGTH_UNIT()
NAMED_UNIT(*)
SI_UNIT($,.METRE.)
);
#529=PRODUCT_DEFINITION_SHAPE('','',#530);
#530=PRODUCT_DEFINITION('','',#532,#531);
#531=PRODUCT_DEFINITION_CONTEXT('',#538,'design');
#532=PRODUCT_DEFINITION_FORMATION_WITH_SPECIFIED_SOURCE('','',#534,
 .NOT_KNOWN.);
#533=PRODUCT_RELATED_PRODUCT_CATEGORY('','',(#534));
#534=PRODUCT('Bed Adapter','Bed Adapter','Bed Adapter',(#536));
#535=PRODUCT_CATEGORY('','');
#536=PRODUCT_CONTEXT('',#538,'mechanical');
#537=APPLICATION_PROTOCOL_DEFINITION('international standard',
'ap242_managed_model_based_3d_engineering',2020,#538);
#538=APPLICATION_CONTEXT('managed model based 3d engineering');
ENDSEC;
END-ISO-10303-21;
