ISO-10303-21;
HEADER;
/* Generated by software containing ST-Developer
 * from STEP Tools, Inc. (www.steptools.com) 
 */
/* OPTION: using custom renumber hook */

FILE_DESCRIPTION(
/* description */ ('STEP AP242 Edition 2',
'CAx-IF Rec.Pracs.---Representation and Presentation of Product Manufa
cturing Information (PMI)---4.0---2014-10-13',
'CAx-IF Rec.Pracs.---3D Tessellated Geometry---0.4---2014-09-14','2;1',
'CAx-IF Rec.Pracs.---User Defined Attributes---1.5---2016-08-15'),
/* implementation_level */ '2;1');

FILE_NAME(
/* name */ 'NOT-618 - XY2_TOP',
/* time_stamp */ '2026-07-11T06:10:35Z',
/* author */ (''),
/* organization */ (''),
/* preprocessor_version */ 'ST-DEVELOPER v20',
/* originating_system */ 'ONSHAPE BY PTC INC, 1.217',
/* authorisation */ '  ');

FILE_SCHEMA (('AP242_MANAGED_MODEL_BASED_3D_ENGINEERING_MIM_LF { 1 0 10303 442 3 1 4 }'));
ENDSEC;

DATA;
#10=SHAPE_REPRESENTATION_RELATIONSHIP('','',#1216,#11);
#11=ADVANCED_BREP_SHAPE_REPRESENTATION('',(#1214),#1962);
#12=CYLINDRICAL_SURFACE('',#1224,0.0025);
#13=CYLINDRICAL_SURFACE('',#1235,0.005);
#14=CYLINDRICAL_SURFACE('',#1247,0.0103);
#15=CYLINDRICAL_SURFACE('',#1258,0.0105);
#16=CYLINDRICAL_SURFACE('',#1271,0.0011);
#17=CYLINDRICAL_SURFACE('',#1274,0.0011);
#18=CYLINDRICAL_SURFACE('',#1277,0.0011);
#19=CYLINDRICAL_SURFACE('',#1280,0.0011);
#20=CYLINDRICAL_SURFACE('',#1289,0.0025);
#21=CYLINDRICAL_SURFACE('',#1304,0.0016);
#22=LINE('',#1630,#161);
#23=LINE('',#1633,#162);
#24=LINE('',#1635,#163);
#25=LINE('',#1637,#164);
#26=LINE('',#1639,#165);
#27=LINE('',#1641,#166);
#28=LINE('',#1643,#167);
#29=LINE('',#1645,#168);
#30=LINE('',#1647,#169);
#31=LINE('',#1649,#170);
#32=LINE('',#1651,#171);
#33=LINE('',#1653,#172);
#34=LINE('',#1655,#173);
#35=LINE('',#1657,#174);
#36=LINE('',#1659,#175);
#37=LINE('',#1661,#176);
#38=LINE('',#1663,#177);
#39=LINE('',#1664,#178);
#40=LINE('',#1666,#179);
#41=LINE('',#1668,#180);
#42=LINE('',#1670,#181);
#43=LINE('',#1672,#182);
#44=LINE('',#1674,#183);
#45=LINE('',#1678,#184);
#46=LINE('',#1681,#185);
#47=LINE('',#1683,#186);
#48=LINE('',#1685,#187);
#49=LINE('',#1687,#188);
#50=LINE('',#1689,#189);
#51=LINE('',#1691,#190);
#52=LINE('',#1693,#191);
#53=LINE('',#1695,#192);
#54=LINE('',#1697,#193);
#55=LINE('',#1699,#194);
#56=LINE('',#1701,#195);
#57=LINE('',#1703,#196);
#58=LINE('',#1705,#197);
#59=LINE('',#1707,#198);
#60=LINE('',#1709,#199);
#61=LINE('',#1711,#200);
#62=LINE('',#1713,#201);
#63=LINE('',#1715,#202);
#64=LINE('',#1716,#203);
#65=LINE('',#1718,#204);
#66=LINE('',#1720,#205);
#67=LINE('',#1722,#206);
#68=LINE('',#1724,#207);
#69=LINE('',#1731,#208);
#70=LINE('',#1733,#209);
#71=LINE('',#1735,#210);
#72=LINE('',#1737,#211);
#73=LINE('',#1740,#212);
#74=LINE('',#1741,#213);
#75=LINE('',#1743,#214);
#76=LINE('',#1745,#215);
#77=LINE('',#1748,#216);
#78=LINE('',#1749,#217);
#79=LINE('',#1751,#218);
#80=LINE('',#1754,#219);
#81=LINE('',#1756,#220);
#82=LINE('',#1758,#221);
#83=LINE('',#1760,#222);
#84=LINE('',#1762,#223);
#85=LINE('',#1764,#224);
#86=LINE('',#1766,#225);
#87=LINE('',#1768,#226);
#88=LINE('',#1770,#227);
#89=LINE('',#1772,#228);
#90=LINE('',#1774,#229);
#91=LINE('',#1776,#230);
#92=LINE('',#1778,#231);
#93=LINE('',#1781,#232);
#94=LINE('',#1783,#233);
#95=LINE('',#1785,#234);
#96=LINE('',#1789,#235);
#97=LINE('',#1793,#236);
#98=LINE('',#1795,#237);
#99=LINE('',#1797,#238);
#100=LINE('',#1799,#239);
#101=LINE('',#1800,#240);
#102=LINE('',#1802,#241);
#103=LINE('',#1804,#242);
#104=LINE('',#1805,#243);
#105=LINE('',#1807,#244);
#106=LINE('',#1809,#245);
#107=LINE('',#1811,#246);
#108=LINE('',#1815,#247);
#109=LINE('',#1817,#248);
#110=LINE('',#1819,#249);
#111=LINE('',#1821,#250);
#112=LINE('',#1822,#251);
#113=LINE('',#1825,#252);
#114=LINE('',#1826,#253);
#115=LINE('',#1828,#254);
#116=LINE('',#1830,#255);
#117=LINE('',#1833,#256);
#118=LINE('',#1836,#257);
#119=LINE('',#1838,#258);
#120=LINE('',#1840,#259);
#121=LINE('',#1842,#260);
#122=LINE('',#1844,#261);
#123=LINE('',#1846,#262);
#124=LINE('',#1848,#263);
#125=LINE('',#1850,#264);
#126=LINE('',#1852,#265);
#127=LINE('',#1854,#266);
#128=LINE('',#1857,#267);
#129=LINE('',#1859,#268);
#130=LINE('',#1861,#269);
#131=LINE('',#1863,#270);
#132=LINE('',#1865,#271);
#133=LINE('',#1867,#272);
#134=LINE('',#1869,#273);
#135=LINE('',#1870,#274);
#136=LINE('',#1877,#275);
#137=LINE('',#1880,#276);
#138=LINE('',#1882,#277);
#139=LINE('',#1884,#278);
#140=LINE('',#1886,#279);
#141=LINE('',#1887,#280);
#142=LINE('',#1889,#281);
#143=LINE('',#1890,#282);
#144=LINE('',#1913,#283);
#145=LINE('',#1915,#284);
#146=LINE('',#1918,#285);
#147=LINE('',#1920,#286);
#148=LINE('',#1927,#287);
#149=LINE('',#1929,#288);
#150=LINE('',#1931,#289);
#151=LINE('',#1934,#290);
#152=LINE('',#1936,#291);
#153=LINE('',#1938,#292);
#154=LINE('',#1940,#293);
#155=LINE('',#1942,#294);
#156=LINE('',#1947,#295);
#157=LINE('',#1949,#296);
#158=LINE('',#1951,#297);
#159=LINE('',#1953,#298);
#160=LINE('',#1955,#299);
#161=VECTOR('',#1313,1.);
#162=VECTOR('',#1314,1.);
#163=VECTOR('',#1315,1.);
#164=VECTOR('',#1316,1.);
#165=VECTOR('',#1317,1.);
#166=VECTOR('',#1318,1.);
#167=VECTOR('',#1319,1.);
#168=VECTOR('',#1320,1.);
#169=VECTOR('',#1321,1.);
#170=VECTOR('',#1322,1.);
#171=VECTOR('',#1323,1.);
#172=VECTOR('',#1324,1.);
#173=VECTOR('',#1325,1.);
#174=VECTOR('',#1326,1.);
#175=VECTOR('',#1329,1.);
#176=VECTOR('',#1330,1.);
#177=VECTOR('',#1331,1.);
#178=VECTOR('',#1332,1.);
#179=VECTOR('',#1333,1.);
#180=VECTOR('',#1334,1.);
#181=VECTOR('',#1335,1.);
#182=VECTOR('',#1336,1.);
#183=VECTOR('',#1337,1.);
#184=VECTOR('',#1342,1.);
#185=VECTOR('',#1343,1.);
#186=VECTOR('',#1344,1.);
#187=VECTOR('',#1345,1.);
#188=VECTOR('',#1346,1.);
#189=VECTOR('',#1347,1.);
#190=VECTOR('',#1348,1.);
#191=VECTOR('',#1349,1.);
#192=VECTOR('',#1350,1.);
#193=VECTOR('',#1351,1.);
#194=VECTOR('',#1352,1.);
#195=VECTOR('',#1353,1.);
#196=VECTOR('',#1354,1.);
#197=VECTOR('',#1355,1.);
#198=VECTOR('',#1356,1.);
#199=VECTOR('',#1357,1.);
#200=VECTOR('',#1360,1.);
#201=VECTOR('',#1361,1.);
#202=VECTOR('',#1362,1.);
#203=VECTOR('',#1363,1.);
#204=VECTOR('',#1364,1.);
#205=VECTOR('',#1365,1.);
#206=VECTOR('',#1366,1.);
#207=VECTOR('',#1367,1.);
#208=VECTOR('',#1376,1.);
#209=VECTOR('',#1377,1.);
#210=VECTOR('',#1378,1.);
#211=VECTOR('',#1381,1.);
#212=VECTOR('',#1382,1.);
#213=VECTOR('',#1383,1.);
#214=VECTOR('',#1384,1.);
#215=VECTOR('',#1387,1.);
#216=VECTOR('',#1388,1.);
#217=VECTOR('',#1389,1.);
#218=VECTOR('',#1392,1.);
#219=VECTOR('',#1393,1.);
#220=VECTOR('',#1396,1.);
#221=VECTOR('',#1397,1.);
#222=VECTOR('',#1398,1.);
#223=VECTOR('',#1399,1.);
#224=VECTOR('',#1402,1.);
#225=VECTOR('',#1403,1.);
#226=VECTOR('',#1404,1.);
#227=VECTOR('',#1407,1.);
#228=VECTOR('',#1408,1.);
#229=VECTOR('',#1409,1.);
#230=VECTOR('',#1410,1.);
#231=VECTOR('',#1413,1.);
#232=VECTOR('',#1414,1.);
#233=VECTOR('',#1415,1.);
#234=VECTOR('',#1416,1.);
#235=VECTOR('',#1421,1.);
#236=VECTOR('',#1426,1.);
#237=VECTOR('',#1427,1.);
#238=VECTOR('',#1428,1.);
#239=VECTOR('',#1431,1.);
#240=VECTOR('',#1432,1.);
#241=VECTOR('',#1435,1.);
#242=VECTOR('',#1438,1.);
#243=VECTOR('',#1439,1.);
#244=VECTOR('',#1442,1.);
#245=VECTOR('',#1443,1.);
#246=VECTOR('',#1444,1.);
#247=VECTOR('',#1449,1.);
#248=VECTOR('',#1450,1.);
#249=VECTOR('',#1453,1.);
#250=VECTOR('',#1456,1.);
#251=VECTOR('',#1457,1.);
#252=VECTOR('',#1462,1.);
#253=VECTOR('',#1463,1.);
#254=VECTOR('',#1466,1.);
#255=VECTOR('',#1469,1.);
#256=VECTOR('',#1474,1.);
#257=VECTOR('',#1479,1.);
#258=VECTOR('',#1480,1.);
#259=VECTOR('',#1481,1.);
#260=VECTOR('',#1484,1.);
#261=VECTOR('',#1485,1.);
#262=VECTOR('',#1488,1.);
#263=VECTOR('',#1489,1.);
#264=VECTOR('',#1492,1.);
#265=VECTOR('',#1493,1.);
#266=VECTOR('',#1494,1.);
#267=VECTOR('',#1499,1.);
#268=VECTOR('',#1500,1.);
#269=VECTOR('',#1501,1.);
#270=VECTOR('',#1504,1.);
#271=VECTOR('',#1505,1.);
#272=VECTOR('',#1506,1.);
#273=VECTOR('',#1509,1.);
#274=VECTOR('',#1510,1.);
#275=VECTOR('',#1519,1.);
#276=VECTOR('',#1520,1.);
#277=VECTOR('',#1521,1.);
#278=VECTOR('',#1522,1.);
#279=VECTOR('',#1525,1.);
#280=VECTOR('',#1526,1.);
#281=VECTOR('',#1529,1.);
#282=VECTOR('',#1530,1.);
#283=VECTOR('',#1563,1.);
#284=VECTOR('',#1566,1.);
#285=VECTOR('',#1571,1.);
#286=VECTOR('',#1574,1.);
#287=VECTOR('',#1585,1.);
#288=VECTOR('',#1586,1.);
#289=VECTOR('',#1589,1.);
#290=VECTOR('',#1594,1.);
#291=VECTOR('',#1595,1.);
#292=VECTOR('',#1596,1.);
#293=VECTOR('',#1599,1.);
#294=VECTOR('',#1602,1.);
#295=VECTOR('',#1609,1.);
#296=VECTOR('',#1610,1.);
#297=VECTOR('',#1611,1.);
#298=VECTOR('',#1614,1.);
#299=VECTOR('',#1617,1.);
#300=ORIENTED_EDGE('',*,*,#618,.T.);
#301=ORIENTED_EDGE('',*,*,#619,.T.);
#302=ORIENTED_EDGE('',*,*,#620,.T.);
#303=ORIENTED_EDGE('',*,*,#621,.F.);
#304=ORIENTED_EDGE('',*,*,#622,.F.);
#305=ORIENTED_EDGE('',*,*,#623,.T.);
#306=ORIENTED_EDGE('',*,*,#624,.T.);
#307=ORIENTED_EDGE('',*,*,#625,.F.);
#308=ORIENTED_EDGE('',*,*,#626,.T.);
#309=ORIENTED_EDGE('',*,*,#627,.F.);
#310=ORIENTED_EDGE('',*,*,#628,.T.);
#311=ORIENTED_EDGE('',*,*,#629,.T.);
#312=ORIENTED_EDGE('',*,*,#630,.T.);
#313=ORIENTED_EDGE('',*,*,#631,.F.);
#314=ORIENTED_EDGE('',*,*,#632,.F.);
#315=ORIENTED_EDGE('',*,*,#633,.F.);
#316=ORIENTED_EDGE('',*,*,#634,.F.);
#317=ORIENTED_EDGE('',*,*,#635,.T.);
#318=ORIENTED_EDGE('',*,*,#631,.T.);
#319=ORIENTED_EDGE('',*,*,#636,.T.);
#320=ORIENTED_EDGE('',*,*,#637,.T.);
#321=ORIENTED_EDGE('',*,*,#638,.F.);
#322=ORIENTED_EDGE('',*,*,#639,.F.);
#323=ORIENTED_EDGE('',*,*,#640,.F.);
#324=ORIENTED_EDGE('',*,*,#641,.F.);
#325=ORIENTED_EDGE('',*,*,#621,.T.);
#326=ORIENTED_EDGE('',*,*,#642,.F.);
#327=ORIENTED_EDGE('',*,*,#643,.T.);
#328=ORIENTED_EDGE('',*,*,#644,.T.);
#329=ORIENTED_EDGE('',*,*,#645,.F.);
#330=ORIENTED_EDGE('',*,*,#646,.T.);
#331=ORIENTED_EDGE('',*,*,#647,.T.);
#332=ORIENTED_EDGE('',*,*,#648,.T.);
#333=ORIENTED_EDGE('',*,*,#649,.T.);
#334=ORIENTED_EDGE('',*,*,#650,.T.);
#335=ORIENTED_EDGE('',*,*,#651,.T.);
#336=ORIENTED_EDGE('',*,*,#652,.T.);
#337=ORIENTED_EDGE('',*,*,#653,.T.);
#338=ORIENTED_EDGE('',*,*,#654,.T.);
#339=ORIENTED_EDGE('',*,*,#655,.T.);
#340=ORIENTED_EDGE('',*,*,#656,.T.);
#341=ORIENTED_EDGE('',*,*,#657,.F.);
#342=ORIENTED_EDGE('',*,*,#658,.F.);
#343=ORIENTED_EDGE('',*,*,#659,.F.);
#344=ORIENTED_EDGE('',*,*,#660,.F.);
#345=ORIENTED_EDGE('',*,*,#661,.T.);
#346=ORIENTED_EDGE('',*,*,#657,.T.);
#347=ORIENTED_EDGE('',*,*,#662,.T.);
#348=ORIENTED_EDGE('',*,*,#663,.F.);
#349=ORIENTED_EDGE('',*,*,#664,.F.);
#350=ORIENTED_EDGE('',*,*,#665,.T.);
#351=ORIENTED_EDGE('',*,*,#666,.T.);
#352=ORIENTED_EDGE('',*,*,#645,.T.);
#353=ORIENTED_EDGE('',*,*,#667,.T.);
#354=ORIENTED_EDGE('',*,*,#668,.F.);
#355=ORIENTED_EDGE('',*,*,#624,.F.);
#356=ORIENTED_EDGE('',*,*,#669,.T.);
#357=ORIENTED_EDGE('',*,*,#670,.F.);
#358=ORIENTED_EDGE('',*,*,#671,.F.);
#359=ORIENTED_EDGE('',*,*,#672,.T.);
#360=ORIENTED_EDGE('',*,*,#673,.T.);
#361=ORIENTED_EDGE('',*,*,#652,.F.);
#362=ORIENTED_EDGE('',*,*,#674,.T.);
#363=ORIENTED_EDGE('',*,*,#675,.F.);
#364=ORIENTED_EDGE('',*,*,#676,.T.);
#365=ORIENTED_EDGE('',*,*,#677,.T.);
#366=ORIENTED_EDGE('',*,*,#646,.F.);
#367=ORIENTED_EDGE('',*,*,#666,.F.);
#368=ORIENTED_EDGE('',*,*,#678,.F.);
#369=ORIENTED_EDGE('',*,*,#679,.T.);
#370=ORIENTED_EDGE('',*,*,#680,.T.);
#371=ORIENTED_EDGE('',*,*,#678,.T.);
#372=ORIENTED_EDGE('',*,*,#665,.F.);
#373=ORIENTED_EDGE('',*,*,#681,.F.);
#374=ORIENTED_EDGE('',*,*,#637,.F.);
#375=ORIENTED_EDGE('',*,*,#682,.T.);
#376=ORIENTED_EDGE('',*,*,#683,.T.);
#377=ORIENTED_EDGE('',*,*,#684,.T.);
#378=ORIENTED_EDGE('',*,*,#685,.F.);
#379=ORIENTED_EDGE('',*,*,#686,.T.);
#380=ORIENTED_EDGE('',*,*,#687,.T.);
#381=ORIENTED_EDGE('',*,*,#688,.F.);
#382=ORIENTED_EDGE('',*,*,#689,.T.);
#383=ORIENTED_EDGE('',*,*,#690,.T.);
#384=ORIENTED_EDGE('',*,*,#691,.T.);
#385=ORIENTED_EDGE('',*,*,#692,.T.);
#386=ORIENTED_EDGE('',*,*,#693,.T.);
#387=ORIENTED_EDGE('',*,*,#694,.T.);
#388=ORIENTED_EDGE('',*,*,#695,.T.);
#389=ORIENTED_EDGE('',*,*,#696,.T.);
#390=ORIENTED_EDGE('',*,*,#696,.F.);
#391=ORIENTED_EDGE('',*,*,#697,.F.);
#392=ORIENTED_EDGE('',*,*,#698,.F.);
#393=ORIENTED_EDGE('',*,*,#699,.F.);
#394=ORIENTED_EDGE('',*,*,#700,.T.);
#395=ORIENTED_EDGE('',*,*,#701,.T.);
#396=ORIENTED_EDGE('',*,*,#702,.T.);
#397=ORIENTED_EDGE('',*,*,#698,.T.);
#398=ORIENTED_EDGE('',*,*,#703,.T.);
#399=ORIENTED_EDGE('',*,*,#691,.F.);
#400=ORIENTED_EDGE('',*,*,#704,.F.);
#401=ORIENTED_EDGE('',*,*,#683,.F.);
#402=ORIENTED_EDGE('',*,*,#705,.T.);
#403=ORIENTED_EDGE('',*,*,#629,.F.);
#404=ORIENTED_EDGE('',*,*,#686,.F.);
#405=ORIENTED_EDGE('',*,*,#692,.F.);
#406=ORIENTED_EDGE('',*,*,#706,.F.);
#407=ORIENTED_EDGE('',*,*,#694,.F.);
#408=ORIENTED_EDGE('',*,*,#707,.F.);
#409=ORIENTED_EDGE('',*,*,#626,.F.);
#410=ORIENTED_EDGE('',*,*,#708,.F.);
#411=ORIENTED_EDGE('',*,*,#709,.F.);
#412=ORIENTED_EDGE('',*,*,#710,.F.);
#413=ORIENTED_EDGE('',*,*,#701,.F.);
#414=ORIENTED_EDGE('',*,*,#711,.T.);
#415=ORIENTED_EDGE('',*,*,#712,.F.);
#416=ORIENTED_EDGE('',*,*,#713,.T.);
#417=ORIENTED_EDGE('',*,*,#627,.T.);
#418=ORIENTED_EDGE('',*,*,#707,.T.);
#419=ORIENTED_EDGE('',*,*,#693,.F.);
#420=ORIENTED_EDGE('',*,*,#699,.T.);
#421=ORIENTED_EDGE('',*,*,#702,.F.);
#422=ORIENTED_EDGE('',*,*,#710,.T.);
#423=ORIENTED_EDGE('',*,*,#713,.F.);
#424=ORIENTED_EDGE('',*,*,#714,.F.);
#425=ORIENTED_EDGE('',*,*,#687,.F.);
#426=ORIENTED_EDGE('',*,*,#628,.F.);
#427=ORIENTED_EDGE('',*,*,#688,.T.);
#428=ORIENTED_EDGE('',*,*,#715,.F.);
#429=ORIENTED_EDGE('',*,*,#716,.F.);
#430=ORIENTED_EDGE('',*,*,#689,.F.);
#431=ORIENTED_EDGE('',*,*,#642,.T.);
#432=ORIENTED_EDGE('',*,*,#618,.F.);
#433=ORIENTED_EDGE('',*,*,#717,.T.);
#434=ORIENTED_EDGE('',*,*,#690,.F.);
#435=ORIENTED_EDGE('',*,*,#718,.F.);
#436=ORIENTED_EDGE('',*,*,#651,.F.);
#437=ORIENTED_EDGE('',*,*,#703,.F.);
#438=ORIENTED_EDGE('',*,*,#719,.T.);
#439=ORIENTED_EDGE('',*,*,#705,.F.);
#440=ORIENTED_EDGE('',*,*,#720,.F.);
#441=ORIENTED_EDGE('',*,*,#704,.T.);
#442=ORIENTED_EDGE('',*,*,#717,.F.);
#443=ORIENTED_EDGE('',*,*,#718,.T.);
#444=ORIENTED_EDGE('',*,*,#716,.T.);
#445=ORIENTED_EDGE('',*,*,#674,.F.);
#446=ORIENTED_EDGE('',*,*,#667,.F.);
#447=ORIENTED_EDGE('',*,*,#625,.T.);
#448=ORIENTED_EDGE('',*,*,#671,.T.);
#449=ORIENTED_EDGE('',*,*,#721,.F.);
#450=ORIENTED_EDGE('',*,*,#708,.T.);
#451=ORIENTED_EDGE('',*,*,#700,.F.);
#452=ORIENTED_EDGE('',*,*,#697,.T.);
#453=ORIENTED_EDGE('',*,*,#695,.F.);
#454=ORIENTED_EDGE('',*,*,#706,.T.);
#455=ORIENTED_EDGE('',*,*,#636,.F.);
#456=ORIENTED_EDGE('',*,*,#630,.F.);
#457=ORIENTED_EDGE('',*,*,#719,.F.);
#458=ORIENTED_EDGE('',*,*,#682,.F.);
#459=ORIENTED_EDGE('',*,*,#656,.F.);
#460=ORIENTED_EDGE('',*,*,#722,.T.);
#461=ORIENTED_EDGE('',*,*,#723,.F.);
#462=ORIENTED_EDGE('',*,*,#724,.F.);
#463=ORIENTED_EDGE('',*,*,#662,.F.);
#464=ORIENTED_EDGE('',*,*,#650,.F.);
#465=ORIENTED_EDGE('',*,*,#725,.T.);
#466=ORIENTED_EDGE('',*,*,#726,.F.);
#467=ORIENTED_EDGE('',*,*,#684,.F.);
#468=ORIENTED_EDGE('',*,*,#720,.T.);
#469=ORIENTED_EDGE('',*,*,#727,.T.);
#470=ORIENTED_EDGE('',*,*,#728,.T.);
#471=ORIENTED_EDGE('',*,*,#639,.T.);
#472=ORIENTED_EDGE('',*,*,#729,.T.);
#473=ORIENTED_EDGE('',*,*,#663,.T.);
#474=ORIENTED_EDGE('',*,*,#724,.T.);
#475=ORIENTED_EDGE('',*,*,#730,.F.);
#476=ORIENTED_EDGE('',*,*,#731,.F.);
#477=ORIENTED_EDGE('',*,*,#732,.T.);
#478=ORIENTED_EDGE('',*,*,#675,.T.);
#479=ORIENTED_EDGE('',*,*,#715,.T.);
#480=ORIENTED_EDGE('',*,*,#714,.T.);
#481=ORIENTED_EDGE('',*,*,#712,.T.);
#482=ORIENTED_EDGE('',*,*,#709,.T.);
#483=ORIENTED_EDGE('',*,*,#721,.T.);
#484=ORIENTED_EDGE('',*,*,#670,.T.);
#485=ORIENTED_EDGE('',*,*,#681,.T.);
#486=ORIENTED_EDGE('',*,*,#664,.T.);
#487=ORIENTED_EDGE('',*,*,#729,.F.);
#488=ORIENTED_EDGE('',*,*,#638,.T.);
#489=ORIENTED_EDGE('',*,*,#726,.T.);
#490=ORIENTED_EDGE('',*,*,#733,.T.);
#491=ORIENTED_EDGE('',*,*,#734,.F.);
#492=ORIENTED_EDGE('',*,*,#735,.F.);
#493=ORIENTED_EDGE('',*,*,#685,.T.);
#494=ORIENTED_EDGE('',*,*,#734,.T.);
#495=ORIENTED_EDGE('',*,*,#736,.T.);
#496=ORIENTED_EDGE('',*,*,#737,.F.);
#497=ORIENTED_EDGE('',*,*,#738,.F.);
#498=ORIENTED_EDGE('',*,*,#737,.T.);
#499=ORIENTED_EDGE('',*,*,#739,.T.);
#500=ORIENTED_EDGE('',*,*,#676,.F.);
#501=ORIENTED_EDGE('',*,*,#680,.F.);
#502=ORIENTED_EDGE('',*,*,#740,.T.);
#503=ORIENTED_EDGE('',*,*,#741,.F.);
#504=ORIENTED_EDGE('',*,*,#742,.F.);
#505=ORIENTED_EDGE('',*,*,#679,.F.);
#506=ORIENTED_EDGE('',*,*,#735,.T.);
#507=ORIENTED_EDGE('',*,*,#738,.T.);
#508=ORIENTED_EDGE('',*,*,#740,.F.);
#509=ORIENTED_EDGE('',*,*,#743,.T.);
#510=ORIENTED_EDGE('',*,*,#744,.T.);
#511=ORIENTED_EDGE('',*,*,#745,.F.);
#512=ORIENTED_EDGE('',*,*,#746,.T.);
#513=ORIENTED_EDGE('',*,*,#745,.T.);
#514=ORIENTED_EDGE('',*,*,#747,.T.);
#515=ORIENTED_EDGE('',*,*,#672,.F.);
#516=ORIENTED_EDGE('',*,*,#732,.F.);
#517=ORIENTED_EDGE('',*,*,#748,.T.);
#518=ORIENTED_EDGE('',*,*,#723,.T.);
#519=ORIENTED_EDGE('',*,*,#749,.T.);
#520=ORIENTED_EDGE('',*,*,#743,.F.);
#521=ORIENTED_EDGE('',*,*,#750,.F.);
#522=ORIENTED_EDGE('',*,*,#730,.T.);
#523=ORIENTED_EDGE('',*,*,#751,.F.);
#524=ORIENTED_EDGE('',*,*,#752,.F.);
#525=ORIENTED_EDGE('',*,*,#746,.F.);
#526=ORIENTED_EDGE('',*,*,#748,.F.);
#527=ORIENTED_EDGE('',*,*,#731,.T.);
#528=ORIENTED_EDGE('',*,*,#750,.T.);
#529=ORIENTED_EDGE('',*,*,#753,.F.);
#530=ORIENTED_EDGE('',*,*,#752,.T.);
#531=ORIENTED_EDGE('',*,*,#753,.T.);
#532=ORIENTED_EDGE('',*,*,#754,.F.);
#533=ORIENTED_EDGE('',*,*,#751,.T.);
#534=ORIENTED_EDGE('',*,*,#754,.T.);
#535=ORIENTED_EDGE('',*,*,#755,.F.);
#536=ORIENTED_EDGE('',*,*,#742,.T.);
#537=ORIENTED_EDGE('',*,*,#755,.T.);
#538=ORIENTED_EDGE('',*,*,#756,.F.);
#539=ORIENTED_EDGE('',*,*,#741,.T.);
#540=ORIENTED_EDGE('',*,*,#756,.T.);
#541=ORIENTED_EDGE('',*,*,#725,.F.);
#542=ORIENTED_EDGE('',*,*,#649,.F.);
#543=ORIENTED_EDGE('',*,*,#757,.F.);
#544=ORIENTED_EDGE('',*,*,#733,.F.);
#545=ORIENTED_EDGE('',*,*,#757,.T.);
#546=ORIENTED_EDGE('',*,*,#648,.F.);
#547=ORIENTED_EDGE('',*,*,#758,.F.);
#548=ORIENTED_EDGE('',*,*,#736,.F.);
#549=ORIENTED_EDGE('',*,*,#677,.F.);
#550=ORIENTED_EDGE('',*,*,#739,.F.);
#551=ORIENTED_EDGE('',*,*,#758,.T.);
#552=ORIENTED_EDGE('',*,*,#647,.F.);
#553=ORIENTED_EDGE('',*,*,#673,.F.);
#554=ORIENTED_EDGE('',*,*,#747,.F.);
#555=ORIENTED_EDGE('',*,*,#759,.F.);
#556=ORIENTED_EDGE('',*,*,#653,.F.);
#557=ORIENTED_EDGE('',*,*,#759,.T.);
#558=ORIENTED_EDGE('',*,*,#744,.F.);
#559=ORIENTED_EDGE('',*,*,#760,.F.);
#560=ORIENTED_EDGE('',*,*,#654,.F.);
#561=ORIENTED_EDGE('',*,*,#722,.F.);
#562=ORIENTED_EDGE('',*,*,#655,.F.);
#563=ORIENTED_EDGE('',*,*,#760,.T.);
#564=ORIENTED_EDGE('',*,*,#749,.F.);
#565=ORIENTED_EDGE('',*,*,#761,.F.);
#566=ORIENTED_EDGE('',*,*,#711,.F.);
#567=ORIENTED_EDGE('',*,*,#761,.T.);
#568=ORIENTED_EDGE('',*,*,#623,.F.);
#569=ORIENTED_EDGE('',*,*,#762,.T.);
#570=ORIENTED_EDGE('',*,*,#763,.T.);
#571=ORIENTED_EDGE('',*,*,#727,.F.);
#572=ORIENTED_EDGE('',*,*,#669,.F.);
#573=ORIENTED_EDGE('',*,*,#668,.T.);
#574=ORIENTED_EDGE('',*,*,#641,.T.);
#575=ORIENTED_EDGE('',*,*,#764,.F.);
#576=ORIENTED_EDGE('',*,*,#762,.F.);
#577=ORIENTED_EDGE('',*,*,#622,.T.);
#578=ORIENTED_EDGE('',*,*,#640,.T.);
#579=ORIENTED_EDGE('',*,*,#728,.F.);
#580=ORIENTED_EDGE('',*,*,#763,.F.);
#581=ORIENTED_EDGE('',*,*,#764,.T.);
#582=ORIENTED_EDGE('',*,*,#660,.T.);
#583=ORIENTED_EDGE('',*,*,#765,.F.);
#584=ORIENTED_EDGE('',*,*,#766,.F.);
#585=ORIENTED_EDGE('',*,*,#767,.T.);
#586=ORIENTED_EDGE('',*,*,#768,.F.);
#587=ORIENTED_EDGE('',*,*,#765,.T.);
#588=ORIENTED_EDGE('',*,*,#659,.T.);
#589=ORIENTED_EDGE('',*,*,#644,.F.);
#590=ORIENTED_EDGE('',*,*,#769,.F.);
#591=ORIENTED_EDGE('',*,*,#766,.T.);
#592=ORIENTED_EDGE('',*,*,#768,.T.);
#593=ORIENTED_EDGE('',*,*,#643,.F.);
#594=ORIENTED_EDGE('',*,*,#658,.T.);
#595=ORIENTED_EDGE('',*,*,#661,.F.);
#596=ORIENTED_EDGE('',*,*,#767,.F.);
#597=ORIENTED_EDGE('',*,*,#769,.T.);
#598=ORIENTED_EDGE('',*,*,#770,.F.);
#599=ORIENTED_EDGE('',*,*,#634,.T.);
#600=ORIENTED_EDGE('',*,*,#771,.F.);
#601=ORIENTED_EDGE('',*,*,#772,.F.);
#602=ORIENTED_EDGE('',*,*,#773,.T.);
#603=ORIENTED_EDGE('',*,*,#774,.F.);
#604=ORIENTED_EDGE('',*,*,#771,.T.);
#605=ORIENTED_EDGE('',*,*,#633,.T.);
#606=ORIENTED_EDGE('',*,*,#620,.F.);
#607=ORIENTED_EDGE('',*,*,#775,.F.);
#608=ORIENTED_EDGE('',*,*,#772,.T.);
#609=ORIENTED_EDGE('',*,*,#774,.T.);
#610=ORIENTED_EDGE('',*,*,#619,.F.);
#611=ORIENTED_EDGE('',*,*,#632,.T.);
#612=ORIENTED_EDGE('',*,*,#635,.F.);
#613=ORIENTED_EDGE('',*,*,#773,.F.);
#614=ORIENTED_EDGE('',*,*,#775,.T.);
#615=ORIENTED_EDGE('',*,*,#770,.T.);
#616=ORIENTED_EDGE('',*,*,#776,.F.);
#617=ORIENTED_EDGE('',*,*,#776,.T.);
#618=EDGE_CURVE('',#777,#777,#883,.T.);
#619=EDGE_CURVE('',#778,#779,#22,.T.);
#620=EDGE_CURVE('',#779,#780,#23,.T.);
#621=EDGE_CURVE('',#781,#780,#24,.T.);
#622=EDGE_CURVE('',#782,#781,#25,.T.);
#623=EDGE_CURVE('',#782,#783,#26,.T.);
#624=EDGE_CURVE('',#783,#784,#27,.T.);
#625=EDGE_CURVE('',#785,#784,#28,.T.);
#626=EDGE_CURVE('',#785,#786,#29,.T.);
#627=EDGE_CURVE('',#787,#786,#30,.T.);
#628=EDGE_CURVE('',#787,#788,#31,.T.);
#629=EDGE_CURVE('',#788,#789,#32,.T.);
#630=EDGE_CURVE('',#789,#790,#33,.T.);
#631=EDGE_CURVE('',#791,#790,#34,.T.);
#632=EDGE_CURVE('',#778,#791,#35,.T.);
#633=EDGE_CURVE('',#792,#780,#36,.T.);
#634=EDGE_CURVE('',#793,#792,#37,.T.);
#635=EDGE_CURVE('',#793,#791,#38,.T.);
#636=EDGE_CURVE('',#790,#794,#39,.F.);
#637=EDGE_CURVE('',#794,#795,#40,.T.);
#638=EDGE_CURVE('',#796,#795,#41,.T.);
#639=EDGE_CURVE('',#797,#796,#42,.T.);
#640=EDGE_CURVE('',#798,#797,#43,.T.);
#641=EDGE_CURVE('',#781,#798,#44,.T.);
#642=EDGE_CURVE('',#799,#799,#884,.T.);
#643=EDGE_CURVE('',#800,#801,#45,.T.);
#644=EDGE_CURVE('',#801,#802,#46,.T.);
#645=EDGE_CURVE('',#803,#802,#47,.T.);
#646=EDGE_CURVE('',#803,#804,#48,.T.);
#647=EDGE_CURVE('',#804,#805,#49,.T.);
#648=EDGE_CURVE('',#805,#806,#50,.T.);
#649=EDGE_CURVE('',#806,#807,#51,.T.);
#650=EDGE_CURVE('',#807,#808,#52,.T.);
#651=EDGE_CURVE('',#808,#809,#53,.T.);
#652=EDGE_CURVE('',#809,#810,#54,.T.);
#653=EDGE_CURVE('',#810,#811,#55,.T.);
#654=EDGE_CURVE('',#811,#812,#56,.T.);
#655=EDGE_CURVE('',#812,#813,#57,.T.);
#656=EDGE_CURVE('',#813,#814,#58,.T.);
#657=EDGE_CURVE('',#815,#814,#59,.T.);
#658=EDGE_CURVE('',#800,#815,#60,.T.);
#659=EDGE_CURVE('',#816,#802,#61,.T.);
#660=EDGE_CURVE('',#817,#816,#62,.T.);
#661=EDGE_CURVE('',#817,#815,#63,.T.);
#662=EDGE_CURVE('',#814,#818,#64,.T.);
#663=EDGE_CURVE('',#819,#818,#65,.T.);
#664=EDGE_CURVE('',#820,#819,#66,.F.);
#665=EDGE_CURVE('',#820,#821,#67,.T.);
#666=EDGE_CURVE('',#821,#803,#68,.F.);
#667=EDGE_CURVE('',#822,#822,#885,.T.);
#668=EDGE_CURVE('',#823,#823,#886,.F.);
#669=EDGE_CURVE('',#783,#824,#69,.T.);
#670=EDGE_CURVE('',#825,#824,#70,.T.);
#671=EDGE_CURVE('',#784,#825,#71,.T.);
#672=EDGE_CURVE('',#826,#827,#72,.T.);
#673=EDGE_CURVE('',#827,#810,#73,.F.);
#674=EDGE_CURVE('',#809,#828,#74,.F.);
#675=EDGE_CURVE('',#826,#828,#75,.T.);
#676=EDGE_CURVE('',#829,#830,#76,.F.);
#677=EDGE_CURVE('',#830,#804,#77,.T.);
#678=EDGE_CURVE('',#829,#821,#78,.T.);
#679=EDGE_CURVE('',#831,#832,#79,.T.);
#680=EDGE_CURVE('',#832,#829,#80,.T.);
#681=EDGE_CURVE('',#795,#820,#887,.T.);
#682=EDGE_CURVE('',#794,#833,#81,.T.);
#683=EDGE_CURVE('',#833,#834,#82,.T.);
#684=EDGE_CURVE('',#834,#835,#83,.T.);
#685=EDGE_CURVE('',#831,#835,#84,.T.);
#686=EDGE_CURVE('',#836,#788,#85,.F.);
#687=EDGE_CURVE('',#788,#837,#86,.T.);
#688=EDGE_CURVE('',#836,#837,#87,.F.);
#689=EDGE_CURVE('',#836,#838,#88,.T.);
#690=EDGE_CURVE('',#838,#839,#89,.T.);
#691=EDGE_CURVE('',#839,#840,#90,.T.);
#692=EDGE_CURVE('',#840,#836,#91,.T.);
#693=EDGE_CURVE('',#841,#842,#92,.T.);
#694=EDGE_CURVE('',#842,#843,#93,.T.);
#695=EDGE_CURVE('',#843,#844,#94,.T.);
#696=EDGE_CURVE('',#844,#841,#95,.T.);
#697=EDGE_CURVE('',#845,#844,#888,.T.);
#698=EDGE_CURVE('',#846,#845,#96,.F.);
#699=EDGE_CURVE('',#841,#846,#889,.F.);
#700=EDGE_CURVE('',#845,#847,#97,.T.);
#701=EDGE_CURVE('',#847,#848,#98,.T.);
#702=EDGE_CURVE('',#848,#846,#99,.T.);
#703=EDGE_CURVE('',#833,#840,#100,.T.);
#704=EDGE_CURVE('',#834,#839,#101,.F.);
#705=EDGE_CURVE('',#840,#789,#102,.T.);
#706=EDGE_CURVE('',#843,#785,#103,.T.);
#707=EDGE_CURVE('',#786,#842,#104,.T.);
#708=EDGE_CURVE('',#849,#847,#105,.T.);
#709=EDGE_CURVE('',#850,#849,#106,.T.);
#710=EDGE_CURVE('',#848,#850,#107,.T.);
#711=EDGE_CURVE('',#851,#851,#890,.T.);
#712=EDGE_CURVE('',#852,#850,#108,.T.);
#713=EDGE_CURVE('',#852,#787,#109,.T.);
#714=EDGE_CURVE('',#837,#852,#110,.T.);
#715=EDGE_CURVE('',#828,#837,#111,.T.);
#716=EDGE_CURVE('',#838,#828,#112,.T.);
#717=EDGE_CURVE('',#808,#839,#113,.T.);
#718=EDGE_CURVE('',#809,#838,#114,.F.);
#719=EDGE_CURVE('',#833,#789,#115,.F.);
#720=EDGE_CURVE('',#834,#808,#116,.T.);
#721=EDGE_CURVE('',#849,#825,#117,.T.);
#722=EDGE_CURVE('',#813,#853,#118,.T.);
#723=EDGE_CURVE('',#854,#853,#119,.T.);
#724=EDGE_CURVE('',#818,#854,#120,.T.);
#725=EDGE_CURVE('',#807,#855,#121,.F.);
#726=EDGE_CURVE('',#835,#855,#122,.F.);
#727=EDGE_CURVE('',#824,#856,#123,.T.);
#728=EDGE_CURVE('',#856,#797,#124,.T.);
#729=EDGE_CURVE('',#796,#819,#891,.T.);
#730=EDGE_CURVE('',#857,#854,#125,.T.);
#731=EDGE_CURVE('',#858,#857,#126,.T.);
#732=EDGE_CURVE('',#858,#826,#127,.T.);
#733=EDGE_CURVE('',#855,#859,#128,.T.);
#734=EDGE_CURVE('',#860,#859,#129,.T.);
#735=EDGE_CURVE('',#831,#860,#130,.T.);
#736=EDGE_CURVE('',#859,#861,#131,.T.);
#737=EDGE_CURVE('',#862,#861,#132,.T.);
#738=EDGE_CURVE('',#860,#862,#133,.T.);
#739=EDGE_CURVE('',#861,#830,#134,.T.);
#740=EDGE_CURVE('',#832,#862,#135,.T.);
#741=EDGE_CURVE('',#863,#863,#892,.T.);
#742=EDGE_CURVE('',#864,#864,#893,.T.);
#743=EDGE_CURVE('',#865,#866,#136,.T.);
#744=EDGE_CURVE('',#866,#867,#137,.T.);
#745=EDGE_CURVE('',#868,#867,#138,.T.);
#746=EDGE_CURVE('',#868,#865,#139,.T.);
#747=EDGE_CURVE('',#867,#827,#140,.T.);
#748=EDGE_CURVE('',#858,#868,#141,.T.);
#749=EDGE_CURVE('',#853,#866,#142,.T.);
#750=EDGE_CURVE('',#857,#865,#143,.T.);
#751=EDGE_CURVE('',#869,#869,#894,.T.);
#752=EDGE_CURVE('',#870,#870,#895,.T.);
#753=EDGE_CURVE('',#871,#871,#896,.T.);
#754=EDGE_CURVE('',#872,#872,#897,.T.);
#755=EDGE_CURVE('',#873,#873,#898,.T.);
#756=EDGE_CURVE('',#874,#874,#899,.T.);
#757=EDGE_CURVE('',#859,#806,#144,.F.);
#758=EDGE_CURVE('',#861,#805,#145,.T.);
#759=EDGE_CURVE('',#811,#867,#146,.F.);
#760=EDGE_CURVE('',#812,#866,#147,.T.);
#761=EDGE_CURVE('',#875,#875,#900,.T.);
#762=EDGE_CURVE('',#782,#876,#148,.T.);
#763=EDGE_CURVE('',#876,#856,#149,.T.);
#764=EDGE_CURVE('',#876,#798,#150,.T.);
#765=EDGE_CURVE('',#877,#816,#151,.T.);
#766=EDGE_CURVE('',#878,#877,#152,.T.);
#767=EDGE_CURVE('',#878,#817,#153,.T.);
#768=EDGE_CURVE('',#877,#801,#154,.T.);
#769=EDGE_CURVE('',#878,#800,#155,.T.);
#770=EDGE_CURVE('',#879,#879,#901,.T.);
#771=EDGE_CURVE('',#880,#792,#156,.T.);
#772=EDGE_CURVE('',#881,#880,#157,.T.);
#773=EDGE_CURVE('',#881,#793,#158,.T.);
#774=EDGE_CURVE('',#880,#779,#159,.T.);
#775=EDGE_CURVE('',#881,#778,#160,.T.);
#776=EDGE_CURVE('',#882,#882,#902,.T.);
#777=VERTEX_POINT('',#1629);
#778=VERTEX_POINT('',#1631);
#779=VERTEX_POINT('',#1632);
#780=VERTEX_POINT('',#1634);
#781=VERTEX_POINT('',#1636);
#782=VERTEX_POINT('',#1638);
#783=VERTEX_POINT('',#1640);
#784=VERTEX_POINT('',#1642);
#785=VERTEX_POINT('',#1644);
#786=VERTEX_POINT('',#1646);
#787=VERTEX_POINT('',#1648);
#788=VERTEX_POINT('',#1650);
#789=VERTEX_POINT('',#1652);
#790=VERTEX_POINT('',#1654);
#791=VERTEX_POINT('',#1656);
#792=VERTEX_POINT('',#1660);
#793=VERTEX_POINT('',#1662);
#794=VERTEX_POINT('',#1665);
#795=VERTEX_POINT('',#1667);
#796=VERTEX_POINT('',#1669);
#797=VERTEX_POINT('',#1671);
#798=VERTEX_POINT('',#1673);
#799=VERTEX_POINT('',#1677);
#800=VERTEX_POINT('',#1679);
#801=VERTEX_POINT('',#1680);
#802=VERTEX_POINT('',#1682);
#803=VERTEX_POINT('',#1684);
#804=VERTEX_POINT('',#1686);
#805=VERTEX_POINT('',#1688);
#806=VERTEX_POINT('',#1690);
#807=VERTEX_POINT('',#1692);
#808=VERTEX_POINT('',#1694);
#809=VERTEX_POINT('',#1696);
#810=VERTEX_POINT('',#1698);
#811=VERTEX_POINT('',#1700);
#812=VERTEX_POINT('',#1702);
#813=VERTEX_POINT('',#1704);
#814=VERTEX_POINT('',#1706);
#815=VERTEX_POINT('',#1708);
#816=VERTEX_POINT('',#1712);
#817=VERTEX_POINT('',#1714);
#818=VERTEX_POINT('',#1717);
#819=VERTEX_POINT('',#1719);
#820=VERTEX_POINT('',#1721);
#821=VERTEX_POINT('',#1723);
#822=VERTEX_POINT('',#1727);
#823=VERTEX_POINT('',#1729);
#824=VERTEX_POINT('',#1732);
#825=VERTEX_POINT('',#1734);
#826=VERTEX_POINT('',#1738);
#827=VERTEX_POINT('',#1739);
#828=VERTEX_POINT('',#1742);
#829=VERTEX_POINT('',#1746);
#830=VERTEX_POINT('',#1747);
#831=VERTEX_POINT('',#1752);
#832=VERTEX_POINT('',#1753);
#833=VERTEX_POINT('',#1757);
#834=VERTEX_POINT('',#1759);
#835=VERTEX_POINT('',#1761);
#836=VERTEX_POINT('',#1765);
#837=VERTEX_POINT('',#1767);
#838=VERTEX_POINT('',#1771);
#839=VERTEX_POINT('',#1773);
#840=VERTEX_POINT('',#1775);
#841=VERTEX_POINT('',#1779);
#842=VERTEX_POINT('',#1780);
#843=VERTEX_POINT('',#1782);
#844=VERTEX_POINT('',#1784);
#845=VERTEX_POINT('',#1788);
#846=VERTEX_POINT('',#1790);
#847=VERTEX_POINT('',#1794);
#848=VERTEX_POINT('',#1796);
#849=VERTEX_POINT('',#1808);
#850=VERTEX_POINT('',#1810);
#851=VERTEX_POINT('',#1814);
#852=VERTEX_POINT('',#1816);
#853=VERTEX_POINT('',#1837);
#854=VERTEX_POINT('',#1839);
#855=VERTEX_POINT('',#1843);
#856=VERTEX_POINT('',#1847);
#857=VERTEX_POINT('',#1851);
#858=VERTEX_POINT('',#1853);
#859=VERTEX_POINT('',#1858);
#860=VERTEX_POINT('',#1860);
#861=VERTEX_POINT('',#1864);
#862=VERTEX_POINT('',#1866);
#863=VERTEX_POINT('',#1873);
#864=VERTEX_POINT('',#1875);
#865=VERTEX_POINT('',#1878);
#866=VERTEX_POINT('',#1879);
#867=VERTEX_POINT('',#1881);
#868=VERTEX_POINT('',#1883);
#869=VERTEX_POINT('',#1893);
#870=VERTEX_POINT('',#1895);
#871=VERTEX_POINT('',#1898);
#872=VERTEX_POINT('',#1902);
#873=VERTEX_POINT('',#1906);
#874=VERTEX_POINT('',#1910);
#875=VERTEX_POINT('',#1924);
#876=VERTEX_POINT('',#1928);
#877=VERTEX_POINT('',#1935);
#878=VERTEX_POINT('',#1937);
#879=VERTEX_POINT('',#1946);
#880=VERTEX_POINT('',#1948);
#881=VERTEX_POINT('',#1950);
#882=VERTEX_POINT('',#1959);
#883=CIRCLE('',#1219,0.0103);
#884=CIRCLE('',#1222,0.0103);
#885=CIRCLE('',#1225,0.0025);
#886=CIRCLE('',#1226,0.0025);
#887=CIRCLE('',#1231,0.0105);
#888=CIRCLE('',#1236,0.005);
#889=CIRCLE('',#1237,0.005);
#890=CIRCLE('',#1244,0.0025);
#891=CIRCLE('',#1257,0.0105);
#892=CIRCLE('',#1263,0.0011);
#893=CIRCLE('',#1264,0.0011);
#894=CIRCLE('',#1269,0.0011);
#895=CIRCLE('',#1270,0.0011);
#896=CIRCLE('',#1272,0.0011);
#897=CIRCLE('',#1275,0.0011);
#898=CIRCLE('',#1278,0.0011);
#899=CIRCLE('',#1281,0.0011);
#900=CIRCLE('',#1290,0.0025);
#901=CIRCLE('',#1300,0.0016);
#902=CIRCLE('',#1305,0.0016);
#903=EDGE_LOOP('',(#300));
#904=EDGE_LOOP('',(#301,#302,#303,#304,#305,#306,#307,#308,#309,#310,#311,
#312,#313,#314));
#905=EDGE_LOOP('',(#315,#316,#317,#318,#319,#320,#321,#322,#323,#324,#325));
#906=EDGE_LOOP('',(#326));
#907=EDGE_LOOP('',(#327,#328,#329,#330,#331,#332,#333,#334,#335,#336,#337,
#338,#339,#340,#341,#342));
#908=EDGE_LOOP('',(#343,#344,#345,#346,#347,#348,#349,#350,#351,#352));
#909=EDGE_LOOP('',(#353));
#910=EDGE_LOOP('',(#354));
#911=EDGE_LOOP('',(#355,#356,#357,#358));
#912=EDGE_LOOP('',(#359,#360,#361,#362,#363));
#913=EDGE_LOOP('',(#364,#365,#366,#367,#368));
#914=EDGE_LOOP('',(#369,#370,#371,#372,#373,#374,#375,#376,#377,#378));
#915=EDGE_LOOP('',(#379,#380,#381));
#916=EDGE_LOOP('',(#382,#383,#384,#385));
#917=EDGE_LOOP('',(#386,#387,#388,#389));
#918=EDGE_LOOP('',(#390,#391,#392,#393));
#919=EDGE_LOOP('',(#394,#395,#396,#397));
#920=EDGE_LOOP('',(#398,#399,#400,#401));
#921=EDGE_LOOP('',(#402,#403,#404,#405));
#922=EDGE_LOOP('',(#406,#407,#408,#409));
#923=EDGE_LOOP('',(#410,#411,#412,#413));
#924=EDGE_LOOP('',(#414));
#925=EDGE_LOOP('',(#415,#416,#417,#418,#419,#420,#421,#422));
#926=EDGE_LOOP('',(#423,#424,#425,#426));
#927=EDGE_LOOP('',(#427,#428,#429,#430));
#928=EDGE_LOOP('',(#431));
#929=EDGE_LOOP('',(#432));
#930=EDGE_LOOP('',(#433,#434,#435,#436));
#931=EDGE_LOOP('',(#437,#438,#439));
#932=EDGE_LOOP('',(#440,#441,#442));
#933=EDGE_LOOP('',(#443,#444,#445));
#934=EDGE_LOOP('',(#446));
#935=EDGE_LOOP('',(#447,#448,#449,#450,#451,#452,#453,#454));
#936=EDGE_LOOP('',(#455,#456,#457,#458));
#937=EDGE_LOOP('',(#459,#460,#461,#462,#463));
#938=EDGE_LOOP('',(#464,#465,#466,#467,#468));
#939=EDGE_LOOP('',(#469,#470,#471,#472,#473,#474,#475,#476,#477,#478,#479,
#480,#481,#482,#483,#484));
#940=EDGE_LOOP('',(#485,#486,#487,#488));
#941=EDGE_LOOP('',(#489,#490,#491,#492,#493));
#942=EDGE_LOOP('',(#494,#495,#496,#497));
#943=EDGE_LOOP('',(#498,#499,#500,#501,#502));
#944=EDGE_LOOP('',(#503));
#945=EDGE_LOOP('',(#504));
#946=EDGE_LOOP('',(#505,#506,#507,#508));
#947=EDGE_LOOP('',(#509,#510,#511,#512));
#948=EDGE_LOOP('',(#513,#514,#515,#516,#517));
#949=EDGE_LOOP('',(#518,#519,#520,#521,#522));
#950=EDGE_LOOP('',(#523));
#951=EDGE_LOOP('',(#524));
#952=EDGE_LOOP('',(#525,#526,#527,#528));
#953=EDGE_LOOP('',(#529));
#954=EDGE_LOOP('',(#530));
#955=EDGE_LOOP('',(#531));
#956=EDGE_LOOP('',(#532));
#957=EDGE_LOOP('',(#533));
#958=EDGE_LOOP('',(#534));
#959=EDGE_LOOP('',(#535));
#960=EDGE_LOOP('',(#536));
#961=EDGE_LOOP('',(#537));
#962=EDGE_LOOP('',(#538));
#963=EDGE_LOOP('',(#539));
#964=EDGE_LOOP('',(#540));
#965=EDGE_LOOP('',(#541,#542,#543,#544));
#966=EDGE_LOOP('',(#545,#546,#547,#548));
#967=EDGE_LOOP('',(#549,#550,#551,#552));
#968=EDGE_LOOP('',(#553,#554,#555,#556));
#969=EDGE_LOOP('',(#557,#558,#559,#560));
#970=EDGE_LOOP('',(#561,#562,#563,#564));
#971=EDGE_LOOP('',(#565));
#972=EDGE_LOOP('',(#566));
#973=EDGE_LOOP('',(#567));
#974=EDGE_LOOP('',(#568,#569,#570,#571,#572));
#975=EDGE_LOOP('',(#573));
#976=EDGE_LOOP('',(#574,#575,#576,#577));
#977=EDGE_LOOP('',(#578,#579,#580,#581));
#978=EDGE_LOOP('',(#582,#583,#584,#585));
#979=EDGE_LOOP('',(#586,#587,#588,#589));
#980=EDGE_LOOP('',(#590,#591,#592,#593));
#981=EDGE_LOOP('',(#594,#595,#596,#597));
#982=EDGE_LOOP('',(#598));
#983=EDGE_LOOP('',(#599,#600,#601,#602));
#984=EDGE_LOOP('',(#603,#604,#605,#606));
#985=EDGE_LOOP('',(#607,#608,#609,#610));
#986=EDGE_LOOP('',(#611,#612,#613,#614));
#987=EDGE_LOOP('',(#615));
#988=EDGE_LOOP('',(#616));
#989=EDGE_LOOP('',(#617));
#990=FACE_BOUND('',#903,.T.);
#991=FACE_BOUND('',#904,.T.);
#992=FACE_BOUND('',#905,.T.);
#993=FACE_BOUND('',#906,.T.);
#994=FACE_BOUND('',#907,.T.);
#995=FACE_BOUND('',#908,.T.);
#996=FACE_BOUND('',#909,.T.);
#997=FACE_BOUND('',#910,.T.);
#998=FACE_BOUND('',#911,.T.);
#999=FACE_BOUND('',#912,.T.);
#1000=FACE_BOUND('',#913,.T.);
#1001=FACE_BOUND('',#914,.T.);
#1002=FACE_BOUND('',#915,.T.);
#1003=FACE_BOUND('',#916,.T.);
#1004=FACE_BOUND('',#917,.T.);
#1005=FACE_BOUND('',#918,.T.);
#1006=FACE_BOUND('',#919,.T.);
#1007=FACE_BOUND('',#920,.T.);
#1008=FACE_BOUND('',#921,.T.);
#1009=FACE_BOUND('',#922,.T.);
#1010=FACE_BOUND('',#923,.T.);
#1011=FACE_BOUND('',#924,.T.);
#1012=FACE_BOUND('',#925,.T.);
#1013=FACE_BOUND('',#926,.T.);
#1014=FACE_BOUND('',#927,.T.);
#1015=FACE_BOUND('',#928,.T.);
#1016=FACE_BOUND('',#929,.T.);
#1017=FACE_BOUND('',#930,.T.);
#1018=FACE_BOUND('',#931,.T.);
#1019=FACE_BOUND('',#932,.T.);
#1020=FACE_BOUND('',#933,.T.);
#1021=FACE_BOUND('',#934,.T.);
#1022=FACE_BOUND('',#935,.T.);
#1023=FACE_BOUND('',#936,.T.);
#1024=FACE_BOUND('',#937,.T.);
#1025=FACE_BOUND('',#938,.T.);
#1026=FACE_BOUND('',#939,.T.);
#1027=FACE_BOUND('',#940,.T.);
#1028=FACE_BOUND('',#941,.T.);
#1029=FACE_BOUND('',#942,.T.);
#1030=FACE_BOUND('',#943,.T.);
#1031=FACE_BOUND('',#944,.T.);
#1032=FACE_BOUND('',#945,.T.);
#1033=FACE_BOUND('',#946,.T.);
#1034=FACE_BOUND('',#947,.T.);
#1035=FACE_BOUND('',#948,.T.);
#1036=FACE_BOUND('',#949,.T.);
#1037=FACE_BOUND('',#950,.T.);
#1038=FACE_BOUND('',#951,.T.);
#1039=FACE_BOUND('',#952,.T.);
#1040=FACE_BOUND('',#953,.T.);
#1041=FACE_BOUND('',#954,.T.);
#1042=FACE_BOUND('',#955,.T.);
#1043=FACE_BOUND('',#956,.T.);
#1044=FACE_BOUND('',#957,.T.);
#1045=FACE_BOUND('',#958,.T.);
#1046=FACE_BOUND('',#959,.T.);
#1047=FACE_BOUND('',#960,.T.);
#1048=FACE_BOUND('',#961,.T.);
#1049=FACE_BOUND('',#962,.T.);
#1050=FACE_BOUND('',#963,.T.);
#1051=FACE_BOUND('',#964,.T.);
#1052=FACE_BOUND('',#965,.T.);
#1053=FACE_BOUND('',#966,.T.);
#1054=FACE_BOUND('',#967,.T.);
#1055=FACE_BOUND('',#968,.T.);
#1056=FACE_BOUND('',#969,.T.);
#1057=FACE_BOUND('',#970,.T.);
#1058=FACE_BOUND('',#971,.T.);
#1059=FACE_BOUND('',#972,.T.);
#1060=FACE_BOUND('',#973,.T.);
#1061=FACE_BOUND('',#974,.T.);
#1062=FACE_BOUND('',#975,.T.);
#1063=FACE_BOUND('',#976,.T.);
#1064=FACE_BOUND('',#977,.T.);
#1065=FACE_BOUND('',#978,.T.);
#1066=FACE_BOUND('',#979,.T.);
#1067=FACE_BOUND('',#980,.T.);
#1068=FACE_BOUND('',#981,.T.);
#1069=FACE_BOUND('',#982,.T.);
#1070=FACE_BOUND('',#983,.T.);
#1071=FACE_BOUND('',#984,.T.);
#1072=FACE_BOUND('',#985,.T.);
#1073=FACE_BOUND('',#986,.T.);
#1074=FACE_BOUND('',#987,.T.);
#1075=FACE_BOUND('',#988,.T.);
#1076=FACE_BOUND('',#989,.T.);
#1077=PLANE('',#1218);
#1078=PLANE('',#1220);
#1079=PLANE('',#1221);
#1080=PLANE('',#1223);
#1081=PLANE('',#1227);
#1082=PLANE('',#1228);
#1083=PLANE('',#1229);
#1084=PLANE('',#1230);
#1085=PLANE('',#1232);
#1086=PLANE('',#1233);
#1087=PLANE('',#1234);
#1088=PLANE('',#1238);
#1089=PLANE('',#1239);
#1090=PLANE('',#1240);
#1091=PLANE('',#1241);
#1092=PLANE('',#1242);
#1093=PLANE('',#1243);
#1094=PLANE('',#1245);
#1095=PLANE('',#1246);
#1096=PLANE('',#1248);
#1097=PLANE('',#1249);
#1098=PLANE('',#1250);
#1099=PLANE('',#1251);
#1100=PLANE('',#1252);
#1101=PLANE('',#1253);
#1102=PLANE('',#1254);
#1103=PLANE('',#1255);
#1104=PLANE('',#1256);
#1105=PLANE('',#1259);
#1106=PLANE('',#1260);
#1107=PLANE('',#1261);
#1108=PLANE('',#1262);
#1109=PLANE('',#1265);
#1110=PLANE('',#1266);
#1111=PLANE('',#1267);
#1112=PLANE('',#1268);
#1113=PLANE('',#1273);
#1114=PLANE('',#1276);
#1115=PLANE('',#1279);
#1116=PLANE('',#1282);
#1117=PLANE('',#1283);
#1118=PLANE('',#1284);
#1119=PLANE('',#1285);
#1120=PLANE('',#1286);
#1121=PLANE('',#1287);
#1122=PLANE('',#1288);
#1123=PLANE('',#1291);
#1124=PLANE('',#1292);
#1125=PLANE('',#1293);
#1126=PLANE('',#1294);
#1127=PLANE('',#1295);
#1128=PLANE('',#1296);
#1129=PLANE('',#1297);
#1130=PLANE('',#1298);
#1131=PLANE('',#1299);
#1132=PLANE('',#1301);
#1133=PLANE('',#1302);
#1134=PLANE('',#1303);
#1135=PLANE('',#1306);
#1136=ADVANCED_FACE('',(#990,#991),#1077,.T.);
#1137=ADVANCED_FACE('',(#992),#1078,.F.);
#1138=ADVANCED_FACE('',(#993,#994),#1079,.T.);
#1139=ADVANCED_FACE('',(#995),#1080,.F.);
#1140=ADVANCED_FACE('',(#996,#997),#12,.F.);
#1141=ADVANCED_FACE('',(#998),#1081,.T.);
#1142=ADVANCED_FACE('',(#999),#1082,.T.);
#1143=ADVANCED_FACE('',(#1000),#1083,.F.);
#1144=ADVANCED_FACE('',(#1001),#1084,.T.);
#1145=ADVANCED_FACE('',(#1002),#1085,.T.);
#1146=ADVANCED_FACE('',(#1003),#1086,.T.);
#1147=ADVANCED_FACE('',(#1004),#1087,.F.);
#1148=ADVANCED_FACE('',(#1005),#13,.F.);
#1149=ADVANCED_FACE('',(#1006),#1088,.T.);
#1150=ADVANCED_FACE('',(#1007),#1089,.F.);
#1151=ADVANCED_FACE('',(#1008),#1090,.F.);
#1152=ADVANCED_FACE('',(#1009),#1091,.T.);
#1153=ADVANCED_FACE('',(#1010),#1092,.T.);
#1154=ADVANCED_FACE('',(#1011,#1012),#1093,.F.);
#1155=ADVANCED_FACE('',(#1013),#1094,.T.);
#1156=ADVANCED_FACE('',(#1014),#1095,.T.);
#1157=ADVANCED_FACE('',(#1015,#1016),#14,.F.);
#1158=ADVANCED_FACE('',(#1017),#1096,.F.);
#1159=ADVANCED_FACE('',(#1018),#1097,.T.);
#1160=ADVANCED_FACE('',(#1019),#1098,.T.);
#1161=ADVANCED_FACE('',(#1020),#1099,.T.);
#1162=ADVANCED_FACE('',(#1021,#1022),#1100,.T.);
#1163=ADVANCED_FACE('',(#1023),#1101,.F.);
#1164=ADVANCED_FACE('',(#1024),#1102,.T.);
#1165=ADVANCED_FACE('',(#1025),#1103,.F.);
#1166=ADVANCED_FACE('',(#1026),#1104,.F.);
#1167=ADVANCED_FACE('',(#1027),#15,.F.);
#1168=ADVANCED_FACE('',(#1028),#1105,.F.);
#1169=ADVANCED_FACE('',(#1029),#1106,.F.);
#1170=ADVANCED_FACE('',(#1030),#1107,.T.);
#1171=ADVANCED_FACE('',(#1031,#1032,#1033),#1108,.T.);
#1172=ADVANCED_FACE('',(#1034),#1109,.T.);
#1173=ADVANCED_FACE('',(#1035),#1110,.T.);
#1174=ADVANCED_FACE('',(#1036),#1111,.F.);
#1175=ADVANCED_FACE('',(#1037,#1038,#1039),#1112,.T.);
#1176=ADVANCED_FACE('',(#1040,#1041),#16,.F.);
#1177=ADVANCED_FACE('',(#1042),#1113,.T.);
#1178=ADVANCED_FACE('',(#1043,#1044),#17,.F.);
#1179=ADVANCED_FACE('',(#1045),#1114,.T.);
#1180=ADVANCED_FACE('',(#1046,#1047),#18,.F.);
#1181=ADVANCED_FACE('',(#1048),#1115,.T.);
#1182=ADVANCED_FACE('',(#1049,#1050),#19,.F.);
#1183=ADVANCED_FACE('',(#1051),#1116,.T.);
#1184=ADVANCED_FACE('',(#1052),#1117,.T.);
#1185=ADVANCED_FACE('',(#1053),#1118,.T.);
#1186=ADVANCED_FACE('',(#1054),#1119,.F.);
#1187=ADVANCED_FACE('',(#1055),#1120,.F.);
#1188=ADVANCED_FACE('',(#1056),#1121,.F.);
#1189=ADVANCED_FACE('',(#1057),#1122,.T.);
#1190=ADVANCED_FACE('',(#1058,#1059),#20,.F.);
#1191=ADVANCED_FACE('',(#1060),#1123,.T.);
#1192=ADVANCED_FACE('',(#1061,#1062),#1124,.T.);
#1193=ADVANCED_FACE('',(#1063),#1125,.F.);
#1194=ADVANCED_FACE('',(#1064),#1126,.F.);
#1195=ADVANCED_FACE('',(#1065),#1127,.T.);
#1196=ADVANCED_FACE('',(#1066),#1128,.T.);
#1197=ADVANCED_FACE('',(#1067),#1129,.T.);
#1198=ADVANCED_FACE('',(#1068),#1130,.F.);
#1199=ADVANCED_FACE('',(#1069,#1070),#1131,.T.);
#1200=ADVANCED_FACE('',(#1071),#1132,.T.);
#1201=ADVANCED_FACE('',(#1072),#1133,.T.);
#1202=ADVANCED_FACE('',(#1073),#1134,.F.);
#1203=ADVANCED_FACE('',(#1074,#1075),#21,.F.);
#1204=ADVANCED_FACE('',(#1076),#1135,.T.);
#1205=CLOSED_SHELL('',(#1136,#1137,#1138,#1139,#1140,#1141,#1142,#1143,
#1144,#1145,#1146,#1147,#1148,#1149,#1150,#1151,#1152,#1153,#1154,#1155,
#1156,#1157,#1158,#1159,#1160,#1161,#1162,#1163,#1164,#1165,#1166,#1167,
#1168,#1169,#1170,#1171,#1172,#1173,#1174,#1175,#1176,#1177,#1178,#1179,
#1180,#1181,#1182,#1183,#1184,#1185,#1186,#1187,#1188,#1189,#1190,#1191,
#1192,#1193,#1194,#1195,#1196,#1197,#1198,#1199,#1200,#1201,#1202,#1203,
#1204));
#1206=STYLED_ITEM('',(#1207),#1214);
#1207=PRESENTATION_STYLE_ASSIGNMENT((#1208));
#1208=SURFACE_STYLE_USAGE(.BOTH.,#1209);
#1209=SURFACE_SIDE_STYLE('',(#1210));
#1210=SURFACE_STYLE_FILL_AREA(#1211);
#1211=FILL_AREA_STYLE('',(#1212));
#1212=FILL_AREA_STYLE_COLOUR('',#1213);
#1213=COLOUR_RGB('',0.866666666666667,0.32156862745098,0.156862745098039);
#1214=MANIFOLD_SOLID_BREP('XY2_TOP',#1205);
#1215=SHAPE_DEFINITION_REPRESENTATION(#1967,#1216);
#1216=SHAPE_REPRESENTATION('XY2_TOP',(#1217),#1962);
#1217=AXIS2_PLACEMENT_3D('',#1626,#1307,#1308);
#1218=AXIS2_PLACEMENT_3D('',#1627,#1309,#1310);
#1219=AXIS2_PLACEMENT_3D('',#1628,#1311,#1312);
#1220=AXIS2_PLACEMENT_3D('',#1658,#1327,#1328);
#1221=AXIS2_PLACEMENT_3D('',#1675,#1338,#1339);
#1222=AXIS2_PLACEMENT_3D('',#1676,#1340,#1341);
#1223=AXIS2_PLACEMENT_3D('',#1710,#1358,#1359);
#1224=AXIS2_PLACEMENT_3D('',#1725,#1368,#1369);
#1225=AXIS2_PLACEMENT_3D('',#1726,#1370,#1371);
#1226=AXIS2_PLACEMENT_3D('',#1728,#1372,#1373);
#1227=AXIS2_PLACEMENT_3D('',#1730,#1374,#1375);
#1228=AXIS2_PLACEMENT_3D('',#1736,#1379,#1380);
#1229=AXIS2_PLACEMENT_3D('',#1744,#1385,#1386);
#1230=AXIS2_PLACEMENT_3D('',#1750,#1390,#1391);
#1231=AXIS2_PLACEMENT_3D('',#1755,#1394,#1395);
#1232=AXIS2_PLACEMENT_3D('',#1763,#1400,#1401);
#1233=AXIS2_PLACEMENT_3D('',#1769,#1405,#1406);
#1234=AXIS2_PLACEMENT_3D('',#1777,#1411,#1412);
#1235=AXIS2_PLACEMENT_3D('',#1786,#1417,#1418);
#1236=AXIS2_PLACEMENT_3D('',#1787,#1419,#1420);
#1237=AXIS2_PLACEMENT_3D('',#1791,#1422,#1423);
#1238=AXIS2_PLACEMENT_3D('',#1792,#1424,#1425);
#1239=AXIS2_PLACEMENT_3D('',#1798,#1429,#1430);
#1240=AXIS2_PLACEMENT_3D('',#1801,#1433,#1434);
#1241=AXIS2_PLACEMENT_3D('',#1803,#1436,#1437);
#1242=AXIS2_PLACEMENT_3D('',#1806,#1440,#1441);
#1243=AXIS2_PLACEMENT_3D('',#1812,#1445,#1446);
#1244=AXIS2_PLACEMENT_3D('',#1813,#1447,#1448);
#1245=AXIS2_PLACEMENT_3D('',#1818,#1451,#1452);
#1246=AXIS2_PLACEMENT_3D('',#1820,#1454,#1455);
#1247=AXIS2_PLACEMENT_3D('',#1823,#1458,#1459);
#1248=AXIS2_PLACEMENT_3D('',#1824,#1460,#1461);
#1249=AXIS2_PLACEMENT_3D('',#1827,#1464,#1465);
#1250=AXIS2_PLACEMENT_3D('',#1829,#1467,#1468);
#1251=AXIS2_PLACEMENT_3D('',#1831,#1470,#1471);
#1252=AXIS2_PLACEMENT_3D('',#1832,#1472,#1473);
#1253=AXIS2_PLACEMENT_3D('',#1834,#1475,#1476);
#1254=AXIS2_PLACEMENT_3D('',#1835,#1477,#1478);
#1255=AXIS2_PLACEMENT_3D('',#1841,#1482,#1483);
#1256=AXIS2_PLACEMENT_3D('',#1845,#1486,#1487);
#1257=AXIS2_PLACEMENT_3D('',#1849,#1490,#1491);
#1258=AXIS2_PLACEMENT_3D('',#1855,#1495,#1496);
#1259=AXIS2_PLACEMENT_3D('',#1856,#1497,#1498);
#1260=AXIS2_PLACEMENT_3D('',#1862,#1502,#1503);
#1261=AXIS2_PLACEMENT_3D('',#1868,#1507,#1508);
#1262=AXIS2_PLACEMENT_3D('',#1871,#1511,#1512);
#1263=AXIS2_PLACEMENT_3D('',#1872,#1513,#1514);
#1264=AXIS2_PLACEMENT_3D('',#1874,#1515,#1516);
#1265=AXIS2_PLACEMENT_3D('',#1876,#1517,#1518);
#1266=AXIS2_PLACEMENT_3D('',#1885,#1523,#1524);
#1267=AXIS2_PLACEMENT_3D('',#1888,#1527,#1528);
#1268=AXIS2_PLACEMENT_3D('',#1891,#1531,#1532);
#1269=AXIS2_PLACEMENT_3D('',#1892,#1533,#1534);
#1270=AXIS2_PLACEMENT_3D('',#1894,#1535,#1536);
#1271=AXIS2_PLACEMENT_3D('',#1896,#1537,#1538);
#1272=AXIS2_PLACEMENT_3D('',#1897,#1539,#1540);
#1273=AXIS2_PLACEMENT_3D('',#1899,#1541,#1542);
#1274=AXIS2_PLACEMENT_3D('',#1900,#1543,#1544);
#1275=AXIS2_PLACEMENT_3D('',#1901,#1545,#1546);
#1276=AXIS2_PLACEMENT_3D('',#1903,#1547,#1548);
#1277=AXIS2_PLACEMENT_3D('',#1904,#1549,#1550);
#1278=AXIS2_PLACEMENT_3D('',#1905,#1551,#1552);
#1279=AXIS2_PLACEMENT_3D('',#1907,#1553,#1554);
#1280=AXIS2_PLACEMENT_3D('',#1908,#1555,#1556);
#1281=AXIS2_PLACEMENT_3D('',#1909,#1557,#1558);
#1282=AXIS2_PLACEMENT_3D('',#1911,#1559,#1560);
#1283=AXIS2_PLACEMENT_3D('',#1912,#1561,#1562);
#1284=AXIS2_PLACEMENT_3D('',#1914,#1564,#1565);
#1285=AXIS2_PLACEMENT_3D('',#1916,#1567,#1568);
#1286=AXIS2_PLACEMENT_3D('',#1917,#1569,#1570);
#1287=AXIS2_PLACEMENT_3D('',#1919,#1572,#1573);
#1288=AXIS2_PLACEMENT_3D('',#1921,#1575,#1576);
#1289=AXIS2_PLACEMENT_3D('',#1922,#1577,#1578);
#1290=AXIS2_PLACEMENT_3D('',#1923,#1579,#1580);
#1291=AXIS2_PLACEMENT_3D('',#1925,#1581,#1582);
#1292=AXIS2_PLACEMENT_3D('',#1926,#1583,#1584);
#1293=AXIS2_PLACEMENT_3D('',#1930,#1587,#1588);
#1294=AXIS2_PLACEMENT_3D('',#1932,#1590,#1591);
#1295=AXIS2_PLACEMENT_3D('',#1933,#1592,#1593);
#1296=AXIS2_PLACEMENT_3D('',#1939,#1597,#1598);
#1297=AXIS2_PLACEMENT_3D('',#1941,#1600,#1601);
#1298=AXIS2_PLACEMENT_3D('',#1943,#1603,#1604);
#1299=AXIS2_PLACEMENT_3D('',#1944,#1605,#1606);
#1300=AXIS2_PLACEMENT_3D('',#1945,#1607,#1608);
#1301=AXIS2_PLACEMENT_3D('',#1952,#1612,#1613);
#1302=AXIS2_PLACEMENT_3D('',#1954,#1615,#1616);
#1303=AXIS2_PLACEMENT_3D('',#1956,#1618,#1619);
#1304=AXIS2_PLACEMENT_3D('',#1957,#1620,#1621);
#1305=AXIS2_PLACEMENT_3D('',#1958,#1622,#1623);
#1306=AXIS2_PLACEMENT_3D('',#1960,#1624,#1625);
#1307=DIRECTION('',(0.,0.,1.));
#1308=DIRECTION('',(1.,0.,0.));
#1309=DIRECTION('',(1.,0.,0.));
#1310=DIRECTION('',(0.,0.,-1.));
#1311=DIRECTION('',(-1.,0.,-4.62592926927149E-16));
#1312=DIRECTION('',(-4.62592926927149E-16,0.,1.));
#1313=DIRECTION('',(0.,1.,0.));
#1314=DIRECTION('',(0.,0.,-1.));
#1315=DIRECTION('',(0.,-1.,6.12323399573677E-17));
#1316=DIRECTION('',(0.,-6.12323399573677E-17,-1.));
#1317=DIRECTION('',(0.,1.,-6.12323399573677E-17));
#1318=DIRECTION('',(0.,0.,1.));
#1319=DIRECTION('',(0.,1.,0.));
#1320=DIRECTION('',(0.,0.,1.));
#1321=DIRECTION('',(0.,-1.,0.));
#1322=DIRECTION('',(0.,0.,1.));
#1323=DIRECTION('',(0.,-1.,0.));
#1324=DIRECTION('',(0.,0.,-1.));
#1325=DIRECTION('',(0.,-1.,6.12323399573677E-17));
#1326=DIRECTION('',(0.,0.,-1.));
#1327=DIRECTION('',(0.,6.12323399573677E-17,1.));
#1328=DIRECTION('',(1.,0.,0.));
#1329=DIRECTION('',(1.,0.,0.));
#1330=DIRECTION('',(0.,1.,-6.12323399573677E-17));
#1331=DIRECTION('',(1.,0.,0.));
#1332=DIRECTION('',(0.707106781186548,0.707106781186547,-4.32978028117746E-17));
#1333=DIRECTION('',(-1.,0.,0.));
#1334=DIRECTION('',(0.,-1.,0.));
#1335=DIRECTION('',(-1.,0.,0.));
#1336=DIRECTION('',(0.,1.,-6.12323399573677E-17));
#1337=DIRECTION('',(-1.,0.,0.));
#1338=DIRECTION('',(-1.,0.,-4.62592926927148E-16));
#1339=DIRECTION('',(-4.62592926927148E-16,0.,1.));
#1340=DIRECTION('',(-1.,0.,-4.62592926927148E-16));
#1341=DIRECTION('',(-4.62592926927148E-16,0.,1.));
#1342=DIRECTION('',(0.,-1.,0.));
#1343=DIRECTION('',(4.62592926927148E-16,0.,-1.));
#1344=DIRECTION('',(2.83256473634769E-32,1.,-6.12323399573677E-17));
#1345=DIRECTION('',(-4.62592926927148E-16,0.,1.));
#1346=DIRECTION('',(0.,1.,0.));
#1347=DIRECTION('',(-4.62592926927148E-16,2.47817639425258E-16,1.));
#1348=DIRECTION('',(0.,-1.,0.));
#1349=DIRECTION('',(-4.62592926927148E-16,0.,1.));
#1350=DIRECTION('',(0.,1.,0.));
#1351=DIRECTION('',(4.62592926927148E-16,0.,-1.));
#1352=DIRECTION('',(0.,-1.,0.));
#1353=DIRECTION('',(4.62592926927148E-16,0.,-1.));
#1354=DIRECTION('',(0.,1.,0.));
#1355=DIRECTION('',(4.62592926927148E-16,0.,-1.));
#1356=DIRECTION('',(2.83256473634769E-32,1.,-6.12323399573677E-17));
#1357=DIRECTION('',(4.62592926927148E-16,-2.77555756156289E-16,-1.));
#1358=DIRECTION('',(0.,6.12323399573677E-17,1.));
#1359=DIRECTION('',(1.,0.,0.));
#1360=DIRECTION('',(-1.,0.,0.));
#1361=DIRECTION('',(-2.83256473634769E-32,-1.,6.12323399573677E-17));
#1362=DIRECTION('',(-1.,1.28395329625815E-31,-7.86194647258622E-48));
#1363=DIRECTION('',(0.707106781186529,0.707106781186566,-4.32978028117758E-17));
#1364=DIRECTION('',(-1.,0.,0.));
#1365=DIRECTION('',(0.,-1.,0.));
#1366=DIRECTION('',(-1.,0.,0.));
#1367=DIRECTION('',(0.707106781186548,-0.707106781186548,4.32978028117747E-17));
#1368=DIRECTION('',(0.,0.,1.));
#1369=DIRECTION('',(1.,0.,0.));
#1370=DIRECTION('',(0.,0.,1.));
#1371=DIRECTION('',(1.,0.,0.));
#1372=DIRECTION('',(0.,-6.12323399573677E-17,-1.));
#1373=DIRECTION('',(0.,1.,-6.12323399573677E-17));
#1374=DIRECTION('',(0.707106781186549,0.707106781186546,0.));
#1375=DIRECTION('',(0.,0.,-1.));
#1376=DIRECTION('',(-0.707106781186546,0.707106781186549,-4.32978028117747E-17));
#1377=DIRECTION('',(0.,0.,-1.));
#1378=DIRECTION('',(-0.707106781186546,0.707106781186549,0.));
#1379=DIRECTION('',(-0.707106781186566,0.707106781186529,-3.27102595559128E-16));
#1380=DIRECTION('',(-4.62592926927148E-16,0.,1.));
#1381=DIRECTION('',(-0.707106781186529,-0.707106781186566,-3.27102595559111E-16));
#1382=DIRECTION('',(0.577350269189616,0.577350269189646,-0.577350269189616));
#1383=DIRECTION('',(-0.707106781186529,-0.707106781186567,1.55293603610148E-15));
#1384=DIRECTION('',(-4.62592926927148E-16,0.,1.));
#1385=DIRECTION('',(0.707106781186548,0.707106781186548,3.2710259555912E-16));
#1386=DIRECTION('',(4.62592926927148E-16,0.,-1.));
#1387=DIRECTION('',(0.707106781186548,-0.707106781186548,3.2710259555912E-16));
#1388=DIRECTION('',(-0.577350269189626,0.577350269189626,-0.577350269189626));
#1389=DIRECTION('',(4.62592926927148E-16,0.,-1.));
#1390=DIRECTION('',(0.,-1.,0.));
#1391=DIRECTION('',(0.,0.,-1.));
#1392=DIRECTION('',(4.62592926927148E-16,0.,-1.));
#1393=DIRECTION('',(-1.,0.,-4.62592926927148E-16));
#1394=DIRECTION('',(0.,-1.,0.));
#1395=DIRECTION('',(0.,0.,-1.));
#1396=DIRECTION('',(0.,0.,1.));
#1397=DIRECTION('',(-1.,0.,0.));
#1398=DIRECTION('',(4.62592926927148E-16,0.,-1.));
#1399=DIRECTION('',(-1.,0.,-4.62592926927148E-16));
#1400=DIRECTION('',(0.577350269189635,0.577350269189608,0.577350269189635));
#1401=DIRECTION('',(0.707106781186548,0.,-0.707106781186548));
#1402=DIRECTION('',(-0.707106781186548,0.,0.707106781186548));
#1403=DIRECTION('',(-0.707106781186531,0.707106781186564,0.));
#1404=DIRECTION('',(3.94207350708625E-15,-0.707106781186566,0.707106781186529));
#1405=DIRECTION('',(0.,0.,1.));
#1406=DIRECTION('',(1.,0.,0.));
#1407=DIRECTION('',(-1.,0.,0.));
#1408=DIRECTION('',(0.,-1.,0.));
#1409=DIRECTION('',(1.,0.,0.));
#1410=DIRECTION('',(0.,1.,0.));
#1411=DIRECTION('',(0.,-1.,0.));
#1412=DIRECTION('',(0.,0.,-1.));
#1413=DIRECTION('',(1.,0.,0.));
#1414=DIRECTION('',(0.,0.,-1.));
#1415=DIRECTION('',(-1.,0.,0.));
#1416=DIRECTION('',(0.,0.,1.));
#1417=DIRECTION('',(0.,0.,1.));
#1418=DIRECTION('',(1.,0.,0.));
#1419=DIRECTION('',(0.,0.,1.));
#1420=DIRECTION('',(1.,0.,0.));
#1421=DIRECTION('',(0.,0.,1.));
#1422=DIRECTION('',(0.,0.,1.));
#1423=DIRECTION('',(1.,0.,0.));
#1424=DIRECTION('',(1.,0.,0.));
#1425=DIRECTION('',(0.,0.,-1.));
#1426=DIRECTION('',(0.,1.,0.));
#1427=DIRECTION('',(0.,0.,1.));
#1428=DIRECTION('',(0.,-1.,0.));
#1429=DIRECTION('',(0.,0.707106781186548,-0.707106781186547));
#1430=DIRECTION('',(-1.,0.,0.));
#1431=DIRECTION('',(0.,0.707106781186547,0.707106781186548));
#1432=DIRECTION('',(-1.23903709934807E-16,-0.707106781186547,-0.707106781186548));
#1433=DIRECTION('',(-0.707106781186548,0.,-0.707106781186548));
#1434=DIRECTION('',(0.,-1.,0.));
#1435=DIRECTION('',(0.707106781186548,2.47807419869614E-16,-0.707106781186548));
#1436=DIRECTION('',(0.707106781186547,0.707106781186548,0.));
#1437=DIRECTION('',(0.,0.,-1.));
#1438=DIRECTION('',(0.707106781186548,-0.707106781186547,0.));
#1439=DIRECTION('',(-0.707106781186548,0.707106781186547,0.));
#1440=DIRECTION('',(0.707106781186563,0.707106781186532,0.));
#1441=DIRECTION('',(0.,0.,-1.));
#1442=DIRECTION('',(0.707106781186532,-0.707106781186563,0.));
#1443=DIRECTION('',(0.,0.,-1.));
#1444=DIRECTION('',(-0.707106781186532,0.707106781186563,0.));
#1445=DIRECTION('',(0.,0.,1.));
#1446=DIRECTION('',(1.,0.,0.));
#1447=DIRECTION('',(0.,0.,1.));
#1448=DIRECTION('',(1.,0.,0.));
#1449=DIRECTION('',(-1.,0.,0.));
#1450=DIRECTION('',(0.707106781186531,-0.707106781186564,0.));
#1451=DIRECTION('',(0.707106781186564,0.707106781186531,0.));
#1452=DIRECTION('',(0.,0.,1.));
#1453=DIRECTION('',(0.,0.,-1.));
#1454=DIRECTION('',(0.,0.707106781186529,0.707106781186566));
#1455=DIRECTION('',(1.,0.,0.));
#1456=DIRECTION('',(1.,0.,0.));
#1457=DIRECTION('',(-2.77555756156289E-17,0.707106781186566,-0.707106781186529));
#1458=DIRECTION('',(1.,0.,4.62592926927149E-16));
#1459=DIRECTION('',(4.62592926927149E-16,0.,-1.));
#1460=DIRECTION('',(0.707106781186548,0.,-0.707106781186548));
#1461=DIRECTION('',(0.,-1.,0.));
#1462=DIRECTION('',(0.707106781186548,0.,0.707106781186548));
#1463=DIRECTION('',(-0.707106781186548,0.,-0.707106781186548));
#1464=DIRECTION('',(0.577350269189626,-0.577350269189626,0.577350269189625));
#1465=DIRECTION('',(0.707106781186548,0.707106781186547,0.));
#1466=DIRECTION('',(-0.707106781186548,-0.707106781186547,0.));
#1467=DIRECTION('',(-0.577350269189626,-0.577350269189626,0.577350269189626));
#1468=DIRECTION('',(0.,-0.707106781186547,-0.707106781186548));
#1469=DIRECTION('',(-0.707106781186548,0.707106781186548,9.74054469515402E-16));
#1470=DIRECTION('',(-0.577350269189636,0.577350269189606,0.577350269189636));
#1471=DIRECTION('',(0.707106781186548,0.,0.707106781186548));
#1472=DIRECTION('',(0.,0.,1.));
#1473=DIRECTION('',(1.,0.,0.));
#1474=DIRECTION('',(1.,0.,0.));
#1475=DIRECTION('',(-0.707106781186547,0.707106781186548,0.));
#1476=DIRECTION('',(0.,0.,1.));
#1477=DIRECTION('',(-0.707106781186566,0.707106781186529,-3.27102595559128E-16));
#1478=DIRECTION('',(-4.62592926927148E-16,0.,1.));
#1479=DIRECTION('',(0.577350269189615,0.577350269189647,0.577350269189615));
#1480=DIRECTION('',(-0.707106781186529,-0.707106781186566,-3.27102595559111E-16));
#1481=DIRECTION('',(-4.62592926927148E-16,0.,1.));
#1482=DIRECTION('',(0.707106781186548,0.707106781186548,3.2710259555912E-16));
#1483=DIRECTION('',(4.62592926927148E-16,0.,-1.));
#1484=DIRECTION('',(-0.577350269189626,0.577350269189626,0.577350269189626));
#1485=DIRECTION('',(0.707106781186548,-0.707106781186548,3.2710259555912E-16));
#1486=DIRECTION('',(0.,-1.,0.));
#1487=DIRECTION('',(0.,0.,-1.));
#1488=DIRECTION('',(-1.,0.,0.));
#1489=DIRECTION('',(0.,-6.12323399573677E-17,-1.));
#1490=DIRECTION('',(0.,-1.,0.));
#1491=DIRECTION('',(0.,0.,-1.));
#1492=DIRECTION('',(-1.,0.,-4.62592926927148E-16));
#1493=DIRECTION('',(4.62592926927148E-16,0.,-1.));
#1494=DIRECTION('',(-1.,0.,-4.62592926927148E-16));
#1495=DIRECTION('',(0.,-1.,0.));
#1496=DIRECTION('',(0.,0.,-1.));
#1497=DIRECTION('',(-4.62592926927148E-16,0.,1.));
#1498=DIRECTION('',(1.,0.,4.62592926927148E-16));
#1499=DIRECTION('',(0.,1.,0.));
#1500=DIRECTION('',(-1.,0.,-4.62592926927148E-16));
#1501=DIRECTION('',(0.,1.,0.));
#1502=DIRECTION('',(1.14638687165907E-31,1.,-2.47817639425258E-16));
#1503=DIRECTION('',(0.,2.47817639425258E-16,1.));
#1504=DIRECTION('',(4.62592926927148E-16,-2.47817639425258E-16,-1.));
#1505=DIRECTION('',(-1.,0.,-4.62592926927148E-16));
#1506=DIRECTION('',(4.62592926927148E-16,-2.47817639425258E-16,-1.));
#1507=DIRECTION('',(-4.62592926927148E-16,0.,1.));
#1508=DIRECTION('',(1.,0.,4.62592926927148E-16));
#1509=DIRECTION('',(0.,-1.,0.));
#1510=DIRECTION('',(0.,1.,0.));
#1511=DIRECTION('',(-1.,0.,-4.62592926927148E-16));
#1512=DIRECTION('',(0.,-1.,0.));
#1513=DIRECTION('',(-1.,0.,-4.62592926927148E-16));
#1514=DIRECTION('',(-4.62592926927148E-16,0.,1.));
#1515=DIRECTION('',(-1.,0.,-4.62592926927148E-16));
#1516=DIRECTION('',(-4.62592926927148E-16,0.,1.));
#1517=DIRECTION('',(0.,1.,0.));
#1518=DIRECTION('',(0.,0.,1.));
#1519=DIRECTION('',(-1.,0.,-4.62592926927148E-16));
#1520=DIRECTION('',(-4.62592926927148E-16,0.,1.));
#1521=DIRECTION('',(-1.,0.,-4.62592926927148E-16));
#1522=DIRECTION('',(4.62592926927148E-16,0.,-1.));
#1523=DIRECTION('',(4.62592926927148E-16,0.,-1.));
#1524=DIRECTION('',(-1.,0.,-4.62592926927148E-16));
#1525=DIRECTION('',(0.,1.,0.));
#1526=DIRECTION('',(0.,-1.,0.));
#1527=DIRECTION('',(4.62592926927148E-16,0.,-1.));
#1528=DIRECTION('',(-1.,0.,-4.62592926927148E-16));
#1529=DIRECTION('',(0.,-1.,0.));
#1530=DIRECTION('',(0.,-1.,0.));
#1531=DIRECTION('',(-1.,0.,-4.62592926927148E-16));
#1532=DIRECTION('',(0.,-1.,0.));
#1533=DIRECTION('',(-1.,0.,-4.62592926927148E-16));
#1534=DIRECTION('',(-4.62592926927148E-16,0.,1.));
#1535=DIRECTION('',(-1.,0.,-4.62592926927148E-16));
#1536=DIRECTION('',(-4.62592926927148E-16,0.,1.));
#1537=DIRECTION('',(-1.,0.,-4.62592926927148E-16));
#1538=DIRECTION('',(-4.62592926927148E-16,0.,1.));
#1539=DIRECTION('',(-1.,0.,-4.62592926927148E-16));
#1540=DIRECTION('',(-4.62592926927148E-16,0.,1.));
#1541=DIRECTION('',(-1.,0.,-4.62592926927148E-16));
#1542=DIRECTION('',(0.,-1.,0.));
#1543=DIRECTION('',(-1.,0.,-4.62592926927148E-16));
#1544=DIRECTION('',(-4.62592926927148E-16,0.,1.));
#1545=DIRECTION('',(-1.,0.,-4.62592926927148E-16));
#1546=DIRECTION('',(-4.62592926927148E-16,0.,1.));
#1547=DIRECTION('',(-1.,0.,-4.62592926927148E-16));
#1548=DIRECTION('',(0.,-1.,0.));
#1549=DIRECTION('',(-1.,0.,-4.62592926927148E-16));
#1550=DIRECTION('',(-4.62592926927148E-16,0.,1.));
#1551=DIRECTION('',(-1.,0.,-4.62592926927148E-16));
#1552=DIRECTION('',(-4.62592926927148E-16,0.,1.));
#1553=DIRECTION('',(-1.,0.,-4.62592926927148E-16));
#1554=DIRECTION('',(0.,-1.,0.));
#1555=DIRECTION('',(-1.,0.,-4.62592926927148E-16));
#1556=DIRECTION('',(-4.62592926927148E-16,0.,1.));
#1557=DIRECTION('',(-1.,0.,-4.62592926927148E-16));
#1558=DIRECTION('',(-4.62592926927148E-16,0.,1.));
#1559=DIRECTION('',(-1.,0.,-4.62592926927148E-16));
#1560=DIRECTION('',(0.,-1.,0.));
#1561=DIRECTION('',(-0.707106781186548,0.,-0.707106781186548));
#1562=DIRECTION('',(0.,-1.,0.));
#1563=DIRECTION('',(0.577350269189627,-0.577350269189624,-0.577350269189627));
#1564=DIRECTION('',(-0.707106781186546,-0.70710678118655,-1.51869062223875E-16));
#1565=DIRECTION('',(-4.62592926927148E-16,2.47817639425258E-16,1.));
#1566=DIRECTION('',(-0.577350269189627,0.577350269189624,-0.577350269189627));
#1567=DIRECTION('',(0.707106781186548,0.,-0.707106781186548));
#1568=DIRECTION('',(0.,1.,0.));
#1569=DIRECTION('',(0.707106781186548,0.,0.707106781186548));
#1570=DIRECTION('',(0.,-1.,0.));
#1571=DIRECTION('',(-0.577350269189626,-0.577350269189625,0.577350269189626));
#1572=DIRECTION('',(0.707106781186547,-0.707106781186549,3.27102595559119E-16));
#1573=DIRECTION('',(4.62592926927148E-16,0.,-1.));
#1574=DIRECTION('',(0.577350269189626,0.577350269189625,0.577350269189626));
#1575=DIRECTION('',(-0.707106781186548,0.,0.707106781186548));
#1576=DIRECTION('',(0.,1.,0.));
#1577=DIRECTION('',(0.,-6.12323399573677E-17,-1.));
#1578=DIRECTION('',(0.,1.,-6.12323399573677E-17));
#1579=DIRECTION('',(0.,-6.12323399573677E-17,-1.));
#1580=DIRECTION('',(0.,1.,-6.12323399573677E-17));
#1581=DIRECTION('',(0.,-6.12323399573677E-17,-1.));
#1582=DIRECTION('',(1.,0.,0.));
#1583=DIRECTION('',(0.,-6.12323399573677E-17,-1.));
#1584=DIRECTION('',(1.,0.,0.));
#1585=DIRECTION('',(-1.,0.,0.));
#1586=DIRECTION('',(0.,1.,-6.12323399573677E-17));
#1587=DIRECTION('',(0.,-1.,6.12323399573677E-17));
#1588=DIRECTION('',(0.,-6.12323399573677E-17,-1.));
#1589=DIRECTION('',(0.,-6.12323399573677E-17,-1.));
#1590=DIRECTION('',(-1.,0.,0.));
#1591=DIRECTION('',(0.,0.,1.));
#1592=DIRECTION('',(-1.,0.,-4.62592926927148E-16));
#1593=DIRECTION('',(0.,-1.,0.));
#1594=DIRECTION('',(4.62592926927148E-16,0.,-1.));
#1595=DIRECTION('',(0.,-1.,0.));
#1596=DIRECTION('',(4.62592926927148E-16,-2.77555756156289E-16,-1.));
#1597=DIRECTION('',(0.,1.,0.));
#1598=DIRECTION('',(0.,0.,1.));
#1599=DIRECTION('',(-1.,0.,-4.62592926927148E-16));
#1600=DIRECTION('',(4.62592926927148E-16,0.,-1.));
#1601=DIRECTION('',(-1.,0.,-4.62592926927148E-16));
#1602=DIRECTION('',(-1.,0.,-4.62592926927148E-16));
#1603=DIRECTION('',(1.28395329625815E-31,1.,-2.77555756156289E-16));
#1604=DIRECTION('',(0.,2.77555756156289E-16,1.));
#1605=DIRECTION('',(1.,0.,0.));
#1606=DIRECTION('',(0.,1.,0.));
#1607=DIRECTION('',(1.,0.,0.));
#1608=DIRECTION('',(0.,0.,-1.));
#1609=DIRECTION('',(0.,0.,-1.));
#1610=DIRECTION('',(0.,1.,0.));
#1611=DIRECTION('',(0.,0.,-1.));
#1612=DIRECTION('',(0.,-1.,0.));
#1613=DIRECTION('',(0.,0.,-1.));
#1614=DIRECTION('',(1.,0.,0.));
#1615=DIRECTION('',(0.,0.,-1.));
#1616=DIRECTION('',(-1.,0.,0.));
#1617=DIRECTION('',(1.,0.,0.));
#1618=DIRECTION('',(0.,-1.,0.));
#1619=DIRECTION('',(0.,0.,-1.));
#1620=DIRECTION('',(1.,0.,0.));
#1621=DIRECTION('',(0.,0.,-1.));
#1622=DIRECTION('',(1.,0.,0.));
#1623=DIRECTION('',(0.,0.,-1.));
#1624=DIRECTION('',(1.,0.,0.));
#1625=DIRECTION('',(0.,1.,0.));
#1626=CARTESIAN_POINT('',(0.,0.,0.));
#1627=CARTESIAN_POINT('',(-0.1225,0.0125,0.385052546262741));
#1628=CARTESIAN_POINT('',(-0.1225,0.022,0.4367));
#1629=CARTESIAN_POINT('',(-0.1225,0.022,0.447));
#1630=CARTESIAN_POINT('',(-0.1225,0.0125,0.410450115781006));
#1631=CARTESIAN_POINT('',(-0.1225,0.02,0.410450115781006));
#1632=CARTESIAN_POINT('',(-0.1225,0.028,0.410450115781006));
#1633=CARTESIAN_POINT('',(-0.1225,0.028,0.385052546262741));
#1634=CARTESIAN_POINT('',(-0.1225,0.028,0.400450115781006));
#1635=CARTESIAN_POINT('',(-0.1225,0.0125,0.400450115781006));
#1636=CARTESIAN_POINT('',(-0.1225,0.03,0.400450115781006));
#1637=CARTESIAN_POINT('',(-0.1225,0.03,0.410450115781006));
#1638=CARTESIAN_POINT('',(-0.1225,0.03,0.410450115781006));
#1639=CARTESIAN_POINT('',(-0.1225,0.0375,0.410450115781006));
#1640=CARTESIAN_POINT('',(-0.1225,0.04,0.410450115781006));
#1641=CARTESIAN_POINT('',(-0.1225,0.04,0.415052546262741));
#1642=CARTESIAN_POINT('',(-0.1225,0.04,0.415052546262741));
#1643=CARTESIAN_POINT('',(-0.1225,0.0325,0.415052546262741));
#1644=CARTESIAN_POINT('',(-0.1225,0.02,0.415052546262741));
#1645=CARTESIAN_POINT('',(-0.1225,0.02,0.425052546262741));
#1646=CARTESIAN_POINT('',(-0.1225,0.02,0.425052546262741));
#1647=CARTESIAN_POINT('',(-0.1225,0.850868496704852,0.425052546262741));
#1648=CARTESIAN_POINT('',(-0.1225,0.04,0.425052546262741));
#1649=CARTESIAN_POINT('',(-0.1225,0.04,0.460052546262741));
#1650=CARTESIAN_POINT('',(-0.1225,0.04,0.455052546262741));
#1651=CARTESIAN_POINT('',(-0.1225,0.0125,0.455052546262741));
#1652=CARTESIAN_POINT('',(-0.1225,0.005,0.455052546262741));
#1653=CARTESIAN_POINT('',(-0.1225,0.005,0.385052546262741));
#1654=CARTESIAN_POINT('',(-0.1225,0.005,0.400450115781006));
#1655=CARTESIAN_POINT('',(-0.1225,0.0125,0.400450115781006));
#1656=CARTESIAN_POINT('',(-0.1225,0.02,0.400450115781006));
#1657=CARTESIAN_POINT('',(-0.1225,0.02,0.385052546262741));
#1658=CARTESIAN_POINT('',(0.2425,0.0225,0.400450115781006));
#1659=CARTESIAN_POINT('',(0.2425,0.028,0.400450115781006));
#1660=CARTESIAN_POINT('',(-0.126,0.028,0.400450115781006));
#1661=CARTESIAN_POINT('',(-0.126,0.0225,0.400450115781006));
#1662=CARTESIAN_POINT('',(-0.126,0.02,0.400450115781006));
#1663=CARTESIAN_POINT('',(0.2425,0.02,0.400450115781006));
#1664=CARTESIAN_POINT('',(-0.1275,4.71414605629796E-19,0.400450115781006));
#1665=CARTESIAN_POINT('',(-0.1275,0.,0.400450115781006));
#1666=CARTESIAN_POINT('',(-0.13,0.,0.400450115781006));
#1667=CARTESIAN_POINT('',(-0.13629717195659,0.,0.400450115781006));
#1668=CARTESIAN_POINT('',(-0.13629717195659,0.05,0.400450115781006));
#1669=CARTESIAN_POINT('',(-0.13629717195659,0.045,0.400450115781006));
#1670=CARTESIAN_POINT('',(-0.13,0.045,0.400450115781006));
#1671=CARTESIAN_POINT('',(-0.1345,0.045,0.400450115781006));
#1672=CARTESIAN_POINT('',(-0.1345,0.0375,0.400450115781006));
#1673=CARTESIAN_POINT('',(-0.1345,0.03,0.400450115781006));
#1674=CARTESIAN_POINT('',(-0.1285,0.03,0.400450115781006));
#1675=CARTESIAN_POINT('',(-0.1625,0.045,0.400052546262741));
#1676=CARTESIAN_POINT('',(-0.1625,0.022,0.4367));
#1677=CARTESIAN_POINT('',(-0.1625,0.022,0.447));
#1678=CARTESIAN_POINT('',(-0.1625,0.045,0.412950115781006));
#1679=CARTESIAN_POINT('',(-0.1625,0.0275,0.412950115781006));
#1680=CARTESIAN_POINT('',(-0.1625,0.0175,0.412950115781006));
#1681=CARTESIAN_POINT('',(-0.1625,0.0175,0.400052546262741));
#1682=CARTESIAN_POINT('',(-0.1625,0.0175,0.400450115781006));
#1683=CARTESIAN_POINT('',(-0.1625,0.045,0.400450115781006));
#1684=CARTESIAN_POINT('',(-0.1625,0.005,0.400450115781006));
#1685=CARTESIAN_POINT('',(-0.1625,0.005,0.400052546262741));
#1686=CARTESIAN_POINT('',(-0.1625,0.005,0.407450115781006));
#1687=CARTESIAN_POINT('',(-0.1625,0.045,0.407450115781006));
#1688=CARTESIAN_POINT('',(-0.1625,0.013,0.407450115781006));
#1689=CARTESIAN_POINT('',(-0.1625,0.013,0.424450115781006));
#1690=CARTESIAN_POINT('',(-0.1625,0.013,0.427450115781006));
#1691=CARTESIAN_POINT('',(-0.1625,0.005,0.427450115781006));
#1692=CARTESIAN_POINT('',(-0.1625,0.005,0.427450115781006));
#1693=CARTESIAN_POINT('',(-0.1625,0.005,0.400052546262741));
#1694=CARTESIAN_POINT('',(-0.1625,0.005,0.455052546262741));
#1695=CARTESIAN_POINT('',(-0.1625,0.045,0.455052546262741));
#1696=CARTESIAN_POINT('',(-0.1625,0.04,0.455052546262741));
#1697=CARTESIAN_POINT('',(-0.1625,0.04,0.378052546262741));
#1698=CARTESIAN_POINT('',(-0.1625,0.04,0.427450115781006));
#1699=CARTESIAN_POINT('',(-0.1625,0.045,0.427450115781006));
#1700=CARTESIAN_POINT('',(-0.1625,0.032,0.427450115781006));
#1701=CARTESIAN_POINT('',(-0.1625,0.032,0.400052546262741));
#1702=CARTESIAN_POINT('',(-0.1625,0.032,0.407450115781006));
#1703=CARTESIAN_POINT('',(-0.1625,0.04,0.407450115781006));
#1704=CARTESIAN_POINT('',(-0.1625,0.04,0.407450115781006));
#1705=CARTESIAN_POINT('',(-0.1625,0.04,0.378052546262741));
#1706=CARTESIAN_POINT('',(-0.1625,0.04,0.400450115781006));
#1707=CARTESIAN_POINT('',(-0.1625,0.045,0.400450115781006));
#1708=CARTESIAN_POINT('',(-0.1625,0.0275,0.400450115781006));
#1709=CARTESIAN_POINT('',(-0.1625,0.0275,0.400052546262741));
#1710=CARTESIAN_POINT('',(0.2425,0.0225,0.400450115781006));
#1711=CARTESIAN_POINT('',(0.2425,0.0175,0.400450115781006));
#1712=CARTESIAN_POINT('',(-0.16,0.0175,0.400450115781006));
#1713=CARTESIAN_POINT('',(-0.16,0.0225,0.400450115781006));
#1714=CARTESIAN_POINT('',(-0.16,0.0275,0.400450115781006));
#1715=CARTESIAN_POINT('',(0.2425,0.0275,0.400450115781006));
#1716=CARTESIAN_POINT('',(-0.1625,0.04,0.400450115781006));
#1717=CARTESIAN_POINT('',(-0.1575,0.045,0.400450115781006));
#1718=CARTESIAN_POINT('',(-0.13,0.045,0.400450115781006));
#1719=CARTESIAN_POINT('',(-0.157282113079037,0.045,0.400450115781006));
#1720=CARTESIAN_POINT('',(-0.157282113079037,0.05,0.400450115781006));
#1721=CARTESIAN_POINT('',(-0.157282113079037,0.,0.400450115781006));
#1722=CARTESIAN_POINT('',(-0.13,0.,0.400450115781006));
#1723=CARTESIAN_POINT('',(-0.1575,0.,0.400450115781006));
#1724=CARTESIAN_POINT('',(-0.1575,-3.08998876987938E-18,0.400450115781006));
#1725=CARTESIAN_POINT('',(-0.1285,0.035,0.405052546262741));
#1726=CARTESIAN_POINT('',(-0.1285,0.035,0.415052546262741));
#1727=CARTESIAN_POINT('',(-0.126,0.035,0.415052546262741));
#1728=CARTESIAN_POINT('',(-0.1285,0.035,0.410450115781006));
#1729=CARTESIAN_POINT('',(-0.1285,0.0375,0.410450115781006));
#1730=CARTESIAN_POINT('',(-0.1225,0.04,0.385052546262741));
#1731=CARTESIAN_POINT('',(-0.1225,0.04,0.410450115781006));
#1732=CARTESIAN_POINT('',(-0.1275,0.045,0.410450115781006));
#1733=CARTESIAN_POINT('',(-0.1275,0.045,0.340052546262741));
#1734=CARTESIAN_POINT('',(-0.1275,0.045,0.415052546262741));
#1735=CARTESIAN_POINT('',(-0.0325,-0.05,0.415052546262741));
#1736=CARTESIAN_POINT('',(-0.1625,0.04,0.400052546262741));
#1737=CARTESIAN_POINT('',(-0.1625,0.04,0.424450115781006));
#1738=CARTESIAN_POINT('',(-0.1575,0.045,0.424450115781006));
#1739=CARTESIAN_POINT('',(-0.1595,0.043,0.424450115781006));
#1740=CARTESIAN_POINT('',(-0.153367476827246,0.0491325231727552,0.418317592608252));
#1741=CARTESIAN_POINT('',(-0.1575,0.045,0.455052546262741));
#1742=CARTESIAN_POINT('',(-0.1575,0.045,0.455052546262741));
#1743=CARTESIAN_POINT('',(-0.1575,0.045,0.460052546262741));
#1744=CARTESIAN_POINT('',(-0.1575,0.,0.385052546262741));
#1745=CARTESIAN_POINT('',(-0.1575,-1.252196855037E-33,0.410450115781006));
#1746=CARTESIAN_POINT('',(-0.1575,-3.13049213759249E-34,0.410450115781006));
#1747=CARTESIAN_POINT('',(-0.1595,0.002,0.410450115781006));
#1748=CARTESIAN_POINT('',(-0.166632523172755,0.00913252317275494,0.403317592608251));
#1749=CARTESIAN_POINT('',(-0.1575,0.,0.385052546262741));
#1750=CARTESIAN_POINT('',(-0.13,0.,0.385052546262741));
#1751=CARTESIAN_POINT('',(-0.1555,0.,0.417450115781006));
#1752=CARTESIAN_POINT('',(-0.1555,0.,0.424450115781006));
#1753=CARTESIAN_POINT('',(-0.1555,0.,0.410450115781006));
#1754=CARTESIAN_POINT('',(-0.1555,0.,0.410450115781006));
#1755=CARTESIAN_POINT('',(-0.146789642517814,0.,0.400052546262741));
#1756=CARTESIAN_POINT('',(-0.1275,0.,0.385052546262741));
#1757=CARTESIAN_POINT('',(-0.1275,0.,0.455052546262741));
#1758=CARTESIAN_POINT('',(-0.13,0.,0.455052546262741));
#1759=CARTESIAN_POINT('',(-0.1575,0.,0.455052546262741));
#1760=CARTESIAN_POINT('',(-0.1575,0.,0.385052546262741));
#1761=CARTESIAN_POINT('',(-0.1575,-4.85612536776346E-34,0.424450115781006));
#1762=CARTESIAN_POINT('',(-0.1555,0.,0.424450115781006));
#1763=CARTESIAN_POINT('',(-0.1225,0.04,0.455052546262741));
#1764=CARTESIAN_POINT('',(-0.1225,0.04,0.455052546262741));
#1765=CARTESIAN_POINT('',(-0.1275,0.04,0.460052546262741));
#1766=CARTESIAN_POINT('',(-0.1225,0.04,0.455052546262741));
#1767=CARTESIAN_POINT('',(-0.1275,0.045,0.455052546262741));
#1768=CARTESIAN_POINT('',(-0.1275,0.0425,0.457552546262741));
#1769=CARTESIAN_POINT('',(-0.1425,0.045,0.460052546262741));
#1770=CARTESIAN_POINT('',(-0.1625,0.04,0.460052546262741));
#1771=CARTESIAN_POINT('',(-0.1575,0.04,0.460052546262741));
#1772=CARTESIAN_POINT('',(-0.1575,0.045,0.460052546262741));
#1773=CARTESIAN_POINT('',(-0.1575,0.005,0.460052546262741));
#1774=CARTESIAN_POINT('',(-0.1425,0.005,0.460052546262741));
#1775=CARTESIAN_POINT('',(-0.1275,0.005,0.460052546262741));
#1776=CARTESIAN_POINT('',(-0.1275,0.045,0.460052546262741));
#1777=CARTESIAN_POINT('',(-0.13,0.025,0.385052546262741));
#1778=CARTESIAN_POINT('',(-0.13,0.025,0.425052546262741));
#1779=CARTESIAN_POINT('',(-0.1325,0.025,0.425052546262741));
#1780=CARTESIAN_POINT('',(-0.1275,0.025,0.425052546262741));
#1781=CARTESIAN_POINT('',(-0.1275,0.025,0.415052546262741));
#1782=CARTESIAN_POINT('',(-0.1275,0.025,0.415052546262741));
#1783=CARTESIAN_POINT('',(-0.13,0.025,0.415052546262741));
#1784=CARTESIAN_POINT('',(-0.1325,0.025,0.415052546262741));
#1785=CARTESIAN_POINT('',(-0.1325,0.025,0.385052546262741));
#1786=CARTESIAN_POINT('',(-0.1325,0.03,0.385052546262741));
#1787=CARTESIAN_POINT('',(-0.1325,0.03,0.415052546262741));
#1788=CARTESIAN_POINT('',(-0.1375,0.03,0.415052546262741));
#1789=CARTESIAN_POINT('',(-0.1375,0.03,0.400052546262741));
#1790=CARTESIAN_POINT('',(-0.1375,0.03,0.425052546262741));
#1791=CARTESIAN_POINT('',(-0.1325,0.03,0.425052546262741));
#1792=CARTESIAN_POINT('',(-0.1375,0.850868496704852,0.400052546262741));
#1793=CARTESIAN_POINT('',(-0.1375,0.0325,0.415052546262741));
#1794=CARTESIAN_POINT('',(-0.1375,0.04,0.415052546262741));
#1795=CARTESIAN_POINT('',(-0.1375,0.04,0.425052546262741));
#1796=CARTESIAN_POINT('',(-0.1375,0.04,0.425052546262741));
#1797=CARTESIAN_POINT('',(-0.1375,0.850868496704852,0.425052546262741));
#1798=CARTESIAN_POINT('',(-0.13,0.,0.455052546262741));
#1799=CARTESIAN_POINT('',(-0.1275,0.,0.455052546262741));
#1800=CARTESIAN_POINT('',(-0.1575,0.0025,0.457552546262741));
#1801=CARTESIAN_POINT('',(-0.1225,0.0125,0.455052546262741));
#1802=CARTESIAN_POINT('',(-0.125,0.005,0.457552546262741));
#1803=CARTESIAN_POINT('',(-0.1225,0.02,0.385052546262741));
#1804=CARTESIAN_POINT('',(-0.1225,0.02,0.415052546262741));
#1805=CARTESIAN_POINT('',(-0.541684248352426,0.439184248352425,0.425052546262741));
#1806=CARTESIAN_POINT('',(-0.1375,0.04,0.400052546262741));
#1807=CARTESIAN_POINT('',(-0.1375,0.04,0.415052546262741));
#1808=CARTESIAN_POINT('',(-0.1425,0.045,0.415052546262741));
#1809=CARTESIAN_POINT('',(-0.1425,0.045,0.415052546262741));
#1810=CARTESIAN_POINT('',(-0.1425,0.045,0.425052546262741));
#1811=CARTESIAN_POINT('',(-0.539184248352426,0.441684248352444,0.425052546262741));
#1812=CARTESIAN_POINT('',(-0.13,0.850868496704852,0.425052546262741));
#1813=CARTESIAN_POINT('',(-0.1285,0.035,0.425052546262741));
#1814=CARTESIAN_POINT('',(-0.126,0.035,0.425052546262741));
#1815=CARTESIAN_POINT('',(0.04,0.045,0.425052546262741));
#1816=CARTESIAN_POINT('',(-0.1275,0.045,0.425052546262741));
#1817=CARTESIAN_POINT('',(-0.1275,0.045,0.425052546262741));
#1818=CARTESIAN_POINT('',(-0.1275,0.045,0.375052546262741));
#1819=CARTESIAN_POINT('',(-0.1275,0.045,0.425052546262741));
#1820=CARTESIAN_POINT('',(-0.1425,0.04,0.460052546262741));
#1821=CARTESIAN_POINT('',(-0.1225,0.045,0.455052546262741));
#1822=CARTESIAN_POINT('',(-0.1575,0.045,0.455052546262741));
#1823=CARTESIAN_POINT('',(-0.608368496704852,0.022,0.4367));
#1824=CARTESIAN_POINT('',(-0.1575,0.045,0.460052546262741));
#1825=CARTESIAN_POINT('',(-0.1625,0.005,0.455052546262741));
#1826=CARTESIAN_POINT('',(-0.16,0.04,0.457552546262741));
#1827=CARTESIAN_POINT('',(-0.1275,0.,0.455052546262741));
#1828=CARTESIAN_POINT('',(-0.1275,0.,0.455052546262741));
#1829=CARTESIAN_POINT('',(-0.1625,0.005,0.455052546262741));
#1830=CARTESIAN_POINT('',(-0.1625,0.005,0.455052546262741));
#1831=CARTESIAN_POINT('',(-0.1575,0.045,0.455052546262741));
#1832=CARTESIAN_POINT('',(0.04,0.0225,0.415052546262741));
#1833=CARTESIAN_POINT('',(-0.13,0.045,0.415052546262741));
#1834=CARTESIAN_POINT('',(-0.1275,0.,0.385052546262741));
#1835=CARTESIAN_POINT('',(-0.1625,0.04,0.400052546262741));
#1836=CARTESIAN_POINT('',(-0.164965856506088,0.0375341434939116,0.404984259274918));
#1837=CARTESIAN_POINT('',(-0.1595,0.043,0.410450115781006));
#1838=CARTESIAN_POINT('',(-0.1625,0.04,0.410450115781006));
#1839=CARTESIAN_POINT('',(-0.1575,0.045,0.410450115781006));
#1840=CARTESIAN_POINT('',(-0.1575,0.045,0.460052546262741));
#1841=CARTESIAN_POINT('',(-0.1575,0.,0.385052546262741));
#1842=CARTESIAN_POINT('',(-0.145034143493912,-0.0124658565060883,0.409984259274918));
#1843=CARTESIAN_POINT('',(-0.1595,0.00199999999999997,0.424450115781006));
#1844=CARTESIAN_POINT('',(-0.1575,-1.94245014710539E-33,0.424450115781006));
#1845=CARTESIAN_POINT('',(-0.13,0.045,0.375052546262741));
#1846=CARTESIAN_POINT('',(-0.1285,0.045,0.410450115781006));
#1847=CARTESIAN_POINT('',(-0.1345,0.045,0.410450115781006));
#1848=CARTESIAN_POINT('',(-0.1345,0.045,0.410450115781006));
#1849=CARTESIAN_POINT('',(-0.146789642517814,0.045,0.400052546262741));
#1850=CARTESIAN_POINT('',(-0.1555,0.045,0.410450115781006));
#1851=CARTESIAN_POINT('',(-0.1555,0.045,0.410450115781006));
#1852=CARTESIAN_POINT('',(-0.1555,0.045,0.417450115781006));
#1853=CARTESIAN_POINT('',(-0.1555,0.045,0.424450115781006));
#1854=CARTESIAN_POINT('',(-0.1555,0.045,0.424450115781006));
#1855=CARTESIAN_POINT('',(-0.146789642517814,0.05,0.400052546262741));
#1856=CARTESIAN_POINT('',(-0.1555,0.005,0.424450115781006));
#1857=CARTESIAN_POINT('',(-0.1595,0.01,0.424450115781006));
#1858=CARTESIAN_POINT('',(-0.1595,0.01,0.424450115781006));
#1859=CARTESIAN_POINT('',(-0.1555,0.01,0.424450115781006));
#1860=CARTESIAN_POINT('',(-0.1555,0.01,0.424450115781006));
#1861=CARTESIAN_POINT('',(-0.1555,0.005,0.424450115781006));
#1862=CARTESIAN_POINT('',(-0.1555,0.01,0.417450115781006));
#1863=CARTESIAN_POINT('',(-0.1595,0.01,0.410450115781006));
#1864=CARTESIAN_POINT('',(-0.1595,0.01,0.410450115781006));
#1865=CARTESIAN_POINT('',(-0.1555,0.01,0.410450115781006));
#1866=CARTESIAN_POINT('',(-0.1555,0.01,0.410450115781006));
#1867=CARTESIAN_POINT('',(-0.1555,0.01,0.417450115781006));
#1868=CARTESIAN_POINT('',(-0.1555,0.005,0.410450115781006));
#1869=CARTESIAN_POINT('',(-0.1595,0.005,0.410450115781006));
#1870=CARTESIAN_POINT('',(-0.1555,0.005,0.410450115781006));
#1871=CARTESIAN_POINT('',(-0.1555,0.0225,0.427751331021874));
#1872=CARTESIAN_POINT('',(-0.1555,0.00564179974891707,0.413922398269823));
#1873=CARTESIAN_POINT('',(-0.1555,0.00564179974891707,0.415022398269823));
#1874=CARTESIAN_POINT('',(-0.1555,0.00564179974891707,0.420922398269822));
#1875=CARTESIAN_POINT('',(-0.1555,0.00564179974891707,0.422022398269822));
#1876=CARTESIAN_POINT('',(-0.1555,0.035,0.417450115781006));
#1877=CARTESIAN_POINT('',(-0.1555,0.035,0.410450115781006));
#1878=CARTESIAN_POINT('',(-0.1555,0.035,0.410450115781006));
#1879=CARTESIAN_POINT('',(-0.1595,0.035,0.410450115781006));
#1880=CARTESIAN_POINT('',(-0.1595,0.035,0.417450115781006));
#1881=CARTESIAN_POINT('',(-0.1595,0.035,0.424450115781006));
#1882=CARTESIAN_POINT('',(-0.1555,0.035,0.424450115781006));
#1883=CARTESIAN_POINT('',(-0.1555,0.035,0.424450115781006));
#1884=CARTESIAN_POINT('',(-0.1555,0.035,0.417450115781006));
#1885=CARTESIAN_POINT('',(-0.1555,0.04,0.424450115781006));
#1886=CARTESIAN_POINT('',(-0.1595,0.04,0.424450115781006));
#1887=CARTESIAN_POINT('',(-0.1555,0.04,0.424450115781006));
#1888=CARTESIAN_POINT('',(-0.1555,0.04,0.410450115781006));
#1889=CARTESIAN_POINT('',(-0.1595,0.035,0.410450115781006));
#1890=CARTESIAN_POINT('',(-0.1555,0.04,0.410450115781006));
#1891=CARTESIAN_POINT('',(-0.1555,0.0225,0.427751331021874));
#1892=CARTESIAN_POINT('',(-0.1555,0.0391972874362204,0.42107798704169));
#1893=CARTESIAN_POINT('',(-0.1555,0.0391972874362204,0.42217798704169));
#1894=CARTESIAN_POINT('',(-0.1555,0.0391972874362204,0.41407798704169));
#1895=CARTESIAN_POINT('',(-0.1555,0.0391972874362204,0.41517798704169));
#1896=CARTESIAN_POINT('',(-0.1505,0.0391972874362204,0.41407798704169));
#1897=CARTESIAN_POINT('',(-0.1505,0.0391972874362204,0.41407798704169));
#1898=CARTESIAN_POINT('',(-0.1505,0.0391972874362204,0.41517798704169));
#1899=CARTESIAN_POINT('',(-0.1505,0.0247708998744587,0.417450115781006));
#1900=CARTESIAN_POINT('',(-0.1505,0.0391972874362204,0.42107798704169));
#1901=CARTESIAN_POINT('',(-0.1505,0.0391972874362204,0.42107798704169));
#1902=CARTESIAN_POINT('',(-0.1505,0.0391972874362204,0.42217798704169));
#1903=CARTESIAN_POINT('',(-0.1505,0.0247708998744587,0.417450115781006));
#1904=CARTESIAN_POINT('',(-0.1505,0.00564179974891707,0.420922398269822));
#1905=CARTESIAN_POINT('',(-0.1505,0.00564179974891707,0.420922398269822));
#1906=CARTESIAN_POINT('',(-0.1505,0.00564179974891707,0.422022398269822));
#1907=CARTESIAN_POINT('',(-0.1505,0.0247708998744587,0.417450115781006));
#1908=CARTESIAN_POINT('',(-0.1505,0.00564179974891707,0.413922398269823));
#1909=CARTESIAN_POINT('',(-0.1505,0.00564179974891707,0.413922398269823));
#1910=CARTESIAN_POINT('',(-0.1505,0.00564179974891707,0.415022398269823));
#1911=CARTESIAN_POINT('',(-0.1505,0.0247708998744587,0.417450115781006));
#1912=CARTESIAN_POINT('',(-0.1595,0.005,0.424450115781006));
#1913=CARTESIAN_POINT('',(-0.157166666666667,0.00766666666666667,0.422116782447673));
#1914=CARTESIAN_POINT('',(-0.1595,0.01,0.417450115781006));
#1915=CARTESIAN_POINT('',(-0.173166666666666,0.0236666666666666,0.396783449114339));
#1916=CARTESIAN_POINT('',(-0.1625,0.045,0.407450115781006));
#1917=CARTESIAN_POINT('',(-0.1625,0.045,0.427450115781006));
#1918=CARTESIAN_POINT('',(-0.153367476827245,0.0411325231727553,0.418317592608251));
#1919=CARTESIAN_POINT('',(-0.1625,0.032,0.400052546262741));
#1920=CARTESIAN_POINT('',(-0.157833333333333,0.0366666666666669,0.412116782447673));
#1921=CARTESIAN_POINT('',(-0.1595,0.04,0.410450115781006));
#1922=CARTESIAN_POINT('',(-0.1285,0.035,0.430450115781006));
#1923=CARTESIAN_POINT('',(-0.1285,0.035,0.430450115781006));
#1924=CARTESIAN_POINT('',(-0.1285,0.0375,0.430450115781006));
#1925=CARTESIAN_POINT('',(0.00291052692156562,0.0225,0.430450115781006));
#1926=CARTESIAN_POINT('',(-0.000898585978294952,0.0225,0.410450115781006));
#1927=CARTESIAN_POINT('',(-0.1285,0.03,0.410450115781006));
#1928=CARTESIAN_POINT('',(-0.1345,0.03,0.410450115781006));
#1929=CARTESIAN_POINT('',(-0.1345,0.0375,0.410450115781006));
#1930=CARTESIAN_POINT('',(-0.1285,0.03,0.410450115781006));
#1931=CARTESIAN_POINT('',(-0.1345,0.03,0.410450115781006));
#1932=CARTESIAN_POINT('',(-0.1345,0.0375,0.410450115781006));
#1933=CARTESIAN_POINT('',(-0.16,0.0225,0.421501331021873));
#1934=CARTESIAN_POINT('',(-0.16,0.0175,0.400450115781006));
#1935=CARTESIAN_POINT('',(-0.16,0.0175,0.412950115781006));
#1936=CARTESIAN_POINT('',(-0.16,0.0225,0.412950115781006));
#1937=CARTESIAN_POINT('',(-0.16,0.0275,0.412950115781006));
#1938=CARTESIAN_POINT('',(-0.16,0.0275,0.400450115781006));
#1939=CARTESIAN_POINT('',(-0.16,0.0175,0.400450115781006));
#1940=CARTESIAN_POINT('',(-0.16,0.0175,0.412950115781006));
#1941=CARTESIAN_POINT('',(-0.16,0.0225,0.412950115781006));
#1942=CARTESIAN_POINT('',(-0.16,0.0275,0.412950115781006));
#1943=CARTESIAN_POINT('',(-0.16,0.0275,0.400450115781006));
#1944=CARTESIAN_POINT('',(-0.126,0.0225,0.422751331021874));
#1945=CARTESIAN_POINT('',(-0.126,0.024,0.405450115781006));
#1946=CARTESIAN_POINT('',(-0.126,0.024,0.403850115781006));
#1947=CARTESIAN_POINT('',(-0.126,0.028,0.400450115781006));
#1948=CARTESIAN_POINT('',(-0.126,0.028,0.410450115781006));
#1949=CARTESIAN_POINT('',(-0.126,0.024,0.410450115781006));
#1950=CARTESIAN_POINT('',(-0.126,0.02,0.410450115781006));
#1951=CARTESIAN_POINT('',(-0.126,0.02,0.400450115781006));
#1952=CARTESIAN_POINT('',(-0.126,0.028,0.400450115781006));
#1953=CARTESIAN_POINT('',(-0.126,0.028,0.410450115781006));
#1954=CARTESIAN_POINT('',(-0.126,0.024,0.410450115781006));
#1955=CARTESIAN_POINT('',(-0.126,0.02,0.410450115781006));
#1956=CARTESIAN_POINT('',(-0.126,0.02,0.400450115781006));
#1957=CARTESIAN_POINT('',(-0.1295,0.024,0.405450115781006));
#1958=CARTESIAN_POINT('',(-0.1295,0.024,0.405450115781006));
#1959=CARTESIAN_POINT('',(-0.1295,0.024,0.403850115781006));
#1960=CARTESIAN_POINT('',(-0.1295,0.024,0.402150115781006));
#1961=MECHANICAL_DESIGN_GEOMETRIC_PRESENTATION_REPRESENTATION('',(#1206),
#1962);
#1962=(
GEOMETRIC_REPRESENTATION_CONTEXT(3)
GLOBAL_UNCERTAINTY_ASSIGNED_CONTEXT((#1963))
GLOBAL_UNIT_ASSIGNED_CONTEXT((#1966,#1965,#1964))
REPRESENTATION_CONTEXT('XY2_TOP','TOP_LEVEL_ASSEMBLY_PART')
);
#1963=UNCERTAINTY_MEASURE_WITH_UNIT(LENGTH_MEASURE(1.E-8),#1966,
'DISTANCE_ACCURACY_VALUE','Maximum Tolerance applied to model');
#1964=(
NAMED_UNIT(*)
SI_UNIT($,.STERADIAN.)
SOLID_ANGLE_UNIT()
);
#1965=(
NAMED_UNIT(*)
PLANE_ANGLE_UNIT()
SI_UNIT($,.RADIAN.)
);
#1966=(
LENGTH_UNIT()
NAMED_UNIT(*)
SI_UNIT($,.METRE.)
);
#1967=PRODUCT_DEFINITION_SHAPE('','',#1968);
#1968=PRODUCT_DEFINITION('','',#1970,#1969);
#1969=PRODUCT_DEFINITION_CONTEXT('',#1976,'design');
#1970=PRODUCT_DEFINITION_FORMATION_WITH_SPECIFIED_SOURCE('','',#1972,
 .NOT_KNOWN.);
#1971=PRODUCT_RELATED_PRODUCT_CATEGORY('','',(#1972));
#1972=PRODUCT('XY2_TOP','XY2_TOP','XY2_TOP',(#1974));
#1973=PRODUCT_CATEGORY('','');
#1974=PRODUCT_CONTEXT('',#1976,'mechanical');
#1975=APPLICATION_PROTOCOL_DEFINITION('international standard',
'ap242_managed_model_based_3d_engineering',2020,#1976);
#1976=APPLICATION_CONTEXT('managed model based 3d engineering');
ENDSEC;
END-ISO-10303-21;
