ISO-10303-21;
HEADER;
/* Generated by software containing ST-Developer
 * from STEP Tools, Inc. (www.steptools.com) 
 */
/* OPTION: using custom renumber hook */

FILE_DESCRIPTION(
/* description */ ('STEP AP242 Edition 2',
'CAx-IF Rec.Pracs.---Representation and Presentation of Product Manufa
cturing Information (PMI)---4.0---2014-10-13',
'CAx-IF Rec.Pracs.---3D Tessellated Geometry---0.4---2014-09-14','2;1',
'CAx-IF Rec.Pracs.---User Defined Attributes---1.5---2016-08-15'),
/* implementation_level */ '2;1');

FILE_NAME(
/* name */ 'NOT-618 - TFR-Rod Mount',
/* time_stamp */ '2026-07-26T08:51:50Z',
/* author */ (''),
/* organization */ (''),
/* preprocessor_version */ 'ST-DEVELOPER v20',
/* originating_system */ 'ONSHAPE BY PTC INC, 1.218',
/* authorisation */ '  ');

FILE_SCHEMA (('AP242_MANAGED_MODEL_BASED_3D_ENGINEERING_MIM_LF { 1 0 10303 442 3 1 4 }'));
ENDSEC;

DATA;
#10=SHAPE_REPRESENTATION_RELATIONSHIP('','',#897,#11);
#11=ADVANCED_BREP_SHAPE_REPRESENTATION('',(#895),#1438);
#12=CONICAL_SURFACE('',#928,0.0045,0.785398163397448);
#13=CONICAL_SURFACE('',#929,0.0045,0.785398163397448);
#14=CONICAL_SURFACE('',#930,0.0025,0.785398163397457);
#15=CYLINDRICAL_SURFACE('',#913,0.0025);
#16=CYLINDRICAL_SURFACE('',#924,0.0025);
#17=CYLINDRICAL_SURFACE('',#926,0.0025);
#18=CYLINDRICAL_SURFACE('',#959,0.0025);
#19=CYLINDRICAL_SURFACE('',#960,0.0025);
#20=CYLINDRICAL_SURFACE('',#961,0.0095);
#21=CIRCLE('',#903,0.00450000000000006);
#22=CIRCLE('',#904,0.00450000000000006);
#23=CIRCLE('',#905,0.0095);
#24=CIRCLE('',#907,0.0025);
#25=CIRCLE('',#910,0.0055);
#26=CIRCLE('',#914,0.0025);
#27=CIRCLE('',#916,0.0025);
#28=CIRCLE('',#917,0.0025);
#29=CIRCLE('',#925,0.0025);
#30=CIRCLE('',#927,0.0025);
#31=CIRCLE('',#942,0.0025);
#32=CIRCLE('',#946,0.0025);
#33=CIRCLE('',#950,0.0025);
#34=CIRCLE('',#953,0.0025);
#35=CIRCLE('',#962,0.0095);
#36=ORIENTED_EDGE('',*,*,#264,.T.);
#37=ORIENTED_EDGE('',*,*,#265,.T.);
#38=ORIENTED_EDGE('',*,*,#266,.F.);
#39=ORIENTED_EDGE('',*,*,#267,.F.);
#40=ORIENTED_EDGE('',*,*,#268,.F.);
#41=ORIENTED_EDGE('',*,*,#269,.F.);
#42=ORIENTED_EDGE('',*,*,#270,.T.);
#43=ORIENTED_EDGE('',*,*,#271,.T.);
#44=ORIENTED_EDGE('',*,*,#266,.T.);
#45=ORIENTED_EDGE('',*,*,#272,.T.);
#46=ORIENTED_EDGE('',*,*,#271,.F.);
#47=ORIENTED_EDGE('',*,*,#273,.F.);
#48=ORIENTED_EDGE('',*,*,#274,.T.);
#49=ORIENTED_EDGE('',*,*,#275,.T.);
#50=ORIENTED_EDGE('',*,*,#276,.T.);
#51=ORIENTED_EDGE('',*,*,#277,.T.);
#52=ORIENTED_EDGE('',*,*,#278,.F.);
#53=ORIENTED_EDGE('',*,*,#279,.T.);
#54=ORIENTED_EDGE('',*,*,#280,.T.);
#55=ORIENTED_EDGE('',*,*,#281,.T.);
#56=ORIENTED_EDGE('',*,*,#282,.T.);
#57=ORIENTED_EDGE('',*,*,#283,.T.);
#58=ORIENTED_EDGE('',*,*,#269,.T.);
#59=ORIENTED_EDGE('',*,*,#284,.T.);
#60=ORIENTED_EDGE('',*,*,#285,.F.);
#61=ORIENTED_EDGE('',*,*,#286,.F.);
#62=ORIENTED_EDGE('',*,*,#264,.F.);
#63=ORIENTED_EDGE('',*,*,#287,.F.);
#64=ORIENTED_EDGE('',*,*,#288,.T.);
#65=ORIENTED_EDGE('',*,*,#289,.T.);
#66=ORIENTED_EDGE('',*,*,#290,.T.);
#67=ORIENTED_EDGE('',*,*,#291,.T.);
#68=ORIENTED_EDGE('',*,*,#292,.F.);
#69=ORIENTED_EDGE('',*,*,#293,.F.);
#70=ORIENTED_EDGE('',*,*,#294,.T.);
#71=ORIENTED_EDGE('',*,*,#295,.T.);
#72=ORIENTED_EDGE('',*,*,#296,.T.);
#73=ORIENTED_EDGE('',*,*,#297,.T.);
#74=ORIENTED_EDGE('',*,*,#294,.F.);
#75=ORIENTED_EDGE('',*,*,#298,.F.);
#76=ORIENTED_EDGE('',*,*,#299,.T.);
#77=ORIENTED_EDGE('',*,*,#300,.T.);
#78=ORIENTED_EDGE('',*,*,#301,.T.);
#79=ORIENTED_EDGE('',*,*,#302,.T.);
#80=ORIENTED_EDGE('',*,*,#303,.T.);
#81=ORIENTED_EDGE('',*,*,#304,.T.);
#82=ORIENTED_EDGE('',*,*,#305,.T.);
#83=ORIENTED_EDGE('',*,*,#306,.T.);
#84=ORIENTED_EDGE('',*,*,#292,.T.);
#85=ORIENTED_EDGE('',*,*,#307,.T.);
#86=ORIENTED_EDGE('',*,*,#308,.T.);
#87=ORIENTED_EDGE('',*,*,#309,.T.);
#88=ORIENTED_EDGE('',*,*,#310,.F.);
#89=ORIENTED_EDGE('',*,*,#311,.T.);
#90=ORIENTED_EDGE('',*,*,#312,.T.);
#91=ORIENTED_EDGE('',*,*,#313,.T.);
#92=ORIENTED_EDGE('',*,*,#314,.T.);
#93=ORIENTED_EDGE('',*,*,#290,.F.);
#94=ORIENTED_EDGE('',*,*,#315,.T.);
#95=ORIENTED_EDGE('',*,*,#316,.T.);
#96=ORIENTED_EDGE('',*,*,#289,.F.);
#97=ORIENTED_EDGE('',*,*,#317,.T.);
#98=ORIENTED_EDGE('',*,*,#318,.T.);
#99=ORIENTED_EDGE('',*,*,#319,.F.);
#100=ORIENTED_EDGE('',*,*,#320,.T.);
#101=ORIENTED_EDGE('',*,*,#298,.T.);
#102=ORIENTED_EDGE('',*,*,#293,.T.);
#103=ORIENTED_EDGE('',*,*,#312,.F.);
#104=ORIENTED_EDGE('',*,*,#321,.T.);
#105=ORIENTED_EDGE('',*,*,#274,.F.);
#106=ORIENTED_EDGE('',*,*,#322,.T.);
#107=ORIENTED_EDGE('',*,*,#323,.T.);
#108=ORIENTED_EDGE('',*,*,#310,.T.);
#109=ORIENTED_EDGE('',*,*,#309,.F.);
#110=ORIENTED_EDGE('',*,*,#324,.F.);
#111=ORIENTED_EDGE('',*,*,#275,.F.);
#112=ORIENTED_EDGE('',*,*,#300,.F.);
#113=ORIENTED_EDGE('',*,*,#325,.T.);
#114=ORIENTED_EDGE('',*,*,#326,.T.);
#115=ORIENTED_EDGE('',*,*,#278,.T.);
#116=ORIENTED_EDGE('',*,*,#277,.F.);
#117=ORIENTED_EDGE('',*,*,#327,.F.);
#118=ORIENTED_EDGE('',*,*,#301,.F.);
#119=ORIENTED_EDGE('',*,*,#328,.T.);
#120=ORIENTED_EDGE('',*,*,#329,.T.);
#121=ORIENTED_EDGE('',*,*,#319,.T.);
#122=ORIENTED_EDGE('',*,*,#330,.T.);
#123=ORIENTED_EDGE('',*,*,#311,.F.);
#124=ORIENTED_EDGE('',*,*,#323,.F.);
#125=ORIENTED_EDGE('',*,*,#331,.F.);
#126=ORIENTED_EDGE('',*,*,#330,.F.);
#127=ORIENTED_EDGE('',*,*,#321,.F.);
#128=ORIENTED_EDGE('',*,*,#279,.F.);
#129=ORIENTED_EDGE('',*,*,#326,.F.);
#130=ORIENTED_EDGE('',*,*,#332,.F.);
#131=ORIENTED_EDGE('',*,*,#328,.F.);
#132=ORIENTED_EDGE('',*,*,#331,.T.);
#133=ORIENTED_EDGE('',*,*,#322,.F.);
#134=ORIENTED_EDGE('',*,*,#325,.F.);
#135=ORIENTED_EDGE('',*,*,#299,.F.);
#136=ORIENTED_EDGE('',*,*,#320,.F.);
#137=ORIENTED_EDGE('',*,*,#329,.F.);
#138=ORIENTED_EDGE('',*,*,#332,.T.);
#139=ORIENTED_EDGE('',*,*,#333,.T.);
#140=ORIENTED_EDGE('',*,*,#318,.F.);
#141=ORIENTED_EDGE('',*,*,#334,.T.);
#142=ORIENTED_EDGE('',*,*,#317,.F.);
#143=ORIENTED_EDGE('',*,*,#333,.F.);
#144=ORIENTED_EDGE('',*,*,#281,.F.);
#145=ORIENTED_EDGE('',*,*,#334,.F.);
#146=ORIENTED_EDGE('',*,*,#280,.F.);
#147=ORIENTED_EDGE('',*,*,#302,.F.);
#148=ORIENTED_EDGE('',*,*,#316,.F.);
#149=ORIENTED_EDGE('',*,*,#335,.F.);
#150=ORIENTED_EDGE('',*,*,#296,.F.);
#151=ORIENTED_EDGE('',*,*,#336,.F.);
#152=ORIENTED_EDGE('',*,*,#305,.F.);
#153=ORIENTED_EDGE('',*,*,#295,.F.);
#154=ORIENTED_EDGE('',*,*,#297,.F.);
#155=ORIENTED_EDGE('',*,*,#337,.F.);
#156=ORIENTED_EDGE('',*,*,#315,.F.);
#157=ORIENTED_EDGE('',*,*,#336,.T.);
#158=ORIENTED_EDGE('',*,*,#327,.T.);
#159=ORIENTED_EDGE('',*,*,#338,.F.);
#160=ORIENTED_EDGE('',*,*,#337,.T.);
#161=ORIENTED_EDGE('',*,*,#335,.T.);
#162=ORIENTED_EDGE('',*,*,#339,.F.);
#163=ORIENTED_EDGE('',*,*,#338,.T.);
#164=ORIENTED_EDGE('',*,*,#276,.F.);
#165=ORIENTED_EDGE('',*,*,#340,.F.);
#166=ORIENTED_EDGE('',*,*,#306,.F.);
#167=ORIENTED_EDGE('',*,*,#339,.T.);
#168=ORIENTED_EDGE('',*,*,#304,.F.);
#169=ORIENTED_EDGE('',*,*,#341,.F.);
#170=ORIENTED_EDGE('',*,*,#313,.F.);
#171=ORIENTED_EDGE('',*,*,#291,.F.);
#172=ORIENTED_EDGE('',*,*,#314,.F.);
#173=ORIENTED_EDGE('',*,*,#342,.F.);
#174=ORIENTED_EDGE('',*,*,#307,.F.);
#175=ORIENTED_EDGE('',*,*,#340,.T.);
#176=ORIENTED_EDGE('',*,*,#324,.T.);
#177=ORIENTED_EDGE('',*,*,#343,.F.);
#178=ORIENTED_EDGE('',*,*,#342,.T.);
#179=ORIENTED_EDGE('',*,*,#341,.T.);
#180=ORIENTED_EDGE('',*,*,#344,.F.);
#181=ORIENTED_EDGE('',*,*,#343,.T.);
#182=ORIENTED_EDGE('',*,*,#308,.F.);
#183=ORIENTED_EDGE('',*,*,#344,.T.);
#184=ORIENTED_EDGE('',*,*,#303,.F.);
#185=ORIENTED_EDGE('',*,*,#345,.F.);
#186=ORIENTED_EDGE('',*,*,#346,.T.);
#187=ORIENTED_EDGE('',*,*,#347,.T.);
#188=ORIENTED_EDGE('',*,*,#348,.T.);
#189=ORIENTED_EDGE('',*,*,#282,.F.);
#190=ORIENTED_EDGE('',*,*,#349,.F.);
#191=ORIENTED_EDGE('',*,*,#350,.T.);
#192=ORIENTED_EDGE('',*,*,#351,.F.);
#193=ORIENTED_EDGE('',*,*,#352,.T.);
#194=ORIENTED_EDGE('',*,*,#349,.T.);
#195=ORIENTED_EDGE('',*,*,#287,.T.);
#196=ORIENTED_EDGE('',*,*,#348,.F.);
#197=ORIENTED_EDGE('',*,*,#353,.T.);
#198=ORIENTED_EDGE('',*,*,#354,.T.);
#199=ORIENTED_EDGE('',*,*,#283,.F.);
#200=ORIENTED_EDGE('',*,*,#355,.T.);
#201=ORIENTED_EDGE('',*,*,#354,.F.);
#202=ORIENTED_EDGE('',*,*,#356,.T.);
#203=ORIENTED_EDGE('',*,*,#357,.F.);
#204=ORIENTED_EDGE('',*,*,#358,.T.);
#205=ORIENTED_EDGE('',*,*,#351,.T.);
#206=ORIENTED_EDGE('',*,*,#267,.T.);
#207=ORIENTED_EDGE('',*,*,#273,.T.);
#208=ORIENTED_EDGE('',*,*,#270,.F.);
#209=ORIENTED_EDGE('',*,*,#357,.T.);
#210=ORIENTED_EDGE('',*,*,#359,.T.);
#211=ORIENTED_EDGE('',*,*,#346,.F.);
#212=ORIENTED_EDGE('',*,*,#360,.T.);
#213=ORIENTED_EDGE('',*,*,#361,.F.);
#214=ORIENTED_EDGE('',*,*,#362,.T.);
#215=ORIENTED_EDGE('',*,*,#363,.T.);
#216=ORIENTED_EDGE('',*,*,#286,.T.);
#217=ORIENTED_EDGE('',*,*,#364,.T.);
#218=ORIENTED_EDGE('',*,*,#365,.F.);
#219=ORIENTED_EDGE('',*,*,#366,.T.);
#220=ORIENTED_EDGE('',*,*,#367,.F.);
#221=ORIENTED_EDGE('',*,*,#368,.T.);
#222=ORIENTED_EDGE('',*,*,#361,.T.);
#223=ORIENTED_EDGE('',*,*,#285,.T.);
#224=ORIENTED_EDGE('',*,*,#369,.F.);
#225=ORIENTED_EDGE('',*,*,#370,.T.);
#226=ORIENTED_EDGE('',*,*,#365,.T.);
#227=ORIENTED_EDGE('',*,*,#284,.F.);
#228=ORIENTED_EDGE('',*,*,#371,.F.);
#229=ORIENTED_EDGE('',*,*,#372,.T.);
#230=ORIENTED_EDGE('',*,*,#373,.T.);
#231=ORIENTED_EDGE('',*,*,#369,.T.);
#232=ORIENTED_EDGE('',*,*,#268,.T.);
#233=ORIENTED_EDGE('',*,*,#272,.F.);
#234=ORIENTED_EDGE('',*,*,#265,.F.);
#235=ORIENTED_EDGE('',*,*,#363,.F.);
#236=ORIENTED_EDGE('',*,*,#374,.T.);
#237=ORIENTED_EDGE('',*,*,#367,.T.);
#238=ORIENTED_EDGE('',*,*,#375,.T.);
#239=ORIENTED_EDGE('',*,*,#372,.F.);
#240=ORIENTED_EDGE('',*,*,#376,.T.);
#241=ORIENTED_EDGE('',*,*,#347,.F.);
#242=ORIENTED_EDGE('',*,*,#359,.F.);
#243=ORIENTED_EDGE('',*,*,#356,.F.);
#244=ORIENTED_EDGE('',*,*,#353,.F.);
#245=ORIENTED_EDGE('',*,*,#350,.F.);
#246=ORIENTED_EDGE('',*,*,#352,.F.);
#247=ORIENTED_EDGE('',*,*,#358,.F.);
#248=ORIENTED_EDGE('',*,*,#360,.F.);
#249=ORIENTED_EDGE('',*,*,#366,.F.);
#250=ORIENTED_EDGE('',*,*,#370,.F.);
#251=ORIENTED_EDGE('',*,*,#373,.F.);
#252=ORIENTED_EDGE('',*,*,#375,.F.);
#253=ORIENTED_EDGE('',*,*,#368,.F.);
#254=ORIENTED_EDGE('',*,*,#376,.F.);
#255=ORIENTED_EDGE('',*,*,#374,.F.);
#256=ORIENTED_EDGE('',*,*,#362,.F.);
#257=ORIENTED_EDGE('',*,*,#371,.T.);
#258=ORIENTED_EDGE('',*,*,#364,.F.);
#259=ORIENTED_EDGE('',*,*,#345,.T.);
#260=ORIENTED_EDGE('',*,*,#355,.F.);
#261=ORIENTED_EDGE('',*,*,#288,.F.);
#262=ORIENTED_EDGE('',*,*,#377,.F.);
#263=ORIENTED_EDGE('',*,*,#377,.T.);
#264=EDGE_CURVE('',#378,#379,#455,.T.);
#265=EDGE_CURVE('',#379,#380,#456,.T.);
#266=EDGE_CURVE('',#381,#380,#457,.T.);
#267=EDGE_CURVE('',#378,#381,#458,.T.);
#268=EDGE_CURVE('',#382,#383,#459,.T.);
#269=EDGE_CURVE('',#384,#382,#460,.T.);
#270=EDGE_CURVE('',#384,#385,#461,.T.);
#271=EDGE_CURVE('',#385,#383,#462,.T.);
#272=EDGE_CURVE('',#380,#383,#463,.T.);
#273=EDGE_CURVE('',#381,#385,#464,.T.);
#274=EDGE_CURVE('',#386,#387,#465,.T.);
#275=EDGE_CURVE('',#387,#388,#466,.T.);
#276=EDGE_CURVE('',#388,#389,#467,.T.);
#277=EDGE_CURVE('',#389,#390,#468,.T.);
#278=EDGE_CURVE('',#391,#390,#469,.T.);
#279=EDGE_CURVE('',#391,#386,#470,.T.);
#280=EDGE_CURVE('',#392,#392,#21,.T.);
#281=EDGE_CURVE('',#393,#393,#22,.T.);
#282=EDGE_CURVE('',#394,#395,#471,.T.);
#283=EDGE_CURVE('',#395,#384,#472,.T.);
#284=EDGE_CURVE('',#382,#396,#473,.T.);
#285=EDGE_CURVE('',#397,#396,#474,.T.);
#286=EDGE_CURVE('',#379,#397,#475,.T.);
#287=EDGE_CURVE('',#394,#378,#476,.T.);
#288=EDGE_CURVE('',#398,#398,#23,.T.);
#289=EDGE_CURVE('',#399,#399,#24,.T.);
#290=EDGE_CURVE('',#400,#401,#477,.T.);
#291=EDGE_CURVE('',#401,#402,#478,.F.);
#292=EDGE_CURVE('',#403,#402,#479,.T.);
#293=EDGE_CURVE('',#404,#403,#480,.T.);
#294=EDGE_CURVE('',#404,#405,#481,.T.);
#295=EDGE_CURVE('',#405,#400,#482,.T.);
#296=EDGE_CURVE('',#406,#407,#483,.T.);
#297=EDGE_CURVE('',#407,#405,#484,.T.);
#298=EDGE_CURVE('',#408,#404,#485,.T.);
#299=EDGE_CURVE('',#408,#409,#486,.T.);
#300=EDGE_CURVE('',#409,#410,#487,.T.);
#301=EDGE_CURVE('',#410,#406,#488,.T.);
#302=EDGE_CURVE('',#411,#411,#25,.F.);
#303=EDGE_CURVE('',#412,#413,#489,.T.);
#304=EDGE_CURVE('',#413,#414,#490,.T.);
#305=EDGE_CURVE('',#414,#415,#491,.T.);
#306=EDGE_CURVE('',#415,#412,#492,.T.);
#307=EDGE_CURVE('',#402,#416,#493,.T.);
#308=EDGE_CURVE('',#416,#417,#494,.T.);
#309=EDGE_CURVE('',#417,#418,#495,.T.);
#310=EDGE_CURVE('',#419,#418,#496,.T.);
#311=EDGE_CURVE('',#419,#420,#497,.T.);
#312=EDGE_CURVE('',#420,#403,#498,.T.);
#313=EDGE_CURVE('',#421,#422,#499,.T.);
#314=EDGE_CURVE('',#422,#401,#500,.T.);
#315=EDGE_CURVE('',#400,#421,#501,.T.);
#316=EDGE_CURVE('',#423,#423,#26,.T.);
#317=EDGE_CURVE('',#424,#424,#27,.T.);
#318=EDGE_CURVE('',#425,#425,#28,.T.);
#319=EDGE_CURVE('',#426,#427,#502,.T.);
#320=EDGE_CURVE('',#426,#408,#503,.T.);
#321=EDGE_CURVE('',#420,#427,#504,.T.);
#322=EDGE_CURVE('',#386,#428,#505,.T.);
#323=EDGE_CURVE('',#428,#419,#506,.T.);
#324=EDGE_CURVE('',#388,#417,#507,.T.);
#325=EDGE_CURVE('',#409,#429,#508,.T.);
#326=EDGE_CURVE('',#429,#391,#509,.T.);
#327=EDGE_CURVE('',#406,#389,#510,.F.);
#328=EDGE_CURVE('',#430,#431,#511,.T.);
#329=EDGE_CURVE('',#431,#426,#512,.T.);
#330=EDGE_CURVE('',#427,#430,#513,.T.);
#331=EDGE_CURVE('',#430,#428,#514,.T.);
#332=EDGE_CURVE('',#431,#429,#515,.T.);
#333=EDGE_CURVE('',#432,#432,#29,.F.);
#334=EDGE_CURVE('',#433,#433,#30,.F.);
#335=EDGE_CURVE('',#407,#414,#516,.T.);
#336=EDGE_CURVE('',#415,#406,#517,.T.);
#337=EDGE_CURVE('',#421,#407,#518,.T.);
#338=EDGE_CURVE('',#415,#389,#519,.F.);
#339=EDGE_CURVE('',#421,#414,#520,.T.);
#340=EDGE_CURVE('',#412,#388,#521,.T.);
#341=EDGE_CURVE('',#422,#413,#522,.F.);
#342=EDGE_CURVE('',#416,#422,#523,.F.);
#343=EDGE_CURVE('',#412,#417,#524,.T.);
#344=EDGE_CURVE('',#416,#413,#525,.T.);
#345=EDGE_CURVE('',#434,#434,#31,.T.);
#346=EDGE_CURVE('',#435,#436,#526,.T.);
#347=EDGE_CURVE('',#436,#437,#527,.F.);
#348=EDGE_CURVE('',#437,#395,#528,.T.);
#349=EDGE_CURVE('',#438,#394,#529,.T.);
#350=EDGE_CURVE('',#438,#435,#530,.T.);
#351=EDGE_CURVE('',#439,#378,#531,.T.);
#352=EDGE_CURVE('',#439,#438,#532,.T.);
#353=EDGE_CURVE('',#437,#440,#533,.T.);
#354=EDGE_CURVE('',#440,#384,#534,.T.);
#355=EDGE_CURVE('',#441,#441,#32,.T.);
#356=EDGE_CURVE('',#440,#442,#535,.F.);
#357=EDGE_CURVE('',#443,#442,#536,.T.);
#358=EDGE_CURVE('',#443,#439,#537,.T.);
#359=EDGE_CURVE('',#442,#436,#538,.T.);
#360=EDGE_CURVE('',#435,#443,#539,.T.);
#361=EDGE_CURVE('',#444,#397,#540,.T.);
#362=EDGE_CURVE('',#444,#445,#541,.T.);
#363=EDGE_CURVE('',#445,#379,#542,.T.);
#364=EDGE_CURVE('',#446,#446,#33,.T.);
#365=EDGE_CURVE('',#447,#396,#543,.T.);
#366=EDGE_CURVE('',#447,#448,#544,.T.);
#367=EDGE_CURVE('',#449,#448,#545,.T.);
#368=EDGE_CURVE('',#449,#444,#546,.F.);
#369=EDGE_CURVE('',#450,#382,#547,.T.);
#370=EDGE_CURVE('',#450,#447,#548,.T.);
#371=EDGE_CURVE('',#451,#451,#34,.T.);
#372=EDGE_CURVE('',#452,#453,#549,.T.);
#373=EDGE_CURVE('',#453,#450,#550,.T.);
#374=EDGE_CURVE('',#445,#452,#551,.F.);
#375=EDGE_CURVE('',#448,#453,#552,.T.);
#376=EDGE_CURVE('',#452,#449,#553,.T.);
#377=EDGE_CURVE('',#454,#454,#35,.T.);
#378=VERTEX_POINT('',#1198);
#379=VERTEX_POINT('',#1199);
#380=VERTEX_POINT('',#1201);
#381=VERTEX_POINT('',#1203);
#382=VERTEX_POINT('',#1207);
#383=VERTEX_POINT('',#1208);
#384=VERTEX_POINT('',#1210);
#385=VERTEX_POINT('',#1212);
#386=VERTEX_POINT('',#1219);
#387=VERTEX_POINT('',#1220);
#388=VERTEX_POINT('',#1222);
#389=VERTEX_POINT('',#1224);
#390=VERTEX_POINT('',#1226);
#391=VERTEX_POINT('',#1228);
#392=VERTEX_POINT('',#1231);
#393=VERTEX_POINT('',#1233);
#394=VERTEX_POINT('',#1235);
#395=VERTEX_POINT('',#1236);
#396=VERTEX_POINT('',#1239);
#397=VERTEX_POINT('',#1241);
#398=VERTEX_POINT('',#1245);
#399=VERTEX_POINT('',#1248);
#400=VERTEX_POINT('',#1250);
#401=VERTEX_POINT('',#1251);
#402=VERTEX_POINT('',#1253);
#403=VERTEX_POINT('',#1255);
#404=VERTEX_POINT('',#1257);
#405=VERTEX_POINT('',#1259);
#406=VERTEX_POINT('',#1263);
#407=VERTEX_POINT('',#1264);
#408=VERTEX_POINT('',#1267);
#409=VERTEX_POINT('',#1269);
#410=VERTEX_POINT('',#1271);
#411=VERTEX_POINT('',#1275);
#412=VERTEX_POINT('',#1277);
#413=VERTEX_POINT('',#1278);
#414=VERTEX_POINT('',#1280);
#415=VERTEX_POINT('',#1282);
#416=VERTEX_POINT('',#1286);
#417=VERTEX_POINT('',#1288);
#418=VERTEX_POINT('',#1290);
#419=VERTEX_POINT('',#1292);
#420=VERTEX_POINT('',#1294);
#421=VERTEX_POINT('',#1298);
#422=VERTEX_POINT('',#1299);
#423=VERTEX_POINT('',#1304);
#424=VERTEX_POINT('',#1307);
#425=VERTEX_POINT('',#1309);
#426=VERTEX_POINT('',#1311);
#427=VERTEX_POINT('',#1312);
#428=VERTEX_POINT('',#1317);
#429=VERTEX_POINT('',#1322);
#430=VERTEX_POINT('',#1327);
#431=VERTEX_POINT('',#1328);
#432=VERTEX_POINT('',#1338);
#433=VERTEX_POINT('',#1341);
#434=VERTEX_POINT('',#1367);
#435=VERTEX_POINT('',#1369);
#436=VERTEX_POINT('',#1370);
#437=VERTEX_POINT('',#1372);
#438=VERTEX_POINT('',#1375);
#439=VERTEX_POINT('',#1379);
#440=VERTEX_POINT('',#1383);
#441=VERTEX_POINT('',#1387);
#442=VERTEX_POINT('',#1389);
#443=VERTEX_POINT('',#1391);
#444=VERTEX_POINT('',#1398);
#445=VERTEX_POINT('',#1400);
#446=VERTEX_POINT('',#1404);
#447=VERTEX_POINT('',#1406);
#448=VERTEX_POINT('',#1408);
#449=VERTEX_POINT('',#1410);
#450=VERTEX_POINT('',#1414);
#451=VERTEX_POINT('',#1418);
#452=VERTEX_POINT('',#1420);
#453=VERTEX_POINT('',#1421);
#454=VERTEX_POINT('',#1435);
#455=LINE('',#1197,#554);
#456=LINE('',#1200,#555);
#457=LINE('',#1202,#556);
#458=LINE('',#1204,#557);
#459=LINE('',#1206,#558);
#460=LINE('',#1209,#559);
#461=LINE('',#1211,#560);
#462=LINE('',#1213,#561);
#463=LINE('',#1215,#562);
#464=LINE('',#1216,#563);
#465=LINE('',#1218,#564);
#466=LINE('',#1221,#565);
#467=LINE('',#1223,#566);
#468=LINE('',#1225,#567);
#469=LINE('',#1227,#568);
#470=LINE('',#1229,#569);
#471=LINE('',#1234,#570);
#472=LINE('',#1237,#571);
#473=LINE('',#1238,#572);
#474=LINE('',#1240,#573);
#475=LINE('',#1242,#574);
#476=LINE('',#1243,#575);
#477=LINE('',#1249,#576);
#478=LINE('',#1252,#577);
#479=LINE('',#1254,#578);
#480=LINE('',#1256,#579);
#481=LINE('',#1258,#580);
#482=LINE('',#1260,#581);
#483=LINE('',#1262,#582);
#484=LINE('',#1265,#583);
#485=LINE('',#1266,#584);
#486=LINE('',#1268,#585);
#487=LINE('',#1270,#586);
#488=LINE('',#1272,#587);
#489=LINE('',#1276,#588);
#490=LINE('',#1279,#589);
#491=LINE('',#1281,#590);
#492=LINE('',#1283,#591);
#493=LINE('',#1285,#592);
#494=LINE('',#1287,#593);
#495=LINE('',#1289,#594);
#496=LINE('',#1291,#595);
#497=LINE('',#1293,#596);
#498=LINE('',#1295,#597);
#499=LINE('',#1297,#598);
#500=LINE('',#1300,#599);
#501=LINE('',#1301,#600);
#502=LINE('',#1310,#601);
#503=LINE('',#1313,#602);
#504=LINE('',#1314,#603);
#505=LINE('',#1316,#604);
#506=LINE('',#1318,#605);
#507=LINE('',#1319,#606);
#508=LINE('',#1321,#607);
#509=LINE('',#1323,#608);
#510=LINE('',#1324,#609);
#511=LINE('',#1326,#610);
#512=LINE('',#1329,#611);
#513=LINE('',#1330,#612);
#514=LINE('',#1332,#613);
#515=LINE('',#1334,#614);
#516=LINE('',#1346,#615);
#517=LINE('',#1347,#616);
#518=LINE('',#1349,#617);
#519=LINE('',#1351,#618);
#520=LINE('',#1353,#619);
#521=LINE('',#1355,#620);
#522=LINE('',#1357,#621);
#523=LINE('',#1359,#622);
#524=LINE('',#1361,#623);
#525=LINE('',#1363,#624);
#526=LINE('',#1368,#625);
#527=LINE('',#1371,#626);
#528=LINE('',#1373,#627);
#529=LINE('',#1374,#628);
#530=LINE('',#1376,#629);
#531=LINE('',#1378,#630);
#532=LINE('',#1380,#631);
#533=LINE('',#1382,#632);
#534=LINE('',#1384,#633);
#535=LINE('',#1388,#634);
#536=LINE('',#1390,#635);
#537=LINE('',#1392,#636);
#538=LINE('',#1394,#637);
#539=LINE('',#1395,#638);
#540=LINE('',#1397,#639);
#541=LINE('',#1399,#640);
#542=LINE('',#1401,#641);
#543=LINE('',#1405,#642);
#544=LINE('',#1407,#643);
#545=LINE('',#1409,#644);
#546=LINE('',#1411,#645);
#547=LINE('',#1413,#646);
#548=LINE('',#1415,#647);
#549=LINE('',#1419,#648);
#550=LINE('',#1422,#649);
#551=LINE('',#1423,#650);
#552=LINE('',#1425,#651);
#553=LINE('',#1426,#652);
#554=VECTOR('',#968,1.);
#555=VECTOR('',#969,1.);
#556=VECTOR('',#970,1.);
#557=VECTOR('',#971,1.);
#558=VECTOR('',#974,1.);
#559=VECTOR('',#975,1.);
#560=VECTOR('',#976,1.);
#561=VECTOR('',#977,1.);
#562=VECTOR('',#980,1.);
#563=VECTOR('',#981,1.);
#564=VECTOR('',#984,1.);
#565=VECTOR('',#985,1.);
#566=VECTOR('',#986,1.);
#567=VECTOR('',#987,1.);
#568=VECTOR('',#988,1.);
#569=VECTOR('',#989,1.);
#570=VECTOR('',#994,1.);
#571=VECTOR('',#995,1.);
#572=VECTOR('',#996,1.);
#573=VECTOR('',#997,1.);
#574=VECTOR('',#998,1.);
#575=VECTOR('',#999,1.);
#576=VECTOR('',#1006,1.);
#577=VECTOR('',#1007,1.);
#578=VECTOR('',#1008,1.);
#579=VECTOR('',#1009,1.);
#580=VECTOR('',#1010,1.);
#581=VECTOR('',#1011,1.);
#582=VECTOR('',#1014,1.);
#583=VECTOR('',#1015,1.);
#584=VECTOR('',#1016,1.);
#585=VECTOR('',#1017,1.);
#586=VECTOR('',#1018,1.);
#587=VECTOR('',#1019,1.);
#588=VECTOR('',#1024,1.);
#589=VECTOR('',#1025,1.);
#590=VECTOR('',#1026,1.);
#591=VECTOR('',#1027,1.);
#592=VECTOR('',#1030,1.);
#593=VECTOR('',#1031,1.);
#594=VECTOR('',#1032,1.);
#595=VECTOR('',#1033,1.);
#596=VECTOR('',#1034,1.);
#597=VECTOR('',#1035,1.);
#598=VECTOR('',#1038,1.);
#599=VECTOR('',#1039,1.);
#600=VECTOR('',#1040,1.);
#601=VECTOR('',#1051,1.);
#602=VECTOR('',#1052,1.);
#603=VECTOR('',#1053,1.);
#604=VECTOR('',#1056,1.);
#605=VECTOR('',#1057,1.);
#606=VECTOR('',#1058,1.);
#607=VECTOR('',#1061,1.);
#608=VECTOR('',#1062,1.);
#609=VECTOR('',#1063,1.);
#610=VECTOR('',#1066,1.);
#611=VECTOR('',#1067,1.);
#612=VECTOR('',#1068,1.);
#613=VECTOR('',#1071,1.);
#614=VECTOR('',#1074,1.);
#615=VECTOR('',#1093,1.);
#616=VECTOR('',#1094,1.);
#617=VECTOR('',#1097,1.);
#618=VECTOR('',#1100,1.);
#619=VECTOR('',#1103,1.);
#620=VECTOR('',#1106,1.);
#621=VECTOR('',#1109,1.);
#622=VECTOR('',#1112,1.);
#623=VECTOR('',#1115,1.);
#624=VECTOR('',#1118,1.);
#625=VECTOR('',#1125,1.);
#626=VECTOR('',#1126,1.);
#627=VECTOR('',#1127,1.);
#628=VECTOR('',#1128,1.);
#629=VECTOR('',#1129,1.);
#630=VECTOR('',#1132,1.);
#631=VECTOR('',#1133,1.);
#632=VECTOR('',#1136,1.);
#633=VECTOR('',#1137,1.);
#634=VECTOR('',#1142,1.);
#635=VECTOR('',#1143,1.);
#636=VECTOR('',#1144,1.);
#637=VECTOR('',#1147,1.);
#638=VECTOR('',#1148,1.);
#639=VECTOR('',#1151,1.);
#640=VECTOR('',#1152,1.);
#641=VECTOR('',#1153,1.);
#642=VECTOR('',#1158,1.);
#643=VECTOR('',#1159,1.);
#644=VECTOR('',#1160,1.);
#645=VECTOR('',#1161,1.);
#646=VECTOR('',#1164,1.);
#647=VECTOR('',#1165,1.);
#648=VECTOR('',#1170,1.);
#649=VECTOR('',#1171,1.);
#650=VECTOR('',#1172,1.);
#651=VECTOR('',#1175,1.);
#652=VECTOR('',#1176,1.);
#653=EDGE_LOOP('',(#36,#37,#38,#39));
#654=EDGE_LOOP('',(#40,#41,#42,#43));
#655=EDGE_LOOP('',(#44,#45,#46,#47));
#656=EDGE_LOOP('',(#48,#49,#50,#51,#52,#53));
#657=EDGE_LOOP('',(#54));
#658=EDGE_LOOP('',(#55));
#659=EDGE_LOOP('',(#56,#57,#58,#59,#60,#61,#62,#63));
#660=EDGE_LOOP('',(#64));
#661=EDGE_LOOP('',(#65));
#662=EDGE_LOOP('',(#66,#67,#68,#69,#70,#71));
#663=EDGE_LOOP('',(#72,#73,#74,#75,#76,#77,#78));
#664=EDGE_LOOP('',(#79));
#665=EDGE_LOOP('',(#80,#81,#82,#83));
#666=EDGE_LOOP('',(#84,#85,#86,#87,#88,#89,#90));
#667=EDGE_LOOP('',(#91,#92,#93,#94));
#668=EDGE_LOOP('',(#95));
#669=EDGE_LOOP('',(#96));
#670=EDGE_LOOP('',(#97));
#671=EDGE_LOOP('',(#98));
#672=EDGE_LOOP('',(#99,#100,#101,#102,#103,#104));
#673=EDGE_LOOP('',(#105,#106,#107,#108,#109,#110,#111));
#674=EDGE_LOOP('',(#112,#113,#114,#115,#116,#117,#118));
#675=EDGE_LOOP('',(#119,#120,#121,#122));
#676=EDGE_LOOP('',(#123,#124,#125,#126,#127));
#677=EDGE_LOOP('',(#128,#129,#130,#131,#132,#133));
#678=EDGE_LOOP('',(#134,#135,#136,#137,#138));
#679=EDGE_LOOP('',(#139));
#680=EDGE_LOOP('',(#140));
#681=EDGE_LOOP('',(#141));
#682=EDGE_LOOP('',(#142));
#683=EDGE_LOOP('',(#143));
#684=EDGE_LOOP('',(#144));
#685=EDGE_LOOP('',(#145));
#686=EDGE_LOOP('',(#146));
#687=EDGE_LOOP('',(#147));
#688=EDGE_LOOP('',(#148));
#689=EDGE_LOOP('',(#149,#150,#151,#152));
#690=EDGE_LOOP('',(#153,#154,#155,#156));
#691=EDGE_LOOP('',(#157,#158,#159));
#692=EDGE_LOOP('',(#160,#161,#162));
#693=EDGE_LOOP('',(#163,#164,#165,#166));
#694=EDGE_LOOP('',(#167,#168,#169,#170));
#695=EDGE_LOOP('',(#171,#172,#173,#174));
#696=EDGE_LOOP('',(#175,#176,#177));
#697=EDGE_LOOP('',(#178,#179,#180));
#698=EDGE_LOOP('',(#181,#182,#183,#184));
#699=EDGE_LOOP('',(#185));
#700=EDGE_LOOP('',(#186,#187,#188,#189,#190,#191));
#701=EDGE_LOOP('',(#192,#193,#194,#195));
#702=EDGE_LOOP('',(#196,#197,#198,#199));
#703=EDGE_LOOP('',(#200));
#704=EDGE_LOOP('',(#201,#202,#203,#204,#205,#206,#207,#208));
#705=EDGE_LOOP('',(#209,#210,#211,#212));
#706=EDGE_LOOP('',(#213,#214,#215,#216));
#707=EDGE_LOOP('',(#217));
#708=EDGE_LOOP('',(#218,#219,#220,#221,#222,#223));
#709=EDGE_LOOP('',(#224,#225,#226,#227));
#710=EDGE_LOOP('',(#228));
#711=EDGE_LOOP('',(#229,#230,#231,#232,#233,#234,#235,#236));
#712=EDGE_LOOP('',(#237,#238,#239,#240));
#713=EDGE_LOOP('',(#241,#242,#243,#244));
#714=EDGE_LOOP('',(#245,#246,#247,#248));
#715=EDGE_LOOP('',(#249,#250,#251,#252));
#716=EDGE_LOOP('',(#253,#254,#255,#256));
#717=EDGE_LOOP('',(#257));
#718=EDGE_LOOP('',(#258));
#719=EDGE_LOOP('',(#259));
#720=EDGE_LOOP('',(#260));
#721=EDGE_LOOP('',(#261));
#722=EDGE_LOOP('',(#262));
#723=EDGE_LOOP('',(#263));
#724=FACE_BOUND('',#653,.T.);
#725=FACE_BOUND('',#654,.T.);
#726=FACE_BOUND('',#655,.T.);
#727=FACE_BOUND('',#656,.T.);
#728=FACE_BOUND('',#657,.T.);
#729=FACE_BOUND('',#658,.T.);
#730=FACE_BOUND('',#659,.T.);
#731=FACE_BOUND('',#660,.T.);
#732=FACE_BOUND('',#661,.T.);
#733=FACE_BOUND('',#662,.T.);
#734=FACE_BOUND('',#663,.T.);
#735=FACE_BOUND('',#664,.T.);
#736=FACE_BOUND('',#665,.T.);
#737=FACE_BOUND('',#666,.T.);
#738=FACE_BOUND('',#667,.T.);
#739=FACE_BOUND('',#668,.T.);
#740=FACE_BOUND('',#669,.T.);
#741=FACE_BOUND('',#670,.T.);
#742=FACE_BOUND('',#671,.T.);
#743=FACE_BOUND('',#672,.T.);
#744=FACE_BOUND('',#673,.T.);
#745=FACE_BOUND('',#674,.T.);
#746=FACE_BOUND('',#675,.T.);
#747=FACE_BOUND('',#676,.T.);
#748=FACE_BOUND('',#677,.T.);
#749=FACE_BOUND('',#678,.T.);
#750=FACE_BOUND('',#679,.T.);
#751=FACE_BOUND('',#680,.T.);
#752=FACE_BOUND('',#681,.T.);
#753=FACE_BOUND('',#682,.T.);
#754=FACE_BOUND('',#683,.T.);
#755=FACE_BOUND('',#684,.T.);
#756=FACE_BOUND('',#685,.T.);
#757=FACE_BOUND('',#686,.T.);
#758=FACE_BOUND('',#687,.T.);
#759=FACE_BOUND('',#688,.T.);
#760=FACE_BOUND('',#689,.T.);
#761=FACE_BOUND('',#690,.T.);
#762=FACE_BOUND('',#691,.T.);
#763=FACE_BOUND('',#692,.T.);
#764=FACE_BOUND('',#693,.T.);
#765=FACE_BOUND('',#694,.T.);
#766=FACE_BOUND('',#695,.T.);
#767=FACE_BOUND('',#696,.T.);
#768=FACE_BOUND('',#697,.T.);
#769=FACE_BOUND('',#698,.T.);
#770=FACE_BOUND('',#699,.T.);
#771=FACE_BOUND('',#700,.T.);
#772=FACE_BOUND('',#701,.T.);
#773=FACE_BOUND('',#702,.T.);
#774=FACE_BOUND('',#703,.T.);
#775=FACE_BOUND('',#704,.T.);
#776=FACE_BOUND('',#705,.T.);
#777=FACE_BOUND('',#706,.T.);
#778=FACE_BOUND('',#707,.T.);
#779=FACE_BOUND('',#708,.T.);
#780=FACE_BOUND('',#709,.T.);
#781=FACE_BOUND('',#710,.T.);
#782=FACE_BOUND('',#711,.T.);
#783=FACE_BOUND('',#712,.T.);
#784=FACE_BOUND('',#713,.T.);
#785=FACE_BOUND('',#714,.T.);
#786=FACE_BOUND('',#715,.T.);
#787=FACE_BOUND('',#716,.T.);
#788=FACE_BOUND('',#717,.T.);
#789=FACE_BOUND('',#718,.T.);
#790=FACE_BOUND('',#719,.T.);
#791=FACE_BOUND('',#720,.T.);
#792=FACE_BOUND('',#721,.T.);
#793=FACE_BOUND('',#722,.T.);
#794=FACE_BOUND('',#723,.T.);
#795=PLANE('',#899);
#796=PLANE('',#900);
#797=PLANE('',#901);
#798=PLANE('',#902);
#799=PLANE('',#906);
#800=PLANE('',#908);
#801=PLANE('',#909);
#802=PLANE('',#911);
#803=PLANE('',#912);
#804=PLANE('',#915);
#805=PLANE('',#918);
#806=PLANE('',#919);
#807=PLANE('',#920);
#808=PLANE('',#921);
#809=PLANE('',#922);
#810=PLANE('',#923);
#811=PLANE('',#931);
#812=PLANE('',#932);
#813=PLANE('',#933);
#814=PLANE('',#934);
#815=PLANE('',#935);
#816=PLANE('',#936);
#817=PLANE('',#937);
#818=PLANE('',#938);
#819=PLANE('',#939);
#820=PLANE('',#940);
#821=PLANE('',#941);
#822=PLANE('',#943);
#823=PLANE('',#944);
#824=PLANE('',#945);
#825=PLANE('',#947);
#826=PLANE('',#948);
#827=PLANE('',#949);
#828=PLANE('',#951);
#829=PLANE('',#952);
#830=PLANE('',#954);
#831=PLANE('',#955);
#832=PLANE('',#956);
#833=PLANE('',#957);
#834=PLANE('',#958);
#835=PLANE('',#963);
#836=ADVANCED_FACE('',(#724),#795,.F.);
#837=ADVANCED_FACE('',(#725),#796,.T.);
#838=ADVANCED_FACE('',(#726),#797,.T.);
#839=ADVANCED_FACE('',(#727,#728,#729,#730,#731),#798,.F.);
#840=ADVANCED_FACE('',(#732,#733),#799,.F.);
#841=ADVANCED_FACE('',(#734),#800,.F.);
#842=ADVANCED_FACE('',(#735,#736),#801,.T.);
#843=ADVANCED_FACE('',(#737),#802,.T.);
#844=ADVANCED_FACE('',(#738),#803,.T.);
#845=ADVANCED_FACE('',(#739,#740),#15,.F.);
#846=ADVANCED_FACE('',(#741,#742,#743),#804,.F.);
#847=ADVANCED_FACE('',(#744),#805,.F.);
#848=ADVANCED_FACE('',(#745),#806,.F.);
#849=ADVANCED_FACE('',(#746),#807,.T.);
#850=ADVANCED_FACE('',(#747),#808,.T.);
#851=ADVANCED_FACE('',(#748),#809,.T.);
#852=ADVANCED_FACE('',(#749),#810,.T.);
#853=ADVANCED_FACE('',(#750,#751),#16,.F.);
#854=ADVANCED_FACE('',(#752,#753),#17,.F.);
#855=ADVANCED_FACE('',(#754,#755),#12,.F.);
#856=ADVANCED_FACE('',(#756,#757),#13,.F.);
#857=ADVANCED_FACE('',(#758,#759),#14,.F.);
#858=ADVANCED_FACE('',(#760),#811,.T.);
#859=ADVANCED_FACE('',(#761),#812,.T.);
#860=ADVANCED_FACE('',(#762),#813,.T.);
#861=ADVANCED_FACE('',(#763),#814,.T.);
#862=ADVANCED_FACE('',(#764),#815,.T.);
#863=ADVANCED_FACE('',(#765),#816,.F.);
#864=ADVANCED_FACE('',(#766),#817,.F.);
#865=ADVANCED_FACE('',(#767),#818,.T.);
#866=ADVANCED_FACE('',(#768),#819,.T.);
#867=ADVANCED_FACE('',(#769),#820,.F.);
#868=ADVANCED_FACE('',(#770,#771),#821,.T.);
#869=ADVANCED_FACE('',(#772),#822,.F.);
#870=ADVANCED_FACE('',(#773),#823,.T.);
#871=ADVANCED_FACE('',(#774,#775),#824,.F.);
#872=ADVANCED_FACE('',(#776),#825,.T.);
#873=ADVANCED_FACE('',(#777),#826,.T.);
#874=ADVANCED_FACE('',(#778,#779),#827,.F.);
#875=ADVANCED_FACE('',(#780),#828,.F.);
#876=ADVANCED_FACE('',(#781,#782),#829,.T.);
#877=ADVANCED_FACE('',(#783),#830,.T.);
#878=ADVANCED_FACE('',(#784),#831,.F.);
#879=ADVANCED_FACE('',(#785),#832,.T.);
#880=ADVANCED_FACE('',(#786),#833,.T.);
#881=ADVANCED_FACE('',(#787),#834,.F.);
#882=ADVANCED_FACE('',(#788,#789),#18,.F.);
#883=ADVANCED_FACE('',(#790,#791),#19,.F.);
#884=ADVANCED_FACE('',(#792,#793),#20,.F.);
#885=ADVANCED_FACE('',(#794),#835,.F.);
#886=CLOSED_SHELL('',(#836,#837,#838,#839,#840,#841,#842,#843,#844,#845,
#846,#847,#848,#849,#850,#851,#852,#853,#854,#855,#856,#857,#858,#859,#860,
#861,#862,#863,#864,#865,#866,#867,#868,#869,#870,#871,#872,#873,#874,#875,
#876,#877,#878,#879,#880,#881,#882,#883,#884,#885));
#887=STYLED_ITEM('',(#888),#895);
#888=PRESENTATION_STYLE_ASSIGNMENT((#889));
#889=SURFACE_STYLE_USAGE(.BOTH.,#890);
#890=SURFACE_SIDE_STYLE('',(#891));
#891=SURFACE_STYLE_FILL_AREA(#892);
#892=FILL_AREA_STYLE('',(#893));
#893=FILL_AREA_STYLE_COLOUR('',#894);
#894=COLOUR_RGB('',0.866666666666667,0.32156862745098,0.156862745098039);
#895=MANIFOLD_SOLID_BREP('TFR-Rod Mount',#886);
#896=SHAPE_DEFINITION_REPRESENTATION(#1443,#897);
#897=SHAPE_REPRESENTATION('TFR-Rod Mount',(#898),#1438);
#898=AXIS2_PLACEMENT_3D('',#1195,#964,#965);
#899=AXIS2_PLACEMENT_3D('',#1196,#966,#967);
#900=AXIS2_PLACEMENT_3D('',#1205,#972,#973);
#901=AXIS2_PLACEMENT_3D('',#1214,#978,#979);
#902=AXIS2_PLACEMENT_3D('',#1217,#982,#983);
#903=AXIS2_PLACEMENT_3D('',#1230,#990,#991);
#904=AXIS2_PLACEMENT_3D('',#1232,#992,#993);
#905=AXIS2_PLACEMENT_3D('',#1244,#1000,#1001);
#906=AXIS2_PLACEMENT_3D('',#1246,#1002,#1003);
#907=AXIS2_PLACEMENT_3D('',#1247,#1004,#1005);
#908=AXIS2_PLACEMENT_3D('',#1261,#1012,#1013);
#909=AXIS2_PLACEMENT_3D('',#1273,#1020,#1021);
#910=AXIS2_PLACEMENT_3D('',#1274,#1022,#1023);
#911=AXIS2_PLACEMENT_3D('',#1284,#1028,#1029);
#912=AXIS2_PLACEMENT_3D('',#1296,#1036,#1037);
#913=AXIS2_PLACEMENT_3D('',#1302,#1041,#1042);
#914=AXIS2_PLACEMENT_3D('',#1303,#1043,#1044);
#915=AXIS2_PLACEMENT_3D('',#1305,#1045,#1046);
#916=AXIS2_PLACEMENT_3D('',#1306,#1047,#1048);
#917=AXIS2_PLACEMENT_3D('',#1308,#1049,#1050);
#918=AXIS2_PLACEMENT_3D('',#1315,#1054,#1055);
#919=AXIS2_PLACEMENT_3D('',#1320,#1059,#1060);
#920=AXIS2_PLACEMENT_3D('',#1325,#1064,#1065);
#921=AXIS2_PLACEMENT_3D('',#1331,#1069,#1070);
#922=AXIS2_PLACEMENT_3D('',#1333,#1072,#1073);
#923=AXIS2_PLACEMENT_3D('',#1335,#1075,#1076);
#924=AXIS2_PLACEMENT_3D('',#1336,#1077,#1078);
#925=AXIS2_PLACEMENT_3D('',#1337,#1079,#1080);
#926=AXIS2_PLACEMENT_3D('',#1339,#1081,#1082);
#927=AXIS2_PLACEMENT_3D('',#1340,#1083,#1084);
#928=AXIS2_PLACEMENT_3D('',#1342,#1085,#1086);
#929=AXIS2_PLACEMENT_3D('',#1343,#1087,#1088);
#930=AXIS2_PLACEMENT_3D('',#1344,#1089,#1090);
#931=AXIS2_PLACEMENT_3D('',#1345,#1091,#1092);
#932=AXIS2_PLACEMENT_3D('',#1348,#1095,#1096);
#933=AXIS2_PLACEMENT_3D('',#1350,#1098,#1099);
#934=AXIS2_PLACEMENT_3D('',#1352,#1101,#1102);
#935=AXIS2_PLACEMENT_3D('',#1354,#1104,#1105);
#936=AXIS2_PLACEMENT_3D('',#1356,#1107,#1108);
#937=AXIS2_PLACEMENT_3D('',#1358,#1110,#1111);
#938=AXIS2_PLACEMENT_3D('',#1360,#1113,#1114);
#939=AXIS2_PLACEMENT_3D('',#1362,#1116,#1117);
#940=AXIS2_PLACEMENT_3D('',#1364,#1119,#1120);
#941=AXIS2_PLACEMENT_3D('',#1365,#1121,#1122);
#942=AXIS2_PLACEMENT_3D('',#1366,#1123,#1124);
#943=AXIS2_PLACEMENT_3D('',#1377,#1130,#1131);
#944=AXIS2_PLACEMENT_3D('',#1381,#1134,#1135);
#945=AXIS2_PLACEMENT_3D('',#1385,#1138,#1139);
#946=AXIS2_PLACEMENT_3D('',#1386,#1140,#1141);
#947=AXIS2_PLACEMENT_3D('',#1393,#1145,#1146);
#948=AXIS2_PLACEMENT_3D('',#1396,#1149,#1150);
#949=AXIS2_PLACEMENT_3D('',#1402,#1154,#1155);
#950=AXIS2_PLACEMENT_3D('',#1403,#1156,#1157);
#951=AXIS2_PLACEMENT_3D('',#1412,#1162,#1163);
#952=AXIS2_PLACEMENT_3D('',#1416,#1166,#1167);
#953=AXIS2_PLACEMENT_3D('',#1417,#1168,#1169);
#954=AXIS2_PLACEMENT_3D('',#1424,#1173,#1174);
#955=AXIS2_PLACEMENT_3D('',#1427,#1177,#1178);
#956=AXIS2_PLACEMENT_3D('',#1428,#1179,#1180);
#957=AXIS2_PLACEMENT_3D('',#1429,#1181,#1182);
#958=AXIS2_PLACEMENT_3D('',#1430,#1183,#1184);
#959=AXIS2_PLACEMENT_3D('',#1431,#1185,#1186);
#960=AXIS2_PLACEMENT_3D('',#1432,#1187,#1188);
#961=AXIS2_PLACEMENT_3D('',#1433,#1189,#1190);
#962=AXIS2_PLACEMENT_3D('',#1434,#1191,#1192);
#963=AXIS2_PLACEMENT_3D('',#1436,#1193,#1194);
#964=DIRECTION('',(0.,0.,1.));
#965=DIRECTION('',(1.,0.,0.));
#966=DIRECTION('',(1.,0.,0.));
#967=DIRECTION('',(0.,-1.,0.));
#968=DIRECTION('',(0.,-1.,0.));
#969=DIRECTION('',(0.,0.,1.));
#970=DIRECTION('',(0.,-1.,0.));
#971=DIRECTION('',(0.,0.,1.));
#972=DIRECTION('',(1.,0.,0.));
#973=DIRECTION('',(0.,-1.,0.));
#974=DIRECTION('',(0.,0.,1.));
#975=DIRECTION('',(0.,-1.,0.));
#976=DIRECTION('',(0.,0.,1.));
#977=DIRECTION('',(0.,-1.,0.));
#978=DIRECTION('',(0.,0.,-1.));
#979=DIRECTION('',(-1.,0.,0.));
#980=DIRECTION('',(-1.,0.,0.));
#981=DIRECTION('',(-1.,0.,0.));
#982=DIRECTION('',(0.,0.,1.));
#983=DIRECTION('',(1.,0.,0.));
#984=DIRECTION('',(-1.,0.,0.));
#985=DIRECTION('',(-1.,0.,0.));
#986=DIRECTION('',(0.,1.,0.));
#987=DIRECTION('',(1.,0.,0.));
#988=DIRECTION('',(-1.,0.,0.));
#989=DIRECTION('',(0.,-1.,0.));
#990=DIRECTION('',(0.,0.,1.));
#991=DIRECTION('',(0.,-1.,0.));
#992=DIRECTION('',(0.,0.,1.));
#993=DIRECTION('',(0.,-1.,0.));
#994=DIRECTION('',(-1.,0.,0.));
#995=DIRECTION('',(0.,-1.,0.));
#996=DIRECTION('',(0.,-1.,0.));
#997=DIRECTION('',(-1.,0.,0.));
#998=DIRECTION('',(0.,-1.,0.));
#999=DIRECTION('',(0.,-1.,0.));
#1000=DIRECTION('',(0.,0.,1.));
#1001=DIRECTION('',(0.,-1.,0.));
#1002=DIRECTION('',(-1.,0.,0.));
#1003=DIRECTION('',(0.,1.,0.));
#1004=DIRECTION('',(-1.,0.,0.));
#1005=DIRECTION('',(0.,1.,0.));
#1006=DIRECTION('',(0.,-1.,0.));
#1007=DIRECTION('',(0.,0.707106781186548,0.707106781186548));
#1008=DIRECTION('',(0.,0.,1.));
#1009=DIRECTION('',(0.,-1.,0.));
#1010=DIRECTION('',(0.,0.,1.));
#1011=DIRECTION('',(0.,-0.707106781186548,0.707106781186548));
#1012=DIRECTION('',(0.,-1.,0.));
#1013=DIRECTION('',(-1.,0.,0.));
#1014=DIRECTION('',(0.,0.,1.));
#1015=DIRECTION('',(1.,0.,0.));
#1016=DIRECTION('',(-1.,0.,0.));
#1017=DIRECTION('',(0.,0.,-1.));
#1018=DIRECTION('',(-1.,0.,0.));
#1019=DIRECTION('',(-1.,0.,0.));
#1020=DIRECTION('',(-1.,0.,0.));
#1021=DIRECTION('',(0.,1.,0.));
#1022=DIRECTION('',(-1.,0.,0.));
#1023=DIRECTION('',(0.,1.,0.));
#1024=DIRECTION('',(0.,0.,1.));
#1025=DIRECTION('',(0.,1.,0.));
#1026=DIRECTION('',(0.,0.,-1.));
#1027=DIRECTION('',(0.,-1.,0.));
#1028=DIRECTION('',(0.,-1.,0.));
#1029=DIRECTION('',(-1.,0.,0.));
#1030=DIRECTION('',(-1.,0.,0.));
#1031=DIRECTION('',(0.,0.,-1.));
#1032=DIRECTION('',(1.,0.,0.));
#1033=DIRECTION('',(-1.,0.,0.));
#1034=DIRECTION('',(0.,0.,1.));
#1035=DIRECTION('',(-1.,0.,0.));
#1036=DIRECTION('',(0.,0.,1.));
#1037=DIRECTION('',(1.,0.,0.));
#1038=DIRECTION('',(0.,-1.,0.));
#1039=DIRECTION('',(1.,0.,0.));
#1040=DIRECTION('',(-1.,0.,0.));
#1041=DIRECTION('',(-1.,0.,0.));
#1042=DIRECTION('',(0.,1.,0.));
#1043=DIRECTION('',(-1.,0.,0.));
#1044=DIRECTION('',(0.,1.,0.));
#1045=DIRECTION('',(0.,0.,-1.));
#1046=DIRECTION('',(0.,1.,0.));
#1047=DIRECTION('',(0.,0.,-1.));
#1048=DIRECTION('',(0.,1.,0.));
#1049=DIRECTION('',(0.,0.,-1.));
#1050=DIRECTION('',(0.,1.,0.));
#1051=DIRECTION('',(0.,-1.,0.));
#1052=DIRECTION('',(-0.707106781186548,0.707106781186548,0.));
#1053=DIRECTION('',(0.707106781186548,0.707106781186548,0.));
#1054=DIRECTION('',(0.,0.707106781186548,0.707106781186548));
#1055=DIRECTION('',(0.,-0.707106781186548,0.707106781186548));
#1056=DIRECTION('',(0.577350269189626,-0.577350269189626,0.577350269189626));
#1057=DIRECTION('',(-0.577350269189626,-0.577350269189626,0.577350269189626));
#1058=DIRECTION('',(0.,-0.707106781186548,0.707106781186548));
#1059=DIRECTION('',(0.,-0.707106781186548,0.707106781186548));
#1060=DIRECTION('',(0.,-0.707106781186548,-0.707106781186548));
#1061=DIRECTION('',(0.577350269189626,-0.577350269189626,-0.577350269189626));
#1062=DIRECTION('',(-0.577350269189626,-0.577350269189626,-0.577350269189626));
#1063=DIRECTION('',(0.,0.707106781186548,0.707106781186548));
#1064=DIRECTION('',(1.,0.,0.));
#1065=DIRECTION('',(0.,0.,-1.));
#1066=DIRECTION('',(0.,1.,0.));
#1067=DIRECTION('',(0.,0.,1.));
#1068=DIRECTION('',(0.,0.,-1.));
#1069=DIRECTION('',(0.707106781186548,-0.707106781186548,0.));
#1070=DIRECTION('',(0.,0.,1.));
#1071=DIRECTION('',(-0.577350269189626,-0.577350269189626,-0.577350269189626));
#1072=DIRECTION('',(0.707106781186548,0.,-0.707106781186548));
#1073=DIRECTION('',(0.,-1.,0.));
#1074=DIRECTION('',(-0.577350269189626,0.577350269189626,-0.577350269189626));
#1075=DIRECTION('',(0.707106781186548,0.707106781186548,0.));
#1076=DIRECTION('',(0.,0.,-1.));
#1077=DIRECTION('',(0.,0.,-1.));
#1078=DIRECTION('',(0.,1.,0.));
#1079=DIRECTION('',(0.,0.,1.));
#1080=DIRECTION('',(0.,-1.,0.));
#1081=DIRECTION('',(0.,0.,-1.));
#1082=DIRECTION('',(0.,1.,0.));
#1083=DIRECTION('',(0.,0.,1.));
#1084=DIRECTION('',(0.,-1.,0.));
#1085=DIRECTION('',(0.,0.,-1.));
#1086=DIRECTION('',(0.,1.,0.));
#1087=DIRECTION('',(0.,0.,-1.));
#1088=DIRECTION('',(0.,1.,0.));
#1089=DIRECTION('',(-1.,0.,0.));
#1090=DIRECTION('',(0.,1.,0.));
#1091=DIRECTION('',(-0.707106781186548,0.707106781186548,0.));
#1092=DIRECTION('',(0.,0.,-1.));
#1093=DIRECTION('',(-0.707106781186548,-0.707106781186548,0.));
#1094=DIRECTION('',(0.707106781186548,0.707106781186548,0.));
#1095=DIRECTION('',(0.,0.707106781186548,0.707106781186548));
#1096=DIRECTION('',(-1.,0.,0.));
#1097=DIRECTION('',(0.,0.707106781186548,-0.707106781186548));
#1098=DIRECTION('',(-0.577350269189626,0.577350269189626,-0.577350269189626));
#1099=DIRECTION('',(0.707106781186548,0.707106781186548,0.));
#1100=DIRECTION('',(-0.707106781186548,0.,0.707106781186548));
#1101=DIRECTION('',(-0.577350269189626,0.577350269189626,0.577350269189626));
#1102=DIRECTION('',(0.707106781186548,0.707106781186548,0.));
#1103=DIRECTION('',(-0.707106781186548,0.,-0.707106781186548));
#1104=DIRECTION('',(-0.707106781186548,0.,-0.707106781186548));
#1105=DIRECTION('',(0.,1.,0.));
#1106=DIRECTION('',(0.707106781186548,0.,-0.707106781186548));
#1107=DIRECTION('',(0.707106781186548,0.,-0.707106781186548));
#1108=DIRECTION('',(0.,-1.,0.));
#1109=DIRECTION('',(0.707106781186548,0.,0.707106781186548));
#1110=DIRECTION('',(0.,0.707106781186548,-0.707106781186548));
#1111=DIRECTION('',(1.,0.,0.));
#1112=DIRECTION('',(0.,-0.707106781186548,-0.707106781186548));
#1113=DIRECTION('',(-0.577350269189626,-0.577350269189626,-0.577350269189626));
#1114=DIRECTION('',(-0.707106781186548,0.707106781186548,0.));
#1115=DIRECTION('',(0.707106781186548,-0.707106781186548,0.));
#1116=DIRECTION('',(-0.577350269189626,-0.577350269189626,0.577350269189626));
#1117=DIRECTION('',(-0.707106781186548,0.707106781186548,0.));
#1118=DIRECTION('',(-0.707106781186548,0.707106781186548,0.));
#1119=DIRECTION('',(0.707106781186548,0.707106781186548,0.));
#1120=DIRECTION('',(0.,0.,1.));
#1121=DIRECTION('',(0.,1.,0.));
#1122=DIRECTION('',(1.,0.,0.));
#1123=DIRECTION('',(0.,1.,0.));
#1124=DIRECTION('',(1.,0.,0.));
#1125=DIRECTION('',(-1.,0.,0.));
#1126=DIRECTION('',(0.707106781186548,0.,-0.707106781186548));
#1127=DIRECTION('',(0.,0.,1.));
#1128=DIRECTION('',(0.,0.,1.));
#1129=DIRECTION('',(-0.707106781186548,0.,-0.707106781186548));
#1130=DIRECTION('',(-1.,0.,0.));
#1131=DIRECTION('',(0.,1.,0.));
#1132=DIRECTION('',(0.,0.,1.));
#1133=DIRECTION('',(0.,1.,0.));
#1134=DIRECTION('',(-1.,0.,0.));
#1135=DIRECTION('',(0.,1.,0.));
#1136=DIRECTION('',(0.,-1.,0.));
#1137=DIRECTION('',(0.,0.,1.));
#1138=DIRECTION('',(0.,1.,0.));
#1139=DIRECTION('',(1.,0.,0.));
#1140=DIRECTION('',(0.,1.,0.));
#1141=DIRECTION('',(1.,0.,0.));
#1142=DIRECTION('',(-0.707106781186548,0.,0.707106781186548));
#1143=DIRECTION('',(-1.,0.,0.));
#1144=DIRECTION('',(0.707106781186548,0.,0.707106781186548));
#1145=DIRECTION('',(0.,0.,-1.));
#1146=DIRECTION('',(-1.,0.,0.));
#1147=DIRECTION('',(0.,1.,0.));
#1148=DIRECTION('',(0.,-1.,0.));
#1149=DIRECTION('',(1.,0.,0.));
#1150=DIRECTION('',(0.,-1.,0.));
#1151=DIRECTION('',(0.,0.,1.));
#1152=DIRECTION('',(0.,1.,0.));
#1153=DIRECTION('',(0.,0.,1.));
#1154=DIRECTION('',(0.,1.,0.));
#1155=DIRECTION('',(1.,0.,0.));
#1156=DIRECTION('',(0.,1.,0.));
#1157=DIRECTION('',(1.,0.,0.));
#1158=DIRECTION('',(0.,0.,1.));
#1159=DIRECTION('',(0.707106781186548,0.,-0.707106781186548));
#1160=DIRECTION('',(-1.,0.,0.));
#1161=DIRECTION('',(-0.707106781186548,0.,-0.707106781186548));
#1162=DIRECTION('',(1.,0.,0.));
#1163=DIRECTION('',(0.,-1.,0.));
#1164=DIRECTION('',(0.,0.,1.));
#1165=DIRECTION('',(0.,-1.,0.));
#1166=DIRECTION('',(0.,1.,0.));
#1167=DIRECTION('',(1.,0.,0.));
#1168=DIRECTION('',(0.,1.,0.));
#1169=DIRECTION('',(1.,0.,0.));
#1170=DIRECTION('',(-1.,0.,0.));
#1171=DIRECTION('',(-0.707106781186548,0.,0.707106781186548));
#1172=DIRECTION('',(0.707106781186548,0.,0.707106781186548));
#1173=DIRECTION('',(0.,0.,-1.));
#1174=DIRECTION('',(-1.,0.,0.));
#1175=DIRECTION('',(0.,1.,0.));
#1176=DIRECTION('',(0.,-1.,0.));
#1177=DIRECTION('',(0.707106781186548,0.,0.707106781186548));
#1178=DIRECTION('',(0.,-1.,0.));
#1179=DIRECTION('',(0.707106781186548,0.,-0.707106781186548));
#1180=DIRECTION('',(0.,1.,0.));
#1181=DIRECTION('',(-0.707106781186548,0.,-0.707106781186548));
#1182=DIRECTION('',(0.,-1.,0.));
#1183=DIRECTION('',(-0.707106781186548,0.,0.707106781186548));
#1184=DIRECTION('',(0.,1.,0.));
#1185=DIRECTION('',(0.,-1.,0.));
#1186=DIRECTION('',(-1.,0.,0.));
#1187=DIRECTION('',(0.,-1.,0.));
#1188=DIRECTION('',(-1.,0.,0.));
#1189=DIRECTION('',(0.,0.,1.));
#1190=DIRECTION('',(0.,-1.,0.));
#1191=DIRECTION('',(0.,0.,-1.));
#1192=DIRECTION('',(0.,1.,0.));
#1193=DIRECTION('',(0.,0.,1.));
#1194=DIRECTION('',(1.,0.,0.));
#1195=CARTESIAN_POINT('',(0.,0.,0.));
#1196=CARTESIAN_POINT('',(0.154813524404355,0.420006029657602,0.1831));
#1197=CARTESIAN_POINT('',(0.154813524404355,0.420006029657602,0.1815));
#1198=CARTESIAN_POINT('',(0.154813524404355,0.424506029657602,0.1815));
#1199=CARTESIAN_POINT('',(0.154813524404355,0.415506029657602,0.1815));
#1200=CARTESIAN_POINT('',(0.154813524404355,0.415506029657602,0.1681));
#1201=CARTESIAN_POINT('',(0.154813524404355,0.415506029657602,0.1831));
#1202=CARTESIAN_POINT('',(0.154813524404355,0.420006029657602,0.1831));
#1203=CARTESIAN_POINT('',(0.154813524404355,0.424506029657602,0.1831));
#1204=CARTESIAN_POINT('',(0.154813524404355,0.424506029657602,0.1681));
#1205=CARTESIAN_POINT('',(0.137813524404355,0.420006029657602,0.1831));
#1206=CARTESIAN_POINT('',(0.137813524404355,0.415506029657602,0.1681));
#1207=CARTESIAN_POINT('',(0.137813524404355,0.415506029657602,0.1815));
#1208=CARTESIAN_POINT('',(0.137813524404355,0.415506029657602,0.1831));
#1209=CARTESIAN_POINT('',(0.137813524404355,0.420006029657602,0.1815));
#1210=CARTESIAN_POINT('',(0.137813524404355,0.424506029657602,0.1815));
#1211=CARTESIAN_POINT('',(0.137813524404355,0.424506029657602,0.1681));
#1212=CARTESIAN_POINT('',(0.137813524404355,0.424506029657602,0.1831));
#1213=CARTESIAN_POINT('',(0.137813524404355,0.420006029657602,0.1831));
#1214=CARTESIAN_POINT('',(-0.026961303952946,0.398756029657602,0.1831));
#1215=CARTESIAN_POINT('',(0.146313524404355,0.415506029657602,0.1831));
#1216=CARTESIAN_POINT('',(0.146313524404355,0.424506029657602,0.1831));
#1217=CARTESIAN_POINT('',(-0.039711303952946,0.398756029657602,0.1815));
#1218=CARTESIAN_POINT('',(0.183313524404355,0.360756029657602,0.1815));
#1219=CARTESIAN_POINT('',(0.180313524404355,0.360756029657602,0.1815));
#1220=CARTESIAN_POINT('',(0.163313524404355,0.360756029657602,0.1815));
#1221=CARTESIAN_POINT('',(0.128313524404355,0.360756029657602,0.1815));
#1222=CARTESIAN_POINT('',(0.131313524404355,0.360756029657602,0.1815));
#1223=CARTESIAN_POINT('',(0.131313524404355,0.439756029657602,0.1815));
#1224=CARTESIAN_POINT('',(0.131313524404355,0.436756029657602,0.1815));
#1225=CARTESIAN_POINT('',(-0.039711303952946,0.436756029657602,0.1815));
#1226=CARTESIAN_POINT('',(0.163313524404355,0.436756029657602,0.1815));
#1227=CARTESIAN_POINT('',(0.183313524404355,0.436756029657602,0.1815));
#1228=CARTESIAN_POINT('',(0.180313524404355,0.436756029657602,0.1815));
#1229=CARTESIAN_POINT('',(0.180313524404355,0.360756029657602,0.1815));
#1230=CARTESIAN_POINT('',(0.173313524404355,0.431552546262741,0.1815));
#1231=CARTESIAN_POINT('',(0.173313524404355,0.427052546262741,0.1815));
#1232=CARTESIAN_POINT('',(0.173313524404355,0.386552546262741,0.1815));
#1233=CARTESIAN_POINT('',(0.173313524404355,0.382052546262741,0.1815));
#1234=CARTESIAN_POINT('',(0.146313524404355,0.427006029657602,0.1815));
#1235=CARTESIAN_POINT('',(0.154813524404355,0.427006029657602,0.1815));
#1236=CARTESIAN_POINT('',(0.137813524404355,0.427006029657602,0.1815));
#1237=CARTESIAN_POINT('',(0.137813524404355,0.420006029657602,0.1815));
#1238=CARTESIAN_POINT('',(0.137813524404355,0.420006029657602,0.1815));
#1239=CARTESIAN_POINT('',(0.137813524404355,0.413006029657602,0.1815));
#1240=CARTESIAN_POINT('',(0.146313524404355,0.413006029657602,0.1815));
#1241=CARTESIAN_POINT('',(0.154813524404355,0.413006029657602,0.1815));
#1242=CARTESIAN_POINT('',(0.154813524404355,0.420006029657602,0.1815));
#1243=CARTESIAN_POINT('',(0.154813524404355,0.420006029657602,0.1815));
#1244=CARTESIAN_POINT('',(0.147313524404355,0.400052546262741,0.1815));
#1245=CARTESIAN_POINT('',(0.147313524404355,0.390552546262741,0.1815));
#1246=CARTESIAN_POINT('',(0.163313524404355,0.398756029657602,0.1815));
#1247=CARTESIAN_POINT('',(0.163313524404355,0.382506029657602,0.19838858210906));
#1248=CARTESIAN_POINT('',(0.163313524404355,0.385006029657602,0.19838858210906));
#1249=CARTESIAN_POINT('',(0.163313524404355,0.398756029657602,0.2085));
#1250=CARTESIAN_POINT('',(0.163313524404355,0.436756029657602,0.2085));
#1251=CARTESIAN_POINT('',(0.163313524404355,0.360756029657602,0.2085));
#1252=CARTESIAN_POINT('',(0.163313524404355,0.360756029657602,0.2085));
#1253=CARTESIAN_POINT('',(0.163313524404355,0.357756029657602,0.2055));
#1254=CARTESIAN_POINT('',(0.163313524404355,0.357756029657602,0.1815));
#1255=CARTESIAN_POINT('',(0.163313524404355,0.357756029657602,0.188447915675596));
#1256=CARTESIAN_POINT('',(0.163313524404355,0.398756029657602,0.188447915675596));
#1257=CARTESIAN_POINT('',(0.163313524404355,0.439756029657602,0.188447915675596));
#1258=CARTESIAN_POINT('',(0.163313524404355,0.439756029657602,0.1815));
#1259=CARTESIAN_POINT('',(0.163313524404355,0.439756029657602,0.2055));
#1260=CARTESIAN_POINT('',(0.163313524404355,0.439756029657602,0.2055));
#1261=CARTESIAN_POINT('',(0.145813524404355,0.439756029657602,0.1815));
#1262=CARTESIAN_POINT('',(0.131313524404355,0.439756029657602,0.2085));
#1263=CARTESIAN_POINT('',(0.131313524404355,0.439756029657602,0.1845));
#1264=CARTESIAN_POINT('',(0.131313524404355,0.439756029657602,0.2055));
#1265=CARTESIAN_POINT('',(0.163313524404355,0.439756029657602,0.2055));
#1266=CARTESIAN_POINT('',(0.183313524404355,0.439756029657602,0.188447915675596));
#1267=CARTESIAN_POINT('',(0.180313524404355,0.439756029657602,0.188447915675596));
#1268=CARTESIAN_POINT('',(0.180313524404355,0.439756029657602,0.1845));
#1269=CARTESIAN_POINT('',(0.180313524404355,0.439756029657602,0.1845));
#1270=CARTESIAN_POINT('',(0.183313524404355,0.439756029657602,0.1845));
#1271=CARTESIAN_POINT('',(0.163313524404355,0.439756029657602,0.1845));
#1272=CARTESIAN_POINT('',(0.145813524404355,0.439756029657602,0.1845));
#1273=CARTESIAN_POINT('',(0.128313524404355,0.398756029657602,0.1815));
#1274=CARTESIAN_POINT('',(0.128313524404355,0.382506029657602,0.19838858210906));
#1275=CARTESIAN_POINT('',(0.128313524404355,0.388006029657602,0.19838858210906));
#1276=CARTESIAN_POINT('',(0.128313524404355,0.360756029657602,0.1815));
#1277=CARTESIAN_POINT('',(0.128313524404355,0.360756029657602,0.1845));
#1278=CARTESIAN_POINT('',(0.128313524404355,0.360756029657602,0.2055));
#1279=CARTESIAN_POINT('',(0.128313524404355,0.398756029657602,0.2055));
#1280=CARTESIAN_POINT('',(0.128313524404355,0.436756029657602,0.2055));
#1281=CARTESIAN_POINT('',(0.128313524404355,0.436756029657602,0.1815));
#1282=CARTESIAN_POINT('',(0.128313524404355,0.436756029657602,0.1845));
#1283=CARTESIAN_POINT('',(0.128313524404355,0.357756029657602,0.1845));
#1284=CARTESIAN_POINT('',(0.145813524404355,0.357756029657602,0.1815));
#1285=CARTESIAN_POINT('',(0.145813524404355,0.357756029657602,0.2055));
#1286=CARTESIAN_POINT('',(0.131313524404355,0.357756029657602,0.2055));
#1287=CARTESIAN_POINT('',(0.131313524404355,0.357756029657602,0.1815));
#1288=CARTESIAN_POINT('',(0.131313524404355,0.357756029657602,0.1845));
#1289=CARTESIAN_POINT('',(0.163313524404355,0.357756029657602,0.1845));
#1290=CARTESIAN_POINT('',(0.163313524404355,0.357756029657602,0.1845));
#1291=CARTESIAN_POINT('',(0.183313524404355,0.357756029657602,0.1845));
#1292=CARTESIAN_POINT('',(0.180313524404355,0.357756029657602,0.1845));
#1293=CARTESIAN_POINT('',(0.180313524404355,0.357756029657602,0.188447915675596));
#1294=CARTESIAN_POINT('',(0.180313524404355,0.357756029657602,0.188447915675596));
#1295=CARTESIAN_POINT('',(0.183313524404355,0.357756029657602,0.188447915675596));
#1296=CARTESIAN_POINT('',(-0.039711303952946,0.398756029657602,0.2085));
#1297=CARTESIAN_POINT('',(0.131313524404355,0.398756029657602,0.2085));
#1298=CARTESIAN_POINT('',(0.131313524404355,0.436756029657602,0.2085));
#1299=CARTESIAN_POINT('',(0.131313524404355,0.360756029657602,0.2085));
#1300=CARTESIAN_POINT('',(-0.039711303952946,0.360756029657602,0.2085));
#1301=CARTESIAN_POINT('',(0.128313524404355,0.436756029657602,0.2085));
#1302=CARTESIAN_POINT('',(0.594184032928131,0.382506029657602,0.19838858210906));
#1303=CARTESIAN_POINT('',(0.131313524404355,0.382506029657602,0.19838858210906));
#1304=CARTESIAN_POINT('',(0.131313524404355,0.385006029657602,0.19838858210906));
#1305=CARTESIAN_POINT('',(0.183313524404355,0.398756029657602,0.188447915675596));
#1306=CARTESIAN_POINT('',(0.173313524404355,0.431552546262741,0.188447915675596));
#1307=CARTESIAN_POINT('',(0.173313524404355,0.434052546262741,0.188447915675596));
#1308=CARTESIAN_POINT('',(0.173313524404355,0.386552546262741,0.188447915675596));
#1309=CARTESIAN_POINT('',(0.173313524404355,0.389052546262741,0.188447915675596));
#1310=CARTESIAN_POINT('',(0.183313524404355,0.398756029657602,0.188447915675596));
#1311=CARTESIAN_POINT('',(0.183313524404355,0.436756029657602,0.188447915675596));
#1312=CARTESIAN_POINT('',(0.183313524404355,0.360756029657602,0.188447915675596));
#1313=CARTESIAN_POINT('',(0.183313524404355,0.436756029657602,0.188447915675596));
#1314=CARTESIAN_POINT('',(0.183313524404355,0.360756029657602,0.188447915675596));
#1315=CARTESIAN_POINT('',(0.183313524404355,0.359256029657602,0.183));
#1316=CARTESIAN_POINT('',(0.169688524404355,0.371381029657602,0.170875));
#1317=CARTESIAN_POINT('',(0.181813524404355,0.359256029657602,0.183));
#1318=CARTESIAN_POINT('',(0.260988871791756,0.438431377045003,0.103824652612599));
#1319=CARTESIAN_POINT('',(0.131313524404355,0.357756029657602,0.1845));
#1320=CARTESIAN_POINT('',(0.183313524404355,0.438256029657602,0.183));
#1321=CARTESIAN_POINT('',(0.260988871791756,0.359080682270201,0.103824652612599));
#1322=CARTESIAN_POINT('',(0.181813524404355,0.438256029657602,0.183));
#1323=CARTESIAN_POINT('',(0.169605191071021,0.426047696324268,0.170791666666667));
#1324=CARTESIAN_POINT('',(0.131313524404355,0.438256029657602,0.183));
#1325=CARTESIAN_POINT('',(0.183313524404355,0.398631029657602,-0.0515260421622018));
#1326=CARTESIAN_POINT('',(0.183313524404355,0.436756029657602,0.1845));
#1327=CARTESIAN_POINT('',(0.183313524404355,0.360756029657602,0.1845));
#1328=CARTESIAN_POINT('',(0.183313524404355,0.436756029657602,0.1845));
#1329=CARTESIAN_POINT('',(0.183313524404355,0.436756029657602,0.188447915675596));
#1330=CARTESIAN_POINT('',(0.183313524404355,0.360756029657602,0.1845));
#1331=CARTESIAN_POINT('',(0.183313524404355,0.360756029657602,-0.0515260421622018));
#1332=CARTESIAN_POINT('',(0.195938524404355,0.373381029657602,0.197125));
#1333=CARTESIAN_POINT('',(0.183313524404355,0.398631029657602,0.1845));
#1334=CARTESIAN_POINT('',(0.104638177016954,0.515431377045003,0.105824652612599));
#1335=CARTESIAN_POINT('',(0.183313524404355,0.436756029657602,-0.0515260421622018));
#1336=CARTESIAN_POINT('',(0.173313524404355,0.386552546262741,0.565856028364463));
#1337=CARTESIAN_POINT('',(0.173313524404355,0.386552546262741,0.1835));
#1338=CARTESIAN_POINT('',(0.173313524404355,0.384052546262741,0.1835));
#1339=CARTESIAN_POINT('',(0.173313524404355,0.431552546262741,0.565856028364463));
#1340=CARTESIAN_POINT('',(0.173313524404355,0.431552546262741,0.1835));
#1341=CARTESIAN_POINT('',(0.173313524404355,0.429052546262741,0.1835));
#1342=CARTESIAN_POINT('',(0.173313524404355,0.386552546262741,0.1815));
#1343=CARTESIAN_POINT('',(0.173313524404355,0.431552546262741,0.1815));
#1344=CARTESIAN_POINT('',(0.131313524404355,0.382506029657602,0.19838858210906));
#1345=CARTESIAN_POINT('',(0.131313524404355,0.439756029657602,0.1815));
#1346=CARTESIAN_POINT('',(0.131313524404355,0.439756029657602,0.2055));
#1347=CARTESIAN_POINT('',(0.128313524404355,0.436756029657602,0.1845));
#1348=CARTESIAN_POINT('',(0.145813524404355,0.439756029657602,0.2055));
#1349=CARTESIAN_POINT('',(0.131313524404355,0.439756029657602,0.2055));
#1350=CARTESIAN_POINT('',(0.128313524404355,0.436756029657602,0.1845));
#1351=CARTESIAN_POINT('',(0.128313524404355,0.436756029657602,0.1845));
#1352=CARTESIAN_POINT('',(0.131313524404355,0.439756029657602,0.2055));
#1353=CARTESIAN_POINT('',(0.129813524404355,0.436756029657602,0.207));
#1354=CARTESIAN_POINT('',(0.128313524404355,0.398756029657602,0.1845));
#1355=CARTESIAN_POINT('',(0.129813524404355,0.360756029657602,0.183));
#1356=CARTESIAN_POINT('',(0.131313524404355,0.398756029657602,0.2085));
#1357=CARTESIAN_POINT('',(0.128313524404355,0.360756029657602,0.2055));
#1358=CARTESIAN_POINT('',(-0.039711303952946,0.360756029657602,0.2085));
#1359=CARTESIAN_POINT('',(0.131313524404355,0.359256029657602,0.207));
#1360=CARTESIAN_POINT('',(0.131313524404355,0.357756029657602,0.1845));
#1361=CARTESIAN_POINT('',(0.131313524404355,0.357756029657602,0.1845));
#1362=CARTESIAN_POINT('',(0.128313524404355,0.360756029657602,0.2055));
#1363=CARTESIAN_POINT('',(0.128313524404355,0.360756029657602,0.2055));
#1364=CARTESIAN_POINT('',(0.128313524404355,0.360756029657602,0.1815));
#1365=CARTESIAN_POINT('',(0.146313524404355,0.427006029657602,0.1681));
#1366=CARTESIAN_POINT('',(0.146513524404355,0.427006029657602,0.1745));
#1367=CARTESIAN_POINT('',(0.149013524404355,0.427006029657602,0.1745));
#1368=CARTESIAN_POINT('',(0.146313524404355,0.427006029657602,0.1681));
#1369=CARTESIAN_POINT('',(0.149813524404355,0.427006029657602,0.1681));
#1370=CARTESIAN_POINT('',(0.142813524404355,0.427006029657602,0.1681));
#1371=CARTESIAN_POINT('',(0.144563524404355,0.427006029657602,0.16635));
#1372=CARTESIAN_POINT('',(0.137813524404355,0.427006029657602,0.1731));
#1373=CARTESIAN_POINT('',(0.137813524404355,0.427006029657602,0.1681));
#1374=CARTESIAN_POINT('',(0.154813524404355,0.427006029657602,0.1681));
#1375=CARTESIAN_POINT('',(0.154813524404355,0.427006029657602,0.1731));
#1376=CARTESIAN_POINT('',(0.148063524404355,0.427006029657602,0.16635));
#1377=CARTESIAN_POINT('',(0.154813524404355,0.425756029657602,0.1681));
#1378=CARTESIAN_POINT('',(0.154813524404355,0.424506029657602,0.1681));
#1379=CARTESIAN_POINT('',(0.154813524404355,0.424506029657602,0.1731));
#1380=CARTESIAN_POINT('',(0.154813524404355,0.427006029657602,0.1731));
#1381=CARTESIAN_POINT('',(0.137813524404355,0.425756029657602,0.1681));
#1382=CARTESIAN_POINT('',(0.137813524404355,0.425756029657602,0.1731));
#1383=CARTESIAN_POINT('',(0.137813524404355,0.424506029657602,0.1731));
#1384=CARTESIAN_POINT('',(0.137813524404355,0.424506029657602,0.1681));
#1385=CARTESIAN_POINT('',(0.146313524404355,0.424506029657602,0.1681));
#1386=CARTESIAN_POINT('',(0.146513524404355,0.424506029657602,0.1745));
#1387=CARTESIAN_POINT('',(0.149013524404355,0.424506029657602,0.1745));
#1388=CARTESIAN_POINT('',(0.137813524404355,0.424506029657602,0.1731));
#1389=CARTESIAN_POINT('',(0.142813524404355,0.424506029657602,0.1681));
#1390=CARTESIAN_POINT('',(0.146313524404355,0.424506029657602,0.1681));
#1391=CARTESIAN_POINT('',(0.149813524404355,0.424506029657602,0.1681));
#1392=CARTESIAN_POINT('',(0.149813524404355,0.424506029657602,0.1681));
#1393=CARTESIAN_POINT('',(-0.039711303952946,0.400006029657602,0.1681));
#1394=CARTESIAN_POINT('',(0.142813524404355,0.400006029657602,0.1681));
#1395=CARTESIAN_POINT('',(0.149813524404355,0.424506029657602,0.1681));
#1396=CARTESIAN_POINT('',(0.154813524404355,0.414256029657602,0.1681));
#1397=CARTESIAN_POINT('',(0.154813524404355,0.413006029657602,0.1681));
#1398=CARTESIAN_POINT('',(0.154813524404355,0.413006029657602,0.1731));
#1399=CARTESIAN_POINT('',(0.154813524404355,0.414256029657602,0.1731));
#1400=CARTESIAN_POINT('',(0.154813524404355,0.415506029657602,0.1731));
#1401=CARTESIAN_POINT('',(0.154813524404355,0.415506029657602,0.1681));
#1402=CARTESIAN_POINT('',(0.146313524404355,0.413006029657602,0.1681));
#1403=CARTESIAN_POINT('',(0.146513524404355,0.413006029657602,0.1745));
#1404=CARTESIAN_POINT('',(0.149013524404355,0.413006029657602,0.1745));
#1405=CARTESIAN_POINT('',(0.137813524404355,0.413006029657602,0.1681));
#1406=CARTESIAN_POINT('',(0.137813524404355,0.413006029657602,0.1731));
#1407=CARTESIAN_POINT('',(0.142813524404355,0.413006029657602,0.1681));
#1408=CARTESIAN_POINT('',(0.142813524404355,0.413006029657602,0.1681));
#1409=CARTESIAN_POINT('',(0.146313524404355,0.413006029657602,0.1681));
#1410=CARTESIAN_POINT('',(0.149813524404355,0.413006029657602,0.1681));
#1411=CARTESIAN_POINT('',(0.154813524404355,0.413006029657602,0.1731));
#1412=CARTESIAN_POINT('',(0.137813524404355,0.414256029657602,0.1681));
#1413=CARTESIAN_POINT('',(0.137813524404355,0.415506029657602,0.1681));
#1414=CARTESIAN_POINT('',(0.137813524404355,0.415506029657602,0.1731));
#1415=CARTESIAN_POINT('',(0.137813524404355,0.413006029657602,0.1731));
#1416=CARTESIAN_POINT('',(0.146313524404355,0.415506029657602,0.1681));
#1417=CARTESIAN_POINT('',(0.146513524404355,0.415506029657602,0.1745));
#1418=CARTESIAN_POINT('',(0.149013524404355,0.415506029657602,0.1745));
#1419=CARTESIAN_POINT('',(0.146313524404355,0.415506029657602,0.1681));
#1420=CARTESIAN_POINT('',(0.149813524404355,0.415506029657602,0.1681));
#1421=CARTESIAN_POINT('',(0.142813524404355,0.415506029657602,0.1681));
#1422=CARTESIAN_POINT('',(0.144563524404355,0.415506029657602,0.16635));
#1423=CARTESIAN_POINT('',(0.148063524404355,0.415506029657602,0.16635));
#1424=CARTESIAN_POINT('',(-0.039711303952946,0.400006029657602,0.1681));
#1425=CARTESIAN_POINT('',(0.142813524404355,0.415506029657602,0.1681));
#1426=CARTESIAN_POINT('',(0.149813524404355,0.400006029657602,0.1681));
#1427=CARTESIAN_POINT('',(0.137813524404355,0.425756029657602,0.1731));
#1428=CARTESIAN_POINT('',(0.149813524404355,0.400006029657602,0.1681));
#1429=CARTESIAN_POINT('',(0.142813524404355,0.400006029657602,0.1681));
#1430=CARTESIAN_POINT('',(0.154813524404355,0.414256029657602,0.1731));
#1431=CARTESIAN_POINT('',(0.146513524404355,1.22387452636245,0.1745));
#1432=CARTESIAN_POINT('',(0.146513524404355,1.22387452636245,0.1745));
#1433=CARTESIAN_POINT('',(0.147313524404355,0.400052546262741,0.181498));
#1434=CARTESIAN_POINT('',(0.147313524404355,0.400052546262741,0.2055));
#1435=CARTESIAN_POINT('',(0.147313524404355,0.409552546262741,0.2055));
#1436=CARTESIAN_POINT('',(-0.042461303952946,0.398756029657602,0.2055));
#1437=MECHANICAL_DESIGN_GEOMETRIC_PRESENTATION_REPRESENTATION('',(#887),
#1438);
#1438=(
GEOMETRIC_REPRESENTATION_CONTEXT(3)
GLOBAL_UNCERTAINTY_ASSIGNED_CONTEXT((#1439))
GLOBAL_UNIT_ASSIGNED_CONTEXT((#1442,#1441,#1440))
REPRESENTATION_CONTEXT('TFR-Rod Mount','TOP_LEVEL_ASSEMBLY_PART')
);
#1439=UNCERTAINTY_MEASURE_WITH_UNIT(LENGTH_MEASURE(1.E-8),#1442,
'DISTANCE_ACCURACY_VALUE','Maximum Tolerance applied to model');
#1440=(
NAMED_UNIT(*)
SI_UNIT($,.STERADIAN.)
SOLID_ANGLE_UNIT()
);
#1441=(
NAMED_UNIT(*)
PLANE_ANGLE_UNIT()
SI_UNIT($,.RADIAN.)
);
#1442=(
LENGTH_UNIT()
NAMED_UNIT(*)
SI_UNIT($,.METRE.)
);
#1443=PRODUCT_DEFINITION_SHAPE('','',#1444);
#1444=PRODUCT_DEFINITION('','',#1446,#1445);
#1445=PRODUCT_DEFINITION_CONTEXT('',#1452,'design');
#1446=PRODUCT_DEFINITION_FORMATION_WITH_SPECIFIED_SOURCE('','',#1448,
 .NOT_KNOWN.);
#1447=PRODUCT_RELATED_PRODUCT_CATEGORY('','',(#1448));
#1448=PRODUCT('TFR-Rod Mount','TFR-Rod Mount','TFR-Rod Mount',(#1450));
#1449=PRODUCT_CATEGORY('','');
#1450=PRODUCT_CONTEXT('',#1452,'mechanical');
#1451=APPLICATION_PROTOCOL_DEFINITION('international standard',
'ap242_managed_model_based_3d_engineering',2020,#1452);
#1452=APPLICATION_CONTEXT('managed model based 3d engineering');
ENDSEC;
END-ISO-10303-21;
