ISO-10303-21;
HEADER;
/* Generated by software containing ST-Developer
 * from STEP Tools, Inc. (www.steptools.com) 
 */
/* OPTION: using custom renumber hook */

FILE_DESCRIPTION(
/* description */ ('STEP AP242 Edition 2',
'CAx-IF Rec.Pracs.---Representation and Presentation of Product Manufa
cturing Information (PMI)---4.0---2014-10-13',
'CAx-IF Rec.Pracs.---3D Tessellated Geometry---0.4---2014-09-14','2;1',
'CAx-IF Rec.Pracs.---User Defined Attributes---1.5---2016-08-15'),
/* implementation_level */ '2;1');

FILE_NAME(
/* name */ 'NOT-618 - XY1_BOT',
/* time_stamp */ '2026-07-11T06:09:26Z',
/* author */ (''),
/* organization */ (''),
/* preprocessor_version */ 'ST-DEVELOPER v20',
/* originating_system */ 'ONSHAPE BY PTC INC, 1.217',
/* authorisation */ '  ');

FILE_SCHEMA (('AP242_MANAGED_MODEL_BASED_3D_ENGINEERING_MIM_LF { 1 0 10303 442 3 1 4 }'));
ENDSEC;

DATA;
#10=SHAPE_REPRESENTATION_RELATIONSHIP('','',#924,#11);
#11=ADVANCED_BREP_SHAPE_REPRESENTATION('',(#922),#1489);
#12=ELLIPSE('',#939,0.0148492424049175,0.0105);
#13=ELLIPSE('',#940,0.0148492424049175,0.0105);
#14=ELLIPSE('',#949,0.0105523694021769,0.0105);
#15=CYLINDRICAL_SURFACE('',#931,0.0025);
#16=CYLINDRICAL_SURFACE('',#938,0.0105);
#17=CYLINDRICAL_SURFACE('',#944,0.005);
#18=CYLINDRICAL_SURFACE('',#948,0.0105);
#19=CYLINDRICAL_SURFACE('',#974,0.0025);
#20=CYLINDRICAL_SURFACE('',#989,0.0016);
#21=CIRCLE('',#929,0.0105);
#22=CIRCLE('',#932,0.0025);
#23=CIRCLE('',#933,0.0025);
#24=CIRCLE('',#935,0.0105);
#25=CIRCLE('',#937,0.0105);
#26=CIRCLE('',#945,0.005);
#27=CIRCLE('',#946,0.005);
#28=CIRCLE('',#950,0.0105);
#29=CIRCLE('',#954,0.0025);
#30=CIRCLE('',#975,0.0025);
#31=CIRCLE('',#988,0.0016);
#32=CIRCLE('',#990,0.0016);
#33=ORIENTED_EDGE('',*,*,#279,.F.);
#34=ORIENTED_EDGE('',*,*,#280,.F.);
#35=ORIENTED_EDGE('',*,*,#281,.T.);
#36=ORIENTED_EDGE('',*,*,#282,.T.);
#37=ORIENTED_EDGE('',*,*,#283,.T.);
#38=ORIENTED_EDGE('',*,*,#284,.F.);
#39=ORIENTED_EDGE('',*,*,#285,.T.);
#40=ORIENTED_EDGE('',*,*,#286,.F.);
#41=ORIENTED_EDGE('',*,*,#280,.T.);
#42=ORIENTED_EDGE('',*,*,#287,.T.);
#43=ORIENTED_EDGE('',*,*,#288,.T.);
#44=ORIENTED_EDGE('',*,*,#289,.F.);
#45=ORIENTED_EDGE('',*,*,#284,.T.);
#46=ORIENTED_EDGE('',*,*,#290,.F.);
#47=ORIENTED_EDGE('',*,*,#291,.T.);
#48=ORIENTED_EDGE('',*,*,#292,.F.);
#49=ORIENTED_EDGE('',*,*,#293,.F.);
#50=ORIENTED_EDGE('',*,*,#294,.T.);
#51=ORIENTED_EDGE('',*,*,#295,.T.);
#52=ORIENTED_EDGE('',*,*,#296,.T.);
#53=ORIENTED_EDGE('',*,*,#297,.F.);
#54=ORIENTED_EDGE('',*,*,#298,.T.);
#55=ORIENTED_EDGE('',*,*,#299,.T.);
#56=ORIENTED_EDGE('',*,*,#300,.T.);
#57=ORIENTED_EDGE('',*,*,#301,.T.);
#58=ORIENTED_EDGE('',*,*,#302,.F.);
#59=ORIENTED_EDGE('',*,*,#303,.T.);
#60=ORIENTED_EDGE('',*,*,#304,.T.);
#61=ORIENTED_EDGE('',*,*,#305,.T.);
#62=ORIENTED_EDGE('',*,*,#306,.T.);
#63=ORIENTED_EDGE('',*,*,#307,.F.);
#64=ORIENTED_EDGE('',*,*,#299,.F.);
#65=ORIENTED_EDGE('',*,*,#308,.T.);
#66=ORIENTED_EDGE('',*,*,#309,.F.);
#67=ORIENTED_EDGE('',*,*,#310,.F.);
#68=ORIENTED_EDGE('',*,*,#311,.T.);
#69=ORIENTED_EDGE('',*,*,#312,.F.);
#70=ORIENTED_EDGE('',*,*,#313,.T.);
#71=ORIENTED_EDGE('',*,*,#314,.T.);
#72=ORIENTED_EDGE('',*,*,#315,.F.);
#73=ORIENTED_EDGE('',*,*,#316,.T.);
#74=ORIENTED_EDGE('',*,*,#317,.T.);
#75=ORIENTED_EDGE('',*,*,#318,.T.);
#76=ORIENTED_EDGE('',*,*,#319,.T.);
#77=ORIENTED_EDGE('',*,*,#320,.T.);
#78=ORIENTED_EDGE('',*,*,#321,.T.);
#79=ORIENTED_EDGE('',*,*,#322,.T.);
#80=ORIENTED_EDGE('',*,*,#323,.T.);
#81=ORIENTED_EDGE('',*,*,#324,.F.);
#82=ORIENTED_EDGE('',*,*,#309,.T.);
#83=ORIENTED_EDGE('',*,*,#325,.F.);
#84=ORIENTED_EDGE('',*,*,#326,.T.);
#85=ORIENTED_EDGE('',*,*,#327,.T.);
#86=ORIENTED_EDGE('',*,*,#328,.T.);
#87=ORIENTED_EDGE('',*,*,#329,.T.);
#88=ORIENTED_EDGE('',*,*,#330,.T.);
#89=ORIENTED_EDGE('',*,*,#331,.T.);
#90=ORIENTED_EDGE('',*,*,#332,.F.);
#91=ORIENTED_EDGE('',*,*,#325,.T.);
#92=ORIENTED_EDGE('',*,*,#333,.T.);
#93=ORIENTED_EDGE('',*,*,#291,.F.);
#94=ORIENTED_EDGE('',*,*,#334,.T.);
#95=ORIENTED_EDGE('',*,*,#316,.F.);
#96=ORIENTED_EDGE('',*,*,#327,.F.);
#97=ORIENTED_EDGE('',*,*,#335,.T.);
#98=ORIENTED_EDGE('',*,*,#305,.F.);
#99=ORIENTED_EDGE('',*,*,#336,.F.);
#100=ORIENTED_EDGE('',*,*,#281,.F.);
#101=ORIENTED_EDGE('',*,*,#292,.T.);
#102=ORIENTED_EDGE('',*,*,#333,.F.);
#103=ORIENTED_EDGE('',*,*,#331,.F.);
#104=ORIENTED_EDGE('',*,*,#337,.T.);
#105=ORIENTED_EDGE('',*,*,#334,.F.);
#106=ORIENTED_EDGE('',*,*,#290,.T.);
#107=ORIENTED_EDGE('',*,*,#283,.F.);
#108=ORIENTED_EDGE('',*,*,#338,.T.);
#109=ORIENTED_EDGE('',*,*,#317,.F.);
#110=ORIENTED_EDGE('',*,*,#339,.F.);
#111=ORIENTED_EDGE('',*,*,#340,.F.);
#112=ORIENTED_EDGE('',*,*,#341,.F.);
#113=ORIENTED_EDGE('',*,*,#342,.F.);
#114=ORIENTED_EDGE('',*,*,#343,.T.);
#115=ORIENTED_EDGE('',*,*,#344,.T.);
#116=ORIENTED_EDGE('',*,*,#345,.T.);
#117=ORIENTED_EDGE('',*,*,#346,.T.);
#118=ORIENTED_EDGE('',*,*,#347,.T.);
#119=ORIENTED_EDGE('',*,*,#348,.T.);
#120=ORIENTED_EDGE('',*,*,#307,.T.);
#121=ORIENTED_EDGE('',*,*,#349,.T.);
#122=ORIENTED_EDGE('',*,*,#350,.T.);
#123=ORIENTED_EDGE('',*,*,#351,.T.);
#124=ORIENTED_EDGE('',*,*,#348,.F.);
#125=ORIENTED_EDGE('',*,*,#352,.T.);
#126=ORIENTED_EDGE('',*,*,#353,.T.);
#127=ORIENTED_EDGE('',*,*,#351,.F.);
#128=ORIENTED_EDGE('',*,*,#354,.T.);
#129=ORIENTED_EDGE('',*,*,#282,.F.);
#130=ORIENTED_EDGE('',*,*,#355,.T.);
#131=ORIENTED_EDGE('',*,*,#352,.F.);
#132=ORIENTED_EDGE('',*,*,#347,.F.);
#133=ORIENTED_EDGE('',*,*,#356,.T.);
#134=ORIENTED_EDGE('',*,*,#322,.F.);
#135=ORIENTED_EDGE('',*,*,#357,.T.);
#136=ORIENTED_EDGE('',*,*,#302,.T.);
#137=ORIENTED_EDGE('',*,*,#358,.T.);
#138=ORIENTED_EDGE('',*,*,#359,.T.);
#139=ORIENTED_EDGE('',*,*,#340,.T.);
#140=ORIENTED_EDGE('',*,*,#360,.F.);
#141=ORIENTED_EDGE('',*,*,#361,.T.);
#142=ORIENTED_EDGE('',*,*,#362,.F.);
#143=ORIENTED_EDGE('',*,*,#363,.T.);
#144=ORIENTED_EDGE('',*,*,#360,.T.);
#145=ORIENTED_EDGE('',*,*,#339,.T.);
#146=ORIENTED_EDGE('',*,*,#359,.F.);
#147=ORIENTED_EDGE('',*,*,#364,.T.);
#148=ORIENTED_EDGE('',*,*,#365,.F.);
#149=ORIENTED_EDGE('',*,*,#341,.T.);
#150=ORIENTED_EDGE('',*,*,#311,.F.);
#151=ORIENTED_EDGE('',*,*,#300,.F.);
#152=ORIENTED_EDGE('',*,*,#310,.T.);
#153=ORIENTED_EDGE('',*,*,#324,.T.);
#154=ORIENTED_EDGE('',*,*,#366,.T.);
#155=ORIENTED_EDGE('',*,*,#362,.T.);
#156=ORIENTED_EDGE('',*,*,#342,.T.);
#157=ORIENTED_EDGE('',*,*,#365,.T.);
#158=ORIENTED_EDGE('',*,*,#367,.T.);
#159=ORIENTED_EDGE('',*,*,#358,.F.);
#160=ORIENTED_EDGE('',*,*,#301,.F.);
#161=ORIENTED_EDGE('',*,*,#367,.F.);
#162=ORIENTED_EDGE('',*,*,#364,.F.);
#163=ORIENTED_EDGE('',*,*,#361,.F.);
#164=ORIENTED_EDGE('',*,*,#363,.F.);
#165=ORIENTED_EDGE('',*,*,#366,.F.);
#166=ORIENTED_EDGE('',*,*,#323,.F.);
#167=ORIENTED_EDGE('',*,*,#368,.F.);
#168=ORIENTED_EDGE('',*,*,#336,.T.);
#169=ORIENTED_EDGE('',*,*,#369,.F.);
#170=ORIENTED_EDGE('',*,*,#357,.F.);
#171=ORIENTED_EDGE('',*,*,#321,.F.);
#172=ORIENTED_EDGE('',*,*,#370,.F.);
#173=ORIENTED_EDGE('',*,*,#303,.F.);
#174=ORIENTED_EDGE('',*,*,#369,.T.);
#175=ORIENTED_EDGE('',*,*,#304,.F.);
#176=ORIENTED_EDGE('',*,*,#371,.F.);
#177=ORIENTED_EDGE('',*,*,#346,.F.);
#178=ORIENTED_EDGE('',*,*,#368,.T.);
#179=ORIENTED_EDGE('',*,*,#345,.F.);
#180=ORIENTED_EDGE('',*,*,#372,.F.);
#181=ORIENTED_EDGE('',*,*,#328,.F.);
#182=ORIENTED_EDGE('',*,*,#371,.T.);
#183=ORIENTED_EDGE('',*,*,#370,.T.);
#184=ORIENTED_EDGE('',*,*,#373,.F.);
#185=ORIENTED_EDGE('',*,*,#374,.F.);
#186=ORIENTED_EDGE('',*,*,#372,.T.);
#187=ORIENTED_EDGE('',*,*,#375,.F.);
#188=ORIENTED_EDGE('',*,*,#373,.T.);
#189=ORIENTED_EDGE('',*,*,#320,.F.);
#190=ORIENTED_EDGE('',*,*,#376,.F.);
#191=ORIENTED_EDGE('',*,*,#343,.F.);
#192=ORIENTED_EDGE('',*,*,#375,.T.);
#193=ORIENTED_EDGE('',*,*,#344,.F.);
#194=ORIENTED_EDGE('',*,*,#377,.F.);
#195=ORIENTED_EDGE('',*,*,#349,.F.);
#196=ORIENTED_EDGE('',*,*,#374,.T.);
#197=ORIENTED_EDGE('',*,*,#353,.F.);
#198=ORIENTED_EDGE('',*,*,#378,.F.);
#199=ORIENTED_EDGE('',*,*,#329,.F.);
#200=ORIENTED_EDGE('',*,*,#377,.T.);
#201=ORIENTED_EDGE('',*,*,#376,.T.);
#202=ORIENTED_EDGE('',*,*,#379,.F.);
#203=ORIENTED_EDGE('',*,*,#378,.T.);
#204=ORIENTED_EDGE('',*,*,#355,.F.);
#205=ORIENTED_EDGE('',*,*,#337,.F.);
#206=ORIENTED_EDGE('',*,*,#330,.F.);
#207=ORIENTED_EDGE('',*,*,#379,.T.);
#208=ORIENTED_EDGE('',*,*,#319,.F.);
#209=ORIENTED_EDGE('',*,*,#380,.F.);
#210=ORIENTED_EDGE('',*,*,#350,.F.);
#211=ORIENTED_EDGE('',*,*,#380,.T.);
#212=ORIENTED_EDGE('',*,*,#318,.F.);
#213=ORIENTED_EDGE('',*,*,#338,.F.);
#214=ORIENTED_EDGE('',*,*,#354,.F.);
#215=ORIENTED_EDGE('',*,*,#381,.F.);
#216=ORIENTED_EDGE('',*,*,#306,.F.);
#217=ORIENTED_EDGE('',*,*,#335,.F.);
#218=ORIENTED_EDGE('',*,*,#326,.F.);
#219=ORIENTED_EDGE('',*,*,#332,.T.);
#220=ORIENTED_EDGE('',*,*,#315,.T.);
#221=ORIENTED_EDGE('',*,*,#382,.F.);
#222=ORIENTED_EDGE('',*,*,#383,.F.);
#223=ORIENTED_EDGE('',*,*,#296,.F.);
#224=ORIENTED_EDGE('',*,*,#384,.T.);
#225=ORIENTED_EDGE('',*,*,#385,.T.);
#226=ORIENTED_EDGE('',*,*,#386,.F.);
#227=ORIENTED_EDGE('',*,*,#356,.F.);
#228=ORIENTED_EDGE('',*,*,#386,.T.);
#229=ORIENTED_EDGE('',*,*,#298,.F.);
#230=ORIENTED_EDGE('',*,*,#387,.T.);
#231=ORIENTED_EDGE('',*,*,#388,.T.);
#232=ORIENTED_EDGE('',*,*,#313,.F.);
#233=ORIENTED_EDGE('',*,*,#308,.F.);
#234=ORIENTED_EDGE('',*,*,#312,.T.);
#235=ORIENTED_EDGE('',*,*,#383,.T.);
#236=ORIENTED_EDGE('',*,*,#389,.F.);
#237=ORIENTED_EDGE('',*,*,#387,.F.);
#238=ORIENTED_EDGE('',*,*,#297,.T.);
#239=ORIENTED_EDGE('',*,*,#382,.T.);
#240=ORIENTED_EDGE('',*,*,#314,.F.);
#241=ORIENTED_EDGE('',*,*,#388,.F.);
#242=ORIENTED_EDGE('',*,*,#389,.T.);
#243=ORIENTED_EDGE('',*,*,#286,.T.);
#244=ORIENTED_EDGE('',*,*,#390,.T.);
#245=ORIENTED_EDGE('',*,*,#391,.F.);
#246=ORIENTED_EDGE('',*,*,#392,.F.);
#247=ORIENTED_EDGE('',*,*,#279,.T.);
#248=ORIENTED_EDGE('',*,*,#392,.T.);
#249=ORIENTED_EDGE('',*,*,#393,.F.);
#250=ORIENTED_EDGE('',*,*,#287,.F.);
#251=ORIENTED_EDGE('',*,*,#289,.T.);
#252=ORIENTED_EDGE('',*,*,#394,.T.);
#253=ORIENTED_EDGE('',*,*,#390,.F.);
#254=ORIENTED_EDGE('',*,*,#285,.F.);
#255=ORIENTED_EDGE('',*,*,#393,.T.);
#256=ORIENTED_EDGE('',*,*,#391,.T.);
#257=ORIENTED_EDGE('',*,*,#394,.F.);
#258=ORIENTED_EDGE('',*,*,#288,.F.);
#259=ORIENTED_EDGE('',*,*,#293,.T.);
#260=ORIENTED_EDGE('',*,*,#381,.T.);
#261=ORIENTED_EDGE('',*,*,#395,.T.);
#262=ORIENTED_EDGE('',*,*,#396,.F.);
#263=ORIENTED_EDGE('',*,*,#397,.T.);
#264=ORIENTED_EDGE('',*,*,#398,.F.);
#265=ORIENTED_EDGE('',*,*,#384,.F.);
#266=ORIENTED_EDGE('',*,*,#295,.F.);
#267=ORIENTED_EDGE('',*,*,#396,.T.);
#268=ORIENTED_EDGE('',*,*,#399,.F.);
#269=ORIENTED_EDGE('',*,*,#397,.F.);
#270=ORIENTED_EDGE('',*,*,#294,.F.);
#271=ORIENTED_EDGE('',*,*,#400,.T.);
#272=ORIENTED_EDGE('',*,*,#398,.T.);
#273=ORIENTED_EDGE('',*,*,#399,.T.);
#274=ORIENTED_EDGE('',*,*,#395,.F.);
#275=ORIENTED_EDGE('',*,*,#385,.F.);
#276=ORIENTED_EDGE('',*,*,#400,.F.);
#277=ORIENTED_EDGE('',*,*,#401,.F.);
#278=ORIENTED_EDGE('',*,*,#401,.T.);
#279=EDGE_CURVE('',#402,#403,#481,.T.);
#280=EDGE_CURVE('',#404,#402,#482,.T.);
#281=EDGE_CURVE('',#404,#405,#483,.T.);
#282=EDGE_CURVE('',#405,#406,#484,.T.);
#283=EDGE_CURVE('',#406,#407,#485,.T.);
#284=EDGE_CURVE('',#408,#407,#486,.T.);
#285=EDGE_CURVE('',#408,#409,#487,.T.);
#286=EDGE_CURVE('',#403,#409,#488,.T.);
#287=EDGE_CURVE('',#402,#410,#489,.T.);
#288=EDGE_CURVE('',#410,#411,#490,.T.);
#289=EDGE_CURVE('',#408,#411,#491,.T.);
#290=EDGE_CURVE('',#412,#407,#492,.F.);
#291=EDGE_CURVE('',#412,#413,#493,.T.);
#292=EDGE_CURVE('',#404,#413,#494,.T.);
#293=EDGE_CURVE('',#414,#415,#495,.T.);
#294=EDGE_CURVE('',#414,#416,#496,.T.);
#295=EDGE_CURVE('',#416,#417,#497,.T.);
#296=EDGE_CURVE('',#417,#418,#498,.T.);
#297=EDGE_CURVE('',#419,#418,#499,.T.);
#298=EDGE_CURVE('',#419,#420,#500,.T.);
#299=EDGE_CURVE('',#420,#421,#501,.T.);
#300=EDGE_CURVE('',#421,#422,#502,.T.);
#301=EDGE_CURVE('',#422,#423,#503,.T.);
#302=EDGE_CURVE('',#424,#423,#504,.T.);
#303=EDGE_CURVE('',#424,#425,#505,.T.);
#304=EDGE_CURVE('',#425,#426,#506,.T.);
#305=EDGE_CURVE('',#426,#427,#507,.T.);
#306=EDGE_CURVE('',#427,#415,#508,.T.);
#307=EDGE_CURVE('',#428,#428,#21,.T.);
#308=EDGE_CURVE('',#420,#429,#509,.T.);
#309=EDGE_CURVE('',#430,#429,#510,.T.);
#310=EDGE_CURVE('',#421,#430,#511,.T.);
#311=EDGE_CURVE('',#431,#431,#22,.T.);
#312=EDGE_CURVE('',#432,#432,#23,.F.);
#313=EDGE_CURVE('',#429,#433,#512,.T.);
#314=EDGE_CURVE('',#433,#434,#513,.T.);
#315=EDGE_CURVE('',#435,#434,#514,.T.);
#316=EDGE_CURVE('',#435,#436,#24,.T.);
#317=EDGE_CURVE('',#436,#437,#515,.T.);
#318=EDGE_CURVE('',#437,#438,#516,.T.);
#319=EDGE_CURVE('',#438,#439,#517,.T.);
#320=EDGE_CURVE('',#439,#440,#518,.T.);
#321=EDGE_CURVE('',#440,#441,#519,.T.);
#322=EDGE_CURVE('',#441,#442,#520,.T.);
#323=EDGE_CURVE('',#442,#443,#521,.T.);
#324=EDGE_CURVE('',#430,#443,#522,.T.);
#325=EDGE_CURVE('',#444,#445,#25,.T.);
#326=EDGE_CURVE('',#444,#446,#523,.T.);
#327=EDGE_CURVE('',#446,#447,#524,.T.);
#328=EDGE_CURVE('',#447,#448,#525,.T.);
#329=EDGE_CURVE('',#448,#449,#526,.T.);
#330=EDGE_CURVE('',#449,#450,#527,.T.);
#331=EDGE_CURVE('',#450,#445,#528,.T.);
#332=EDGE_CURVE('',#444,#435,#529,.F.);
#333=EDGE_CURVE('',#445,#413,#12,.T.);
#334=EDGE_CURVE('',#412,#436,#13,.F.);
#335=EDGE_CURVE('',#446,#427,#530,.F.);
#336=EDGE_CURVE('',#447,#426,#531,.F.);
#337=EDGE_CURVE('',#450,#405,#532,.T.);
#338=EDGE_CURVE('',#406,#437,#533,.T.);
#339=EDGE_CURVE('',#451,#452,#534,.T.);
#340=EDGE_CURVE('',#453,#451,#26,.F.);
#341=EDGE_CURVE('',#454,#453,#535,.F.);
#342=EDGE_CURVE('',#452,#454,#27,.T.);
#343=EDGE_CURVE('',#455,#456,#536,.T.);
#344=EDGE_CURVE('',#456,#457,#537,.T.);
#345=EDGE_CURVE('',#457,#458,#538,.T.);
#346=EDGE_CURVE('',#458,#455,#539,.T.);
#347=EDGE_CURVE('',#459,#460,#14,.F.);
#348=EDGE_CURVE('',#460,#459,#28,.F.);
#349=EDGE_CURVE('',#461,#462,#540,.T.);
#350=EDGE_CURVE('',#462,#463,#541,.T.);
#351=EDGE_CURVE('',#463,#459,#542,.T.);
#352=EDGE_CURVE('',#460,#464,#543,.T.);
#353=EDGE_CURVE('',#464,#461,#544,.T.);
#354=EDGE_CURVE('',#463,#406,#545,.F.);
#355=EDGE_CURVE('',#405,#464,#546,.F.);
#356=EDGE_CURVE('',#465,#465,#29,.T.);
#357=EDGE_CURVE('',#441,#424,#547,.T.);
#358=EDGE_CURVE('',#423,#466,#548,.T.);
#359=EDGE_CURVE('',#466,#453,#549,.T.);
#360=EDGE_CURVE('',#467,#451,#550,.T.);
#361=EDGE_CURVE('',#467,#442,#551,.F.);
#362=EDGE_CURVE('',#468,#452,#552,.T.);
#363=EDGE_CURVE('',#468,#467,#553,.T.);
#364=EDGE_CURVE('',#466,#469,#554,.T.);
#365=EDGE_CURVE('',#454,#469,#555,.T.);
#366=EDGE_CURVE('',#443,#468,#556,.F.);
#367=EDGE_CURVE('',#469,#422,#557,.T.);
#368=EDGE_CURVE('',#447,#458,#558,.F.);
#369=EDGE_CURVE('',#458,#426,#559,.F.);
#370=EDGE_CURVE('',#425,#440,#560,.T.);
#371=EDGE_CURVE('',#455,#425,#561,.T.);
#372=EDGE_CURVE('',#448,#457,#562,.T.);
#373=EDGE_CURVE('',#455,#440,#563,.T.);
#374=EDGE_CURVE('',#448,#461,#564,.F.);
#375=EDGE_CURVE('',#461,#457,#565,.T.);
#376=EDGE_CURVE('',#456,#439,#566,.F.);
#377=EDGE_CURVE('',#462,#456,#567,.F.);
#378=EDGE_CURVE('',#449,#464,#568,.T.);
#379=EDGE_CURVE('',#462,#439,#569,.T.);
#380=EDGE_CURVE('',#463,#438,#570,.T.);
#381=EDGE_CURVE('',#415,#470,#571,.T.);
#382=EDGE_CURVE('',#471,#434,#572,.T.);
#383=EDGE_CURVE('',#418,#471,#573,.T.);
#384=EDGE_CURVE('',#417,#472,#574,.T.);
#385=EDGE_CURVE('',#472,#470,#575,.T.);
#386=EDGE_CURVE('',#473,#473,#30,.T.);
#387=EDGE_CURVE('',#419,#474,#576,.T.);
#388=EDGE_CURVE('',#474,#433,#577,.T.);
#389=EDGE_CURVE('',#474,#471,#578,.T.);
#390=EDGE_CURVE('',#409,#475,#579,.T.);
#391=EDGE_CURVE('',#476,#475,#580,.T.);
#392=EDGE_CURVE('',#403,#476,#581,.T.);
#393=EDGE_CURVE('',#410,#476,#582,.T.);
#394=EDGE_CURVE('',#411,#475,#583,.T.);
#395=EDGE_CURVE('',#470,#477,#584,.T.);
#396=EDGE_CURVE('',#414,#477,#585,.T.);
#397=EDGE_CURVE('',#416,#478,#586,.T.);
#398=EDGE_CURVE('',#472,#478,#587,.T.);
#399=EDGE_CURVE('',#478,#477,#588,.T.);
#400=EDGE_CURVE('',#479,#479,#31,.F.);
#401=EDGE_CURVE('',#480,#480,#32,.T.);
#402=VERTEX_POINT('',#1237);
#403=VERTEX_POINT('',#1238);
#404=VERTEX_POINT('',#1240);
#405=VERTEX_POINT('',#1242);
#406=VERTEX_POINT('',#1244);
#407=VERTEX_POINT('',#1246);
#408=VERTEX_POINT('',#1248);
#409=VERTEX_POINT('',#1250);
#410=VERTEX_POINT('',#1254);
#411=VERTEX_POINT('',#1256);
#412=VERTEX_POINT('',#1259);
#413=VERTEX_POINT('',#1261);
#414=VERTEX_POINT('',#1265);
#415=VERTEX_POINT('',#1266);
#416=VERTEX_POINT('',#1268);
#417=VERTEX_POINT('',#1270);
#418=VERTEX_POINT('',#1272);
#419=VERTEX_POINT('',#1274);
#420=VERTEX_POINT('',#1276);
#421=VERTEX_POINT('',#1278);
#422=VERTEX_POINT('',#1280);
#423=VERTEX_POINT('',#1282);
#424=VERTEX_POINT('',#1284);
#425=VERTEX_POINT('',#1286);
#426=VERTEX_POINT('',#1288);
#427=VERTEX_POINT('',#1290);
#428=VERTEX_POINT('',#1293);
#429=VERTEX_POINT('',#1296);
#430=VERTEX_POINT('',#1298);
#431=VERTEX_POINT('',#1302);
#432=VERTEX_POINT('',#1304);
#433=VERTEX_POINT('',#1307);
#434=VERTEX_POINT('',#1309);
#435=VERTEX_POINT('',#1311);
#436=VERTEX_POINT('',#1313);
#437=VERTEX_POINT('',#1315);
#438=VERTEX_POINT('',#1317);
#439=VERTEX_POINT('',#1319);
#440=VERTEX_POINT('',#1321);
#441=VERTEX_POINT('',#1323);
#442=VERTEX_POINT('',#1325);
#443=VERTEX_POINT('',#1327);
#444=VERTEX_POINT('',#1331);
#445=VERTEX_POINT('',#1332);
#446=VERTEX_POINT('',#1334);
#447=VERTEX_POINT('',#1336);
#448=VERTEX_POINT('',#1338);
#449=VERTEX_POINT('',#1340);
#450=VERTEX_POINT('',#1342);
#451=VERTEX_POINT('',#1357);
#452=VERTEX_POINT('',#1358);
#453=VERTEX_POINT('',#1360);
#454=VERTEX_POINT('',#1362);
#455=VERTEX_POINT('',#1366);
#456=VERTEX_POINT('',#1367);
#457=VERTEX_POINT('',#1369);
#458=VERTEX_POINT('',#1371);
#459=VERTEX_POINT('',#1375);
#460=VERTEX_POINT('',#1376);
#461=VERTEX_POINT('',#1380);
#462=VERTEX_POINT('',#1381);
#463=VERTEX_POINT('',#1383);
#464=VERTEX_POINT('',#1386);
#465=VERTEX_POINT('',#1393);
#466=VERTEX_POINT('',#1396);
#467=VERTEX_POINT('',#1399);
#468=VERTEX_POINT('',#1403);
#469=VERTEX_POINT('',#1407);
#470=VERTEX_POINT('',#1442);
#471=VERTEX_POINT('',#1444);
#472=VERTEX_POINT('',#1447);
#473=VERTEX_POINT('',#1451);
#474=VERTEX_POINT('',#1455);
#475=VERTEX_POINT('',#1462);
#476=VERTEX_POINT('',#1464);
#477=VERTEX_POINT('',#1473);
#478=VERTEX_POINT('',#1477);
#479=VERTEX_POINT('',#1483);
#480=VERTEX_POINT('',#1486);
#481=LINE('',#1236,#589);
#482=LINE('',#1239,#590);
#483=LINE('',#1241,#591);
#484=LINE('',#1243,#592);
#485=LINE('',#1245,#593);
#486=LINE('',#1247,#594);
#487=LINE('',#1249,#595);
#488=LINE('',#1251,#596);
#489=LINE('',#1253,#597);
#490=LINE('',#1255,#598);
#491=LINE('',#1257,#599);
#492=LINE('',#1258,#600);
#493=LINE('',#1260,#601);
#494=LINE('',#1262,#602);
#495=LINE('',#1264,#603);
#496=LINE('',#1267,#604);
#497=LINE('',#1269,#605);
#498=LINE('',#1271,#606);
#499=LINE('',#1273,#607);
#500=LINE('',#1275,#608);
#501=LINE('',#1277,#609);
#502=LINE('',#1279,#610);
#503=LINE('',#1281,#611);
#504=LINE('',#1283,#612);
#505=LINE('',#1285,#613);
#506=LINE('',#1287,#614);
#507=LINE('',#1289,#615);
#508=LINE('',#1291,#616);
#509=LINE('',#1295,#617);
#510=LINE('',#1297,#618);
#511=LINE('',#1299,#619);
#512=LINE('',#1306,#620);
#513=LINE('',#1308,#621);
#514=LINE('',#1310,#622);
#515=LINE('',#1314,#623);
#516=LINE('',#1316,#624);
#517=LINE('',#1318,#625);
#518=LINE('',#1320,#626);
#519=LINE('',#1322,#627);
#520=LINE('',#1324,#628);
#521=LINE('',#1326,#629);
#522=LINE('',#1328,#630);
#523=LINE('',#1333,#631);
#524=LINE('',#1335,#632);
#525=LINE('',#1337,#633);
#526=LINE('',#1339,#634);
#527=LINE('',#1341,#635);
#528=LINE('',#1343,#636);
#529=LINE('',#1345,#637);
#530=LINE('',#1349,#638);
#531=LINE('',#1350,#639);
#532=LINE('',#1352,#640);
#533=LINE('',#1354,#641);
#534=LINE('',#1356,#642);
#535=LINE('',#1361,#643);
#536=LINE('',#1365,#644);
#537=LINE('',#1368,#645);
#538=LINE('',#1370,#646);
#539=LINE('',#1372,#647);
#540=LINE('',#1379,#648);
#541=LINE('',#1382,#649);
#542=LINE('',#1384,#650);
#543=LINE('',#1385,#651);
#544=LINE('',#1387,#652);
#545=LINE('',#1389,#653);
#546=LINE('',#1390,#654);
#547=LINE('',#1394,#655);
#548=LINE('',#1395,#656);
#549=LINE('',#1397,#657);
#550=LINE('',#1398,#658);
#551=LINE('',#1400,#659);
#552=LINE('',#1402,#660);
#553=LINE('',#1404,#661);
#554=LINE('',#1406,#662);
#555=LINE('',#1408,#663);
#556=LINE('',#1410,#664);
#557=LINE('',#1411,#665);
#558=LINE('',#1415,#666);
#559=LINE('',#1416,#667);
#560=LINE('',#1418,#668);
#561=LINE('',#1420,#669);
#562=LINE('',#1422,#670);
#563=LINE('',#1424,#671);
#564=LINE('',#1426,#672);
#565=LINE('',#1427,#673);
#566=LINE('',#1429,#674);
#567=LINE('',#1431,#675);
#568=LINE('',#1433,#676);
#569=LINE('',#1435,#677);
#570=LINE('',#1438,#678);
#571=LINE('',#1441,#679);
#572=LINE('',#1443,#680);
#573=LINE('',#1445,#681);
#574=LINE('',#1446,#682);
#575=LINE('',#1448,#683);
#576=LINE('',#1454,#684);
#577=LINE('',#1456,#685);
#578=LINE('',#1458,#686);
#579=LINE('',#1461,#687);
#580=LINE('',#1463,#688);
#581=LINE('',#1465,#689);
#582=LINE('',#1467,#690);
#583=LINE('',#1469,#691);
#584=LINE('',#1472,#692);
#585=LINE('',#1474,#693);
#586=LINE('',#1476,#694);
#587=LINE('',#1478,#695);
#588=LINE('',#1480,#696);
#589=VECTOR('',#996,1.);
#590=VECTOR('',#997,1.);
#591=VECTOR('',#998,1.);
#592=VECTOR('',#999,1.);
#593=VECTOR('',#1000,1.);
#594=VECTOR('',#1001,1.);
#595=VECTOR('',#1002,1.);
#596=VECTOR('',#1003,1.);
#597=VECTOR('',#1006,1.);
#598=VECTOR('',#1007,1.);
#599=VECTOR('',#1008,1.);
#600=VECTOR('',#1009,1.);
#601=VECTOR('',#1010,1.);
#602=VECTOR('',#1011,1.);
#603=VECTOR('',#1014,1.);
#604=VECTOR('',#1015,1.);
#605=VECTOR('',#1016,1.);
#606=VECTOR('',#1017,1.);
#607=VECTOR('',#1018,1.);
#608=VECTOR('',#1019,1.);
#609=VECTOR('',#1020,1.);
#610=VECTOR('',#1021,1.);
#611=VECTOR('',#1022,1.);
#612=VECTOR('',#1023,1.);
#613=VECTOR('',#1024,1.);
#614=VECTOR('',#1025,1.);
#615=VECTOR('',#1026,1.);
#616=VECTOR('',#1027,1.);
#617=VECTOR('',#1032,1.);
#618=VECTOR('',#1033,1.);
#619=VECTOR('',#1034,1.);
#620=VECTOR('',#1043,1.);
#621=VECTOR('',#1044,1.);
#622=VECTOR('',#1045,1.);
#623=VECTOR('',#1048,1.);
#624=VECTOR('',#1049,1.);
#625=VECTOR('',#1050,1.);
#626=VECTOR('',#1051,1.);
#627=VECTOR('',#1052,1.);
#628=VECTOR('',#1053,1.);
#629=VECTOR('',#1054,1.);
#630=VECTOR('',#1055,1.);
#631=VECTOR('',#1060,1.);
#632=VECTOR('',#1061,1.);
#633=VECTOR('',#1062,1.);
#634=VECTOR('',#1063,1.);
#635=VECTOR('',#1064,1.);
#636=VECTOR('',#1065,1.);
#637=VECTOR('',#1068,1.);
#638=VECTOR('',#1075,1.);
#639=VECTOR('',#1076,1.);
#640=VECTOR('',#1079,1.);
#641=VECTOR('',#1082,1.);
#642=VECTOR('',#1085,1.);
#643=VECTOR('',#1088,1.);
#644=VECTOR('',#1093,1.);
#645=VECTOR('',#1094,1.);
#646=VECTOR('',#1095,1.);
#647=VECTOR('',#1096,1.);
#648=VECTOR('',#1105,1.);
#649=VECTOR('',#1106,1.);
#650=VECTOR('',#1107,1.);
#651=VECTOR('',#1108,1.);
#652=VECTOR('',#1109,1.);
#653=VECTOR('',#1112,1.);
#654=VECTOR('',#1113,1.);
#655=VECTOR('',#1118,1.);
#656=VECTOR('',#1119,1.);
#657=VECTOR('',#1120,1.);
#658=VECTOR('',#1121,1.);
#659=VECTOR('',#1122,1.);
#660=VECTOR('',#1125,1.);
#661=VECTOR('',#1126,1.);
#662=VECTOR('',#1129,1.);
#663=VECTOR('',#1130,1.);
#664=VECTOR('',#1133,1.);
#665=VECTOR('',#1134,1.);
#666=VECTOR('',#1141,1.);
#667=VECTOR('',#1142,1.);
#668=VECTOR('',#1145,1.);
#669=VECTOR('',#1148,1.);
#670=VECTOR('',#1151,1.);
#671=VECTOR('',#1154,1.);
#672=VECTOR('',#1157,1.);
#673=VECTOR('',#1158,1.);
#674=VECTOR('',#1161,1.);
#675=VECTOR('',#1164,1.);
#676=VECTOR('',#1167,1.);
#677=VECTOR('',#1170,1.);
#678=VECTOR('',#1175,1.);
#679=VECTOR('',#1180,1.);
#680=VECTOR('',#1181,1.);
#681=VECTOR('',#1182,1.);
#682=VECTOR('',#1183,1.);
#683=VECTOR('',#1184,1.);
#684=VECTOR('',#1193,1.);
#685=VECTOR('',#1194,1.);
#686=VECTOR('',#1197,1.);
#687=VECTOR('',#1202,1.);
#688=VECTOR('',#1203,1.);
#689=VECTOR('',#1204,1.);
#690=VECTOR('',#1207,1.);
#691=VECTOR('',#1210,1.);
#692=VECTOR('',#1215,1.);
#693=VECTOR('',#1216,1.);
#694=VECTOR('',#1219,1.);
#695=VECTOR('',#1220,1.);
#696=VECTOR('',#1223,1.);
#697=EDGE_LOOP('',(#33,#34,#35,#36,#37,#38,#39,#40));
#698=EDGE_LOOP('',(#41,#42,#43,#44,#45,#46,#47,#48));
#699=EDGE_LOOP('',(#49,#50,#51,#52,#53,#54,#55,#56,#57,#58,#59,#60,#61,
#62));
#700=EDGE_LOOP('',(#63));
#701=EDGE_LOOP('',(#64,#65,#66,#67));
#702=EDGE_LOOP('',(#68));
#703=EDGE_LOOP('',(#69));
#704=EDGE_LOOP('',(#70,#71,#72,#73,#74,#75,#76,#77,#78,#79,#80,#81,#82));
#705=EDGE_LOOP('',(#83,#84,#85,#86,#87,#88,#89));
#706=EDGE_LOOP('',(#90,#91,#92,#93,#94,#95));
#707=EDGE_LOOP('',(#96,#97,#98,#99));
#708=EDGE_LOOP('',(#100,#101,#102,#103,#104));
#709=EDGE_LOOP('',(#105,#106,#107,#108,#109));
#710=EDGE_LOOP('',(#110,#111,#112,#113));
#711=EDGE_LOOP('',(#114,#115,#116,#117));
#712=EDGE_LOOP('',(#118,#119));
#713=EDGE_LOOP('',(#120));
#714=EDGE_LOOP('',(#121,#122,#123,#124,#125,#126));
#715=EDGE_LOOP('',(#127,#128,#129,#130,#131,#132));
#716=EDGE_LOOP('',(#133));
#717=EDGE_LOOP('',(#134,#135,#136,#137,#138,#139,#140,#141));
#718=EDGE_LOOP('',(#142,#143,#144,#145));
#719=EDGE_LOOP('',(#146,#147,#148,#149));
#720=EDGE_LOOP('',(#150));
#721=EDGE_LOOP('',(#151,#152,#153,#154,#155,#156,#157,#158));
#722=EDGE_LOOP('',(#159,#160,#161,#162));
#723=EDGE_LOOP('',(#163,#164,#165,#166));
#724=EDGE_LOOP('',(#167,#168,#169));
#725=EDGE_LOOP('',(#170,#171,#172,#173));
#726=EDGE_LOOP('',(#174,#175,#176,#177));
#727=EDGE_LOOP('',(#178,#179,#180,#181));
#728=EDGE_LOOP('',(#182,#183,#184));
#729=EDGE_LOOP('',(#185,#186,#187));
#730=EDGE_LOOP('',(#188,#189,#190,#191));
#731=EDGE_LOOP('',(#192,#193,#194,#195));
#732=EDGE_LOOP('',(#196,#197,#198,#199));
#733=EDGE_LOOP('',(#200,#201,#202));
#734=EDGE_LOOP('',(#203,#204,#205,#206));
#735=EDGE_LOOP('',(#207,#208,#209,#210));
#736=EDGE_LOOP('',(#211,#212,#213,#214));
#737=EDGE_LOOP('',(#215,#216,#217,#218,#219,#220,#221,#222,#223,#224,#225));
#738=EDGE_LOOP('',(#226));
#739=EDGE_LOOP('',(#227));
#740=EDGE_LOOP('',(#228));
#741=EDGE_LOOP('',(#229,#230,#231,#232,#233));
#742=EDGE_LOOP('',(#234));
#743=EDGE_LOOP('',(#235,#236,#237,#238));
#744=EDGE_LOOP('',(#239,#240,#241,#242));
#745=EDGE_LOOP('',(#243,#244,#245,#246));
#746=EDGE_LOOP('',(#247,#248,#249,#250));
#747=EDGE_LOOP('',(#251,#252,#253,#254));
#748=EDGE_LOOP('',(#255,#256,#257,#258));
#749=EDGE_LOOP('',(#259,#260,#261,#262));
#750=EDGE_LOOP('',(#263,#264,#265,#266));
#751=EDGE_LOOP('',(#267,#268,#269,#270));
#752=EDGE_LOOP('',(#271));
#753=EDGE_LOOP('',(#272,#273,#274,#275));
#754=EDGE_LOOP('',(#276));
#755=EDGE_LOOP('',(#277));
#756=EDGE_LOOP('',(#278));
#757=FACE_BOUND('',#697,.T.);
#758=FACE_BOUND('',#698,.T.);
#759=FACE_BOUND('',#699,.T.);
#760=FACE_BOUND('',#700,.T.);
#761=FACE_BOUND('',#701,.T.);
#762=FACE_BOUND('',#702,.T.);
#763=FACE_BOUND('',#703,.T.);
#764=FACE_BOUND('',#704,.T.);
#765=FACE_BOUND('',#705,.T.);
#766=FACE_BOUND('',#706,.T.);
#767=FACE_BOUND('',#707,.T.);
#768=FACE_BOUND('',#708,.T.);
#769=FACE_BOUND('',#709,.T.);
#770=FACE_BOUND('',#710,.T.);
#771=FACE_BOUND('',#711,.T.);
#772=FACE_BOUND('',#712,.T.);
#773=FACE_BOUND('',#713,.T.);
#774=FACE_BOUND('',#714,.T.);
#775=FACE_BOUND('',#715,.T.);
#776=FACE_BOUND('',#716,.T.);
#777=FACE_BOUND('',#717,.T.);
#778=FACE_BOUND('',#718,.T.);
#779=FACE_BOUND('',#719,.T.);
#780=FACE_BOUND('',#720,.T.);
#781=FACE_BOUND('',#721,.T.);
#782=FACE_BOUND('',#722,.T.);
#783=FACE_BOUND('',#723,.T.);
#784=FACE_BOUND('',#724,.T.);
#785=FACE_BOUND('',#725,.T.);
#786=FACE_BOUND('',#726,.T.);
#787=FACE_BOUND('',#727,.T.);
#788=FACE_BOUND('',#728,.T.);
#789=FACE_BOUND('',#729,.T.);
#790=FACE_BOUND('',#730,.T.);
#791=FACE_BOUND('',#731,.T.);
#792=FACE_BOUND('',#732,.T.);
#793=FACE_BOUND('',#733,.T.);
#794=FACE_BOUND('',#734,.T.);
#795=FACE_BOUND('',#735,.T.);
#796=FACE_BOUND('',#736,.T.);
#797=FACE_BOUND('',#737,.T.);
#798=FACE_BOUND('',#738,.T.);
#799=FACE_BOUND('',#739,.T.);
#800=FACE_BOUND('',#740,.T.);
#801=FACE_BOUND('',#741,.T.);
#802=FACE_BOUND('',#742,.T.);
#803=FACE_BOUND('',#743,.T.);
#804=FACE_BOUND('',#744,.T.);
#805=FACE_BOUND('',#745,.T.);
#806=FACE_BOUND('',#746,.T.);
#807=FACE_BOUND('',#747,.T.);
#808=FACE_BOUND('',#748,.T.);
#809=FACE_BOUND('',#749,.T.);
#810=FACE_BOUND('',#750,.T.);
#811=FACE_BOUND('',#751,.T.);
#812=FACE_BOUND('',#752,.T.);
#813=FACE_BOUND('',#753,.T.);
#814=FACE_BOUND('',#754,.T.);
#815=FACE_BOUND('',#755,.T.);
#816=FACE_BOUND('',#756,.T.);
#817=PLANE('',#926);
#818=PLANE('',#927);
#819=PLANE('',#928);
#820=PLANE('',#930);
#821=PLANE('',#934);
#822=PLANE('',#936);
#823=PLANE('',#941);
#824=PLANE('',#942);
#825=PLANE('',#943);
#826=PLANE('',#947);
#827=PLANE('',#951);
#828=PLANE('',#952);
#829=PLANE('',#953);
#830=PLANE('',#955);
#831=PLANE('',#956);
#832=PLANE('',#957);
#833=PLANE('',#958);
#834=PLANE('',#959);
#835=PLANE('',#960);
#836=PLANE('',#961);
#837=PLANE('',#962);
#838=PLANE('',#963);
#839=PLANE('',#964);
#840=PLANE('',#965);
#841=PLANE('',#966);
#842=PLANE('',#967);
#843=PLANE('',#968);
#844=PLANE('',#969);
#845=PLANE('',#970);
#846=PLANE('',#971);
#847=PLANE('',#972);
#848=PLANE('',#973);
#849=PLANE('',#976);
#850=PLANE('',#977);
#851=PLANE('',#978);
#852=PLANE('',#979);
#853=PLANE('',#980);
#854=PLANE('',#981);
#855=PLANE('',#982);
#856=PLANE('',#983);
#857=PLANE('',#984);
#858=PLANE('',#985);
#859=PLANE('',#986);
#860=PLANE('',#987);
#861=PLANE('',#991);
#862=ADVANCED_FACE('',(#757),#817,.F.);
#863=ADVANCED_FACE('',(#758),#818,.T.);
#864=ADVANCED_FACE('',(#759,#760),#819,.T.);
#865=ADVANCED_FACE('',(#761),#820,.T.);
#866=ADVANCED_FACE('',(#762,#763),#15,.F.);
#867=ADVANCED_FACE('',(#764),#821,.F.);
#868=ADVANCED_FACE('',(#765),#822,.T.);
#869=ADVANCED_FACE('',(#766),#16,.F.);
#870=ADVANCED_FACE('',(#767),#823,.F.);
#871=ADVANCED_FACE('',(#768),#824,.T.);
#872=ADVANCED_FACE('',(#769),#825,.F.);
#873=ADVANCED_FACE('',(#770),#17,.F.);
#874=ADVANCED_FACE('',(#771),#826,.F.);
#875=ADVANCED_FACE('',(#772,#773),#18,.F.);
#876=ADVANCED_FACE('',(#774),#827,.F.);
#877=ADVANCED_FACE('',(#775),#828,.F.);
#878=ADVANCED_FACE('',(#776,#777),#829,.F.);
#879=ADVANCED_FACE('',(#778),#830,.F.);
#880=ADVANCED_FACE('',(#779),#831,.F.);
#881=ADVANCED_FACE('',(#780,#781),#832,.T.);
#882=ADVANCED_FACE('',(#782),#833,.T.);
#883=ADVANCED_FACE('',(#783),#834,.F.);
#884=ADVANCED_FACE('',(#784),#835,.T.);
#885=ADVANCED_FACE('',(#785),#836,.T.);
#886=ADVANCED_FACE('',(#786),#837,.T.);
#887=ADVANCED_FACE('',(#787),#838,.T.);
#888=ADVANCED_FACE('',(#788),#839,.T.);
#889=ADVANCED_FACE('',(#789),#840,.T.);
#890=ADVANCED_FACE('',(#790),#841,.F.);
#891=ADVANCED_FACE('',(#791),#842,.F.);
#892=ADVANCED_FACE('',(#792),#843,.T.);
#893=ADVANCED_FACE('',(#793),#844,.T.);
#894=ADVANCED_FACE('',(#794),#845,.T.);
#895=ADVANCED_FACE('',(#795),#846,.F.);
#896=ADVANCED_FACE('',(#796),#847,.F.);
#897=ADVANCED_FACE('',(#797),#848,.T.);
#898=ADVANCED_FACE('',(#798,#799),#19,.F.);
#899=ADVANCED_FACE('',(#800),#849,.T.);
#900=ADVANCED_FACE('',(#801,#802),#850,.T.);
#901=ADVANCED_FACE('',(#803),#851,.F.);
#902=ADVANCED_FACE('',(#804),#852,.F.);
#903=ADVANCED_FACE('',(#805),#853,.T.);
#904=ADVANCED_FACE('',(#806),#854,.T.);
#905=ADVANCED_FACE('',(#807),#855,.F.);
#906=ADVANCED_FACE('',(#808),#856,.T.);
#907=ADVANCED_FACE('',(#809),#857,.F.);
#908=ADVANCED_FACE('',(#810),#858,.T.);
#909=ADVANCED_FACE('',(#811),#859,.T.);
#910=ADVANCED_FACE('',(#812,#813),#860,.T.);
#911=ADVANCED_FACE('',(#814,#815),#20,.F.);
#912=ADVANCED_FACE('',(#816),#861,.T.);
#913=CLOSED_SHELL('',(#862,#863,#864,#865,#866,#867,#868,#869,#870,#871,
#872,#873,#874,#875,#876,#877,#878,#879,#880,#881,#882,#883,#884,#885,#886,
#887,#888,#889,#890,#891,#892,#893,#894,#895,#896,#897,#898,#899,#900,#901,
#902,#903,#904,#905,#906,#907,#908,#909,#910,#911,#912));
#914=STYLED_ITEM('',(#915),#922);
#915=PRESENTATION_STYLE_ASSIGNMENT((#916));
#916=SURFACE_STYLE_USAGE(.BOTH.,#917);
#917=SURFACE_SIDE_STYLE('',(#918));
#918=SURFACE_STYLE_FILL_AREA(#919);
#919=FILL_AREA_STYLE('',(#920));
#920=FILL_AREA_STYLE_COLOUR('',#921);
#921=COLOUR_RGB('',0.866666666666667,0.32156862745098,0.156862745098039);
#922=MANIFOLD_SOLID_BREP('XY1_BOT',#913);
#923=SHAPE_DEFINITION_REPRESENTATION(#1494,#924);
#924=SHAPE_REPRESENTATION('XY1_BOT',(#925),#1489);
#925=AXIS2_PLACEMENT_3D('',#1234,#992,#993);
#926=AXIS2_PLACEMENT_3D('',#1235,#994,#995);
#927=AXIS2_PLACEMENT_3D('',#1252,#1004,#1005);
#928=AXIS2_PLACEMENT_3D('',#1263,#1012,#1013);
#929=AXIS2_PLACEMENT_3D('',#1292,#1028,#1029);
#930=AXIS2_PLACEMENT_3D('',#1294,#1030,#1031);
#931=AXIS2_PLACEMENT_3D('',#1300,#1035,#1036);
#932=AXIS2_PLACEMENT_3D('',#1301,#1037,#1038);
#933=AXIS2_PLACEMENT_3D('',#1303,#1039,#1040);
#934=AXIS2_PLACEMENT_3D('',#1305,#1041,#1042);
#935=AXIS2_PLACEMENT_3D('',#1312,#1046,#1047);
#936=AXIS2_PLACEMENT_3D('',#1329,#1056,#1057);
#937=AXIS2_PLACEMENT_3D('',#1330,#1058,#1059);
#938=AXIS2_PLACEMENT_3D('',#1344,#1066,#1067);
#939=AXIS2_PLACEMENT_3D('',#1346,#1069,#1070);
#940=AXIS2_PLACEMENT_3D('',#1347,#1071,#1072);
#941=AXIS2_PLACEMENT_3D('',#1348,#1073,#1074);
#942=AXIS2_PLACEMENT_3D('',#1351,#1077,#1078);
#943=AXIS2_PLACEMENT_3D('',#1353,#1080,#1081);
#944=AXIS2_PLACEMENT_3D('',#1355,#1083,#1084);
#945=AXIS2_PLACEMENT_3D('',#1359,#1086,#1087);
#946=AXIS2_PLACEMENT_3D('',#1363,#1089,#1090);
#947=AXIS2_PLACEMENT_3D('',#1364,#1091,#1092);
#948=AXIS2_PLACEMENT_3D('',#1373,#1097,#1098);
#949=AXIS2_PLACEMENT_3D('',#1374,#1099,#1100);
#950=AXIS2_PLACEMENT_3D('',#1377,#1101,#1102);
#951=AXIS2_PLACEMENT_3D('',#1378,#1103,#1104);
#952=AXIS2_PLACEMENT_3D('',#1388,#1110,#1111);
#953=AXIS2_PLACEMENT_3D('',#1391,#1114,#1115);
#954=AXIS2_PLACEMENT_3D('',#1392,#1116,#1117);
#955=AXIS2_PLACEMENT_3D('',#1401,#1123,#1124);
#956=AXIS2_PLACEMENT_3D('',#1405,#1127,#1128);
#957=AXIS2_PLACEMENT_3D('',#1409,#1131,#1132);
#958=AXIS2_PLACEMENT_3D('',#1412,#1135,#1136);
#959=AXIS2_PLACEMENT_3D('',#1413,#1137,#1138);
#960=AXIS2_PLACEMENT_3D('',#1414,#1139,#1140);
#961=AXIS2_PLACEMENT_3D('',#1417,#1143,#1144);
#962=AXIS2_PLACEMENT_3D('',#1419,#1146,#1147);
#963=AXIS2_PLACEMENT_3D('',#1421,#1149,#1150);
#964=AXIS2_PLACEMENT_3D('',#1423,#1152,#1153);
#965=AXIS2_PLACEMENT_3D('',#1425,#1155,#1156);
#966=AXIS2_PLACEMENT_3D('',#1428,#1159,#1160);
#967=AXIS2_PLACEMENT_3D('',#1430,#1162,#1163);
#968=AXIS2_PLACEMENT_3D('',#1432,#1165,#1166);
#969=AXIS2_PLACEMENT_3D('',#1434,#1168,#1169);
#970=AXIS2_PLACEMENT_3D('',#1436,#1171,#1172);
#971=AXIS2_PLACEMENT_3D('',#1437,#1173,#1174);
#972=AXIS2_PLACEMENT_3D('',#1439,#1176,#1177);
#973=AXIS2_PLACEMENT_3D('',#1440,#1178,#1179);
#974=AXIS2_PLACEMENT_3D('',#1449,#1185,#1186);
#975=AXIS2_PLACEMENT_3D('',#1450,#1187,#1188);
#976=AXIS2_PLACEMENT_3D('',#1452,#1189,#1190);
#977=AXIS2_PLACEMENT_3D('',#1453,#1191,#1192);
#978=AXIS2_PLACEMENT_3D('',#1457,#1195,#1196);
#979=AXIS2_PLACEMENT_3D('',#1459,#1198,#1199);
#980=AXIS2_PLACEMENT_3D('',#1460,#1200,#1201);
#981=AXIS2_PLACEMENT_3D('',#1466,#1205,#1206);
#982=AXIS2_PLACEMENT_3D('',#1468,#1208,#1209);
#983=AXIS2_PLACEMENT_3D('',#1470,#1211,#1212);
#984=AXIS2_PLACEMENT_3D('',#1471,#1213,#1214);
#985=AXIS2_PLACEMENT_3D('',#1475,#1217,#1218);
#986=AXIS2_PLACEMENT_3D('',#1479,#1221,#1222);
#987=AXIS2_PLACEMENT_3D('',#1481,#1224,#1225);
#988=AXIS2_PLACEMENT_3D('',#1482,#1226,#1227);
#989=AXIS2_PLACEMENT_3D('',#1484,#1228,#1229);
#990=AXIS2_PLACEMENT_3D('',#1485,#1230,#1231);
#991=AXIS2_PLACEMENT_3D('',#1487,#1232,#1233);
#992=DIRECTION('',(0.,0.,1.));
#993=DIRECTION('',(1.,0.,0.));
#994=DIRECTION('',(-1.,0.,-4.62592926927149E-16));
#995=DIRECTION('',(-4.62592926927149E-16,0.,1.));
#996=DIRECTION('',(4.62592926927149E-16,0.,-1.));
#997=DIRECTION('',(2.83256473634769E-32,1.,-6.12323399573677E-17));
#998=DIRECTION('',(4.62592926927149E-16,0.,-1.));
#999=DIRECTION('',(0.,1.,0.));
#1000=DIRECTION('',(-4.62592926927149E-16,0.,1.));
#1001=DIRECTION('',(2.83256473634769E-32,1.,-6.12323399573677E-17));
#1002=DIRECTION('',(4.62592926927149E-16,0.,-1.));
#1003=DIRECTION('',(0.,1.,0.));
#1004=DIRECTION('',(0.,6.12323399573677E-17,1.));
#1005=DIRECTION('',(1.,0.,0.));
#1006=DIRECTION('',(-1.,0.,0.));
#1007=DIRECTION('',(2.83256473634769E-32,1.,-6.12323399573677E-17));
#1008=DIRECTION('',(-1.,0.,0.));
#1009=DIRECTION('',(-0.707106781186548,0.707106781186547,-4.32978028117746E-17));
#1010=DIRECTION('',(0.,-1.,0.));
#1011=DIRECTION('',(-0.707106781186548,-0.707106781186547,4.32978028117746E-17));
#1012=DIRECTION('',(-1.,0.,-4.62592926927149E-16));
#1013=DIRECTION('',(-4.62592926927149E-16,0.,1.));
#1014=DIRECTION('',(-4.62592926927149E-16,0.,1.));
#1015=DIRECTION('',(0.,1.,0.));
#1016=DIRECTION('',(-4.62592926927149E-16,0.,1.));
#1017=DIRECTION('',(2.83256473634769E-32,1.,-6.12323399573677E-17));
#1018=DIRECTION('',(0.,6.12323399573677E-17,1.));
#1019=DIRECTION('',(0.,1.,-6.12323399573677E-17));
#1020=DIRECTION('',(4.62592926927149E-16,0.,-1.));
#1021=DIRECTION('',(0.,-1.,0.));
#1022=DIRECTION('',(4.62592926927149E-16,0.,-1.));
#1023=DIRECTION('',(0.,-1.,0.));
#1024=DIRECTION('',(4.62592926927149E-16,0.,-1.));
#1025=DIRECTION('',(0.,-1.,0.));
#1026=DIRECTION('',(-4.62592926927149E-16,0.,1.));
#1027=DIRECTION('',(2.83256473634769E-32,1.,-6.12323399573677E-17));
#1028=DIRECTION('',(-1.,0.,-4.62592926927149E-16));
#1029=DIRECTION('',(-4.62592926927149E-16,0.,1.));
#1030=DIRECTION('',(-0.707106781186547,0.707106781186548,-3.2710259555912E-16));
#1031=DIRECTION('',(-4.62592926927149E-16,0.,1.));
#1032=DIRECTION('',(0.707106781186548,0.707106781186547,-4.32978028117746E-17));
#1033=DIRECTION('',(-4.62592926927149E-16,0.,1.));
#1034=DIRECTION('',(0.707106781186548,0.707106781186547,0.));
#1035=DIRECTION('',(0.,0.,-1.));
#1036=DIRECTION('',(-1.,0.,0.));
#1037=DIRECTION('',(0.,0.,-1.));
#1038=DIRECTION('',(-1.,0.,0.));
#1039=DIRECTION('',(0.,6.12323399573677E-17,1.));
#1040=DIRECTION('',(0.,-1.,6.12323399573677E-17));
#1041=DIRECTION('',(0.,-1.,0.));
#1042=DIRECTION('',(1.,0.,0.));
#1043=DIRECTION('',(1.,0.,0.));
#1044=DIRECTION('',(0.,6.12323399573677E-17,1.));
#1045=DIRECTION('',(-1.,0.,0.));
#1046=DIRECTION('',(0.,-1.,0.));
#1047=DIRECTION('',(0.,0.,-1.));
#1048=DIRECTION('',(4.62592926927149E-16,0.,-1.));
#1049=DIRECTION('',(-0.0995037190209989,0.,-0.995037190209989));
#1050=DIRECTION('',(0.,0.,-1.));
#1051=DIRECTION('',(-1.,0.,0.));
#1052=DIRECTION('',(-4.62592926927149E-16,0.,1.));
#1053=DIRECTION('',(1.,0.,0.));
#1054=DIRECTION('',(0.,0.,1.));
#1055=DIRECTION('',(1.,0.,0.));
#1056=DIRECTION('',(0.,-1.,0.));
#1057=DIRECTION('',(1.,0.,0.));
#1058=DIRECTION('',(0.,-1.,0.));
#1059=DIRECTION('',(0.,0.,-1.));
#1060=DIRECTION('',(-1.,0.,0.));
#1061=DIRECTION('',(4.62592926927149E-16,0.,-1.));
#1062=DIRECTION('',(1.,0.,0.));
#1063=DIRECTION('',(0.,0.,1.));
#1064=DIRECTION('',(0.0995037190209989,0.,0.995037190209989));
#1065=DIRECTION('',(-4.62592926927149E-16,0.,1.));
#1066=DIRECTION('',(0.,-1.,0.));
#1067=DIRECTION('',(0.,0.,-1.));
#1068=DIRECTION('',(0.,-1.,0.));
#1069=DIRECTION('',(0.707106781186547,-0.707106781186548,3.2710259555912E-16));
#1070=DIRECTION('',(-0.707106781186548,-0.707106781186547,-3.2710259555912E-16));
#1071=DIRECTION('',(-0.707106781186547,-0.707106781186548,-3.2710259555912E-16));
#1072=DIRECTION('',(0.707106781186548,-0.707106781186547,3.2710259555912E-16));
#1073=DIRECTION('',(0.707106781186547,0.707106781186548,3.2710259555912E-16));
#1074=DIRECTION('',(4.62592926927149E-16,0.,-1.));
#1075=DIRECTION('',(0.707106781186548,-0.707106781186547,4.32978028117746E-17));
#1076=DIRECTION('',(0.707106781186548,-0.707106781186547,-9.18543318284145E-17));
#1077=DIRECTION('',(0.707106781186547,-0.707106781186548,3.2710259555912E-16));
#1078=DIRECTION('',(-4.62592926927149E-16,0.,1.));
#1079=DIRECTION('',(0.706667445230675,0.706667445230674,-0.0352454777567726));
#1080=DIRECTION('',(-0.707106781186547,-0.707106781186548,-3.2710259555912E-16));
#1081=DIRECTION('',(4.62592926927149E-16,0.,-1.));
#1082=DIRECTION('',(-0.706667445230674,0.706667445230673,0.0352454777568318));
#1083=DIRECTION('',(0.,0.,-1.));
#1084=DIRECTION('',(-1.,0.,0.));
#1085=DIRECTION('',(0.,0.,1.));
#1086=DIRECTION('',(0.,0.,-1.));
#1087=DIRECTION('',(-1.,0.,0.));
#1088=DIRECTION('',(0.,0.,1.));
#1089=DIRECTION('',(0.,0.,-1.));
#1090=DIRECTION('',(-1.,0.,0.));
#1091=DIRECTION('',(0.,0.,1.));
#1092=DIRECTION('',(1.,0.,0.));
#1093=DIRECTION('',(1.,0.,0.));
#1094=DIRECTION('',(0.,-1.,0.));
#1095=DIRECTION('',(-1.,0.,0.));
#1096=DIRECTION('',(0.,1.,0.));
#1097=DIRECTION('',(1.,0.,4.62592926927149E-16));
#1098=DIRECTION('',(4.62592926927149E-16,0.,-1.));
#1099=DIRECTION('',(-0.995037190209989,0.,0.0995037190209989));
#1100=DIRECTION('',(0.0995037190209989,0.,0.995037190209989));
#1101=DIRECTION('',(-1.,0.,0.));
#1102=DIRECTION('',(0.,0.,1.));
#1103=DIRECTION('',(-1.,0.,0.));
#1104=DIRECTION('',(0.,0.,1.));
#1105=DIRECTION('',(0.,1.,0.));
#1106=DIRECTION('',(0.,0.,1.));
#1107=DIRECTION('',(0.,-1.,0.));
#1108=DIRECTION('',(0.,-1.,0.));
#1109=DIRECTION('',(0.,0.,-1.));
#1110=DIRECTION('',(-0.995037190209989,0.,0.0995037190209989));
#1111=DIRECTION('',(0.,-1.,0.));
#1112=DIRECTION('',(-0.0995037190209989,0.,-0.995037190209989));
#1113=DIRECTION('',(0.0995037190209989,0.,0.995037190209989));
#1114=DIRECTION('',(0.,0.,-1.));
#1115=DIRECTION('',(-1.,0.,0.));
#1116=DIRECTION('',(0.,0.,-1.));
#1117=DIRECTION('',(-1.,0.,0.));
#1118=DIRECTION('',(-0.707106781186548,-0.707106781186547,0.));
#1119=DIRECTION('',(0.707106781186562,0.707106781186534,0.));
#1120=DIRECTION('',(1.,0.,0.));
#1121=DIRECTION('',(0.,-1.,0.));
#1122=DIRECTION('',(-0.707106781186551,-0.707106781186545,0.));
#1123=DIRECTION('',(1.,0.,0.));
#1124=DIRECTION('',(0.,0.,-1.));
#1125=DIRECTION('',(0.,-1.,0.));
#1126=DIRECTION('',(0.,0.,-1.));
#1127=DIRECTION('',(0.,-1.,0.));
#1128=DIRECTION('',(0.,0.,-1.));
#1129=DIRECTION('',(-4.62592926927149E-16,0.,1.));
#1130=DIRECTION('',(-1.,0.,0.));
#1131=DIRECTION('',(0.,0.,-1.));
#1132=DIRECTION('',(1.,0.,0.));
#1133=DIRECTION('',(0.707106781186551,0.707106781186545,0.));
#1134=DIRECTION('',(-0.707106781186562,-0.707106781186534,0.));
#1135=DIRECTION('',(-0.707106781186534,0.707106781186562,-3.27102595559114E-16));
#1136=DIRECTION('',(4.62592926927149E-16,0.,-1.));
#1137=DIRECTION('',(0.707106781186545,-0.707106781186551,0.));
#1138=DIRECTION('',(0.,0.,1.));
#1139=DIRECTION('',(-0.577350269189626,-0.577350269189626,-0.577350269189626));
#1140=DIRECTION('',(0.,0.707106781186547,-0.707106781186548));
#1141=DIRECTION('',(-1.23903709934807E-16,-0.707106781186547,0.707106781186548));
#1142=DIRECTION('',(0.707106781186548,0.,-0.707106781186548));
#1143=DIRECTION('',(-0.707106781186547,0.707106781186548,-3.2710259555912E-16));
#1144=DIRECTION('',(-4.62592926927149E-16,0.,1.));
#1145=DIRECTION('',(0.707106781186548,0.707106781186547,-9.18543318284145E-17));
#1146=DIRECTION('',(-0.707106781186548,0.,-0.707106781186548));
#1147=DIRECTION('',(0.,1.,0.));
#1148=DIRECTION('',(-0.707106781186548,0.,0.707106781186548));
#1149=DIRECTION('',(0.,-0.707106781186548,-0.707106781186547));
#1150=DIRECTION('',(1.,0.,0.));
#1151=DIRECTION('',(-1.23903709934807E-16,0.707106781186547,-0.707106781186548));
#1152=DIRECTION('',(-0.577350269189626,0.577350269189626,-0.577350269189626));
#1153=DIRECTION('',(0.,0.707106781186547,0.707106781186548));
#1154=DIRECTION('',(-1.23903709934807E-16,0.707106781186547,0.707106781186548));
#1155=DIRECTION('',(0.577350269189626,-0.577350269189626,-0.577350269189625));
#1156=DIRECTION('',(0.707106781186548,0.707106781186548,0.));
#1157=DIRECTION('',(-0.707106781186548,-0.707106781186548,0.));
#1158=DIRECTION('',(-0.707106781186548,-9.33725767576153E-16,-0.707106781186548));
#1159=DIRECTION('',(0.,-0.707106781186548,0.707106781186547));
#1160=DIRECTION('',(-1.,0.,0.));
#1161=DIRECTION('',(-6.83925587035498E-17,-0.707106781186547,-0.707106781186548));
#1162=DIRECTION('',(-0.707106781186548,0.,0.707106781186548));
#1163=DIRECTION('',(0.,-1.,0.));
#1164=DIRECTION('',(0.707106781186548,4.90355485027807E-15,0.707106781186548));
#1165=DIRECTION('',(0.707106781186548,-0.707106781186548,0.));
#1166=DIRECTION('',(0.,0.,1.));
#1167=DIRECTION('',(0.706667445230674,0.706667445230674,-0.035245477756783));
#1168=DIRECTION('',(0.577350269189623,0.577350269189628,-0.577350269189627));
#1169=DIRECTION('',(0.,0.707106781186547,0.707106781186548));
#1170=DIRECTION('',(-0.707106781186551,0.707106781186545,0.));
#1171=DIRECTION('',(0.703597544730292,-0.707106781186547,-0.0703597544730292));
#1172=DIRECTION('',(-0.0995037190209989,0.,-0.995037190209989));
#1173=DIRECTION('',(-0.707106781186545,-0.707106781186551,0.));
#1174=DIRECTION('',(0.,0.,-1.));
#1175=DIRECTION('',(-0.706667445230677,0.706667445230671,0.0352454777567831));
#1176=DIRECTION('',(-0.703597544730289,-0.70710678118655,0.0703597544730289));
#1177=DIRECTION('',(-0.0995037190209989,0.,-0.995037190209989));
#1178=DIRECTION('',(0.,6.12323399573677E-17,1.));
#1179=DIRECTION('',(1.,0.,0.));
#1180=DIRECTION('',(1.,0.,0.));
#1181=DIRECTION('',(0.,1.,-6.12323399573677E-17));
#1182=DIRECTION('',(1.,0.,0.));
#1183=DIRECTION('',(1.,0.,0.));
#1184=DIRECTION('',(-2.83256473634769E-32,-1.,6.12323399573677E-17));
#1185=DIRECTION('',(0.,6.12323399573677E-17,1.));
#1186=DIRECTION('',(0.,-1.,6.12323399573677E-17));
#1187=DIRECTION('',(0.,6.12323399573677E-17,1.));
#1188=DIRECTION('',(0.,-1.,6.12323399573677E-17));
#1189=DIRECTION('',(0.,6.12323399573677E-17,1.));
#1190=DIRECTION('',(1.,0.,0.));
#1191=DIRECTION('',(0.,6.12323399573677E-17,1.));
#1192=DIRECTION('',(1.,0.,0.));
#1193=DIRECTION('',(1.,0.,0.));
#1194=DIRECTION('',(0.,1.,-6.12323399573677E-17));
#1195=DIRECTION('',(0.,-1.,6.12323399573677E-17));
#1196=DIRECTION('',(0.,-6.12323399573677E-17,-1.));
#1197=DIRECTION('',(0.,6.12323399573677E-17,1.));
#1198=DIRECTION('',(1.,0.,0.));
#1199=DIRECTION('',(0.,0.,-1.));
#1200=DIRECTION('',(-4.62592926927148E-16,0.,1.));
#1201=DIRECTION('',(1.,0.,4.62592926927148E-16));
#1202=DIRECTION('',(-1.,0.,-4.62592926927148E-16));
#1203=DIRECTION('',(0.,1.,0.));
#1204=DIRECTION('',(-1.,0.,-4.62592926927148E-16));
#1205=DIRECTION('',(0.,1.,0.));
#1206=DIRECTION('',(0.,0.,1.));
#1207=DIRECTION('',(4.62592926927149E-16,0.,-1.));
#1208=DIRECTION('',(0.,1.,0.));
#1209=DIRECTION('',(0.,0.,1.));
#1210=DIRECTION('',(4.62592926927149E-16,0.,-1.));
#1211=DIRECTION('',(1.,0.,4.62592926927149E-16));
#1212=DIRECTION('',(0.,1.,0.));
#1213=DIRECTION('',(0.,-1.,0.));
#1214=DIRECTION('',(0.,0.,-1.));
#1215=DIRECTION('',(4.62592926927149E-16,0.,-1.));
#1216=DIRECTION('',(1.,0.,0.));
#1217=DIRECTION('',(0.,-1.,0.));
#1218=DIRECTION('',(0.,0.,-1.));
#1219=DIRECTION('',(1.,0.,0.));
#1220=DIRECTION('',(4.62592926927149E-16,0.,-1.));
#1221=DIRECTION('',(0.,0.,1.));
#1222=DIRECTION('',(1.,0.,0.));
#1223=DIRECTION('',(0.,-1.,0.));
#1224=DIRECTION('',(-1.,0.,-4.62592926927149E-16));
#1225=DIRECTION('',(0.,-1.,0.));
#1226=DIRECTION('',(-1.,0.,-4.62592926927149E-16));
#1227=DIRECTION('',(-4.62592926927149E-16,0.,1.));
#1228=DIRECTION('',(1.,0.,0.));
#1229=DIRECTION('',(0.,0.,-1.));
#1230=DIRECTION('',(-1.,0.,-4.62592926927149E-16));
#1231=DIRECTION('',(-4.62592926927149E-16,0.,1.));
#1232=DIRECTION('',(-1.,0.,-4.62592926927149E-16));
#1233=DIRECTION('',(0.,-1.,0.));
#1234=CARTESIAN_POINT('',(0.,0.,0.));
#1235=CARTESIAN_POINT('',(0.1625,0.045,0.400052546262741));
#1236=CARTESIAN_POINT('',(0.1625,0.0175,0.400052546262741));
#1237=CARTESIAN_POINT('',(0.1625,0.0175,0.400450115781006));
#1238=CARTESIAN_POINT('',(0.1625,0.0175,0.387950115781006));
#1239=CARTESIAN_POINT('',(0.1625,0.045,0.400450115781006));
#1240=CARTESIAN_POINT('',(0.1625,0.005,0.400450115781006));
#1241=CARTESIAN_POINT('',(0.1625,0.005,0.378052546262741));
#1242=CARTESIAN_POINT('',(0.1625,0.005,0.378052546262741));
#1243=CARTESIAN_POINT('',(0.1625,0.045,0.378052546262741));
#1244=CARTESIAN_POINT('',(0.1625,0.04,0.378052546262741));
#1245=CARTESIAN_POINT('',(0.1625,0.04,0.400052546262741));
#1246=CARTESIAN_POINT('',(0.1625,0.04,0.400450115781006));
#1247=CARTESIAN_POINT('',(0.1625,0.045,0.400450115781006));
#1248=CARTESIAN_POINT('',(0.1625,0.0275,0.400450115781006));
#1249=CARTESIAN_POINT('',(0.1625,0.0275,0.400052546262741));
#1250=CARTESIAN_POINT('',(0.1625,0.0275,0.387950115781006));
#1251=CARTESIAN_POINT('',(0.1625,0.045,0.387950115781006));
#1252=CARTESIAN_POINT('',(0.1625,0.0225,0.400450115781006));
#1253=CARTESIAN_POINT('',(0.1625,0.0175,0.400450115781006));
#1254=CARTESIAN_POINT('',(0.16,0.0175,0.400450115781006));
#1255=CARTESIAN_POINT('',(0.16,0.0225,0.400450115781006));
#1256=CARTESIAN_POINT('',(0.16,0.0275,0.400450115781006));
#1257=CARTESIAN_POINT('',(0.1625,0.0275,0.400450115781006));
#1258=CARTESIAN_POINT('',(0.1575,0.045,0.400450115781006));
#1259=CARTESIAN_POINT('',(0.157805994965578,0.0446940050344213,0.400450115781006));
#1260=CARTESIAN_POINT('',(0.157805994965578,0.850868496704852,0.400450115781006));
#1261=CARTESIAN_POINT('',(0.157805994965578,0.000305994965578704,0.400450115781006));
#1262=CARTESIAN_POINT('',(0.1625,0.005,0.400450115781006));
#1263=CARTESIAN_POINT('',(0.1225,0.045,0.400052546262741));
#1264=CARTESIAN_POINT('',(0.1225,0.02,0.400052546262741));
#1265=CARTESIAN_POINT('',(0.1225,0.02,0.390450115781006));
#1266=CARTESIAN_POINT('',(0.1225,0.02,0.400450115781006));
#1267=CARTESIAN_POINT('',(0.1225,0.045,0.390450115781006));
#1268=CARTESIAN_POINT('',(0.1225,0.028,0.390450115781006));
#1269=CARTESIAN_POINT('',(0.1225,0.028,0.400052546262741));
#1270=CARTESIAN_POINT('',(0.1225,0.028,0.400450115781006));
#1271=CARTESIAN_POINT('',(0.1225,0.045,0.400450115781006));
#1272=CARTESIAN_POINT('',(0.1225,0.03,0.400450115781006));
#1273=CARTESIAN_POINT('',(0.1225,0.03,0.390450115781006));
#1274=CARTESIAN_POINT('',(0.1225,0.03,0.390450115781006));
#1275=CARTESIAN_POINT('',(0.1225,0.0375,0.390450115781006));
#1276=CARTESIAN_POINT('',(0.1225,0.04,0.390450115781006));
#1277=CARTESIAN_POINT('',(0.1225,0.04,0.385052546262741));
#1278=CARTESIAN_POINT('',(0.1225,0.04,0.385052546262741));
#1279=CARTESIAN_POINT('',(0.1225,0.850868496704852,0.385052546262741));
#1280=CARTESIAN_POINT('',(0.1225,0.0200000000000005,0.385052546262741));
#1281=CARTESIAN_POINT('',(0.1225,0.0200000000000005,0.375052546262741));
#1282=CARTESIAN_POINT('',(0.1225,0.0200000000000007,0.375052546262741));
#1283=CARTESIAN_POINT('',(0.1225,0.850868496704852,0.375052546262741));
#1284=CARTESIAN_POINT('',(0.1225,0.04,0.375052546262741));
#1285=CARTESIAN_POINT('',(0.1225,0.04,0.340052546262741));
#1286=CARTESIAN_POINT('',(0.1225,0.04,0.345052546262741));
#1287=CARTESIAN_POINT('',(0.1225,0.,0.345052546262741));
#1288=CARTESIAN_POINT('',(0.1225,0.005,0.345052546262741));
#1289=CARTESIAN_POINT('',(0.1225,0.005,0.400052546262741));
#1290=CARTESIAN_POINT('',(0.1225,0.005,0.400450115781006));
#1291=CARTESIAN_POINT('',(0.1225,0.045,0.400450115781006));
#1292=CARTESIAN_POINT('',(0.1225,0.022,0.364));
#1293=CARTESIAN_POINT('',(0.1225,0.022,0.3745));
#1294=CARTESIAN_POINT('',(0.1225,0.04,0.400052546262741));
#1295=CARTESIAN_POINT('',(0.1225,0.04,0.390450115781006));
#1296=CARTESIAN_POINT('',(0.1275,0.045,0.390450115781006));
#1297=CARTESIAN_POINT('',(0.1275,0.045,0.460052546262741));
#1298=CARTESIAN_POINT('',(0.1275,0.045,0.385052546262741));
#1299=CARTESIAN_POINT('',(0.0325,-0.05,0.385052546262741));
#1300=CARTESIAN_POINT('',(0.1285,0.035,0.395052546262741));
#1301=CARTESIAN_POINT('',(0.1285,0.035,0.385052546262741));
#1302=CARTESIAN_POINT('',(0.126,0.035,0.385052546262741));
#1303=CARTESIAN_POINT('',(0.1285,0.035,0.390450115781006));
#1304=CARTESIAN_POINT('',(0.1285,0.0325,0.390450115781006));
#1305=CARTESIAN_POINT('',(-0.04,0.045,0.400052546262741));
#1306=CARTESIAN_POINT('',(0.1285,0.045,0.390450115781006));
#1307=CARTESIAN_POINT('',(0.1345,0.045,0.390450115781006));
#1308=CARTESIAN_POINT('',(0.1345,0.045,0.390450115781006));
#1309=CARTESIAN_POINT('',(0.1345,0.045,0.400450115781006));
#1310=CARTESIAN_POINT('',(-0.04,0.045,0.400450115781006));
#1311=CARTESIAN_POINT('',(0.136821053843131,0.045,0.400450115781006));
#1312=CARTESIAN_POINT('',(0.147313524404355,0.045,0.400052546262741));
#1313=CARTESIAN_POINT('',(0.1575,0.045,0.39750583957776));
#1314=CARTESIAN_POINT('',(0.1575,0.045,0.400052546262741));
#1315=CARTESIAN_POINT('',(0.1575,0.045,0.378301924368346));
#1316=CARTESIAN_POINT('',(0.15552481404895,0.045,0.358550064857846));
#1317=CARTESIAN_POINT('',(0.1555,0.045,0.358301924368346));
#1318=CARTESIAN_POINT('',(0.1555,0.045,0.400052546262741));
#1319=CARTESIAN_POINT('',(0.1555,0.045,0.345052546262741));
#1320=CARTESIAN_POINT('',(-0.04,0.045,0.345052546262741));
#1321=CARTESIAN_POINT('',(0.1275,0.045,0.345052546262741));
#1322=CARTESIAN_POINT('',(0.1275,0.045,0.375052546262741));
#1323=CARTESIAN_POINT('',(0.1275,0.045,0.375052546262741));
#1324=CARTESIAN_POINT('',(-0.04,0.045,0.375052546262741));
#1325=CARTESIAN_POINT('',(0.1425,0.045,0.375052546262741));
#1326=CARTESIAN_POINT('',(0.1425,0.045,0.400052546262741));
#1327=CARTESIAN_POINT('',(0.1425,0.045,0.385052546262741));
#1328=CARTESIAN_POINT('',(-0.04,0.045,0.385052546262741));
#1329=CARTESIAN_POINT('',(-0.04,0.,0.400052546262741));
#1330=CARTESIAN_POINT('',(0.147313524404355,0.,0.400052546262741));
#1331=CARTESIAN_POINT('',(0.136821053843131,0.,0.400450115781006));
#1332=CARTESIAN_POINT('',(0.1575,0.,0.39750583957776));
#1333=CARTESIAN_POINT('',(-0.04,0.,0.400450115781006));
#1334=CARTESIAN_POINT('',(0.1275,-3.32282320069542E-24,0.400450115781006));
#1335=CARTESIAN_POINT('',(0.1275,0.,0.400052546262741));
#1336=CARTESIAN_POINT('',(0.1275,0.,0.345052546262741));
#1337=CARTESIAN_POINT('',(0.1605,0.,0.345052546262741));
#1338=CARTESIAN_POINT('',(0.1555,0.,0.345052546262741));
#1339=CARTESIAN_POINT('',(0.1555,0.,0.358052546262741));
#1340=CARTESIAN_POINT('',(0.1555,0.,0.358301924368346));
#1341=CARTESIAN_POINT('',(0.157698081375683,0.,0.380282738125172));
#1342=CARTESIAN_POINT('',(0.1575,0.,0.378301924368346));
#1343=CARTESIAN_POINT('',(0.1575,0.,0.460052546262741));
#1344=CARTESIAN_POINT('',(0.147313524404355,0.850868496704852,0.400052546262741));
#1345=CARTESIAN_POINT('',(0.136821053843131,0.850868496704852,0.400450115781006));
#1346=CARTESIAN_POINT('',(0.147313524404355,-0.010186475595645,0.400052546262741));
#1347=CARTESIAN_POINT('',(0.147313524404355,0.0551864755956451,0.400052546262741));
#1348=CARTESIAN_POINT('',(0.1275,0.,0.400052546262741));
#1349=CARTESIAN_POINT('',(0.1275,-7.97843676060727E-20,0.400450115781006));
#1350=CARTESIAN_POINT('',(0.1275,-1.15648231731787E-18,0.345052546262741));
#1351=CARTESIAN_POINT('',(0.1625,0.005,0.400052546262741));
#1352=CARTESIAN_POINT('',(0.161952049702109,0.00445204970210911,0.378079875624192));
#1353=CARTESIAN_POINT('',(0.1575,0.045,0.400052546262741));
#1354=CARTESIAN_POINT('',(0.15695826092062,0.0455417390793803,0.378328943941415));
#1355=CARTESIAN_POINT('',(0.1325,0.03,0.400052546262741));
#1356=CARTESIAN_POINT('',(0.1375,0.03,0.400052546262741));
#1357=CARTESIAN_POINT('',(0.1375,0.0300000000000004,0.375052546262741));
#1358=CARTESIAN_POINT('',(0.1375,0.0300000000000004,0.385052546262741));
#1359=CARTESIAN_POINT('',(0.1325,0.03,0.375052546262741));
#1360=CARTESIAN_POINT('',(0.1325,0.025,0.375052546262741));
#1361=CARTESIAN_POINT('',(0.1325,0.025,0.400052546262741));
#1362=CARTESIAN_POINT('',(0.1325,0.025,0.385052546262741));
#1363=CARTESIAN_POINT('',(0.1325,0.03,0.385052546262741));
#1364=CARTESIAN_POINT('',(0.1425,0.045,0.340052546262741));
#1365=CARTESIAN_POINT('',(0.1425,0.04,0.340052546262741));
#1366=CARTESIAN_POINT('',(0.1275,0.04,0.340052546262741));
#1367=CARTESIAN_POINT('',(0.1555,0.04,0.340052546262741));
#1368=CARTESIAN_POINT('',(0.1555,0.045,0.340052546262741));
#1369=CARTESIAN_POINT('',(0.1555,0.005,0.340052546262741));
#1370=CARTESIAN_POINT('',(0.1225,0.005,0.340052546262741));
#1371=CARTESIAN_POINT('',(0.1275,0.005,0.340052546262741));
#1372=CARTESIAN_POINT('',(0.1275,0.045,0.340052546262741));
#1373=CARTESIAN_POINT('',(-0.688368496704852,0.022,0.364));
#1374=CARTESIAN_POINT('',(0.161094745373726,0.022,0.364));
#1375=CARTESIAN_POINT('',(0.1605,0.0306531955971864,0.358052546262741));
#1376=CARTESIAN_POINT('',(0.1605,0.0133468044028137,0.358052546262741));
#1377=CARTESIAN_POINT('',(0.1605,0.022,0.364));
#1378=CARTESIAN_POINT('',(0.1605,0.850868496704852,0.349052546262741));
#1379=CARTESIAN_POINT('',(0.1605,0.850868496704852,0.345052546262741));
#1380=CARTESIAN_POINT('',(0.1605,0.005,0.345052546262741));
#1381=CARTESIAN_POINT('',(0.1605,0.04,0.345052546262741));
#1382=CARTESIAN_POINT('',(0.1605,0.04,0.349052546262741));
#1383=CARTESIAN_POINT('',(0.1605,0.04,0.358052546262741));
#1384=CARTESIAN_POINT('',(0.1605,0.850868496704852,0.358052546262741));
#1385=CARTESIAN_POINT('',(0.1605,0.850868496704852,0.358052546262741));
#1386=CARTESIAN_POINT('',(0.1605,0.00500000000000023,0.358052546262741));
#1387=CARTESIAN_POINT('',(0.1605,0.005,0.340052546262741));
#1388=CARTESIAN_POINT('',(0.1605,0.850868496704852,0.358052546262741));
#1389=CARTESIAN_POINT('',(0.1625,0.04,0.378052546262741));
#1390=CARTESIAN_POINT('',(0.1605,0.005,0.358052546262741));
#1391=CARTESIAN_POINT('',(0.13,0.850868496704852,0.375052546262741));
#1392=CARTESIAN_POINT('',(0.1285,0.035,0.375052546262741));
#1393=CARTESIAN_POINT('',(0.126,0.035,0.375052546262741));
#1394=CARTESIAN_POINT('',(0.1225,0.04,0.375052546262741));
#1395=CARTESIAN_POINT('',(0.541684248352426,0.43918424835241,0.375052546262741));
#1396=CARTESIAN_POINT('',(0.1275,0.025,0.375052546262741));
#1397=CARTESIAN_POINT('',(0.13,0.025,0.375052546262741));
#1398=CARTESIAN_POINT('',(0.1375,0.850868496704852,0.375052546262741));
#1399=CARTESIAN_POINT('',(0.1375,0.04,0.375052546262741));
#1400=CARTESIAN_POINT('',(0.539184248352426,0.441684248352422,0.375052546262741));
#1401=CARTESIAN_POINT('',(0.1375,0.850868496704852,0.400052546262741));
#1402=CARTESIAN_POINT('',(0.1375,0.850868496704852,0.385052546262741));
#1403=CARTESIAN_POINT('',(0.1375,0.04,0.385052546262741));
#1404=CARTESIAN_POINT('',(0.1375,0.04,0.400052546262741));
#1405=CARTESIAN_POINT('',(0.13,0.025,0.375052546262741));
#1406=CARTESIAN_POINT('',(0.1275,0.025,0.385052546262741));
#1407=CARTESIAN_POINT('',(0.1275,0.025,0.385052546262741));
#1408=CARTESIAN_POINT('',(0.13,0.025,0.385052546262741));
#1409=CARTESIAN_POINT('',(-0.04,0.0225,0.385052546262741));
#1410=CARTESIAN_POINT('',(0.1425,0.045,0.385052546262741));
#1411=CARTESIAN_POINT('',(0.1275,0.025,0.385052546262741));
#1412=CARTESIAN_POINT('',(0.1275,0.025,0.375052546262741));
#1413=CARTESIAN_POINT('',(0.1425,0.045,0.400052546262741));
#1414=CARTESIAN_POINT('',(0.1275,0.,0.345052546262741));
#1415=CARTESIAN_POINT('',(0.1275,0.,0.345052546262741));
#1416=CARTESIAN_POINT('',(0.125,0.005,0.342552546262741));
#1417=CARTESIAN_POINT('',(0.1225,0.04,0.400052546262741));
#1418=CARTESIAN_POINT('',(0.1225,0.04,0.345052546262741));
#1419=CARTESIAN_POINT('',(0.1225,0.045,0.345052546262741));
#1420=CARTESIAN_POINT('',(0.1225,0.04,0.345052546262741));
#1421=CARTESIAN_POINT('',(0.1425,0.005,0.340052546262741));
#1422=CARTESIAN_POINT('',(0.1555,0.,0.345052546262741));
#1423=CARTESIAN_POINT('',(0.1225,0.04,0.345052546262741));
#1424=CARTESIAN_POINT('',(0.1275,0.0425,0.342552546262741));
#1425=CARTESIAN_POINT('',(0.1555,0.,0.345052546262741));
#1426=CARTESIAN_POINT('',(0.1555,0.,0.345052546262741));
#1427=CARTESIAN_POINT('',(0.158,0.005,0.342552546262741));
#1428=CARTESIAN_POINT('',(-0.04,0.045,0.345052546262741));
#1429=CARTESIAN_POINT('',(0.1555,0.04,0.340052546262741));
#1430=CARTESIAN_POINT('',(0.1555,0.045,0.340052546262741));
#1431=CARTESIAN_POINT('',(0.1555,0.04,0.340052546262741));
#1432=CARTESIAN_POINT('',(0.1605,0.005,0.349052546262741));
#1433=CARTESIAN_POINT('',(0.160724161485501,0.0052241614855009,0.358041366069421));
#1434=CARTESIAN_POINT('',(0.1555,0.04,0.340052546262741));
#1435=CARTESIAN_POINT('',(0.158,0.0425,0.345052546262741));
#1436=CARTESIAN_POINT('',(0.157698081375682,0.,0.380282738125172));
#1437=CARTESIAN_POINT('',(0.1555,0.045,0.400052546262741));
#1438=CARTESIAN_POINT('',(0.154460124286174,0.0460398757138259,0.358353788815461));
#1439=CARTESIAN_POINT('',(0.157698081375682,0.045,0.380282738125172));
#1440=CARTESIAN_POINT('',(0.1625,0.0225,0.400450115781006));
#1441=CARTESIAN_POINT('',(0.1625,0.02,0.400450115781006));
#1442=CARTESIAN_POINT('',(0.126,0.02,0.400450115781006));
#1443=CARTESIAN_POINT('',(0.1345,0.0375,0.400450115781006));
#1444=CARTESIAN_POINT('',(0.1345,0.03,0.400450115781006));
#1445=CARTESIAN_POINT('',(0.1285,0.03,0.400450115781006));
#1446=CARTESIAN_POINT('',(0.1625,0.028,0.400450115781006));
#1447=CARTESIAN_POINT('',(0.126,0.028,0.400450115781006));
#1448=CARTESIAN_POINT('',(0.126,0.0225,0.400450115781006));
#1449=CARTESIAN_POINT('',(0.1285,0.035,0.370450115781006));
#1450=CARTESIAN_POINT('',(0.1285,0.035,0.370450115781006));
#1451=CARTESIAN_POINT('',(0.1285,0.0325,0.370450115781006));
#1452=CARTESIAN_POINT('',(-0.00264858597829496,0.0225,0.370450115781006));
#1453=CARTESIAN_POINT('',(-0.000898585978294925,0.0225,0.390450115781006));
#1454=CARTESIAN_POINT('',(0.1285,0.03,0.390450115781006));
#1455=CARTESIAN_POINT('',(0.1345,0.03,0.390450115781006));
#1456=CARTESIAN_POINT('',(0.1345,0.0375,0.390450115781006));
#1457=CARTESIAN_POINT('',(0.1285,0.03,0.390450115781006));
#1458=CARTESIAN_POINT('',(0.1345,0.03,0.390450115781006));
#1459=CARTESIAN_POINT('',(0.1345,0.0375,0.390450115781006));
#1460=CARTESIAN_POINT('',(0.165,0.0225,0.387950115781006));
#1461=CARTESIAN_POINT('',(0.165,0.0275,0.387950115781006));
#1462=CARTESIAN_POINT('',(0.16,0.0275,0.387950115781006));
#1463=CARTESIAN_POINT('',(0.16,0.0225,0.387950115781006));
#1464=CARTESIAN_POINT('',(0.16,0.0175,0.387950115781006));
#1465=CARTESIAN_POINT('',(0.165,0.0175,0.387950115781006));
#1466=CARTESIAN_POINT('',(0.165,0.0175,0.400450115781006));
#1467=CARTESIAN_POINT('',(0.16,0.0175,0.400450115781006));
#1468=CARTESIAN_POINT('',(0.165,0.0275,0.400450115781006));
#1469=CARTESIAN_POINT('',(0.16,0.0275,0.400450115781006));
#1470=CARTESIAN_POINT('',(0.16,0.0225,0.395501331021874));
#1471=CARTESIAN_POINT('',(0.119,0.02,0.400450115781006));
#1472=CARTESIAN_POINT('',(0.126,0.02,0.400450115781006));
#1473=CARTESIAN_POINT('',(0.126,0.02,0.390450115781006));
#1474=CARTESIAN_POINT('',(0.119,0.02,0.390450115781006));
#1475=CARTESIAN_POINT('',(0.119,0.028,0.400450115781006));
#1476=CARTESIAN_POINT('',(0.119,0.028,0.390450115781006));
#1477=CARTESIAN_POINT('',(0.126,0.028,0.390450115781006));
#1478=CARTESIAN_POINT('',(0.126,0.028,0.400450115781006));
#1479=CARTESIAN_POINT('',(0.119,0.024,0.390450115781006));
#1480=CARTESIAN_POINT('',(0.126,0.024,0.390450115781006));
#1481=CARTESIAN_POINT('',(0.126,0.0225,0.422751331021874));
#1482=CARTESIAN_POINT('',(0.126,0.024,0.395450115781006));
#1483=CARTESIAN_POINT('',(0.126,0.024,0.397050115781006));
#1484=CARTESIAN_POINT('',(0.1225,0.024,0.395450115781006));
#1485=CARTESIAN_POINT('',(0.1295,0.024,0.395450115781006));
#1486=CARTESIAN_POINT('',(0.1295,0.024,0.397050115781006));
#1487=CARTESIAN_POINT('',(0.1295,0.024,0.402150115781006));
#1488=MECHANICAL_DESIGN_GEOMETRIC_PRESENTATION_REPRESENTATION('',(#914),
#1489);
#1489=(
GEOMETRIC_REPRESENTATION_CONTEXT(3)
GLOBAL_UNCERTAINTY_ASSIGNED_CONTEXT((#1490))
GLOBAL_UNIT_ASSIGNED_CONTEXT((#1493,#1492,#1491))
REPRESENTATION_CONTEXT('XY1_BOT','TOP_LEVEL_ASSEMBLY_PART')
);
#1490=UNCERTAINTY_MEASURE_WITH_UNIT(LENGTH_MEASURE(1.E-8),#1493,
'DISTANCE_ACCURACY_VALUE','Maximum Tolerance applied to model');
#1491=(
NAMED_UNIT(*)
SI_UNIT($,.STERADIAN.)
SOLID_ANGLE_UNIT()
);
#1492=(
NAMED_UNIT(*)
PLANE_ANGLE_UNIT()
SI_UNIT($,.RADIAN.)
);
#1493=(
LENGTH_UNIT()
NAMED_UNIT(*)
SI_UNIT($,.METRE.)
);
#1494=PRODUCT_DEFINITION_SHAPE('','',#1495);
#1495=PRODUCT_DEFINITION('','',#1497,#1496);
#1496=PRODUCT_DEFINITION_CONTEXT('',#1503,'design');
#1497=PRODUCT_DEFINITION_FORMATION_WITH_SPECIFIED_SOURCE('','',#1499,
 .NOT_KNOWN.);
#1498=PRODUCT_RELATED_PRODUCT_CATEGORY('','',(#1499));
#1499=PRODUCT('XY1_BOT','XY1_BOT','XY1_BOT',(#1501));
#1500=PRODUCT_CATEGORY('','');
#1501=PRODUCT_CONTEXT('',#1503,'mechanical');
#1502=APPLICATION_PROTOCOL_DEFINITION('international standard',
'ap242_managed_model_based_3d_engineering',2020,#1503);
#1503=APPLICATION_CONTEXT('managed model based 3d engineering');
ENDSEC;
END-ISO-10303-21;
