ISO-10303-21;
HEADER;
/* Generated by software containing ST-Developer
 * from STEP Tools, Inc. (www.steptools.com) 
 */
/* OPTION: using custom renumber hook */

FILE_DESCRIPTION(
/* description */ ('STEP AP242 Edition 2',
'CAx-IF Rec.Pracs.---Representation and Presentation of Product Manufa
cturing Information (PMI)---4.0---2014-10-13',
'CAx-IF Rec.Pracs.---3D Tessellated Geometry---0.4---2014-09-14','2;1',
'CAx-IF Rec.Pracs.---User Defined Attributes---1.5---2016-08-15'),
/* implementation_level */ '2;1');

FILE_NAME(
/* name */ 'NOT-618 - XY1_TOP',
/* time_stamp */ '2026-07-26T08:51:50Z',
/* author */ (''),
/* organization */ (''),
/* preprocessor_version */ 'ST-DEVELOPER v20',
/* originating_system */ 'ONSHAPE BY PTC INC, 1.218',
/* authorisation */ '  ');

FILE_SCHEMA (('AP242_MANAGED_MODEL_BASED_3D_ENGINEERING_MIM_LF { 1 0 10303 442 3 1 4 }'));
ENDSEC;

DATA;
#10=SHAPE_REPRESENTATION_RELATIONSHIP('','',#934,#11);
#11=ADVANCED_BREP_SHAPE_REPRESENTATION('',(#932),#1492);
#12=CYLINDRICAL_SURFACE('',#943,0.0025);
#13=CYLINDRICAL_SURFACE('',#955,0.005);
#14=CYLINDRICAL_SURFACE('',#960,0.0095);
#15=CYLINDRICAL_SURFACE('',#974,0.0105);
#16=CYLINDRICAL_SURFACE('',#979,0.0025);
#17=CYLINDRICAL_SURFACE('',#994,0.0016);
#18=LINE('',#1238,#131);
#19=LINE('',#1241,#132);
#20=LINE('',#1243,#133);
#21=LINE('',#1245,#134);
#22=LINE('',#1247,#135);
#23=LINE('',#1249,#136);
#24=LINE('',#1251,#137);
#25=LINE('',#1253,#138);
#26=LINE('',#1255,#139);
#27=LINE('',#1257,#140);
#28=LINE('',#1259,#141);
#29=LINE('',#1261,#142);
#30=LINE('',#1263,#143);
#31=LINE('',#1265,#144);
#32=LINE('',#1266,#145);
#33=LINE('',#1268,#146);
#34=LINE('',#1270,#147);
#35=LINE('',#1274,#148);
#36=LINE('',#1276,#149);
#37=LINE('',#1278,#150);
#38=LINE('',#1280,#151);
#39=LINE('',#1282,#152);
#40=LINE('',#1284,#153);
#41=LINE('',#1286,#154);
#42=LINE('',#1288,#155);
#43=LINE('',#1290,#156);
#44=LINE('',#1292,#157);
#45=LINE('',#1294,#158);
#46=LINE('',#1296,#159);
#47=LINE('',#1298,#160);
#48=LINE('',#1300,#161);
#49=LINE('',#1303,#162);
#50=LINE('',#1305,#163);
#51=LINE('',#1307,#164);
#52=LINE('',#1309,#165);
#53=LINE('',#1311,#166);
#54=LINE('',#1313,#167);
#55=LINE('',#1315,#168);
#56=LINE('',#1317,#169);
#57=LINE('',#1319,#170);
#58=LINE('',#1321,#171);
#59=LINE('',#1323,#172);
#60=LINE('',#1325,#173);
#61=LINE('',#1327,#174);
#62=LINE('',#1336,#175);
#63=LINE('',#1337,#176);
#64=LINE('',#1339,#177);
#65=LINE('',#1342,#178);
#66=LINE('',#1343,#179);
#67=LINE('',#1345,#180);
#68=LINE('',#1346,#181);
#69=LINE('',#1348,#182);
#70=LINE('',#1350,#183);
#71=LINE('',#1351,#184);
#72=LINE('',#1353,#185);
#73=LINE('',#1355,#186);
#74=LINE('',#1357,#187);
#75=LINE('',#1358,#188);
#76=LINE('',#1360,#189);
#77=LINE('',#1363,#190);
#78=LINE('',#1365,#191);
#79=LINE('',#1367,#192);
#80=LINE('',#1368,#193);
#81=LINE('',#1370,#194);
#82=LINE('',#1373,#195);
#83=LINE('',#1375,#196);
#84=LINE('',#1376,#197);
#85=LINE('',#1378,#198);
#86=LINE('',#1380,#199);
#87=LINE('',#1382,#200);
#88=LINE('',#1383,#201);
#89=LINE('',#1385,#202);
#90=LINE('',#1387,#203);
#91=LINE('',#1390,#204);
#92=LINE('',#1391,#205);
#93=LINE('',#1393,#206);
#94=LINE('',#1395,#207);
#95=LINE('',#1398,#208);
#96=LINE('',#1400,#209);
#97=LINE('',#1402,#210);
#98=LINE('',#1404,#211);
#99=LINE('',#1410,#212);
#100=LINE('',#1412,#213);
#101=LINE('',#1414,#214);
#102=LINE('',#1416,#215);
#103=LINE('',#1417,#216);
#104=LINE('',#1420,#217);
#105=LINE('',#1422,#218);
#106=LINE('',#1423,#219);
#107=LINE('',#1425,#220);
#108=LINE('',#1426,#221);
#109=LINE('',#1428,#222);
#110=LINE('',#1429,#223);
#111=LINE('',#1433,#224);
#112=LINE('',#1436,#225);
#113=LINE('',#1441,#226);
#114=LINE('',#1445,#227);
#115=LINE('',#1446,#228);
#116=LINE('',#1448,#229);
#117=LINE('',#1450,#230);
#118=LINE('',#1457,#231);
#119=LINE('',#1459,#232);
#120=LINE('',#1461,#233);
#121=LINE('',#1464,#234);
#122=LINE('',#1466,#235);
#123=LINE('',#1468,#236);
#124=LINE('',#1470,#237);
#125=LINE('',#1472,#238);
#126=LINE('',#1477,#239);
#127=LINE('',#1479,#240);
#128=LINE('',#1481,#241);
#129=LINE('',#1483,#242);
#130=LINE('',#1485,#243);
#131=VECTOR('',#1003,1.);
#132=VECTOR('',#1004,1.);
#133=VECTOR('',#1005,1.);
#134=VECTOR('',#1006,1.);
#135=VECTOR('',#1007,1.);
#136=VECTOR('',#1008,1.);
#137=VECTOR('',#1009,1.);
#138=VECTOR('',#1010,1.);
#139=VECTOR('',#1013,1.);
#140=VECTOR('',#1014,1.);
#141=VECTOR('',#1015,1.);
#142=VECTOR('',#1016,1.);
#143=VECTOR('',#1017,1.);
#144=VECTOR('',#1018,1.);
#145=VECTOR('',#1019,1.);
#146=VECTOR('',#1020,1.);
#147=VECTOR('',#1023,1.);
#148=VECTOR('',#1026,1.);
#149=VECTOR('',#1027,1.);
#150=VECTOR('',#1028,1.);
#151=VECTOR('',#1029,1.);
#152=VECTOR('',#1030,1.);
#153=VECTOR('',#1031,1.);
#154=VECTOR('',#1032,1.);
#155=VECTOR('',#1033,1.);
#156=VECTOR('',#1034,1.);
#157=VECTOR('',#1035,1.);
#158=VECTOR('',#1036,1.);
#159=VECTOR('',#1037,1.);
#160=VECTOR('',#1038,1.);
#161=VECTOR('',#1041,1.);
#162=VECTOR('',#1042,1.);
#163=VECTOR('',#1043,1.);
#164=VECTOR('',#1044,1.);
#165=VECTOR('',#1045,1.);
#166=VECTOR('',#1046,1.);
#167=VECTOR('',#1047,1.);
#168=VECTOR('',#1048,1.);
#169=VECTOR('',#1049,1.);
#170=VECTOR('',#1050,1.);
#171=VECTOR('',#1051,1.);
#172=VECTOR('',#1052,1.);
#173=VECTOR('',#1053,1.);
#174=VECTOR('',#1054,1.);
#175=VECTOR('',#1065,1.);
#176=VECTOR('',#1066,1.);
#177=VECTOR('',#1069,1.);
#178=VECTOR('',#1070,1.);
#179=VECTOR('',#1071,1.);
#180=VECTOR('',#1072,1.);
#181=VECTOR('',#1073,1.);
#182=VECTOR('',#1074,1.);
#183=VECTOR('',#1075,1.);
#184=VECTOR('',#1076,1.);
#185=VECTOR('',#1079,1.);
#186=VECTOR('',#1080,1.);
#187=VECTOR('',#1081,1.);
#188=VECTOR('',#1082,1.);
#189=VECTOR('',#1085,1.);
#190=VECTOR('',#1086,1.);
#191=VECTOR('',#1087,1.);
#192=VECTOR('',#1088,1.);
#193=VECTOR('',#1089,1.);
#194=VECTOR('',#1090,1.);
#195=VECTOR('',#1095,1.);
#196=VECTOR('',#1096,1.);
#197=VECTOR('',#1097,1.);
#198=VECTOR('',#1098,1.);
#199=VECTOR('',#1099,1.);
#200=VECTOR('',#1102,1.);
#201=VECTOR('',#1103,1.);
#202=VECTOR('',#1104,1.);
#203=VECTOR('',#1107,1.);
#204=VECTOR('',#1108,1.);
#205=VECTOR('',#1109,1.);
#206=VECTOR('',#1110,1.);
#207=VECTOR('',#1113,1.);
#208=VECTOR('',#1114,1.);
#209=VECTOR('',#1115,1.);
#210=VECTOR('',#1116,1.);
#211=VECTOR('',#1119,1.);
#212=VECTOR('',#1126,1.);
#213=VECTOR('',#1127,1.);
#214=VECTOR('',#1128,1.);
#215=VECTOR('',#1131,1.);
#216=VECTOR('',#1132,1.);
#217=VECTOR('',#1137,1.);
#218=VECTOR('',#1140,1.);
#219=VECTOR('',#1141,1.);
#220=VECTOR('',#1144,1.);
#221=VECTOR('',#1145,1.);
#222=VECTOR('',#1148,1.);
#223=VECTOR('',#1149,1.);
#224=VECTOR('',#1154,1.);
#225=VECTOR('',#1159,1.);
#226=VECTOR('',#1168,1.);
#227=VECTOR('',#1175,1.);
#228=VECTOR('',#1176,1.);
#229=VECTOR('',#1179,1.);
#230=VECTOR('',#1182,1.);
#231=VECTOR('',#1193,1.);
#232=VECTOR('',#1194,1.);
#233=VECTOR('',#1197,1.);
#234=VECTOR('',#1202,1.);
#235=VECTOR('',#1203,1.);
#236=VECTOR('',#1204,1.);
#237=VECTOR('',#1207,1.);
#238=VECTOR('',#1210,1.);
#239=VECTOR('',#1217,1.);
#240=VECTOR('',#1218,1.);
#241=VECTOR('',#1219,1.);
#242=VECTOR('',#1222,1.);
#243=VECTOR('',#1225,1.);
#244=ORIENTED_EDGE('',*,*,#494,.F.);
#245=ORIENTED_EDGE('',*,*,#495,.F.);
#246=ORIENTED_EDGE('',*,*,#496,.T.);
#247=ORIENTED_EDGE('',*,*,#497,.T.);
#248=ORIENTED_EDGE('',*,*,#498,.T.);
#249=ORIENTED_EDGE('',*,*,#499,.T.);
#250=ORIENTED_EDGE('',*,*,#500,.T.);
#251=ORIENTED_EDGE('',*,*,#501,.T.);
#252=ORIENTED_EDGE('',*,*,#502,.T.);
#253=ORIENTED_EDGE('',*,*,#503,.F.);
#254=ORIENTED_EDGE('',*,*,#502,.F.);
#255=ORIENTED_EDGE('',*,*,#504,.T.);
#256=ORIENTED_EDGE('',*,*,#505,.T.);
#257=ORIENTED_EDGE('',*,*,#506,.F.);
#258=ORIENTED_EDGE('',*,*,#507,.F.);
#259=ORIENTED_EDGE('',*,*,#508,.T.);
#260=ORIENTED_EDGE('',*,*,#498,.F.);
#261=ORIENTED_EDGE('',*,*,#509,.T.);
#262=ORIENTED_EDGE('',*,*,#510,.F.);
#263=ORIENTED_EDGE('',*,*,#511,.F.);
#264=ORIENTED_EDGE('',*,*,#512,.F.);
#265=ORIENTED_EDGE('',*,*,#505,.F.);
#266=ORIENTED_EDGE('',*,*,#513,.T.);
#267=ORIENTED_EDGE('',*,*,#514,.F.);
#268=ORIENTED_EDGE('',*,*,#515,.T.);
#269=ORIENTED_EDGE('',*,*,#516,.T.);
#270=ORIENTED_EDGE('',*,*,#517,.T.);
#271=ORIENTED_EDGE('',*,*,#518,.T.);
#272=ORIENTED_EDGE('',*,*,#519,.T.);
#273=ORIENTED_EDGE('',*,*,#520,.T.);
#274=ORIENTED_EDGE('',*,*,#521,.T.);
#275=ORIENTED_EDGE('',*,*,#522,.F.);
#276=ORIENTED_EDGE('',*,*,#523,.T.);
#277=ORIENTED_EDGE('',*,*,#524,.T.);
#278=ORIENTED_EDGE('',*,*,#525,.T.);
#279=ORIENTED_EDGE('',*,*,#526,.F.);
#280=ORIENTED_EDGE('',*,*,#527,.F.);
#281=ORIENTED_EDGE('',*,*,#528,.F.);
#282=ORIENTED_EDGE('',*,*,#529,.T.);
#283=ORIENTED_EDGE('',*,*,#530,.T.);
#284=ORIENTED_EDGE('',*,*,#531,.F.);
#285=ORIENTED_EDGE('',*,*,#532,.T.);
#286=ORIENTED_EDGE('',*,*,#533,.T.);
#287=ORIENTED_EDGE('',*,*,#534,.T.);
#288=ORIENTED_EDGE('',*,*,#535,.T.);
#289=ORIENTED_EDGE('',*,*,#536,.T.);
#290=ORIENTED_EDGE('',*,*,#537,.F.);
#291=ORIENTED_EDGE('',*,*,#538,.T.);
#292=ORIENTED_EDGE('',*,*,#539,.F.);
#293=ORIENTED_EDGE('',*,*,#540,.F.);
#294=ORIENTED_EDGE('',*,*,#541,.T.);
#295=ORIENTED_EDGE('',*,*,#542,.F.);
#296=ORIENTED_EDGE('',*,*,#530,.F.);
#297=ORIENTED_EDGE('',*,*,#543,.T.);
#298=ORIENTED_EDGE('',*,*,#523,.F.);
#299=ORIENTED_EDGE('',*,*,#544,.F.);
#300=ORIENTED_EDGE('',*,*,#545,.F.);
#301=ORIENTED_EDGE('',*,*,#546,.T.);
#302=ORIENTED_EDGE('',*,*,#511,.T.);
#303=ORIENTED_EDGE('',*,*,#547,.F.);
#304=ORIENTED_EDGE('',*,*,#548,.F.);
#305=ORIENTED_EDGE('',*,*,#527,.T.);
#306=ORIENTED_EDGE('',*,*,#549,.T.);
#307=ORIENTED_EDGE('',*,*,#550,.F.);
#308=ORIENTED_EDGE('',*,*,#551,.F.);
#309=ORIENTED_EDGE('',*,*,#537,.T.);
#310=ORIENTED_EDGE('',*,*,#552,.T.);
#311=ORIENTED_EDGE('',*,*,#517,.F.);
#312=ORIENTED_EDGE('',*,*,#553,.T.);
#313=ORIENTED_EDGE('',*,*,#554,.F.);
#314=ORIENTED_EDGE('',*,*,#555,.F.);
#315=ORIENTED_EDGE('',*,*,#513,.F.);
#316=ORIENTED_EDGE('',*,*,#504,.F.);
#317=ORIENTED_EDGE('',*,*,#501,.F.);
#318=ORIENTED_EDGE('',*,*,#556,.F.);
#319=ORIENTED_EDGE('',*,*,#557,.F.);
#320=ORIENTED_EDGE('',*,*,#558,.T.);
#321=ORIENTED_EDGE('',*,*,#559,.F.);
#322=ORIENTED_EDGE('',*,*,#560,.F.);
#323=ORIENTED_EDGE('',*,*,#499,.F.);
#324=ORIENTED_EDGE('',*,*,#508,.F.);
#325=ORIENTED_EDGE('',*,*,#561,.F.);
#326=ORIENTED_EDGE('',*,*,#562,.F.);
#327=ORIENTED_EDGE('',*,*,#563,.T.);
#328=ORIENTED_EDGE('',*,*,#545,.T.);
#329=ORIENTED_EDGE('',*,*,#564,.T.);
#330=ORIENTED_EDGE('',*,*,#565,.T.);
#331=ORIENTED_EDGE('',*,*,#559,.T.);
#332=ORIENTED_EDGE('',*,*,#566,.F.);
#333=ORIENTED_EDGE('',*,*,#567,.F.);
#334=ORIENTED_EDGE('',*,*,#568,.T.);
#335=ORIENTED_EDGE('',*,*,#561,.T.);
#336=ORIENTED_EDGE('',*,*,#507,.T.);
#337=ORIENTED_EDGE('',*,*,#569,.T.);
#338=ORIENTED_EDGE('',*,*,#570,.T.);
#339=ORIENTED_EDGE('',*,*,#571,.F.);
#340=ORIENTED_EDGE('',*,*,#572,.T.);
#341=ORIENTED_EDGE('',*,*,#573,.T.);
#342=ORIENTED_EDGE('',*,*,#574,.T.);
#343=ORIENTED_EDGE('',*,*,#575,.T.);
#344=ORIENTED_EDGE('',*,*,#576,.T.);
#345=ORIENTED_EDGE('',*,*,#577,.T.);
#346=ORIENTED_EDGE('',*,*,#578,.F.);
#347=ORIENTED_EDGE('',*,*,#579,.T.);
#348=ORIENTED_EDGE('',*,*,#580,.F.);
#349=ORIENTED_EDGE('',*,*,#581,.F.);
#350=ORIENTED_EDGE('',*,*,#579,.F.);
#351=ORIENTED_EDGE('',*,*,#582,.F.);
#352=ORIENTED_EDGE('',*,*,#583,.T.);
#353=ORIENTED_EDGE('',*,*,#584,.T.);
#354=ORIENTED_EDGE('',*,*,#585,.F.);
#355=ORIENTED_EDGE('',*,*,#580,.T.);
#356=ORIENTED_EDGE('',*,*,#586,.T.);
#357=ORIENTED_EDGE('',*,*,#500,.F.);
#358=ORIENTED_EDGE('',*,*,#587,.F.);
#359=ORIENTED_EDGE('',*,*,#575,.F.);
#360=ORIENTED_EDGE('',*,*,#540,.T.);
#361=ORIENTED_EDGE('',*,*,#494,.T.);
#362=ORIENTED_EDGE('',*,*,#571,.T.);
#363=ORIENTED_EDGE('',*,*,#573,.F.);
#364=ORIENTED_EDGE('',*,*,#588,.F.);
#365=ORIENTED_EDGE('',*,*,#535,.F.);
#366=ORIENTED_EDGE('',*,*,#589,.F.);
#367=ORIENTED_EDGE('',*,*,#577,.F.);
#368=ORIENTED_EDGE('',*,*,#590,.F.);
#369=ORIENTED_EDGE('',*,*,#532,.F.);
#370=ORIENTED_EDGE('',*,*,#591,.T.);
#371=ORIENTED_EDGE('',*,*,#565,.F.);
#372=ORIENTED_EDGE('',*,*,#592,.F.);
#373=ORIENTED_EDGE('',*,*,#572,.F.);
#374=ORIENTED_EDGE('',*,*,#593,.F.);
#375=ORIENTED_EDGE('',*,*,#521,.F.);
#376=ORIENTED_EDGE('',*,*,#594,.F.);
#377=ORIENTED_EDGE('',*,*,#584,.F.);
#378=ORIENTED_EDGE('',*,*,#595,.F.);
#379=ORIENTED_EDGE('',*,*,#520,.F.);
#380=ORIENTED_EDGE('',*,*,#596,.T.);
#381=ORIENTED_EDGE('',*,*,#533,.F.);
#382=ORIENTED_EDGE('',*,*,#590,.T.);
#383=ORIENTED_EDGE('',*,*,#576,.F.);
#384=ORIENTED_EDGE('',*,*,#581,.T.);
#385=ORIENTED_EDGE('',*,*,#585,.T.);
#386=ORIENTED_EDGE('',*,*,#594,.T.);
#387=ORIENTED_EDGE('',*,*,#596,.F.);
#388=ORIENTED_EDGE('',*,*,#519,.F.);
#389=ORIENTED_EDGE('',*,*,#569,.F.);
#390=ORIENTED_EDGE('',*,*,#534,.F.);
#391=ORIENTED_EDGE('',*,*,#597,.T.);
#392=ORIENTED_EDGE('',*,*,#574,.F.);
#393=ORIENTED_EDGE('',*,*,#570,.F.);
#394=ORIENTED_EDGE('',*,*,#518,.F.);
#395=ORIENTED_EDGE('',*,*,#541,.F.);
#396=ORIENTED_EDGE('',*,*,#531,.T.);
#397=ORIENTED_EDGE('',*,*,#544,.T.);
#398=ORIENTED_EDGE('',*,*,#522,.T.);
#399=ORIENTED_EDGE('',*,*,#593,.T.);
#400=ORIENTED_EDGE('',*,*,#583,.F.);
#401=ORIENTED_EDGE('',*,*,#582,.T.);
#402=ORIENTED_EDGE('',*,*,#578,.T.);
#403=ORIENTED_EDGE('',*,*,#589,.T.);
#404=ORIENTED_EDGE('',*,*,#597,.F.);
#405=ORIENTED_EDGE('',*,*,#556,.T.);
#406=ORIENTED_EDGE('',*,*,#586,.F.);
#407=ORIENTED_EDGE('',*,*,#587,.T.);
#408=ORIENTED_EDGE('',*,*,#560,.T.);
#409=ORIENTED_EDGE('',*,*,#591,.F.);
#410=ORIENTED_EDGE('',*,*,#588,.T.);
#411=ORIENTED_EDGE('',*,*,#592,.T.);
#412=ORIENTED_EDGE('',*,*,#598,.F.);
#413=ORIENTED_EDGE('',*,*,#552,.F.);
#414=ORIENTED_EDGE('',*,*,#536,.F.);
#415=ORIENTED_EDGE('',*,*,#598,.T.);
#416=ORIENTED_EDGE('',*,*,#564,.F.);
#417=ORIENTED_EDGE('',*,*,#563,.F.);
#418=ORIENTED_EDGE('',*,*,#506,.T.);
#419=ORIENTED_EDGE('',*,*,#512,.T.);
#420=ORIENTED_EDGE('',*,*,#546,.F.);
#421=ORIENTED_EDGE('',*,*,#599,.F.);
#422=ORIENTED_EDGE('',*,*,#567,.T.);
#423=ORIENTED_EDGE('',*,*,#600,.T.);
#424=ORIENTED_EDGE('',*,*,#515,.F.);
#425=ORIENTED_EDGE('',*,*,#516,.F.);
#426=ORIENTED_EDGE('',*,*,#600,.F.);
#427=ORIENTED_EDGE('',*,*,#566,.T.);
#428=ORIENTED_EDGE('',*,*,#558,.F.);
#429=ORIENTED_EDGE('',*,*,#601,.T.);
#430=ORIENTED_EDGE('',*,*,#553,.F.);
#431=ORIENTED_EDGE('',*,*,#555,.T.);
#432=ORIENTED_EDGE('',*,*,#602,.F.);
#433=ORIENTED_EDGE('',*,*,#562,.T.);
#434=ORIENTED_EDGE('',*,*,#568,.F.);
#435=ORIENTED_EDGE('',*,*,#599,.T.);
#436=ORIENTED_EDGE('',*,*,#514,.T.);
#437=ORIENTED_EDGE('',*,*,#554,.T.);
#438=ORIENTED_EDGE('',*,*,#601,.F.);
#439=ORIENTED_EDGE('',*,*,#557,.T.);
#440=ORIENTED_EDGE('',*,*,#602,.T.);
#441=ORIENTED_EDGE('',*,*,#595,.T.);
#442=ORIENTED_EDGE('',*,*,#603,.F.);
#443=ORIENTED_EDGE('',*,*,#603,.T.);
#444=ORIENTED_EDGE('',*,*,#529,.F.);
#445=ORIENTED_EDGE('',*,*,#604,.T.);
#446=ORIENTED_EDGE('',*,*,#605,.T.);
#447=ORIENTED_EDGE('',*,*,#524,.F.);
#448=ORIENTED_EDGE('',*,*,#543,.F.);
#449=ORIENTED_EDGE('',*,*,#542,.T.);
#450=ORIENTED_EDGE('',*,*,#548,.T.);
#451=ORIENTED_EDGE('',*,*,#606,.F.);
#452=ORIENTED_EDGE('',*,*,#604,.F.);
#453=ORIENTED_EDGE('',*,*,#528,.T.);
#454=ORIENTED_EDGE('',*,*,#547,.T.);
#455=ORIENTED_EDGE('',*,*,#525,.F.);
#456=ORIENTED_EDGE('',*,*,#605,.F.);
#457=ORIENTED_EDGE('',*,*,#606,.T.);
#458=ORIENTED_EDGE('',*,*,#607,.T.);
#459=ORIENTED_EDGE('',*,*,#608,.T.);
#460=ORIENTED_EDGE('',*,*,#609,.F.);
#461=ORIENTED_EDGE('',*,*,#496,.F.);
#462=ORIENTED_EDGE('',*,*,#495,.T.);
#463=ORIENTED_EDGE('',*,*,#503,.T.);
#464=ORIENTED_EDGE('',*,*,#610,.F.);
#465=ORIENTED_EDGE('',*,*,#607,.F.);
#466=ORIENTED_EDGE('',*,*,#609,.T.);
#467=ORIENTED_EDGE('',*,*,#611,.T.);
#468=ORIENTED_EDGE('',*,*,#509,.F.);
#469=ORIENTED_EDGE('',*,*,#497,.F.);
#470=ORIENTED_EDGE('',*,*,#510,.T.);
#471=ORIENTED_EDGE('',*,*,#611,.F.);
#472=ORIENTED_EDGE('',*,*,#608,.F.);
#473=ORIENTED_EDGE('',*,*,#610,.T.);
#474=ORIENTED_EDGE('',*,*,#612,.T.);
#475=ORIENTED_EDGE('',*,*,#550,.T.);
#476=ORIENTED_EDGE('',*,*,#613,.F.);
#477=ORIENTED_EDGE('',*,*,#614,.F.);
#478=ORIENTED_EDGE('',*,*,#615,.T.);
#479=ORIENTED_EDGE('',*,*,#526,.T.);
#480=ORIENTED_EDGE('',*,*,#616,.T.);
#481=ORIENTED_EDGE('',*,*,#613,.T.);
#482=ORIENTED_EDGE('',*,*,#549,.F.);
#483=ORIENTED_EDGE('',*,*,#539,.T.);
#484=ORIENTED_EDGE('',*,*,#617,.T.);
#485=ORIENTED_EDGE('',*,*,#614,.T.);
#486=ORIENTED_EDGE('',*,*,#616,.F.);
#487=ORIENTED_EDGE('',*,*,#551,.T.);
#488=ORIENTED_EDGE('',*,*,#615,.F.);
#489=ORIENTED_EDGE('',*,*,#617,.F.);
#490=ORIENTED_EDGE('',*,*,#538,.F.);
#491=ORIENTED_EDGE('',*,*,#612,.F.);
#492=ORIENTED_EDGE('',*,*,#618,.F.);
#493=ORIENTED_EDGE('',*,*,#618,.T.);
#494=EDGE_CURVE('',#619,#619,#701,.T.);
#495=EDGE_CURVE('',#620,#621,#18,.T.);
#496=EDGE_CURVE('',#620,#622,#19,.T.);
#497=EDGE_CURVE('',#622,#623,#20,.T.);
#498=EDGE_CURVE('',#623,#624,#21,.T.);
#499=EDGE_CURVE('',#624,#625,#22,.T.);
#500=EDGE_CURVE('',#625,#626,#23,.T.);
#501=EDGE_CURVE('',#626,#627,#24,.T.);
#502=EDGE_CURVE('',#627,#621,#25,.T.);
#503=EDGE_CURVE('',#621,#628,#26,.T.);
#504=EDGE_CURVE('',#627,#629,#27,.T.);
#505=EDGE_CURVE('',#629,#630,#28,.T.);
#506=EDGE_CURVE('',#631,#630,#29,.T.);
#507=EDGE_CURVE('',#632,#631,#30,.T.);
#508=EDGE_CURVE('',#632,#624,#31,.F.);
#509=EDGE_CURVE('',#623,#633,#32,.T.);
#510=EDGE_CURVE('',#628,#633,#33,.T.);
#511=EDGE_CURVE('',#634,#635,#34,.T.);
#512=EDGE_CURVE('',#630,#634,#702,.T.);
#513=EDGE_CURVE('',#629,#636,#35,.T.);
#514=EDGE_CURVE('',#637,#636,#36,.T.);
#515=EDGE_CURVE('',#637,#638,#37,.T.);
#516=EDGE_CURVE('',#638,#639,#38,.T.);
#517=EDGE_CURVE('',#639,#640,#39,.T.);
#518=EDGE_CURVE('',#640,#641,#40,.T.);
#519=EDGE_CURVE('',#641,#642,#41,.T.);
#520=EDGE_CURVE('',#642,#643,#42,.T.);
#521=EDGE_CURVE('',#643,#644,#43,.T.);
#522=EDGE_CURVE('',#645,#644,#44,.T.);
#523=EDGE_CURVE('',#645,#646,#45,.T.);
#524=EDGE_CURVE('',#646,#647,#46,.T.);
#525=EDGE_CURVE('',#647,#635,#47,.T.);
#526=EDGE_CURVE('',#648,#649,#48,.T.);
#527=EDGE_CURVE('',#650,#648,#49,.T.);
#528=EDGE_CURVE('',#651,#650,#50,.T.);
#529=EDGE_CURVE('',#651,#652,#51,.T.);
#530=EDGE_CURVE('',#652,#653,#52,.T.);
#531=EDGE_CURVE('',#654,#653,#53,.T.);
#532=EDGE_CURVE('',#654,#655,#54,.T.);
#533=EDGE_CURVE('',#655,#656,#55,.T.);
#534=EDGE_CURVE('',#656,#657,#56,.T.);
#535=EDGE_CURVE('',#657,#658,#57,.T.);
#536=EDGE_CURVE('',#658,#659,#58,.T.);
#537=EDGE_CURVE('',#660,#659,#59,.T.);
#538=EDGE_CURVE('',#660,#661,#60,.T.);
#539=EDGE_CURVE('',#649,#661,#61,.T.);
#540=EDGE_CURVE('',#662,#662,#703,.T.);
#541=EDGE_CURVE('',#663,#663,#704,.T.);
#542=EDGE_CURVE('',#664,#664,#705,.F.);
#543=EDGE_CURVE('',#652,#646,#62,.F.);
#544=EDGE_CURVE('',#653,#645,#63,.F.);
#545=EDGE_CURVE('',#665,#666,#64,.T.);
#546=EDGE_CURVE('',#665,#634,#65,.T.);
#547=EDGE_CURVE('',#667,#635,#66,.T.);
#548=EDGE_CURVE('',#650,#667,#67,.T.);
#549=EDGE_CURVE('',#648,#668,#68,.T.);
#550=EDGE_CURVE('',#669,#668,#69,.T.);
#551=EDGE_CURVE('',#660,#669,#70,.T.);
#552=EDGE_CURVE('',#659,#666,#71,.T.);
#553=EDGE_CURVE('',#639,#670,#72,.T.);
#554=EDGE_CURVE('',#671,#670,#73,.T.);
#555=EDGE_CURVE('',#636,#671,#74,.T.);
#556=EDGE_CURVE('',#640,#626,#75,.T.);
#557=EDGE_CURVE('',#672,#673,#76,.F.);
#558=EDGE_CURVE('',#672,#674,#77,.F.);
#559=EDGE_CURVE('',#675,#674,#78,.T.);
#560=EDGE_CURVE('',#625,#675,#79,.F.);
#561=EDGE_CURVE('',#676,#632,#80,.T.);
#562=EDGE_CURVE('',#673,#676,#81,.F.);
#563=EDGE_CURVE('',#631,#665,#706,.T.);
#564=EDGE_CURVE('',#666,#677,#82,.T.);
#565=EDGE_CURVE('',#677,#675,#83,.T.);
#566=EDGE_CURVE('',#678,#674,#84,.T.);
#567=EDGE_CURVE('',#679,#678,#85,.T.);
#568=EDGE_CURVE('',#679,#676,#86,.T.);
#569=EDGE_CURVE('',#657,#641,#87,.F.);
#570=EDGE_CURVE('',#641,#680,#88,.F.);
#571=EDGE_CURVE('',#657,#680,#89,.T.);
#572=EDGE_CURVE('',#681,#682,#90,.T.);
#573=EDGE_CURVE('',#682,#680,#91,.T.);
#574=EDGE_CURVE('',#680,#683,#92,.T.);
#575=EDGE_CURVE('',#683,#681,#93,.T.);
#576=EDGE_CURVE('',#684,#685,#94,.T.);
#577=EDGE_CURVE('',#685,#686,#95,.T.);
#578=EDGE_CURVE('',#687,#686,#96,.T.);
#579=EDGE_CURVE('',#687,#684,#97,.F.);
#580=EDGE_CURVE('',#688,#689,#98,.T.);
#581=EDGE_CURVE('',#684,#688,#707,.T.);
#582=EDGE_CURVE('',#689,#687,#708,.T.);
#583=EDGE_CURVE('',#689,#690,#99,.T.);
#584=EDGE_CURVE('',#690,#691,#100,.T.);
#585=EDGE_CURVE('',#688,#691,#101,.T.);
#586=EDGE_CURVE('',#683,#626,#102,.F.);
#587=EDGE_CURVE('',#681,#625,#103,.T.);
#588=EDGE_CURVE('',#658,#682,#104,.F.);
#589=EDGE_CURVE('',#686,#654,#105,.T.);
#590=EDGE_CURVE('',#655,#685,#106,.T.);
#591=EDGE_CURVE('',#681,#675,#107,.F.);
#592=EDGE_CURVE('',#682,#677,#108,.T.);
#593=EDGE_CURVE('',#644,#690,#109,.T.);
#594=EDGE_CURVE('',#691,#643,#110,.T.);
#595=EDGE_CURVE('',#692,#692,#709,.T.);
#596=EDGE_CURVE('',#642,#656,#111,.F.);
#597=EDGE_CURVE('',#640,#683,#112,.T.);
#598=EDGE_CURVE('',#658,#677,#113,.F.);
#599=EDGE_CURVE('',#679,#637,#114,.T.);
#600=EDGE_CURVE('',#678,#638,#115,.T.);
#601=EDGE_CURVE('',#672,#670,#116,.T.);
#602=EDGE_CURVE('',#673,#671,#117,.T.);
#603=EDGE_CURVE('',#693,#693,#710,.T.);
#604=EDGE_CURVE('',#651,#694,#118,.T.);
#605=EDGE_CURVE('',#694,#647,#119,.T.);
#606=EDGE_CURVE('',#694,#667,#120,.T.);
#607=EDGE_CURVE('',#620,#695,#121,.T.);
#608=EDGE_CURVE('',#695,#696,#122,.T.);
#609=EDGE_CURVE('',#622,#696,#123,.T.);
#610=EDGE_CURVE('',#695,#628,#124,.T.);
#611=EDGE_CURVE('',#696,#633,#125,.T.);
#612=EDGE_CURVE('',#697,#697,#711,.F.);
#613=EDGE_CURVE('',#698,#668,#126,.T.);
#614=EDGE_CURVE('',#699,#698,#127,.T.);
#615=EDGE_CURVE('',#699,#669,#128,.T.);
#616=EDGE_CURVE('',#649,#698,#129,.T.);
#617=EDGE_CURVE('',#661,#699,#130,.T.);
#618=EDGE_CURVE('',#700,#700,#712,.T.);
#619=VERTEX_POINT('',#1237);
#620=VERTEX_POINT('',#1239);
#621=VERTEX_POINT('',#1240);
#622=VERTEX_POINT('',#1242);
#623=VERTEX_POINT('',#1244);
#624=VERTEX_POINT('',#1246);
#625=VERTEX_POINT('',#1248);
#626=VERTEX_POINT('',#1250);
#627=VERTEX_POINT('',#1252);
#628=VERTEX_POINT('',#1256);
#629=VERTEX_POINT('',#1258);
#630=VERTEX_POINT('',#1260);
#631=VERTEX_POINT('',#1262);
#632=VERTEX_POINT('',#1264);
#633=VERTEX_POINT('',#1267);
#634=VERTEX_POINT('',#1271);
#635=VERTEX_POINT('',#1272);
#636=VERTEX_POINT('',#1275);
#637=VERTEX_POINT('',#1277);
#638=VERTEX_POINT('',#1279);
#639=VERTEX_POINT('',#1281);
#640=VERTEX_POINT('',#1283);
#641=VERTEX_POINT('',#1285);
#642=VERTEX_POINT('',#1287);
#643=VERTEX_POINT('',#1289);
#644=VERTEX_POINT('',#1291);
#645=VERTEX_POINT('',#1293);
#646=VERTEX_POINT('',#1295);
#647=VERTEX_POINT('',#1297);
#648=VERTEX_POINT('',#1301);
#649=VERTEX_POINT('',#1302);
#650=VERTEX_POINT('',#1304);
#651=VERTEX_POINT('',#1306);
#652=VERTEX_POINT('',#1308);
#653=VERTEX_POINT('',#1310);
#654=VERTEX_POINT('',#1312);
#655=VERTEX_POINT('',#1314);
#656=VERTEX_POINT('',#1316);
#657=VERTEX_POINT('',#1318);
#658=VERTEX_POINT('',#1320);
#659=VERTEX_POINT('',#1322);
#660=VERTEX_POINT('',#1324);
#661=VERTEX_POINT('',#1326);
#662=VERTEX_POINT('',#1329);
#663=VERTEX_POINT('',#1332);
#664=VERTEX_POINT('',#1334);
#665=VERTEX_POINT('',#1340);
#666=VERTEX_POINT('',#1341);
#667=VERTEX_POINT('',#1344);
#668=VERTEX_POINT('',#1347);
#669=VERTEX_POINT('',#1349);
#670=VERTEX_POINT('',#1354);
#671=VERTEX_POINT('',#1356);
#672=VERTEX_POINT('',#1361);
#673=VERTEX_POINT('',#1362);
#674=VERTEX_POINT('',#1364);
#675=VERTEX_POINT('',#1366);
#676=VERTEX_POINT('',#1369);
#677=VERTEX_POINT('',#1374);
#678=VERTEX_POINT('',#1377);
#679=VERTEX_POINT('',#1379);
#680=VERTEX_POINT('',#1384);
#681=VERTEX_POINT('',#1388);
#682=VERTEX_POINT('',#1389);
#683=VERTEX_POINT('',#1392);
#684=VERTEX_POINT('',#1396);
#685=VERTEX_POINT('',#1397);
#686=VERTEX_POINT('',#1399);
#687=VERTEX_POINT('',#1401);
#688=VERTEX_POINT('',#1405);
#689=VERTEX_POINT('',#1406);
#690=VERTEX_POINT('',#1411);
#691=VERTEX_POINT('',#1413);
#692=VERTEX_POINT('',#1432);
#693=VERTEX_POINT('',#1454);
#694=VERTEX_POINT('',#1458);
#695=VERTEX_POINT('',#1465);
#696=VERTEX_POINT('',#1467);
#697=VERTEX_POINT('',#1476);
#698=VERTEX_POINT('',#1478);
#699=VERTEX_POINT('',#1480);
#700=VERTEX_POINT('',#1489);
#701=CIRCLE('',#937,0.0095);
#702=CIRCLE('',#940,0.0105);
#703=CIRCLE('',#942,0.0095);
#704=CIRCLE('',#944,0.0025);
#705=CIRCLE('',#945,0.0025);
#706=CIRCLE('',#951,0.0105);
#707=CIRCLE('',#956,0.005);
#708=CIRCLE('',#957,0.005);
#709=CIRCLE('',#966,0.0025);
#710=CIRCLE('',#980,0.0025);
#711=CIRCLE('',#990,0.0016);
#712=CIRCLE('',#995,0.0016);
#713=EDGE_LOOP('',(#244));
#714=EDGE_LOOP('',(#245,#246,#247,#248,#249,#250,#251,#252));
#715=EDGE_LOOP('',(#253,#254,#255,#256,#257,#258,#259,#260,#261,#262));
#716=EDGE_LOOP('',(#263,#264,#265,#266,#267,#268,#269,#270,#271,#272,#273,
#274,#275,#276,#277,#278));
#717=EDGE_LOOP('',(#279,#280,#281,#282,#283,#284,#285,#286,#287,#288,#289,
#290,#291,#292));
#718=EDGE_LOOP('',(#293));
#719=EDGE_LOOP('',(#294));
#720=EDGE_LOOP('',(#295));
#721=EDGE_LOOP('',(#296,#297,#298,#299));
#722=EDGE_LOOP('',(#300,#301,#302,#303,#304,#305,#306,#307,#308,#309,#310));
#723=EDGE_LOOP('',(#311,#312,#313,#314,#315,#316,#317,#318));
#724=EDGE_LOOP('',(#319,#320,#321,#322,#323,#324,#325,#326));
#725=EDGE_LOOP('',(#327,#328,#329,#330,#331,#332,#333,#334,#335,#336));
#726=EDGE_LOOP('',(#337,#338,#339));
#727=EDGE_LOOP('',(#340,#341,#342,#343));
#728=EDGE_LOOP('',(#344,#345,#346,#347));
#729=EDGE_LOOP('',(#348,#349,#350,#351));
#730=EDGE_LOOP('',(#352,#353,#354,#355));
#731=EDGE_LOOP('',(#356,#357,#358,#359));
#732=EDGE_LOOP('',(#360));
#733=EDGE_LOOP('',(#361));
#734=EDGE_LOOP('',(#362,#363,#364,#365));
#735=EDGE_LOOP('',(#366,#367,#368,#369));
#736=EDGE_LOOP('',(#370,#371,#372,#373));
#737=EDGE_LOOP('',(#374,#375,#376,#377));
#738=EDGE_LOOP('',(#378));
#739=EDGE_LOOP('',(#379,#380,#381,#382,#383,#384,#385,#386));
#740=EDGE_LOOP('',(#387,#388,#389,#390));
#741=EDGE_LOOP('',(#391,#392,#393,#394));
#742=EDGE_LOOP('',(#395));
#743=EDGE_LOOP('',(#396,#397,#398,#399,#400,#401,#402,#403));
#744=EDGE_LOOP('',(#404,#405,#406));
#745=EDGE_LOOP('',(#407,#408,#409));
#746=EDGE_LOOP('',(#410,#411,#412));
#747=EDGE_LOOP('',(#413,#414,#415,#416));
#748=EDGE_LOOP('',(#417,#418,#419,#420));
#749=EDGE_LOOP('',(#421,#422,#423,#424));
#750=EDGE_LOOP('',(#425,#426,#427,#428,#429,#430));
#751=EDGE_LOOP('',(#431,#432,#433,#434,#435,#436));
#752=EDGE_LOOP('',(#437,#438,#439,#440));
#753=EDGE_LOOP('',(#441));
#754=EDGE_LOOP('',(#442));
#755=EDGE_LOOP('',(#443));
#756=EDGE_LOOP('',(#444,#445,#446,#447,#448));
#757=EDGE_LOOP('',(#449));
#758=EDGE_LOOP('',(#450,#451,#452,#453));
#759=EDGE_LOOP('',(#454,#455,#456,#457));
#760=EDGE_LOOP('',(#458,#459,#460,#461));
#761=EDGE_LOOP('',(#462,#463,#464,#465));
#762=EDGE_LOOP('',(#466,#467,#468,#469));
#763=EDGE_LOOP('',(#470,#471,#472,#473));
#764=EDGE_LOOP('',(#474));
#765=EDGE_LOOP('',(#475,#476,#477,#478));
#766=EDGE_LOOP('',(#479,#480,#481,#482));
#767=EDGE_LOOP('',(#483,#484,#485,#486));
#768=EDGE_LOOP('',(#487,#488,#489,#490));
#769=EDGE_LOOP('',(#491));
#770=EDGE_LOOP('',(#492));
#771=EDGE_LOOP('',(#493));
#772=FACE_BOUND('',#713,.T.);
#773=FACE_BOUND('',#714,.T.);
#774=FACE_BOUND('',#715,.T.);
#775=FACE_BOUND('',#716,.T.);
#776=FACE_BOUND('',#717,.T.);
#777=FACE_BOUND('',#718,.T.);
#778=FACE_BOUND('',#719,.T.);
#779=FACE_BOUND('',#720,.T.);
#780=FACE_BOUND('',#721,.T.);
#781=FACE_BOUND('',#722,.T.);
#782=FACE_BOUND('',#723,.T.);
#783=FACE_BOUND('',#724,.T.);
#784=FACE_BOUND('',#725,.T.);
#785=FACE_BOUND('',#726,.T.);
#786=FACE_BOUND('',#727,.T.);
#787=FACE_BOUND('',#728,.T.);
#788=FACE_BOUND('',#729,.T.);
#789=FACE_BOUND('',#730,.T.);
#790=FACE_BOUND('',#731,.T.);
#791=FACE_BOUND('',#732,.T.);
#792=FACE_BOUND('',#733,.T.);
#793=FACE_BOUND('',#734,.T.);
#794=FACE_BOUND('',#735,.T.);
#795=FACE_BOUND('',#736,.T.);
#796=FACE_BOUND('',#737,.T.);
#797=FACE_BOUND('',#738,.T.);
#798=FACE_BOUND('',#739,.T.);
#799=FACE_BOUND('',#740,.T.);
#800=FACE_BOUND('',#741,.T.);
#801=FACE_BOUND('',#742,.T.);
#802=FACE_BOUND('',#743,.T.);
#803=FACE_BOUND('',#744,.T.);
#804=FACE_BOUND('',#745,.T.);
#805=FACE_BOUND('',#746,.T.);
#806=FACE_BOUND('',#747,.T.);
#807=FACE_BOUND('',#748,.T.);
#808=FACE_BOUND('',#749,.T.);
#809=FACE_BOUND('',#750,.T.);
#810=FACE_BOUND('',#751,.T.);
#811=FACE_BOUND('',#752,.T.);
#812=FACE_BOUND('',#753,.T.);
#813=FACE_BOUND('',#754,.T.);
#814=FACE_BOUND('',#755,.T.);
#815=FACE_BOUND('',#756,.T.);
#816=FACE_BOUND('',#757,.T.);
#817=FACE_BOUND('',#758,.T.);
#818=FACE_BOUND('',#759,.T.);
#819=FACE_BOUND('',#760,.T.);
#820=FACE_BOUND('',#761,.T.);
#821=FACE_BOUND('',#762,.T.);
#822=FACE_BOUND('',#763,.T.);
#823=FACE_BOUND('',#764,.T.);
#824=FACE_BOUND('',#765,.T.);
#825=FACE_BOUND('',#766,.T.);
#826=FACE_BOUND('',#767,.T.);
#827=FACE_BOUND('',#768,.T.);
#828=FACE_BOUND('',#769,.T.);
#829=FACE_BOUND('',#770,.T.);
#830=FACE_BOUND('',#771,.T.);
#831=PLANE('',#936);
#832=PLANE('',#938);
#833=PLANE('',#939);
#834=PLANE('',#941);
#835=PLANE('',#946);
#836=PLANE('',#947);
#837=PLANE('',#948);
#838=PLANE('',#949);
#839=PLANE('',#950);
#840=PLANE('',#952);
#841=PLANE('',#953);
#842=PLANE('',#954);
#843=PLANE('',#958);
#844=PLANE('',#959);
#845=PLANE('',#961);
#846=PLANE('',#962);
#847=PLANE('',#963);
#848=PLANE('',#964);
#849=PLANE('',#965);
#850=PLANE('',#967);
#851=PLANE('',#968);
#852=PLANE('',#969);
#853=PLANE('',#970);
#854=PLANE('',#971);
#855=PLANE('',#972);
#856=PLANE('',#973);
#857=PLANE('',#975);
#858=PLANE('',#976);
#859=PLANE('',#977);
#860=PLANE('',#978);
#861=PLANE('',#981);
#862=PLANE('',#982);
#863=PLANE('',#983);
#864=PLANE('',#984);
#865=PLANE('',#985);
#866=PLANE('',#986);
#867=PLANE('',#987);
#868=PLANE('',#988);
#869=PLANE('',#989);
#870=PLANE('',#991);
#871=PLANE('',#992);
#872=PLANE('',#993);
#873=PLANE('',#996);
#874=ADVANCED_FACE('',(#772,#773),#831,.F.);
#875=ADVANCED_FACE('',(#774),#832,.F.);
#876=ADVANCED_FACE('',(#775),#833,.T.);
#877=ADVANCED_FACE('',(#776,#777),#834,.T.);
#878=ADVANCED_FACE('',(#778,#779),#12,.F.);
#879=ADVANCED_FACE('',(#780),#835,.F.);
#880=ADVANCED_FACE('',(#781),#836,.F.);
#881=ADVANCED_FACE('',(#782),#837,.T.);
#882=ADVANCED_FACE('',(#783),#838,.F.);
#883=ADVANCED_FACE('',(#784),#839,.F.);
#884=ADVANCED_FACE('',(#785),#840,.T.);
#885=ADVANCED_FACE('',(#786),#841,.T.);
#886=ADVANCED_FACE('',(#787),#842,.F.);
#887=ADVANCED_FACE('',(#788),#13,.F.);
#888=ADVANCED_FACE('',(#789),#843,.F.);
#889=ADVANCED_FACE('',(#790),#844,.T.);
#890=ADVANCED_FACE('',(#791,#792),#14,.F.);
#891=ADVANCED_FACE('',(#793),#845,.F.);
#892=ADVANCED_FACE('',(#794),#846,.T.);
#893=ADVANCED_FACE('',(#795),#847,.T.);
#894=ADVANCED_FACE('',(#796),#848,.T.);
#895=ADVANCED_FACE('',(#797,#798),#849,.T.);
#896=ADVANCED_FACE('',(#799),#850,.F.);
#897=ADVANCED_FACE('',(#800),#851,.F.);
#898=ADVANCED_FACE('',(#801,#802),#852,.T.);
#899=ADVANCED_FACE('',(#803),#853,.T.);
#900=ADVANCED_FACE('',(#804),#854,.T.);
#901=ADVANCED_FACE('',(#805),#855,.T.);
#902=ADVANCED_FACE('',(#806),#856,.T.);
#903=ADVANCED_FACE('',(#807),#15,.F.);
#904=ADVANCED_FACE('',(#808),#857,.T.);
#905=ADVANCED_FACE('',(#809),#858,.T.);
#906=ADVANCED_FACE('',(#810),#859,.F.);
#907=ADVANCED_FACE('',(#811),#860,.F.);
#908=ADVANCED_FACE('',(#812,#813),#16,.F.);
#909=ADVANCED_FACE('',(#814),#861,.T.);
#910=ADVANCED_FACE('',(#815,#816),#862,.T.);
#911=ADVANCED_FACE('',(#817),#863,.F.);
#912=ADVANCED_FACE('',(#818),#864,.F.);
#913=ADVANCED_FACE('',(#819),#865,.F.);
#914=ADVANCED_FACE('',(#820),#866,.T.);
#915=ADVANCED_FACE('',(#821),#867,.F.);
#916=ADVANCED_FACE('',(#822),#868,.T.);
#917=ADVANCED_FACE('',(#823,#824),#869,.T.);
#918=ADVANCED_FACE('',(#825),#870,.F.);
#919=ADVANCED_FACE('',(#826),#871,.F.);
#920=ADVANCED_FACE('',(#827),#872,.T.);
#921=ADVANCED_FACE('',(#828,#829),#17,.F.);
#922=ADVANCED_FACE('',(#830),#873,.T.);
#923=CLOSED_SHELL('',(#874,#875,#876,#877,#878,#879,#880,#881,#882,#883,
#884,#885,#886,#887,#888,#889,#890,#891,#892,#893,#894,#895,#896,#897,#898,
#899,#900,#901,#902,#903,#904,#905,#906,#907,#908,#909,#910,#911,#912,#913,
#914,#915,#916,#917,#918,#919,#920,#921,#922));
#924=STYLED_ITEM('',(#925),#932);
#925=PRESENTATION_STYLE_ASSIGNMENT((#926));
#926=SURFACE_STYLE_USAGE(.BOTH.,#927);
#927=SURFACE_SIDE_STYLE('',(#928));
#928=SURFACE_STYLE_FILL_AREA(#929);
#929=FILL_AREA_STYLE('',(#930));
#930=FILL_AREA_STYLE_COLOUR('',#931);
#931=COLOUR_RGB('',0.866666666666667,0.32156862745098,0.156862745098039);
#932=MANIFOLD_SOLID_BREP('XY1_TOP',#923);
#933=SHAPE_DEFINITION_REPRESENTATION(#1497,#934);
#934=SHAPE_REPRESENTATION('XY1_TOP',(#935),#1492);
#935=AXIS2_PLACEMENT_3D('',#1234,#997,#998);
#936=AXIS2_PLACEMENT_3D('',#1235,#999,#1000);
#937=AXIS2_PLACEMENT_3D('',#1236,#1001,#1002);
#938=AXIS2_PLACEMENT_3D('',#1254,#1011,#1012);
#939=AXIS2_PLACEMENT_3D('',#1269,#1021,#1022);
#940=AXIS2_PLACEMENT_3D('',#1273,#1024,#1025);
#941=AXIS2_PLACEMENT_3D('',#1299,#1039,#1040);
#942=AXIS2_PLACEMENT_3D('',#1328,#1055,#1056);
#943=AXIS2_PLACEMENT_3D('',#1330,#1057,#1058);
#944=AXIS2_PLACEMENT_3D('',#1331,#1059,#1060);
#945=AXIS2_PLACEMENT_3D('',#1333,#1061,#1062);
#946=AXIS2_PLACEMENT_3D('',#1335,#1063,#1064);
#947=AXIS2_PLACEMENT_3D('',#1338,#1067,#1068);
#948=AXIS2_PLACEMENT_3D('',#1352,#1077,#1078);
#949=AXIS2_PLACEMENT_3D('',#1359,#1083,#1084);
#950=AXIS2_PLACEMENT_3D('',#1371,#1091,#1092);
#951=AXIS2_PLACEMENT_3D('',#1372,#1093,#1094);
#952=AXIS2_PLACEMENT_3D('',#1381,#1100,#1101);
#953=AXIS2_PLACEMENT_3D('',#1386,#1105,#1106);
#954=AXIS2_PLACEMENT_3D('',#1394,#1111,#1112);
#955=AXIS2_PLACEMENT_3D('',#1403,#1117,#1118);
#956=AXIS2_PLACEMENT_3D('',#1407,#1120,#1121);
#957=AXIS2_PLACEMENT_3D('',#1408,#1122,#1123);
#958=AXIS2_PLACEMENT_3D('',#1409,#1124,#1125);
#959=AXIS2_PLACEMENT_3D('',#1415,#1129,#1130);
#960=AXIS2_PLACEMENT_3D('',#1418,#1133,#1134);
#961=AXIS2_PLACEMENT_3D('',#1419,#1135,#1136);
#962=AXIS2_PLACEMENT_3D('',#1421,#1138,#1139);
#963=AXIS2_PLACEMENT_3D('',#1424,#1142,#1143);
#964=AXIS2_PLACEMENT_3D('',#1427,#1146,#1147);
#965=AXIS2_PLACEMENT_3D('',#1430,#1150,#1151);
#966=AXIS2_PLACEMENT_3D('',#1431,#1152,#1153);
#967=AXIS2_PLACEMENT_3D('',#1434,#1155,#1156);
#968=AXIS2_PLACEMENT_3D('',#1435,#1157,#1158);
#969=AXIS2_PLACEMENT_3D('',#1437,#1160,#1161);
#970=AXIS2_PLACEMENT_3D('',#1438,#1162,#1163);
#971=AXIS2_PLACEMENT_3D('',#1439,#1164,#1165);
#972=AXIS2_PLACEMENT_3D('',#1440,#1166,#1167);
#973=AXIS2_PLACEMENT_3D('',#1442,#1169,#1170);
#974=AXIS2_PLACEMENT_3D('',#1443,#1171,#1172);
#975=AXIS2_PLACEMENT_3D('',#1444,#1173,#1174);
#976=AXIS2_PLACEMENT_3D('',#1447,#1177,#1178);
#977=AXIS2_PLACEMENT_3D('',#1449,#1180,#1181);
#978=AXIS2_PLACEMENT_3D('',#1451,#1183,#1184);
#979=AXIS2_PLACEMENT_3D('',#1452,#1185,#1186);
#980=AXIS2_PLACEMENT_3D('',#1453,#1187,#1188);
#981=AXIS2_PLACEMENT_3D('',#1455,#1189,#1190);
#982=AXIS2_PLACEMENT_3D('',#1456,#1191,#1192);
#983=AXIS2_PLACEMENT_3D('',#1460,#1195,#1196);
#984=AXIS2_PLACEMENT_3D('',#1462,#1198,#1199);
#985=AXIS2_PLACEMENT_3D('',#1463,#1200,#1201);
#986=AXIS2_PLACEMENT_3D('',#1469,#1205,#1206);
#987=AXIS2_PLACEMENT_3D('',#1471,#1208,#1209);
#988=AXIS2_PLACEMENT_3D('',#1473,#1211,#1212);
#989=AXIS2_PLACEMENT_3D('',#1474,#1213,#1214);
#990=AXIS2_PLACEMENT_3D('',#1475,#1215,#1216);
#991=AXIS2_PLACEMENT_3D('',#1482,#1220,#1221);
#992=AXIS2_PLACEMENT_3D('',#1484,#1223,#1224);
#993=AXIS2_PLACEMENT_3D('',#1486,#1226,#1227);
#994=AXIS2_PLACEMENT_3D('',#1487,#1228,#1229);
#995=AXIS2_PLACEMENT_3D('',#1488,#1230,#1231);
#996=AXIS2_PLACEMENT_3D('',#1490,#1232,#1233);
#997=DIRECTION('',(0.,0.,1.));
#998=DIRECTION('',(1.,0.,0.));
#999=DIRECTION('',(-1.,-4.62592926927149E-16,0.));
#1000=DIRECTION('',(-4.62592926927149E-16,1.,0.));
#1001=DIRECTION('',(1.,4.62592926927149E-16,0.));
#1002=DIRECTION('',(4.62592926927149E-16,-1.,0.));
#1003=DIRECTION('',(4.62592926927149E-16,-1.,0.));
#1004=DIRECTION('',(0.,0.,-1.));
#1005=DIRECTION('',(4.62592926927149E-16,-1.,0.));
#1006=DIRECTION('',(2.83256473634769E-32,-6.12323399573677E-17,-1.));
#1007=DIRECTION('',(-4.62592926927149E-16,1.,0.));
#1008=DIRECTION('',(0.,0.,1.));
#1009=DIRECTION('',(4.62592926927149E-16,-1.,0.));
#1010=DIRECTION('',(2.83256473634769E-32,-6.12323399573677E-17,-1.));
#1011=DIRECTION('',(0.,1.,-6.12323399573677E-17));
#1012=DIRECTION('',(1.,0.,0.));
#1013=DIRECTION('',(-1.,0.,0.));
#1014=DIRECTION('',(-0.707106781186548,4.32978028117746E-17,0.707106781186547));
#1015=DIRECTION('',(-1.,0.,0.));
#1016=DIRECTION('',(0.,0.,1.));
#1017=DIRECTION('',(-1.,0.,0.));
#1018=DIRECTION('',(-0.707106781186548,-4.32978028117746E-17,-0.707106781186547));
#1019=DIRECTION('',(-1.,0.,0.));
#1020=DIRECTION('',(2.83256473634769E-32,-6.12323399573677E-17,-1.));
#1021=DIRECTION('',(0.,0.,1.));
#1022=DIRECTION('',(1.,0.,0.));
#1023=DIRECTION('',(-1.,0.,0.));
#1024=DIRECTION('',(0.,0.,1.));
#1025=DIRECTION('',(0.,-1.,0.));
#1026=DIRECTION('',(-4.62592926927149E-16,1.,0.));
#1027=DIRECTION('',(1.,0.,0.));
#1028=DIRECTION('',(0.,1.,0.));
#1029=DIRECTION('',(1.,0.,0.));
#1030=DIRECTION('',(-4.62592926927149E-16,1.,0.));
#1031=DIRECTION('',(-1.,0.,0.));
#1032=DIRECTION('',(4.62592926927149E-16,-1.,0.));
#1033=DIRECTION('',(1.,0.,0.));
#1034=DIRECTION('',(0.,-1.,0.));
#1035=DIRECTION('',(1.,0.,0.));
#1036=DIRECTION('',(4.62592926927149E-16,-1.,0.));
#1037=DIRECTION('',(1.,0.,0.));
#1038=DIRECTION('',(0.,-1.,6.12323399573677E-17));
#1039=DIRECTION('',(-1.,-4.62592926927149E-16,0.));
#1040=DIRECTION('',(-4.62592926927149E-16,1.,0.));
#1041=DIRECTION('',(-4.62592926927149E-16,1.,0.));
#1042=DIRECTION('',(2.83256473634769E-32,-6.12323399573677E-17,-1.));
#1043=DIRECTION('',(0.,-1.,6.12323399573677E-17));
#1044=DIRECTION('',(0.,6.12323399573677E-17,1.));
#1045=DIRECTION('',(-4.62592926927149E-16,1.,0.));
#1046=DIRECTION('',(0.,0.,1.));
#1047=DIRECTION('',(-4.62592926927149E-16,1.,0.));
#1048=DIRECTION('',(0.,0.,1.));
#1049=DIRECTION('',(-4.62592926927149E-16,1.,0.));
#1050=DIRECTION('',(0.,0.,-1.));
#1051=DIRECTION('',(4.62592926927149E-16,-1.,0.));
#1052=DIRECTION('',(2.83256473634769E-32,-6.12323399573677E-17,-1.));
#1053=DIRECTION('',(-4.62592926927149E-16,1.,0.));
#1054=DIRECTION('',(0.,0.,-1.));
#1055=DIRECTION('',(-1.,-4.62592926927149E-16,0.));
#1056=DIRECTION('',(-4.62592926927149E-16,1.,0.));
#1057=DIRECTION('',(0.,1.,0.));
#1058=DIRECTION('',(1.,0.,0.));
#1059=DIRECTION('',(0.,1.,0.));
#1060=DIRECTION('',(1.,0.,0.));
#1061=DIRECTION('',(0.,-1.,6.12323399573677E-17));
#1062=DIRECTION('',(0.,-6.12323399573677E-17,-1.));
#1063=DIRECTION('',(0.707106781186547,3.2710259555912E-16,-0.707106781186548));
#1064=DIRECTION('',(4.62592926927149E-16,-1.,0.));
#1065=DIRECTION('',(-0.707106781186548,-4.32978028117746E-17,-0.707106781186547));
#1066=DIRECTION('',(-0.707106781186548,0.,-0.707106781186547));
#1067=DIRECTION('',(0.,1.,-6.12323399573677E-17));
#1068=DIRECTION('',(1.,0.,0.));
#1069=DIRECTION('',(-1.,0.,0.));
#1070=DIRECTION('',(0.,0.,1.));
#1071=DIRECTION('',(0.,6.12323399573677E-17,1.));
#1072=DIRECTION('',(1.,0.,0.));
#1073=DIRECTION('',(1.,0.,0.));
#1074=DIRECTION('',(-2.83256473634769E-32,6.12323399573677E-17,1.));
#1075=DIRECTION('',(1.,0.,0.));
#1076=DIRECTION('',(0.707106781186548,-4.32978028117746E-17,-0.707106781186547));
#1077=DIRECTION('',(0.707106781186547,3.2710259555912E-16,0.707106781186548));
#1078=DIRECTION('',(-4.62592926927149E-16,1.,0.));
#1079=DIRECTION('',(0.707106781186548,0.,-0.707106781186547));
#1080=DIRECTION('',(0.,1.,-4.62592926927148E-16));
#1081=DIRECTION('',(0.707106781186548,0.,-0.707106781186547));
#1082=DIRECTION('',(0.707106781186548,0.,-0.707106781186547));
#1083=DIRECTION('',(-0.707106781186547,-3.2710259555912E-16,0.707106781186548));
#1084=DIRECTION('',(4.62592926927149E-16,-1.,0.));
#1085=DIRECTION('',(0.,1.,4.62592926927148E-16));
#1086=DIRECTION('',(0.707106781186548,0.,0.707106781186547));
#1087=DIRECTION('',(4.62592926927149E-16,-1.,0.));
#1088=DIRECTION('',(0.707106781186548,0.,0.707106781186547));
#1089=DIRECTION('',(4.62592926927149E-16,-1.,0.));
#1090=DIRECTION('',(0.707106781186548,0.,0.707106781186547));
#1091=DIRECTION('',(0.,0.,1.));
#1092=DIRECTION('',(1.,0.,0.));
#1093=DIRECTION('',(0.,0.,1.));
#1094=DIRECTION('',(0.,-1.,0.));
#1095=DIRECTION('',(-4.62592926927149E-16,1.,0.));
#1096=DIRECTION('',(1.,0.,0.));
#1097=DIRECTION('',(1.,0.,0.));
#1098=DIRECTION('',(0.,1.,0.));
#1099=DIRECTION('',(1.,0.,0.));
#1100=DIRECTION('',(-0.577350269189625,0.577350269189625,0.577350269189629));
#1101=DIRECTION('',(0.,-0.70710678118655,0.707106781186545));
#1102=DIRECTION('',(-0.707106781186548,3.9603166342744E-15,-0.707106781186547));
#1103=DIRECTION('',(3.94207350708631E-15,-0.707106781186548,0.707106781186547));
#1104=DIRECTION('',(0.707106781186548,0.707106781186548,0.));
#1105=DIRECTION('',(0.,1.,0.));
#1106=DIRECTION('',(1.,0.,0.));
#1107=DIRECTION('',(-1.,0.,0.));
#1108=DIRECTION('',(0.,0.,1.));
#1109=DIRECTION('',(1.,0.,0.));
#1110=DIRECTION('',(0.,0.,-1.));
#1111=DIRECTION('',(0.,0.,-1.));
#1112=DIRECTION('',(0.,1.,0.));
#1113=DIRECTION('',(-1.,0.,0.));
#1114=DIRECTION('',(4.62592926927149E-16,-1.,0.));
#1115=DIRECTION('',(-1.,0.,0.));
#1116=DIRECTION('',(0.,-1.,0.));
#1117=DIRECTION('',(0.,1.,0.));
#1118=DIRECTION('',(1.,0.,0.));
#1119=DIRECTION('',(0.,-1.,0.));
#1120=DIRECTION('',(0.,-1.,0.));
#1121=DIRECTION('',(-1.,0.,0.));
#1122=DIRECTION('',(0.,1.,0.));
#1123=DIRECTION('',(1.,0.,0.));
#1124=DIRECTION('',(1.,0.,0.));
#1125=DIRECTION('',(0.,-1.,0.));
#1126=DIRECTION('',(0.,0.,1.));
#1127=DIRECTION('',(0.,1.,0.));
#1128=DIRECTION('',(0.,0.,1.));
#1129=DIRECTION('',(0.70710678118655,0.707106781186546,0.));
#1130=DIRECTION('',(0.,0.,-1.));
#1131=DIRECTION('',(-0.707106781186546,0.70710678118655,6.8392558703549E-17));
#1132=DIRECTION('',(0.707106781186546,-0.70710678118655,6.8392558703549E-17));
#1133=DIRECTION('',(1.,4.62592926927149E-16,0.));
#1134=DIRECTION('',(4.62592926927149E-16,-1.,0.));
#1135=DIRECTION('',(0.707106781186548,-0.707106781186548,0.));
#1136=DIRECTION('',(0.,0.,1.));
#1137=DIRECTION('',(-0.707106781186548,-0.707106781186548,0.));
#1138=DIRECTION('',(-0.707106781186564,-3.27102595559128E-16,0.707106781186531));
#1139=DIRECTION('',(4.62592926927149E-16,-1.,0.));
#1140=DIRECTION('',(-0.707106781186531,0.,-0.707106781186564));
#1141=DIRECTION('',(0.707106781186531,0.,0.707106781186564));
#1142=DIRECTION('',(0.,0.707106781186547,-0.707106781186548));
#1143=DIRECTION('',(1.,0.,0.));
#1144=DIRECTION('',(3.9420735070863E-15,0.707106781186548,0.707106781186547));
#1145=DIRECTION('',(-1.23903709934807E-16,-0.707106781186548,-0.707106781186547));
#1146=DIRECTION('',(-0.707106781186548,0.,0.707106781186548));
#1147=DIRECTION('',(0.,-1.,0.));
#1148=DIRECTION('',(-0.707106781186548,0.,-0.707106781186548));
#1149=DIRECTION('',(0.707106781186548,0.,0.707106781186548));
#1150=DIRECTION('',(0.,-1.,0.));
#1151=DIRECTION('',(-1.,0.,0.));
#1152=DIRECTION('',(0.,-1.,0.));
#1153=DIRECTION('',(-1.,0.,0.));
#1154=DIRECTION('',(0.707106781186548,0.,0.707106781186547));
#1155=DIRECTION('',(0.707106781186547,3.2710259555912E-16,-0.707106781186548));
#1156=DIRECTION('',(4.62592926927149E-16,-1.,0.));
#1157=DIRECTION('',(0.,-0.707106781186547,-0.707106781186548));
#1158=DIRECTION('',(-1.,0.,0.));
#1159=DIRECTION('',(3.9420735070863E-15,0.707106781186548,-0.707106781186547));
#1160=DIRECTION('',(0.,1.,0.));
#1161=DIRECTION('',(1.,0.,0.));
#1162=DIRECTION('',(0.577350269189627,0.577350269189623,0.577350269189627));
#1163=DIRECTION('',(0.707106781186548,0.,-0.707106781186547));
#1164=DIRECTION('',(0.577350269189627,0.577350269189623,-0.577350269189627));
#1165=DIRECTION('',(-0.707106781186548,0.,-0.707106781186547));
#1166=DIRECTION('',(-0.577350269189626,0.577350269189626,-0.577350269189626));
#1167=DIRECTION('',(0.,0.707106781186548,0.707106781186547));
#1168=DIRECTION('',(-0.707106781186548,-9.18543318284144E-17,0.707106781186547));
#1169=DIRECTION('',(-0.707106781186547,-3.2710259555912E-16,-0.707106781186548));
#1170=DIRECTION('',(-4.62592926927149E-16,1.,0.));
#1171=DIRECTION('',(0.,0.,1.));
#1172=DIRECTION('',(0.,-1.,0.));
#1173=DIRECTION('',(1.,0.,0.));
#1174=DIRECTION('',(0.,-1.,0.));
#1175=DIRECTION('',(0.,0.,1.));
#1176=DIRECTION('',(0.,0.,1.));
#1177=DIRECTION('',(0.,-1.,0.));
#1178=DIRECTION('',(-1.,0.,0.));
#1179=DIRECTION('',(0.,0.,1.));
#1180=DIRECTION('',(0.,-1.,0.));
#1181=DIRECTION('',(-1.,0.,0.));
#1182=DIRECTION('',(0.,0.,1.));
#1183=DIRECTION('',(1.,0.,0.));
#1184=DIRECTION('',(0.,-1.,0.));
#1185=DIRECTION('',(0.,-1.,6.12323399573677E-17));
#1186=DIRECTION('',(0.,-6.12323399573677E-17,-1.));
#1187=DIRECTION('',(0.,-1.,6.12323399573677E-17));
#1188=DIRECTION('',(0.,-6.12323399573677E-17,-1.));
#1189=DIRECTION('',(0.,-1.,6.12323399573677E-17));
#1190=DIRECTION('',(1.,0.,0.));
#1191=DIRECTION('',(0.,-1.,6.12323399573677E-17));
#1192=DIRECTION('',(1.,0.,0.));
#1193=DIRECTION('',(1.,0.,0.));
#1194=DIRECTION('',(0.,6.12323399573677E-17,1.));
#1195=DIRECTION('',(0.,-6.12323399573677E-17,-1.));
#1196=DIRECTION('',(0.,1.,-6.12323399573677E-17));
#1197=DIRECTION('',(0.,-1.,6.12323399573677E-17));
#1198=DIRECTION('',(1.,0.,0.));
#1199=DIRECTION('',(0.,-1.,0.));
#1200=DIRECTION('',(-4.62592926927148E-16,1.,0.));
#1201=DIRECTION('',(1.,4.62592926927148E-16,0.));
#1202=DIRECTION('',(-1.,-4.62592926927148E-16,0.));
#1203=DIRECTION('',(0.,0.,-1.));
#1204=DIRECTION('',(-1.,-4.62592926927148E-16,0.));
#1205=DIRECTION('',(0.,0.,-1.));
#1206=DIRECTION('',(0.,1.,0.));
#1207=DIRECTION('',(4.62592926927149E-16,-1.,0.));
#1208=DIRECTION('',(0.,0.,-1.));
#1209=DIRECTION('',(0.,1.,0.));
#1210=DIRECTION('',(4.62592926927149E-16,-1.,0.));
#1211=DIRECTION('',(1.,4.62592926927149E-16,0.));
#1212=DIRECTION('',(0.,0.,-1.));
#1213=DIRECTION('',(-1.,-4.62592926927149E-16,0.));
#1214=DIRECTION('',(0.,0.,1.));
#1215=DIRECTION('',(-1.,-4.62592926927149E-16,0.));
#1216=DIRECTION('',(-4.62592926927149E-16,1.,0.));
#1217=DIRECTION('',(4.62592926927149E-16,-1.,0.));
#1218=DIRECTION('',(0.,0.,1.));
#1219=DIRECTION('',(4.62592926927149E-16,-1.,0.));
#1220=DIRECTION('',(0.,0.,1.));
#1221=DIRECTION('',(0.,-1.,0.));
#1222=DIRECTION('',(1.,0.,0.));
#1223=DIRECTION('',(0.,1.,0.));
#1224=DIRECTION('',(1.,0.,0.));
#1225=DIRECTION('',(1.,0.,0.));
#1226=DIRECTION('',(0.,0.,1.));
#1227=DIRECTION('',(0.,-1.,0.));
#1228=DIRECTION('',(1.,0.,0.));
#1229=DIRECTION('',(0.,-1.,0.));
#1230=DIRECTION('',(-1.,-4.62592926927149E-16,0.));
#1231=DIRECTION('',(-4.62592926927149E-16,1.,0.));
#1232=DIRECTION('',(-1.,-4.62592926927149E-16,0.));
#1233=DIRECTION('',(0.,0.,1.));
#1234=CARTESIAN_POINT('',(0.,0.,0.));
#1235=CARTESIAN_POINT('',(0.163313524404355,0.400052546262741,-0.045));
#1236=CARTESIAN_POINT('',(0.163313524404355,0.4367,-0.022));
#1237=CARTESIAN_POINT('',(0.163313524404355,0.4272,-0.022));
#1238=CARTESIAN_POINT('',(0.163313524404355,0.400052546262741,-0.0175));
#1239=CARTESIAN_POINT('',(0.163313524404355,0.412950115781006,-0.0175));
#1240=CARTESIAN_POINT('',(0.163313524404355,0.400450115781006,-0.0175));
#1241=CARTESIAN_POINT('',(0.163313524404355,0.412950115781006,-0.045));
#1242=CARTESIAN_POINT('',(0.163313524404355,0.412950115781006,-0.0275));
#1243=CARTESIAN_POINT('',(0.163313524404355,0.400052546262741,-0.0275));
#1244=CARTESIAN_POINT('',(0.163313524404355,0.400450115781006,-0.0275));
#1245=CARTESIAN_POINT('',(0.163313524404355,0.400450115781006,-0.045));
#1246=CARTESIAN_POINT('',(0.163313524404355,0.400450115781006,-0.04));
#1247=CARTESIAN_POINT('',(0.163313524404355,0.400052546262741,-0.04));
#1248=CARTESIAN_POINT('',(0.163313524404355,0.455052546262741,-0.04));
#1249=CARTESIAN_POINT('',(0.163313524404355,0.455052546262741,0.));
#1250=CARTESIAN_POINT('',(0.163313524404355,0.455052546262741,-0.005));
#1251=CARTESIAN_POINT('',(0.163313524404355,0.378052546262741,-0.005));
#1252=CARTESIAN_POINT('',(0.163313524404355,0.400450115781006,-0.005));
#1253=CARTESIAN_POINT('',(0.163313524404355,0.400450115781006,-0.045));
#1254=CARTESIAN_POINT('',(0.163313524404355,0.400450115781006,-0.0225));
#1255=CARTESIAN_POINT('',(0.163313524404355,0.400450115781006,-0.0175));
#1256=CARTESIAN_POINT('',(0.160813524404355,0.400450115781006,-0.0175));
#1257=CARTESIAN_POINT('',(0.163313524404355,0.400450115781006,-0.005));
#1258=CARTESIAN_POINT('',(0.158313524404355,0.400450115781006,0.));
#1259=CARTESIAN_POINT('',(-0.0397113039529461,0.400450115781006,0.));
#1260=CARTESIAN_POINT('',(0.157805994965578,0.400450115781006,0.));
#1261=CARTESIAN_POINT('',(0.157805994965578,0.400450115781006,-0.850868496704852));
#1262=CARTESIAN_POINT('',(0.157805994965578,0.400450115781006,-0.045));
#1263=CARTESIAN_POINT('',(-0.0397113039529461,0.400450115781006,-0.045));
#1264=CARTESIAN_POINT('',(0.158313524404355,0.400450115781006,-0.045));
#1265=CARTESIAN_POINT('',(0.158313524404355,0.400450115781006,-0.045));
#1266=CARTESIAN_POINT('',(0.163313524404355,0.400450115781006,-0.0275));
#1267=CARTESIAN_POINT('',(0.160813524404355,0.400450115781006,-0.0275));
#1268=CARTESIAN_POINT('',(0.160813524404355,0.400450115781006,-0.0225));
#1269=CARTESIAN_POINT('',(-0.0397113039529461,0.400052546262741,0.));
#1270=CARTESIAN_POINT('',(-0.0397113039529461,0.400450115781006,0.));
#1271=CARTESIAN_POINT('',(0.136821053843131,0.400450115781006,0.));
#1272=CARTESIAN_POINT('',(0.135313524404355,0.400450115781006,-8.436148777473E-35));
#1273=CARTESIAN_POINT('',(0.147313524404355,0.400052546262741,0.));
#1274=CARTESIAN_POINT('',(0.158313524404355,0.460052546262741,0.));
#1275=CARTESIAN_POINT('',(0.158313524404355,0.413006029657602,0.));
#1276=CARTESIAN_POINT('',(-0.0397113039529461,0.413006029657602,0.));
#1277=CARTESIAN_POINT('',(0.154813524404355,0.413006029657602,0.));
#1278=CARTESIAN_POINT('',(0.154813524404355,0.400052546262741,0.));
#1279=CARTESIAN_POINT('',(0.154813524404355,0.427006029657602,0.));
#1280=CARTESIAN_POINT('',(-0.0397113039529461,0.427006029657602,0.));
#1281=CARTESIAN_POINT('',(0.158313524404355,0.427006029657602,0.));
#1282=CARTESIAN_POINT('',(0.158313524404355,0.460052546262741,0.));
#1283=CARTESIAN_POINT('',(0.158313524404355,0.455052546262741,0.));
#1284=CARTESIAN_POINT('',(-0.0397113039529461,0.455052546262741,0.));
#1285=CARTESIAN_POINT('',(0.128313524404355,0.455052546262741,0.));
#1286=CARTESIAN_POINT('',(0.128313524404355,0.400052546262741,0.));
#1287=CARTESIAN_POINT('',(0.128313524404355,0.425052546262741,0.));
#1288=CARTESIAN_POINT('',(0.130813524404355,0.425052546262741,0.));
#1289=CARTESIAN_POINT('',(0.143313524404355,0.425052546262741,0.));
#1290=CARTESIAN_POINT('',(0.143313524404355,0.415052546262741,0.));
#1291=CARTESIAN_POINT('',(0.143313524404355,0.415052546262741,0.));
#1292=CARTESIAN_POINT('',(0.130813524404355,0.415052546262741,0.));
#1293=CARTESIAN_POINT('',(0.128313524404355,0.415052546262741,0.));
#1294=CARTESIAN_POINT('',(0.128313524404355,0.400052546262741,0.));
#1295=CARTESIAN_POINT('',(0.128313524404355,0.410450115781006,0.));
#1296=CARTESIAN_POINT('',(0.129313524404355,0.410450115781006,-6.12323399573677E-19));
#1297=CARTESIAN_POINT('',(0.135313524404355,0.410450115781006,-6.12323399573677E-19));
#1298=CARTESIAN_POINT('',(0.135313524404355,0.410450115781006,-6.12323399573677E-19));
#1299=CARTESIAN_POINT('',(0.123313524404355,0.400052546262741,-0.045));
#1300=CARTESIAN_POINT('',(0.123313524404355,0.400052546262741,-0.02));
#1301=CARTESIAN_POINT('',(0.123313524404355,0.400450115781006,-0.02));
#1302=CARTESIAN_POINT('',(0.123313524404355,0.410450115781006,-0.02));
#1303=CARTESIAN_POINT('',(0.123313524404355,0.400450115781006,-0.045));
#1304=CARTESIAN_POINT('',(0.123313524404355,0.400450115781006,-0.015));
#1305=CARTESIAN_POINT('',(0.123313524404355,0.410450115781006,-0.015));
#1306=CARTESIAN_POINT('',(0.123313524404355,0.410450115781006,-0.015));
#1307=CARTESIAN_POINT('',(0.123313524404355,0.410450115781006,-0.0075));
#1308=CARTESIAN_POINT('',(0.123313524404355,0.410450115781006,-0.005));
#1309=CARTESIAN_POINT('',(0.123313524404355,0.400052546262741,-0.005));
#1310=CARTESIAN_POINT('',(0.123313524404355,0.415052546262741,-0.00500000000000023));
#1311=CARTESIAN_POINT('',(0.123313524404355,0.415052546262741,-0.850868496704852));
#1312=CARTESIAN_POINT('',(0.123313524404355,0.415052546262741,-0.0250000000000005));
#1313=CARTESIAN_POINT('',(0.123313524404355,0.425052546262741,-0.025));
#1314=CARTESIAN_POINT('',(0.123313524404355,0.425052546262741,-0.025));
#1315=CARTESIAN_POINT('',(0.123313524404355,0.425052546262741,-0.850868496704852));
#1316=CARTESIAN_POINT('',(0.123313524404355,0.425052546262741,-0.00500000000000023));
#1317=CARTESIAN_POINT('',(0.123313524404355,0.400052546262741,-0.005));
#1318=CARTESIAN_POINT('',(0.123313524404355,0.455052546262741,-0.005));
#1319=CARTESIAN_POINT('',(0.123313524404355,0.455052546262741,-0.045));
#1320=CARTESIAN_POINT('',(0.123313524404355,0.455052546262741,-0.04));
#1321=CARTESIAN_POINT('',(0.123313524404355,0.385052546262741,-0.04));
#1322=CARTESIAN_POINT('',(0.123313524404355,0.400450115781006,-0.04));
#1323=CARTESIAN_POINT('',(0.123313524404355,0.400450115781006,-0.045));
#1324=CARTESIAN_POINT('',(0.123313524404355,0.400450115781006,-0.028));
#1325=CARTESIAN_POINT('',(0.123313524404355,0.400052546262741,-0.028));
#1326=CARTESIAN_POINT('',(0.123313524404355,0.410450115781006,-0.028));
#1327=CARTESIAN_POINT('',(0.123313524404355,0.410450115781006,-0.045));
#1328=CARTESIAN_POINT('',(0.123313524404355,0.4367,-0.022));
#1329=CARTESIAN_POINT('',(0.123313524404355,0.4462,-0.022));
#1330=CARTESIAN_POINT('',(0.129313524404355,0.405052546262741,-0.01));
#1331=CARTESIAN_POINT('',(0.129313524404355,0.415052546262741,-0.01));
#1332=CARTESIAN_POINT('',(0.131813524404355,0.415052546262741,-0.01));
#1333=CARTESIAN_POINT('',(0.129313524404355,0.410450115781006,-0.01));
#1334=CARTESIAN_POINT('',(0.129313524404355,0.410450115781006,-0.0125));
#1335=CARTESIAN_POINT('',(0.128313524404355,0.400052546262741,0.));
#1336=CARTESIAN_POINT('',(0.128313524404355,0.410450115781006,2.08658730245498E-18));
#1337=CARTESIAN_POINT('',(0.0330511102257042,0.415052546262741,-0.0952624141786505));
#1338=CARTESIAN_POINT('',(0.163313524404355,0.400450115781006,-0.0225));
#1339=CARTESIAN_POINT('',(-0.0397113039529461,0.400450115781006,-0.045));
#1340=CARTESIAN_POINT('',(0.136821053843131,0.400450115781006,-0.045));
#1341=CARTESIAN_POINT('',(0.128313524404355,0.400450115781006,-0.045));
#1342=CARTESIAN_POINT('',(0.136821053843131,0.400450115781006,-0.868176704758173));
#1343=CARTESIAN_POINT('',(0.135313524404355,0.400450115781006,-0.0075));
#1344=CARTESIAN_POINT('',(0.135313524404355,0.400450115781006,-0.015));
#1345=CARTESIAN_POINT('',(0.129313524404355,0.400450115781006,-0.015));
#1346=CARTESIAN_POINT('',(0.163313524404355,0.400450115781006,-0.02));
#1347=CARTESIAN_POINT('',(0.126813524404355,0.400450115781006,-0.02));
#1348=CARTESIAN_POINT('',(0.126813524404355,0.400450115781006,-0.0225));
#1349=CARTESIAN_POINT('',(0.126813524404355,0.400450115781006,-0.028));
#1350=CARTESIAN_POINT('',(0.163313524404355,0.400450115781006,-0.028));
#1351=CARTESIAN_POINT('',(0.123313524404355,0.400450115781006,-0.04));
#1352=CARTESIAN_POINT('',(0.163313524404355,0.400052546262741,-0.005));
#1353=CARTESIAN_POINT('',(0.163313524404355,0.427006029657602,-0.005));
#1354=CARTESIAN_POINT('',(0.159813524404355,0.427006029657602,-0.00150000000000003));
#1355=CARTESIAN_POINT('',(0.159813524404355,0.400052546262741,-0.00150000000000002));
#1356=CARTESIAN_POINT('',(0.159813524404355,0.413006029657602,-0.00150000000000003));
#1357=CARTESIAN_POINT('',(0.163313524404355,0.413006029657602,-0.005));
#1358=CARTESIAN_POINT('',(0.158313524404355,0.455052546262741,1.38499394299047E-18));
#1359=CARTESIAN_POINT('',(0.158313524404355,0.400052546262741,-0.045));
#1360=CARTESIAN_POINT('',(0.159813524404355,0.400052546262741,-0.0435));
#1361=CARTESIAN_POINT('',(0.159813524404355,0.427006029657602,-0.0435));
#1362=CARTESIAN_POINT('',(0.159813524404355,0.413006029657602,-0.0435));
#1363=CARTESIAN_POINT('',(0.158313524404355,0.427006029657602,-0.045));
#1364=CARTESIAN_POINT('',(0.158313524404355,0.427006029657602,-0.045));
#1365=CARTESIAN_POINT('',(0.158313524404355,0.400052546262741,-0.045));
#1366=CARTESIAN_POINT('',(0.158313524404355,0.455052546262741,-0.045));
#1367=CARTESIAN_POINT('',(0.163313524404355,0.455052546262741,-0.04));
#1368=CARTESIAN_POINT('',(0.158313524404355,0.400052546262741,-0.045));
#1369=CARTESIAN_POINT('',(0.158313524404355,0.413006029657602,-0.045));
#1370=CARTESIAN_POINT('',(0.158313524404355,0.413006029657602,-0.045));
#1371=CARTESIAN_POINT('',(-0.0397113039529461,0.400052546262741,-0.045));
#1372=CARTESIAN_POINT('',(0.147313524404355,0.400052546262741,-0.045));
#1373=CARTESIAN_POINT('',(0.128313524404355,0.460052546262741,-0.045));
#1374=CARTESIAN_POINT('',(0.128313524404355,0.455052546262741,-0.045));
#1375=CARTESIAN_POINT('',(0.163313524404355,0.455052546262741,-0.045));
#1376=CARTESIAN_POINT('',(-0.0397113039529461,0.427006029657602,-0.045));
#1377=CARTESIAN_POINT('',(0.154813524404355,0.427006029657602,-0.045));
#1378=CARTESIAN_POINT('',(0.154813524404355,0.400052546262741,-0.045));
#1379=CARTESIAN_POINT('',(0.154813524404355,0.413006029657602,-0.045));
#1380=CARTESIAN_POINT('',(-0.0397113039529461,0.413006029657602,-0.045));
#1381=CARTESIAN_POINT('',(0.123313524404355,0.455052546262741,-0.005));
#1382=CARTESIAN_POINT('',(0.123313524404355,0.455052546262741,-0.005));
#1383=CARTESIAN_POINT('',(0.128313524404355,0.457552546262741,-0.0025));
#1384=CARTESIAN_POINT('',(0.128313524404355,0.460052546262741,-0.005));
#1385=CARTESIAN_POINT('',(0.123313524404355,0.455052546262741,-0.005));
#1386=CARTESIAN_POINT('',(0.143313524404355,0.460052546262741,-0.045));
#1387=CARTESIAN_POINT('',(0.123313524404355,0.460052546262741,-0.04));
#1388=CARTESIAN_POINT('',(0.158313524404355,0.460052546262741,-0.04));
#1389=CARTESIAN_POINT('',(0.128313524404355,0.460052546262741,-0.04));
#1390=CARTESIAN_POINT('',(0.128313524404355,0.460052546262741,-0.045));
#1391=CARTESIAN_POINT('',(0.143313524404355,0.460052546262741,-0.005));
#1392=CARTESIAN_POINT('',(0.158313524404355,0.460052546262741,-0.005));
#1393=CARTESIAN_POINT('',(0.158313524404355,0.460052546262741,-0.045));
#1394=CARTESIAN_POINT('',(0.130813524404355,0.405052546262742,-0.02));
#1395=CARTESIAN_POINT('',(0.130813524404355,0.425052546262741,-0.02));
#1396=CARTESIAN_POINT('',(0.133313524404355,0.425052546262741,-0.02));
#1397=CARTESIAN_POINT('',(0.128313524404355,0.425052546262741,-0.02));
#1398=CARTESIAN_POINT('',(0.128313524404355,0.415052546262741,-0.02));
#1399=CARTESIAN_POINT('',(0.128313524404355,0.415052546262741,-0.02));
#1400=CARTESIAN_POINT('',(-0.0397113039529461,0.415052546262741,-0.02));
#1401=CARTESIAN_POINT('',(0.133313524404355,0.415052546262741,-0.02));
#1402=CARTESIAN_POINT('',(0.133313524404355,0.400052546262741,-0.02));
#1403=CARTESIAN_POINT('',(0.133313524404355,0.400052546262741,-0.015));
#1404=CARTESIAN_POINT('',(0.138313524404355,0.400052546262741,-0.015));
#1405=CARTESIAN_POINT('',(0.138313524404355,0.425052546262741,-0.0150000000000002));
#1406=CARTESIAN_POINT('',(0.138313524404355,0.415052546262741,-0.0150000000000002));
#1407=CARTESIAN_POINT('',(0.133313524404355,0.425052546262741,-0.015));
#1408=CARTESIAN_POINT('',(0.133313524404355,0.415052546262741,-0.015));
#1409=CARTESIAN_POINT('',(0.138313524404355,0.400052546262741,-0.850868496704852));
#1410=CARTESIAN_POINT('',(0.138313524404355,0.415052546262741,-0.850868496704852));
#1411=CARTESIAN_POINT('',(0.138313524404355,0.415052546262741,-0.00500000000000023));
#1412=CARTESIAN_POINT('',(0.138313524404355,0.425052546262741,-0.005));
#1413=CARTESIAN_POINT('',(0.138313524404355,0.425052546262741,-0.00500000000000023));
#1414=CARTESIAN_POINT('',(0.138313524404355,0.425052546262741,-0.850868496704852));
#1415=CARTESIAN_POINT('',(0.163313524404355,0.455052546262741,-0.045));
#1416=CARTESIAN_POINT('',(0.160813524404355,0.457552546262741,-0.005));
#1417=CARTESIAN_POINT('',(0.163313524404355,0.455052546262741,-0.04));
#1418=CARTESIAN_POINT('',(-0.687554972300497,0.4367,-0.022));
#1419=CARTESIAN_POINT('',(0.128313524404355,0.460052546262741,-0.045));
#1420=CARTESIAN_POINT('',(0.125813524404355,0.457552546262741,-0.04));
#1421=CARTESIAN_POINT('',(0.123313524404355,0.400052546262741,-0.025));
#1422=CARTESIAN_POINT('',(0.123313524404355,0.415052546262741,-0.025));
#1423=CARTESIAN_POINT('',(0.123313524404355,0.425052546262741,-0.025));
#1424=CARTESIAN_POINT('',(0.143313524404355,0.460052546262741,-0.04));
#1425=CARTESIAN_POINT('',(0.158313524404355,0.457552546262741,-0.0425));
#1426=CARTESIAN_POINT('',(0.128313524404355,0.455052546262741,-0.045));
#1427=CARTESIAN_POINT('',(0.138313524404355,0.400052546262741,-0.005));
#1428=CARTESIAN_POINT('',(0.138313524404355,0.415052546262741,-0.005));
#1429=CARTESIAN_POINT('',(0.138313524404355,0.425052546262741,-0.005));
#1430=CARTESIAN_POINT('',(0.130813524404355,0.425052546262741,-0.850868496704852));
#1431=CARTESIAN_POINT('',(0.129313524404355,0.425052546262741,-0.01));
#1432=CARTESIAN_POINT('',(0.126813524404355,0.425052546262741,-0.01));
#1433=CARTESIAN_POINT('',(-0.295870723948071,0.425052546262741,-0.424184248352425));
#1434=CARTESIAN_POINT('',(0.128313524404355,0.400052546262741,0.));
#1435=CARTESIAN_POINT('',(-0.0397113039529461,0.455052546262741,0.));
#1436=CARTESIAN_POINT('',(0.158313524404355,0.455052546262741,0.));
#1437=CARTESIAN_POINT('',(-0.0397113039529461,0.415052546262741,-0.0225));
#1438=CARTESIAN_POINT('',(0.158313524404355,0.455052546262741,0.));
#1439=CARTESIAN_POINT('',(0.163313524404355,0.455052546262741,-0.04));
#1440=CARTESIAN_POINT('',(0.128313524404355,0.455052546262741,-0.045));
#1441=CARTESIAN_POINT('',(0.128313524404355,0.455052546262741,-0.045));
#1442=CARTESIAN_POINT('',(0.123313524404355,0.400052546262741,-0.04));
#1443=CARTESIAN_POINT('',(0.147313524404355,0.400052546262741,-0.850868496704852));
#1444=CARTESIAN_POINT('',(0.154813524404355,0.420006029657602,-0.204502));
#1445=CARTESIAN_POINT('',(0.154813524404355,0.413006029657602,-0.204502));
#1446=CARTESIAN_POINT('',(0.154813524404355,0.427006029657602,-0.204502));
#1447=CARTESIAN_POINT('',(0.157313524404355,0.427006029657602,-0.204502));
#1448=CARTESIAN_POINT('',(0.159813524404355,0.427006029657602,-0.204502));
#1449=CARTESIAN_POINT('',(0.157313524404355,0.413006029657602,-0.204502));
#1450=CARTESIAN_POINT('',(0.159813524404355,0.413006029657602,-0.204502));
#1451=CARTESIAN_POINT('',(0.159813524404355,0.420006029657602,-0.204502));
#1452=CARTESIAN_POINT('',(0.129313524404355,0.430450115781006,-0.01));
#1453=CARTESIAN_POINT('',(0.129313524404355,0.430450115781006,-0.01));
#1454=CARTESIAN_POINT('',(0.129313524404355,0.430450115781006,-0.0125));
#1455=CARTESIAN_POINT('',(0.0032928573835998,0.430450115781006,-0.0225));
#1456=CARTESIAN_POINT('',(-0.000992220393275178,0.410450115781006,-0.0225));
#1457=CARTESIAN_POINT('',(0.129313524404355,0.410450115781006,-0.015));
#1458=CARTESIAN_POINT('',(0.135313524404355,0.410450115781006,-0.015));
#1459=CARTESIAN_POINT('',(0.135313524404355,0.410450115781006,-0.0075));
#1460=CARTESIAN_POINT('',(0.129313524404355,0.410450115781006,-0.015));
#1461=CARTESIAN_POINT('',(0.135313524404355,0.410450115781006,-0.015));
#1462=CARTESIAN_POINT('',(0.135313524404355,0.410450115781006,-0.0075));
#1463=CARTESIAN_POINT('',(0.165813524404355,0.412950115781006,-0.0225));
#1464=CARTESIAN_POINT('',(0.165813524404355,0.412950115781006,-0.0175));
#1465=CARTESIAN_POINT('',(0.160813524404355,0.412950115781006,-0.0175));
#1466=CARTESIAN_POINT('',(0.160813524404355,0.412950115781006,-0.0225));
#1467=CARTESIAN_POINT('',(0.160813524404355,0.412950115781006,-0.0275));
#1468=CARTESIAN_POINT('',(0.165813524404355,0.412950115781006,-0.0275));
#1469=CARTESIAN_POINT('',(0.165813524404355,0.400450115781006,-0.0175));
#1470=CARTESIAN_POINT('',(0.160813524404355,0.400450115781006,-0.0175));
#1471=CARTESIAN_POINT('',(0.165813524404355,0.400450115781006,-0.0275));
#1472=CARTESIAN_POINT('',(0.160813524404355,0.400450115781006,-0.0275));
#1473=CARTESIAN_POINT('',(0.160813524404355,0.395501331021874,-0.0225));
#1474=CARTESIAN_POINT('',(0.126813524404355,0.422751331021874,-0.0225));
#1475=CARTESIAN_POINT('',(0.126813524404355,0.405450115781006,-0.024));
#1476=CARTESIAN_POINT('',(0.126813524404355,0.407050115781006,-0.024));
#1477=CARTESIAN_POINT('',(0.126813524404355,0.400450115781006,-0.02));
#1478=CARTESIAN_POINT('',(0.126813524404355,0.410450115781006,-0.02));
#1479=CARTESIAN_POINT('',(0.126813524404355,0.410450115781006,-0.024));
#1480=CARTESIAN_POINT('',(0.126813524404355,0.410450115781006,-0.028));
#1481=CARTESIAN_POINT('',(0.126813524404355,0.400450115781006,-0.028));
#1482=CARTESIAN_POINT('',(0.119813524404355,0.400450115781006,-0.02));
#1483=CARTESIAN_POINT('',(0.119813524404355,0.410450115781006,-0.02));
#1484=CARTESIAN_POINT('',(0.119813524404355,0.410450115781006,-0.024));
#1485=CARTESIAN_POINT('',(0.119813524404355,0.410450115781006,-0.028));
#1486=CARTESIAN_POINT('',(0.119813524404355,0.400450115781006,-0.028));
#1487=CARTESIAN_POINT('',(0.123313524404355,0.405450115781006,-0.024));
#1488=CARTESIAN_POINT('',(0.130313524404355,0.405450115781006,-0.024));
#1489=CARTESIAN_POINT('',(0.130313524404355,0.407050115781006,-0.024));
#1490=CARTESIAN_POINT('',(0.130313524404355,0.402150115781006,-0.024));
#1491=MECHANICAL_DESIGN_GEOMETRIC_PRESENTATION_REPRESENTATION('',(#924),
#1492);
#1492=(
GEOMETRIC_REPRESENTATION_CONTEXT(3)
GLOBAL_UNCERTAINTY_ASSIGNED_CONTEXT((#1493))
GLOBAL_UNIT_ASSIGNED_CONTEXT((#1496,#1495,#1494))
REPRESENTATION_CONTEXT('XY1_TOP','TOP_LEVEL_ASSEMBLY_PART')
);
#1493=UNCERTAINTY_MEASURE_WITH_UNIT(LENGTH_MEASURE(1.E-8),#1496,
'DISTANCE_ACCURACY_VALUE','Maximum Tolerance applied to model');
#1494=(
NAMED_UNIT(*)
SI_UNIT($,.STERADIAN.)
SOLID_ANGLE_UNIT()
);
#1495=(
NAMED_UNIT(*)
PLANE_ANGLE_UNIT()
SI_UNIT($,.RADIAN.)
);
#1496=(
LENGTH_UNIT()
NAMED_UNIT(*)
SI_UNIT($,.METRE.)
);
#1497=PRODUCT_DEFINITION_SHAPE('','',#1498);
#1498=PRODUCT_DEFINITION('','',#1500,#1499);
#1499=PRODUCT_DEFINITION_CONTEXT('',#1506,'design');
#1500=PRODUCT_DEFINITION_FORMATION_WITH_SPECIFIED_SOURCE('','',#1502,
 .NOT_KNOWN.);
#1501=PRODUCT_RELATED_PRODUCT_CATEGORY('','',(#1502));
#1502=PRODUCT('XY1_TOP','XY1_TOP','XY1_TOP',(#1504));
#1503=PRODUCT_CATEGORY('','');
#1504=PRODUCT_CONTEXT('',#1506,'mechanical');
#1505=APPLICATION_PROTOCOL_DEFINITION('international standard',
'ap242_managed_model_based_3d_engineering',2020,#1506);
#1506=APPLICATION_CONTEXT('managed model based 3d engineering');
ENDSEC;
END-ISO-10303-21;
