ISO-10303-21;
HEADER;
/* Generated by software containing ST-Developer
 * from STEP Tools, Inc. (www.steptools.com) 
 */
/* OPTION: using custom renumber hook */

FILE_DESCRIPTION(
/* description */ ('STEP AP242 Edition 2',
'CAx-IF Rec.Pracs.---Representation and Presentation of Product Manufa
cturing Information (PMI)---4.0---2014-10-13',
'CAx-IF Rec.Pracs.---3D Tessellated Geometry---0.4---2014-09-14','2;1',
'CAx-IF Rec.Pracs.---User Defined Attributes---1.5---2016-08-15'),
/* implementation_level */ '2;1');

FILE_NAME(
/* name */ 'NOT-618 - TFL-Rod Mount',
/* time_stamp */ '2026-07-11T06:06:53Z',
/* author */ (''),
/* organization */ (''),
/* preprocessor_version */ 'ST-DEVELOPER v20',
/* originating_system */ 'ONSHAPE BY PTC INC, 1.217',
/* authorisation */ '  ');

FILE_SCHEMA (('AP242_MANAGED_MODEL_BASED_3D_ENGINEERING_MIM_LF { 1 0 10303 442 3 1 4 }'));
ENDSEC;

DATA;
#10=SHAPE_REPRESENTATION_RELATIONSHIP('','',#919,#11);
#11=ADVANCED_BREP_SHAPE_REPRESENTATION('',(#917),#1478);
#12=CONICAL_SURFACE('',#955,0.0045,0.785398163397448);
#13=CONICAL_SURFACE('',#956,0.0045,0.785398163397448);
#14=CONICAL_SURFACE('',#957,0.004,0.785398163397448);
#15=CYLINDRICAL_SURFACE('',#927,0.0105);
#16=CYLINDRICAL_SURFACE('',#940,0.0025);
#17=CYLINDRICAL_SURFACE('',#949,0.004);
#18=CYLINDRICAL_SURFACE('',#951,0.0025);
#19=CYLINDRICAL_SURFACE('',#953,0.0025);
#20=CYLINDRICAL_SURFACE('',#988,0.0025);
#21=CYLINDRICAL_SURFACE('',#989,0.0025);
#22=CIRCLE('',#924,0.0105);
#23=CIRCLE('',#925,0.00450000000000006);
#24=CIRCLE('',#926,0.00450000000000006);
#25=CIRCLE('',#928,0.0105);
#26=CIRCLE('',#930,0.0025);
#27=CIRCLE('',#931,0.0025);
#28=CIRCLE('',#941,0.0025);
#29=CIRCLE('',#942,0.0025);
#30=CIRCLE('',#945,0.007);
#31=CIRCLE('',#948,0.004);
#32=CIRCLE('',#950,0.004);
#33=CIRCLE('',#952,0.0025);
#34=CIRCLE('',#954,0.0025);
#35=CIRCLE('',#973,0.0025);
#36=CIRCLE('',#975,0.0025);
#37=CIRCLE('',#980,0.0025);
#38=CIRCLE('',#982,0.0025);
#39=ORIENTED_EDGE('',*,*,#271,.F.);
#40=ORIENTED_EDGE('',*,*,#272,.T.);
#41=ORIENTED_EDGE('',*,*,#273,.T.);
#42=ORIENTED_EDGE('',*,*,#274,.F.);
#43=ORIENTED_EDGE('',*,*,#275,.F.);
#44=ORIENTED_EDGE('',*,*,#276,.T.);
#45=ORIENTED_EDGE('',*,*,#277,.T.);
#46=ORIENTED_EDGE('',*,*,#278,.F.);
#47=ORIENTED_EDGE('',*,*,#279,.T.);
#48=ORIENTED_EDGE('',*,*,#280,.T.);
#49=ORIENTED_EDGE('',*,*,#281,.T.);
#50=ORIENTED_EDGE('',*,*,#282,.F.);
#51=ORIENTED_EDGE('',*,*,#283,.T.);
#52=ORIENTED_EDGE('',*,*,#284,.T.);
#53=ORIENTED_EDGE('',*,*,#285,.T.);
#54=ORIENTED_EDGE('',*,*,#286,.T.);
#55=ORIENTED_EDGE('',*,*,#287,.T.);
#56=ORIENTED_EDGE('',*,*,#288,.T.);
#57=ORIENTED_EDGE('',*,*,#289,.T.);
#58=ORIENTED_EDGE('',*,*,#275,.T.);
#59=ORIENTED_EDGE('',*,*,#290,.T.);
#60=ORIENTED_EDGE('',*,*,#291,.F.);
#61=ORIENTED_EDGE('',*,*,#292,.F.);
#62=ORIENTED_EDGE('',*,*,#272,.F.);
#63=ORIENTED_EDGE('',*,*,#293,.F.);
#64=ORIENTED_EDGE('',*,*,#279,.F.);
#65=ORIENTED_EDGE('',*,*,#294,.F.);
#66=ORIENTED_EDGE('',*,*,#295,.F.);
#67=ORIENTED_EDGE('',*,*,#296,.F.);
#68=ORIENTED_EDGE('',*,*,#297,.T.);
#69=ORIENTED_EDGE('',*,*,#298,.T.);
#70=ORIENTED_EDGE('',*,*,#299,.T.);
#71=ORIENTED_EDGE('',*,*,#300,.F.);
#72=ORIENTED_EDGE('',*,*,#301,.F.);
#73=ORIENTED_EDGE('',*,*,#302,.T.);
#74=ORIENTED_EDGE('',*,*,#303,.T.);
#75=ORIENTED_EDGE('',*,*,#304,.T.);
#76=ORIENTED_EDGE('',*,*,#305,.T.);
#77=ORIENTED_EDGE('',*,*,#306,.T.);
#78=ORIENTED_EDGE('',*,*,#307,.F.);
#79=ORIENTED_EDGE('',*,*,#308,.T.);
#80=ORIENTED_EDGE('',*,*,#301,.T.);
#81=ORIENTED_EDGE('',*,*,#284,.F.);
#82=ORIENTED_EDGE('',*,*,#309,.T.);
#83=ORIENTED_EDGE('',*,*,#310,.T.);
#84=ORIENTED_EDGE('',*,*,#307,.T.);
#85=ORIENTED_EDGE('',*,*,#306,.F.);
#86=ORIENTED_EDGE('',*,*,#311,.F.);
#87=ORIENTED_EDGE('',*,*,#285,.F.);
#88=ORIENTED_EDGE('',*,*,#312,.F.);
#89=ORIENTED_EDGE('',*,*,#313,.T.);
#90=ORIENTED_EDGE('',*,*,#314,.T.);
#91=ORIENTED_EDGE('',*,*,#282,.T.);
#92=ORIENTED_EDGE('',*,*,#281,.F.);
#93=ORIENTED_EDGE('',*,*,#315,.F.);
#94=ORIENTED_EDGE('',*,*,#316,.F.);
#95=ORIENTED_EDGE('',*,*,#317,.T.);
#96=ORIENTED_EDGE('',*,*,#318,.T.);
#97=ORIENTED_EDGE('',*,*,#319,.F.);
#98=ORIENTED_EDGE('',*,*,#299,.F.);
#99=ORIENTED_EDGE('',*,*,#320,.T.);
#100=ORIENTED_EDGE('',*,*,#312,.T.);
#101=ORIENTED_EDGE('',*,*,#316,.T.);
#102=ORIENTED_EDGE('',*,*,#321,.T.);
#103=ORIENTED_EDGE('',*,*,#322,.T.);
#104=ORIENTED_EDGE('',*,*,#297,.F.);
#105=ORIENTED_EDGE('',*,*,#323,.T.);
#106=ORIENTED_EDGE('',*,*,#308,.F.);
#107=ORIENTED_EDGE('',*,*,#310,.F.);
#108=ORIENTED_EDGE('',*,*,#324,.F.);
#109=ORIENTED_EDGE('',*,*,#323,.F.);
#110=ORIENTED_EDGE('',*,*,#302,.F.);
#111=ORIENTED_EDGE('',*,*,#283,.F.);
#112=ORIENTED_EDGE('',*,*,#314,.F.);
#113=ORIENTED_EDGE('',*,*,#325,.F.);
#114=ORIENTED_EDGE('',*,*,#321,.F.);
#115=ORIENTED_EDGE('',*,*,#324,.T.);
#116=ORIENTED_EDGE('',*,*,#309,.F.);
#117=ORIENTED_EDGE('',*,*,#313,.F.);
#118=ORIENTED_EDGE('',*,*,#320,.F.);
#119=ORIENTED_EDGE('',*,*,#298,.F.);
#120=ORIENTED_EDGE('',*,*,#322,.F.);
#121=ORIENTED_EDGE('',*,*,#325,.T.);
#122=ORIENTED_EDGE('',*,*,#326,.T.);
#123=ORIENTED_EDGE('',*,*,#327,.F.);
#124=ORIENTED_EDGE('',*,*,#326,.F.);
#125=ORIENTED_EDGE('',*,*,#319,.T.);
#126=ORIENTED_EDGE('',*,*,#328,.T.);
#127=ORIENTED_EDGE('',*,*,#329,.F.);
#128=ORIENTED_EDGE('',*,*,#330,.T.);
#129=ORIENTED_EDGE('',*,*,#303,.F.);
#130=ORIENTED_EDGE('',*,*,#300,.T.);
#131=ORIENTED_EDGE('',*,*,#331,.T.);
#132=ORIENTED_EDGE('',*,*,#332,.T.);
#133=ORIENTED_EDGE('',*,*,#333,.T.);
#134=ORIENTED_EDGE('',*,*,#334,.T.);
#135=ORIENTED_EDGE('',*,*,#335,.T.);
#136=ORIENTED_EDGE('',*,*,#329,.T.);
#137=ORIENTED_EDGE('',*,*,#336,.T.);
#138=ORIENTED_EDGE('',*,*,#337,.T.);
#139=ORIENTED_EDGE('',*,*,#338,.T.);
#140=ORIENTED_EDGE('',*,*,#339,.T.);
#141=ORIENTED_EDGE('',*,*,#327,.T.);
#142=ORIENTED_EDGE('',*,*,#340,.T.);
#143=ORIENTED_EDGE('',*,*,#339,.F.);
#144=ORIENTED_EDGE('',*,*,#341,.T.);
#145=ORIENTED_EDGE('',*,*,#296,.T.);
#146=ORIENTED_EDGE('',*,*,#342,.T.);
#147=ORIENTED_EDGE('',*,*,#295,.T.);
#148=ORIENTED_EDGE('',*,*,#341,.F.);
#149=ORIENTED_EDGE('',*,*,#287,.F.);
#150=ORIENTED_EDGE('',*,*,#342,.F.);
#151=ORIENTED_EDGE('',*,*,#286,.F.);
#152=ORIENTED_EDGE('',*,*,#331,.F.);
#153=ORIENTED_EDGE('',*,*,#340,.F.);
#154=ORIENTED_EDGE('',*,*,#330,.F.);
#155=ORIENTED_EDGE('',*,*,#338,.F.);
#156=ORIENTED_EDGE('',*,*,#343,.F.);
#157=ORIENTED_EDGE('',*,*,#304,.F.);
#158=ORIENTED_EDGE('',*,*,#344,.F.);
#159=ORIENTED_EDGE('',*,*,#305,.F.);
#160=ORIENTED_EDGE('',*,*,#345,.F.);
#161=ORIENTED_EDGE('',*,*,#332,.F.);
#162=ORIENTED_EDGE('',*,*,#311,.T.);
#163=ORIENTED_EDGE('',*,*,#344,.T.);
#164=ORIENTED_EDGE('',*,*,#346,.F.);
#165=ORIENTED_EDGE('',*,*,#345,.T.);
#166=ORIENTED_EDGE('',*,*,#343,.T.);
#167=ORIENTED_EDGE('',*,*,#347,.F.);
#168=ORIENTED_EDGE('',*,*,#346,.T.);
#169=ORIENTED_EDGE('',*,*,#335,.F.);
#170=ORIENTED_EDGE('',*,*,#348,.F.);
#171=ORIENTED_EDGE('',*,*,#280,.F.);
#172=ORIENTED_EDGE('',*,*,#328,.F.);
#173=ORIENTED_EDGE('',*,*,#318,.F.);
#174=ORIENTED_EDGE('',*,*,#349,.F.);
#175=ORIENTED_EDGE('',*,*,#336,.F.);
#176=ORIENTED_EDGE('',*,*,#347,.T.);
#177=ORIENTED_EDGE('',*,*,#337,.F.);
#178=ORIENTED_EDGE('',*,*,#350,.F.);
#179=ORIENTED_EDGE('',*,*,#333,.F.);
#180=ORIENTED_EDGE('',*,*,#315,.T.);
#181=ORIENTED_EDGE('',*,*,#348,.T.);
#182=ORIENTED_EDGE('',*,*,#351,.F.);
#183=ORIENTED_EDGE('',*,*,#350,.T.);
#184=ORIENTED_EDGE('',*,*,#349,.T.);
#185=ORIENTED_EDGE('',*,*,#352,.F.);
#186=ORIENTED_EDGE('',*,*,#351,.T.);
#187=ORIENTED_EDGE('',*,*,#334,.F.);
#188=ORIENTED_EDGE('',*,*,#352,.T.);
#189=ORIENTED_EDGE('',*,*,#317,.F.);
#190=ORIENTED_EDGE('',*,*,#294,.T.);
#191=ORIENTED_EDGE('',*,*,#353,.F.);
#192=ORIENTED_EDGE('',*,*,#274,.T.);
#193=ORIENTED_EDGE('',*,*,#354,.F.);
#194=ORIENTED_EDGE('',*,*,#277,.F.);
#195=ORIENTED_EDGE('',*,*,#355,.F.);
#196=ORIENTED_EDGE('',*,*,#356,.T.);
#197=ORIENTED_EDGE('',*,*,#357,.T.);
#198=ORIENTED_EDGE('',*,*,#290,.F.);
#199=ORIENTED_EDGE('',*,*,#358,.F.);
#200=ORIENTED_EDGE('',*,*,#359,.T.);
#201=ORIENTED_EDGE('',*,*,#360,.T.);
#202=ORIENTED_EDGE('',*,*,#292,.T.);
#203=ORIENTED_EDGE('',*,*,#361,.T.);
#204=ORIENTED_EDGE('',*,*,#362,.F.);
#205=ORIENTED_EDGE('',*,*,#363,.T.);
#206=ORIENTED_EDGE('',*,*,#358,.T.);
#207=ORIENTED_EDGE('',*,*,#291,.T.);
#208=ORIENTED_EDGE('',*,*,#357,.F.);
#209=ORIENTED_EDGE('',*,*,#364,.T.);
#210=ORIENTED_EDGE('',*,*,#365,.T.);
#211=ORIENTED_EDGE('',*,*,#360,.F.);
#212=ORIENTED_EDGE('',*,*,#366,.T.);
#213=ORIENTED_EDGE('',*,*,#367,.F.);
#214=ORIENTED_EDGE('',*,*,#368,.T.);
#215=ORIENTED_EDGE('',*,*,#355,.T.);
#216=ORIENTED_EDGE('',*,*,#278,.T.);
#217=ORIENTED_EDGE('',*,*,#354,.T.);
#218=ORIENTED_EDGE('',*,*,#273,.F.);
#219=ORIENTED_EDGE('',*,*,#367,.T.);
#220=ORIENTED_EDGE('',*,*,#369,.T.);
#221=ORIENTED_EDGE('',*,*,#362,.T.);
#222=ORIENTED_EDGE('',*,*,#370,.T.);
#223=ORIENTED_EDGE('',*,*,#371,.F.);
#224=ORIENTED_EDGE('',*,*,#372,.T.);
#225=ORIENTED_EDGE('',*,*,#373,.T.);
#226=ORIENTED_EDGE('',*,*,#293,.T.);
#227=ORIENTED_EDGE('',*,*,#374,.F.);
#228=ORIENTED_EDGE('',*,*,#375,.T.);
#229=ORIENTED_EDGE('',*,*,#376,.T.);
#230=ORIENTED_EDGE('',*,*,#289,.F.);
#231=ORIENTED_EDGE('',*,*,#377,.F.);
#232=ORIENTED_EDGE('',*,*,#378,.T.);
#233=ORIENTED_EDGE('',*,*,#379,.T.);
#234=ORIENTED_EDGE('',*,*,#374,.T.);
#235=ORIENTED_EDGE('',*,*,#288,.F.);
#236=ORIENTED_EDGE('',*,*,#373,.F.);
#237=ORIENTED_EDGE('',*,*,#380,.T.);
#238=ORIENTED_EDGE('',*,*,#381,.T.);
#239=ORIENTED_EDGE('',*,*,#376,.F.);
#240=ORIENTED_EDGE('',*,*,#382,.T.);
#241=ORIENTED_EDGE('',*,*,#383,.F.);
#242=ORIENTED_EDGE('',*,*,#384,.T.);
#243=ORIENTED_EDGE('',*,*,#371,.T.);
#244=ORIENTED_EDGE('',*,*,#271,.T.);
#245=ORIENTED_EDGE('',*,*,#353,.T.);
#246=ORIENTED_EDGE('',*,*,#276,.F.);
#247=ORIENTED_EDGE('',*,*,#383,.T.);
#248=ORIENTED_EDGE('',*,*,#385,.T.);
#249=ORIENTED_EDGE('',*,*,#378,.F.);
#250=ORIENTED_EDGE('',*,*,#386,.T.);
#251=ORIENTED_EDGE('',*,*,#366,.F.);
#252=ORIENTED_EDGE('',*,*,#359,.F.);
#253=ORIENTED_EDGE('',*,*,#363,.F.);
#254=ORIENTED_EDGE('',*,*,#369,.F.);
#255=ORIENTED_EDGE('',*,*,#368,.F.);
#256=ORIENTED_EDGE('',*,*,#370,.F.);
#257=ORIENTED_EDGE('',*,*,#364,.F.);
#258=ORIENTED_EDGE('',*,*,#356,.F.);
#259=ORIENTED_EDGE('',*,*,#379,.F.);
#260=ORIENTED_EDGE('',*,*,#385,.F.);
#261=ORIENTED_EDGE('',*,*,#382,.F.);
#262=ORIENTED_EDGE('',*,*,#375,.F.);
#263=ORIENTED_EDGE('',*,*,#380,.F.);
#264=ORIENTED_EDGE('',*,*,#372,.F.);
#265=ORIENTED_EDGE('',*,*,#384,.F.);
#266=ORIENTED_EDGE('',*,*,#386,.F.);
#267=ORIENTED_EDGE('',*,*,#377,.T.);
#268=ORIENTED_EDGE('',*,*,#381,.F.);
#269=ORIENTED_EDGE('',*,*,#365,.F.);
#270=ORIENTED_EDGE('',*,*,#361,.F.);
#271=EDGE_CURVE('',#387,#388,#466,.T.);
#272=EDGE_CURVE('',#387,#389,#467,.T.);
#273=EDGE_CURVE('',#389,#390,#468,.T.);
#274=EDGE_CURVE('',#388,#390,#469,.T.);
#275=EDGE_CURVE('',#391,#392,#470,.T.);
#276=EDGE_CURVE('',#391,#393,#471,.T.);
#277=EDGE_CURVE('',#393,#394,#472,.T.);
#278=EDGE_CURVE('',#392,#394,#473,.T.);
#279=EDGE_CURVE('',#395,#395,#22,.T.);
#280=EDGE_CURVE('',#396,#397,#474,.T.);
#281=EDGE_CURVE('',#397,#398,#475,.T.);
#282=EDGE_CURVE('',#399,#398,#476,.T.);
#283=EDGE_CURVE('',#399,#400,#477,.T.);
#284=EDGE_CURVE('',#400,#401,#478,.T.);
#285=EDGE_CURVE('',#401,#396,#479,.T.);
#286=EDGE_CURVE('',#402,#402,#23,.T.);
#287=EDGE_CURVE('',#403,#403,#24,.T.);
#288=EDGE_CURVE('',#404,#405,#480,.T.);
#289=EDGE_CURVE('',#405,#391,#481,.T.);
#290=EDGE_CURVE('',#392,#406,#482,.T.);
#291=EDGE_CURVE('',#407,#406,#483,.T.);
#292=EDGE_CURVE('',#389,#407,#484,.T.);
#293=EDGE_CURVE('',#404,#387,#485,.T.);
#294=EDGE_CURVE('',#408,#408,#25,.F.);
#295=EDGE_CURVE('',#409,#409,#26,.T.);
#296=EDGE_CURVE('',#410,#410,#27,.T.);
#297=EDGE_CURVE('',#411,#412,#486,.T.);
#298=EDGE_CURVE('',#412,#413,#487,.T.);
#299=EDGE_CURVE('',#413,#414,#488,.T.);
#300=EDGE_CURVE('',#415,#414,#489,.T.);
#301=EDGE_CURVE('',#416,#415,#490,.T.);
#302=EDGE_CURVE('',#416,#411,#491,.F.);
#303=EDGE_CURVE('',#415,#417,#492,.T.);
#304=EDGE_CURVE('',#417,#418,#493,.T.);
#305=EDGE_CURVE('',#418,#419,#494,.T.);
#306=EDGE_CURVE('',#419,#420,#495,.T.);
#307=EDGE_CURVE('',#421,#420,#496,.T.);
#308=EDGE_CURVE('',#421,#416,#497,.T.);
#309=EDGE_CURVE('',#400,#422,#498,.T.);
#310=EDGE_CURVE('',#422,#421,#499,.F.);
#311=EDGE_CURVE('',#396,#419,#500,.T.);
#312=EDGE_CURVE('',#423,#424,#501,.T.);
#313=EDGE_CURVE('',#423,#425,#502,.T.);
#314=EDGE_CURVE('',#425,#399,#503,.T.);
#315=EDGE_CURVE('',#426,#397,#504,.F.);
#316=EDGE_CURVE('',#424,#426,#505,.T.);
#317=EDGE_CURVE('',#426,#427,#506,.T.);
#318=EDGE_CURVE('',#427,#428,#507,.T.);
#319=EDGE_CURVE('',#414,#428,#508,.T.);
#320=EDGE_CURVE('',#413,#423,#509,.T.);
#321=EDGE_CURVE('',#429,#430,#510,.T.);
#322=EDGE_CURVE('',#430,#412,#511,.T.);
#323=EDGE_CURVE('',#411,#429,#512,.T.);
#324=EDGE_CURVE('',#429,#422,#513,.F.);
#325=EDGE_CURVE('',#430,#425,#514,.T.);
#326=EDGE_CURVE('',#431,#431,#28,.T.);
#327=EDGE_CURVE('',#432,#432,#29,.F.);
#328=EDGE_CURVE('',#428,#433,#515,.T.);
#329=EDGE_CURVE('',#434,#433,#516,.T.);
#330=EDGE_CURVE('',#434,#417,#517,.F.);
#331=EDGE_CURVE('',#435,#435,#30,.T.);
#332=EDGE_CURVE('',#436,#437,#518,.T.);
#333=EDGE_CURVE('',#437,#438,#519,.T.);
#334=EDGE_CURVE('',#438,#439,#520,.T.);
#335=EDGE_CURVE('',#439,#436,#521,.T.);
#336=EDGE_CURVE('',#433,#440,#522,.T.);
#337=EDGE_CURVE('',#440,#441,#523,.T.);
#338=EDGE_CURVE('',#441,#434,#524,.T.);
#339=EDGE_CURVE('',#442,#442,#31,.T.);
#340=EDGE_CURVE('',#443,#443,#32,.F.);
#341=EDGE_CURVE('',#444,#444,#33,.F.);
#342=EDGE_CURVE('',#445,#445,#34,.F.);
#343=EDGE_CURVE('',#418,#441,#525,.F.);
#344=EDGE_CURVE('',#419,#436,#526,.T.);
#345=EDGE_CURVE('',#437,#418,#527,.T.);
#346=EDGE_CURVE('',#396,#436,#528,.T.);
#347=EDGE_CURVE('',#437,#441,#529,.F.);
#348=EDGE_CURVE('',#397,#439,#530,.F.);
#349=EDGE_CURVE('',#440,#427,#531,.T.);
#350=EDGE_CURVE('',#438,#440,#532,.T.);
#351=EDGE_CURVE('',#426,#439,#533,.T.);
#352=EDGE_CURVE('',#438,#427,#534,.T.);
#353=EDGE_CURVE('',#388,#393,#535,.T.);
#354=EDGE_CURVE('',#394,#390,#536,.T.);
#355=EDGE_CURVE('',#446,#392,#537,.T.);
#356=EDGE_CURVE('',#446,#447,#538,.T.);
#357=EDGE_CURVE('',#447,#406,#539,.T.);
#358=EDGE_CURVE('',#448,#407,#540,.T.);
#359=EDGE_CURVE('',#448,#449,#541,.T.);
#360=EDGE_CURVE('',#449,#389,#542,.T.);
#361=EDGE_CURVE('',#450,#450,#35,.T.);
#362=EDGE_CURVE('',#451,#452,#543,.T.);
#363=EDGE_CURVE('',#451,#448,#544,.T.);
#364=EDGE_CURVE('',#447,#452,#545,.F.);
#365=EDGE_CURVE('',#453,#453,#36,.T.);
#366=EDGE_CURVE('',#449,#454,#546,.T.);
#367=EDGE_CURVE('',#455,#454,#547,.T.);
#368=EDGE_CURVE('',#455,#446,#548,.F.);
#369=EDGE_CURVE('',#454,#451,#549,.T.);
#370=EDGE_CURVE('',#452,#455,#550,.T.);
#371=EDGE_CURVE('',#456,#387,#551,.T.);
#372=EDGE_CURVE('',#456,#457,#552,.T.);
#373=EDGE_CURVE('',#457,#404,#553,.T.);
#374=EDGE_CURVE('',#458,#405,#554,.T.);
#375=EDGE_CURVE('',#458,#459,#555,.T.);
#376=EDGE_CURVE('',#459,#391,#556,.T.);
#377=EDGE_CURVE('',#460,#460,#37,.T.);
#378=EDGE_CURVE('',#461,#462,#557,.T.);
#379=EDGE_CURVE('',#462,#458,#558,.F.);
#380=EDGE_CURVE('',#457,#461,#559,.T.);
#381=EDGE_CURVE('',#463,#463,#38,.T.);
#382=EDGE_CURVE('',#459,#464,#560,.F.);
#383=EDGE_CURVE('',#465,#464,#561,.T.);
#384=EDGE_CURVE('',#465,#456,#562,.T.);
#385=EDGE_CURVE('',#464,#462,#563,.T.);
#386=EDGE_CURVE('',#461,#465,#564,.T.);
#387=VERTEX_POINT('',#1232);
#388=VERTEX_POINT('',#1233);
#389=VERTEX_POINT('',#1235);
#390=VERTEX_POINT('',#1237);
#391=VERTEX_POINT('',#1241);
#392=VERTEX_POINT('',#1242);
#393=VERTEX_POINT('',#1244);
#394=VERTEX_POINT('',#1246);
#395=VERTEX_POINT('',#1250);
#396=VERTEX_POINT('',#1252);
#397=VERTEX_POINT('',#1253);
#398=VERTEX_POINT('',#1255);
#399=VERTEX_POINT('',#1257);
#400=VERTEX_POINT('',#1259);
#401=VERTEX_POINT('',#1261);
#402=VERTEX_POINT('',#1264);
#403=VERTEX_POINT('',#1266);
#404=VERTEX_POINT('',#1268);
#405=VERTEX_POINT('',#1269);
#406=VERTEX_POINT('',#1272);
#407=VERTEX_POINT('',#1274);
#408=VERTEX_POINT('',#1279);
#409=VERTEX_POINT('',#1282);
#410=VERTEX_POINT('',#1284);
#411=VERTEX_POINT('',#1286);
#412=VERTEX_POINT('',#1287);
#413=VERTEX_POINT('',#1289);
#414=VERTEX_POINT('',#1291);
#415=VERTEX_POINT('',#1293);
#416=VERTEX_POINT('',#1295);
#417=VERTEX_POINT('',#1299);
#418=VERTEX_POINT('',#1301);
#419=VERTEX_POINT('',#1303);
#420=VERTEX_POINT('',#1305);
#421=VERTEX_POINT('',#1307);
#422=VERTEX_POINT('',#1311);
#423=VERTEX_POINT('',#1316);
#424=VERTEX_POINT('',#1317);
#425=VERTEX_POINT('',#1319);
#426=VERTEX_POINT('',#1322);
#427=VERTEX_POINT('',#1326);
#428=VERTEX_POINT('',#1328);
#429=VERTEX_POINT('',#1333);
#430=VERTEX_POINT('',#1334);
#431=VERTEX_POINT('',#1344);
#432=VERTEX_POINT('',#1346);
#433=VERTEX_POINT('',#1349);
#434=VERTEX_POINT('',#1351);
#435=VERTEX_POINT('',#1355);
#436=VERTEX_POINT('',#1357);
#437=VERTEX_POINT('',#1358);
#438=VERTEX_POINT('',#1360);
#439=VERTEX_POINT('',#1362);
#440=VERTEX_POINT('',#1366);
#441=VERTEX_POINT('',#1368);
#442=VERTEX_POINT('',#1372);
#443=VERTEX_POINT('',#1375);
#444=VERTEX_POINT('',#1378);
#445=VERTEX_POINT('',#1381);
#446=VERTEX_POINT('',#1411);
#447=VERTEX_POINT('',#1413);
#448=VERTEX_POINT('',#1417);
#449=VERTEX_POINT('',#1419);
#450=VERTEX_POINT('',#1423);
#451=VERTEX_POINT('',#1425);
#452=VERTEX_POINT('',#1426);
#453=VERTEX_POINT('',#1431);
#454=VERTEX_POINT('',#1433);
#455=VERTEX_POINT('',#1435);
#456=VERTEX_POINT('',#1442);
#457=VERTEX_POINT('',#1444);
#458=VERTEX_POINT('',#1448);
#459=VERTEX_POINT('',#1450);
#460=VERTEX_POINT('',#1454);
#461=VERTEX_POINT('',#1456);
#462=VERTEX_POINT('',#1457);
#463=VERTEX_POINT('',#1462);
#464=VERTEX_POINT('',#1464);
#465=VERTEX_POINT('',#1466);
#466=LINE('',#1231,#565);
#467=LINE('',#1234,#566);
#468=LINE('',#1236,#567);
#469=LINE('',#1238,#568);
#470=LINE('',#1240,#569);
#471=LINE('',#1243,#570);
#472=LINE('',#1245,#571);
#473=LINE('',#1247,#572);
#474=LINE('',#1251,#573);
#475=LINE('',#1254,#574);
#476=LINE('',#1256,#575);
#477=LINE('',#1258,#576);
#478=LINE('',#1260,#577);
#479=LINE('',#1262,#578);
#480=LINE('',#1267,#579);
#481=LINE('',#1270,#580);
#482=LINE('',#1271,#581);
#483=LINE('',#1273,#582);
#484=LINE('',#1275,#583);
#485=LINE('',#1276,#584);
#486=LINE('',#1285,#585);
#487=LINE('',#1288,#586);
#488=LINE('',#1290,#587);
#489=LINE('',#1292,#588);
#490=LINE('',#1294,#589);
#491=LINE('',#1296,#590);
#492=LINE('',#1298,#591);
#493=LINE('',#1300,#592);
#494=LINE('',#1302,#593);
#495=LINE('',#1304,#594);
#496=LINE('',#1306,#595);
#497=LINE('',#1308,#596);
#498=LINE('',#1310,#597);
#499=LINE('',#1312,#598);
#500=LINE('',#1313,#599);
#501=LINE('',#1315,#600);
#502=LINE('',#1318,#601);
#503=LINE('',#1320,#602);
#504=LINE('',#1321,#603);
#505=LINE('',#1323,#604);
#506=LINE('',#1325,#605);
#507=LINE('',#1327,#606);
#508=LINE('',#1329,#607);
#509=LINE('',#1330,#608);
#510=LINE('',#1332,#609);
#511=LINE('',#1335,#610);
#512=LINE('',#1336,#611);
#513=LINE('',#1338,#612);
#514=LINE('',#1340,#613);
#515=LINE('',#1348,#614);
#516=LINE('',#1350,#615);
#517=LINE('',#1352,#616);
#518=LINE('',#1356,#617);
#519=LINE('',#1359,#618);
#520=LINE('',#1361,#619);
#521=LINE('',#1363,#620);
#522=LINE('',#1365,#621);
#523=LINE('',#1367,#622);
#524=LINE('',#1369,#623);
#525=LINE('',#1386,#624);
#526=LINE('',#1388,#625);
#527=LINE('',#1389,#626);
#528=LINE('',#1391,#627);
#529=LINE('',#1393,#628);
#530=LINE('',#1395,#629);
#531=LINE('',#1397,#630);
#532=LINE('',#1399,#631);
#533=LINE('',#1401,#632);
#534=LINE('',#1403,#633);
#535=LINE('',#1407,#634);
#536=LINE('',#1408,#635);
#537=LINE('',#1410,#636);
#538=LINE('',#1412,#637);
#539=LINE('',#1414,#638);
#540=LINE('',#1416,#639);
#541=LINE('',#1418,#640);
#542=LINE('',#1420,#641);
#543=LINE('',#1424,#642);
#544=LINE('',#1427,#643);
#545=LINE('',#1428,#644);
#546=LINE('',#1432,#645);
#547=LINE('',#1434,#646);
#548=LINE('',#1436,#647);
#549=LINE('',#1438,#648);
#550=LINE('',#1439,#649);
#551=LINE('',#1441,#650);
#552=LINE('',#1443,#651);
#553=LINE('',#1445,#652);
#554=LINE('',#1447,#653);
#555=LINE('',#1449,#654);
#556=LINE('',#1451,#655);
#557=LINE('',#1455,#656);
#558=LINE('',#1458,#657);
#559=LINE('',#1459,#658);
#560=LINE('',#1463,#659);
#561=LINE('',#1465,#660);
#562=LINE('',#1467,#661);
#563=LINE('',#1469,#662);
#564=LINE('',#1470,#663);
#565=VECTOR('',#994,1.);
#566=VECTOR('',#995,1.);
#567=VECTOR('',#996,1.);
#568=VECTOR('',#997,1.);
#569=VECTOR('',#1000,1.);
#570=VECTOR('',#1001,1.);
#571=VECTOR('',#1002,1.);
#572=VECTOR('',#1003,1.);
#573=VECTOR('',#1008,1.);
#574=VECTOR('',#1009,1.);
#575=VECTOR('',#1010,1.);
#576=VECTOR('',#1011,1.);
#577=VECTOR('',#1012,1.);
#578=VECTOR('',#1013,1.);
#579=VECTOR('',#1018,1.);
#580=VECTOR('',#1019,1.);
#581=VECTOR('',#1020,1.);
#582=VECTOR('',#1021,1.);
#583=VECTOR('',#1022,1.);
#584=VECTOR('',#1023,1.);
#585=VECTOR('',#1034,1.);
#586=VECTOR('',#1035,1.);
#587=VECTOR('',#1036,1.);
#588=VECTOR('',#1037,1.);
#589=VECTOR('',#1038,1.);
#590=VECTOR('',#1039,1.);
#591=VECTOR('',#1042,1.);
#592=VECTOR('',#1043,1.);
#593=VECTOR('',#1044,1.);
#594=VECTOR('',#1045,1.);
#595=VECTOR('',#1046,1.);
#596=VECTOR('',#1047,1.);
#597=VECTOR('',#1050,1.);
#598=VECTOR('',#1051,1.);
#599=VECTOR('',#1052,1.);
#600=VECTOR('',#1055,1.);
#601=VECTOR('',#1056,1.);
#602=VECTOR('',#1057,1.);
#603=VECTOR('',#1058,1.);
#604=VECTOR('',#1059,1.);
#605=VECTOR('',#1062,1.);
#606=VECTOR('',#1063,1.);
#607=VECTOR('',#1064,1.);
#608=VECTOR('',#1065,1.);
#609=VECTOR('',#1068,1.);
#610=VECTOR('',#1069,1.);
#611=VECTOR('',#1070,1.);
#612=VECTOR('',#1073,1.);
#613=VECTOR('',#1076,1.);
#614=VECTOR('',#1087,1.);
#615=VECTOR('',#1088,1.);
#616=VECTOR('',#1089,1.);
#617=VECTOR('',#1094,1.);
#618=VECTOR('',#1095,1.);
#619=VECTOR('',#1096,1.);
#620=VECTOR('',#1097,1.);
#621=VECTOR('',#1100,1.);
#622=VECTOR('',#1101,1.);
#623=VECTOR('',#1102,1.);
#624=VECTOR('',#1127,1.);
#625=VECTOR('',#1130,1.);
#626=VECTOR('',#1131,1.);
#627=VECTOR('',#1134,1.);
#628=VECTOR('',#1137,1.);
#629=VECTOR('',#1140,1.);
#630=VECTOR('',#1143,1.);
#631=VECTOR('',#1146,1.);
#632=VECTOR('',#1149,1.);
#633=VECTOR('',#1152,1.);
#634=VECTOR('',#1159,1.);
#635=VECTOR('',#1160,1.);
#636=VECTOR('',#1163,1.);
#637=VECTOR('',#1164,1.);
#638=VECTOR('',#1165,1.);
#639=VECTOR('',#1168,1.);
#640=VECTOR('',#1169,1.);
#641=VECTOR('',#1170,1.);
#642=VECTOR('',#1175,1.);
#643=VECTOR('',#1176,1.);
#644=VECTOR('',#1177,1.);
#645=VECTOR('',#1182,1.);
#646=VECTOR('',#1183,1.);
#647=VECTOR('',#1184,1.);
#648=VECTOR('',#1187,1.);
#649=VECTOR('',#1188,1.);
#650=VECTOR('',#1191,1.);
#651=VECTOR('',#1192,1.);
#652=VECTOR('',#1193,1.);
#653=VECTOR('',#1196,1.);
#654=VECTOR('',#1197,1.);
#655=VECTOR('',#1198,1.);
#656=VECTOR('',#1203,1.);
#657=VECTOR('',#1204,1.);
#658=VECTOR('',#1205,1.);
#659=VECTOR('',#1210,1.);
#660=VECTOR('',#1211,1.);
#661=VECTOR('',#1212,1.);
#662=VECTOR('',#1215,1.);
#663=VECTOR('',#1216,1.);
#664=EDGE_LOOP('',(#39,#40,#41,#42));
#665=EDGE_LOOP('',(#43,#44,#45,#46));
#666=EDGE_LOOP('',(#47));
#667=EDGE_LOOP('',(#48,#49,#50,#51,#52,#53));
#668=EDGE_LOOP('',(#54));
#669=EDGE_LOOP('',(#55));
#670=EDGE_LOOP('',(#56,#57,#58,#59,#60,#61,#62,#63));
#671=EDGE_LOOP('',(#64));
#672=EDGE_LOOP('',(#65));
#673=EDGE_LOOP('',(#66));
#674=EDGE_LOOP('',(#67));
#675=EDGE_LOOP('',(#68,#69,#70,#71,#72,#73));
#676=EDGE_LOOP('',(#74,#75,#76,#77,#78,#79,#80));
#677=EDGE_LOOP('',(#81,#82,#83,#84,#85,#86,#87));
#678=EDGE_LOOP('',(#88,#89,#90,#91,#92,#93,#94));
#679=EDGE_LOOP('',(#95,#96,#97,#98,#99,#100,#101));
#680=EDGE_LOOP('',(#102,#103,#104,#105));
#681=EDGE_LOOP('',(#106,#107,#108,#109,#110));
#682=EDGE_LOOP('',(#111,#112,#113,#114,#115,#116));
#683=EDGE_LOOP('',(#117,#118,#119,#120,#121));
#684=EDGE_LOOP('',(#122));
#685=EDGE_LOOP('',(#123));
#686=EDGE_LOOP('',(#124));
#687=EDGE_LOOP('',(#125,#126,#127,#128,#129,#130));
#688=EDGE_LOOP('',(#131));
#689=EDGE_LOOP('',(#132,#133,#134,#135));
#690=EDGE_LOOP('',(#136,#137,#138,#139));
#691=EDGE_LOOP('',(#140));
#692=EDGE_LOOP('',(#141));
#693=EDGE_LOOP('',(#142));
#694=EDGE_LOOP('',(#143));
#695=EDGE_LOOP('',(#144));
#696=EDGE_LOOP('',(#145));
#697=EDGE_LOOP('',(#146));
#698=EDGE_LOOP('',(#147));
#699=EDGE_LOOP('',(#148));
#700=EDGE_LOOP('',(#149));
#701=EDGE_LOOP('',(#150));
#702=EDGE_LOOP('',(#151));
#703=EDGE_LOOP('',(#152));
#704=EDGE_LOOP('',(#153));
#705=EDGE_LOOP('',(#154,#155,#156,#157));
#706=EDGE_LOOP('',(#158,#159,#160,#161));
#707=EDGE_LOOP('',(#162,#163,#164));
#708=EDGE_LOOP('',(#165,#166,#167));
#709=EDGE_LOOP('',(#168,#169,#170,#171));
#710=EDGE_LOOP('',(#172,#173,#174,#175));
#711=EDGE_LOOP('',(#176,#177,#178,#179));
#712=EDGE_LOOP('',(#180,#181,#182));
#713=EDGE_LOOP('',(#183,#184,#185));
#714=EDGE_LOOP('',(#186,#187,#188,#189));
#715=EDGE_LOOP('',(#190));
#716=EDGE_LOOP('',(#191,#192,#193,#194));
#717=EDGE_LOOP('',(#195,#196,#197,#198));
#718=EDGE_LOOP('',(#199,#200,#201,#202));
#719=EDGE_LOOP('',(#203));
#720=EDGE_LOOP('',(#204,#205,#206,#207,#208,#209));
#721=EDGE_LOOP('',(#210));
#722=EDGE_LOOP('',(#211,#212,#213,#214,#215,#216,#217,#218));
#723=EDGE_LOOP('',(#219,#220,#221,#222));
#724=EDGE_LOOP('',(#223,#224,#225,#226));
#725=EDGE_LOOP('',(#227,#228,#229,#230));
#726=EDGE_LOOP('',(#231));
#727=EDGE_LOOP('',(#232,#233,#234,#235,#236,#237));
#728=EDGE_LOOP('',(#238));
#729=EDGE_LOOP('',(#239,#240,#241,#242,#243,#244,#245,#246));
#730=EDGE_LOOP('',(#247,#248,#249,#250));
#731=EDGE_LOOP('',(#251,#252,#253,#254));
#732=EDGE_LOOP('',(#255,#256,#257,#258));
#733=EDGE_LOOP('',(#259,#260,#261,#262));
#734=EDGE_LOOP('',(#263,#264,#265,#266));
#735=EDGE_LOOP('',(#267));
#736=EDGE_LOOP('',(#268));
#737=EDGE_LOOP('',(#269));
#738=EDGE_LOOP('',(#270));
#739=FACE_BOUND('',#664,.T.);
#740=FACE_BOUND('',#665,.T.);
#741=FACE_BOUND('',#666,.T.);
#742=FACE_BOUND('',#667,.T.);
#743=FACE_BOUND('',#668,.T.);
#744=FACE_BOUND('',#669,.T.);
#745=FACE_BOUND('',#670,.T.);
#746=FACE_BOUND('',#671,.T.);
#747=FACE_BOUND('',#672,.T.);
#748=FACE_BOUND('',#673,.T.);
#749=FACE_BOUND('',#674,.T.);
#750=FACE_BOUND('',#675,.T.);
#751=FACE_BOUND('',#676,.T.);
#752=FACE_BOUND('',#677,.T.);
#753=FACE_BOUND('',#678,.T.);
#754=FACE_BOUND('',#679,.T.);
#755=FACE_BOUND('',#680,.T.);
#756=FACE_BOUND('',#681,.T.);
#757=FACE_BOUND('',#682,.T.);
#758=FACE_BOUND('',#683,.T.);
#759=FACE_BOUND('',#684,.T.);
#760=FACE_BOUND('',#685,.T.);
#761=FACE_BOUND('',#686,.T.);
#762=FACE_BOUND('',#687,.T.);
#763=FACE_BOUND('',#688,.T.);
#764=FACE_BOUND('',#689,.T.);
#765=FACE_BOUND('',#690,.T.);
#766=FACE_BOUND('',#691,.T.);
#767=FACE_BOUND('',#692,.T.);
#768=FACE_BOUND('',#693,.T.);
#769=FACE_BOUND('',#694,.T.);
#770=FACE_BOUND('',#695,.T.);
#771=FACE_BOUND('',#696,.T.);
#772=FACE_BOUND('',#697,.T.);
#773=FACE_BOUND('',#698,.T.);
#774=FACE_BOUND('',#699,.T.);
#775=FACE_BOUND('',#700,.T.);
#776=FACE_BOUND('',#701,.T.);
#777=FACE_BOUND('',#702,.T.);
#778=FACE_BOUND('',#703,.T.);
#779=FACE_BOUND('',#704,.T.);
#780=FACE_BOUND('',#705,.T.);
#781=FACE_BOUND('',#706,.T.);
#782=FACE_BOUND('',#707,.T.);
#783=FACE_BOUND('',#708,.T.);
#784=FACE_BOUND('',#709,.T.);
#785=FACE_BOUND('',#710,.T.);
#786=FACE_BOUND('',#711,.T.);
#787=FACE_BOUND('',#712,.T.);
#788=FACE_BOUND('',#713,.T.);
#789=FACE_BOUND('',#714,.T.);
#790=FACE_BOUND('',#715,.T.);
#791=FACE_BOUND('',#716,.T.);
#792=FACE_BOUND('',#717,.T.);
#793=FACE_BOUND('',#718,.T.);
#794=FACE_BOUND('',#719,.T.);
#795=FACE_BOUND('',#720,.T.);
#796=FACE_BOUND('',#721,.T.);
#797=FACE_BOUND('',#722,.T.);
#798=FACE_BOUND('',#723,.T.);
#799=FACE_BOUND('',#724,.T.);
#800=FACE_BOUND('',#725,.T.);
#801=FACE_BOUND('',#726,.T.);
#802=FACE_BOUND('',#727,.T.);
#803=FACE_BOUND('',#728,.T.);
#804=FACE_BOUND('',#729,.T.);
#805=FACE_BOUND('',#730,.T.);
#806=FACE_BOUND('',#731,.T.);
#807=FACE_BOUND('',#732,.T.);
#808=FACE_BOUND('',#733,.T.);
#809=FACE_BOUND('',#734,.T.);
#810=FACE_BOUND('',#735,.T.);
#811=FACE_BOUND('',#736,.T.);
#812=FACE_BOUND('',#737,.T.);
#813=FACE_BOUND('',#738,.T.);
#814=PLANE('',#921);
#815=PLANE('',#922);
#816=PLANE('',#923);
#817=PLANE('',#929);
#818=PLANE('',#932);
#819=PLANE('',#933);
#820=PLANE('',#934);
#821=PLANE('',#935);
#822=PLANE('',#936);
#823=PLANE('',#937);
#824=PLANE('',#938);
#825=PLANE('',#939);
#826=PLANE('',#943);
#827=PLANE('',#944);
#828=PLANE('',#946);
#829=PLANE('',#947);
#830=PLANE('',#958);
#831=PLANE('',#959);
#832=PLANE('',#960);
#833=PLANE('',#961);
#834=PLANE('',#962);
#835=PLANE('',#963);
#836=PLANE('',#964);
#837=PLANE('',#965);
#838=PLANE('',#966);
#839=PLANE('',#967);
#840=PLANE('',#968);
#841=PLANE('',#969);
#842=PLANE('',#970);
#843=PLANE('',#971);
#844=PLANE('',#972);
#845=PLANE('',#974);
#846=PLANE('',#976);
#847=PLANE('',#977);
#848=PLANE('',#978);
#849=PLANE('',#979);
#850=PLANE('',#981);
#851=PLANE('',#983);
#852=PLANE('',#984);
#853=PLANE('',#985);
#854=PLANE('',#986);
#855=PLANE('',#987);
#856=ADVANCED_FACE('',(#739),#814,.F.);
#857=ADVANCED_FACE('',(#740),#815,.T.);
#858=ADVANCED_FACE('',(#741,#742,#743,#744,#745),#816,.F.);
#859=ADVANCED_FACE('',(#746,#747),#15,.F.);
#860=ADVANCED_FACE('',(#748,#749,#750),#817,.T.);
#861=ADVANCED_FACE('',(#751),#818,.T.);
#862=ADVANCED_FACE('',(#752),#819,.F.);
#863=ADVANCED_FACE('',(#753),#820,.F.);
#864=ADVANCED_FACE('',(#754),#821,.F.);
#865=ADVANCED_FACE('',(#755),#822,.T.);
#866=ADVANCED_FACE('',(#756),#823,.F.);
#867=ADVANCED_FACE('',(#757),#824,.T.);
#868=ADVANCED_FACE('',(#758),#825,.T.);
#869=ADVANCED_FACE('',(#759,#760),#16,.F.);
#870=ADVANCED_FACE('',(#761,#762),#826,.T.);
#871=ADVANCED_FACE('',(#763,#764),#827,.F.);
#872=ADVANCED_FACE('',(#765),#828,.T.);
#873=ADVANCED_FACE('',(#766,#767),#829,.T.);
#874=ADVANCED_FACE('',(#768,#769),#17,.F.);
#875=ADVANCED_FACE('',(#770,#771),#18,.F.);
#876=ADVANCED_FACE('',(#772,#773),#19,.F.);
#877=ADVANCED_FACE('',(#774,#775),#12,.F.);
#878=ADVANCED_FACE('',(#776,#777),#13,.F.);
#879=ADVANCED_FACE('',(#778,#779),#14,.F.);
#880=ADVANCED_FACE('',(#780),#830,.F.);
#881=ADVANCED_FACE('',(#781),#831,.T.);
#882=ADVANCED_FACE('',(#782),#832,.T.);
#883=ADVANCED_FACE('',(#783),#833,.T.);
#884=ADVANCED_FACE('',(#784),#834,.F.);
#885=ADVANCED_FACE('',(#785),#835,.T.);
#886=ADVANCED_FACE('',(#786),#836,.T.);
#887=ADVANCED_FACE('',(#787),#837,.T.);
#888=ADVANCED_FACE('',(#788),#838,.T.);
#889=ADVANCED_FACE('',(#789),#839,.F.);
#890=ADVANCED_FACE('',(#790),#840,.F.);
#891=ADVANCED_FACE('',(#791),#841,.T.);
#892=ADVANCED_FACE('',(#792),#842,.T.);
#893=ADVANCED_FACE('',(#793),#843,.F.);
#894=ADVANCED_FACE('',(#794,#795),#844,.F.);
#895=ADVANCED_FACE('',(#796,#797),#845,.F.);
#896=ADVANCED_FACE('',(#798),#846,.T.);
#897=ADVANCED_FACE('',(#799),#847,.F.);
#898=ADVANCED_FACE('',(#800),#848,.T.);
#899=ADVANCED_FACE('',(#801,#802),#849,.T.);
#900=ADVANCED_FACE('',(#803,#804),#850,.F.);
#901=ADVANCED_FACE('',(#805),#851,.T.);
#902=ADVANCED_FACE('',(#806),#852,.T.);
#903=ADVANCED_FACE('',(#807),#853,.F.);
#904=ADVANCED_FACE('',(#808),#854,.F.);
#905=ADVANCED_FACE('',(#809),#855,.T.);
#906=ADVANCED_FACE('',(#810,#811),#20,.F.);
#907=ADVANCED_FACE('',(#812,#813),#21,.F.);
#908=CLOSED_SHELL('',(#856,#857,#858,#859,#860,#861,#862,#863,#864,#865,
#866,#867,#868,#869,#870,#871,#872,#873,#874,#875,#876,#877,#878,#879,#880,
#881,#882,#883,#884,#885,#886,#887,#888,#889,#890,#891,#892,#893,#894,#895,
#896,#897,#898,#899,#900,#901,#902,#903,#904,#905,#906,#907));
#909=STYLED_ITEM('',(#910),#917);
#910=PRESENTATION_STYLE_ASSIGNMENT((#911));
#911=SURFACE_STYLE_USAGE(.BOTH.,#912);
#912=SURFACE_SIDE_STYLE('',(#913));
#913=SURFACE_STYLE_FILL_AREA(#914);
#914=FILL_AREA_STYLE('',(#915));
#915=FILL_AREA_STYLE_COLOUR('',#916);
#916=COLOUR_RGB('',0.866666666666667,0.32156862745098,0.156862745098039);
#917=MANIFOLD_SOLID_BREP('TFL-Rod Mount',#908);
#918=SHAPE_DEFINITION_REPRESENTATION(#1483,#919);
#919=SHAPE_REPRESENTATION('TFL-Rod Mount',(#920),#1478);
#920=AXIS2_PLACEMENT_3D('',#1229,#990,#991);
#921=AXIS2_PLACEMENT_3D('',#1230,#992,#993);
#922=AXIS2_PLACEMENT_3D('',#1239,#998,#999);
#923=AXIS2_PLACEMENT_3D('',#1248,#1004,#1005);
#924=AXIS2_PLACEMENT_3D('',#1249,#1006,#1007);
#925=AXIS2_PLACEMENT_3D('',#1263,#1014,#1015);
#926=AXIS2_PLACEMENT_3D('',#1265,#1016,#1017);
#927=AXIS2_PLACEMENT_3D('',#1277,#1024,#1025);
#928=AXIS2_PLACEMENT_3D('',#1278,#1026,#1027);
#929=AXIS2_PLACEMENT_3D('',#1280,#1028,#1029);
#930=AXIS2_PLACEMENT_3D('',#1281,#1030,#1031);
#931=AXIS2_PLACEMENT_3D('',#1283,#1032,#1033);
#932=AXIS2_PLACEMENT_3D('',#1297,#1040,#1041);
#933=AXIS2_PLACEMENT_3D('',#1309,#1048,#1049);
#934=AXIS2_PLACEMENT_3D('',#1314,#1053,#1054);
#935=AXIS2_PLACEMENT_3D('',#1324,#1060,#1061);
#936=AXIS2_PLACEMENT_3D('',#1331,#1066,#1067);
#937=AXIS2_PLACEMENT_3D('',#1337,#1071,#1072);
#938=AXIS2_PLACEMENT_3D('',#1339,#1074,#1075);
#939=AXIS2_PLACEMENT_3D('',#1341,#1077,#1078);
#940=AXIS2_PLACEMENT_3D('',#1342,#1079,#1080);
#941=AXIS2_PLACEMENT_3D('',#1343,#1081,#1082);
#942=AXIS2_PLACEMENT_3D('',#1345,#1083,#1084);
#943=AXIS2_PLACEMENT_3D('',#1347,#1085,#1086);
#944=AXIS2_PLACEMENT_3D('',#1353,#1090,#1091);
#945=AXIS2_PLACEMENT_3D('',#1354,#1092,#1093);
#946=AXIS2_PLACEMENT_3D('',#1364,#1098,#1099);
#947=AXIS2_PLACEMENT_3D('',#1370,#1103,#1104);
#948=AXIS2_PLACEMENT_3D('',#1371,#1105,#1106);
#949=AXIS2_PLACEMENT_3D('',#1373,#1107,#1108);
#950=AXIS2_PLACEMENT_3D('',#1374,#1109,#1110);
#951=AXIS2_PLACEMENT_3D('',#1376,#1111,#1112);
#952=AXIS2_PLACEMENT_3D('',#1377,#1113,#1114);
#953=AXIS2_PLACEMENT_3D('',#1379,#1115,#1116);
#954=AXIS2_PLACEMENT_3D('',#1380,#1117,#1118);
#955=AXIS2_PLACEMENT_3D('',#1382,#1119,#1120);
#956=AXIS2_PLACEMENT_3D('',#1383,#1121,#1122);
#957=AXIS2_PLACEMENT_3D('',#1384,#1123,#1124);
#958=AXIS2_PLACEMENT_3D('',#1385,#1125,#1126);
#959=AXIS2_PLACEMENT_3D('',#1387,#1128,#1129);
#960=AXIS2_PLACEMENT_3D('',#1390,#1132,#1133);
#961=AXIS2_PLACEMENT_3D('',#1392,#1135,#1136);
#962=AXIS2_PLACEMENT_3D('',#1394,#1138,#1139);
#963=AXIS2_PLACEMENT_3D('',#1396,#1141,#1142);
#964=AXIS2_PLACEMENT_3D('',#1398,#1144,#1145);
#965=AXIS2_PLACEMENT_3D('',#1400,#1147,#1148);
#966=AXIS2_PLACEMENT_3D('',#1402,#1150,#1151);
#967=AXIS2_PLACEMENT_3D('',#1404,#1153,#1154);
#968=AXIS2_PLACEMENT_3D('',#1405,#1155,#1156);
#969=AXIS2_PLACEMENT_3D('',#1406,#1157,#1158);
#970=AXIS2_PLACEMENT_3D('',#1409,#1161,#1162);
#971=AXIS2_PLACEMENT_3D('',#1415,#1166,#1167);
#972=AXIS2_PLACEMENT_3D('',#1421,#1171,#1172);
#973=AXIS2_PLACEMENT_3D('',#1422,#1173,#1174);
#974=AXIS2_PLACEMENT_3D('',#1429,#1178,#1179);
#975=AXIS2_PLACEMENT_3D('',#1430,#1180,#1181);
#976=AXIS2_PLACEMENT_3D('',#1437,#1185,#1186);
#977=AXIS2_PLACEMENT_3D('',#1440,#1189,#1190);
#978=AXIS2_PLACEMENT_3D('',#1446,#1194,#1195);
#979=AXIS2_PLACEMENT_3D('',#1452,#1199,#1200);
#980=AXIS2_PLACEMENT_3D('',#1453,#1201,#1202);
#981=AXIS2_PLACEMENT_3D('',#1460,#1206,#1207);
#982=AXIS2_PLACEMENT_3D('',#1461,#1208,#1209);
#983=AXIS2_PLACEMENT_3D('',#1468,#1213,#1214);
#984=AXIS2_PLACEMENT_3D('',#1471,#1217,#1218);
#985=AXIS2_PLACEMENT_3D('',#1472,#1219,#1220);
#986=AXIS2_PLACEMENT_3D('',#1473,#1221,#1222);
#987=AXIS2_PLACEMENT_3D('',#1474,#1223,#1224);
#988=AXIS2_PLACEMENT_3D('',#1475,#1225,#1226);
#989=AXIS2_PLACEMENT_3D('',#1476,#1227,#1228);
#990=DIRECTION('',(0.,0.,1.));
#991=DIRECTION('',(1.,0.,0.));
#992=DIRECTION('',(-1.,0.,0.));
#993=DIRECTION('',(0.,0.,1.));
#994=DIRECTION('',(0.,-1.,0.));
#995=DIRECTION('',(0.,0.,1.));
#996=DIRECTION('',(0.,-1.,0.));
#997=DIRECTION('',(0.,0.,1.));
#998=DIRECTION('',(-1.,0.,0.));
#999=DIRECTION('',(0.,0.,1.));
#1000=DIRECTION('',(0.,0.,1.));
#1001=DIRECTION('',(0.,-1.,0.));
#1002=DIRECTION('',(0.,0.,1.));
#1003=DIRECTION('',(0.,-1.,0.));
#1004=DIRECTION('',(0.,-1.,0.));
#1005=DIRECTION('',(0.,0.,-1.));
#1006=DIRECTION('',(0.,-1.,0.));
#1007=DIRECTION('',(0.,0.,-1.));
#1008=DIRECTION('',(0.,0.,-1.));
#1009=DIRECTION('',(-1.,0.,0.));
#1010=DIRECTION('',(1.,0.,0.));
#1011=DIRECTION('',(0.,0.,1.));
#1012=DIRECTION('',(1.,0.,0.));
#1013=DIRECTION('',(1.,0.,0.));
#1014=DIRECTION('',(0.,-1.,0.));
#1015=DIRECTION('',(0.,0.,-1.));
#1016=DIRECTION('',(0.,-1.,0.));
#1017=DIRECTION('',(0.,0.,-1.));
#1018=DIRECTION('',(1.,0.,0.));
#1019=DIRECTION('',(0.,0.,1.));
#1020=DIRECTION('',(0.,0.,1.));
#1021=DIRECTION('',(1.,0.,0.));
#1022=DIRECTION('',(0.,0.,1.));
#1023=DIRECTION('',(0.,0.,1.));
#1024=DIRECTION('',(0.,-1.,0.));
#1025=DIRECTION('',(0.,0.,-1.));
#1026=DIRECTION('',(0.,-1.,0.));
#1027=DIRECTION('',(0.,0.,-1.));
#1028=DIRECTION('',(0.,-1.,0.));
#1029=DIRECTION('',(0.,0.,-1.));
#1030=DIRECTION('',(0.,-1.,0.));
#1031=DIRECTION('',(0.,0.,-1.));
#1032=DIRECTION('',(0.,-1.,0.));
#1033=DIRECTION('',(0.,0.,-1.));
#1034=DIRECTION('',(0.,0.,-1.));
#1035=DIRECTION('',(0.707106781186544,0.,-0.707106781186551));
#1036=DIRECTION('',(1.,0.,0.));
#1037=DIRECTION('',(0.,0.,-1.));
#1038=DIRECTION('',(1.,0.,0.));
#1039=DIRECTION('',(0.707106781186548,0.,0.707106781186548));
#1040=DIRECTION('',(0.,0.,1.));
#1041=DIRECTION('',(1.,0.,0.));
#1042=DIRECTION('',(0.,-1.,0.));
#1043=DIRECTION('',(1.,0.,0.));
#1044=DIRECTION('',(0.,1.,0.));
#1045=DIRECTION('',(-1.,0.,0.));
#1046=DIRECTION('',(1.,0.,0.));
#1047=DIRECTION('',(0.,-1.,0.));
#1048=DIRECTION('',(0.,-0.707106781186548,-0.707106781186548));
#1049=DIRECTION('',(0.,0.707106781186548,-0.707106781186548));
#1050=DIRECTION('',(-0.577350269189622,-0.577350269189628,0.577350269189628));
#1051=DIRECTION('',(-0.577350269189626,0.577350269189626,-0.577350269189626));
#1052=DIRECTION('',(0.,-0.707106781186548,0.707106781186548));
#1053=DIRECTION('',(0.,-0.707106781186548,0.707106781186548));
#1054=DIRECTION('',(0.,-0.707106781186548,-0.707106781186548));
#1055=DIRECTION('',(1.,0.,0.));
#1056=DIRECTION('',(-0.577350269189622,0.577350269189628,0.577350269189628));
#1057=DIRECTION('',(0.577350269189622,0.577350269189628,0.577350269189628));
#1058=DIRECTION('',(0.,-0.707106781186548,-0.707106781186548));
#1059=DIRECTION('',(1.,0.,0.));
#1060=DIRECTION('',(0.,0.,1.));
#1061=DIRECTION('',(1.,0.,0.));
#1062=DIRECTION('',(0.,-1.,0.));
#1063=DIRECTION('',(-1.,0.,0.));
#1064=DIRECTION('',(0.,-1.,0.));
#1065=DIRECTION('',(0.,1.,0.));
#1066=DIRECTION('',(-1.,0.,0.));
#1067=DIRECTION('',(0.,-1.,0.));
#1068=DIRECTION('',(0.,0.,-1.));
#1069=DIRECTION('',(0.,-1.,0.));
#1070=DIRECTION('',(0.,1.,0.));
#1071=DIRECTION('',(0.707106781186548,0.,-0.707106781186548));
#1072=DIRECTION('',(0.,-1.,0.));
#1073=DIRECTION('',(-0.577350269189624,-0.577350269189629,-0.577350269189624));
#1074=DIRECTION('',(-0.707106781186551,0.707106781186544,0.));
#1075=DIRECTION('',(0.,0.,1.));
#1076=DIRECTION('',(0.577350269189622,0.577350269189628,-0.577350269189628));
#1077=DIRECTION('',(-0.707106781186551,0.,-0.707106781186544));
#1078=DIRECTION('',(0.,1.,0.));
#1079=DIRECTION('',(-1.,0.,0.));
#1080=DIRECTION('',(0.,0.,1.));
#1081=DIRECTION('',(-1.,0.,0.));
#1082=DIRECTION('',(0.,0.,1.));
#1083=DIRECTION('',(1.,0.,0.));
#1084=DIRECTION('',(0.,0.,-1.));
#1085=DIRECTION('',(-1.,0.,0.));
#1086=DIRECTION('',(0.,0.,1.));
#1087=DIRECTION('',(0.,-0.707106781186548,0.707106781186548));
#1088=DIRECTION('',(0.,0.,-1.));
#1089=DIRECTION('',(0.,-0.707106781186548,-0.707106781186548));
#1090=DIRECTION('',(-1.,0.,0.));
#1091=DIRECTION('',(0.,0.,1.));
#1092=DIRECTION('',(-1.,0.,0.));
#1093=DIRECTION('',(0.,0.,1.));
#1094=DIRECTION('',(0.,-1.,0.));
#1095=DIRECTION('',(0.,0.,-1.));
#1096=DIRECTION('',(0.,1.,0.));
#1097=DIRECTION('',(0.,0.,1.));
#1098=DIRECTION('',(0.,-1.,0.));
#1099=DIRECTION('',(1.,0.,0.));
#1100=DIRECTION('',(1.,0.,0.));
#1101=DIRECTION('',(0.,0.,1.));
#1102=DIRECTION('',(-1.,0.,0.));
#1103=DIRECTION('',(1.,0.,0.));
#1104=DIRECTION('',(0.,1.,0.));
#1105=DIRECTION('',(1.,0.,0.));
#1106=DIRECTION('',(0.,0.,-1.));
#1107=DIRECTION('',(1.,0.,0.));
#1108=DIRECTION('',(0.,0.,-1.));
#1109=DIRECTION('',(-1.,0.,0.));
#1110=DIRECTION('',(0.,0.,1.));
#1111=DIRECTION('',(0.,1.,0.));
#1112=DIRECTION('',(0.,0.,1.));
#1113=DIRECTION('',(0.,-1.,0.));
#1114=DIRECTION('',(0.,0.,-1.));
#1115=DIRECTION('',(0.,1.,0.));
#1116=DIRECTION('',(0.,0.,1.));
#1117=DIRECTION('',(0.,-1.,0.));
#1118=DIRECTION('',(0.,0.,-1.));
#1119=DIRECTION('',(0.,1.,0.));
#1120=DIRECTION('',(0.,0.,1.));
#1121=DIRECTION('',(0.,1.,0.));
#1122=DIRECTION('',(0.,0.,1.));
#1123=DIRECTION('',(1.,0.,0.));
#1124=DIRECTION('',(0.,0.,-1.));
#1125=DIRECTION('',(0.,0.707106781186548,-0.707106781186548));
#1126=DIRECTION('',(1.,0.,0.));
#1127=DIRECTION('',(0.,0.707106781186548,0.707106781186548));
#1128=DIRECTION('',(0.707106781186548,0.,0.707106781186548));
#1129=DIRECTION('',(0.,1.,0.));
#1130=DIRECTION('',(0.707106781186548,0.,-0.707106781186548));
#1131=DIRECTION('',(-0.707106781186548,0.,0.707106781186548));
#1132=DIRECTION('',(0.577350269189626,0.577350269189626,0.577350269189626));
#1133=DIRECTION('',(0.707106781186548,0.,-0.707106781186548));
#1134=DIRECTION('',(0.707106781186548,-0.707106781186548,0.));
#1135=DIRECTION('',(0.577350269189626,-0.577350269189626,0.577350269189626));
#1136=DIRECTION('',(0.707106781186548,0.,-0.707106781186548));
#1137=DIRECTION('',(0.707106781186548,0.707106781186548,0.));
#1138=DIRECTION('',(-0.707106781186548,-0.707106781186548,0.));
#1139=DIRECTION('',(0.,0.,-1.));
#1140=DIRECTION('',(-0.707106781186548,0.707106781186548,0.));
#1141=DIRECTION('',(0.,-0.707106781186548,-0.707106781186548));
#1142=DIRECTION('',(-1.,0.,0.));
#1143=DIRECTION('',(0.,0.707106781186548,-0.707106781186548));
#1144=DIRECTION('',(0.707106781186548,-0.707106781186548,0.));
#1145=DIRECTION('',(0.,0.,1.));
#1146=DIRECTION('',(-0.707106781186548,-0.707106781186548,0.));
#1147=DIRECTION('',(0.577350269189626,0.577350269189626,-0.577350269189626));
#1148=DIRECTION('',(-0.707106781186548,0.,-0.707106781186548));
#1149=DIRECTION('',(0.707106781186548,0.,0.707106781186548));
#1150=DIRECTION('',(0.577350269189626,-0.577350269189626,-0.577350269189626));
#1151=DIRECTION('',(-0.707106781186548,0.,-0.707106781186548));
#1152=DIRECTION('',(-0.707106781186548,0.,-0.707106781186548));
#1153=DIRECTION('',(-0.707106781186548,0.,0.707106781186548));
#1154=DIRECTION('',(0.,-1.,0.));
#1155=DIRECTION('',(0.,-1.,0.));
#1156=DIRECTION('',(1.,0.,0.));
#1157=DIRECTION('',(0.,1.,0.));
#1158=DIRECTION('',(-1.,0.,0.));
#1159=DIRECTION('',(1.,0.,0.));
#1160=DIRECTION('',(-1.,0.,0.));
#1161=DIRECTION('',(1.,0.,0.));
#1162=DIRECTION('',(0.,0.,-1.));
#1163=DIRECTION('',(0.,-1.,0.));
#1164=DIRECTION('',(0.,0.,1.));
#1165=DIRECTION('',(0.,-1.,0.));
#1166=DIRECTION('',(1.,0.,0.));
#1167=DIRECTION('',(0.,0.,-1.));
#1168=DIRECTION('',(0.,-1.,0.));
#1169=DIRECTION('',(0.,0.,-1.));
#1170=DIRECTION('',(0.,-1.,0.));
#1171=DIRECTION('',(0.,0.,-1.));
#1172=DIRECTION('',(-1.,0.,0.));
#1173=DIRECTION('',(0.,0.,-1.));
#1174=DIRECTION('',(-1.,0.,0.));
#1175=DIRECTION('',(1.,0.,0.));
#1176=DIRECTION('',(-0.707106781186548,-0.707106781186548,0.));
#1177=DIRECTION('',(0.707106781186548,-0.707106781186548,0.));
#1178=DIRECTION('',(0.,0.,1.));
#1179=DIRECTION('',(1.,0.,0.));
#1180=DIRECTION('',(0.,0.,1.));
#1181=DIRECTION('',(1.,0.,0.));
#1182=DIRECTION('',(0.707106781186548,0.707106781186548,0.));
#1183=DIRECTION('',(-1.,0.,0.));
#1184=DIRECTION('',(-0.707106781186548,0.707106781186548,0.));
#1185=DIRECTION('',(0.,1.,0.));
#1186=DIRECTION('',(-1.,0.,0.));
#1187=DIRECTION('',(0.,0.,1.));
#1188=DIRECTION('',(0.,0.,-1.));
#1189=DIRECTION('',(1.,0.,0.));
#1190=DIRECTION('',(0.,0.,-1.));
#1191=DIRECTION('',(0.,-1.,0.));
#1192=DIRECTION('',(0.,0.,-1.));
#1193=DIRECTION('',(0.,-1.,0.));
#1194=DIRECTION('',(1.,0.,0.));
#1195=DIRECTION('',(0.,0.,-1.));
#1196=DIRECTION('',(0.,-1.,0.));
#1197=DIRECTION('',(0.,0.,1.));
#1198=DIRECTION('',(0.,-1.,0.));
#1199=DIRECTION('',(0.,0.,-1.));
#1200=DIRECTION('',(-1.,0.,0.));
#1201=DIRECTION('',(0.,0.,-1.));
#1202=DIRECTION('',(-1.,0.,0.));
#1203=DIRECTION('',(1.,0.,0.));
#1204=DIRECTION('',(-0.707106781186548,0.707106781186548,0.));
#1205=DIRECTION('',(0.707106781186548,0.707106781186548,0.));
#1206=DIRECTION('',(0.,0.,-1.));
#1207=DIRECTION('',(-1.,0.,0.));
#1208=DIRECTION('',(0.,0.,-1.));
#1209=DIRECTION('',(-1.,0.,0.));
#1210=DIRECTION('',(0.707106781186548,-0.707106781186548,0.));
#1211=DIRECTION('',(1.,0.,0.));
#1212=DIRECTION('',(-0.707106781186548,-0.707106781186548,0.));
#1213=DIRECTION('',(0.,1.,0.));
#1214=DIRECTION('',(-1.,0.,0.));
#1215=DIRECTION('',(0.,0.,-1.));
#1216=DIRECTION('',(0.,0.,1.));
#1217=DIRECTION('',(-0.707106781186548,0.707106781186548,0.));
#1218=DIRECTION('',(0.,0.,-1.));
#1219=DIRECTION('',(-0.707106781186548,-0.707106781186548,0.));
#1220=DIRECTION('',(0.,0.,1.));
#1221=DIRECTION('',(-0.707106781186548,-0.707106781186548,0.));
#1222=DIRECTION('',(0.,0.,1.));
#1223=DIRECTION('',(-0.707106781186548,0.707106781186548,0.));
#1224=DIRECTION('',(0.,0.,-1.));
#1225=DIRECTION('',(0.,0.,-1.));
#1226=DIRECTION('',(-1.,0.,0.));
#1227=DIRECTION('',(0.,0.,-1.));
#1228=DIRECTION('',(-1.,0.,0.));
#1229=CARTESIAN_POINT('',(0.,0.,0.));
#1230=CARTESIAN_POINT('',(-0.154236132310247,-0.1831,0.380006029657602));
#1231=CARTESIAN_POINT('',(-0.154236132310247,-0.1681,0.375506029657602));
#1232=CARTESIAN_POINT('',(-0.154236132310247,-0.1815,0.375506029657602));
#1233=CARTESIAN_POINT('',(-0.154236132310247,-0.1831,0.375506029657602));
#1234=CARTESIAN_POINT('',(-0.154236132310247,-0.1815,0.380006029657602));
#1235=CARTESIAN_POINT('',(-0.154236132310247,-0.1815,0.384506029657602));
#1236=CARTESIAN_POINT('',(-0.154236132310247,-0.1681,0.384506029657602));
#1237=CARTESIAN_POINT('',(-0.154236132310247,-0.1831,0.384506029657602));
#1238=CARTESIAN_POINT('',(-0.154236132310247,-0.1831,0.380006029657602));
#1239=CARTESIAN_POINT('',(-0.137236132310247,-0.1831,0.380006029657602));
#1240=CARTESIAN_POINT('',(-0.137236132310247,-0.1815,0.380006029657602));
#1241=CARTESIAN_POINT('',(-0.137236132310247,-0.1815,0.375506029657602));
#1242=CARTESIAN_POINT('',(-0.137236132310247,-0.1815,0.384506029657602));
#1243=CARTESIAN_POINT('',(-0.137236132310247,-0.1681,0.375506029657602));
#1244=CARTESIAN_POINT('',(-0.137236132310247,-0.1831,0.375506029657602));
#1245=CARTESIAN_POINT('',(-0.137236132310247,-0.1831,0.380006029657602));
#1246=CARTESIAN_POINT('',(-0.137236132310247,-0.1831,0.384506029657602));
#1247=CARTESIAN_POINT('',(-0.137236132310247,-0.1681,0.384506029657602));
#1248=CARTESIAN_POINT('',(-0.182736132310247,-0.1815,0.398756029657602));
#1249=CARTESIAN_POINT('',(-0.146789642517814,-0.1815,0.400052546262741));
#1250=CARTESIAN_POINT('',(-0.146789642517814,-0.1815,0.389552546262741));
#1251=CARTESIAN_POINT('',(-0.130736132310247,-0.1815,0.398756029657602));
#1252=CARTESIAN_POINT('',(-0.130736132310247,-0.1815,0.436756029657602));
#1253=CARTESIAN_POINT('',(-0.130736132310247,-0.1815,0.360756029657602));
#1254=CARTESIAN_POINT('',(-0.182736132310247,-0.1815,0.360756029657602));
#1255=CARTESIAN_POINT('',(-0.162736132310247,-0.1815,0.360756029657602));
#1256=CARTESIAN_POINT('',(-0.182736132310247,-0.1815,0.360756029657602));
#1257=CARTESIAN_POINT('',(-0.179736132310247,-0.1815,0.360756029657602));
#1258=CARTESIAN_POINT('',(-0.179736132310247,-0.1815,0.436756029657602));
#1259=CARTESIAN_POINT('',(-0.179736132310247,-0.1815,0.436756029657602));
#1260=CARTESIAN_POINT('',(-0.182736132310247,-0.1815,0.436756029657602));
#1261=CARTESIAN_POINT('',(-0.162736132310247,-0.1815,0.436756029657602));
#1262=CARTESIAN_POINT('',(-0.127736132310247,-0.1815,0.436756029657602));
#1263=CARTESIAN_POINT('',(-0.172789642517814,-0.1815,0.431552546262741));
#1264=CARTESIAN_POINT('',(-0.172789642517814,-0.1815,0.427052546262741));
#1265=CARTESIAN_POINT('',(-0.172789642517814,-0.1815,0.386552546262741));
#1266=CARTESIAN_POINT('',(-0.172789642517814,-0.1815,0.382052546262741));
#1267=CARTESIAN_POINT('',(-0.145736132310247,-0.1815,0.373006029657602));
#1268=CARTESIAN_POINT('',(-0.154236132310247,-0.1815,0.373006029657602));
#1269=CARTESIAN_POINT('',(-0.137236132310247,-0.1815,0.373006029657602));
#1270=CARTESIAN_POINT('',(-0.137236132310247,-0.1815,0.380006029657602));
#1271=CARTESIAN_POINT('',(-0.137236132310247,-0.1815,0.380006029657602));
#1272=CARTESIAN_POINT('',(-0.137236132310247,-0.1815,0.387006029657602));
#1273=CARTESIAN_POINT('',(-0.145736132310247,-0.1815,0.387006029657602));
#1274=CARTESIAN_POINT('',(-0.154236132310247,-0.1815,0.387006029657602));
#1275=CARTESIAN_POINT('',(-0.154236132310247,-0.1815,0.380006029657602));
#1276=CARTESIAN_POINT('',(-0.154236132310247,-0.1815,0.380006029657602));
#1277=CARTESIAN_POINT('',(-0.146789642517814,-0.1815,0.400052546262741));
#1278=CARTESIAN_POINT('',(-0.146789642517814,-0.2055,0.400052546262741));
#1279=CARTESIAN_POINT('',(-0.146789642517814,-0.2055,0.389552546262741));
#1280=CARTESIAN_POINT('',(-0.182736132310247,-0.188390007992223,0.398756029657602));
#1281=CARTESIAN_POINT('',(-0.172789642517814,-0.188390007992223,0.431552546262741));
#1282=CARTESIAN_POINT('',(-0.172789642517814,-0.188390007992223,0.429052546262741));
#1283=CARTESIAN_POINT('',(-0.172789642517814,-0.188390007992223,0.386552546262741));
#1284=CARTESIAN_POINT('',(-0.172789642517814,-0.188390007992223,0.384052546262741));
#1285=CARTESIAN_POINT('',(-0.182736132310247,-0.188390007992223,0.398756029657602));
#1286=CARTESIAN_POINT('',(-0.182736132310247,-0.188390007992223,0.436756029657602));
#1287=CARTESIAN_POINT('',(-0.182736132310247,-0.188390007992223,0.360756029657602));
#1288=CARTESIAN_POINT('',(-0.201736132310247,-0.188390007992223,0.379756029657602));
#1289=CARTESIAN_POINT('',(-0.179736132310247,-0.188390007992223,0.357756029657602));
#1290=CARTESIAN_POINT('',(-0.182736132310247,-0.188390007992223,0.357756029657602));
#1291=CARTESIAN_POINT('',(-0.162736132310247,-0.188390007992223,0.357756029657602));
#1292=CARTESIAN_POINT('',(-0.162736132310247,-0.188390007992223,0.398756029657602));
#1293=CARTESIAN_POINT('',(-0.162736132310247,-0.188390007992223,0.439756029657602));
#1294=CARTESIAN_POINT('',(-0.182736132310247,-0.188390007992223,0.439756029657602));
#1295=CARTESIAN_POINT('',(-0.179736132310247,-0.188390007992223,0.439756029657602));
#1296=CARTESIAN_POINT('',(-0.201736132310247,-0.188390007992223,0.417756029657602));
#1297=CARTESIAN_POINT('',(-0.182736132310247,-0.1815,0.439756029657602));
#1298=CARTESIAN_POINT('',(-0.162736132310247,-0.1815,0.439756029657602));
#1299=CARTESIAN_POINT('',(-0.162736132310247,-0.2055,0.439756029657602));
#1300=CARTESIAN_POINT('',(-0.182736132310247,-0.2055,0.439756029657602));
#1301=CARTESIAN_POINT('',(-0.130736132310247,-0.2055,0.439756029657602));
#1302=CARTESIAN_POINT('',(-0.130736132310247,-0.1815,0.439756029657602));
#1303=CARTESIAN_POINT('',(-0.130736132310247,-0.1845,0.439756029657602));
#1304=CARTESIAN_POINT('',(-0.162736132310247,-0.1845,0.439756029657602));
#1305=CARTESIAN_POINT('',(-0.162736132310247,-0.1845,0.439756029657602));
#1306=CARTESIAN_POINT('',(-0.182736132310247,-0.1845,0.439756029657602));
#1307=CARTESIAN_POINT('',(-0.179736132310247,-0.1845,0.439756029657602));
#1308=CARTESIAN_POINT('',(-0.179736132310247,-0.1815,0.439756029657602));
#1309=CARTESIAN_POINT('',(-0.182736132310247,-0.183,0.438256029657602));
#1310=CARTESIAN_POINT('',(-0.169027798976914,-0.170791666666667,0.426047696324268));
#1311=CARTESIAN_POINT('',(-0.181236132310247,-0.183,0.438256029657602));
#1312=CARTESIAN_POINT('',(-0.180736132310247,-0.1835,0.438756029657602));
#1313=CARTESIAN_POINT('',(-0.130736132310247,-0.1845,0.439756029657602));
#1314=CARTESIAN_POINT('',(-0.182736132310247,-0.183,0.359256029657602));
#1315=CARTESIAN_POINT('',(-0.182736132310247,-0.1845,0.357756029657602));
#1316=CARTESIAN_POINT('',(-0.179736132310247,-0.1845,0.357756029657602));
#1317=CARTESIAN_POINT('',(-0.162736132310247,-0.1845,0.357756029657602));
#1318=CARTESIAN_POINT('',(-0.253736369957454,-0.110499762352793,0.431756267304809));
#1319=CARTESIAN_POINT('',(-0.181236132310247,-0.183,0.359256029657602));
#1320=CARTESIAN_POINT('',(-0.169111132310247,-0.170875,0.371381029657602));
#1321=CARTESIAN_POINT('',(-0.130736132310247,-0.183,0.359256029657602));
#1322=CARTESIAN_POINT('',(-0.130736132310247,-0.1845,0.357756029657602));
#1323=CARTESIAN_POINT('',(-0.182736132310247,-0.1845,0.357756029657602));
#1324=CARTESIAN_POINT('',(-0.182736132310247,-0.1815,0.357756029657602));
#1325=CARTESIAN_POINT('',(-0.130736132310247,-0.1815,0.357756029657602));
#1326=CARTESIAN_POINT('',(-0.130736132310247,-0.2055,0.357756029657602));
#1327=CARTESIAN_POINT('',(-0.162736132310247,-0.2055,0.357756029657602));
#1328=CARTESIAN_POINT('',(-0.162736132310247,-0.2055,0.357756029657602));
#1329=CARTESIAN_POINT('',(-0.162736132310247,-0.1815,0.357756029657602));
#1330=CARTESIAN_POINT('',(-0.179736132310247,-0.1845,0.357756029657602));
#1331=CARTESIAN_POINT('',(-0.182736132310247,0.03150071294162,0.398631029657602));
#1332=CARTESIAN_POINT('',(-0.182736132310247,-0.1845,0.360756029657602));
#1333=CARTESIAN_POINT('',(-0.182736132310247,-0.1845,0.436756029657602));
#1334=CARTESIAN_POINT('',(-0.182736132310247,-0.1845,0.360756029657602));
#1335=CARTESIAN_POINT('',(-0.182736132310247,-0.188390007992223,0.360756029657602));
#1336=CARTESIAN_POINT('',(-0.182736132310247,0.03150071294162,0.436756029657602));
#1337=CARTESIAN_POINT('',(-0.179736132310247,-0.1815,0.439756029657602));
#1338=CARTESIAN_POINT('',(-0.19544446564358,-0.197208333333334,0.424047696324269));
#1339=CARTESIAN_POINT('',(-0.182736132310247,-0.1845,0.398631029657602));
#1340=CARTESIAN_POINT('',(-0.11073589466304,-0.112499762352793,0.288755792010395));
#1341=CARTESIAN_POINT('',(-0.182736132310247,0.03150071294162,0.360756029657602));
#1342=CARTESIAN_POINT('',(0.674184032928131,-0.19838858210906,0.382506029657602));
#1343=CARTESIAN_POINT('',(-0.162736132310247,-0.19838858210906,0.382506029657602));
#1344=CARTESIAN_POINT('',(-0.162736132310247,-0.19838858210906,0.385006029657602));
#1345=CARTESIAN_POINT('',(-0.157789642517813,-0.19838858210906,0.382506029657602));
#1346=CARTESIAN_POINT('',(-0.157789642517813,-0.19838858210906,0.380006029657602));
#1347=CARTESIAN_POINT('',(-0.162736132310247,-0.1815,0.398756029657602));
#1348=CARTESIAN_POINT('',(-0.162736132310247,-0.214,0.366256029657602));
#1349=CARTESIAN_POINT('',(-0.162736132310247,-0.2085,0.360756029657602));
#1350=CARTESIAN_POINT('',(-0.162736132310247,-0.2085,0.398756029657602));
#1351=CARTESIAN_POINT('',(-0.162736132310247,-0.2085,0.436756029657602));
#1352=CARTESIAN_POINT('',(-0.162736132310247,-0.214,0.431256029657602));
#1353=CARTESIAN_POINT('',(-0.127736132310247,-0.1815,0.398756029657602));
#1354=CARTESIAN_POINT('',(-0.127736132310247,-0.19838858210906,0.382506029657602));
#1355=CARTESIAN_POINT('',(-0.127736132310247,-0.19838858210906,0.389506029657602));
#1356=CARTESIAN_POINT('',(-0.127736132310247,-0.2085,0.436756029657602));
#1357=CARTESIAN_POINT('',(-0.127736132310247,-0.1845,0.436756029657602));
#1358=CARTESIAN_POINT('',(-0.127736132310247,-0.2055,0.436756029657602));
#1359=CARTESIAN_POINT('',(-0.127736132310247,-0.2055,0.357756029657602));
#1360=CARTESIAN_POINT('',(-0.127736132310247,-0.2055,0.360756029657602));
#1361=CARTESIAN_POINT('',(-0.127736132310247,-0.1815,0.360756029657602));
#1362=CARTESIAN_POINT('',(-0.127736132310247,-0.1845,0.360756029657602));
#1363=CARTESIAN_POINT('',(-0.127736132310247,-0.1845,0.398756029657602));
#1364=CARTESIAN_POINT('',(0.040288696047054,-0.2085,0.398756029657602));
#1365=CARTESIAN_POINT('',(-0.127736132310247,-0.2085,0.360756029657602));
#1366=CARTESIAN_POINT('',(-0.130736132310247,-0.2085,0.360756029657602));
#1367=CARTESIAN_POINT('',(-0.130736132310247,-0.2085,0.439756029657602));
#1368=CARTESIAN_POINT('',(-0.130736132310247,-0.2085,0.436756029657602));
#1369=CARTESIAN_POINT('',(0.040288696047054,-0.2085,0.436756029657602));
#1370=CARTESIAN_POINT('',(-0.157789642517813,0.0445557089454698,0.398506029657602));
#1371=CARTESIAN_POINT('',(-0.157789642517813,-0.19838858210906,0.382506029657602));
#1372=CARTESIAN_POINT('',(-0.157789642517813,-0.19838858210906,0.378506029657602));
#1373=CARTESIAN_POINT('',(-0.157789642517813,-0.19838858210906,0.382506029657602));
#1374=CARTESIAN_POINT('',(-0.130736132310247,-0.19838858210906,0.382506029657602));
#1375=CARTESIAN_POINT('',(-0.130736132310247,-0.19838858210906,0.386506029657602));
#1376=CARTESIAN_POINT('',(-0.172789642517814,-0.565856028364463,0.386552546262741));
#1377=CARTESIAN_POINT('',(-0.172789642517814,-0.1835,0.386552546262741));
#1378=CARTESIAN_POINT('',(-0.172789642517814,-0.1835,0.384052546262741));
#1379=CARTESIAN_POINT('',(-0.172789642517814,-0.565856028364463,0.431552546262741));
#1380=CARTESIAN_POINT('',(-0.172789642517814,-0.1835,0.431552546262741));
#1381=CARTESIAN_POINT('',(-0.172789642517814,-0.1835,0.429052546262741));
#1382=CARTESIAN_POINT('',(-0.172789642517814,-0.1815,0.386552546262741));
#1383=CARTESIAN_POINT('',(-0.172789642517814,-0.1815,0.431552546262741));
#1384=CARTESIAN_POINT('',(-0.130736132310247,-0.19838858210906,0.382506029657602));
#1385=CARTESIAN_POINT('',(-0.182736132310247,-0.2055,0.439756029657602));
#1386=CARTESIAN_POINT('',(-0.130736132310247,-0.207,0.438256029657602));
#1387=CARTESIAN_POINT('',(-0.127736132310247,-0.1815,0.436756029657602));
#1388=CARTESIAN_POINT('',(-0.130736132310247,-0.1845,0.439756029657602));
#1389=CARTESIAN_POINT('',(-0.127736132310247,-0.2055,0.436756029657602));
#1390=CARTESIAN_POINT('',(-0.130736132310247,-0.1845,0.439756029657602));
#1391=CARTESIAN_POINT('',(-0.129236132310247,-0.183,0.436756029657602));
#1392=CARTESIAN_POINT('',(-0.127736132310247,-0.2055,0.436756029657602));
#1393=CARTESIAN_POINT('',(-0.127736132310247,-0.2055,0.436756029657602));
#1394=CARTESIAN_POINT('',(-0.130736132310247,-0.1815,0.398756029657602));
#1395=CARTESIAN_POINT('',(-0.127736132310247,-0.1845,0.360756029657602));
#1396=CARTESIAN_POINT('',(0.040288696047054,-0.2085,0.360756029657602));
#1397=CARTESIAN_POINT('',(-0.130736132310247,-0.2055,0.357756029657602));
#1398=CARTESIAN_POINT('',(-0.127736132310247,-0.2055,0.398756029657602));
#1399=CARTESIAN_POINT('',(-0.129236132310247,-0.207,0.360756029657602));
#1400=CARTESIAN_POINT('',(-0.127736132310247,-0.1845,0.360756029657602));
#1401=CARTESIAN_POINT('',(-0.127736132310247,-0.1845,0.360756029657602));
#1402=CARTESIAN_POINT('',(-0.130736132310247,-0.2055,0.357756029657602));
#1403=CARTESIAN_POINT('',(-0.130736132310247,-0.2055,0.357756029657602));
#1404=CARTESIAN_POINT('',(-0.130736132310247,-0.1815,0.357756029657602));
#1405=CARTESIAN_POINT('',(0.0375386960470541,-0.2055,0.398756029657602));
#1406=CARTESIAN_POINT('',(0.0530386960470541,-0.1831,0.398756029657602));
#1407=CARTESIAN_POINT('',(-0.145736132310247,-0.1831,0.375506029657602));
#1408=CARTESIAN_POINT('',(-0.145736132310247,-0.1831,0.384506029657602));
#1409=CARTESIAN_POINT('',(-0.137236132310247,-0.1681,0.380006029657602));
#1410=CARTESIAN_POINT('',(-0.137236132310247,-0.1681,0.384506029657602));
#1411=CARTESIAN_POINT('',(-0.137236132310247,-0.1731,0.384506029657602));
#1412=CARTESIAN_POINT('',(-0.137236132310247,-0.1731,0.380006029657602));
#1413=CARTESIAN_POINT('',(-0.137236132310247,-0.1731,0.387006029657602));
#1414=CARTESIAN_POINT('',(-0.137236132310247,-0.1681,0.387006029657602));
#1415=CARTESIAN_POINT('',(-0.154236132310247,-0.1681,0.380006029657602));
#1416=CARTESIAN_POINT('',(-0.154236132310247,-0.1681,0.387006029657602));
#1417=CARTESIAN_POINT('',(-0.154236132310247,-0.1731,0.387006029657602));
#1418=CARTESIAN_POINT('',(-0.154236132310247,-0.1731,0.384506029657602));
#1419=CARTESIAN_POINT('',(-0.154236132310247,-0.1731,0.384506029657602));
#1420=CARTESIAN_POINT('',(-0.154236132310247,-0.1681,0.384506029657602));
#1421=CARTESIAN_POINT('',(-0.145736132310247,-0.1681,0.387006029657602));
#1422=CARTESIAN_POINT('',(-0.145736132310247,-0.1745,0.387006029657602));
#1423=CARTESIAN_POINT('',(-0.148236132310247,-0.1745,0.387006029657602));
#1424=CARTESIAN_POINT('',(-0.145736132310247,-0.1681,0.387006029657602));
#1425=CARTESIAN_POINT('',(-0.149236132310247,-0.1681,0.387006029657602));
#1426=CARTESIAN_POINT('',(-0.142236132310247,-0.1681,0.387006029657602));
#1427=CARTESIAN_POINT('',(-0.149236132310247,-0.1681,0.387006029657602));
#1428=CARTESIAN_POINT('',(-0.137236132310247,-0.1731,0.387006029657602));
#1429=CARTESIAN_POINT('',(-0.145736132310247,-0.1681,0.384506029657602));
#1430=CARTESIAN_POINT('',(-0.145736132310247,-0.1745,0.384506029657602));
#1431=CARTESIAN_POINT('',(-0.143236132310247,-0.1745,0.384506029657602));
#1432=CARTESIAN_POINT('',(-0.149236132310247,-0.1681,0.384506029657602));
#1433=CARTESIAN_POINT('',(-0.149236132310247,-0.1681,0.384506029657602));
#1434=CARTESIAN_POINT('',(-0.145736132310247,-0.1681,0.384506029657602));
#1435=CARTESIAN_POINT('',(-0.142236132310247,-0.1681,0.384506029657602));
#1436=CARTESIAN_POINT('',(-0.137236132310247,-0.1731,0.384506029657602));
#1437=CARTESIAN_POINT('',(0.040288696047054,-0.1681,0.400006029657602));
#1438=CARTESIAN_POINT('',(-0.149236132310247,-0.1681,0.387006029657602));
#1439=CARTESIAN_POINT('',(-0.142236132310247,-0.1681,0.400006029657602));
#1440=CARTESIAN_POINT('',(-0.154236132310247,-0.1681,0.380006029657602));
#1441=CARTESIAN_POINT('',(-0.154236132310247,-0.1681,0.375506029657602));
#1442=CARTESIAN_POINT('',(-0.154236132310247,-0.1731,0.375506029657602));
#1443=CARTESIAN_POINT('',(-0.154236132310247,-0.1731,0.373006029657602));
#1444=CARTESIAN_POINT('',(-0.154236132310247,-0.1731,0.373006029657602));
#1445=CARTESIAN_POINT('',(-0.154236132310247,-0.1681,0.373006029657602));
#1446=CARTESIAN_POINT('',(-0.137236132310247,-0.1681,0.380006029657602));
#1447=CARTESIAN_POINT('',(-0.137236132310247,-0.1681,0.373006029657602));
#1448=CARTESIAN_POINT('',(-0.137236132310247,-0.1731,0.373006029657602));
#1449=CARTESIAN_POINT('',(-0.137236132310247,-0.1731,0.380006029657602));
#1450=CARTESIAN_POINT('',(-0.137236132310247,-0.1731,0.375506029657602));
#1451=CARTESIAN_POINT('',(-0.137236132310247,-0.1681,0.375506029657602));
#1452=CARTESIAN_POINT('',(-0.145736132310247,-0.1681,0.373006029657602));
#1453=CARTESIAN_POINT('',(-0.145736132310247,-0.1745,0.373006029657602));
#1454=CARTESIAN_POINT('',(-0.148236132310247,-0.1745,0.373006029657602));
#1455=CARTESIAN_POINT('',(-0.145736132310247,-0.1681,0.373006029657602));
#1456=CARTESIAN_POINT('',(-0.149236132310247,-0.1681,0.373006029657602));
#1457=CARTESIAN_POINT('',(-0.142236132310247,-0.1681,0.373006029657602));
#1458=CARTESIAN_POINT('',(-0.143986132310247,-0.16635,0.373006029657602));
#1459=CARTESIAN_POINT('',(-0.147486132310247,-0.16635,0.373006029657602));
#1460=CARTESIAN_POINT('',(-0.145736132310247,-0.1681,0.375506029657602));
#1461=CARTESIAN_POINT('',(-0.145736132310247,-0.1745,0.375506029657602));
#1462=CARTESIAN_POINT('',(-0.148236132310247,-0.1745,0.375506029657602));
#1463=CARTESIAN_POINT('',(-0.137236132310247,-0.1731,0.375506029657602));
#1464=CARTESIAN_POINT('',(-0.142236132310247,-0.1681,0.375506029657602));
#1465=CARTESIAN_POINT('',(-0.145736132310247,-0.1681,0.375506029657602));
#1466=CARTESIAN_POINT('',(-0.149236132310247,-0.1681,0.375506029657602));
#1467=CARTESIAN_POINT('',(-0.149236132310247,-0.1681,0.375506029657602));
#1468=CARTESIAN_POINT('',(0.040288696047054,-0.1681,0.400006029657602));
#1469=CARTESIAN_POINT('',(-0.142236132310247,-0.1681,0.400006029657602));
#1470=CARTESIAN_POINT('',(-0.149236132310247,-0.1681,0.375506029657602));
#1471=CARTESIAN_POINT('',(-0.149236132310247,-0.1681,0.400006029657602));
#1472=CARTESIAN_POINT('',(-0.137236132310247,-0.1731,0.380006029657602));
#1473=CARTESIAN_POINT('',(-0.137236132310247,-0.1731,0.380006029657602));
#1474=CARTESIAN_POINT('',(-0.149236132310247,-0.1681,0.400006029657602));
#1475=CARTESIAN_POINT('',(-0.145736132310247,-0.1745,1.22387452636245));
#1476=CARTESIAN_POINT('',(-0.145736132310247,-0.1745,1.22387452636245));
#1477=MECHANICAL_DESIGN_GEOMETRIC_PRESENTATION_REPRESENTATION('',(#909),
#1478);
#1478=(
GEOMETRIC_REPRESENTATION_CONTEXT(3)
GLOBAL_UNCERTAINTY_ASSIGNED_CONTEXT((#1479))
GLOBAL_UNIT_ASSIGNED_CONTEXT((#1482,#1481,#1480))
REPRESENTATION_CONTEXT('TFL-Rod Mount','TOP_LEVEL_ASSEMBLY_PART')
);
#1479=UNCERTAINTY_MEASURE_WITH_UNIT(LENGTH_MEASURE(1.E-8),#1482,
'DISTANCE_ACCURACY_VALUE','Maximum Tolerance applied to model');
#1480=(
NAMED_UNIT(*)
SI_UNIT($,.STERADIAN.)
SOLID_ANGLE_UNIT()
);
#1481=(
NAMED_UNIT(*)
PLANE_ANGLE_UNIT()
SI_UNIT($,.RADIAN.)
);
#1482=(
LENGTH_UNIT()
NAMED_UNIT(*)
SI_UNIT($,.METRE.)
);
#1483=PRODUCT_DEFINITION_SHAPE('','',#1484);
#1484=PRODUCT_DEFINITION('','',#1486,#1485);
#1485=PRODUCT_DEFINITION_CONTEXT('',#1492,'design');
#1486=PRODUCT_DEFINITION_FORMATION_WITH_SPECIFIED_SOURCE('','',#1488,
 .NOT_KNOWN.);
#1487=PRODUCT_RELATED_PRODUCT_CATEGORY('','',(#1488));
#1488=PRODUCT('TFL-Rod Mount','TFL-Rod Mount','TFL-Rod Mount',(#1490));
#1489=PRODUCT_CATEGORY('','');
#1490=PRODUCT_CONTEXT('',#1492,'mechanical');
#1491=APPLICATION_PROTOCOL_DEFINITION('international standard',
'ap242_managed_model_based_3d_engineering',2020,#1492);
#1492=APPLICATION_CONTEXT('managed model based 3d engineering');
ENDSEC;
END-ISO-10303-21;
