ISO-10303-21;
HEADER;
/* Generated by software containing ST-Developer
 * from STEP Tools, Inc. (www.steptools.com) 
 */
/* OPTION: using custom renumber hook */

FILE_DESCRIPTION(
/* description */ ('STEP AP242 Edition 2',
'CAx-IF Rec.Pracs.---Representation and Presentation of Product Manufa
cturing Information (PMI)---4.0---2014-10-13',
'CAx-IF Rec.Pracs.---3D Tessellated Geometry---0.4---2014-09-14','2;1',
'CAx-IF Rec.Pracs.---User Defined Attributes---1.5---2016-08-15'),
/* implementation_level */ '2;1');

FILE_NAME(
/* name */ 'NOT-618 - Lead Adapter',
/* time_stamp */ '2026-07-26T08:51:50Z',
/* author */ (''),
/* organization */ (''),
/* preprocessor_version */ 'ST-DEVELOPER v20',
/* originating_system */ 'ONSHAPE BY PTC INC, 1.218',
/* authorisation */ '  ');

FILE_SCHEMA (('AP242_MANAGED_MODEL_BASED_3D_ENGINEERING_MIM_LF { 1 0 10303 442 3 1 4 }'));
ENDSEC;

DATA;
#10=SHAPE_REPRESENTATION_RELATIONSHIP('','',#682,#11);
#11=ADVANCED_BREP_SHAPE_REPRESENTATION('',(#680),#1109);
#12=CONICAL_SURFACE('',#741,0.0025,0.785398163397448);
#13=CYLINDRICAL_SURFACE('',#691,0.011);
#14=CYLINDRICAL_SURFACE('',#695,0.0025);
#15=CYLINDRICAL_SURFACE('',#708,0.005);
#16=CYLINDRICAL_SURFACE('',#724,0.0025);
#17=CYLINDRICAL_SURFACE('',#726,0.0025);
#18=CYLINDRICAL_SURFACE('',#727,0.00175);
#19=CYLINDRICAL_SURFACE('',#730,0.00175);
#20=CYLINDRICAL_SURFACE('',#733,0.00175);
#21=CYLINDRICAL_SURFACE('',#736,0.00218770807597091);
#22=CIRCLE('',#688,0.0025);
#23=CIRCLE('',#692,0.011);
#24=CIRCLE('',#693,0.011);
#25=CIRCLE('',#696,0.0025);
#26=CIRCLE('',#698,0.0045);
#27=CIRCLE('',#700,0.00218770807597091);
#28=CIRCLE('',#701,0.00175);
#29=CIRCLE('',#702,0.00175);
#30=CIRCLE('',#703,0.00175);
#31=CIRCLE('',#704,0.005);
#32=CIRCLE('',#706,0.0025);
#33=CIRCLE('',#707,0.0025);
#34=CIRCLE('',#709,0.005);
#35=CIRCLE('',#719,0.0025);
#36=CIRCLE('',#721,0.0025);
#37=CIRCLE('',#728,0.00175);
#38=CIRCLE('',#731,0.00175);
#39=CIRCLE('',#734,0.00175);
#40=CIRCLE('',#737,0.00218770807597091);
#41=ORIENTED_EDGE('',*,*,#207,.F.);
#42=ORIENTED_EDGE('',*,*,#208,.T.);
#43=ORIENTED_EDGE('',*,*,#209,.T.);
#44=ORIENTED_EDGE('',*,*,#210,.F.);
#45=ORIENTED_EDGE('',*,*,#211,.T.);
#46=ORIENTED_EDGE('',*,*,#212,.T.);
#47=ORIENTED_EDGE('',*,*,#213,.F.);
#48=ORIENTED_EDGE('',*,*,#214,.F.);
#49=ORIENTED_EDGE('',*,*,#215,.T.);
#50=ORIENTED_EDGE('',*,*,#216,.T.);
#51=ORIENTED_EDGE('',*,*,#217,.T.);
#52=ORIENTED_EDGE('',*,*,#218,.F.);
#53=ORIENTED_EDGE('',*,*,#210,.T.);
#54=ORIENTED_EDGE('',*,*,#219,.T.);
#55=ORIENTED_EDGE('',*,*,#220,.F.);
#56=ORIENTED_EDGE('',*,*,#221,.T.);
#57=ORIENTED_EDGE('',*,*,#216,.F.);
#58=ORIENTED_EDGE('',*,*,#222,.T.);
#59=ORIENTED_EDGE('',*,*,#223,.T.);
#60=ORIENTED_EDGE('',*,*,#224,.T.);
#61=ORIENTED_EDGE('',*,*,#225,.T.);
#62=ORIENTED_EDGE('',*,*,#226,.F.);
#63=ORIENTED_EDGE('',*,*,#227,.F.);
#64=ORIENTED_EDGE('',*,*,#228,.T.);
#65=ORIENTED_EDGE('',*,*,#229,.T.);
#66=ORIENTED_EDGE('',*,*,#230,.T.);
#67=ORIENTED_EDGE('',*,*,#231,.T.);
#68=ORIENTED_EDGE('',*,*,#232,.T.);
#69=ORIENTED_EDGE('',*,*,#233,.T.);
#70=ORIENTED_EDGE('',*,*,#229,.F.);
#71=ORIENTED_EDGE('',*,*,#234,.T.);
#72=ORIENTED_EDGE('',*,*,#235,.T.);
#73=ORIENTED_EDGE('',*,*,#236,.T.);
#74=ORIENTED_EDGE('',*,*,#237,.F.);
#75=ORIENTED_EDGE('',*,*,#218,.T.);
#76=ORIENTED_EDGE('',*,*,#238,.T.);
#77=ORIENTED_EDGE('',*,*,#239,.F.);
#78=ORIENTED_EDGE('',*,*,#240,.T.);
#79=ORIENTED_EDGE('',*,*,#227,.T.);
#80=ORIENTED_EDGE('',*,*,#241,.F.);
#81=ORIENTED_EDGE('',*,*,#242,.T.);
#82=ORIENTED_EDGE('',*,*,#243,.T.);
#83=ORIENTED_EDGE('',*,*,#244,.T.);
#84=ORIENTED_EDGE('',*,*,#245,.F.);
#85=ORIENTED_EDGE('',*,*,#225,.F.);
#86=ORIENTED_EDGE('',*,*,#246,.T.);
#87=ORIENTED_EDGE('',*,*,#247,.T.);
#88=ORIENTED_EDGE('',*,*,#248,.T.);
#89=ORIENTED_EDGE('',*,*,#208,.F.);
#90=ORIENTED_EDGE('',*,*,#249,.T.);
#91=ORIENTED_EDGE('',*,*,#231,.F.);
#92=ORIENTED_EDGE('',*,*,#250,.T.);
#93=ORIENTED_EDGE('',*,*,#220,.T.);
#94=ORIENTED_EDGE('',*,*,#251,.T.);
#95=ORIENTED_EDGE('',*,*,#247,.F.);
#96=ORIENTED_EDGE('',*,*,#252,.T.);
#97=ORIENTED_EDGE('',*,*,#232,.F.);
#98=ORIENTED_EDGE('',*,*,#253,.T.);
#99=ORIENTED_EDGE('',*,*,#239,.T.);
#100=ORIENTED_EDGE('',*,*,#254,.T.);
#101=ORIENTED_EDGE('',*,*,#242,.F.);
#102=ORIENTED_EDGE('',*,*,#255,.T.);
#103=ORIENTED_EDGE('',*,*,#256,.T.);
#104=ORIENTED_EDGE('',*,*,#257,.T.);
#105=ORIENTED_EDGE('',*,*,#258,.T.);
#106=ORIENTED_EDGE('',*,*,#259,.T.);
#107=ORIENTED_EDGE('',*,*,#241,.T.);
#108=ORIENTED_EDGE('',*,*,#260,.T.);
#109=ORIENTED_EDGE('',*,*,#261,.T.);
#110=ORIENTED_EDGE('',*,*,#235,.F.);
#111=ORIENTED_EDGE('',*,*,#226,.T.);
#112=ORIENTED_EDGE('',*,*,#245,.T.);
#113=ORIENTED_EDGE('',*,*,#262,.T.);
#114=ORIENTED_EDGE('',*,*,#263,.T.);
#115=ORIENTED_EDGE('',*,*,#264,.F.);
#116=ORIENTED_EDGE('',*,*,#265,.T.);
#117=ORIENTED_EDGE('',*,*,#266,.T.);
#118=ORIENTED_EDGE('',*,*,#259,.F.);
#119=ORIENTED_EDGE('',*,*,#267,.T.);
#120=ORIENTED_EDGE('',*,*,#268,.T.);
#121=ORIENTED_EDGE('',*,*,#269,.T.);
#122=ORIENTED_EDGE('',*,*,#270,.F.);
#123=ORIENTED_EDGE('',*,*,#212,.F.);
#124=ORIENTED_EDGE('',*,*,#214,.T.);
#125=ORIENTED_EDGE('',*,*,#271,.T.);
#126=ORIENTED_EDGE('',*,*,#272,.F.);
#127=ORIENTED_EDGE('',*,*,#273,.T.);
#128=ORIENTED_EDGE('',*,*,#211,.F.);
#129=ORIENTED_EDGE('',*,*,#224,.F.);
#130=ORIENTED_EDGE('',*,*,#274,.F.);
#131=ORIENTED_EDGE('',*,*,#268,.F.);
#132=ORIENTED_EDGE('',*,*,#273,.F.);
#133=ORIENTED_EDGE('',*,*,#275,.F.);
#134=ORIENTED_EDGE('',*,*,#222,.F.);
#135=ORIENTED_EDGE('',*,*,#215,.F.);
#136=ORIENTED_EDGE('',*,*,#209,.F.);
#137=ORIENTED_EDGE('',*,*,#248,.F.);
#138=ORIENTED_EDGE('',*,*,#251,.F.);
#139=ORIENTED_EDGE('',*,*,#219,.F.);
#140=ORIENTED_EDGE('',*,*,#217,.F.);
#141=ORIENTED_EDGE('',*,*,#221,.F.);
#142=ORIENTED_EDGE('',*,*,#254,.F.);
#143=ORIENTED_EDGE('',*,*,#238,.F.);
#144=ORIENTED_EDGE('',*,*,#230,.F.);
#145=ORIENTED_EDGE('',*,*,#233,.F.);
#146=ORIENTED_EDGE('',*,*,#252,.F.);
#147=ORIENTED_EDGE('',*,*,#246,.F.);
#148=ORIENTED_EDGE('',*,*,#228,.F.);
#149=ORIENTED_EDGE('',*,*,#240,.F.);
#150=ORIENTED_EDGE('',*,*,#253,.F.);
#151=ORIENTED_EDGE('',*,*,#234,.F.);
#152=ORIENTED_EDGE('',*,*,#276,.F.);
#153=ORIENTED_EDGE('',*,*,#277,.F.);
#154=ORIENTED_EDGE('',*,*,#278,.T.);
#155=ORIENTED_EDGE('',*,*,#243,.F.);
#156=ORIENTED_EDGE('',*,*,#207,.T.);
#157=ORIENTED_EDGE('',*,*,#270,.T.);
#158=ORIENTED_EDGE('',*,*,#279,.F.);
#159=ORIENTED_EDGE('',*,*,#237,.T.);
#160=ORIENTED_EDGE('',*,*,#280,.T.);
#161=ORIENTED_EDGE('',*,*,#281,.F.);
#162=ORIENTED_EDGE('',*,*,#271,.F.);
#163=ORIENTED_EDGE('',*,*,#213,.T.);
#164=ORIENTED_EDGE('',*,*,#272,.T.);
#165=ORIENTED_EDGE('',*,*,#282,.T.);
#166=ORIENTED_EDGE('',*,*,#264,.T.);
#167=ORIENTED_EDGE('',*,*,#283,.F.);
#168=ORIENTED_EDGE('',*,*,#269,.F.);
#169=ORIENTED_EDGE('',*,*,#274,.T.);
#170=ORIENTED_EDGE('',*,*,#223,.F.);
#171=ORIENTED_EDGE('',*,*,#275,.T.);
#172=ORIENTED_EDGE('',*,*,#267,.F.);
#173=ORIENTED_EDGE('',*,*,#281,.T.);
#174=ORIENTED_EDGE('',*,*,#284,.T.);
#175=ORIENTED_EDGE('',*,*,#260,.F.);
#176=ORIENTED_EDGE('',*,*,#282,.F.);
#177=ORIENTED_EDGE('',*,*,#279,.T.);
#178=ORIENTED_EDGE('',*,*,#265,.F.);
#179=ORIENTED_EDGE('',*,*,#263,.F.);
#180=ORIENTED_EDGE('',*,*,#285,.T.);
#181=ORIENTED_EDGE('',*,*,#277,.T.);
#182=ORIENTED_EDGE('',*,*,#283,.T.);
#183=ORIENTED_EDGE('',*,*,#276,.T.);
#184=ORIENTED_EDGE('',*,*,#266,.F.);
#185=ORIENTED_EDGE('',*,*,#286,.F.);
#186=ORIENTED_EDGE('',*,*,#258,.F.);
#187=ORIENTED_EDGE('',*,*,#286,.T.);
#188=ORIENTED_EDGE('',*,*,#287,.F.);
#189=ORIENTED_EDGE('',*,*,#257,.F.);
#190=ORIENTED_EDGE('',*,*,#287,.T.);
#191=ORIENTED_EDGE('',*,*,#288,.F.);
#192=ORIENTED_EDGE('',*,*,#256,.F.);
#193=ORIENTED_EDGE('',*,*,#288,.T.);
#194=ORIENTED_EDGE('',*,*,#289,.F.);
#195=ORIENTED_EDGE('',*,*,#255,.F.);
#196=ORIENTED_EDGE('',*,*,#289,.T.);
#197=ORIENTED_EDGE('',*,*,#280,.F.);
#198=ORIENTED_EDGE('',*,*,#236,.F.);
#199=ORIENTED_EDGE('',*,*,#261,.F.);
#200=ORIENTED_EDGE('',*,*,#284,.F.);
#201=ORIENTED_EDGE('',*,*,#278,.F.);
#202=ORIENTED_EDGE('',*,*,#285,.F.);
#203=ORIENTED_EDGE('',*,*,#262,.F.);
#204=ORIENTED_EDGE('',*,*,#244,.F.);
#205=ORIENTED_EDGE('',*,*,#250,.F.);
#206=ORIENTED_EDGE('',*,*,#249,.F.);
#207=EDGE_CURVE('',#290,#291,#351,.T.);
#208=EDGE_CURVE('',#290,#292,#352,.T.);
#209=EDGE_CURVE('',#292,#293,#353,.T.);
#210=EDGE_CURVE('',#294,#293,#354,.T.);
#211=EDGE_CURVE('',#294,#295,#355,.T.);
#212=EDGE_CURVE('',#295,#291,#356,.T.);
#213=EDGE_CURVE('',#296,#297,#357,.T.);
#214=EDGE_CURVE('',#298,#296,#358,.T.);
#215=EDGE_CURVE('',#298,#299,#359,.T.);
#216=EDGE_CURVE('',#299,#300,#360,.T.);
#217=EDGE_CURVE('',#300,#301,#361,.F.);
#218=EDGE_CURVE('',#297,#301,#362,.T.);
#219=EDGE_CURVE('',#293,#302,#363,.T.);
#220=EDGE_CURVE('',#303,#302,#364,.T.);
#221=EDGE_CURVE('',#303,#300,#365,.T.);
#222=EDGE_CURVE('',#299,#304,#366,.T.);
#223=EDGE_CURVE('',#304,#305,#367,.T.);
#224=EDGE_CURVE('',#305,#294,#368,.T.);
#225=EDGE_CURVE('',#306,#307,#369,.T.);
#226=EDGE_CURVE('',#308,#307,#370,.T.);
#227=EDGE_CURVE('',#309,#308,#371,.T.);
#228=EDGE_CURVE('',#309,#310,#372,.T.);
#229=EDGE_CURVE('',#310,#311,#373,.T.);
#230=EDGE_CURVE('',#311,#306,#374,.F.);
#231=EDGE_CURVE('',#312,#312,#22,.T.);
#232=EDGE_CURVE('',#313,#314,#375,.T.);
#233=EDGE_CURVE('',#314,#311,#376,.T.);
#234=EDGE_CURVE('',#310,#313,#377,.T.);
#235=EDGE_CURVE('',#308,#315,#378,.T.);
#236=EDGE_CURVE('',#315,#316,#379,.T.);
#237=EDGE_CURVE('',#297,#316,#380,.T.);
#238=EDGE_CURVE('',#301,#317,#381,.T.);
#239=EDGE_CURVE('',#318,#317,#382,.T.);
#240=EDGE_CURVE('',#318,#309,#383,.T.);
#241=EDGE_CURVE('',#319,#319,#23,.T.);
#242=EDGE_CURVE('',#320,#320,#24,.T.);
#243=EDGE_CURVE('',#290,#321,#384,.T.);
#244=EDGE_CURVE('',#321,#322,#385,.T.);
#245=EDGE_CURVE('',#307,#322,#386,.T.);
#246=EDGE_CURVE('',#306,#323,#387,.T.);
#247=EDGE_CURVE('',#323,#324,#388,.T.);
#248=EDGE_CURVE('',#324,#292,#389,.T.);
#249=EDGE_CURVE('',#325,#325,#25,.T.);
#250=EDGE_CURVE('',#326,#326,#26,.F.);
#251=EDGE_CURVE('',#302,#324,#390,.T.);
#252=EDGE_CURVE('',#323,#314,#391,.F.);
#253=EDGE_CURVE('',#313,#318,#392,.T.);
#254=EDGE_CURVE('',#317,#303,#393,.F.);
#255=EDGE_CURVE('',#327,#327,#27,.T.);
#256=EDGE_CURVE('',#328,#328,#28,.T.);
#257=EDGE_CURVE('',#329,#329,#29,.T.);
#258=EDGE_CURVE('',#330,#330,#30,.T.);
#259=EDGE_CURVE('',#331,#331,#31,.T.);
#260=EDGE_CURVE('',#332,#333,#394,.T.);
#261=EDGE_CURVE('',#333,#315,#395,.F.);
#262=EDGE_CURVE('',#322,#334,#396,.T.);
#263=EDGE_CURVE('',#334,#335,#397,.T.);
#264=EDGE_CURVE('',#332,#335,#398,.T.);
#265=EDGE_CURVE('',#336,#336,#32,.T.);
#266=EDGE_CURVE('',#337,#337,#33,.T.);
#267=EDGE_CURVE('',#338,#338,#34,.T.);
#268=EDGE_CURVE('',#295,#339,#399,.T.);
#269=EDGE_CURVE('',#339,#340,#400,.T.);
#270=EDGE_CURVE('',#291,#340,#401,.T.);
#271=EDGE_CURVE('',#296,#341,#402,.T.);
#272=EDGE_CURVE('',#342,#341,#403,.T.);
#273=EDGE_CURVE('',#342,#298,#404,.T.);
#274=EDGE_CURVE('',#339,#305,#405,.T.);
#275=EDGE_CURVE('',#304,#342,#406,.T.);
#276=EDGE_CURVE('',#343,#343,#35,.T.);
#277=EDGE_CURVE('',#344,#340,#407,.T.);
#278=EDGE_CURVE('',#344,#321,#408,.T.);
#279=EDGE_CURVE('',#345,#345,#36,.T.);
#280=EDGE_CURVE('',#316,#346,#409,.F.);
#281=EDGE_CURVE('',#341,#346,#410,.T.);
#282=EDGE_CURVE('',#341,#332,#411,.T.);
#283=EDGE_CURVE('',#340,#335,#412,.T.);
#284=EDGE_CURVE('',#346,#333,#413,.T.);
#285=EDGE_CURVE('',#334,#344,#414,.T.);
#286=EDGE_CURVE('',#347,#347,#37,.T.);
#287=EDGE_CURVE('',#348,#348,#38,.T.);
#288=EDGE_CURVE('',#349,#349,#39,.T.);
#289=EDGE_CURVE('',#350,#350,#40,.T.);
#290=VERTEX_POINT('',#927);
#291=VERTEX_POINT('',#928);
#292=VERTEX_POINT('',#930);
#293=VERTEX_POINT('',#932);
#294=VERTEX_POINT('',#934);
#295=VERTEX_POINT('',#936);
#296=VERTEX_POINT('',#940);
#297=VERTEX_POINT('',#941);
#298=VERTEX_POINT('',#943);
#299=VERTEX_POINT('',#945);
#300=VERTEX_POINT('',#947);
#301=VERTEX_POINT('',#949);
#302=VERTEX_POINT('',#953);
#303=VERTEX_POINT('',#955);
#304=VERTEX_POINT('',#958);
#305=VERTEX_POINT('',#960);
#306=VERTEX_POINT('',#964);
#307=VERTEX_POINT('',#965);
#308=VERTEX_POINT('',#967);
#309=VERTEX_POINT('',#969);
#310=VERTEX_POINT('',#971);
#311=VERTEX_POINT('',#973);
#312=VERTEX_POINT('',#976);
#313=VERTEX_POINT('',#979);
#314=VERTEX_POINT('',#980);
#315=VERTEX_POINT('',#985);
#316=VERTEX_POINT('',#987);
#317=VERTEX_POINT('',#990);
#318=VERTEX_POINT('',#992);
#319=VERTEX_POINT('',#996);
#320=VERTEX_POINT('',#998);
#321=VERTEX_POINT('',#1001);
#322=VERTEX_POINT('',#1003);
#323=VERTEX_POINT('',#1006);
#324=VERTEX_POINT('',#1008);
#325=VERTEX_POINT('',#1012);
#326=VERTEX_POINT('',#1015);
#327=VERTEX_POINT('',#1022);
#328=VERTEX_POINT('',#1024);
#329=VERTEX_POINT('',#1026);
#330=VERTEX_POINT('',#1028);
#331=VERTEX_POINT('',#1030);
#332=VERTEX_POINT('',#1033);
#333=VERTEX_POINT('',#1034);
#334=VERTEX_POINT('',#1037);
#335=VERTEX_POINT('',#1039);
#336=VERTEX_POINT('',#1042);
#337=VERTEX_POINT('',#1044);
#338=VERTEX_POINT('',#1047);
#339=VERTEX_POINT('',#1050);
#340=VERTEX_POINT('',#1052);
#341=VERTEX_POINT('',#1056);
#342=VERTEX_POINT('',#1058);
#343=VERTEX_POINT('',#1070);
#344=VERTEX_POINT('',#1072);
#345=VERTEX_POINT('',#1076);
#346=VERTEX_POINT('',#1078);
#347=VERTEX_POINT('',#1091);
#348=VERTEX_POINT('',#1095);
#349=VERTEX_POINT('',#1099);
#350=VERTEX_POINT('',#1103);
#351=LINE('',#926,#415);
#352=LINE('',#929,#416);
#353=LINE('',#931,#417);
#354=LINE('',#933,#418);
#355=LINE('',#935,#419);
#356=LINE('',#937,#420);
#357=LINE('',#939,#421);
#358=LINE('',#942,#422);
#359=LINE('',#944,#423);
#360=LINE('',#946,#424);
#361=LINE('',#948,#425);
#362=LINE('',#950,#426);
#363=LINE('',#952,#427);
#364=LINE('',#954,#428);
#365=LINE('',#956,#429);
#366=LINE('',#957,#430);
#367=LINE('',#959,#431);
#368=LINE('',#961,#432);
#369=LINE('',#963,#433);
#370=LINE('',#966,#434);
#371=LINE('',#968,#435);
#372=LINE('',#970,#436);
#373=LINE('',#972,#437);
#374=LINE('',#974,#438);
#375=LINE('',#978,#439);
#376=LINE('',#981,#440);
#377=LINE('',#982,#441);
#378=LINE('',#984,#442);
#379=LINE('',#986,#443);
#380=LINE('',#988,#444);
#381=LINE('',#989,#445);
#382=LINE('',#991,#446);
#383=LINE('',#993,#447);
#384=LINE('',#1000,#448);
#385=LINE('',#1002,#449);
#386=LINE('',#1004,#450);
#387=LINE('',#1005,#451);
#388=LINE('',#1007,#452);
#389=LINE('',#1009,#453);
#390=LINE('',#1016,#454);
#391=LINE('',#1017,#455);
#392=LINE('',#1018,#456);
#393=LINE('',#1019,#457);
#394=LINE('',#1032,#458);
#395=LINE('',#1035,#459);
#396=LINE('',#1036,#460);
#397=LINE('',#1038,#461);
#398=LINE('',#1040,#462);
#399=LINE('',#1049,#463);
#400=LINE('',#1051,#464);
#401=LINE('',#1053,#465);
#402=LINE('',#1055,#466);
#403=LINE('',#1057,#467);
#404=LINE('',#1059,#468);
#405=LINE('',#1061,#469);
#406=LINE('',#1063,#470);
#407=LINE('',#1071,#471);
#408=LINE('',#1073,#472);
#409=LINE('',#1077,#473);
#410=LINE('',#1079,#474);
#411=LINE('',#1081,#475);
#412=LINE('',#1082,#476);
#413=LINE('',#1084,#477);
#414=LINE('',#1087,#478);
#415=VECTOR('',#746,1.);
#416=VECTOR('',#747,1.);
#417=VECTOR('',#748,1.);
#418=VECTOR('',#749,1.);
#419=VECTOR('',#750,1.);
#420=VECTOR('',#751,1.);
#421=VECTOR('',#754,1.);
#422=VECTOR('',#755,1.);
#423=VECTOR('',#756,1.);
#424=VECTOR('',#757,1.);
#425=VECTOR('',#758,1.);
#426=VECTOR('',#759,1.);
#427=VECTOR('',#762,1.);
#428=VECTOR('',#763,1.);
#429=VECTOR('',#764,1.);
#430=VECTOR('',#765,1.);
#431=VECTOR('',#766,1.);
#432=VECTOR('',#767,1.);
#433=VECTOR('',#770,1.);
#434=VECTOR('',#771,1.);
#435=VECTOR('',#772,1.);
#436=VECTOR('',#773,1.);
#437=VECTOR('',#774,1.);
#438=VECTOR('',#775,1.);
#439=VECTOR('',#780,1.);
#440=VECTOR('',#781,1.);
#441=VECTOR('',#782,1.);
#442=VECTOR('',#785,1.);
#443=VECTOR('',#786,1.);
#444=VECTOR('',#787,1.);
#445=VECTOR('',#788,1.);
#446=VECTOR('',#789,1.);
#447=VECTOR('',#790,1.);
#448=VECTOR('',#799,1.);
#449=VECTOR('',#800,1.);
#450=VECTOR('',#801,1.);
#451=VECTOR('',#802,1.);
#452=VECTOR('',#803,1.);
#453=VECTOR('',#804,1.);
#454=VECTOR('',#813,1.);
#455=VECTOR('',#814,1.);
#456=VECTOR('',#815,1.);
#457=VECTOR('',#816,1.);
#458=VECTOR('',#831,1.);
#459=VECTOR('',#832,1.);
#460=VECTOR('',#833,1.);
#461=VECTOR('',#834,1.);
#462=VECTOR('',#835,1.);
#463=VECTOR('',#846,1.);
#464=VECTOR('',#847,1.);
#465=VECTOR('',#848,1.);
#466=VECTOR('',#851,1.);
#467=VECTOR('',#852,1.);
#468=VECTOR('',#853,1.);
#469=VECTOR('',#856,1.);
#470=VECTOR('',#859,1.);
#471=VECTOR('',#872,1.);
#472=VECTOR('',#873,1.);
#473=VECTOR('',#878,1.);
#474=VECTOR('',#879,1.);
#475=VECTOR('',#882,1.);
#476=VECTOR('',#883,1.);
#477=VECTOR('',#886,1.);
#478=VECTOR('',#891,1.);
#479=EDGE_LOOP('',(#41,#42,#43,#44,#45,#46));
#480=EDGE_LOOP('',(#47,#48,#49,#50,#51,#52));
#481=EDGE_LOOP('',(#53,#54,#55,#56,#57,#58,#59,#60));
#482=EDGE_LOOP('',(#61,#62,#63,#64,#65,#66));
#483=EDGE_LOOP('',(#67));
#484=EDGE_LOOP('',(#68,#69,#70,#71));
#485=EDGE_LOOP('',(#72,#73,#74,#75,#76,#77,#78,#79));
#486=EDGE_LOOP('',(#80));
#487=EDGE_LOOP('',(#81));
#488=EDGE_LOOP('',(#82,#83,#84,#85,#86,#87,#88,#89));
#489=EDGE_LOOP('',(#90));
#490=EDGE_LOOP('',(#91));
#491=EDGE_LOOP('',(#92));
#492=EDGE_LOOP('',(#93,#94,#95,#96,#97,#98,#99,#100));
#493=EDGE_LOOP('',(#101));
#494=EDGE_LOOP('',(#102));
#495=EDGE_LOOP('',(#103));
#496=EDGE_LOOP('',(#104));
#497=EDGE_LOOP('',(#105));
#498=EDGE_LOOP('',(#106));
#499=EDGE_LOOP('',(#107));
#500=EDGE_LOOP('',(#108,#109,#110,#111,#112,#113,#114,#115));
#501=EDGE_LOOP('',(#116));
#502=EDGE_LOOP('',(#117));
#503=EDGE_LOOP('',(#118));
#504=EDGE_LOOP('',(#119));
#505=EDGE_LOOP('',(#120,#121,#122,#123));
#506=EDGE_LOOP('',(#124,#125,#126,#127));
#507=EDGE_LOOP('',(#128,#129,#130,#131));
#508=EDGE_LOOP('',(#132,#133,#134,#135));
#509=EDGE_LOOP('',(#136,#137,#138,#139));
#510=EDGE_LOOP('',(#140,#141,#142,#143));
#511=EDGE_LOOP('',(#144,#145,#146,#147));
#512=EDGE_LOOP('',(#148,#149,#150,#151));
#513=EDGE_LOOP('',(#152));
#514=EDGE_LOOP('',(#153,#154,#155,#156,#157));
#515=EDGE_LOOP('',(#158));
#516=EDGE_LOOP('',(#159,#160,#161,#162,#163));
#517=EDGE_LOOP('',(#164,#165,#166,#167,#168,#169,#170,#171));
#518=EDGE_LOOP('',(#172));
#519=EDGE_LOOP('',(#173,#174,#175,#176));
#520=EDGE_LOOP('',(#177));
#521=EDGE_LOOP('',(#178));
#522=EDGE_LOOP('',(#179,#180,#181,#182));
#523=EDGE_LOOP('',(#183));
#524=EDGE_LOOP('',(#184));
#525=EDGE_LOOP('',(#185));
#526=EDGE_LOOP('',(#186));
#527=EDGE_LOOP('',(#187));
#528=EDGE_LOOP('',(#188));
#529=EDGE_LOOP('',(#189));
#530=EDGE_LOOP('',(#190));
#531=EDGE_LOOP('',(#191));
#532=EDGE_LOOP('',(#192));
#533=EDGE_LOOP('',(#193));
#534=EDGE_LOOP('',(#194));
#535=EDGE_LOOP('',(#195));
#536=EDGE_LOOP('',(#196));
#537=EDGE_LOOP('',(#197,#198,#199,#200));
#538=EDGE_LOOP('',(#201,#202,#203,#204));
#539=EDGE_LOOP('',(#205));
#540=EDGE_LOOP('',(#206));
#541=FACE_BOUND('',#479,.T.);
#542=FACE_BOUND('',#480,.T.);
#543=FACE_BOUND('',#481,.T.);
#544=FACE_BOUND('',#482,.T.);
#545=FACE_BOUND('',#483,.T.);
#546=FACE_BOUND('',#484,.T.);
#547=FACE_BOUND('',#485,.T.);
#548=FACE_BOUND('',#486,.T.);
#549=FACE_BOUND('',#487,.T.);
#550=FACE_BOUND('',#488,.T.);
#551=FACE_BOUND('',#489,.T.);
#552=FACE_BOUND('',#490,.T.);
#553=FACE_BOUND('',#491,.T.);
#554=FACE_BOUND('',#492,.T.);
#555=FACE_BOUND('',#493,.T.);
#556=FACE_BOUND('',#494,.T.);
#557=FACE_BOUND('',#495,.T.);
#558=FACE_BOUND('',#496,.T.);
#559=FACE_BOUND('',#497,.T.);
#560=FACE_BOUND('',#498,.T.);
#561=FACE_BOUND('',#499,.T.);
#562=FACE_BOUND('',#500,.T.);
#563=FACE_BOUND('',#501,.T.);
#564=FACE_BOUND('',#502,.T.);
#565=FACE_BOUND('',#503,.T.);
#566=FACE_BOUND('',#504,.T.);
#567=FACE_BOUND('',#505,.T.);
#568=FACE_BOUND('',#506,.T.);
#569=FACE_BOUND('',#507,.T.);
#570=FACE_BOUND('',#508,.T.);
#571=FACE_BOUND('',#509,.T.);
#572=FACE_BOUND('',#510,.T.);
#573=FACE_BOUND('',#511,.T.);
#574=FACE_BOUND('',#512,.T.);
#575=FACE_BOUND('',#513,.T.);
#576=FACE_BOUND('',#514,.T.);
#577=FACE_BOUND('',#515,.T.);
#578=FACE_BOUND('',#516,.T.);
#579=FACE_BOUND('',#517,.T.);
#580=FACE_BOUND('',#518,.T.);
#581=FACE_BOUND('',#519,.T.);
#582=FACE_BOUND('',#520,.T.);
#583=FACE_BOUND('',#521,.T.);
#584=FACE_BOUND('',#522,.T.);
#585=FACE_BOUND('',#523,.T.);
#586=FACE_BOUND('',#524,.T.);
#587=FACE_BOUND('',#525,.T.);
#588=FACE_BOUND('',#526,.T.);
#589=FACE_BOUND('',#527,.T.);
#590=FACE_BOUND('',#528,.T.);
#591=FACE_BOUND('',#529,.T.);
#592=FACE_BOUND('',#530,.T.);
#593=FACE_BOUND('',#531,.T.);
#594=FACE_BOUND('',#532,.T.);
#595=FACE_BOUND('',#533,.T.);
#596=FACE_BOUND('',#534,.T.);
#597=FACE_BOUND('',#535,.T.);
#598=FACE_BOUND('',#536,.T.);
#599=FACE_BOUND('',#537,.T.);
#600=FACE_BOUND('',#538,.T.);
#601=FACE_BOUND('',#539,.T.);
#602=FACE_BOUND('',#540,.T.);
#603=PLANE('',#684);
#604=PLANE('',#685);
#605=PLANE('',#686);
#606=PLANE('',#687);
#607=PLANE('',#689);
#608=PLANE('',#690);
#609=PLANE('',#694);
#610=PLANE('',#697);
#611=PLANE('',#699);
#612=PLANE('',#705);
#613=PLANE('',#710);
#614=PLANE('',#711);
#615=PLANE('',#712);
#616=PLANE('',#713);
#617=PLANE('',#714);
#618=PLANE('',#715);
#619=PLANE('',#716);
#620=PLANE('',#717);
#621=PLANE('',#718);
#622=PLANE('',#720);
#623=PLANE('',#722);
#624=PLANE('',#723);
#625=PLANE('',#725);
#626=PLANE('',#729);
#627=PLANE('',#732);
#628=PLANE('',#735);
#629=PLANE('',#738);
#630=PLANE('',#739);
#631=PLANE('',#740);
#632=ADVANCED_FACE('',(#541),#603,.F.);
#633=ADVANCED_FACE('',(#542),#604,.F.);
#634=ADVANCED_FACE('',(#543),#605,.T.);
#635=ADVANCED_FACE('',(#544,#545),#606,.F.);
#636=ADVANCED_FACE('',(#546),#607,.F.);
#637=ADVANCED_FACE('',(#547),#608,.T.);
#638=ADVANCED_FACE('',(#548,#549),#13,.F.);
#639=ADVANCED_FACE('',(#550),#609,.F.);
#640=ADVANCED_FACE('',(#551,#552),#14,.F.);
#641=ADVANCED_FACE('',(#553,#554,#555),#610,.T.);
#642=ADVANCED_FACE('',(#556,#557,#558,#559,#560,#561),#611,.F.);
#643=ADVANCED_FACE('',(#562,#563,#564),#612,.F.);
#644=ADVANCED_FACE('',(#565,#566),#15,.F.);
#645=ADVANCED_FACE('',(#567),#613,.F.);
#646=ADVANCED_FACE('',(#568),#614,.F.);
#647=ADVANCED_FACE('',(#569),#615,.T.);
#648=ADVANCED_FACE('',(#570),#616,.T.);
#649=ADVANCED_FACE('',(#571),#617,.T.);
#650=ADVANCED_FACE('',(#572),#618,.F.);
#651=ADVANCED_FACE('',(#573),#619,.F.);
#652=ADVANCED_FACE('',(#574),#620,.T.);
#653=ADVANCED_FACE('',(#575,#576),#621,.T.);
#654=ADVANCED_FACE('',(#577,#578),#622,.T.);
#655=ADVANCED_FACE('',(#579,#580),#623,.T.);
#656=ADVANCED_FACE('',(#581),#624,.T.);
#657=ADVANCED_FACE('',(#582,#583),#16,.F.);
#658=ADVANCED_FACE('',(#584),#625,.T.);
#659=ADVANCED_FACE('',(#585,#586),#17,.F.);
#660=ADVANCED_FACE('',(#587,#588),#18,.F.);
#661=ADVANCED_FACE('',(#589),#626,.T.);
#662=ADVANCED_FACE('',(#590,#591),#19,.F.);
#663=ADVANCED_FACE('',(#592),#627,.T.);
#664=ADVANCED_FACE('',(#593,#594),#20,.F.);
#665=ADVANCED_FACE('',(#595),#628,.T.);
#666=ADVANCED_FACE('',(#596,#597),#21,.F.);
#667=ADVANCED_FACE('',(#598),#629,.T.);
#668=ADVANCED_FACE('',(#599),#630,.F.);
#669=ADVANCED_FACE('',(#600),#631,.T.);
#670=ADVANCED_FACE('',(#601,#602),#12,.F.);
#671=CLOSED_SHELL('',(#632,#633,#634,#635,#636,#637,#638,#639,#640,#641,
#642,#643,#644,#645,#646,#647,#648,#649,#650,#651,#652,#653,#654,#655,#656,
#657,#658,#659,#660,#661,#662,#663,#664,#665,#666,#667,#668,#669,#670));
#672=STYLED_ITEM('',(#673),#680);
#673=PRESENTATION_STYLE_ASSIGNMENT((#674));
#674=SURFACE_STYLE_USAGE(.BOTH.,#675);
#675=SURFACE_SIDE_STYLE('',(#676));
#676=SURFACE_STYLE_FILL_AREA(#677);
#677=FILL_AREA_STYLE('',(#678));
#678=FILL_AREA_STYLE_COLOUR('',#679);
#679=COLOUR_RGB('',0.866666666666667,0.32156862745098,0.156862745098039);
#680=MANIFOLD_SOLID_BREP('Lead Adapter',#671);
#681=SHAPE_DEFINITION_REPRESENTATION(#1114,#682);
#682=SHAPE_REPRESENTATION('Lead Adapter',(#683),#1109);
#683=AXIS2_PLACEMENT_3D('',#924,#742,#743);
#684=AXIS2_PLACEMENT_3D('',#925,#744,#745);
#685=AXIS2_PLACEMENT_3D('',#938,#752,#753);
#686=AXIS2_PLACEMENT_3D('',#951,#760,#761);
#687=AXIS2_PLACEMENT_3D('',#962,#768,#769);
#688=AXIS2_PLACEMENT_3D('',#975,#776,#777);
#689=AXIS2_PLACEMENT_3D('',#977,#778,#779);
#690=AXIS2_PLACEMENT_3D('',#983,#783,#784);
#691=AXIS2_PLACEMENT_3D('',#994,#791,#792);
#692=AXIS2_PLACEMENT_3D('',#995,#793,#794);
#693=AXIS2_PLACEMENT_3D('',#997,#795,#796);
#694=AXIS2_PLACEMENT_3D('',#999,#797,#798);
#695=AXIS2_PLACEMENT_3D('',#1010,#805,#806);
#696=AXIS2_PLACEMENT_3D('',#1011,#807,#808);
#697=AXIS2_PLACEMENT_3D('',#1013,#809,#810);
#698=AXIS2_PLACEMENT_3D('',#1014,#811,#812);
#699=AXIS2_PLACEMENT_3D('',#1020,#817,#818);
#700=AXIS2_PLACEMENT_3D('',#1021,#819,#820);
#701=AXIS2_PLACEMENT_3D('',#1023,#821,#822);
#702=AXIS2_PLACEMENT_3D('',#1025,#823,#824);
#703=AXIS2_PLACEMENT_3D('',#1027,#825,#826);
#704=AXIS2_PLACEMENT_3D('',#1029,#827,#828);
#705=AXIS2_PLACEMENT_3D('',#1031,#829,#830);
#706=AXIS2_PLACEMENT_3D('',#1041,#836,#837);
#707=AXIS2_PLACEMENT_3D('',#1043,#838,#839);
#708=AXIS2_PLACEMENT_3D('',#1045,#840,#841);
#709=AXIS2_PLACEMENT_3D('',#1046,#842,#843);
#710=AXIS2_PLACEMENT_3D('',#1048,#844,#845);
#711=AXIS2_PLACEMENT_3D('',#1054,#849,#850);
#712=AXIS2_PLACEMENT_3D('',#1060,#854,#855);
#713=AXIS2_PLACEMENT_3D('',#1062,#857,#858);
#714=AXIS2_PLACEMENT_3D('',#1064,#860,#861);
#715=AXIS2_PLACEMENT_3D('',#1065,#862,#863);
#716=AXIS2_PLACEMENT_3D('',#1066,#864,#865);
#717=AXIS2_PLACEMENT_3D('',#1067,#866,#867);
#718=AXIS2_PLACEMENT_3D('',#1068,#868,#869);
#719=AXIS2_PLACEMENT_3D('',#1069,#870,#871);
#720=AXIS2_PLACEMENT_3D('',#1074,#874,#875);
#721=AXIS2_PLACEMENT_3D('',#1075,#876,#877);
#722=AXIS2_PLACEMENT_3D('',#1080,#880,#881);
#723=AXIS2_PLACEMENT_3D('',#1083,#884,#885);
#724=AXIS2_PLACEMENT_3D('',#1085,#887,#888);
#725=AXIS2_PLACEMENT_3D('',#1086,#889,#890);
#726=AXIS2_PLACEMENT_3D('',#1088,#892,#893);
#727=AXIS2_PLACEMENT_3D('',#1089,#894,#895);
#728=AXIS2_PLACEMENT_3D('',#1090,#896,#897);
#729=AXIS2_PLACEMENT_3D('',#1092,#898,#899);
#730=AXIS2_PLACEMENT_3D('',#1093,#900,#901);
#731=AXIS2_PLACEMENT_3D('',#1094,#902,#903);
#732=AXIS2_PLACEMENT_3D('',#1096,#904,#905);
#733=AXIS2_PLACEMENT_3D('',#1097,#906,#907);
#734=AXIS2_PLACEMENT_3D('',#1098,#908,#909);
#735=AXIS2_PLACEMENT_3D('',#1100,#910,#911);
#736=AXIS2_PLACEMENT_3D('',#1101,#912,#913);
#737=AXIS2_PLACEMENT_3D('',#1102,#914,#915);
#738=AXIS2_PLACEMENT_3D('',#1104,#916,#917);
#739=AXIS2_PLACEMENT_3D('',#1105,#918,#919);
#740=AXIS2_PLACEMENT_3D('',#1106,#920,#921);
#741=AXIS2_PLACEMENT_3D('',#1107,#922,#923);
#742=DIRECTION('',(0.,0.,1.));
#743=DIRECTION('',(1.,0.,0.));
#744=DIRECTION('',(0.,-1.,6.03382078600629E-17));
#745=DIRECTION('',(1.,0.,0.));
#746=DIRECTION('',(-1.22712018435293E-32,-6.03382078600629E-17,-1.));
#747=DIRECTION('',(1.,1.39560140897626E-32,2.31296463463574E-16));
#748=DIRECTION('',(0.707106781186548,-4.26655559424939E-17,-0.707106781186548));
#749=DIRECTION('',(0.,0.,1.));
#750=DIRECTION('',(-0.707106781186546,4.2665555942494E-17,0.707106781186549));
#751=DIRECTION('',(-1.,0.,0.));
#752=DIRECTION('',(0.,-1.,6.03382078600629E-17));
#753=DIRECTION('',(1.,0.,0.));
#754=DIRECTION('',(-1.22712018435293E-32,-6.03382078600629E-17,-1.));
#755=DIRECTION('',(-1.,0.,0.));
#756=DIRECTION('',(0.707106781186546,4.26655559424939E-17,0.707106781186549));
#757=DIRECTION('',(0.,0.,-1.));
#758=DIRECTION('',(0.707106781186548,4.26655559424938E-17,0.707106781186547));
#759=DIRECTION('',(1.,1.11211987277796E-32,1.84314369322536E-16));
#760=DIRECTION('',(1.,0.,0.));
#761=DIRECTION('',(0.,-1.,0.));
#762=DIRECTION('',(0.,-1.,6.03382078600629E-17));
#763=DIRECTION('',(0.,6.03382078600629E-17,1.));
#764=DIRECTION('',(0.,1.,-6.03382078600629E-17));
#765=DIRECTION('',(0.,1.,-2.16840434497101E-16));
#766=DIRECTION('',(0.,6.03382078600629E-17,1.));
#767=DIRECTION('',(0.,-1.,2.89120579329468E-16));
#768=DIRECTION('',(0.,-1.,6.03382078600629E-17));
#769=DIRECTION('',(1.,0.,0.));
#770=DIRECTION('',(1.,1.39560140897626E-32,2.31296463463574E-16));
#771=DIRECTION('',(0.,6.03382078600629E-17,1.));
#772=DIRECTION('',(1.,1.11211987277796E-32,1.84314369322536E-16));
#773=DIRECTION('',(-0.707106781186548,4.26655559424938E-17,0.707106781186547));
#774=DIRECTION('',(0.,6.03382078600629E-17,1.));
#775=DIRECTION('',(-0.707106781186548,-4.26655559424939E-17,-0.707106781186548));
#776=DIRECTION('',(0.,-1.,6.03382078600629E-17));
#777=DIRECTION('',(0.,-6.03382078600629E-17,-1.));
#778=DIRECTION('',(1.,0.,0.));
#779=DIRECTION('',(0.,-1.,0.));
#780=DIRECTION('',(0.,6.03382078600629E-17,1.));
#781=DIRECTION('',(0.,1.,-6.03382078600629E-17));
#782=DIRECTION('',(0.,-1.,6.03382078600629E-17));
#783=DIRECTION('',(1.84314369322536E-16,-6.03382078600629E-17,-1.));
#784=DIRECTION('',(-1.,0.,-1.84314369322536E-16));
#785=DIRECTION('',(6.12323399573677E-17,1.,1.73497086255096E-16));
#786=DIRECTION('',(1.,-6.12323399573677E-17,1.84314369322536E-16));
#787=DIRECTION('',(6.12323399573677E-17,1.,1.73497086255096E-16));
#788=DIRECTION('',(0.,-1.,6.03382078600629E-17));
#789=DIRECTION('',(1.,1.11211987277796E-32,1.84314369322536E-16));
#790=DIRECTION('',(0.,1.,-6.03382078600629E-17));
#791=DIRECTION('',(0.,-1.,6.03382078600629E-17));
#792=DIRECTION('',(0.,-6.03382078600629E-17,-1.));
#793=DIRECTION('',(0.,-1.,6.03382078600629E-17));
#794=DIRECTION('',(0.,-6.03382078600629E-17,-1.));
#795=DIRECTION('',(0.,-1.,6.03382078600629E-17));
#796=DIRECTION('',(0.,-6.03382078600629E-17,-1.));
#797=DIRECTION('',(2.31296463463574E-16,-6.03382078600629E-17,-1.));
#798=DIRECTION('',(-1.,0.,-2.31296463463574E-16));
#799=DIRECTION('',(6.12323399573677E-17,1.,-5.25162359202431E-49));
#800=DIRECTION('',(-1.,6.12323399573677E-17,-2.31296463463574E-16));
#801=DIRECTION('',(6.12323399573677E-17,1.,-5.25162359202431E-49));
#802=DIRECTION('',(0.,-1.,6.03382078600629E-17));
#803=DIRECTION('',(1.,1.39560140897626E-32,2.31296463463574E-16));
#804=DIRECTION('',(0.,1.,-6.03382078600629E-17));
#805=DIRECTION('',(0.,-1.,6.03382078600629E-17));
#806=DIRECTION('',(0.,-6.03382078600629E-17,-1.));
#807=DIRECTION('',(0.,-1.,0.));
#808=DIRECTION('',(-1.,0.,0.));
#809=DIRECTION('',(0.,-1.,6.03382078600629E-17));
#810=DIRECTION('',(1.,0.,0.));
#811=DIRECTION('',(0.,-1.,6.03382078600629E-17));
#812=DIRECTION('',(0.,-6.03382078600629E-17,-1.));
#813=DIRECTION('',(-0.707106781186548,4.26655559424939E-17,0.707106781186548));
#814=DIRECTION('',(0.707106781186548,4.26655559424939E-17,0.707106781186548));
#815=DIRECTION('',(0.707106781186548,-4.26655559424938E-17,-0.707106781186547));
#816=DIRECTION('',(-0.707106781186548,-4.26655559424938E-17,-0.707106781186547));
#817=DIRECTION('',(0.,1.,-6.03382078600629E-17));
#818=DIRECTION('',(1.,0.,0.));
#819=DIRECTION('',(0.,1.,-6.03382078600629E-17));
#820=DIRECTION('',(0.,6.03382078600629E-17,1.));
#821=DIRECTION('',(0.,1.,-6.03382078600629E-17));
#822=DIRECTION('',(0.,6.03382078600629E-17,1.));
#823=DIRECTION('',(0.,1.,-6.03382078600629E-17));
#824=DIRECTION('',(0.,6.03382078600629E-17,1.));
#825=DIRECTION('',(0.,1.,-6.03382078600629E-17));
#826=DIRECTION('',(0.,6.03382078600629E-17,1.));
#827=DIRECTION('',(0.,1.,-6.03382078600629E-17));
#828=DIRECTION('',(0.,6.03382078600629E-17,1.));
#829=DIRECTION('',(1.,0.,0.));
#830=DIRECTION('',(0.,-1.,0.));
#831=DIRECTION('',(-8.57655218742367E-33,5.25162359202431E-49,-1.));
#832=DIRECTION('',(0.,0.707106781186547,0.707106781186549));
#833=DIRECTION('',(0.,0.707106781186549,-0.707106781186547));
#834=DIRECTION('',(-8.57655218742367E-33,5.25162359202431E-49,-1.));
#835=DIRECTION('',(0.,6.03382078600629E-17,1.));
#836=DIRECTION('',(1.,-6.12323399573677E-17,-8.57655218742367E-33));
#837=DIRECTION('',(-6.12323399573677E-17,-1.,0.));
#838=DIRECTION('',(1.,-6.12323399573677E-17,-8.57655218742367E-33));
#839=DIRECTION('',(-6.12323399573677E-17,-1.,0.));
#840=DIRECTION('',(0.,-1.,6.03382078600629E-17));
#841=DIRECTION('',(0.,-6.03382078600629E-17,-1.));
#842=DIRECTION('',(0.,1.,-6.03382078600629E-17));
#843=DIRECTION('',(0.,6.03382078600629E-17,1.));
#844=DIRECTION('',(0.,-2.89120579329468E-16,-1.));
#845=DIRECTION('',(0.,1.,-2.89120579329468E-16));
#846=DIRECTION('',(0.,1.,-2.89120579329468E-16));
#847=DIRECTION('',(-1.,0.,0.));
#848=DIRECTION('',(6.12323399573677E-17,1.,-6.03382078600629E-17));
#849=DIRECTION('',(0.,2.16840434497101E-16,1.));
#850=DIRECTION('',(0.,-1.,2.16840434497101E-16));
#851=DIRECTION('',(6.12323399573677E-17,1.,-2.16840434497101E-16));
#852=DIRECTION('',(-1.,0.,0.));
#853=DIRECTION('',(0.,-1.,2.16840434497101E-16));
#854=DIRECTION('',(0.707106781186549,2.04439122224449E-16,0.707106781186546));
#855=DIRECTION('',(0.,-1.,2.89120579329468E-16));
#856=DIRECTION('',(0.707106781186546,-4.2665555942494E-17,-0.707106781186549));
#857=DIRECTION('',(0.707106781186549,-1.53329341668337E-16,-0.707106781186546));
#858=DIRECTION('',(0.,1.,-2.16840434497101E-16));
#859=DIRECTION('',(-0.707106781186546,-4.26655559424939E-17,-0.707106781186549));
#860=DIRECTION('',(0.707106781186548,4.26655559424939E-17,0.707106781186548));
#861=DIRECTION('',(0.,1.,-6.03382078600629E-17));
#862=DIRECTION('',(-0.707106781186547,4.26655559424939E-17,0.707106781186548));
#863=DIRECTION('',(0.,-1.,6.03382078600629E-17));
#864=DIRECTION('',(0.707106781186548,-4.26655559424939E-17,-0.707106781186548));
#865=DIRECTION('',(0.,-1.,6.03382078600629E-17));
#866=DIRECTION('',(-0.707106781186547,-4.26655559424939E-17,-0.707106781186548));
#867=DIRECTION('',(0.,1.,-6.03382078600629E-17));
#868=DIRECTION('',(1.,-6.12323399573677E-17,-8.57655218742367E-33));
#869=DIRECTION('',(-8.57655218742367E-33,5.25162359202431E-49,-1.));
#870=DIRECTION('',(1.,-6.12323399573677E-17,-8.57655218742367E-33));
#871=DIRECTION('',(-6.12323399573677E-17,-1.,0.));
#872=DIRECTION('',(-8.57655218742367E-33,5.25162359202431E-49,-1.));
#873=DIRECTION('',(-4.32978028117747E-17,-0.707106781186549,0.707106781186547));
#874=DIRECTION('',(1.,-6.12323399573677E-17,-8.57655218742367E-33));
#875=DIRECTION('',(-8.57655218742367E-33,5.25162359202431E-49,-1.));
#876=DIRECTION('',(1.,-6.12323399573677E-17,-8.57655218742367E-33));
#877=DIRECTION('',(-6.12323399573677E-17,-1.,0.));
#878=DIRECTION('',(-4.32978028117746E-17,-0.707106781186547,-0.707106781186549));
#879=DIRECTION('',(-8.57655218742367E-33,5.25162359202431E-49,-1.));
#880=DIRECTION('',(0.,1.,-6.03382078600629E-17));
#881=DIRECTION('',(1.,0.,0.));
#882=DIRECTION('',(-1.,0.,0.));
#883=DIRECTION('',(-1.,0.,0.));
#884=DIRECTION('',(6.12323399573677E-17,1.,5.93472984109987E-65));
#885=DIRECTION('',(1.,-6.12323399573677E-17,0.));
#886=DIRECTION('',(-1.,6.12323399573677E-17,-1.84314369322536E-16));
#887=DIRECTION('',(-1.,6.12323399573677E-17,8.57655218742367E-33));
#888=DIRECTION('',(6.12323399573677E-17,1.,0.));
#889=DIRECTION('',(6.12323399573677E-17,1.,5.93472984109987E-65));
#890=DIRECTION('',(1.,-6.12323399573677E-17,0.));
#891=DIRECTION('',(1.,-6.12323399573677E-17,2.31296463463574E-16));
#892=DIRECTION('',(-1.,6.12323399573677E-17,8.57655218742367E-33));
#893=DIRECTION('',(6.12323399573677E-17,1.,0.));
#894=DIRECTION('',(0.,-1.,6.03382078600629E-17));
#895=DIRECTION('',(0.,-6.03382078600629E-17,-1.));
#896=DIRECTION('',(0.,-1.,6.03382078600629E-17));
#897=DIRECTION('',(0.,-6.03382078600629E-17,-1.));
#898=DIRECTION('',(0.,-1.,6.03382078600629E-17));
#899=DIRECTION('',(1.,0.,0.));
#900=DIRECTION('',(0.,-1.,6.03382078600629E-17));
#901=DIRECTION('',(0.,-6.03382078600629E-17,-1.));
#902=DIRECTION('',(0.,-1.,6.03382078600629E-17));
#903=DIRECTION('',(0.,-6.03382078600629E-17,-1.));
#904=DIRECTION('',(0.,-1.,6.03382078600629E-17));
#905=DIRECTION('',(1.,0.,0.));
#906=DIRECTION('',(0.,-1.,6.03382078600629E-17));
#907=DIRECTION('',(0.,-6.03382078600629E-17,-1.));
#908=DIRECTION('',(0.,-1.,6.03382078600629E-17));
#909=DIRECTION('',(0.,-6.03382078600629E-17,-1.));
#910=DIRECTION('',(0.,-1.,6.03382078600629E-17));
#911=DIRECTION('',(1.,0.,0.));
#912=DIRECTION('',(0.,-1.,6.03382078600629E-17));
#913=DIRECTION('',(0.,-6.03382078600629E-17,-1.));
#914=DIRECTION('',(0.,-1.,6.03382078600629E-17));
#915=DIRECTION('',(0.,-6.03382078600629E-17,-1.));
#916=DIRECTION('',(0.,-1.,6.03382078600629E-17));
#917=DIRECTION('',(1.,0.,0.));
#918=DIRECTION('',(-1.73627743229861E-16,-0.707106781186549,0.707106781186547));
#919=DIRECTION('',(-1.,6.12323399573677E-17,-1.84314369322536E-16));
#920=DIRECTION('',(-1.20253494967786E-16,0.707106781186547,0.707106781186549));
#921=DIRECTION('',(1.,-6.12323399573677E-17,2.31296463463574E-16));
#922=DIRECTION('',(0.,-1.,0.));
#923=DIRECTION('',(-1.,0.,0.));
#924=CARTESIAN_POINT('',(0.,0.,0.));
#925=CARTESIAN_POINT('',(-0.0402558547438108,0.171403727770383,0.0185));
#926=CARTESIAN_POINT('',(0.124744145256189,0.171403727770383,0.0187336882516528));
#927=CARTESIAN_POINT('',(0.124744145256189,0.171402576826773,0.0385));
#928=CARTESIAN_POINT('',(0.124744145256189,0.171403727770383,0.0305));
#929=CARTESIAN_POINT('',(0.129744145256189,0.171403727770383,0.0385));
#930=CARTESIAN_POINT('',(0.156744145256189,0.171403727770383,0.0385));
#931=CARTESIAN_POINT('',(0.159744145256189,0.171403727770383,0.0355));
#932=CARTESIAN_POINT('',(0.159744145256189,0.171403727770383,0.0355));
#933=CARTESIAN_POINT('',(0.159744145256189,0.171403727770383,0.0185));
#934=CARTESIAN_POINT('',(0.159744145256189,0.171403727770383,0.0255));
#935=CARTESIAN_POINT('',(0.0632441452561896,0.171403727770383,0.122));
#936=CARTESIAN_POINT('',(0.154744145256189,0.171403727770383,0.0305));
#937=CARTESIAN_POINT('',(0.610612641961041,0.171403727770383,0.0305));
#938=CARTESIAN_POINT('',(-0.0402558547438108,0.171403727770383,0.0185));
#939=CARTESIAN_POINT('',(0.124744145256189,0.171403727770383,0.0187336882516528));
#940=CARTESIAN_POINT('',(0.124744145256189,0.171403727770383,0.0065));
#941=CARTESIAN_POINT('',(0.124744145256189,0.171402576826773,-0.00150000000000011));
#942=CARTESIAN_POINT('',(0.610612641961041,0.171403727770383,0.0065));
#943=CARTESIAN_POINT('',(0.154744145256189,0.171403727770383,0.0065));
#944=CARTESIAN_POINT('',(0.0632441452561895,0.171403727770383,-0.085));
#945=CARTESIAN_POINT('',(0.159744145256189,0.171403727770383,0.0115));
#946=CARTESIAN_POINT('',(0.159744145256189,0.171403727770383,0.0185));
#947=CARTESIAN_POINT('',(0.159744145256189,0.171403727770383,0.00149999999999989));
#948=CARTESIAN_POINT('',(0.156744145256189,0.171403727770383,-0.00150000000000011));
#949=CARTESIAN_POINT('',(0.156744145256189,0.171403727770383,-0.00150000000000011));
#950=CARTESIAN_POINT('',(0.129744145256189,0.171403727770383,-0.00150000000000011));
#951=CARTESIAN_POINT('',(0.159744145256189,0.171403727770383,0.0185));
#952=CARTESIAN_POINT('',(0.159744145256189,0.168203727770383,0.0355));
#953=CARTESIAN_POINT('',(0.159744145256189,0.168203727770383,0.0355));
#954=CARTESIAN_POINT('',(0.159744145256189,0.168203727770383,0.0185));
#955=CARTESIAN_POINT('',(0.159744145256189,0.168203727770383,0.00149999999999989));
#956=CARTESIAN_POINT('',(0.159744145256189,0.171403727770383,0.00149999999999989));
#957=CARTESIAN_POINT('',(0.159744145256189,0.183403727770382,0.0115));
#958=CARTESIAN_POINT('',(0.159744145256189,0.191403727770383,0.0115));
#959=CARTESIAN_POINT('',(0.159744145256189,0.191403727770383,0.0185));
#960=CARTESIAN_POINT('',(0.159744145256189,0.191403727770383,0.0255));
#961=CARTESIAN_POINT('',(0.159744145256189,0.171403727770383,0.0255));
#962=CARTESIAN_POINT('',(-0.0402558547438108,0.171403727770383,0.0185));
#963=CARTESIAN_POINT('',(0.129744145256189,0.171403727770383,0.0385));
#964=CARTESIAN_POINT('',(0.102744145256189,0.171403727770383,0.0385));
#965=CARTESIAN_POINT('',(0.119744145256189,0.171402576826773,0.0385));
#966=CARTESIAN_POINT('',(0.119744145256189,0.171403727770383,0.0185));
#967=CARTESIAN_POINT('',(0.119744145256189,0.171402576826773,-0.00150000000000011));
#968=CARTESIAN_POINT('',(0.129744145256189,0.171403727770383,-0.00150000000000011));
#969=CARTESIAN_POINT('',(0.102744145256189,0.171403727770383,-0.00150000000000012));
#970=CARTESIAN_POINT('',(0.0997441452561892,0.171403727770383,0.00149999999999988));
#971=CARTESIAN_POINT('',(0.0997441452561892,0.171403727770383,0.00149999999999988));
#972=CARTESIAN_POINT('',(0.0997441452561892,0.171403727770383,0.0185));
#973=CARTESIAN_POINT('',(0.0997441452561892,0.171403727770383,0.0355));
#974=CARTESIAN_POINT('',(0.102744145256189,0.171403727770383,0.0385));
#975=CARTESIAN_POINT('',(0.109744145256189,0.171403727770383,0.0185));
#976=CARTESIAN_POINT('',(0.109744145256189,0.171403727770383,0.016));
#977=CARTESIAN_POINT('',(0.0997441452561892,0.171403727770383,0.0185));
#978=CARTESIAN_POINT('',(0.0997441452561892,0.168203727770383,0.0185));
#979=CARTESIAN_POINT('',(0.0997441452561892,0.168203727770383,0.00149999999999988));
#980=CARTESIAN_POINT('',(0.0997441452561892,0.168203727770383,0.0355));
#981=CARTESIAN_POINT('',(0.0997441452561892,0.171403727770383,0.0355));
#982=CARTESIAN_POINT('',(0.0997441452561892,0.168203727770383,0.00149999999999988));
#983=CARTESIAN_POINT('',(0.129744145256189,0.171403727770383,-0.00150000000000011));
#984=CARTESIAN_POINT('',(0.119744145256189,0.1814,-0.00150000000000011));
#985=CARTESIAN_POINT('',(0.119744145256189,0.188398574116837,-0.00150000000000011));
#986=CARTESIAN_POINT('',(0.129744145256189,0.188398574116837,-0.00150000000000011));
#987=CARTESIAN_POINT('',(0.124744145256189,0.188398574116837,-0.00150000000000011));
#988=CARTESIAN_POINT('',(0.124744145256189,0.1814,-0.00150000000000011));
#989=CARTESIAN_POINT('',(0.156744145256189,0.171403727770383,-0.00150000000000011));
#990=CARTESIAN_POINT('',(0.156744145256189,0.168203727770383,-0.00150000000000011));
#991=CARTESIAN_POINT('',(0.129744145256189,0.168203727770383,-0.00150000000000011));
#992=CARTESIAN_POINT('',(0.102744145256189,0.168203727770383,-0.00150000000000012));
#993=CARTESIAN_POINT('',(0.102744145256189,0.171403727770383,-0.00150000000000012));
#994=CARTESIAN_POINT('',(0.141955178741093,0.171403727770383,0.0185));
#995=CARTESIAN_POINT('',(0.141955178741093,0.171403727770383,0.0185));
#996=CARTESIAN_POINT('',(0.141955178741093,0.171403727770383,0.0075));
#997=CARTESIAN_POINT('',(0.141955178741093,0.168203727770383,0.0185));
#998=CARTESIAN_POINT('',(0.141955178741093,0.168203727770383,0.0075));
#999=CARTESIAN_POINT('',(0.129744145256189,0.171403727770383,0.0385));
#1000=CARTESIAN_POINT('',(0.124744145256189,0.1814,0.0385));
#1001=CARTESIAN_POINT('',(0.124744145256189,0.188398574116837,0.0385));
#1002=CARTESIAN_POINT('',(0.119744145256189,0.188398574116837,0.0385));
#1003=CARTESIAN_POINT('',(0.119744145256189,0.188398574116837,0.0385));
#1004=CARTESIAN_POINT('',(0.119744145256189,0.1814,0.0385));
#1005=CARTESIAN_POINT('',(0.102744145256189,0.171403727770383,0.0385));
#1006=CARTESIAN_POINT('',(0.102744145256189,0.168203727770383,0.0385));
#1007=CARTESIAN_POINT('',(0.129744145256189,0.168203727770383,0.0385));
#1008=CARTESIAN_POINT('',(0.156744145256189,0.168203727770383,0.0385));
#1009=CARTESIAN_POINT('',(0.156744145256189,0.171403727770383,0.0385));
#1010=CARTESIAN_POINT('',(0.109744145256189,0.171403727770383,0.0185));
#1011=CARTESIAN_POINT('',(0.109744145256189,0.170203727770383,0.0185));
#1012=CARTESIAN_POINT('',(0.107244145256189,0.170203727770383,0.0185));
#1013=CARTESIAN_POINT('',(-0.0402558547438108,0.168203727770383,0.0185));
#1014=CARTESIAN_POINT('',(0.109744145256189,0.168203727770383,0.0185));
#1015=CARTESIAN_POINT('',(0.109744145256189,0.168203727770383,0.014));
#1016=CARTESIAN_POINT('',(0.0682441452561892,0.168203727770383,0.127));
#1017=CARTESIAN_POINT('',(0.0212441452561892,0.168203727770383,-0.043));
#1018=CARTESIAN_POINT('',(0.021244145256189,0.168203727770383,0.08));
#1019=CARTESIAN_POINT('',(0.0682441452561891,0.168203727770383,-0.09));
#1020=CARTESIAN_POINT('',(-0.0402558547438108,0.171403727770383,0.0185));
#1021=CARTESIAN_POINT('',(0.141955178741093,0.171403727770383,0.0265));
#1022=CARTESIAN_POINT('',(0.141955178741093,0.171403727770383,0.0286877080759709));
#1023=CARTESIAN_POINT('',(0.133955178741093,0.171403727770383,0.0185));
#1024=CARTESIAN_POINT('',(0.133955178741093,0.171403727770383,0.02025));
#1025=CARTESIAN_POINT('',(0.149955178741093,0.171403727770383,0.0185));
#1026=CARTESIAN_POINT('',(0.149955178741093,0.171403727770383,0.02025));
#1027=CARTESIAN_POINT('',(0.141955178741093,0.171403727770383,0.0104999999999999));
#1028=CARTESIAN_POINT('',(0.141955178741093,0.171403727770383,0.0122499999999999));
#1029=CARTESIAN_POINT('',(0.141955178741093,0.171403727770383,0.0185));
#1030=CARTESIAN_POINT('',(0.141955178741093,0.171403727770383,0.0235));
#1031=CARTESIAN_POINT('',(0.119744145256189,0.183403727770382,0.0185));
#1032=CARTESIAN_POINT('',(0.119744145256189,0.191398574116837,0.0185));
#1033=CARTESIAN_POINT('',(0.119744145256189,0.19140115094361,0.0065));
#1034=CARTESIAN_POINT('',(0.119744145256189,0.191398574116837,0.00149999999999989));
#1035=CARTESIAN_POINT('',(0.119744145256189,0.191398574116837,0.00149999999999989));
#1036=CARTESIAN_POINT('',(0.119744145256189,0.188398574116837,0.0385));
#1037=CARTESIAN_POINT('',(0.119744145256189,0.191398574116837,0.0355));
#1038=CARTESIAN_POINT('',(0.119744145256189,0.191398574116837,0.0185));
#1039=CARTESIAN_POINT('',(0.119744145256189,0.19140115094361,0.0305));
#1040=CARTESIAN_POINT('',(0.119744145256189,0.191403727770383,0.0185));
#1041=CARTESIAN_POINT('',(0.119744145256189,0.1814,0.00299999999999989));
#1042=CARTESIAN_POINT('',(0.119744145256189,0.1789,0.00299999999999989));
#1043=CARTESIAN_POINT('',(0.119744145256189,0.1814,0.034));
#1044=CARTESIAN_POINT('',(0.119744145256189,0.1789,0.034));
#1045=CARTESIAN_POINT('',(0.141955178741093,0.183403727770382,0.0185));
#1046=CARTESIAN_POINT('',(0.141955178741093,0.191403727770383,0.0185));
#1047=CARTESIAN_POINT('',(0.141955178741093,0.191403727770383,0.0235));
#1048=CARTESIAN_POINT('',(0.610612641961041,0.177403727770383,0.0305));
#1049=CARTESIAN_POINT('',(0.154744145256189,0.183403727770382,0.0305));
#1050=CARTESIAN_POINT('',(0.154744145256189,0.191403727770383,0.0305));
#1051=CARTESIAN_POINT('',(0.610612641961041,0.191403727770383,0.0305));
#1052=CARTESIAN_POINT('',(0.124744145256189,0.19140115094361,0.0305));
#1053=CARTESIAN_POINT('',(0.124744145256189,0.191403727770383,0.0305));
#1054=CARTESIAN_POINT('',(0.610612641961041,0.177403727770383,0.0065));
#1055=CARTESIAN_POINT('',(0.124744145256189,0.177403727770383,0.0065));
#1056=CARTESIAN_POINT('',(0.124744145256189,0.19140115094361,0.0065));
#1057=CARTESIAN_POINT('',(0.610612641961041,0.191403727770383,0.0065));
#1058=CARTESIAN_POINT('',(0.154744145256189,0.191403727770383,0.0065));
#1059=CARTESIAN_POINT('',(0.154744145256189,0.171403727770383,0.0065));
#1060=CARTESIAN_POINT('',(0.154744145256189,0.177403727770383,0.0305));
#1061=CARTESIAN_POINT('',(0.0632441452561896,0.191403727770383,0.122));
#1062=CARTESIAN_POINT('',(0.154744145256189,0.177403727770383,0.0065));
#1063=CARTESIAN_POINT('',(0.0632441452561895,0.191403727770383,-0.085));
#1064=CARTESIAN_POINT('',(0.159744145256189,0.171403727770383,0.0355));
#1065=CARTESIAN_POINT('',(0.156744145256189,0.171403727770383,-0.00150000000000011));
#1066=CARTESIAN_POINT('',(0.102744145256189,0.171403727770383,0.0385));
#1067=CARTESIAN_POINT('',(0.0997441452561892,0.171403727770383,0.00149999999999988));
#1068=CARTESIAN_POINT('',(0.124744145256189,0.1814,0.0187336882516528));
#1069=CARTESIAN_POINT('',(0.124744145256189,0.1814,0.034));
#1070=CARTESIAN_POINT('',(0.124744145256189,0.1789,0.034));
#1071=CARTESIAN_POINT('',(0.124744145256189,0.191398574116837,0.0185));
#1072=CARTESIAN_POINT('',(0.124744145256189,0.191398574116837,0.0355));
#1073=CARTESIAN_POINT('',(0.124744145256189,0.194782442932592,0.0321161311842448));
#1074=CARTESIAN_POINT('',(0.124744145256189,0.1814,0.0187336882516528));
#1075=CARTESIAN_POINT('',(0.124744145256189,0.1814,0.00299999999999989));
#1076=CARTESIAN_POINT('',(0.124744145256189,0.1789,0.00299999999999989));
#1077=CARTESIAN_POINT('',(0.124744145256189,0.195016131184245,0.00511755706740793));
#1078=CARTESIAN_POINT('',(0.124744145256189,0.191398574116837,0.00149999999999989));
#1079=CARTESIAN_POINT('',(0.124744145256189,0.191398574116837,0.0185));
#1080=CARTESIAN_POINT('',(-0.0402558547438108,0.191403727770383,0.0185));
#1081=CARTESIAN_POINT('',(0.610612641961041,0.191403727770383,0.0065));
#1082=CARTESIAN_POINT('',(0.610612641961041,0.191403727770383,0.0305));
#1083=CARTESIAN_POINT('',(0.124744145256189,0.191398574116837,0.0185));
#1084=CARTESIAN_POINT('',(0.124744145256189,0.191398574116837,0.00149999999999989));
#1085=CARTESIAN_POINT('',(0.124744145256189,0.1814,0.00299999999999989));
#1086=CARTESIAN_POINT('',(0.124744145256189,0.191398574116837,0.0185));
#1087=CARTESIAN_POINT('',(0.124744145256189,0.191398574116837,0.0355));
#1088=CARTESIAN_POINT('',(0.124744145256189,0.1814,0.034));
#1089=CARTESIAN_POINT('',(0.141955178741093,0.176203727770383,0.0104999999999999));
#1090=CARTESIAN_POINT('',(0.141955178741093,0.176203727770383,0.0104999999999999));
#1091=CARTESIAN_POINT('',(0.141955178741093,0.176203727770383,0.00874999999999988));
#1092=CARTESIAN_POINT('',(-0.0442753380013588,0.176203727770383,0.0185));
#1093=CARTESIAN_POINT('',(0.149955178741093,0.176203727770383,0.0185));
#1094=CARTESIAN_POINT('',(0.149955178741093,0.176203727770383,0.0185));
#1095=CARTESIAN_POINT('',(0.149955178741093,0.176203727770383,0.01675));
#1096=CARTESIAN_POINT('',(-0.0442753380013588,0.176203727770383,0.0185));
#1097=CARTESIAN_POINT('',(0.133955178741093,0.176203727770383,0.0185));
#1098=CARTESIAN_POINT('',(0.133955178741093,0.176203727770383,0.0185));
#1099=CARTESIAN_POINT('',(0.133955178741093,0.176203727770383,0.01675));
#1100=CARTESIAN_POINT('',(-0.0442753380013588,0.176203727770383,0.0185));
#1101=CARTESIAN_POINT('',(0.141955178741093,0.176203727770383,0.0265));
#1102=CARTESIAN_POINT('',(0.141955178741093,0.176203727770383,0.0265));
#1103=CARTESIAN_POINT('',(0.141955178741093,0.176203727770383,0.0243122919240291));
#1104=CARTESIAN_POINT('',(-0.0442753380013588,0.176203727770383,0.0185));
#1105=CARTESIAN_POINT('',(0.124744145256189,0.191398574116837,0.00149999999999989));
#1106=CARTESIAN_POINT('',(0.129744145256189,0.188398574116837,0.0385));
#1107=CARTESIAN_POINT('',(0.109744145256189,0.170203727770383,0.0185));
#1108=MECHANICAL_DESIGN_GEOMETRIC_PRESENTATION_REPRESENTATION('',(#672),
#1109);
#1109=(
GEOMETRIC_REPRESENTATION_CONTEXT(3)
GLOBAL_UNCERTAINTY_ASSIGNED_CONTEXT((#1110))
GLOBAL_UNIT_ASSIGNED_CONTEXT((#1113,#1112,#1111))
REPRESENTATION_CONTEXT('Lead Adapter','TOP_LEVEL_ASSEMBLY_PART')
);
#1110=UNCERTAINTY_MEASURE_WITH_UNIT(LENGTH_MEASURE(2.51536535458285E-5),
#1113,'DISTANCE_ACCURACY_VALUE','Maximum Tolerance applied to model');
#1111=(
NAMED_UNIT(*)
SI_UNIT($,.STERADIAN.)
SOLID_ANGLE_UNIT()
);
#1112=(
NAMED_UNIT(*)
PLANE_ANGLE_UNIT()
SI_UNIT($,.RADIAN.)
);
#1113=(
LENGTH_UNIT()
NAMED_UNIT(*)
SI_UNIT($,.METRE.)
);
#1114=PRODUCT_DEFINITION_SHAPE('','',#1115);
#1115=PRODUCT_DEFINITION('','',#1117,#1116);
#1116=PRODUCT_DEFINITION_CONTEXT('',#1123,'design');
#1117=PRODUCT_DEFINITION_FORMATION_WITH_SPECIFIED_SOURCE('','',#1119,
 .NOT_KNOWN.);
#1118=PRODUCT_RELATED_PRODUCT_CATEGORY('','',(#1119));
#1119=PRODUCT('Lead Adapter','Lead Adapter','Lead Adapter',(#1121));
#1120=PRODUCT_CATEGORY('','');
#1121=PRODUCT_CONTEXT('',#1123,'mechanical');
#1122=APPLICATION_PROTOCOL_DEFINITION('international standard',
'ap242_managed_model_based_3d_engineering',2020,#1123);
#1123=APPLICATION_CONTEXT('managed model based 3d engineering');
ENDSEC;
END-ISO-10303-21;
