ISO-10303-21;
HEADER;
/* Generated by software containing ST-Developer
 * from STEP Tools, Inc. (www.steptools.com) 
 */
/* OPTION: using custom renumber hook */

FILE_DESCRIPTION(
/* description */ ('STEP AP242 Edition 2',
'CAx-IF Rec.Pracs.---Representation and Presentation of Product Manufa
cturing Information (PMI)---4.0---2014-10-13',
'CAx-IF Rec.Pracs.---3D Tessellated Geometry---0.4---2014-09-14','2;1',
'CAx-IF Rec.Pracs.---User Defined Attributes---1.5---2016-08-15'),
/* implementation_level */ '2;1');

FILE_NAME(
/* name */ 'NOT-618 - XY2_BOT',
/* time_stamp */ '2026-07-26T08:51:50Z',
/* author */ (''),
/* organization */ (''),
/* preprocessor_version */ 'ST-DEVELOPER v20',
/* originating_system */ 'ONSHAPE BY PTC INC, 1.218',
/* authorisation */ '  ');

FILE_SCHEMA (('AP242_MANAGED_MODEL_BASED_3D_ENGINEERING_MIM_LF { 1 0 10303 442 3 1 4 }'));
ENDSEC;

DATA;
#10=SHAPE_REPRESENTATION_RELATIONSHIP('','',#1082,#11);
#11=ADVANCED_BREP_SHAPE_REPRESENTATION('',(#1080),#1731);
#12=ELLIPSE('',#1101,0.00954738184006485,0.0095);
#13=CYLINDRICAL_SURFACE('',#1092,0.0025);
#14=CYLINDRICAL_SURFACE('',#1099,0.0095);
#15=CYLINDRICAL_SURFACE('',#1106,0.0105);
#16=CYLINDRICAL_SURFACE('',#1108,0.005);
#17=CYLINDRICAL_SURFACE('',#1137,0.0025);
#18=CYLINDRICAL_SURFACE('',#1152,0.0016);
#19=CIRCLE('',#1086,0.0095);
#20=CIRCLE('',#1090,0.0105);
#21=CIRCLE('',#1093,0.0025);
#22=CIRCLE('',#1094,0.0025);
#23=CIRCLE('',#1096,0.0105);
#24=CIRCLE('',#1100,0.0095);
#25=CIRCLE('',#1102,0.0095);
#26=CIRCLE('',#1103,0.0095);
#27=CIRCLE('',#1109,0.005);
#28=CIRCLE('',#1110,0.005);
#29=CIRCLE('',#1115,0.0025);
#30=CIRCLE('',#1138,0.0025);
#31=CIRCLE('',#1151,0.0016);
#32=CIRCLE('',#1153,0.0016);
#33=ORIENTED_EDGE('',*,*,#327,.F.);
#34=ORIENTED_EDGE('',*,*,#328,.F.);
#35=ORIENTED_EDGE('',*,*,#329,.T.);
#36=ORIENTED_EDGE('',*,*,#330,.T.);
#37=ORIENTED_EDGE('',*,*,#331,.F.);
#38=ORIENTED_EDGE('',*,*,#332,.F.);
#39=ORIENTED_EDGE('',*,*,#333,.T.);
#40=ORIENTED_EDGE('',*,*,#334,.T.);
#41=ORIENTED_EDGE('',*,*,#335,.F.);
#42=ORIENTED_EDGE('',*,*,#336,.F.);
#43=ORIENTED_EDGE('',*,*,#337,.T.);
#44=ORIENTED_EDGE('',*,*,#338,.T.);
#45=ORIENTED_EDGE('',*,*,#335,.T.);
#46=ORIENTED_EDGE('',*,*,#339,.T.);
#47=ORIENTED_EDGE('',*,*,#340,.F.);
#48=ORIENTED_EDGE('',*,*,#341,.F.);
#49=ORIENTED_EDGE('',*,*,#331,.T.);
#50=ORIENTED_EDGE('',*,*,#342,.F.);
#51=ORIENTED_EDGE('',*,*,#343,.F.);
#52=ORIENTED_EDGE('',*,*,#344,.T.);
#53=ORIENTED_EDGE('',*,*,#345,.T.);
#54=ORIENTED_EDGE('',*,*,#346,.T.);
#55=ORIENTED_EDGE('',*,*,#347,.T.);
#56=ORIENTED_EDGE('',*,*,#348,.T.);
#57=ORIENTED_EDGE('',*,*,#349,.T.);
#58=ORIENTED_EDGE('',*,*,#350,.T.);
#59=ORIENTED_EDGE('',*,*,#351,.T.);
#60=ORIENTED_EDGE('',*,*,#352,.T.);
#61=ORIENTED_EDGE('',*,*,#353,.F.);
#62=ORIENTED_EDGE('',*,*,#354,.F.);
#63=ORIENTED_EDGE('',*,*,#355,.T.);
#64=ORIENTED_EDGE('',*,*,#356,.T.);
#65=ORIENTED_EDGE('',*,*,#357,.T.);
#66=ORIENTED_EDGE('',*,*,#358,.T.);
#67=ORIENTED_EDGE('',*,*,#359,.T.);
#68=ORIENTED_EDGE('',*,*,#360,.T.);
#69=ORIENTED_EDGE('',*,*,#351,.F.);
#70=ORIENTED_EDGE('',*,*,#361,.F.);
#71=ORIENTED_EDGE('',*,*,#362,.F.);
#72=ORIENTED_EDGE('',*,*,#363,.T.);
#73=ORIENTED_EDGE('',*,*,#364,.T.);
#74=ORIENTED_EDGE('',*,*,#365,.F.);
#75=ORIENTED_EDGE('',*,*,#355,.F.);
#76=ORIENTED_EDGE('',*,*,#366,.F.);
#77=ORIENTED_EDGE('',*,*,#328,.T.);
#78=ORIENTED_EDGE('',*,*,#367,.F.);
#79=ORIENTED_EDGE('',*,*,#362,.T.);
#80=ORIENTED_EDGE('',*,*,#368,.T.);
#81=ORIENTED_EDGE('',*,*,#369,.F.);
#82=ORIENTED_EDGE('',*,*,#370,.F.);
#83=ORIENTED_EDGE('',*,*,#371,.T.);
#84=ORIENTED_EDGE('',*,*,#372,.T.);
#85=ORIENTED_EDGE('',*,*,#373,.T.);
#86=ORIENTED_EDGE('',*,*,#374,.T.);
#87=ORIENTED_EDGE('',*,*,#375,.T.);
#88=ORIENTED_EDGE('',*,*,#376,.T.);
#89=ORIENTED_EDGE('',*,*,#377,.T.);
#90=ORIENTED_EDGE('',*,*,#378,.T.);
#91=ORIENTED_EDGE('',*,*,#379,.T.);
#92=ORIENTED_EDGE('',*,*,#380,.F.);
#93=ORIENTED_EDGE('',*,*,#381,.T.);
#94=ORIENTED_EDGE('',*,*,#344,.F.);
#95=ORIENTED_EDGE('',*,*,#382,.T.);
#96=ORIENTED_EDGE('',*,*,#379,.F.);
#97=ORIENTED_EDGE('',*,*,#383,.F.);
#98=ORIENTED_EDGE('',*,*,#384,.T.);
#99=ORIENTED_EDGE('',*,*,#385,.F.);
#100=ORIENTED_EDGE('',*,*,#386,.T.);
#101=ORIENTED_EDGE('',*,*,#337,.F.);
#102=ORIENTED_EDGE('',*,*,#387,.T.);
#103=ORIENTED_EDGE('',*,*,#388,.T.);
#104=ORIENTED_EDGE('',*,*,#389,.T.);
#105=ORIENTED_EDGE('',*,*,#390,.T.);
#106=ORIENTED_EDGE('',*,*,#391,.F.);
#107=ORIENTED_EDGE('',*,*,#392,.T.);
#108=ORIENTED_EDGE('',*,*,#393,.T.);
#109=ORIENTED_EDGE('',*,*,#394,.T.);
#110=ORIENTED_EDGE('',*,*,#364,.F.);
#111=ORIENTED_EDGE('',*,*,#395,.F.);
#112=ORIENTED_EDGE('',*,*,#396,.T.);
#113=ORIENTED_EDGE('',*,*,#397,.F.);
#114=ORIENTED_EDGE('',*,*,#368,.F.);
#115=ORIENTED_EDGE('',*,*,#361,.T.);
#116=ORIENTED_EDGE('',*,*,#358,.F.);
#117=ORIENTED_EDGE('',*,*,#398,.F.);
#118=ORIENTED_EDGE('',*,*,#399,.T.);
#119=ORIENTED_EDGE('',*,*,#400,.F.);
#120=ORIENTED_EDGE('',*,*,#356,.F.);
#121=ORIENTED_EDGE('',*,*,#365,.T.);
#122=ORIENTED_EDGE('',*,*,#394,.F.);
#123=ORIENTED_EDGE('',*,*,#401,.F.);
#124=ORIENTED_EDGE('',*,*,#402,.T.);
#125=ORIENTED_EDGE('',*,*,#338,.F.);
#126=ORIENTED_EDGE('',*,*,#403,.F.);
#127=ORIENTED_EDGE('',*,*,#404,.F.);
#128=ORIENTED_EDGE('',*,*,#405,.T.);
#129=ORIENTED_EDGE('',*,*,#406,.F.);
#130=ORIENTED_EDGE('',*,*,#372,.F.);
#131=ORIENTED_EDGE('',*,*,#407,.T.);
#132=ORIENTED_EDGE('',*,*,#408,.T.);
#133=ORIENTED_EDGE('',*,*,#395,.T.);
#134=ORIENTED_EDGE('',*,*,#409,.F.);
#135=ORIENTED_EDGE('',*,*,#410,.F.);
#136=ORIENTED_EDGE('',*,*,#411,.T.);
#137=ORIENTED_EDGE('',*,*,#412,.T.);
#138=ORIENTED_EDGE('',*,*,#390,.F.);
#139=ORIENTED_EDGE('',*,*,#413,.F.);
#140=ORIENTED_EDGE('',*,*,#414,.F.);
#141=ORIENTED_EDGE('',*,*,#400,.T.);
#142=ORIENTED_EDGE('',*,*,#363,.F.);
#143=ORIENTED_EDGE('',*,*,#367,.T.);
#144=ORIENTED_EDGE('',*,*,#327,.T.);
#145=ORIENTED_EDGE('',*,*,#386,.F.);
#146=ORIENTED_EDGE('',*,*,#387,.F.);
#147=ORIENTED_EDGE('',*,*,#336,.T.);
#148=ORIENTED_EDGE('',*,*,#350,.F.);
#149=ORIENTED_EDGE('',*,*,#415,.T.);
#150=ORIENTED_EDGE('',*,*,#416,.F.);
#151=ORIENTED_EDGE('',*,*,#417,.F.);
#152=ORIENTED_EDGE('',*,*,#418,.F.);
#153=ORIENTED_EDGE('',*,*,#419,.F.);
#154=ORIENTED_EDGE('',*,*,#345,.F.);
#155=ORIENTED_EDGE('',*,*,#383,.T.);
#156=ORIENTED_EDGE('',*,*,#378,.F.);
#157=ORIENTED_EDGE('',*,*,#420,.T.);
#158=ORIENTED_EDGE('',*,*,#421,.T.);
#159=ORIENTED_EDGE('',*,*,#419,.T.);
#160=ORIENTED_EDGE('',*,*,#422,.F.);
#161=ORIENTED_EDGE('',*,*,#423,.T.);
#162=ORIENTED_EDGE('',*,*,#384,.F.);
#163=ORIENTED_EDGE('',*,*,#421,.F.);
#164=ORIENTED_EDGE('',*,*,#424,.T.);
#165=ORIENTED_EDGE('',*,*,#425,.F.);
#166=ORIENTED_EDGE('',*,*,#416,.T.);
#167=ORIENTED_EDGE('',*,*,#426,.T.);
#168=ORIENTED_EDGE('',*,*,#427,.T.);
#169=ORIENTED_EDGE('',*,*,#422,.T.);
#170=ORIENTED_EDGE('',*,*,#418,.T.);
#171=ORIENTED_EDGE('',*,*,#428,.F.);
#172=ORIENTED_EDGE('',*,*,#376,.F.);
#173=ORIENTED_EDGE('',*,*,#429,.T.);
#174=ORIENTED_EDGE('',*,*,#347,.F.);
#175=ORIENTED_EDGE('',*,*,#430,.T.);
#176=ORIENTED_EDGE('',*,*,#426,.F.);
#177=ORIENTED_EDGE('',*,*,#417,.T.);
#178=ORIENTED_EDGE('',*,*,#425,.T.);
#179=ORIENTED_EDGE('',*,*,#431,.T.);
#180=ORIENTED_EDGE('',*,*,#432,.T.);
#181=ORIENTED_EDGE('',*,*,#433,.T.);
#182=ORIENTED_EDGE('',*,*,#434,.T.);
#183=ORIENTED_EDGE('',*,*,#435,.T.);
#184=ORIENTED_EDGE('',*,*,#436,.F.);
#185=ORIENTED_EDGE('',*,*,#437,.T.);
#186=ORIENTED_EDGE('',*,*,#438,.T.);
#187=ORIENTED_EDGE('',*,*,#439,.T.);
#188=ORIENTED_EDGE('',*,*,#440,.F.);
#189=ORIENTED_EDGE('',*,*,#401,.T.);
#190=ORIENTED_EDGE('',*,*,#357,.F.);
#191=ORIENTED_EDGE('',*,*,#414,.T.);
#192=ORIENTED_EDGE('',*,*,#436,.T.);
#193=ORIENTED_EDGE('',*,*,#402,.F.);
#194=ORIENTED_EDGE('',*,*,#440,.T.);
#195=ORIENTED_EDGE('',*,*,#409,.T.);
#196=ORIENTED_EDGE('',*,*,#430,.F.);
#197=ORIENTED_EDGE('',*,*,#346,.F.);
#198=ORIENTED_EDGE('',*,*,#423,.F.);
#199=ORIENTED_EDGE('',*,*,#427,.F.);
#200=ORIENTED_EDGE('',*,*,#431,.F.);
#201=ORIENTED_EDGE('',*,*,#424,.F.);
#202=ORIENTED_EDGE('',*,*,#420,.F.);
#203=ORIENTED_EDGE('',*,*,#377,.F.);
#204=ORIENTED_EDGE('',*,*,#410,.T.);
#205=ORIENTED_EDGE('',*,*,#439,.F.);
#206=ORIENTED_EDGE('',*,*,#441,.F.);
#207=ORIENTED_EDGE('',*,*,#373,.F.);
#208=ORIENTED_EDGE('',*,*,#442,.F.);
#209=ORIENTED_EDGE('',*,*,#441,.T.);
#210=ORIENTED_EDGE('',*,*,#443,.F.);
#211=ORIENTED_EDGE('',*,*,#413,.T.);
#212=ORIENTED_EDGE('',*,*,#389,.F.);
#213=ORIENTED_EDGE('',*,*,#444,.F.);
#214=ORIENTED_EDGE('',*,*,#437,.F.);
#215=ORIENTED_EDGE('',*,*,#443,.T.);
#216=ORIENTED_EDGE('',*,*,#438,.F.);
#217=ORIENTED_EDGE('',*,*,#445,.F.);
#218=ORIENTED_EDGE('',*,*,#433,.F.);
#219=ORIENTED_EDGE('',*,*,#442,.T.);
#220=ORIENTED_EDGE('',*,*,#432,.F.);
#221=ORIENTED_EDGE('',*,*,#446,.F.);
#222=ORIENTED_EDGE('',*,*,#374,.F.);
#223=ORIENTED_EDGE('',*,*,#429,.F.);
#224=ORIENTED_EDGE('',*,*,#375,.F.);
#225=ORIENTED_EDGE('',*,*,#447,.F.);
#226=ORIENTED_EDGE('',*,*,#348,.F.);
#227=ORIENTED_EDGE('',*,*,#445,.T.);
#228=ORIENTED_EDGE('',*,*,#444,.T.);
#229=ORIENTED_EDGE('',*,*,#448,.F.);
#230=ORIENTED_EDGE('',*,*,#447,.T.);
#231=ORIENTED_EDGE('',*,*,#446,.T.);
#232=ORIENTED_EDGE('',*,*,#449,.F.);
#233=ORIENTED_EDGE('',*,*,#448,.T.);
#234=ORIENTED_EDGE('',*,*,#388,.F.);
#235=ORIENTED_EDGE('',*,*,#450,.F.);
#236=ORIENTED_EDGE('',*,*,#434,.F.);
#237=ORIENTED_EDGE('',*,*,#449,.T.);
#238=ORIENTED_EDGE('',*,*,#435,.F.);
#239=ORIENTED_EDGE('',*,*,#451,.F.);
#240=ORIENTED_EDGE('',*,*,#349,.F.);
#241=ORIENTED_EDGE('',*,*,#451,.T.);
#242=ORIENTED_EDGE('',*,*,#450,.T.);
#243=ORIENTED_EDGE('',*,*,#415,.F.);
#244=ORIENTED_EDGE('',*,*,#369,.T.);
#245=ORIENTED_EDGE('',*,*,#397,.T.);
#246=ORIENTED_EDGE('',*,*,#452,.F.);
#247=ORIENTED_EDGE('',*,*,#398,.T.);
#248=ORIENTED_EDGE('',*,*,#393,.F.);
#249=ORIENTED_EDGE('',*,*,#453,.T.);
#250=ORIENTED_EDGE('',*,*,#370,.T.);
#251=ORIENTED_EDGE('',*,*,#453,.F.);
#252=ORIENTED_EDGE('',*,*,#392,.F.);
#253=ORIENTED_EDGE('',*,*,#454,.T.);
#254=ORIENTED_EDGE('',*,*,#405,.F.);
#255=ORIENTED_EDGE('',*,*,#455,.T.);
#256=ORIENTED_EDGE('',*,*,#404,.T.);
#257=ORIENTED_EDGE('',*,*,#456,.T.);
#258=ORIENTED_EDGE('',*,*,#407,.F.);
#259=ORIENTED_EDGE('',*,*,#371,.F.);
#260=ORIENTED_EDGE('',*,*,#455,.F.);
#261=ORIENTED_EDGE('',*,*,#406,.T.);
#262=ORIENTED_EDGE('',*,*,#454,.F.);
#263=ORIENTED_EDGE('',*,*,#391,.T.);
#264=ORIENTED_EDGE('',*,*,#412,.F.);
#265=ORIENTED_EDGE('',*,*,#457,.T.);
#266=ORIENTED_EDGE('',*,*,#403,.T.);
#267=ORIENTED_EDGE('',*,*,#457,.F.);
#268=ORIENTED_EDGE('',*,*,#411,.F.);
#269=ORIENTED_EDGE('',*,*,#399,.F.);
#270=ORIENTED_EDGE('',*,*,#452,.T.);
#271=ORIENTED_EDGE('',*,*,#396,.F.);
#272=ORIENTED_EDGE('',*,*,#408,.F.);
#273=ORIENTED_EDGE('',*,*,#456,.F.);
#274=ORIENTED_EDGE('',*,*,#428,.T.);
#275=ORIENTED_EDGE('',*,*,#458,.F.);
#276=ORIENTED_EDGE('',*,*,#458,.T.);
#277=ORIENTED_EDGE('',*,*,#343,.T.);
#278=ORIENTED_EDGE('',*,*,#459,.F.);
#279=ORIENTED_EDGE('',*,*,#460,.F.);
#280=ORIENTED_EDGE('',*,*,#380,.T.);
#281=ORIENTED_EDGE('',*,*,#382,.F.);
#282=ORIENTED_EDGE('',*,*,#385,.T.);
#283=ORIENTED_EDGE('',*,*,#330,.F.);
#284=ORIENTED_EDGE('',*,*,#461,.F.);
#285=ORIENTED_EDGE('',*,*,#459,.T.);
#286=ORIENTED_EDGE('',*,*,#342,.T.);
#287=ORIENTED_EDGE('',*,*,#329,.F.);
#288=ORIENTED_EDGE('',*,*,#381,.F.);
#289=ORIENTED_EDGE('',*,*,#460,.T.);
#290=ORIENTED_EDGE('',*,*,#461,.T.);
#291=ORIENTED_EDGE('',*,*,#360,.F.);
#292=ORIENTED_EDGE('',*,*,#462,.T.);
#293=ORIENTED_EDGE('',*,*,#463,.T.);
#294=ORIENTED_EDGE('',*,*,#352,.F.);
#295=ORIENTED_EDGE('',*,*,#354,.T.);
#296=ORIENTED_EDGE('',*,*,#464,.F.);
#297=ORIENTED_EDGE('',*,*,#465,.F.);
#298=ORIENTED_EDGE('',*,*,#366,.T.);
#299=ORIENTED_EDGE('',*,*,#353,.T.);
#300=ORIENTED_EDGE('',*,*,#463,.F.);
#301=ORIENTED_EDGE('',*,*,#466,.F.);
#302=ORIENTED_EDGE('',*,*,#464,.T.);
#303=ORIENTED_EDGE('',*,*,#465,.T.);
#304=ORIENTED_EDGE('',*,*,#466,.T.);
#305=ORIENTED_EDGE('',*,*,#462,.F.);
#306=ORIENTED_EDGE('',*,*,#359,.F.);
#307=ORIENTED_EDGE('',*,*,#467,.T.);
#308=ORIENTED_EDGE('',*,*,#468,.T.);
#309=ORIENTED_EDGE('',*,*,#339,.F.);
#310=ORIENTED_EDGE('',*,*,#334,.F.);
#311=ORIENTED_EDGE('',*,*,#332,.T.);
#312=ORIENTED_EDGE('',*,*,#341,.T.);
#313=ORIENTED_EDGE('',*,*,#469,.F.);
#314=ORIENTED_EDGE('',*,*,#470,.F.);
#315=ORIENTED_EDGE('',*,*,#340,.T.);
#316=ORIENTED_EDGE('',*,*,#468,.F.);
#317=ORIENTED_EDGE('',*,*,#471,.F.);
#318=ORIENTED_EDGE('',*,*,#469,.T.);
#319=ORIENTED_EDGE('',*,*,#472,.F.);
#320=ORIENTED_EDGE('',*,*,#470,.T.);
#321=ORIENTED_EDGE('',*,*,#471,.T.);
#322=ORIENTED_EDGE('',*,*,#467,.F.);
#323=ORIENTED_EDGE('',*,*,#333,.F.);
#324=ORIENTED_EDGE('',*,*,#472,.T.);
#325=ORIENTED_EDGE('',*,*,#473,.F.);
#326=ORIENTED_EDGE('',*,*,#473,.T.);
#327=EDGE_CURVE('',#474,#475,#569,.F.);
#328=EDGE_CURVE('',#476,#474,#570,.T.);
#329=EDGE_CURVE('',#476,#477,#571,.T.);
#330=EDGE_CURVE('',#477,#478,#572,.T.);
#331=EDGE_CURVE('',#479,#478,#573,.T.);
#332=EDGE_CURVE('',#480,#479,#574,.T.);
#333=EDGE_CURVE('',#480,#481,#575,.T.);
#334=EDGE_CURVE('',#481,#482,#576,.T.);
#335=EDGE_CURVE('',#483,#482,#577,.T.);
#336=EDGE_CURVE('',#484,#483,#578,.T.);
#337=EDGE_CURVE('',#484,#475,#579,.T.);
#338=EDGE_CURVE('',#485,#485,#19,.T.);
#339=EDGE_CURVE('',#482,#486,#580,.T.);
#340=EDGE_CURVE('',#487,#486,#581,.T.);
#341=EDGE_CURVE('',#479,#487,#582,.T.);
#342=EDGE_CURVE('',#488,#478,#583,.T.);
#343=EDGE_CURVE('',#489,#488,#584,.T.);
#344=EDGE_CURVE('',#489,#490,#585,.T.);
#345=EDGE_CURVE('',#490,#491,#586,.T.);
#346=EDGE_CURVE('',#491,#492,#587,.T.);
#347=EDGE_CURVE('',#492,#493,#588,.T.);
#348=EDGE_CURVE('',#493,#494,#589,.T.);
#349=EDGE_CURVE('',#494,#495,#590,.T.);
#350=EDGE_CURVE('',#495,#483,#591,.T.);
#351=EDGE_CURVE('',#496,#497,#592,.T.);
#352=EDGE_CURVE('',#497,#498,#593,.T.);
#353=EDGE_CURVE('',#499,#498,#594,.T.);
#354=EDGE_CURVE('',#500,#499,#595,.T.);
#355=EDGE_CURVE('',#500,#501,#596,.T.);
#356=EDGE_CURVE('',#501,#502,#597,.T.);
#357=EDGE_CURVE('',#502,#503,#598,.T.);
#358=EDGE_CURVE('',#503,#496,#599,.T.);
#359=EDGE_CURVE('',#504,#505,#600,.T.);
#360=EDGE_CURVE('',#505,#497,#601,.T.);
#361=EDGE_CURVE('',#506,#496,#602,.F.);
#362=EDGE_CURVE('',#507,#506,#603,.T.);
#363=EDGE_CURVE('',#507,#508,#604,.F.);
#364=EDGE_CURVE('',#508,#509,#605,.T.);
#365=EDGE_CURVE('',#501,#509,#606,.T.);
#366=EDGE_CURVE('',#504,#500,#607,.T.);
#367=EDGE_CURVE('',#507,#474,#20,.T.);
#368=EDGE_CURVE('',#506,#510,#608,.T.);
#369=EDGE_CURVE('',#511,#510,#609,.T.);
#370=EDGE_CURVE('',#512,#511,#610,.T.);
#371=EDGE_CURVE('',#512,#513,#611,.T.);
#372=EDGE_CURVE('',#513,#514,#612,.T.);
#373=EDGE_CURVE('',#514,#515,#613,.T.);
#374=EDGE_CURVE('',#515,#516,#614,.T.);
#375=EDGE_CURVE('',#516,#517,#615,.T.);
#376=EDGE_CURVE('',#517,#518,#616,.T.);
#377=EDGE_CURVE('',#518,#519,#617,.T.);
#378=EDGE_CURVE('',#519,#520,#618,.T.);
#379=EDGE_CURVE('',#520,#521,#619,.T.);
#380=EDGE_CURVE('',#522,#521,#620,.T.);
#381=EDGE_CURVE('',#522,#476,#621,.T.);
#382=EDGE_CURVE('',#489,#521,#622,.F.);
#383=EDGE_CURVE('',#490,#520,#623,.F.);
#384=EDGE_CURVE('',#523,#523,#21,.T.);
#385=EDGE_CURVE('',#524,#524,#22,.F.);
#386=EDGE_CURVE('',#508,#475,#23,.T.);
#387=EDGE_CURVE('',#484,#525,#624,.T.);
#388=EDGE_CURVE('',#525,#526,#625,.T.);
#389=EDGE_CURVE('',#526,#527,#626,.T.);
#390=EDGE_CURVE('',#527,#528,#627,.T.);
#391=EDGE_CURVE('',#529,#528,#628,.T.);
#392=EDGE_CURVE('',#529,#530,#629,.T.);
#393=EDGE_CURVE('',#530,#531,#630,.T.);
#394=EDGE_CURVE('',#531,#509,#631,.T.);
#395=EDGE_CURVE('',#532,#503,#632,.T.);
#396=EDGE_CURVE('',#532,#533,#633,.F.);
#397=EDGE_CURVE('',#510,#533,#634,.F.);
#398=EDGE_CURVE('',#534,#531,#635,.T.);
#399=EDGE_CURVE('',#534,#535,#636,.T.);
#400=EDGE_CURVE('',#502,#535,#637,.T.);
#401=EDGE_CURVE('',#536,#537,#24,.F.);
#402=EDGE_CURVE('',#536,#537,#12,.F.);
#403=EDGE_CURVE('',#538,#539,#25,.F.);
#404=EDGE_CURVE('',#540,#538,#638,.F.);
#405=EDGE_CURVE('',#540,#541,#26,.F.);
#406=EDGE_CURVE('',#539,#541,#639,.T.);
#407=EDGE_CURVE('',#513,#542,#640,.T.);
#408=EDGE_CURVE('',#542,#532,#641,.T.);
#409=EDGE_CURVE('',#543,#503,#642,.F.);
#410=EDGE_CURVE('',#514,#543,#643,.T.);
#411=EDGE_CURVE('',#535,#544,#644,.F.);
#412=EDGE_CURVE('',#544,#528,#645,.F.);
#413=EDGE_CURVE('',#545,#527,#646,.T.);
#414=EDGE_CURVE('',#502,#545,#647,.F.);
#415=EDGE_CURVE('',#495,#525,#648,.F.);
#416=EDGE_CURVE('',#546,#547,#649,.T.);
#417=EDGE_CURVE('',#548,#546,#27,.T.);
#418=EDGE_CURVE('',#549,#548,#650,.F.);
#419=EDGE_CURVE('',#547,#549,#28,.T.);
#420=EDGE_CURVE('',#519,#550,#651,.F.);
#421=EDGE_CURVE('',#550,#547,#652,.T.);
#422=EDGE_CURVE('',#551,#549,#653,.T.);
#423=EDGE_CURVE('',#551,#491,#654,.F.);
#424=EDGE_CURVE('',#550,#552,#655,.T.);
#425=EDGE_CURVE('',#546,#552,#656,.T.);
#426=EDGE_CURVE('',#548,#553,#657,.T.);
#427=EDGE_CURVE('',#553,#551,#658,.T.);
#428=EDGE_CURVE('',#554,#554,#29,.T.);
#429=EDGE_CURVE('',#517,#493,#659,.F.);
#430=EDGE_CURVE('',#492,#553,#660,.F.);
#431=EDGE_CURVE('',#552,#518,#661,.F.);
#432=EDGE_CURVE('',#555,#556,#662,.T.);
#433=EDGE_CURVE('',#556,#557,#663,.T.);
#434=EDGE_CURVE('',#557,#558,#664,.T.);
#435=EDGE_CURVE('',#558,#555,#665,.T.);
#436=EDGE_CURVE('',#545,#537,#666,.T.);
#437=EDGE_CURVE('',#545,#559,#667,.T.);
#438=EDGE_CURVE('',#559,#560,#668,.T.);
#439=EDGE_CURVE('',#560,#543,#669,.T.);
#440=EDGE_CURVE('',#536,#543,#670,.T.);
#441=EDGE_CURVE('',#515,#560,#671,.F.);
#442=EDGE_CURVE('',#515,#556,#672,.F.);
#443=EDGE_CURVE('',#556,#560,#673,.F.);
#444=EDGE_CURVE('',#559,#526,#674,.T.);
#445=EDGE_CURVE('',#557,#559,#675,.T.);
#446=EDGE_CURVE('',#516,#555,#676,.T.);
#447=EDGE_CURVE('',#494,#516,#677,.F.);
#448=EDGE_CURVE('',#557,#526,#678,.T.);
#449=EDGE_CURVE('',#494,#555,#679,.F.);
#450=EDGE_CURVE('',#558,#525,#680,.F.);
#451=EDGE_CURVE('',#495,#558,#681,.T.);
#452=EDGE_CURVE('',#534,#533,#682,.T.);
#453=EDGE_CURVE('',#530,#511,#683,.T.);
#454=EDGE_CURVE('',#529,#541,#684,.T.);
#455=EDGE_CURVE('',#540,#512,#685,.T.);
#456=EDGE_CURVE('',#538,#542,#686,.T.);
#457=EDGE_CURVE('',#544,#539,#687,.T.);
#458=EDGE_CURVE('',#561,#561,#30,.T.);
#459=EDGE_CURVE('',#562,#488,#688,.T.);
#460=EDGE_CURVE('',#522,#562,#689,.T.);
#461=EDGE_CURVE('',#562,#477,#690,.T.);
#462=EDGE_CURVE('',#505,#563,#691,.T.);
#463=EDGE_CURVE('',#563,#498,#692,.T.);
#464=EDGE_CURVE('',#564,#499,#693,.T.);
#465=EDGE_CURVE('',#504,#564,#694,.T.);
#466=EDGE_CURVE('',#564,#563,#695,.T.);
#467=EDGE_CURVE('',#481,#565,#696,.T.);
#468=EDGE_CURVE('',#565,#486,#697,.T.);
#469=EDGE_CURVE('',#566,#487,#698,.T.);
#470=EDGE_CURVE('',#480,#566,#699,.T.);
#471=EDGE_CURVE('',#566,#565,#700,.T.);
#472=EDGE_CURVE('',#567,#567,#31,.T.);
#473=EDGE_CURVE('',#568,#568,#32,.T.);
#474=VERTEX_POINT('',#1434);
#475=VERTEX_POINT('',#1435);
#476=VERTEX_POINT('',#1437);
#477=VERTEX_POINT('',#1439);
#478=VERTEX_POINT('',#1441);
#479=VERTEX_POINT('',#1443);
#480=VERTEX_POINT('',#1445);
#481=VERTEX_POINT('',#1447);
#482=VERTEX_POINT('',#1449);
#483=VERTEX_POINT('',#1451);
#484=VERTEX_POINT('',#1453);
#485=VERTEX_POINT('',#1457);
#486=VERTEX_POINT('',#1459);
#487=VERTEX_POINT('',#1461);
#488=VERTEX_POINT('',#1464);
#489=VERTEX_POINT('',#1466);
#490=VERTEX_POINT('',#1468);
#491=VERTEX_POINT('',#1470);
#492=VERTEX_POINT('',#1472);
#493=VERTEX_POINT('',#1474);
#494=VERTEX_POINT('',#1476);
#495=VERTEX_POINT('',#1478);
#496=VERTEX_POINT('',#1482);
#497=VERTEX_POINT('',#1483);
#498=VERTEX_POINT('',#1485);
#499=VERTEX_POINT('',#1487);
#500=VERTEX_POINT('',#1489);
#501=VERTEX_POINT('',#1491);
#502=VERTEX_POINT('',#1493);
#503=VERTEX_POINT('',#1495);
#504=VERTEX_POINT('',#1499);
#505=VERTEX_POINT('',#1500);
#506=VERTEX_POINT('',#1503);
#507=VERTEX_POINT('',#1505);
#508=VERTEX_POINT('',#1507);
#509=VERTEX_POINT('',#1509);
#510=VERTEX_POINT('',#1515);
#511=VERTEX_POINT('',#1517);
#512=VERTEX_POINT('',#1519);
#513=VERTEX_POINT('',#1521);
#514=VERTEX_POINT('',#1523);
#515=VERTEX_POINT('',#1525);
#516=VERTEX_POINT('',#1527);
#517=VERTEX_POINT('',#1529);
#518=VERTEX_POINT('',#1531);
#519=VERTEX_POINT('',#1533);
#520=VERTEX_POINT('',#1535);
#521=VERTEX_POINT('',#1537);
#522=VERTEX_POINT('',#1539);
#523=VERTEX_POINT('',#1546);
#524=VERTEX_POINT('',#1548);
#525=VERTEX_POINT('',#1552);
#526=VERTEX_POINT('',#1554);
#527=VERTEX_POINT('',#1556);
#528=VERTEX_POINT('',#1558);
#529=VERTEX_POINT('',#1560);
#530=VERTEX_POINT('',#1562);
#531=VERTEX_POINT('',#1564);
#532=VERTEX_POINT('',#1568);
#533=VERTEX_POINT('',#1570);
#534=VERTEX_POINT('',#1574);
#535=VERTEX_POINT('',#1576);
#536=VERTEX_POINT('',#1580);
#537=VERTEX_POINT('',#1581);
#538=VERTEX_POINT('',#1584);
#539=VERTEX_POINT('',#1585);
#540=VERTEX_POINT('',#1587);
#541=VERTEX_POINT('',#1589);
#542=VERTEX_POINT('',#1593);
#543=VERTEX_POINT('',#1596);
#544=VERTEX_POINT('',#1600);
#545=VERTEX_POINT('',#1603);
#546=VERTEX_POINT('',#1610);
#547=VERTEX_POINT('',#1611);
#548=VERTEX_POINT('',#1613);
#549=VERTEX_POINT('',#1615);
#550=VERTEX_POINT('',#1619);
#551=VERTEX_POINT('',#1622);
#552=VERTEX_POINT('',#1626);
#553=VERTEX_POINT('',#1630);
#554=VERTEX_POINT('',#1634);
#555=VERTEX_POINT('',#1640);
#556=VERTEX_POINT('',#1641);
#557=VERTEX_POINT('',#1643);
#558=VERTEX_POINT('',#1645);
#559=VERTEX_POINT('',#1650);
#560=VERTEX_POINT('',#1652);
#561=VERTEX_POINT('',#1693);
#562=VERTEX_POINT('',#1697);
#563=VERTEX_POINT('',#1704);
#564=VERTEX_POINT('',#1708);
#565=VERTEX_POINT('',#1715);
#566=VERTEX_POINT('',#1719);
#567=VERTEX_POINT('',#1725);
#568=VERTEX_POINT('',#1728);
#569=LINE('',#1433,#701);
#570=LINE('',#1436,#702);
#571=LINE('',#1438,#703);
#572=LINE('',#1440,#704);
#573=LINE('',#1442,#705);
#574=LINE('',#1444,#706);
#575=LINE('',#1446,#707);
#576=LINE('',#1448,#708);
#577=LINE('',#1450,#709);
#578=LINE('',#1452,#710);
#579=LINE('',#1454,#711);
#580=LINE('',#1458,#712);
#581=LINE('',#1460,#713);
#582=LINE('',#1462,#714);
#583=LINE('',#1463,#715);
#584=LINE('',#1465,#716);
#585=LINE('',#1467,#717);
#586=LINE('',#1469,#718);
#587=LINE('',#1471,#719);
#588=LINE('',#1473,#720);
#589=LINE('',#1475,#721);
#590=LINE('',#1477,#722);
#591=LINE('',#1479,#723);
#592=LINE('',#1481,#724);
#593=LINE('',#1484,#725);
#594=LINE('',#1486,#726);
#595=LINE('',#1488,#727);
#596=LINE('',#1490,#728);
#597=LINE('',#1492,#729);
#598=LINE('',#1494,#730);
#599=LINE('',#1496,#731);
#600=LINE('',#1498,#732);
#601=LINE('',#1501,#733);
#602=LINE('',#1502,#734);
#603=LINE('',#1504,#735);
#604=LINE('',#1506,#736);
#605=LINE('',#1508,#737);
#606=LINE('',#1510,#738);
#607=LINE('',#1511,#739);
#608=LINE('',#1514,#740);
#609=LINE('',#1516,#741);
#610=LINE('',#1518,#742);
#611=LINE('',#1520,#743);
#612=LINE('',#1522,#744);
#613=LINE('',#1524,#745);
#614=LINE('',#1526,#746);
#615=LINE('',#1528,#747);
#616=LINE('',#1530,#748);
#617=LINE('',#1532,#749);
#618=LINE('',#1534,#750);
#619=LINE('',#1536,#751);
#620=LINE('',#1538,#752);
#621=LINE('',#1540,#753);
#622=LINE('',#1542,#754);
#623=LINE('',#1543,#755);
#624=LINE('',#1551,#756);
#625=LINE('',#1553,#757);
#626=LINE('',#1555,#758);
#627=LINE('',#1557,#759);
#628=LINE('',#1559,#760);
#629=LINE('',#1561,#761);
#630=LINE('',#1563,#762);
#631=LINE('',#1565,#763);
#632=LINE('',#1567,#764);
#633=LINE('',#1569,#765);
#634=LINE('',#1571,#766);
#635=LINE('',#1573,#767);
#636=LINE('',#1575,#768);
#637=LINE('',#1577,#769);
#638=LINE('',#1586,#770);
#639=LINE('',#1590,#771);
#640=LINE('',#1592,#772);
#641=LINE('',#1594,#773);
#642=LINE('',#1595,#774);
#643=LINE('',#1597,#775);
#644=LINE('',#1599,#776);
#645=LINE('',#1601,#777);
#646=LINE('',#1602,#778);
#647=LINE('',#1604,#779);
#648=LINE('',#1607,#780);
#649=LINE('',#1609,#781);
#650=LINE('',#1614,#782);
#651=LINE('',#1618,#783);
#652=LINE('',#1620,#784);
#653=LINE('',#1621,#785);
#654=LINE('',#1623,#786);
#655=LINE('',#1625,#787);
#656=LINE('',#1627,#788);
#657=LINE('',#1629,#789);
#658=LINE('',#1631,#790);
#659=LINE('',#1635,#791);
#660=LINE('',#1636,#792);
#661=LINE('',#1637,#793);
#662=LINE('',#1639,#794);
#663=LINE('',#1642,#795);
#664=LINE('',#1644,#796);
#665=LINE('',#1646,#797);
#666=LINE('',#1648,#798);
#667=LINE('',#1649,#799);
#668=LINE('',#1651,#800);
#669=LINE('',#1653,#801);
#670=LINE('',#1654,#802);
#671=LINE('',#1659,#803);
#672=LINE('',#1661,#804);
#673=LINE('',#1662,#805);
#674=LINE('',#1664,#806);
#675=LINE('',#1666,#807);
#676=LINE('',#1668,#808);
#677=LINE('',#1670,#809);
#678=LINE('',#1672,#810);
#679=LINE('',#1674,#811);
#680=LINE('',#1676,#812);
#681=LINE('',#1678,#813);
#682=LINE('',#1681,#814);
#683=LINE('',#1682,#815);
#684=LINE('',#1684,#816);
#685=LINE('',#1685,#817);
#686=LINE('',#1687,#818);
#687=LINE('',#1689,#819);
#688=LINE('',#1696,#820);
#689=LINE('',#1698,#821);
#690=LINE('',#1700,#822);
#691=LINE('',#1703,#823);
#692=LINE('',#1705,#824);
#693=LINE('',#1707,#825);
#694=LINE('',#1709,#826);
#695=LINE('',#1711,#827);
#696=LINE('',#1714,#828);
#697=LINE('',#1716,#829);
#698=LINE('',#1718,#830);
#699=LINE('',#1720,#831);
#700=LINE('',#1722,#832);
#701=VECTOR('',#1159,1.);
#702=VECTOR('',#1160,1.);
#703=VECTOR('',#1161,1.);
#704=VECTOR('',#1162,1.);
#705=VECTOR('',#1163,1.);
#706=VECTOR('',#1164,1.);
#707=VECTOR('',#1165,1.);
#708=VECTOR('',#1166,1.);
#709=VECTOR('',#1167,1.);
#710=VECTOR('',#1168,1.);
#711=VECTOR('',#1169,1.);
#712=VECTOR('',#1174,1.);
#713=VECTOR('',#1175,1.);
#714=VECTOR('',#1176,1.);
#715=VECTOR('',#1177,1.);
#716=VECTOR('',#1178,1.);
#717=VECTOR('',#1179,1.);
#718=VECTOR('',#1180,1.);
#719=VECTOR('',#1181,1.);
#720=VECTOR('',#1182,1.);
#721=VECTOR('',#1183,1.);
#722=VECTOR('',#1184,1.);
#723=VECTOR('',#1185,1.);
#724=VECTOR('',#1188,1.);
#725=VECTOR('',#1189,1.);
#726=VECTOR('',#1190,1.);
#727=VECTOR('',#1191,1.);
#728=VECTOR('',#1192,1.);
#729=VECTOR('',#1193,1.);
#730=VECTOR('',#1194,1.);
#731=VECTOR('',#1195,1.);
#732=VECTOR('',#1198,1.);
#733=VECTOR('',#1199,1.);
#734=VECTOR('',#1200,1.);
#735=VECTOR('',#1201,1.);
#736=VECTOR('',#1202,1.);
#737=VECTOR('',#1203,1.);
#738=VECTOR('',#1204,1.);
#739=VECTOR('',#1205,1.);
#740=VECTOR('',#1210,1.);
#741=VECTOR('',#1211,1.);
#742=VECTOR('',#1212,1.);
#743=VECTOR('',#1213,1.);
#744=VECTOR('',#1214,1.);
#745=VECTOR('',#1215,1.);
#746=VECTOR('',#1216,1.);
#747=VECTOR('',#1217,1.);
#748=VECTOR('',#1218,1.);
#749=VECTOR('',#1219,1.);
#750=VECTOR('',#1220,1.);
#751=VECTOR('',#1221,1.);
#752=VECTOR('',#1222,1.);
#753=VECTOR('',#1223,1.);
#754=VECTOR('',#1226,1.);
#755=VECTOR('',#1227,1.);
#756=VECTOR('',#1238,1.);
#757=VECTOR('',#1239,1.);
#758=VECTOR('',#1240,1.);
#759=VECTOR('',#1241,1.);
#760=VECTOR('',#1242,1.);
#761=VECTOR('',#1243,1.);
#762=VECTOR('',#1244,1.);
#763=VECTOR('',#1245,1.);
#764=VECTOR('',#1248,1.);
#765=VECTOR('',#1249,1.);
#766=VECTOR('',#1250,1.);
#767=VECTOR('',#1253,1.);
#768=VECTOR('',#1254,1.);
#769=VECTOR('',#1255,1.);
#770=VECTOR('',#1264,1.);
#771=VECTOR('',#1267,1.);
#772=VECTOR('',#1270,1.);
#773=VECTOR('',#1271,1.);
#774=VECTOR('',#1272,1.);
#775=VECTOR('',#1273,1.);
#776=VECTOR('',#1276,1.);
#777=VECTOR('',#1277,1.);
#778=VECTOR('',#1278,1.);
#779=VECTOR('',#1279,1.);
#780=VECTOR('',#1284,1.);
#781=VECTOR('',#1287,1.);
#782=VECTOR('',#1290,1.);
#783=VECTOR('',#1295,1.);
#784=VECTOR('',#1296,1.);
#785=VECTOR('',#1297,1.);
#786=VECTOR('',#1298,1.);
#787=VECTOR('',#1301,1.);
#788=VECTOR('',#1302,1.);
#789=VECTOR('',#1305,1.);
#790=VECTOR('',#1306,1.);
#791=VECTOR('',#1311,1.);
#792=VECTOR('',#1312,1.);
#793=VECTOR('',#1313,1.);
#794=VECTOR('',#1316,1.);
#795=VECTOR('',#1317,1.);
#796=VECTOR('',#1318,1.);
#797=VECTOR('',#1319,1.);
#798=VECTOR('',#1322,1.);
#799=VECTOR('',#1323,1.);
#800=VECTOR('',#1324,1.);
#801=VECTOR('',#1325,1.);
#802=VECTOR('',#1326,1.);
#803=VECTOR('',#1335,1.);
#804=VECTOR('',#1338,1.);
#805=VECTOR('',#1339,1.);
#806=VECTOR('',#1342,1.);
#807=VECTOR('',#1345,1.);
#808=VECTOR('',#1348,1.);
#809=VECTOR('',#1351,1.);
#810=VECTOR('',#1354,1.);
#811=VECTOR('',#1357,1.);
#812=VECTOR('',#1360,1.);
#813=VECTOR('',#1363,1.);
#814=VECTOR('',#1368,1.);
#815=VECTOR('',#1369,1.);
#816=VECTOR('',#1372,1.);
#817=VECTOR('',#1373,1.);
#818=VECTOR('',#1376,1.);
#819=VECTOR('',#1379,1.);
#820=VECTOR('',#1390,1.);
#821=VECTOR('',#1391,1.);
#822=VECTOR('',#1394,1.);
#823=VECTOR('',#1399,1.);
#824=VECTOR('',#1400,1.);
#825=VECTOR('',#1403,1.);
#826=VECTOR('',#1404,1.);
#827=VECTOR('',#1407,1.);
#828=VECTOR('',#1412,1.);
#829=VECTOR('',#1413,1.);
#830=VECTOR('',#1416,1.);
#831=VECTOR('',#1417,1.);
#832=VECTOR('',#1420,1.);
#833=EDGE_LOOP('',(#33,#34,#35,#36,#37,#38,#39,#40,#41,#42,#43));
#834=EDGE_LOOP('',(#44));
#835=EDGE_LOOP('',(#45,#46,#47,#48,#49,#50,#51,#52,#53,#54,#55,#56,#57,
#58));
#836=EDGE_LOOP('',(#59,#60,#61,#62,#63,#64,#65,#66));
#837=EDGE_LOOP('',(#67,#68,#69,#70,#71,#72,#73,#74,#75,#76));
#838=EDGE_LOOP('',(#77,#78,#79,#80,#81,#82,#83,#84,#85,#86,#87,#88,#89,
#90,#91,#92,#93));
#839=EDGE_LOOP('',(#94,#95,#96,#97));
#840=EDGE_LOOP('',(#98));
#841=EDGE_LOOP('',(#99));
#842=EDGE_LOOP('',(#100,#101,#102,#103,#104,#105,#106,#107,#108,#109,#110));
#843=EDGE_LOOP('',(#111,#112,#113,#114,#115,#116));
#844=EDGE_LOOP('',(#117,#118,#119,#120,#121,#122));
#845=EDGE_LOOP('',(#123,#124));
#846=EDGE_LOOP('',(#125));
#847=EDGE_LOOP('',(#126,#127,#128,#129));
#848=EDGE_LOOP('',(#130,#131,#132,#133,#134,#135));
#849=EDGE_LOOP('',(#136,#137,#138,#139,#140,#141));
#850=EDGE_LOOP('',(#142,#143,#144,#145));
#851=EDGE_LOOP('',(#146,#147,#148,#149));
#852=EDGE_LOOP('',(#150,#151,#152,#153));
#853=EDGE_LOOP('',(#154,#155,#156,#157,#158,#159,#160,#161));
#854=EDGE_LOOP('',(#162));
#855=EDGE_LOOP('',(#163,#164,#165,#166));
#856=EDGE_LOOP('',(#167,#168,#169,#170));
#857=EDGE_LOOP('',(#171));
#858=EDGE_LOOP('',(#172,#173,#174,#175,#176,#177,#178,#179));
#859=EDGE_LOOP('',(#180,#181,#182,#183));
#860=EDGE_LOOP('',(#184,#185,#186,#187,#188,#189));
#861=EDGE_LOOP('',(#190,#191,#192,#193,#194,#195));
#862=EDGE_LOOP('',(#196,#197,#198,#199));
#863=EDGE_LOOP('',(#200,#201,#202,#203));
#864=EDGE_LOOP('',(#204,#205,#206,#207));
#865=EDGE_LOOP('',(#208,#209,#210));
#866=EDGE_LOOP('',(#211,#212,#213,#214));
#867=EDGE_LOOP('',(#215,#216,#217,#218));
#868=EDGE_LOOP('',(#219,#220,#221,#222));
#869=EDGE_LOOP('',(#223,#224,#225,#226));
#870=EDGE_LOOP('',(#227,#228,#229));
#871=EDGE_LOOP('',(#230,#231,#232));
#872=EDGE_LOOP('',(#233,#234,#235,#236));
#873=EDGE_LOOP('',(#237,#238,#239,#240));
#874=EDGE_LOOP('',(#241,#242,#243));
#875=EDGE_LOOP('',(#244,#245,#246,#247,#248,#249));
#876=EDGE_LOOP('',(#250,#251,#252,#253,#254,#255));
#877=EDGE_LOOP('',(#256,#257,#258,#259,#260));
#878=EDGE_LOOP('',(#261,#262,#263,#264,#265));
#879=EDGE_LOOP('',(#266,#267,#268,#269,#270,#271,#272,#273));
#880=EDGE_LOOP('',(#274));
#881=EDGE_LOOP('',(#275));
#882=EDGE_LOOP('',(#276));
#883=EDGE_LOOP('',(#277,#278,#279,#280,#281));
#884=EDGE_LOOP('',(#282));
#885=EDGE_LOOP('',(#283,#284,#285,#286));
#886=EDGE_LOOP('',(#287,#288,#289,#290));
#887=EDGE_LOOP('',(#291,#292,#293,#294));
#888=EDGE_LOOP('',(#295,#296,#297,#298));
#889=EDGE_LOOP('',(#299,#300,#301,#302));
#890=EDGE_LOOP('',(#303,#304,#305,#306));
#891=EDGE_LOOP('',(#307,#308,#309,#310));
#892=EDGE_LOOP('',(#311,#312,#313,#314));
#893=EDGE_LOOP('',(#315,#316,#317,#318));
#894=EDGE_LOOP('',(#319));
#895=EDGE_LOOP('',(#320,#321,#322,#323));
#896=EDGE_LOOP('',(#324));
#897=EDGE_LOOP('',(#325));
#898=EDGE_LOOP('',(#326));
#899=FACE_BOUND('',#833,.T.);
#900=FACE_BOUND('',#834,.T.);
#901=FACE_BOUND('',#835,.T.);
#902=FACE_BOUND('',#836,.T.);
#903=FACE_BOUND('',#837,.T.);
#904=FACE_BOUND('',#838,.T.);
#905=FACE_BOUND('',#839,.T.);
#906=FACE_BOUND('',#840,.T.);
#907=FACE_BOUND('',#841,.T.);
#908=FACE_BOUND('',#842,.T.);
#909=FACE_BOUND('',#843,.T.);
#910=FACE_BOUND('',#844,.T.);
#911=FACE_BOUND('',#845,.T.);
#912=FACE_BOUND('',#846,.T.);
#913=FACE_BOUND('',#847,.T.);
#914=FACE_BOUND('',#848,.T.);
#915=FACE_BOUND('',#849,.T.);
#916=FACE_BOUND('',#850,.T.);
#917=FACE_BOUND('',#851,.T.);
#918=FACE_BOUND('',#852,.T.);
#919=FACE_BOUND('',#853,.T.);
#920=FACE_BOUND('',#854,.T.);
#921=FACE_BOUND('',#855,.T.);
#922=FACE_BOUND('',#856,.T.);
#923=FACE_BOUND('',#857,.T.);
#924=FACE_BOUND('',#858,.T.);
#925=FACE_BOUND('',#859,.T.);
#926=FACE_BOUND('',#860,.T.);
#927=FACE_BOUND('',#861,.T.);
#928=FACE_BOUND('',#862,.T.);
#929=FACE_BOUND('',#863,.T.);
#930=FACE_BOUND('',#864,.T.);
#931=FACE_BOUND('',#865,.T.);
#932=FACE_BOUND('',#866,.T.);
#933=FACE_BOUND('',#867,.T.);
#934=FACE_BOUND('',#868,.T.);
#935=FACE_BOUND('',#869,.T.);
#936=FACE_BOUND('',#870,.T.);
#937=FACE_BOUND('',#871,.T.);
#938=FACE_BOUND('',#872,.T.);
#939=FACE_BOUND('',#873,.T.);
#940=FACE_BOUND('',#874,.T.);
#941=FACE_BOUND('',#875,.T.);
#942=FACE_BOUND('',#876,.T.);
#943=FACE_BOUND('',#877,.T.);
#944=FACE_BOUND('',#878,.T.);
#945=FACE_BOUND('',#879,.T.);
#946=FACE_BOUND('',#880,.T.);
#947=FACE_BOUND('',#881,.T.);
#948=FACE_BOUND('',#882,.T.);
#949=FACE_BOUND('',#883,.T.);
#950=FACE_BOUND('',#884,.T.);
#951=FACE_BOUND('',#885,.T.);
#952=FACE_BOUND('',#886,.T.);
#953=FACE_BOUND('',#887,.T.);
#954=FACE_BOUND('',#888,.T.);
#955=FACE_BOUND('',#889,.T.);
#956=FACE_BOUND('',#890,.T.);
#957=FACE_BOUND('',#891,.T.);
#958=FACE_BOUND('',#892,.T.);
#959=FACE_BOUND('',#893,.T.);
#960=FACE_BOUND('',#894,.T.);
#961=FACE_BOUND('',#895,.T.);
#962=FACE_BOUND('',#896,.T.);
#963=FACE_BOUND('',#897,.T.);
#964=FACE_BOUND('',#898,.T.);
#965=PLANE('',#1084);
#966=PLANE('',#1085);
#967=PLANE('',#1087);
#968=PLANE('',#1088);
#969=PLANE('',#1089);
#970=PLANE('',#1091);
#971=PLANE('',#1095);
#972=PLANE('',#1097);
#973=PLANE('',#1098);
#974=PLANE('',#1104);
#975=PLANE('',#1105);
#976=PLANE('',#1107);
#977=PLANE('',#1111);
#978=PLANE('',#1112);
#979=PLANE('',#1113);
#980=PLANE('',#1114);
#981=PLANE('',#1116);
#982=PLANE('',#1117);
#983=PLANE('',#1118);
#984=PLANE('',#1119);
#985=PLANE('',#1120);
#986=PLANE('',#1121);
#987=PLANE('',#1122);
#988=PLANE('',#1123);
#989=PLANE('',#1124);
#990=PLANE('',#1125);
#991=PLANE('',#1126);
#992=PLANE('',#1127);
#993=PLANE('',#1128);
#994=PLANE('',#1129);
#995=PLANE('',#1130);
#996=PLANE('',#1131);
#997=PLANE('',#1132);
#998=PLANE('',#1133);
#999=PLANE('',#1134);
#1000=PLANE('',#1135);
#1001=PLANE('',#1136);
#1002=PLANE('',#1139);
#1003=PLANE('',#1140);
#1004=PLANE('',#1141);
#1005=PLANE('',#1142);
#1006=PLANE('',#1143);
#1007=PLANE('',#1144);
#1008=PLANE('',#1145);
#1009=PLANE('',#1146);
#1010=PLANE('',#1147);
#1011=PLANE('',#1148);
#1012=PLANE('',#1149);
#1013=PLANE('',#1150);
#1014=PLANE('',#1154);
#1015=ADVANCED_FACE('',(#899),#965,.T.);
#1016=ADVANCED_FACE('',(#900,#901),#966,.T.);
#1017=ADVANCED_FACE('',(#902),#967,.T.);
#1018=ADVANCED_FACE('',(#903),#968,.T.);
#1019=ADVANCED_FACE('',(#904),#969,.T.);
#1020=ADVANCED_FACE('',(#905),#970,.F.);
#1021=ADVANCED_FACE('',(#906,#907),#13,.F.);
#1022=ADVANCED_FACE('',(#908),#971,.F.);
#1023=ADVANCED_FACE('',(#909),#972,.F.);
#1024=ADVANCED_FACE('',(#910),#973,.T.);
#1025=ADVANCED_FACE('',(#911,#912,#913),#14,.F.);
#1026=ADVANCED_FACE('',(#914),#974,.T.);
#1027=ADVANCED_FACE('',(#915),#975,.F.);
#1028=ADVANCED_FACE('',(#916),#15,.F.);
#1029=ADVANCED_FACE('',(#917),#976,.T.);
#1030=ADVANCED_FACE('',(#918),#16,.F.);
#1031=ADVANCED_FACE('',(#919,#920),#977,.T.);
#1032=ADVANCED_FACE('',(#921),#978,.T.);
#1033=ADVANCED_FACE('',(#922),#979,.T.);
#1034=ADVANCED_FACE('',(#923,#924),#980,.T.);
#1035=ADVANCED_FACE('',(#925),#981,.F.);
#1036=ADVANCED_FACE('',(#926),#982,.T.);
#1037=ADVANCED_FACE('',(#927),#983,.F.);
#1038=ADVANCED_FACE('',(#928),#984,.F.);
#1039=ADVANCED_FACE('',(#929),#985,.F.);
#1040=ADVANCED_FACE('',(#930),#986,.F.);
#1041=ADVANCED_FACE('',(#931),#987,.T.);
#1042=ADVANCED_FACE('',(#932),#988,.T.);
#1043=ADVANCED_FACE('',(#933),#989,.T.);
#1044=ADVANCED_FACE('',(#934),#990,.T.);
#1045=ADVANCED_FACE('',(#935),#991,.F.);
#1046=ADVANCED_FACE('',(#936),#992,.T.);
#1047=ADVANCED_FACE('',(#937),#993,.T.);
#1048=ADVANCED_FACE('',(#938),#994,.F.);
#1049=ADVANCED_FACE('',(#939),#995,.T.);
#1050=ADVANCED_FACE('',(#940),#996,.T.);
#1051=ADVANCED_FACE('',(#941),#997,.F.);
#1052=ADVANCED_FACE('',(#942),#998,.F.);
#1053=ADVANCED_FACE('',(#943),#999,.T.);
#1054=ADVANCED_FACE('',(#944),#1000,.T.);
#1055=ADVANCED_FACE('',(#945),#1001,.T.);
#1056=ADVANCED_FACE('',(#946,#947),#17,.F.);
#1057=ADVANCED_FACE('',(#948),#1002,.T.);
#1058=ADVANCED_FACE('',(#949,#950),#1003,.T.);
#1059=ADVANCED_FACE('',(#951),#1004,.T.);
#1060=ADVANCED_FACE('',(#952),#1005,.T.);
#1061=ADVANCED_FACE('',(#953),#1006,.T.);
#1062=ADVANCED_FACE('',(#954),#1007,.F.);
#1063=ADVANCED_FACE('',(#955),#1008,.F.);
#1064=ADVANCED_FACE('',(#956),#1009,.T.);
#1065=ADVANCED_FACE('',(#957),#1010,.T.);
#1066=ADVANCED_FACE('',(#958),#1011,.F.);
#1067=ADVANCED_FACE('',(#959),#1012,.F.);
#1068=ADVANCED_FACE('',(#960,#961),#1013,.T.);
#1069=ADVANCED_FACE('',(#962,#963),#18,.F.);
#1070=ADVANCED_FACE('',(#964),#1014,.T.);
#1071=CLOSED_SHELL('',(#1015,#1016,#1017,#1018,#1019,#1020,#1021,#1022,
#1023,#1024,#1025,#1026,#1027,#1028,#1029,#1030,#1031,#1032,#1033,#1034,
#1035,#1036,#1037,#1038,#1039,#1040,#1041,#1042,#1043,#1044,#1045,#1046,
#1047,#1048,#1049,#1050,#1051,#1052,#1053,#1054,#1055,#1056,#1057,#1058,
#1059,#1060,#1061,#1062,#1063,#1064,#1065,#1066,#1067,#1068,#1069,#1070));
#1072=STYLED_ITEM('',(#1073),#1080);
#1073=PRESENTATION_STYLE_ASSIGNMENT((#1074));
#1074=SURFACE_STYLE_USAGE(.BOTH.,#1075);
#1075=SURFACE_SIDE_STYLE('',(#1076));
#1076=SURFACE_STYLE_FILL_AREA(#1077);
#1077=FILL_AREA_STYLE('',(#1078));
#1078=FILL_AREA_STYLE_COLOUR('',#1079);
#1079=COLOUR_RGB('',0.866666666666667,0.32156862745098,0.156862745098039);
#1080=MANIFOLD_SOLID_BREP('XY2_BOT',#1071);
#1081=SHAPE_DEFINITION_REPRESENTATION(#1736,#1082);
#1082=SHAPE_REPRESENTATION('XY2_BOT',(#1083),#1731);
#1083=AXIS2_PLACEMENT_3D('',#1431,#1155,#1156);
#1084=AXIS2_PLACEMENT_3D('',#1432,#1157,#1158);
#1085=AXIS2_PLACEMENT_3D('',#1455,#1170,#1171);
#1086=AXIS2_PLACEMENT_3D('',#1456,#1172,#1173);
#1087=AXIS2_PLACEMENT_3D('',#1480,#1186,#1187);
#1088=AXIS2_PLACEMENT_3D('',#1497,#1196,#1197);
#1089=AXIS2_PLACEMENT_3D('',#1512,#1206,#1207);
#1090=AXIS2_PLACEMENT_3D('',#1513,#1208,#1209);
#1091=AXIS2_PLACEMENT_3D('',#1541,#1224,#1225);
#1092=AXIS2_PLACEMENT_3D('',#1544,#1228,#1229);
#1093=AXIS2_PLACEMENT_3D('',#1545,#1230,#1231);
#1094=AXIS2_PLACEMENT_3D('',#1547,#1232,#1233);
#1095=AXIS2_PLACEMENT_3D('',#1549,#1234,#1235);
#1096=AXIS2_PLACEMENT_3D('',#1550,#1236,#1237);
#1097=AXIS2_PLACEMENT_3D('',#1566,#1246,#1247);
#1098=AXIS2_PLACEMENT_3D('',#1572,#1251,#1252);
#1099=AXIS2_PLACEMENT_3D('',#1578,#1256,#1257);
#1100=AXIS2_PLACEMENT_3D('',#1579,#1258,#1259);
#1101=AXIS2_PLACEMENT_3D('',#1582,#1260,#1261);
#1102=AXIS2_PLACEMENT_3D('',#1583,#1262,#1263);
#1103=AXIS2_PLACEMENT_3D('',#1588,#1265,#1266);
#1104=AXIS2_PLACEMENT_3D('',#1591,#1268,#1269);
#1105=AXIS2_PLACEMENT_3D('',#1598,#1274,#1275);
#1106=AXIS2_PLACEMENT_3D('',#1605,#1280,#1281);
#1107=AXIS2_PLACEMENT_3D('',#1606,#1282,#1283);
#1108=AXIS2_PLACEMENT_3D('',#1608,#1285,#1286);
#1109=AXIS2_PLACEMENT_3D('',#1612,#1288,#1289);
#1110=AXIS2_PLACEMENT_3D('',#1616,#1291,#1292);
#1111=AXIS2_PLACEMENT_3D('',#1617,#1293,#1294);
#1112=AXIS2_PLACEMENT_3D('',#1624,#1299,#1300);
#1113=AXIS2_PLACEMENT_3D('',#1628,#1303,#1304);
#1114=AXIS2_PLACEMENT_3D('',#1632,#1307,#1308);
#1115=AXIS2_PLACEMENT_3D('',#1633,#1309,#1310);
#1116=AXIS2_PLACEMENT_3D('',#1638,#1314,#1315);
#1117=AXIS2_PLACEMENT_3D('',#1647,#1320,#1321);
#1118=AXIS2_PLACEMENT_3D('',#1655,#1327,#1328);
#1119=AXIS2_PLACEMENT_3D('',#1656,#1329,#1330);
#1120=AXIS2_PLACEMENT_3D('',#1657,#1331,#1332);
#1121=AXIS2_PLACEMENT_3D('',#1658,#1333,#1334);
#1122=AXIS2_PLACEMENT_3D('',#1660,#1336,#1337);
#1123=AXIS2_PLACEMENT_3D('',#1663,#1340,#1341);
#1124=AXIS2_PLACEMENT_3D('',#1665,#1343,#1344);
#1125=AXIS2_PLACEMENT_3D('',#1667,#1346,#1347);
#1126=AXIS2_PLACEMENT_3D('',#1669,#1349,#1350);
#1127=AXIS2_PLACEMENT_3D('',#1671,#1352,#1353);
#1128=AXIS2_PLACEMENT_3D('',#1673,#1355,#1356);
#1129=AXIS2_PLACEMENT_3D('',#1675,#1358,#1359);
#1130=AXIS2_PLACEMENT_3D('',#1677,#1361,#1362);
#1131=AXIS2_PLACEMENT_3D('',#1679,#1364,#1365);
#1132=AXIS2_PLACEMENT_3D('',#1680,#1366,#1367);
#1133=AXIS2_PLACEMENT_3D('',#1683,#1370,#1371);
#1134=AXIS2_PLACEMENT_3D('',#1686,#1374,#1375);
#1135=AXIS2_PLACEMENT_3D('',#1688,#1377,#1378);
#1136=AXIS2_PLACEMENT_3D('',#1690,#1380,#1381);
#1137=AXIS2_PLACEMENT_3D('',#1691,#1382,#1383);
#1138=AXIS2_PLACEMENT_3D('',#1692,#1384,#1385);
#1139=AXIS2_PLACEMENT_3D('',#1694,#1386,#1387);
#1140=AXIS2_PLACEMENT_3D('',#1695,#1388,#1389);
#1141=AXIS2_PLACEMENT_3D('',#1699,#1392,#1393);
#1142=AXIS2_PLACEMENT_3D('',#1701,#1395,#1396);
#1143=AXIS2_PLACEMENT_3D('',#1702,#1397,#1398);
#1144=AXIS2_PLACEMENT_3D('',#1706,#1401,#1402);
#1145=AXIS2_PLACEMENT_3D('',#1710,#1405,#1406);
#1146=AXIS2_PLACEMENT_3D('',#1712,#1408,#1409);
#1147=AXIS2_PLACEMENT_3D('',#1713,#1410,#1411);
#1148=AXIS2_PLACEMENT_3D('',#1717,#1414,#1415);
#1149=AXIS2_PLACEMENT_3D('',#1721,#1418,#1419);
#1150=AXIS2_PLACEMENT_3D('',#1723,#1421,#1422);
#1151=AXIS2_PLACEMENT_3D('',#1724,#1423,#1424);
#1152=AXIS2_PLACEMENT_3D('',#1726,#1425,#1426);
#1153=AXIS2_PLACEMENT_3D('',#1727,#1427,#1428);
#1154=AXIS2_PLACEMENT_3D('',#1729,#1429,#1430);
#1155=DIRECTION('',(0.,0.,1.));
#1156=DIRECTION('',(1.,0.,0.));
#1157=DIRECTION('',(0.,1.,-6.12323399573677E-17));
#1158=DIRECTION('',(1.,0.,0.));
#1159=DIRECTION('',(0.,0.,1.));
#1160=DIRECTION('',(-1.,0.,0.));
#1161=DIRECTION('',(0.,-6.12323399573677E-17,-1.));
#1162=DIRECTION('',(1.,0.,0.));
#1163=DIRECTION('',(0.,6.12323399573677E-17,1.));
#1164=DIRECTION('',(1.,0.,0.));
#1165=DIRECTION('',(0.,-6.12323399573677E-17,-1.));
#1166=DIRECTION('',(1.,0.,0.));
#1167=DIRECTION('',(0.,6.12323399573677E-17,1.));
#1168=DIRECTION('',(0.707106781186546,4.32978028117747E-17,0.707106781186549));
#1169=DIRECTION('',(-1.,0.,0.));
#1170=DIRECTION('',(1.,0.,0.));
#1171=DIRECTION('',(0.,-1.,0.));
#1172=DIRECTION('',(-1.,-4.62592926927149E-16,0.));
#1173=DIRECTION('',(-4.62592926927149E-16,1.,0.));
#1174=DIRECTION('',(0.,-1.,0.));
#1175=DIRECTION('',(0.,0.,-1.));
#1176=DIRECTION('',(0.,-1.,0.));
#1177=DIRECTION('',(0.,1.,-6.12323399573677E-17));
#1178=DIRECTION('',(0.,-6.12323399573677E-17,-1.));
#1179=DIRECTION('',(0.,-1.,0.));
#1180=DIRECTION('',(0.,0.,-1.));
#1181=DIRECTION('',(0.,-1.,0.));
#1182=DIRECTION('',(0.,0.,1.));
#1183=DIRECTION('',(0.,-1.,0.));
#1184=DIRECTION('',(0.,0.,-1.));
#1185=DIRECTION('',(0.,1.,0.));
#1186=DIRECTION('',(-1.,-4.62592926927148E-16,0.));
#1187=DIRECTION('',(-4.62592926927148E-16,1.,0.));
#1188=DIRECTION('',(2.83256473634769E-32,-6.12323399573677E-17,-1.));
#1189=DIRECTION('',(4.62592926927148E-16,-1.,0.));
#1190=DIRECTION('',(0.,0.,1.));
#1191=DIRECTION('',(4.62592926927148E-16,-1.,2.77555756156289E-16));
#1192=DIRECTION('',(2.83256473634769E-32,-6.12323399573677E-17,-1.));
#1193=DIRECTION('',(4.62592926927148E-16,-1.,0.));
#1194=DIRECTION('',(0.,0.,1.));
#1195=DIRECTION('',(-4.62592926927148E-16,1.,0.));
#1196=DIRECTION('',(0.,1.,-6.12323399573677E-17));
#1197=DIRECTION('',(1.,0.,0.));
#1198=DIRECTION('',(-2.83256473634769E-32,6.12323399573677E-17,1.));
#1199=DIRECTION('',(-1.,0.,0.));
#1200=DIRECTION('',(0.707106781186548,4.32978028117747E-17,0.707106781186548));
#1201=DIRECTION('',(-1.,0.,0.));
#1202=DIRECTION('',(0.,0.,1.));
#1203=DIRECTION('',(-1.,0.,0.));
#1204=DIRECTION('',(0.707106781186529,-4.32978028117758E-17,-0.707106781186566));
#1205=DIRECTION('',(-1.,-7.86194647258622E-48,-1.28395329625815E-31));
#1206=DIRECTION('',(0.,0.,1.));
#1207=DIRECTION('',(0.,-1.,0.));
#1208=DIRECTION('',(0.,0.,1.));
#1209=DIRECTION('',(0.,-1.,0.));
#1210=DIRECTION('',(4.62592926927148E-16,-1.,0.));
#1211=DIRECTION('',(-1.,0.,0.));
#1212=DIRECTION('',(0.,1.,0.));
#1213=DIRECTION('',(-1.,0.,0.));
#1214=DIRECTION('',(0.0995037190209989,-0.995037190209989,0.));
#1215=DIRECTION('',(0.,-1.,0.));
#1216=DIRECTION('',(1.,0.,0.));
#1217=DIRECTION('',(0.,1.,0.));
#1218=DIRECTION('',(-1.,0.,0.));
#1219=DIRECTION('',(0.,1.,0.));
#1220=DIRECTION('',(1.,0.,0.));
#1221=DIRECTION('',(0.,1.,0.));
#1222=DIRECTION('',(1.,0.,0.));
#1223=DIRECTION('',(0.,1.,-6.12323399573677E-17));
#1224=DIRECTION('',(-0.707106781186547,0.,-0.707106781186548));
#1225=DIRECTION('',(0.,1.,0.));
#1226=DIRECTION('',(0.707106781186548,-4.32978028117746E-17,-0.707106781186547));
#1227=DIRECTION('',(0.707106781186548,0.,-0.707106781186547));
#1228=DIRECTION('',(0.,-1.,0.));
#1229=DIRECTION('',(-1.,0.,0.));
#1230=DIRECTION('',(0.,-1.,0.));
#1231=DIRECTION('',(-1.,0.,0.));
#1232=DIRECTION('',(0.,1.,-6.12323399573677E-17));
#1233=DIRECTION('',(0.,6.12323399573677E-17,1.));
#1234=DIRECTION('',(0.,0.,1.));
#1235=DIRECTION('',(0.,-1.,0.));
#1236=DIRECTION('',(0.,0.,1.));
#1237=DIRECTION('',(0.,-1.,0.));
#1238=DIRECTION('',(0.,-1.,0.));
#1239=DIRECTION('',(-1.,0.,0.));
#1240=DIRECTION('',(0.,1.,0.));
#1241=DIRECTION('',(-0.0995037190209989,0.995037190209989,0.));
#1242=DIRECTION('',(-1.,0.,0.));
#1243=DIRECTION('',(0.,1.,0.));
#1244=DIRECTION('',(-1.,0.,0.));
#1245=DIRECTION('',(-4.62592926927148E-16,1.,0.));
#1246=DIRECTION('',(0.707106781186548,3.2710259555912E-16,-0.707106781186548));
#1247=DIRECTION('',(4.62592926927148E-16,-1.,0.));
#1248=DIRECTION('',(-0.706667445230674,-0.0352454777567989,-0.706667445230674));
#1249=DIRECTION('',(0.,-1.,-4.62592926927148E-16));
#1250=DIRECTION('',(0.707106781186548,0.,0.707106781186548));
#1251=DIRECTION('',(-0.707106781186566,-3.27102595559128E-16,-0.707106781186529));
#1252=DIRECTION('',(-4.62592926927148E-16,1.,0.));
#1253=DIRECTION('',(0.707106781186529,0.,-0.707106781186566));
#1254=DIRECTION('',(0.,-1.,4.62592926927173E-16));
#1255=DIRECTION('',(0.706667445230655,0.0352454777567957,-0.706667445230693));
#1256=DIRECTION('',(1.,4.62592926927149E-16,0.));
#1257=DIRECTION('',(4.62592926927149E-16,-1.,0.));
#1258=DIRECTION('',(-1.,0.,0.));
#1259=DIRECTION('',(0.,1.,0.));
#1260=DIRECTION('',(0.995037190209989,0.0995037190209989,0.));
#1261=DIRECTION('',(0.0995037190209989,-0.995037190209989,0.));
#1262=DIRECTION('',(1.,0.,0.));
#1263=DIRECTION('',(0.,-1.,0.));
#1264=DIRECTION('',(1.,4.62592926927149E-16,0.));
#1265=DIRECTION('',(1.,0.,0.));
#1266=DIRECTION('',(0.,-1.,0.));
#1267=DIRECTION('',(1.,4.62592926927149E-16,0.));
#1268=DIRECTION('',(-0.703597544730292,-0.0703597544730291,0.707106781186548));
#1269=DIRECTION('',(-0.0995037190209989,0.995037190209989,0.));
#1270=DIRECTION('',(-0.708863570928183,0.,-0.705345615858598));
#1271=DIRECTION('',(0.,0.995085965347403,0.0990147542976673));
#1272=DIRECTION('',(0.0995037190209989,-0.995037190209989,0.));
#1273=DIRECTION('',(-0.706667445230674,-0.0352454777567988,-0.706667445230674));
#1274=DIRECTION('',(0.70359754473031,0.070359754473031,0.707106781186529));
#1275=DIRECTION('',(-0.0995037190209989,0.995037190209989,0.));
#1276=DIRECTION('',(0.,0.995085965347402,-0.0990147542976726));
#1277=DIRECTION('',(-0.708863570928164,0.,0.705345615858617));
#1278=DIRECTION('',(0.70666744523066,0.0352454777567325,-0.706667445230691));
#1279=DIRECTION('',(-0.0995037190209989,0.995037190209989,0.));
#1280=DIRECTION('',(0.,0.,1.));
#1281=DIRECTION('',(0.,-1.,0.));
#1282=DIRECTION('',(0.707106781186549,0.,-0.707106781186546));
#1283=DIRECTION('',(0.,-1.,0.));
#1284=DIRECTION('',(0.707106781186546,-2.77555756156289E-17,0.707106781186549));
#1285=DIRECTION('',(0.,-1.,0.));
#1286=DIRECTION('',(-1.,0.,0.));
#1287=DIRECTION('',(0.,1.,0.));
#1288=DIRECTION('',(0.,1.,0.));
#1289=DIRECTION('',(1.,0.,0.));
#1290=DIRECTION('',(0.,1.,0.));
#1291=DIRECTION('',(0.,-1.,0.));
#1292=DIRECTION('',(-1.,0.,0.));
#1293=DIRECTION('',(0.,-1.,0.));
#1294=DIRECTION('',(1.,0.,0.));
#1295=DIRECTION('',(-0.707106781186548,0.,0.707106781186548));
#1296=DIRECTION('',(0.,0.,-1.));
#1297=DIRECTION('',(-1.,0.,0.));
#1298=DIRECTION('',(-0.707106781186546,0.,0.707106781186549));
#1299=DIRECTION('',(1.,0.,0.));
#1300=DIRECTION('',(0.,-1.,0.));
#1301=DIRECTION('',(0.,-1.,0.));
#1302=DIRECTION('',(0.,0.,1.));
#1303=DIRECTION('',(0.,0.,1.));
#1304=DIRECTION('',(0.,-1.,0.));
#1305=DIRECTION('',(1.,0.,0.));
#1306=DIRECTION('',(0.,1.,0.));
#1307=DIRECTION('',(0.,1.,0.));
#1308=DIRECTION('',(1.,0.,0.));
#1309=DIRECTION('',(0.,1.,0.));
#1310=DIRECTION('',(1.,0.,0.));
#1311=DIRECTION('',(-0.707106781186546,0.,0.707106781186549));
#1312=DIRECTION('',(0.707106781186546,0.,-0.707106781186549));
#1313=DIRECTION('',(0.707106781186548,0.,-0.707106781186548));
#1314=DIRECTION('',(0.,1.,0.));
#1315=DIRECTION('',(1.,0.,0.));
#1316=DIRECTION('',(-1.,0.,0.));
#1317=DIRECTION('',(0.,0.,-1.));
#1318=DIRECTION('',(1.,0.,0.));
#1319=DIRECTION('',(0.,0.,1.));
#1320=DIRECTION('',(-1.,0.,0.));
#1321=DIRECTION('',(0.,1.,0.));
#1322=DIRECTION('',(0.,0.,1.));
#1323=DIRECTION('',(0.,-1.,0.));
#1324=DIRECTION('',(0.,0.,1.));
#1325=DIRECTION('',(0.,1.,0.));
#1326=DIRECTION('',(0.,0.,1.));
#1327=DIRECTION('',(0.995037190209989,0.0995037190209989,0.));
#1328=DIRECTION('',(0.,0.,1.));
#1329=DIRECTION('',(-0.707106781186549,0.,-0.707106781186546));
#1330=DIRECTION('',(0.,1.,0.));
#1331=DIRECTION('',(-0.707106781186548,0.,-0.707106781186548));
#1332=DIRECTION('',(0.,1.,0.));
#1333=DIRECTION('',(0.707106781186548,0.,-0.707106781186548));
#1334=DIRECTION('',(0.,-1.,0.));
#1335=DIRECTION('',(0.707106781186548,0.,0.707106781186548));
#1336=DIRECTION('',(-0.577350269189626,-0.577350269189625,0.577350269189626));
#1337=DIRECTION('',(0.707106781186548,0.,0.707106781186548));
#1338=DIRECTION('',(-1.23903709934807E-16,0.707106781186548,0.707106781186547));
#1339=DIRECTION('',(0.707106781186548,-0.707106781186548,9.33725767576153E-16));
#1340=DIRECTION('',(-0.707106781186563,0.,-0.707106781186532));
#1341=DIRECTION('',(0.,1.,0.));
#1342=DIRECTION('',(0.707106781186532,1.83708663656823E-16,-0.707106781186563));
#1343=DIRECTION('',(-0.707106781186548,-0.707106781186548,0.));
#1344=DIRECTION('',(0.,0.,-1.));
#1345=DIRECTION('',(-0.707106781186548,0.707106781186548,-4.99970298459743E-15));
#1346=DIRECTION('',(0.,-0.707106781186547,0.707106781186548));
#1347=DIRECTION('',(1.,0.,0.));
#1348=DIRECTION('',(9.61481343191779E-17,-0.707106781186548,-0.707106781186547));
#1349=DIRECTION('',(-0.707106781186549,0.,-0.707106781186546));
#1350=DIRECTION('',(0.,-1.,0.));
#1351=DIRECTION('',(0.707106781186546,-9.18543318284147E-17,-0.707106781186549));
#1352=DIRECTION('',(-0.577350269189633,-0.577350269189637,-0.577350269189607));
#1353=DIRECTION('',(-0.70710678118655,0.707106781186545,0.));
#1354=DIRECTION('',(0.,0.707106781186529,-0.707106781186566));
#1355=DIRECTION('',(0.577350269189628,-0.577350269189624,0.577350269189625));
#1356=DIRECTION('',(0.707106781186546,0.,-0.707106781186549));
#1357=DIRECTION('',(0.707106781186546,0.70710678118655,-4.52985095980263E-16));
#1358=DIRECTION('',(0.,0.707106781186566,0.707106781186529));
#1359=DIRECTION('',(-1.,0.,0.));
#1360=DIRECTION('',(0.,-0.707106781186529,0.707106781186566));
#1361=DIRECTION('',(0.70710678118655,-0.707106781186546,0.));
#1362=DIRECTION('',(0.,0.,-1.));
#1363=DIRECTION('',(-0.707106781186546,-0.70710678118655,3.73738686745454E-14));
#1364=DIRECTION('',(0.577350269189617,-0.577350269189645,-0.577350269189615));
#1365=DIRECTION('',(-0.707106781186564,-0.707106781186531,0.));
#1366=DIRECTION('',(0.,1.,0.));
#1367=DIRECTION('',(1.,0.,0.));
#1368=DIRECTION('',(0.,0.,1.));
#1369=DIRECTION('',(0.,0.,1.));
#1370=DIRECTION('',(1.,0.,0.));
#1371=DIRECTION('',(0.,-1.,0.));
#1372=DIRECTION('',(0.,0.,1.));
#1373=DIRECTION('',(0.,0.,1.));
#1374=DIRECTION('',(0.,1.,0.));
#1375=DIRECTION('',(1.,0.,0.));
#1376=DIRECTION('',(0.,0.,1.));
#1377=DIRECTION('',(0.,1.,0.));
#1378=DIRECTION('',(1.,0.,0.));
#1379=DIRECTION('',(0.,0.,1.));
#1380=DIRECTION('',(1.,0.,0.));
#1381=DIRECTION('',(0.,-1.,0.));
#1382=DIRECTION('',(0.,1.,-6.12323399573677E-17));
#1383=DIRECTION('',(0.,6.12323399573677E-17,1.));
#1384=DIRECTION('',(0.,1.,-6.12323399573677E-17));
#1385=DIRECTION('',(0.,6.12323399573677E-17,1.));
#1386=DIRECTION('',(0.,1.,-6.12323399573677E-17));
#1387=DIRECTION('',(1.,0.,0.));
#1388=DIRECTION('',(0.,1.,-6.12323399573677E-17));
#1389=DIRECTION('',(1.,0.,0.));
#1390=DIRECTION('',(1.,0.,0.));
#1391=DIRECTION('',(0.,-6.12323399573677E-17,-1.));
#1392=DIRECTION('',(0.,6.12323399573677E-17,1.));
#1393=DIRECTION('',(0.,-1.,6.12323399573677E-17));
#1394=DIRECTION('',(0.,1.,-6.12323399573677E-17));
#1395=DIRECTION('',(1.,0.,0.));
#1396=DIRECTION('',(0.,-1.,0.));
#1397=DIRECTION('',(0.,0.,-1.));
#1398=DIRECTION('',(0.,1.,0.));
#1399=DIRECTION('',(4.62592926927148E-16,-1.,0.));
#1400=DIRECTION('',(-1.,-4.62592926927148E-16,0.));
#1401=DIRECTION('',(1.28395329625815E-31,-2.77555756156289E-16,-1.));
#1402=DIRECTION('',(0.,1.,-2.77555756156289E-16));
#1403=DIRECTION('',(-1.,-4.62592926927148E-16,0.));
#1404=DIRECTION('',(4.62592926927148E-16,-1.,2.77555756156289E-16));
#1405=DIRECTION('',(4.62592926927148E-16,-1.,0.));
#1406=DIRECTION('',(-1.,-4.62592926927148E-16,0.));
#1407=DIRECTION('',(0.,0.,1.));
#1408=DIRECTION('',(-1.,-4.62592926927148E-16,0.));
#1409=DIRECTION('',(0.,0.,1.));
#1410=DIRECTION('',(0.,0.,1.));
#1411=DIRECTION('',(0.,-1.,0.));
#1412=DIRECTION('',(0.,-1.,0.));
#1413=DIRECTION('',(1.,0.,0.));
#1414=DIRECTION('',(0.,0.,1.));
#1415=DIRECTION('',(0.,-1.,0.));
#1416=DIRECTION('',(1.,0.,0.));
#1417=DIRECTION('',(0.,-1.,0.));
#1418=DIRECTION('',(0.,-1.,0.));
#1419=DIRECTION('',(-1.,0.,0.));
#1420=DIRECTION('',(0.,0.,-1.));
#1421=DIRECTION('',(1.,0.,0.));
#1422=DIRECTION('',(0.,0.,-1.));
#1423=DIRECTION('',(1.,0.,0.));
#1424=DIRECTION('',(0.,-1.,0.));
#1425=DIRECTION('',(1.,0.,0.));
#1426=DIRECTION('',(0.,-1.,0.));
#1427=DIRECTION('',(1.,0.,0.));
#1428=DIRECTION('',(0.,-1.,0.));
#1429=DIRECTION('',(1.,0.,0.));
#1430=DIRECTION('',(0.,0.,-1.));
#1431=CARTESIAN_POINT('',(0.,0.,0.));
#1432=CARTESIAN_POINT('',(0.243313524404355,0.400450115781006,-0.0225));
#1433=CARTESIAN_POINT('',(-0.13629717195659,0.400450115781006,-0.868176704758173));
#1434=CARTESIAN_POINT('',(-0.13629717195659,0.400450115781006,0.));
#1435=CARTESIAN_POINT('',(-0.13629717195659,0.400450115781006,-0.045));
#1436=CARTESIAN_POINT('',(-0.130236132310247,0.400450115781006,0.));
#1437=CARTESIAN_POINT('',(-0.134736132310247,0.400450115781006,0.));
#1438=CARTESIAN_POINT('',(-0.134736132310247,0.400450115781006,-0.009));
#1439=CARTESIAN_POINT('',(-0.134736132310247,0.400450115781006,-0.018));
#1440=CARTESIAN_POINT('',(-0.128736132310247,0.400450115781006,-0.018));
#1441=CARTESIAN_POINT('',(-0.122736132310247,0.400450115781006,-0.018));
#1442=CARTESIAN_POINT('',(-0.122736132310247,0.400450115781006,-0.0125));
#1443=CARTESIAN_POINT('',(-0.122736132310247,0.400450115781006,-0.02));
#1444=CARTESIAN_POINT('',(0.243313524404355,0.400450115781006,-0.02));
#1445=CARTESIAN_POINT('',(-0.126236132310247,0.400450115781006,-0.02));
#1446=CARTESIAN_POINT('',(-0.126236132310247,0.400450115781006,-0.0225));
#1447=CARTESIAN_POINT('',(-0.126236132310247,0.400450115781006,-0.028));
#1448=CARTESIAN_POINT('',(0.243313524404355,0.400450115781006,-0.028));
#1449=CARTESIAN_POINT('',(-0.122736132310247,0.400450115781006,-0.028));
#1450=CARTESIAN_POINT('',(-0.122736132310247,0.400450115781006,-0.0125));
#1451=CARTESIAN_POINT('',(-0.122736132310247,0.400450115781006,-0.04));
#1452=CARTESIAN_POINT('',(-0.122736132310247,0.400450115781006,-0.04));
#1453=CARTESIAN_POINT('',(-0.127736132310247,0.400450115781006,-0.045));
#1454=CARTESIAN_POINT('',(-0.130236132310247,0.400450115781006,-0.045));
#1455=CARTESIAN_POINT('',(-0.122736132310247,0.385052546262741,-0.0125));
#1456=CARTESIAN_POINT('',(-0.122736132310247,0.364,-0.022));
#1457=CARTESIAN_POINT('',(-0.122736132310247,0.3735,-0.022));
#1458=CARTESIAN_POINT('',(-0.122736132310247,0.385052546262741,-0.028));
#1459=CARTESIAN_POINT('',(-0.122736132310247,0.390450115781006,-0.028));
#1460=CARTESIAN_POINT('',(-0.122736132310247,0.390450115781006,-0.0125));
#1461=CARTESIAN_POINT('',(-0.122736132310247,0.390450115781006,-0.02));
#1462=CARTESIAN_POINT('',(-0.122736132310247,0.385052546262741,-0.02));
#1463=CARTESIAN_POINT('',(-0.122736132310247,0.390450115781006,-0.018));
#1464=CARTESIAN_POINT('',(-0.122736132310247,0.390450115781006,-0.018));
#1465=CARTESIAN_POINT('',(-0.122736132310247,0.390450115781006,-0.009));
#1466=CARTESIAN_POINT('',(-0.122736132310247,0.390450115781006,-0.005));
#1467=CARTESIAN_POINT('',(-0.122736132310247,0.385052546262741,-0.005));
#1468=CARTESIAN_POINT('',(-0.122736132310247,0.385052546262741,-0.005));
#1469=CARTESIAN_POINT('',(-0.122736132310247,0.385052546262741,-0.0125));
#1470=CARTESIAN_POINT('',(-0.122736132310247,0.385052546262741,-0.025));
#1471=CARTESIAN_POINT('',(-0.122736132310247,0.385052546262741,-0.025));
#1472=CARTESIAN_POINT('',(-0.122736132310247,0.375052546262741,-0.025));
#1473=CARTESIAN_POINT('',(-0.122736132310247,0.375052546262741,-0.850868496704852));
#1474=CARTESIAN_POINT('',(-0.122736132310247,0.375052546262741,-0.00500000000000023));
#1475=CARTESIAN_POINT('',(-0.122736132310247,0.385052546262741,-0.005));
#1476=CARTESIAN_POINT('',(-0.122736132310247,0.345052546262741,-0.005));
#1477=CARTESIAN_POINT('',(-0.122736132310247,0.345052546262741,-0.045));
#1478=CARTESIAN_POINT('',(-0.122736132310247,0.345052546262741,-0.04));
#1479=CARTESIAN_POINT('',(-0.122736132310247,0.415052546262741,-0.04));
#1480=CARTESIAN_POINT('',(-0.162736132310247,0.400052546262741,-0.045));
#1481=CARTESIAN_POINT('',(-0.162736132310247,0.400450115781006,-0.045));
#1482=CARTESIAN_POINT('',(-0.162736132310247,0.400450115781006,-0.005));
#1483=CARTESIAN_POINT('',(-0.162736132310247,0.400450115781006,-0.0175));
#1484=CARTESIAN_POINT('',(-0.162736132310247,0.400052546262741,-0.0175));
#1485=CARTESIAN_POINT('',(-0.162736132310247,0.387950115781006,-0.0175));
#1486=CARTESIAN_POINT('',(-0.162736132310247,0.387950115781006,-0.045));
#1487=CARTESIAN_POINT('',(-0.162736132310247,0.387950115781006,-0.0275));
#1488=CARTESIAN_POINT('',(-0.162736132310247,0.400052546262741,-0.0275));
#1489=CARTESIAN_POINT('',(-0.162736132310247,0.400450115781006,-0.0275));
#1490=CARTESIAN_POINT('',(-0.162736132310247,0.400450115781006,-0.045));
#1491=CARTESIAN_POINT('',(-0.162736132310247,0.400450115781006,-0.04));
#1492=CARTESIAN_POINT('',(-0.162736132310247,0.378052546262741,-0.04));
#1493=CARTESIAN_POINT('',(-0.162736132310247,0.378052546262741,-0.04));
#1494=CARTESIAN_POINT('',(-0.162736132310247,0.378052546262741,-0.045));
#1495=CARTESIAN_POINT('',(-0.162736132310247,0.378052546262741,-0.005));
#1496=CARTESIAN_POINT('',(-0.162736132310247,0.400052546262741,-0.005));
#1497=CARTESIAN_POINT('',(0.243313524404355,0.400450115781006,-0.0225));
#1498=CARTESIAN_POINT('',(-0.160236132310247,0.400450115781006,-0.0225));
#1499=CARTESIAN_POINT('',(-0.160236132310247,0.400450115781006,-0.0275));
#1500=CARTESIAN_POINT('',(-0.160236132310247,0.400450115781006,-0.0175));
#1501=CARTESIAN_POINT('',(0.243313524404355,0.400450115781006,-0.0175));
#1502=CARTESIAN_POINT('',(-0.157736132310247,0.400450115781006,3.08998876987938E-18));
#1503=CARTESIAN_POINT('',(-0.157736132310247,0.400450115781006,-3.62278378076172E-24));
#1504=CARTESIAN_POINT('',(-0.130236132310247,0.400450115781006,0.));
#1505=CARTESIAN_POINT('',(-0.157282113079037,0.400450115781006,0.));
#1506=CARTESIAN_POINT('',(-0.157282113079037,0.400450115781006,-0.850868496704852));
#1507=CARTESIAN_POINT('',(-0.157282113079037,0.400450115781006,-0.045));
#1508=CARTESIAN_POINT('',(-0.130236132310247,0.400450115781006,-0.045));
#1509=CARTESIAN_POINT('',(-0.157736132310247,0.400450115781006,-0.045));
#1510=CARTESIAN_POINT('',(-0.162736132310247,0.400450115781006,-0.04));
#1511=CARTESIAN_POINT('',(0.243313524404355,0.400450115781006,-0.0275));
#1512=CARTESIAN_POINT('',(-0.130236132310247,0.385052546262741,0.));
#1513=CARTESIAN_POINT('',(-0.146789642517814,0.400052546262741,0.));
#1514=CARTESIAN_POINT('',(-0.157736132310247,0.385052546262741,0.));
#1515=CARTESIAN_POINT('',(-0.157736132310247,0.387006029657602,-2.98797455590355E-24));
#1516=CARTESIAN_POINT('',(-0.130236132310247,0.387006029657602,0.));
#1517=CARTESIAN_POINT('',(-0.154236132310247,0.387006029657602,0.));
#1518=CARTESIAN_POINT('',(-0.154236132310247,0.385052546262741,0.));
#1519=CARTESIAN_POINT('',(-0.154236132310247,0.373006029657602,0.));
#1520=CARTESIAN_POINT('',(-0.130236132310247,0.373006029657602,0.));
#1521=CARTESIAN_POINT('',(-0.157206542839172,0.373006029657602,-5.42101086242752E-20));
#1522=CARTESIAN_POINT('',(-0.15813223348791,0.382262936144975,0.));
#1523=CARTESIAN_POINT('',(-0.155736132310247,0.358301924368346,0.));
#1524=CARTESIAN_POINT('',(-0.155736132310247,0.385052546262741,0.));
#1525=CARTESIAN_POINT('',(-0.155736132310247,0.345052546262741,0.));
#1526=CARTESIAN_POINT('',(-0.122736132310247,0.345052546262741,0.));
#1527=CARTESIAN_POINT('',(-0.127736132310247,0.345052546262741,0.));
#1528=CARTESIAN_POINT('',(-0.127736132310247,0.385052546262741,0.));
#1529=CARTESIAN_POINT('',(-0.127736132310247,0.375052546262741,0.));
#1530=CARTESIAN_POINT('',(-0.130236132310247,0.375052546262741,0.));
#1531=CARTESIAN_POINT('',(-0.142736132310247,0.375052546262741,0.));
#1532=CARTESIAN_POINT('',(-0.142736132310247,0.385052546262741,0.));
#1533=CARTESIAN_POINT('',(-0.142736132310247,0.385052546262741,0.));
#1534=CARTESIAN_POINT('',(-0.130236132310247,0.385052546262741,0.));
#1535=CARTESIAN_POINT('',(-0.127736132310247,0.385052546262741,0.));
#1536=CARTESIAN_POINT('',(-0.127736132310247,0.385052546262741,0.));
#1537=CARTESIAN_POINT('',(-0.127736132310247,0.390450115781006,0.));
#1538=CARTESIAN_POINT('',(-0.128736132310247,0.390450115781006,-2.39081742258961E-17));
#1539=CARTESIAN_POINT('',(-0.134736132310247,0.390450115781006,6.12323399573677E-19));
#1540=CARTESIAN_POINT('',(-0.134736132310247,0.390450115781006,6.12323399573677E-19));
#1541=CARTESIAN_POINT('',(-0.127736132310247,0.385052546262741,0.));
#1542=CARTESIAN_POINT('',(-0.127736132310247,0.390450115781006,-1.65252905842958E-19));
#1543=CARTESIAN_POINT('',(-0.0324737181315963,0.385052546262741,-0.0952624141786505));
#1544=CARTESIAN_POINT('',(-0.128736132310247,0.395052546262741,-0.01));
#1545=CARTESIAN_POINT('',(-0.128736132310247,0.385052546262741,-0.01));
#1546=CARTESIAN_POINT('',(-0.131236132310247,0.385052546262741,-0.01));
#1547=CARTESIAN_POINT('',(-0.128736132310247,0.390450115781006,-0.01));
#1548=CARTESIAN_POINT('',(-0.128736132310247,0.390450115781006,-0.0075));
#1549=CARTESIAN_POINT('',(-0.130236132310247,0.375052546262741,-0.045));
#1550=CARTESIAN_POINT('',(-0.146789642517814,0.400052546262741,-0.045));
#1551=CARTESIAN_POINT('',(-0.127736132310247,0.340052546262741,-0.045));
#1552=CARTESIAN_POINT('',(-0.127736132310247,0.345052546262741,-0.045));
#1553=CARTESIAN_POINT('',(-0.130236132310247,0.345052546262741,-0.045));
#1554=CARTESIAN_POINT('',(-0.155736132310247,0.345052546262741,-0.045));
#1555=CARTESIAN_POINT('',(-0.155736132310247,0.358052546262741,-0.045));
#1556=CARTESIAN_POINT('',(-0.155736132310247,0.358301924368345,-0.045));
#1557=CARTESIAN_POINT('',(-0.157760946359197,0.378550064857846,-0.045));
#1558=CARTESIAN_POINT('',(-0.157206542839172,0.373006029657602,-0.045));
#1559=CARTESIAN_POINT('',(-0.130236132310247,0.373006029657602,-0.045));
#1560=CARTESIAN_POINT('',(-0.154236132310247,0.373006029657602,-0.045));
#1561=CARTESIAN_POINT('',(-0.154236132310247,0.375052546262741,-0.045));
#1562=CARTESIAN_POINT('',(-0.154236132310247,0.387006029657602,-0.045));
#1563=CARTESIAN_POINT('',(-0.130236132310247,0.387006029657602,-0.045));
#1564=CARTESIAN_POINT('',(-0.157736132310247,0.387006029657602,-0.045));
#1565=CARTESIAN_POINT('',(-0.157736132310247,0.460052546262741,-0.045));
#1566=CARTESIAN_POINT('',(-0.157736132310247,0.385052546262741,0.));
#1567=CARTESIAN_POINT('',(-0.157567995706702,0.37831031028588,0.000168136603544803));
#1568=CARTESIAN_POINT('',(-0.159236132310247,0.378227110936664,-0.0015));
#1569=CARTESIAN_POINT('',(-0.159236132310247,0.385052546262741,-0.0015));
#1570=CARTESIAN_POINT('',(-0.159236132310247,0.387006029657602,-0.00150000000000009));
#1571=CARTESIAN_POINT('',(-0.157736132310247,0.387006029657602,4.5183380066613E-19));
#1572=CARTESIAN_POINT('',(-0.162736132310247,0.400052546262741,-0.04));
#1573=CARTESIAN_POINT('',(-0.162736132310247,0.387006029657602,-0.04));
#1574=CARTESIAN_POINT('',(-0.159236132310247,0.387006029657602,-0.0435));
#1575=CARTESIAN_POINT('',(-0.159236132310247,0.400052546262741,-0.0435));
#1576=CARTESIAN_POINT('',(-0.159236132310247,0.378227110936664,-0.0435));
#1577=CARTESIAN_POINT('',(-0.162188182012355,0.378079875624191,-0.0405479502978913));
#1578=CARTESIAN_POINT('',(-0.607554972300497,0.364,-0.022));
#1579=CARTESIAN_POINT('',(-0.160736132310247,0.364,-0.022));
#1580=CARTESIAN_POINT('',(-0.160736132310247,0.358052546262741,-0.0145920452186069));
#1581=CARTESIAN_POINT('',(-0.160736132310247,0.358052546262741,-0.0294079547813932));
#1582=CARTESIAN_POINT('',(-0.161330877683973,0.364,-0.022));
#1583=CARTESIAN_POINT('',(-0.159236132310247,0.364,-0.022));
#1584=CARTESIAN_POINT('',(-0.159236132310247,0.373006029657602,-0.0189765202487221));
#1585=CARTESIAN_POINT('',(-0.159236132310247,0.373006029657602,-0.0250234797512781));
#1586=CARTESIAN_POINT('',(-0.607554972300497,0.373006029657602,-0.0189765202487227));
#1587=CARTESIAN_POINT('',(-0.154236132310247,0.373006029657602,-0.0189765202487221));
#1588=CARTESIAN_POINT('',(-0.154236132310247,0.364,-0.022));
#1589=CARTESIAN_POINT('',(-0.154236132310247,0.373006029657602,-0.0250234797512781));
#1590=CARTESIAN_POINT('',(-0.607554972300497,0.373006029657602,-0.0250234797512775));
#1591=CARTESIAN_POINT('',(-0.15813223348791,0.382262936144975,0.));
#1592=CARTESIAN_POINT('',(-0.157671690876598,0.373006029657602,-0.000462839596191266));
#1593=CARTESIAN_POINT('',(-0.159236132310247,0.373006029657602,-0.00201951700457757));
#1594=CARTESIAN_POINT('',(-0.159236132310247,0.382371161519714,-0.00108765155517541));
#1595=CARTESIAN_POINT('',(-0.162736132310247,0.378052546262741,-0.005));
#1596=CARTESIAN_POINT('',(-0.160736132310247,0.358052546262741,-0.00500000000000023));
#1597=CARTESIAN_POINT('',(-0.155069859072256,0.358335155159927,0.000666273237991441));
#1598=CARTESIAN_POINT('',(-0.157142134478009,0.372361946045965,-0.045));
#1599=CARTESIAN_POINT('',(-0.159236132310247,0.372567239951086,-0.0429368217877562));
#1600=CARTESIAN_POINT('',(-0.159236132310247,0.373006029657602,-0.0429804829954226));
#1601=CARTESIAN_POINT('',(-0.157174178438787,0.373006029657602,-0.0450322037820229));
#1602=CARTESIAN_POINT('',(-0.160960293795747,0.358041366069421,-0.0397758385144995));
#1603=CARTESIAN_POINT('',(-0.160736132310247,0.358052546262741,-0.04));
#1604=CARTESIAN_POINT('',(-0.160736132310247,0.358052546262741,-0.04));
#1605=CARTESIAN_POINT('',(-0.146789642517814,0.400052546262741,-0.850868496704852));
#1606=CARTESIAN_POINT('',(-0.122736132310247,0.385052546262741,-0.04));
#1607=CARTESIAN_POINT('',(-0.127736132310247,0.345052546262741,-0.045));
#1608=CARTESIAN_POINT('',(-0.132736132310247,0.400052546262741,-0.015));
#1609=CARTESIAN_POINT('',(-0.137736132310247,0.400052546262741,-0.015));
#1610=CARTESIAN_POINT('',(-0.137736132310247,0.375052546262741,-0.0150000000000002));
#1611=CARTESIAN_POINT('',(-0.137736132310247,0.385052546262741,-0.015));
#1612=CARTESIAN_POINT('',(-0.132736132310247,0.375052546262741,-0.015));
#1613=CARTESIAN_POINT('',(-0.132736132310247,0.375052546262741,-0.02));
#1614=CARTESIAN_POINT('',(-0.132736132310247,0.400052546262741,-0.02));
#1615=CARTESIAN_POINT('',(-0.132736132310247,0.385052546262741,-0.02));
#1616=CARTESIAN_POINT('',(-0.132736132310247,0.385052546262741,-0.015));
#1617=CARTESIAN_POINT('',(0.040288696047054,0.385052546262741,-0.0225));
#1618=CARTESIAN_POINT('',(-0.142736132310247,0.385052546262741,0.));
#1619=CARTESIAN_POINT('',(-0.137736132310247,0.385052546262741,-0.005));
#1620=CARTESIAN_POINT('',(-0.137736132310247,0.385052546262741,-0.0125));
#1621=CARTESIAN_POINT('',(0.040288696047054,0.385052546262741,-0.02));
#1622=CARTESIAN_POINT('',(-0.127736132310247,0.385052546262741,-0.02));
#1623=CARTESIAN_POINT('',(-0.127736132310247,0.385052546262741,-0.02));
#1624=CARTESIAN_POINT('',(-0.137736132310247,0.400052546262741,-0.850868496704852));
#1625=CARTESIAN_POINT('',(-0.137736132310247,0.400052546262741,-0.005));
#1626=CARTESIAN_POINT('',(-0.137736132310247,0.375052546262741,-0.00500000000000023));
#1627=CARTESIAN_POINT('',(-0.137736132310247,0.375052546262741,-0.850868496704852));
#1628=CARTESIAN_POINT('',(-0.130236132310247,0.375052546262741,-0.02));
#1629=CARTESIAN_POINT('',(-0.130236132310247,0.375052546262741,-0.02));
#1630=CARTESIAN_POINT('',(-0.127736132310247,0.375052546262741,-0.02));
#1631=CARTESIAN_POINT('',(-0.127736132310247,0.375052546262741,-0.02));
#1632=CARTESIAN_POINT('',(-0.130236132310247,0.375052546262741,-0.850868496704852));
#1633=CARTESIAN_POINT('',(-0.128736132310247,0.375052546262741,-0.01));
#1634=CARTESIAN_POINT('',(-0.126236132310247,0.375052546262741,-0.01));
#1635=CARTESIAN_POINT('',(0.296448116042179,0.375052546262741,-0.424184248352428));
#1636=CARTESIAN_POINT('',(-0.127736132310247,0.375052546262741,-0.02));
#1637=CARTESIAN_POINT('',(-0.142736132310247,0.375052546262741,0.));
#1638=CARTESIAN_POINT('',(-0.142736132310247,0.340052546262741,-0.045));
#1639=CARTESIAN_POINT('',(-0.160736132310247,0.340052546262741,-0.005));
#1640=CARTESIAN_POINT('',(-0.127736132310247,0.340052546262741,-0.005));
#1641=CARTESIAN_POINT('',(-0.155736132310247,0.340052546262741,-0.005));
#1642=CARTESIAN_POINT('',(-0.155736132310247,0.340052546262741,-0.045));
#1643=CARTESIAN_POINT('',(-0.155736132310247,0.340052546262741,-0.04));
#1644=CARTESIAN_POINT('',(-0.142736132310247,0.340052546262741,-0.04));
#1645=CARTESIAN_POINT('',(-0.127736132310247,0.340052546262741,-0.04));
#1646=CARTESIAN_POINT('',(-0.127736132310247,0.340052546262741,0.));
#1647=CARTESIAN_POINT('',(-0.160736132310247,0.349052546262741,-0.850868496704852));
#1648=CARTESIAN_POINT('',(-0.160736132310247,0.358052546262741,-0.850868496704852));
#1649=CARTESIAN_POINT('',(-0.160736132310247,0.340052546262741,-0.04));
#1650=CARTESIAN_POINT('',(-0.160736132310247,0.345052546262741,-0.04));
#1651=CARTESIAN_POINT('',(-0.160736132310247,0.345052546262741,0.));
#1652=CARTESIAN_POINT('',(-0.160736132310247,0.345052546262741,-0.005));
#1653=CARTESIAN_POINT('',(-0.160736132310247,0.349052546262741,-0.005));
#1654=CARTESIAN_POINT('',(-0.160736132310247,0.358052546262741,-0.850868496704852));
#1655=CARTESIAN_POINT('',(-0.162736132310247,0.378052546262741,-0.045));
#1656=CARTESIAN_POINT('',(-0.127736132310247,0.375052546262741,-0.02));
#1657=CARTESIAN_POINT('',(-0.142736132310247,0.385052546262741,0.));
#1658=CARTESIAN_POINT('',(-0.155736132310247,0.385052546262741,0.));
#1659=CARTESIAN_POINT('',(-0.158236132310247,0.345052546262741,-0.0025));
#1660=CARTESIAN_POINT('',(-0.155736132310247,0.340052546262741,-0.005));
#1661=CARTESIAN_POINT('',(-0.155736132310247,0.340052546262741,-0.005));
#1662=CARTESIAN_POINT('',(-0.155736132310247,0.340052546262741,-0.005));
#1663=CARTESIAN_POINT('',(-0.160736132310247,0.349052546262741,-0.04));
#1664=CARTESIAN_POINT('',(-0.155736132310247,0.345052546262741,-0.045));
#1665=CARTESIAN_POINT('',(-0.160736132310247,0.345052546262741,-0.850868496704852));
#1666=CARTESIAN_POINT('',(-0.158236132310247,0.342552546262741,-0.04));
#1667=CARTESIAN_POINT('',(-0.142736132310247,0.340052546262741,-0.005));
#1668=CARTESIAN_POINT('',(-0.127736132310247,0.342552546262741,-0.0025));
#1669=CARTESIAN_POINT('',(-0.122736132310247,0.385052546262741,-0.005));
#1670=CARTESIAN_POINT('',(-0.122736132310247,0.345052546262741,-0.005));
#1671=CARTESIAN_POINT('',(-0.155736132310247,0.345052546262741,-0.045));
#1672=CARTESIAN_POINT('',(-0.155736132310247,0.345052546262741,-0.045));
#1673=CARTESIAN_POINT('',(-0.122736132310247,0.345052546262741,-0.005));
#1674=CARTESIAN_POINT('',(-0.122736132310247,0.345052546262741,-0.005));
#1675=CARTESIAN_POINT('',(-0.130236132310247,0.345052546262741,-0.045));
#1676=CARTESIAN_POINT('',(-0.127736132310247,0.345052546262741,-0.045));
#1677=CARTESIAN_POINT('',(-0.127736132310247,0.340052546262741,-0.045));
#1678=CARTESIAN_POINT('',(-0.125236132310247,0.342552546262741,-0.04));
#1679=CARTESIAN_POINT('',(-0.127736132310247,0.345052546262741,-0.045));
#1680=CARTESIAN_POINT('',(-0.156736132310247,0.387006029657602,-0.204502));
#1681=CARTESIAN_POINT('',(-0.159236132310247,0.387006029657602,-0.204502));
#1682=CARTESIAN_POINT('',(-0.154236132310247,0.387006029657602,-0.204502));
#1683=CARTESIAN_POINT('',(-0.154236132310247,0.380006029657602,-0.204502));
#1684=CARTESIAN_POINT('',(-0.154236132310247,0.373006029657602,-0.204502));
#1685=CARTESIAN_POINT('',(-0.154236132310247,0.373006029657602,-0.204502));
#1686=CARTESIAN_POINT('',(-0.156736132310247,0.373006029657602,-0.204502));
#1687=CARTESIAN_POINT('',(-0.159236132310247,0.373006029657602,-0.204502));
#1688=CARTESIAN_POINT('',(-0.156736132310247,0.373006029657602,-0.204502));
#1689=CARTESIAN_POINT('',(-0.159236132310247,0.373006029657602,-0.204502));
#1690=CARTESIAN_POINT('',(-0.159236132310247,0.380006029657602,-0.204502));
#1691=CARTESIAN_POINT('',(-0.128736132310247,0.370450115781006,-0.01));
#1692=CARTESIAN_POINT('',(-0.128736132310247,0.370450115781006,-0.01));
#1693=CARTESIAN_POINT('',(-0.128736132310247,0.370450115781006,-0.0075));
#1694=CARTESIAN_POINT('',(-0.00274222039327518,0.370450115781006,-0.0225));
#1695=CARTESIAN_POINT('',(-0.000992220393275178,0.390450115781006,-0.0225));
#1696=CARTESIAN_POINT('',(-0.128736132310247,0.390450115781006,-0.018));
#1697=CARTESIAN_POINT('',(-0.134736132310247,0.390450115781006,-0.018));
#1698=CARTESIAN_POINT('',(-0.134736132310247,0.390450115781006,-0.009));
#1699=CARTESIAN_POINT('',(-0.128736132310247,0.390450115781006,-0.018));
#1700=CARTESIAN_POINT('',(-0.134736132310247,0.390450115781006,-0.018));
#1701=CARTESIAN_POINT('',(-0.134736132310247,0.390450115781006,-0.009));
#1702=CARTESIAN_POINT('',(-0.160236132310247,0.400450115781006,-0.0175));
#1703=CARTESIAN_POINT('',(-0.160236132310247,0.400450115781006,-0.0175));
#1704=CARTESIAN_POINT('',(-0.160236132310247,0.387950115781006,-0.0175));
#1705=CARTESIAN_POINT('',(-0.160236132310247,0.387950115781006,-0.0175));
#1706=CARTESIAN_POINT('',(-0.160236132310247,0.400450115781006,-0.0275));
#1707=CARTESIAN_POINT('',(-0.160236132310247,0.387950115781006,-0.0275));
#1708=CARTESIAN_POINT('',(-0.160236132310247,0.387950115781006,-0.0275));
#1709=CARTESIAN_POINT('',(-0.160236132310247,0.400450115781006,-0.0275));
#1710=CARTESIAN_POINT('',(-0.160236132310247,0.387950115781006,-0.0225));
#1711=CARTESIAN_POINT('',(-0.160236132310247,0.387950115781006,-0.0225));
#1712=CARTESIAN_POINT('',(-0.160236132310247,0.421501331021873,-0.0225));
#1713=CARTESIAN_POINT('',(-0.126236132310247,0.400450115781006,-0.028));
#1714=CARTESIAN_POINT('',(-0.126236132310247,0.400450115781006,-0.028));
#1715=CARTESIAN_POINT('',(-0.126236132310247,0.390450115781006,-0.028));
#1716=CARTESIAN_POINT('',(-0.126236132310247,0.390450115781006,-0.028));
#1717=CARTESIAN_POINT('',(-0.126236132310247,0.400450115781006,-0.02));
#1718=CARTESIAN_POINT('',(-0.126236132310247,0.390450115781006,-0.02));
#1719=CARTESIAN_POINT('',(-0.126236132310247,0.390450115781006,-0.02));
#1720=CARTESIAN_POINT('',(-0.126236132310247,0.400450115781006,-0.02));
#1721=CARTESIAN_POINT('',(-0.126236132310247,0.390450115781006,-0.024));
#1722=CARTESIAN_POINT('',(-0.126236132310247,0.390450115781006,-0.024));
#1723=CARTESIAN_POINT('',(-0.126236132310247,0.422751331021874,-0.0225));
#1724=CARTESIAN_POINT('',(-0.126236132310247,0.395450115781006,-0.024));
#1725=CARTESIAN_POINT('',(-0.126236132310247,0.393850115781006,-0.024));
#1726=CARTESIAN_POINT('',(-0.129736132310247,0.395450115781006,-0.024));
#1727=CARTESIAN_POINT('',(-0.129736132310247,0.395450115781006,-0.024));
#1728=CARTESIAN_POINT('',(-0.129736132310247,0.393850115781006,-0.024));
#1729=CARTESIAN_POINT('',(-0.129736132310247,0.402150115781006,-0.024));
#1730=MECHANICAL_DESIGN_GEOMETRIC_PRESENTATION_REPRESENTATION('',(#1072),
#1731);
#1731=(
GEOMETRIC_REPRESENTATION_CONTEXT(3)
GLOBAL_UNCERTAINTY_ASSIGNED_CONTEXT((#1732))
GLOBAL_UNIT_ASSIGNED_CONTEXT((#1735,#1734,#1733))
REPRESENTATION_CONTEXT('XY2_BOT','TOP_LEVEL_ASSEMBLY_PART')
);
#1732=UNCERTAINTY_MEASURE_WITH_UNIT(LENGTH_MEASURE(1.E-8),#1735,
'DISTANCE_ACCURACY_VALUE','Maximum Tolerance applied to model');
#1733=(
NAMED_UNIT(*)
SI_UNIT($,.STERADIAN.)
SOLID_ANGLE_UNIT()
);
#1734=(
NAMED_UNIT(*)
PLANE_ANGLE_UNIT()
SI_UNIT($,.RADIAN.)
);
#1735=(
LENGTH_UNIT()
NAMED_UNIT(*)
SI_UNIT($,.METRE.)
);
#1736=PRODUCT_DEFINITION_SHAPE('','',#1737);
#1737=PRODUCT_DEFINITION('','',#1739,#1738);
#1738=PRODUCT_DEFINITION_CONTEXT('',#1745,'design');
#1739=PRODUCT_DEFINITION_FORMATION_WITH_SPECIFIED_SOURCE('','',#1741,
 .NOT_KNOWN.);
#1740=PRODUCT_RELATED_PRODUCT_CATEGORY('','',(#1741));
#1741=PRODUCT('XY2_BOT','XY2_BOT','XY2_BOT',(#1743));
#1742=PRODUCT_CATEGORY('','');
#1743=PRODUCT_CONTEXT('',#1745,'mechanical');
#1744=APPLICATION_PROTOCOL_DEFINITION('international standard',
'ap242_managed_model_based_3d_engineering',2020,#1745);
#1745=APPLICATION_CONTEXT('managed model based 3d engineering');
ENDSEC;
END-ISO-10303-21;
