ISO-10303-21;
HEADER;
/* Generated by software containing ST-Developer
 * from STEP Tools, Inc. (www.steptools.com) 
 */
/* OPTION: using custom renumber hook */

FILE_DESCRIPTION(
/* description */ ('STEP AP242 Edition 2',
'CAx-IF Rec.Pracs.---Representation and Presentation of Product Manufa
cturing Information (PMI)---4.0---2014-10-13',
'CAx-IF Rec.Pracs.---3D Tessellated Geometry---0.4---2014-09-14','2;1',
'CAx-IF Rec.Pracs.---User Defined Attributes---1.5---2016-08-15'),
/* implementation_level */ '2;1');

FILE_NAME(
/* name */ 'NOT-618 - XY Mount',
/* time_stamp */ '2026-07-11T06:16:04Z',
/* author */ (''),
/* organization */ (''),
/* preprocessor_version */ 'ST-DEVELOPER v20',
/* originating_system */ 'ONSHAPE BY PTC INC, 1.217',
/* authorisation */ '  ');

FILE_SCHEMA (('AP242_MANAGED_MODEL_BASED_3D_ENGINEERING_MIM_LF { 1 0 10303 442 3 1 4 }'));
ENDSEC;

DATA;
#10=SHAPE_REPRESENTATION_RELATIONSHIP('','',#177,#11);
#11=ADVANCED_BREP_SHAPE_REPRESENTATION('',(#175),#285);
#12=CONICAL_SURFACE('',#193,0.0016,0.785398163397443);
#13=CONICAL_SURFACE('',#194,0.0026,0.785398163397443);
#14=CYLINDRICAL_SURFACE('',#183,0.0016);
#15=CYLINDRICAL_SURFACE('',#188,0.0016);
#16=CIRCLE('',#181,0.0016);
#17=CIRCLE('',#182,0.0016);
#18=CIRCLE('',#184,0.0016);
#19=CIRCLE('',#189,0.0016);
#20=CIRCLE('',#191,0.0026);
#21=CIRCLE('',#192,0.0026);
#22=ORIENTED_EDGE('',*,*,#58,.F.);
#23=ORIENTED_EDGE('',*,*,#59,.T.);
#24=ORIENTED_EDGE('',*,*,#60,.T.);
#25=ORIENTED_EDGE('',*,*,#61,.F.);
#26=ORIENTED_EDGE('',*,*,#62,.F.);
#27=ORIENTED_EDGE('',*,*,#63,.T.);
#28=ORIENTED_EDGE('',*,*,#64,.T.);
#29=ORIENTED_EDGE('',*,*,#61,.T.);
#30=ORIENTED_EDGE('',*,*,#65,.F.);
#31=ORIENTED_EDGE('',*,*,#66,.T.);
#32=ORIENTED_EDGE('',*,*,#67,.T.);
#33=ORIENTED_EDGE('',*,*,#66,.F.);
#34=ORIENTED_EDGE('',*,*,#68,.F.);
#35=ORIENTED_EDGE('',*,*,#69,.T.);
#36=ORIENTED_EDGE('',*,*,#58,.T.);
#37=ORIENTED_EDGE('',*,*,#64,.F.);
#38=ORIENTED_EDGE('',*,*,#70,.F.);
#39=ORIENTED_EDGE('',*,*,#71,.T.);
#40=ORIENTED_EDGE('',*,*,#62,.T.);
#41=ORIENTED_EDGE('',*,*,#60,.F.);
#42=ORIENTED_EDGE('',*,*,#71,.F.);
#43=ORIENTED_EDGE('',*,*,#72,.T.);
#44=ORIENTED_EDGE('',*,*,#68,.T.);
#45=ORIENTED_EDGE('',*,*,#63,.F.);
#46=ORIENTED_EDGE('',*,*,#73,.T.);
#47=ORIENTED_EDGE('',*,*,#65,.T.);
#48=ORIENTED_EDGE('',*,*,#74,.T.);
#49=ORIENTED_EDGE('',*,*,#75,.T.);
#50=ORIENTED_EDGE('',*,*,#72,.F.);
#51=ORIENTED_EDGE('',*,*,#70,.T.);
#52=ORIENTED_EDGE('',*,*,#59,.F.);
#53=ORIENTED_EDGE('',*,*,#69,.F.);
#54=ORIENTED_EDGE('',*,*,#74,.F.);
#55=ORIENTED_EDGE('',*,*,#67,.F.);
#56=ORIENTED_EDGE('',*,*,#73,.F.);
#57=ORIENTED_EDGE('',*,*,#75,.F.);
#58=EDGE_CURVE('',#76,#77,#90,.T.);
#59=EDGE_CURVE('',#76,#78,#91,.T.);
#60=EDGE_CURVE('',#78,#79,#92,.T.);
#61=EDGE_CURVE('',#77,#79,#93,.T.);
#62=EDGE_CURVE('',#80,#79,#94,.T.);
#63=EDGE_CURVE('',#80,#81,#95,.T.);
#64=EDGE_CURVE('',#81,#77,#96,.T.);
#65=EDGE_CURVE('',#82,#82,#16,.F.);
#66=EDGE_CURVE('',#83,#83,#17,.T.);
#67=EDGE_CURVE('',#84,#84,#18,.T.);
#68=EDGE_CURVE('',#85,#81,#97,.T.);
#69=EDGE_CURVE('',#85,#76,#98,.T.);
#70=EDGE_CURVE('',#86,#78,#99,.T.);
#71=EDGE_CURVE('',#86,#80,#100,.T.);
#72=EDGE_CURVE('',#86,#85,#101,.T.);
#73=EDGE_CURVE('',#87,#87,#19,.T.);
#74=EDGE_CURVE('',#88,#88,#20,.F.);
#75=EDGE_CURVE('',#89,#89,#21,.F.);
#76=VERTEX_POINT('',#244);
#77=VERTEX_POINT('',#245);
#78=VERTEX_POINT('',#247);
#79=VERTEX_POINT('',#249);
#80=VERTEX_POINT('',#253);
#81=VERTEX_POINT('',#255);
#82=VERTEX_POINT('',#258);
#83=VERTEX_POINT('',#260);
#84=VERTEX_POINT('',#263);
#85=VERTEX_POINT('',#266);
#86=VERTEX_POINT('',#270);
#87=VERTEX_POINT('',#276);
#88=VERTEX_POINT('',#279);
#89=VERTEX_POINT('',#281);
#90=LINE('',#243,#102);
#91=LINE('',#246,#103);
#92=LINE('',#248,#104);
#93=LINE('',#250,#105);
#94=LINE('',#252,#106);
#95=LINE('',#254,#107);
#96=LINE('',#256,#108);
#97=LINE('',#265,#109);
#98=LINE('',#267,#110);
#99=LINE('',#269,#111);
#100=LINE('',#271,#112);
#101=LINE('',#273,#113);
#102=VECTOR('',#199,1.);
#103=VECTOR('',#200,1.);
#104=VECTOR('',#201,1.);
#105=VECTOR('',#202,1.);
#106=VECTOR('',#205,1.);
#107=VECTOR('',#206,1.);
#108=VECTOR('',#207,1.);
#109=VECTOR('',#218,1.);
#110=VECTOR('',#219,1.);
#111=VECTOR('',#222,1.);
#112=VECTOR('',#223,1.);
#113=VECTOR('',#226,1.);
#114=EDGE_LOOP('',(#22,#23,#24,#25));
#115=EDGE_LOOP('',(#26,#27,#28,#29));
#116=EDGE_LOOP('',(#30));
#117=EDGE_LOOP('',(#31));
#118=EDGE_LOOP('',(#32));
#119=EDGE_LOOP('',(#33));
#120=EDGE_LOOP('',(#34,#35,#36,#37));
#121=EDGE_LOOP('',(#38,#39,#40,#41));
#122=EDGE_LOOP('',(#42,#43,#44,#45));
#123=EDGE_LOOP('',(#46));
#124=EDGE_LOOP('',(#47));
#125=EDGE_LOOP('',(#48));
#126=EDGE_LOOP('',(#49));
#127=EDGE_LOOP('',(#50,#51,#52,#53));
#128=EDGE_LOOP('',(#54));
#129=EDGE_LOOP('',(#55));
#130=EDGE_LOOP('',(#56));
#131=EDGE_LOOP('',(#57));
#132=FACE_BOUND('',#114,.T.);
#133=FACE_BOUND('',#115,.T.);
#134=FACE_BOUND('',#116,.T.);
#135=FACE_BOUND('',#117,.T.);
#136=FACE_BOUND('',#118,.T.);
#137=FACE_BOUND('',#119,.T.);
#138=FACE_BOUND('',#120,.T.);
#139=FACE_BOUND('',#121,.T.);
#140=FACE_BOUND('',#122,.T.);
#141=FACE_BOUND('',#123,.T.);
#142=FACE_BOUND('',#124,.T.);
#143=FACE_BOUND('',#125,.T.);
#144=FACE_BOUND('',#126,.T.);
#145=FACE_BOUND('',#127,.T.);
#146=FACE_BOUND('',#128,.T.);
#147=FACE_BOUND('',#129,.T.);
#148=FACE_BOUND('',#130,.T.);
#149=FACE_BOUND('',#131,.T.);
#150=PLANE('',#179);
#151=PLANE('',#180);
#152=PLANE('',#185);
#153=PLANE('',#186);
#154=PLANE('',#187);
#155=PLANE('',#190);
#156=ADVANCED_FACE('',(#132),#150,.T.);
#157=ADVANCED_FACE('',(#133,#134,#135),#151,.F.);
#158=ADVANCED_FACE('',(#136,#137),#14,.F.);
#159=ADVANCED_FACE('',(#138),#152,.T.);
#160=ADVANCED_FACE('',(#139),#153,.F.);
#161=ADVANCED_FACE('',(#140),#154,.T.);
#162=ADVANCED_FACE('',(#141,#142),#15,.F.);
#163=ADVANCED_FACE('',(#143,#144,#145),#155,.T.);
#164=ADVANCED_FACE('',(#146,#147),#12,.F.);
#165=ADVANCED_FACE('',(#148,#149),#13,.F.);
#166=CLOSED_SHELL('',(#156,#157,#158,#159,#160,#161,#162,#163,#164,#165));
#167=STYLED_ITEM('',(#168),#175);
#168=PRESENTATION_STYLE_ASSIGNMENT((#169));
#169=SURFACE_STYLE_USAGE(.BOTH.,#170);
#170=SURFACE_SIDE_STYLE('',(#171));
#171=SURFACE_STYLE_FILL_AREA(#172);
#172=FILL_AREA_STYLE('',(#173));
#173=FILL_AREA_STYLE_COLOUR('',#174);
#174=COLOUR_RGB('',0.917647058823529,0.917647058823529,0.917647058823529);
#175=MANIFOLD_SOLID_BREP('XY Mount',#166);
#176=SHAPE_DEFINITION_REPRESENTATION(#290,#177);
#177=SHAPE_REPRESENTATION('XY Mount',(#178),#285);
#178=AXIS2_PLACEMENT_3D('',#241,#195,#196);
#179=AXIS2_PLACEMENT_3D('',#242,#197,#198);
#180=AXIS2_PLACEMENT_3D('',#251,#203,#204);
#181=AXIS2_PLACEMENT_3D('',#257,#208,#209);
#182=AXIS2_PLACEMENT_3D('',#259,#210,#211);
#183=AXIS2_PLACEMENT_3D('',#261,#212,#213);
#184=AXIS2_PLACEMENT_3D('',#262,#214,#215);
#185=AXIS2_PLACEMENT_3D('',#264,#216,#217);
#186=AXIS2_PLACEMENT_3D('',#268,#220,#221);
#187=AXIS2_PLACEMENT_3D('',#272,#224,#225);
#188=AXIS2_PLACEMENT_3D('',#274,#227,#228);
#189=AXIS2_PLACEMENT_3D('',#275,#229,#230);
#190=AXIS2_PLACEMENT_3D('',#277,#231,#232);
#191=AXIS2_PLACEMENT_3D('',#278,#233,#234);
#192=AXIS2_PLACEMENT_3D('',#280,#235,#236);
#193=AXIS2_PLACEMENT_3D('',#282,#237,#238);
#194=AXIS2_PLACEMENT_3D('',#283,#239,#240);
#195=DIRECTION('',(0.,0.,1.));
#196=DIRECTION('',(1.,0.,0.));
#197=DIRECTION('',(4.62592926927149E-16,0.,-1.));
#198=DIRECTION('',(-1.,0.,-4.62592926927149E-16));
#199=DIRECTION('',(1.,0.,4.62592926927149E-16));
#200=DIRECTION('',(0.,1.,0.));
#201=DIRECTION('',(1.,0.,4.62592926927149E-16));
#202=DIRECTION('',(0.,1.,0.));
#203=DIRECTION('',(-1.,0.,-4.62592926927149E-16));
#204=DIRECTION('',(0.,-1.,0.));
#205=DIRECTION('',(4.62592926927149E-16,0.,-1.));
#206=DIRECTION('',(0.,-1.,0.));
#207=DIRECTION('',(4.62592926927149E-16,0.,-1.));
#208=DIRECTION('',(-1.,0.,-4.62592926927149E-16));
#209=DIRECTION('',(-4.62592926927149E-16,0.,1.));
#210=DIRECTION('',(-1.,0.,-4.62592926927149E-16));
#211=DIRECTION('',(-4.62592926927149E-16,0.,1.));
#212=DIRECTION('',(1.,0.,4.62592926927149E-16));
#213=DIRECTION('',(4.62592926927149E-16,0.,-1.));
#214=DIRECTION('',(-1.,0.,0.));
#215=DIRECTION('',(0.,0.,1.));
#216=DIRECTION('',(0.,-1.,0.));
#217=DIRECTION('',(0.,0.,-1.));
#218=DIRECTION('',(1.,0.,4.62592926927149E-16));
#219=DIRECTION('',(4.62592926927149E-16,0.,-1.));
#220=DIRECTION('',(0.,-1.,0.));
#221=DIRECTION('',(0.,0.,-1.));
#222=DIRECTION('',(4.62592926927149E-16,0.,-1.));
#223=DIRECTION('',(1.,0.,4.62592926927149E-16));
#224=DIRECTION('',(-4.62592926927149E-16,0.,1.));
#225=DIRECTION('',(1.,0.,4.62592926927149E-16));
#226=DIRECTION('',(0.,-1.,0.));
#227=DIRECTION('',(1.,0.,4.62592926927149E-16));
#228=DIRECTION('',(4.62592926927149E-16,0.,-1.));
#229=DIRECTION('',(-1.,0.,0.));
#230=DIRECTION('',(0.,0.,1.));
#231=DIRECTION('',(-1.,0.,-4.62592926927149E-16));
#232=DIRECTION('',(-4.62592926927149E-16,0.,1.));
#233=DIRECTION('',(-1.,0.,-4.62592926927149E-16));
#234=DIRECTION('',(-4.62592926927149E-16,0.,1.));
#235=DIRECTION('',(-1.,0.,-4.62592926927149E-16));
#236=DIRECTION('',(-4.62592926927149E-16,0.,1.));
#237=DIRECTION('',(-1.,0.,0.));
#238=DIRECTION('',(0.,0.,1.));
#239=DIRECTION('',(-1.,0.,0.));
#240=DIRECTION('',(0.,0.,1.));
#241=CARTESIAN_POINT('',(0.,0.,0.));
#242=CARTESIAN_POINT('',(0.122498,0.024,0.390450115781006));
#243=CARTESIAN_POINT('',(0.122498,0.02,0.390450115781006));
#244=CARTESIAN_POINT('',(0.1225,0.02,0.390450115781006));
#245=CARTESIAN_POINT('',(0.126,0.02,0.390450115781006));
#246=CARTESIAN_POINT('',(0.1225,0.024,0.390450115781006));
#247=CARTESIAN_POINT('',(0.1225,0.028,0.390450115781006));
#248=CARTESIAN_POINT('',(0.122498,0.028,0.390450115781006));
#249=CARTESIAN_POINT('',(0.126,0.028,0.390450115781006));
#250=CARTESIAN_POINT('',(0.126,0.024,0.390450115781006));
#251=CARTESIAN_POINT('',(0.126,0.024,0.400450115781006));
#252=CARTESIAN_POINT('',(0.126,0.028,0.400450115781006));
#253=CARTESIAN_POINT('',(0.126,0.028,0.410450115781006));
#254=CARTESIAN_POINT('',(0.126,0.024,0.410450115781006));
#255=CARTESIAN_POINT('',(0.126,0.02,0.410450115781006));
#256=CARTESIAN_POINT('',(0.126,0.02,0.400450115781006));
#257=CARTESIAN_POINT('',(0.126,0.024,0.405450115781006));
#258=CARTESIAN_POINT('',(0.126,0.024,0.407050115781006));
#259=CARTESIAN_POINT('',(0.126,0.024,0.395450115781006));
#260=CARTESIAN_POINT('',(0.126,0.024,0.397050115781006));
#261=CARTESIAN_POINT('',(0.122498,0.024,0.395450115781006));
#262=CARTESIAN_POINT('',(0.1235,0.024,0.395450115781006));
#263=CARTESIAN_POINT('',(0.1235,0.024,0.397050115781006));
#264=CARTESIAN_POINT('',(0.122498,0.02,0.400450115781006));
#265=CARTESIAN_POINT('',(0.122498,0.02,0.410450115781006));
#266=CARTESIAN_POINT('',(0.1225,0.02,0.410450115781006));
#267=CARTESIAN_POINT('',(0.1225,0.02,0.400450115781006));
#268=CARTESIAN_POINT('',(0.122498,0.028,0.400450115781006));
#269=CARTESIAN_POINT('',(0.1225,0.028,0.400450115781006));
#270=CARTESIAN_POINT('',(0.1225,0.028,0.410450115781006));
#271=CARTESIAN_POINT('',(0.122498,0.028,0.410450115781006));
#272=CARTESIAN_POINT('',(0.122498,0.024,0.410450115781006));
#273=CARTESIAN_POINT('',(0.1225,0.024,0.410450115781006));
#274=CARTESIAN_POINT('',(0.122498,0.024,0.405450115781006));
#275=CARTESIAN_POINT('',(0.1235,0.024,0.405450115781006));
#276=CARTESIAN_POINT('',(0.1235,0.024,0.407050115781006));
#277=CARTESIAN_POINT('',(0.1225,0.045,0.400052546262741));
#278=CARTESIAN_POINT('',(0.1225,0.024,0.395450115781006));
#279=CARTESIAN_POINT('',(0.1225,0.024,0.398050115781006));
#280=CARTESIAN_POINT('',(0.1225,0.024,0.405450115781006));
#281=CARTESIAN_POINT('',(0.1225,0.024,0.408050115781006));
#282=CARTESIAN_POINT('',(0.1235,0.024,0.395450115781006));
#283=CARTESIAN_POINT('',(0.1225,0.024,0.405450115781006));
#284=MECHANICAL_DESIGN_GEOMETRIC_PRESENTATION_REPRESENTATION('',(#167),
#285);
#285=(
GEOMETRIC_REPRESENTATION_CONTEXT(3)
GLOBAL_UNCERTAINTY_ASSIGNED_CONTEXT((#286))
GLOBAL_UNIT_ASSIGNED_CONTEXT((#289,#288,#287))
REPRESENTATION_CONTEXT('XY Mount','TOP_LEVEL_ASSEMBLY_PART')
);
#286=UNCERTAINTY_MEASURE_WITH_UNIT(LENGTH_MEASURE(1.E-8),#289,
'DISTANCE_ACCURACY_VALUE','Maximum Tolerance applied to model');
#287=(
NAMED_UNIT(*)
SI_UNIT($,.STERADIAN.)
SOLID_ANGLE_UNIT()
);
#288=(
NAMED_UNIT(*)
PLANE_ANGLE_UNIT()
SI_UNIT($,.RADIAN.)
);
#289=(
LENGTH_UNIT()
NAMED_UNIT(*)
SI_UNIT($,.METRE.)
);
#290=PRODUCT_DEFINITION_SHAPE('','',#291);
#291=PRODUCT_DEFINITION('','',#293,#292);
#292=PRODUCT_DEFINITION_CONTEXT('',#299,'design');
#293=PRODUCT_DEFINITION_FORMATION_WITH_SPECIFIED_SOURCE('','',#295,
 .NOT_KNOWN.);
#294=PRODUCT_RELATED_PRODUCT_CATEGORY('','',(#295));
#295=PRODUCT('XY Mount','XY Mount','XY Mount',(#297));
#296=PRODUCT_CATEGORY('','');
#297=PRODUCT_CONTEXT('',#299,'mechanical');
#298=APPLICATION_PROTOCOL_DEFINITION('international standard',
'ap242_managed_model_based_3d_engineering',2020,#299);
#299=APPLICATION_CONTEXT('managed model based 3d engineering');
ENDSEC;
END-ISO-10303-21;
