ISO-10303-21;
HEADER;
/* Generated by software containing ST-Developer
 * from STEP Tools, Inc. (www.steptools.com) 
 */
/* OPTION: using custom renumber hook */

FILE_DESCRIPTION(
/* description */ ('STEP AP242 Edition 2',
'CAx-IF Rec.Pracs.---Representation and Presentation of Product Manufa
cturing Information (PMI)---4.0---2014-10-13',
'CAx-IF Rec.Pracs.---3D Tessellated Geometry---0.4---2014-09-14','2;1',
'CAx-IF Rec.Pracs.---User Defined Attributes---1.5---2016-08-15'),
/* implementation_level */ '2;1');

FILE_NAME(
/* name */ 'NOT-618 - Linear Adapter',
/* time_stamp */ '2026-07-11T06:03:09Z',
/* author */ (''),
/* organization */ (''),
/* preprocessor_version */ 'ST-DEVELOPER v20',
/* originating_system */ 'ONSHAPE BY PTC INC, 1.217',
/* authorisation */ '  ');

FILE_SCHEMA (('AP242_MANAGED_MODEL_BASED_3D_ENGINEERING_MIM_LF { 1 0 10303 442 3 1 4 }'));
ENDSEC;

DATA;
#10=SHAPE_REPRESENTATION_RELATIONSHIP('','',#401,#11);
#11=ADVANCED_BREP_SHAPE_REPRESENTATION('',(#399),#640);
#12=CONICAL_SURFACE('',#430,0.0025,0.785398163397448);
#13=CONICAL_SURFACE('',#431,0.0025,0.785398163397448);
#14=CIRCLE('',#407,0.0025);
#15=CIRCLE('',#408,0.0025);
#16=CIRCLE('',#410,0.0103);
#17=CIRCLE('',#415,0.0103);
#18=CIRCLE('',#417,0.00449999999999995);
#19=CIRCLE('',#419,0.0025);
#20=CIRCLE('',#422,0.0045);
#21=CIRCLE('',#424,0.0025);
#22=CYLINDRICAL_SURFACE('',#406,0.0025);
#23=CYLINDRICAL_SURFACE('',#414,0.0103);
#24=CYLINDRICAL_SURFACE('',#423,0.0025);
#25=ORIENTED_EDGE('',*,*,#123,.F.);
#26=ORIENTED_EDGE('',*,*,#124,.T.);
#27=ORIENTED_EDGE('',*,*,#125,.F.);
#28=ORIENTED_EDGE('',*,*,#126,.F.);
#29=ORIENTED_EDGE('',*,*,#127,.F.);
#30=ORIENTED_EDGE('',*,*,#126,.T.);
#31=ORIENTED_EDGE('',*,*,#128,.T.);
#32=ORIENTED_EDGE('',*,*,#129,.F.);
#33=ORIENTED_EDGE('',*,*,#130,.F.);
#34=ORIENTED_EDGE('',*,*,#131,.F.);
#35=ORIENTED_EDGE('',*,*,#132,.F.);
#36=ORIENTED_EDGE('',*,*,#133,.T.);
#37=ORIENTED_EDGE('',*,*,#134,.T.);
#38=ORIENTED_EDGE('',*,*,#135,.T.);
#39=ORIENTED_EDGE('',*,*,#136,.T.);
#40=ORIENTED_EDGE('',*,*,#137,.T.);
#41=ORIENTED_EDGE('',*,*,#138,.T.);
#42=ORIENTED_EDGE('',*,*,#139,.F.);
#43=ORIENTED_EDGE('',*,*,#140,.T.);
#44=ORIENTED_EDGE('',*,*,#139,.T.);
#45=ORIENTED_EDGE('',*,*,#125,.T.);
#46=ORIENTED_EDGE('',*,*,#141,.T.);
#47=ORIENTED_EDGE('',*,*,#132,.T.);
#48=ORIENTED_EDGE('',*,*,#142,.T.);
#49=ORIENTED_EDGE('',*,*,#143,.F.);
#50=ORIENTED_EDGE('',*,*,#128,.F.);
#51=ORIENTED_EDGE('',*,*,#144,.F.);
#52=ORIENTED_EDGE('',*,*,#145,.F.);
#53=ORIENTED_EDGE('',*,*,#146,.F.);
#54=ORIENTED_EDGE('',*,*,#147,.T.);
#55=ORIENTED_EDGE('',*,*,#148,.T.);
#56=ORIENTED_EDGE('',*,*,#149,.T.);
#57=ORIENTED_EDGE('',*,*,#150,.F.);
#58=ORIENTED_EDGE('',*,*,#146,.T.);
#59=ORIENTED_EDGE('',*,*,#151,.F.);
#60=ORIENTED_EDGE('',*,*,#152,.T.);
#61=ORIENTED_EDGE('',*,*,#153,.T.);
#62=ORIENTED_EDGE('',*,*,#129,.T.);
#63=ORIENTED_EDGE('',*,*,#143,.T.);
#64=ORIENTED_EDGE('',*,*,#154,.T.);
#65=ORIENTED_EDGE('',*,*,#155,.T.);
#66=ORIENTED_EDGE('',*,*,#140,.F.);
#67=ORIENTED_EDGE('',*,*,#156,.T.);
#68=ORIENTED_EDGE('',*,*,#136,.F.);
#69=ORIENTED_EDGE('',*,*,#157,.T.);
#70=ORIENTED_EDGE('',*,*,#158,.T.);
#71=ORIENTED_EDGE('',*,*,#159,.F.);
#72=ORIENTED_EDGE('',*,*,#147,.F.);
#73=ORIENTED_EDGE('',*,*,#150,.T.);
#74=ORIENTED_EDGE('',*,*,#160,.T.);
#75=ORIENTED_EDGE('',*,*,#151,.T.);
#76=ORIENTED_EDGE('',*,*,#161,.T.);
#77=ORIENTED_EDGE('',*,*,#155,.F.);
#78=ORIENTED_EDGE('',*,*,#162,.T.);
#79=ORIENTED_EDGE('',*,*,#153,.F.);
#80=ORIENTED_EDGE('',*,*,#163,.T.);
#81=ORIENTED_EDGE('',*,*,#148,.F.);
#82=ORIENTED_EDGE('',*,*,#145,.T.);
#83=ORIENTED_EDGE('',*,*,#164,.T.);
#84=ORIENTED_EDGE('',*,*,#130,.T.);
#85=ORIENTED_EDGE('',*,*,#158,.F.);
#86=ORIENTED_EDGE('',*,*,#165,.T.);
#87=ORIENTED_EDGE('',*,*,#166,.T.);
#88=ORIENTED_EDGE('',*,*,#131,.T.);
#89=ORIENTED_EDGE('',*,*,#167,.T.);
#90=ORIENTED_EDGE('',*,*,#168,.T.);
#91=ORIENTED_EDGE('',*,*,#134,.F.);
#92=ORIENTED_EDGE('',*,*,#169,.T.);
#93=ORIENTED_EDGE('',*,*,#123,.T.);
#94=ORIENTED_EDGE('',*,*,#127,.T.);
#95=ORIENTED_EDGE('',*,*,#166,.F.);
#96=ORIENTED_EDGE('',*,*,#170,.T.);
#97=ORIENTED_EDGE('',*,*,#171,.T.);
#98=ORIENTED_EDGE('',*,*,#162,.F.);
#99=ORIENTED_EDGE('',*,*,#144,.T.);
#100=ORIENTED_EDGE('',*,*,#159,.T.);
#101=ORIENTED_EDGE('',*,*,#167,.F.);
#102=ORIENTED_EDGE('',*,*,#164,.F.);
#103=ORIENTED_EDGE('',*,*,#169,.F.);
#104=ORIENTED_EDGE('',*,*,#133,.F.);
#105=ORIENTED_EDGE('',*,*,#141,.F.);
#106=ORIENTED_EDGE('',*,*,#124,.F.);
#107=ORIENTED_EDGE('',*,*,#170,.F.);
#108=ORIENTED_EDGE('',*,*,#165,.F.);
#109=ORIENTED_EDGE('',*,*,#157,.F.);
#110=ORIENTED_EDGE('',*,*,#135,.F.);
#111=ORIENTED_EDGE('',*,*,#160,.F.);
#112=ORIENTED_EDGE('',*,*,#149,.F.);
#113=ORIENTED_EDGE('',*,*,#163,.F.);
#114=ORIENTED_EDGE('',*,*,#152,.F.);
#115=ORIENTED_EDGE('',*,*,#161,.F.);
#116=ORIENTED_EDGE('',*,*,#154,.F.);
#117=ORIENTED_EDGE('',*,*,#142,.F.);
#118=ORIENTED_EDGE('',*,*,#137,.F.);
#119=ORIENTED_EDGE('',*,*,#156,.F.);
#120=ORIENTED_EDGE('',*,*,#171,.F.);
#121=ORIENTED_EDGE('',*,*,#168,.F.);
#122=ORIENTED_EDGE('',*,*,#138,.F.);
#123=EDGE_CURVE('',#172,#173,#207,.T.);
#124=EDGE_CURVE('',#172,#174,#208,.T.);
#125=EDGE_CURVE('',#175,#174,#209,.T.);
#126=EDGE_CURVE('',#173,#175,#210,.T.);
#127=EDGE_CURVE('',#173,#176,#211,.T.);
#128=EDGE_CURVE('',#175,#177,#212,.T.);
#129=EDGE_CURVE('',#178,#177,#213,.T.);
#130=EDGE_CURVE('',#179,#178,#214,.T.);
#131=EDGE_CURVE('',#176,#179,#215,.T.);
#132=EDGE_CURVE('',#180,#181,#216,.T.);
#133=EDGE_CURVE('',#180,#182,#217,.T.);
#134=EDGE_CURVE('',#182,#183,#218,.T.);
#135=EDGE_CURVE('',#183,#184,#219,.T.);
#136=EDGE_CURVE('',#184,#185,#220,.T.);
#137=EDGE_CURVE('',#185,#181,#221,.T.);
#138=EDGE_CURVE('',#186,#186,#14,.T.);
#139=EDGE_CURVE('',#187,#187,#15,.T.);
#140=EDGE_CURVE('',#188,#188,#16,.T.);
#141=EDGE_CURVE('',#174,#180,#222,.F.);
#142=EDGE_CURVE('',#181,#189,#223,.T.);
#143=EDGE_CURVE('',#177,#189,#224,.T.);
#144=EDGE_CURVE('',#190,#191,#225,.T.);
#145=EDGE_CURVE('',#192,#190,#226,.T.);
#146=EDGE_CURVE('',#193,#192,#227,.T.);
#147=EDGE_CURVE('',#193,#191,#228,.T.);
#148=EDGE_CURVE('',#192,#194,#229,.T.);
#149=EDGE_CURVE('',#194,#195,#230,.T.);
#150=EDGE_CURVE('',#193,#195,#231,.T.);
#151=EDGE_CURVE('',#196,#197,#232,.T.);
#152=EDGE_CURVE('',#196,#198,#233,.T.);
#153=EDGE_CURVE('',#198,#178,#234,.T.);
#154=EDGE_CURVE('',#189,#197,#235,.T.);
#155=EDGE_CURVE('',#199,#199,#17,.T.);
#156=EDGE_CURVE('',#200,#200,#18,.F.);
#157=EDGE_CURVE('',#184,#201,#236,.F.);
#158=EDGE_CURVE('',#201,#202,#237,.T.);
#159=EDGE_CURVE('',#191,#202,#238,.T.);
#160=EDGE_CURVE('',#195,#196,#239,.F.);
#161=EDGE_CURVE('',#197,#185,#240,.T.);
#162=EDGE_CURVE('',#203,#203,#19,.T.);
#163=EDGE_CURVE('',#198,#194,#241,.F.);
#164=EDGE_CURVE('',#190,#179,#242,.T.);
#165=EDGE_CURVE('',#201,#204,#243,.T.);
#166=EDGE_CURVE('',#204,#176,#244,.T.);
#167=EDGE_CURVE('',#179,#202,#245,.T.);
#168=EDGE_CURVE('',#205,#205,#20,.F.);
#169=EDGE_CURVE('',#182,#172,#246,.F.);
#170=EDGE_CURVE('',#204,#183,#247,.F.);
#171=EDGE_CURVE('',#206,#206,#21,.T.);
#172=VERTEX_POINT('',#536);
#173=VERTEX_POINT('',#537);
#174=VERTEX_POINT('',#539);
#175=VERTEX_POINT('',#541);
#176=VERTEX_POINT('',#545);
#177=VERTEX_POINT('',#547);
#178=VERTEX_POINT('',#549);
#179=VERTEX_POINT('',#551);
#180=VERTEX_POINT('',#555);
#181=VERTEX_POINT('',#556);
#182=VERTEX_POINT('',#558);
#183=VERTEX_POINT('',#560);
#184=VERTEX_POINT('',#562);
#185=VERTEX_POINT('',#564);
#186=VERTEX_POINT('',#568);
#187=VERTEX_POINT('',#570);
#188=VERTEX_POINT('',#573);
#189=VERTEX_POINT('',#576);
#190=VERTEX_POINT('',#580);
#191=VERTEX_POINT('',#581);
#192=VERTEX_POINT('',#583);
#193=VERTEX_POINT('',#585);
#194=VERTEX_POINT('',#589);
#195=VERTEX_POINT('',#591);
#196=VERTEX_POINT('',#595);
#197=VERTEX_POINT('',#596);
#198=VERTEX_POINT('',#598);
#199=VERTEX_POINT('',#603);
#200=VERTEX_POINT('',#606);
#201=VERTEX_POINT('',#608);
#202=VERTEX_POINT('',#610);
#203=VERTEX_POINT('',#616);
#204=VERTEX_POINT('',#621);
#205=VERTEX_POINT('',#626);
#206=VERTEX_POINT('',#631);
#207=LINE('',#535,#248);
#208=LINE('',#538,#249);
#209=LINE('',#540,#250);
#210=LINE('',#542,#251);
#211=LINE('',#544,#252);
#212=LINE('',#546,#253);
#213=LINE('',#548,#254);
#214=LINE('',#550,#255);
#215=LINE('',#552,#256);
#216=LINE('',#554,#257);
#217=LINE('',#557,#258);
#218=LINE('',#559,#259);
#219=LINE('',#561,#260);
#220=LINE('',#563,#261);
#221=LINE('',#565,#262);
#222=LINE('',#574,#263);
#223=LINE('',#575,#264);
#224=LINE('',#577,#265);
#225=LINE('',#579,#266);
#226=LINE('',#582,#267);
#227=LINE('',#584,#268);
#228=LINE('',#586,#269);
#229=LINE('',#588,#270);
#230=LINE('',#590,#271);
#231=LINE('',#592,#272);
#232=LINE('',#594,#273);
#233=LINE('',#597,#274);
#234=LINE('',#599,#275);
#235=LINE('',#600,#276);
#236=LINE('',#607,#277);
#237=LINE('',#609,#278);
#238=LINE('',#611,#279);
#239=LINE('',#612,#280);
#240=LINE('',#613,#281);
#241=LINE('',#617,#282);
#242=LINE('',#618,#283);
#243=LINE('',#620,#284);
#244=LINE('',#622,#285);
#245=LINE('',#623,#286);
#246=LINE('',#627,#287);
#247=LINE('',#628,#288);
#248=VECTOR('',#436,1.);
#249=VECTOR('',#437,1.);
#250=VECTOR('',#438,1.);
#251=VECTOR('',#439,1.);
#252=VECTOR('',#442,1.);
#253=VECTOR('',#443,1.);
#254=VECTOR('',#444,1.);
#255=VECTOR('',#445,1.);
#256=VECTOR('',#446,1.);
#257=VECTOR('',#449,1.);
#258=VECTOR('',#450,1.);
#259=VECTOR('',#451,1.);
#260=VECTOR('',#452,1.);
#261=VECTOR('',#453,1.);
#262=VECTOR('',#454,1.);
#263=VECTOR('',#465,1.);
#264=VECTOR('',#466,1.);
#265=VECTOR('',#467,1.);
#266=VECTOR('',#470,1.);
#267=VECTOR('',#471,1.);
#268=VECTOR('',#472,1.);
#269=VECTOR('',#473,1.);
#270=VECTOR('',#476,1.);
#271=VECTOR('',#477,1.);
#272=VECTOR('',#478,1.);
#273=VECTOR('',#481,1.);
#274=VECTOR('',#482,1.);
#275=VECTOR('',#483,1.);
#276=VECTOR('',#484,1.);
#277=VECTOR('',#493,1.);
#278=VECTOR('',#494,1.);
#279=VECTOR('',#495,1.);
#280=VECTOR('',#496,1.);
#281=VECTOR('',#497,1.);
#282=VECTOR('',#502,1.);
#283=VECTOR('',#503,1.);
#284=VECTOR('',#506,1.);
#285=VECTOR('',#507,1.);
#286=VECTOR('',#508,1.);
#287=VECTOR('',#513,1.);
#288=VECTOR('',#514,1.);
#289=EDGE_LOOP('',(#25,#26,#27,#28));
#290=EDGE_LOOP('',(#29,#30,#31,#32,#33,#34));
#291=EDGE_LOOP('',(#35,#36,#37,#38,#39,#40));
#292=EDGE_LOOP('',(#41));
#293=EDGE_LOOP('',(#42));
#294=EDGE_LOOP('',(#43));
#295=EDGE_LOOP('',(#44));
#296=EDGE_LOOP('',(#45,#46,#47,#48,#49,#50));
#297=EDGE_LOOP('',(#51,#52,#53,#54));
#298=EDGE_LOOP('',(#55,#56,#57,#58));
#299=EDGE_LOOP('',(#59,#60,#61,#62,#63,#64));
#300=EDGE_LOOP('',(#65));
#301=EDGE_LOOP('',(#66));
#302=EDGE_LOOP('',(#67));
#303=EDGE_LOOP('',(#68,#69,#70,#71,#72,#73,#74,#75,#76));
#304=EDGE_LOOP('',(#77));
#305=EDGE_LOOP('',(#78));
#306=EDGE_LOOP('',(#79,#80,#81,#82,#83,#84));
#307=EDGE_LOOP('',(#85,#86,#87,#88,#89));
#308=EDGE_LOOP('',(#90));
#309=EDGE_LOOP('',(#91,#92,#93,#94,#95,#96));
#310=EDGE_LOOP('',(#97));
#311=EDGE_LOOP('',(#98));
#312=EDGE_LOOP('',(#99,#100,#101,#102));
#313=EDGE_LOOP('',(#103,#104,#105,#106));
#314=EDGE_LOOP('',(#107,#108,#109,#110));
#315=EDGE_LOOP('',(#111,#112,#113,#114));
#316=EDGE_LOOP('',(#115,#116,#117,#118));
#317=EDGE_LOOP('',(#119));
#318=EDGE_LOOP('',(#120));
#319=EDGE_LOOP('',(#121));
#320=EDGE_LOOP('',(#122));
#321=FACE_BOUND('',#289,.T.);
#322=FACE_BOUND('',#290,.T.);
#323=FACE_BOUND('',#291,.T.);
#324=FACE_BOUND('',#292,.T.);
#325=FACE_BOUND('',#293,.T.);
#326=FACE_BOUND('',#294,.T.);
#327=FACE_BOUND('',#295,.T.);
#328=FACE_BOUND('',#296,.T.);
#329=FACE_BOUND('',#297,.T.);
#330=FACE_BOUND('',#298,.T.);
#331=FACE_BOUND('',#299,.T.);
#332=FACE_BOUND('',#300,.T.);
#333=FACE_BOUND('',#301,.T.);
#334=FACE_BOUND('',#302,.T.);
#335=FACE_BOUND('',#303,.T.);
#336=FACE_BOUND('',#304,.T.);
#337=FACE_BOUND('',#305,.T.);
#338=FACE_BOUND('',#306,.T.);
#339=FACE_BOUND('',#307,.T.);
#340=FACE_BOUND('',#308,.T.);
#341=FACE_BOUND('',#309,.T.);
#342=FACE_BOUND('',#310,.T.);
#343=FACE_BOUND('',#311,.T.);
#344=FACE_BOUND('',#312,.T.);
#345=FACE_BOUND('',#313,.T.);
#346=FACE_BOUND('',#314,.T.);
#347=FACE_BOUND('',#315,.T.);
#348=FACE_BOUND('',#316,.T.);
#349=FACE_BOUND('',#317,.T.);
#350=FACE_BOUND('',#318,.T.);
#351=FACE_BOUND('',#319,.T.);
#352=FACE_BOUND('',#320,.T.);
#353=PLANE('',#403);
#354=PLANE('',#404);
#355=PLANE('',#405);
#356=PLANE('',#409);
#357=PLANE('',#411);
#358=PLANE('',#412);
#359=PLANE('',#413);
#360=PLANE('',#416);
#361=PLANE('',#418);
#362=PLANE('',#420);
#363=PLANE('',#421);
#364=PLANE('',#425);
#365=PLANE('',#426);
#366=PLANE('',#427);
#367=PLANE('',#428);
#368=PLANE('',#429);
#369=ADVANCED_FACE('',(#321),#353,.T.);
#370=ADVANCED_FACE('',(#322),#354,.F.);
#371=ADVANCED_FACE('',(#323),#355,.T.);
#372=ADVANCED_FACE('',(#324,#325),#22,.F.);
#373=ADVANCED_FACE('',(#326,#327,#328),#356,.F.);
#374=ADVANCED_FACE('',(#329),#357,.T.);
#375=ADVANCED_FACE('',(#330),#358,.F.);
#376=ADVANCED_FACE('',(#331),#359,.F.);
#377=ADVANCED_FACE('',(#332,#333),#23,.F.);
#378=ADVANCED_FACE('',(#334,#335,#336),#360,.T.);
#379=ADVANCED_FACE('',(#337,#338),#361,.F.);
#380=ADVANCED_FACE('',(#339),#362,.T.);
#381=ADVANCED_FACE('',(#340,#341),#363,.T.);
#382=ADVANCED_FACE('',(#342,#343),#24,.F.);
#383=ADVANCED_FACE('',(#344),#364,.F.);
#384=ADVANCED_FACE('',(#345),#365,.F.);
#385=ADVANCED_FACE('',(#346),#366,.F.);
#386=ADVANCED_FACE('',(#347),#367,.F.);
#387=ADVANCED_FACE('',(#348),#368,.T.);
#388=ADVANCED_FACE('',(#349,#350),#12,.F.);
#389=ADVANCED_FACE('',(#351,#352),#13,.F.);
#390=CLOSED_SHELL('',(#369,#370,#371,#372,#373,#374,#375,#376,#377,#378,
#379,#380,#381,#382,#383,#384,#385,#386,#387,#388,#389));
#391=STYLED_ITEM('',(#392),#399);
#392=PRESENTATION_STYLE_ASSIGNMENT((#393));
#393=SURFACE_STYLE_USAGE(.BOTH.,#394);
#394=SURFACE_SIDE_STYLE('',(#395));
#395=SURFACE_STYLE_FILL_AREA(#396);
#396=FILL_AREA_STYLE('',(#397));
#397=FILL_AREA_STYLE_COLOUR('',#398);
#398=COLOUR_RGB('',0.866666666666667,0.32156862745098,0.156862745098039);
#399=MANIFOLD_SOLID_BREP('Linear Adapter',#390);
#400=SHAPE_DEFINITION_REPRESENTATION(#645,#401);
#401=SHAPE_REPRESENTATION('Linear Adapter',(#402),#640);
#402=AXIS2_PLACEMENT_3D('',#533,#432,#433);
#403=AXIS2_PLACEMENT_3D('',#534,#434,#435);
#404=AXIS2_PLACEMENT_3D('',#543,#440,#441);
#405=AXIS2_PLACEMENT_3D('',#553,#447,#448);
#406=AXIS2_PLACEMENT_3D('',#566,#455,#456);
#407=AXIS2_PLACEMENT_3D('',#567,#457,#458);
#408=AXIS2_PLACEMENT_3D('',#569,#459,#460);
#409=AXIS2_PLACEMENT_3D('',#571,#461,#462);
#410=AXIS2_PLACEMENT_3D('',#572,#463,#464);
#411=AXIS2_PLACEMENT_3D('',#578,#468,#469);
#412=AXIS2_PLACEMENT_3D('',#587,#474,#475);
#413=AXIS2_PLACEMENT_3D('',#593,#479,#480);
#414=AXIS2_PLACEMENT_3D('',#601,#485,#486);
#415=AXIS2_PLACEMENT_3D('',#602,#487,#488);
#416=AXIS2_PLACEMENT_3D('',#604,#489,#490);
#417=AXIS2_PLACEMENT_3D('',#605,#491,#492);
#418=AXIS2_PLACEMENT_3D('',#614,#498,#499);
#419=AXIS2_PLACEMENT_3D('',#615,#500,#501);
#420=AXIS2_PLACEMENT_3D('',#619,#504,#505);
#421=AXIS2_PLACEMENT_3D('',#624,#509,#510);
#422=AXIS2_PLACEMENT_3D('',#625,#511,#512);
#423=AXIS2_PLACEMENT_3D('',#629,#515,#516);
#424=AXIS2_PLACEMENT_3D('',#630,#517,#518);
#425=AXIS2_PLACEMENT_3D('',#632,#519,#520);
#426=AXIS2_PLACEMENT_3D('',#633,#521,#522);
#427=AXIS2_PLACEMENT_3D('',#634,#523,#524);
#428=AXIS2_PLACEMENT_3D('',#635,#525,#526);
#429=AXIS2_PLACEMENT_3D('',#636,#527,#528);
#430=AXIS2_PLACEMENT_3D('',#637,#529,#530);
#431=AXIS2_PLACEMENT_3D('',#638,#531,#532);
#432=DIRECTION('',(0.,0.,1.));
#433=DIRECTION('',(1.,0.,0.));
#434=DIRECTION('',(0.,1.,0.));
#435=DIRECTION('',(0.,0.,1.));
#436=DIRECTION('',(1.,0.,-6.12323399573677E-17));
#437=DIRECTION('',(6.12323399573677E-17,0.,1.));
#438=DIRECTION('',(-1.,0.,6.12323399573677E-17));
#439=DIRECTION('',(0.,0.,1.));
#440=DIRECTION('',(-1.,0.,0.));
#441=DIRECTION('',(0.,0.,1.));
#442=DIRECTION('',(0.,-1.,0.));
#443=DIRECTION('',(0.,-1.,0.));
#444=DIRECTION('',(0.,0.,1.));
#445=DIRECTION('',(0.,-1.,0.));
#446=DIRECTION('',(0.,0.,-1.));
#447=DIRECTION('',(-1.,0.,6.12323399573677E-17));
#448=DIRECTION('',(6.12323399573677E-17,0.,1.));
#449=DIRECTION('',(0.,-1.,0.));
#450=DIRECTION('',(-6.12323399573677E-17,0.,-1.));
#451=DIRECTION('',(0.,-1.,0.));
#452=DIRECTION('',(-6.12323399573677E-17,0.,-1.));
#453=DIRECTION('',(0.,-1.,0.));
#454=DIRECTION('',(6.12323399573677E-17,0.,1.));
#455=DIRECTION('',(6.12323399573677E-17,0.,1.));
#456=DIRECTION('',(1.,0.,-6.12323399573677E-17));
#457=DIRECTION('',(0.,0.,-1.));
#458=DIRECTION('',(-1.,0.,0.));
#459=DIRECTION('',(-6.12323399573677E-17,0.,-1.));
#460=DIRECTION('',(-1.,0.,6.12323399573677E-17));
#461=DIRECTION('',(-6.12323399573677E-17,0.,-1.));
#462=DIRECTION('',(1.,0.,-6.12323399573677E-17));
#463=DIRECTION('',(-6.12323399573677E-17,0.,-1.));
#464=DIRECTION('',(-1.,0.,6.12323399573677E-17));
#465=DIRECTION('',(0.707106781186548,0.707106781186548,-4.32978028117747E-17));
#466=DIRECTION('',(0.707106781186548,-0.707106781186547,-4.32978028117747E-17));
#467=DIRECTION('',(-1.,0.,6.12323399573677E-17));
#468=DIRECTION('',(0.,1.,0.));
#469=DIRECTION('',(0.,0.,1.));
#470=DIRECTION('',(-6.12323399573677E-17,0.,-1.));
#471=DIRECTION('',(-1.,0.,0.));
#472=DIRECTION('',(6.12323399573677E-17,0.,1.));
#473=DIRECTION('',(-1.,0.,6.12323399573677E-17));
#474=DIRECTION('',(-1.,0.,6.12323399573677E-17));
#475=DIRECTION('',(6.12323399573677E-17,0.,1.));
#476=DIRECTION('',(0.,-1.,0.));
#477=DIRECTION('',(-6.12323399573677E-17,0.,-1.));
#478=DIRECTION('',(0.,-1.,0.));
#479=DIRECTION('',(0.,1.,0.));
#480=DIRECTION('',(0.,0.,1.));
#481=DIRECTION('',(-1.,0.,6.12323399573677E-17));
#482=DIRECTION('',(6.12323399573677E-17,0.,1.));
#483=DIRECTION('',(-1.,0.,0.));
#484=DIRECTION('',(-6.12323399573677E-17,0.,-1.));
#485=DIRECTION('',(6.12323399573677E-17,0.,1.));
#486=DIRECTION('',(1.,0.,-6.12323399573677E-17));
#487=DIRECTION('',(-6.12323399573677E-17,0.,-1.));
#488=DIRECTION('',(-1.,0.,6.12323399573677E-17));
#489=DIRECTION('',(-6.12323399573677E-17,0.,-1.));
#490=DIRECTION('',(1.,0.,-6.12323399573677E-17));
#491=DIRECTION('',(-6.12323399573677E-17,0.,-1.));
#492=DIRECTION('',(-1.,0.,6.12323399573677E-17));
#493=DIRECTION('',(-0.707106781186548,-0.707106781186547,4.32978028117747E-17));
#494=DIRECTION('',(1.,0.,-6.12323399573677E-17));
#495=DIRECTION('',(0.,-1.,0.));
#496=DIRECTION('',(0.707106781186548,0.707106781186547,-4.32978028117747E-17));
#497=DIRECTION('',(-0.707106781186548,0.707106781186547,4.32978028117747E-17));
#498=DIRECTION('',(0.,0.,-1.));
#499=DIRECTION('',(-1.,0.,0.));
#500=DIRECTION('',(0.,0.,-1.));
#501=DIRECTION('',(-1.,0.,0.));
#502=DIRECTION('',(-0.707106781186548,-0.707106781186547,0.));
#503=DIRECTION('',(0.,-1.,0.));
#504=DIRECTION('',(0.,1.,0.));
#505=DIRECTION('',(0.,0.,1.));
#506=DIRECTION('',(6.12323399573677E-17,0.,1.));
#507=DIRECTION('',(1.,0.,-6.12323399573677E-17));
#508=DIRECTION('',(-6.12323399573677E-17,0.,-1.));
#509=DIRECTION('',(-6.12323399573677E-17,0.,-1.));
#510=DIRECTION('',(1.,0.,-6.12323399573677E-17));
#511=DIRECTION('',(-6.12323399573677E-17,0.,-1.));
#512=DIRECTION('',(-1.,0.,6.12323399573677E-17));
#513=DIRECTION('',(-0.707106781186548,-0.707106781186548,4.32978028117747E-17));
#514=DIRECTION('',(0.707106781186548,0.707106781186547,-4.32978028117747E-17));
#515=DIRECTION('',(-6.12323399573677E-17,0.,-1.));
#516=DIRECTION('',(-1.,0.,6.12323399573677E-17));
#517=DIRECTION('',(0.,0.,-1.));
#518=DIRECTION('',(-1.,0.,0.));
#519=DIRECTION('',(1.,0.,-6.12323399573677E-17));
#520=DIRECTION('',(-6.12323399573677E-17,0.,-1.));
#521=DIRECTION('',(0.707106781186548,-0.707106781186548,-4.32978028117746E-17));
#522=DIRECTION('',(6.12323399573677E-17,0.,1.));
#523=DIRECTION('',(0.707106781186547,-0.707106781186548,-4.32978028117746E-17));
#524=DIRECTION('',(-6.12323399573677E-17,0.,-1.));
#525=DIRECTION('',(-0.707106781186547,0.707106781186548,4.32978028117746E-17));
#526=DIRECTION('',(6.12323399573677E-17,0.,1.));
#527=DIRECTION('',(-0.707106781186547,-0.707106781186548,4.32978028117746E-17));
#528=DIRECTION('',(-6.12323399573677E-17,0.,-1.));
#529=DIRECTION('',(0.,0.,-1.));
#530=DIRECTION('',(-1.,0.,0.));
#531=DIRECTION('',(0.,0.,-1.));
#532=DIRECTION('',(-1.,0.,0.));
#533=CARTESIAN_POINT('',(0.,0.,0.));
#534=CARTESIAN_POINT('',(-0.130500816106796,0.0719985741168369,0.1664));
#535=CARTESIAN_POINT('',(-0.140500816106796,0.0719985741168369,0.1864));
#536=CARTESIAN_POINT('',(-0.152500816106796,0.0719985741168369,0.1864));
#537=CARTESIAN_POINT('',(-0.120258085425303,0.071998574116837,0.1864));
#538=CARTESIAN_POINT('',(-0.152500816106796,0.0719985741168369,0.1664));
#539=CARTESIAN_POINT('',(-0.152500816106796,0.0719985741168369,0.1914));
#540=CARTESIAN_POINT('',(-0.130500816106796,0.0719985741168369,0.1914));
#541=CARTESIAN_POINT('',(-0.120255854743811,0.0719985741168371,0.1914));
#542=CARTESIAN_POINT('',(-0.120255854743811,0.0719985741168369,0.1664));
#543=CARTESIAN_POINT('',(-0.120255854743811,0.741509020097639,0.181400712941581));
#544=CARTESIAN_POINT('',(-0.120255854743811,0.741509020097639,0.1864));
#545=CARTESIAN_POINT('',(-0.120255854743811,0.051998574116837,0.1864));
#546=CARTESIAN_POINT('',(-0.120255854743811,0.741509020097639,0.1914));
#547=CARTESIAN_POINT('',(-0.120255854743811,0.0169985741168371,0.1914));
#548=CARTESIAN_POINT('',(-0.120255854743811,0.0169985741168369,0.1664));
#549=CARTESIAN_POINT('',(-0.120255854743811,0.0169985741168369,0.171401425883163));
#550=CARTESIAN_POINT('',(-0.120255854743811,0.741509020097639,0.171401425883163));
#551=CARTESIAN_POINT('',(-0.120258335425303,0.0519985741168374,0.171401425883163));
#552=CARTESIAN_POINT('',(-0.120255854743811,0.051998574116837,0.181400712941581));
#553=CARTESIAN_POINT('',(-0.160500816106797,0.0444985741168369,0.1664));
#554=CARTESIAN_POINT('',(-0.160500816106797,0.0444985741168369,0.1914));
#555=CARTESIAN_POINT('',(-0.160500816106797,0.0639985741168369,0.1914));
#556=CARTESIAN_POINT('',(-0.160500816106797,0.0249985741168369,0.1914));
#557=CARTESIAN_POINT('',(-0.160500816106797,0.0639985741168369,0.1664));
#558=CARTESIAN_POINT('',(-0.160500816106797,0.0639985741168369,0.1864));
#559=CARTESIAN_POINT('',(-0.160500816106797,0.0619985741168369,0.1864));
#560=CARTESIAN_POINT('',(-0.160500816106797,0.0439985741168369,0.1864));
#561=CARTESIAN_POINT('',(-0.160500816106797,0.0439985741168369,0.1664));
#562=CARTESIAN_POINT('',(-0.160500816106797,0.0439985741168369,0.1664));
#563=CARTESIAN_POINT('',(-0.160500816106797,0.0444985741168369,0.1664));
#564=CARTESIAN_POINT('',(-0.160500816106797,0.0249985741168369,0.1664));
#565=CARTESIAN_POINT('',(-0.160500816106797,0.0249985741168369,0.1914));
#566=CARTESIAN_POINT('',(-0.134255854743811,0.062,0.1664));
#567=CARTESIAN_POINT('',(-0.134255854743811,0.062,0.1884));
#568=CARTESIAN_POINT('',(-0.136755854743811,0.062,0.1884));
#569=CARTESIAN_POINT('',(-0.134255854743811,0.062,0.1914));
#570=CARTESIAN_POINT('',(-0.136755854743811,0.062,0.1914));
#571=CARTESIAN_POINT('',(0.0396419909596443,-0.018680451245188,0.1914));
#572=CARTESIAN_POINT('',(-0.141955178741093,0.0365,0.1914));
#573=CARTESIAN_POINT('',(-0.152255178741093,0.0365,0.1914));
#574=CARTESIAN_POINT('',(-0.152500816106796,0.0719985741168369,0.1914));
#575=CARTESIAN_POINT('',(-0.160500816106797,0.0249985741168369,0.1914));
#576=CARTESIAN_POINT('',(-0.152500816106796,0.0169985741168369,0.1914));
#577=CARTESIAN_POINT('',(-0.130500816106796,0.0169985741168369,0.1914));
#578=CARTESIAN_POINT('',(-0.130500816106796,0.0719985741168369,0.1664));
#579=CARTESIAN_POINT('',(-0.120260816106796,0.0719985741168369,0.1864));
#580=CARTESIAN_POINT('',(-0.120258335425303,0.071998574116837,0.171401425883163));
#581=CARTESIAN_POINT('',(-0.120260816106796,0.0719985741168369,0.1664));
#582=CARTESIAN_POINT('',(-0.130500816106796,0.0719985741168369,0.171401425883163));
#583=CARTESIAN_POINT('',(-0.100500816106796,0.0719985741168369,0.171401425883163));
#584=CARTESIAN_POINT('',(-0.100500816106796,0.0719985741168369,0.1664));
#585=CARTESIAN_POINT('',(-0.100500816106796,0.0719985741168369,0.1664));
#586=CARTESIAN_POINT('',(-0.130500816106796,0.0719985741168369,0.1664));
#587=CARTESIAN_POINT('',(-0.100500816106796,0.0444985741168369,0.1664));
#588=CARTESIAN_POINT('',(-0.100500816106796,0.0444985741168369,0.171401425883163));
#589=CARTESIAN_POINT('',(-0.100500816106796,0.0249985741168369,0.171401425883163));
#590=CARTESIAN_POINT('',(-0.100500816106796,0.0249985741168369,0.1664));
#591=CARTESIAN_POINT('',(-0.100500816106796,0.0249985741168369,0.1664));
#592=CARTESIAN_POINT('',(-0.100500816106796,0.0444985741168369,0.1664));
#593=CARTESIAN_POINT('',(-0.130500816106796,0.0169985741168369,0.1664));
#594=CARTESIAN_POINT('',(-0.130500816106796,0.0169985741168369,0.1664));
#595=CARTESIAN_POINT('',(-0.108500816106796,0.0169985741168369,0.1664));
#596=CARTESIAN_POINT('',(-0.152500816106796,0.0169985741168369,0.1664));
#597=CARTESIAN_POINT('',(-0.108500816106796,0.0169985741168369,0.1664));
#598=CARTESIAN_POINT('',(-0.108500816106796,0.0169985741168369,0.171401425883163));
#599=CARTESIAN_POINT('',(-0.130500816106796,0.0169985741168369,0.171401425883163));
#600=CARTESIAN_POINT('',(-0.152500816106796,0.0169985741168369,0.1664));
#601=CARTESIAN_POINT('',(-0.141955178741093,0.0365,0.1664));
#602=CARTESIAN_POINT('',(-0.141955178741093,0.0365,0.1664));
#603=CARTESIAN_POINT('',(-0.152255178741093,0.0365,0.1664));
#604=CARTESIAN_POINT('',(0.0396419909596443,-0.018680451245188,0.1664));
#605=CARTESIAN_POINT('',(-0.110255854743811,0.0369985741168369,0.1664));
#606=CARTESIAN_POINT('',(-0.114755854743811,0.0369985741168369,0.1664));
#607=CARTESIAN_POINT('',(-0.0917689252545884,0.112730464969045,0.1664));
#608=CARTESIAN_POINT('',(-0.152500816106796,0.0519985741168369,0.1664));
#609=CARTESIAN_POINT('',(-0.140500816106796,0.0519985741168369,0.1664));
#610=CARTESIAN_POINT('',(-0.120260816106796,0.0519985741168369,0.1664));
#611=CARTESIAN_POINT('',(-0.120260816106796,0.0619985741168369,0.1664));
#612=CARTESIAN_POINT('',(-0.0522689252545884,0.0732304649690447,0.1664));
#613=CARTESIAN_POINT('',(-0.0385898998925635,-0.0969123420973958,0.1664));
#614=CARTESIAN_POINT('',(-0.110255854743811,0.741509020097639,0.171401425883163));
#615=CARTESIAN_POINT('',(-0.110255854743811,0.0369985741168369,0.171401425883163));
#616=CARTESIAN_POINT('',(-0.112755854743811,0.0369985741168369,0.171401425883163));
#617=CARTESIAN_POINT('',(-0.108500816106796,0.0169985741168369,0.171401425883163));
#618=CARTESIAN_POINT('',(-0.120260816106796,0.741509020097639,0.171401425883163));
#619=CARTESIAN_POINT('',(-0.140500816106796,0.0519985741168369,0.1864));
#620=CARTESIAN_POINT('',(-0.152500816106796,0.0519985741168369,0.1864));
#621=CARTESIAN_POINT('',(-0.152500816106796,0.0519985741168369,0.1864));
#622=CARTESIAN_POINT('',(-0.140500816106796,0.0519985741168369,0.1864));
#623=CARTESIAN_POINT('',(-0.120260816106796,0.0519985741168369,0.1864));
#624=CARTESIAN_POINT('',(0.0396419909596444,-0.018680451245188,0.1864));
#625=CARTESIAN_POINT('',(-0.134255854743811,0.062,0.1864));
#626=CARTESIAN_POINT('',(-0.138755854743811,0.062,0.1864));
#627=CARTESIAN_POINT('',(-0.101768925254588,0.122730464969045,0.1864));
#628=CARTESIAN_POINT('',(-0.160500816106797,0.0439985741168369,0.1864));
#629=CARTESIAN_POINT('',(-0.110255854743811,0.0369985741168369,1.01726849670485));
#630=CARTESIAN_POINT('',(-0.110255854743811,0.0369985741168369,0.1684));
#631=CARTESIAN_POINT('',(-0.112755854743811,0.0369985741168369,0.1684));
#632=CARTESIAN_POINT('',(-0.120260816106796,0.0619985741168369,0.1864));
#633=CARTESIAN_POINT('',(-0.152500816106796,0.0719985741168369,0.1664));
#634=CARTESIAN_POINT('',(-0.160500816106797,0.0439985741168369,0.1664));
#635=CARTESIAN_POINT('',(-0.108500816106796,0.0169985741168369,0.1664));
#636=CARTESIAN_POINT('',(-0.160500816106797,0.0249985741168369,0.1664));
#637=CARTESIAN_POINT('',(-0.110255854743811,0.0369985741168369,0.1684));
#638=CARTESIAN_POINT('',(-0.134255854743811,0.062,0.1884));
#639=MECHANICAL_DESIGN_GEOMETRIC_PRESENTATION_REPRESENTATION('',(#391),
#640);
#640=(
GEOMETRIC_REPRESENTATION_CONTEXT(3)
GLOBAL_UNCERTAINTY_ASSIGNED_CONTEXT((#641))
GLOBAL_UNIT_ASSIGNED_CONTEXT((#644,#643,#642))
REPRESENTATION_CONTEXT('Linear Adapter','TOP_LEVEL_ASSEMBLY_PART')
);
#641=UNCERTAINTY_MEASURE_WITH_UNIT(LENGTH_MEASURE(2.54613629857292E-5),
#644,'DISTANCE_ACCURACY_VALUE','Maximum Tolerance applied to model');
#642=(
NAMED_UNIT(*)
SI_UNIT($,.STERADIAN.)
SOLID_ANGLE_UNIT()
);
#643=(
NAMED_UNIT(*)
PLANE_ANGLE_UNIT()
SI_UNIT($,.RADIAN.)
);
#644=(
LENGTH_UNIT()
NAMED_UNIT(*)
SI_UNIT($,.METRE.)
);
#645=PRODUCT_DEFINITION_SHAPE('','',#646);
#646=PRODUCT_DEFINITION('','',#648,#647);
#647=PRODUCT_DEFINITION_CONTEXT('',#654,'design');
#648=PRODUCT_DEFINITION_FORMATION_WITH_SPECIFIED_SOURCE('','',#650,
 .NOT_KNOWN.);
#649=PRODUCT_RELATED_PRODUCT_CATEGORY('','',(#650));
#650=PRODUCT('Linear Adapter','Linear Adapter','Linear Adapter',(#652));
#651=PRODUCT_CATEGORY('','');
#652=PRODUCT_CONTEXT('',#654,'mechanical');
#653=APPLICATION_PROTOCOL_DEFINITION('international standard',
'ap242_managed_model_based_3d_engineering',2020,#654);
#654=APPLICATION_CONTEXT('managed model based 3d engineering');
ENDSEC;
END-ISO-10303-21;
