ISO-10303-21;
HEADER;
/* Generated by software containing ST-Developer
 * from STEP Tools, Inc. (www.steptools.com) 
 */
/* OPTION: using custom renumber hook */

FILE_DESCRIPTION(
/* description */ ('STEP AP242 Edition 2',
'CAx-IF Rec.Pracs.---Representation and Presentation of Product Manufa
cturing Information (PMI)---4.0---2014-10-13',
'CAx-IF Rec.Pracs.---3D Tessellated Geometry---0.4---2014-09-14','2;1',
'CAx-IF Rec.Pracs.---User Defined Attributes---1.5---2016-08-15'),
/* implementation_level */ '2;1');

FILE_NAME(
/* name */ 'NOT-618 - XY1_TOP',
/* time_stamp */ '2026-07-11T06:09:10Z',
/* author */ (''),
/* organization */ (''),
/* preprocessor_version */ 'ST-DEVELOPER v20',
/* originating_system */ 'ONSHAPE BY PTC INC, 1.217',
/* authorisation */ '  ');

FILE_SCHEMA (('AP242_MANAGED_MODEL_BASED_3D_ENGINEERING_MIM_LF { 1 0 10303 442 3 1 4 }'));
ENDSEC;

DATA;
#10=SHAPE_REPRESENTATION_RELATIONSHIP('','',#970,#11);
#11=ADVANCED_BREP_SHAPE_REPRESENTATION('',(#968),#1556);
#12=ELLIPSE('',#988,0.0148492424049175,0.0105);
#13=ELLIPSE('',#990,0.0148492424049175,0.0105);
#14=CYLINDRICAL_SURFACE('',#979,0.0025);
#15=CYLINDRICAL_SURFACE('',#984,0.0103);
#16=CYLINDRICAL_SURFACE('',#996,0.005);
#17=CYLINDRICAL_SURFACE('',#1014,0.0105);
#18=CYLINDRICAL_SURFACE('',#1020,0.0025);
#19=CYLINDRICAL_SURFACE('',#1035,0.0016);
#20=LINE('',#1291,#135);
#21=LINE('',#1294,#136);
#22=LINE('',#1296,#137);
#23=LINE('',#1298,#138);
#24=LINE('',#1300,#139);
#25=LINE('',#1302,#140);
#26=LINE('',#1304,#141);
#27=LINE('',#1306,#142);
#28=LINE('',#1308,#143);
#29=LINE('',#1310,#144);
#30=LINE('',#1312,#145);
#31=LINE('',#1314,#146);
#32=LINE('',#1315,#147);
#33=LINE('',#1317,#148);
#34=LINE('',#1319,#149);
#35=LINE('',#1322,#150);
#36=LINE('',#1324,#151);
#37=LINE('',#1328,#152);
#38=LINE('',#1330,#153);
#39=LINE('',#1332,#154);
#40=LINE('',#1334,#155);
#41=LINE('',#1336,#156);
#42=LINE('',#1338,#157);
#43=LINE('',#1340,#158);
#44=LINE('',#1342,#159);
#45=LINE('',#1344,#160);
#46=LINE('',#1346,#161);
#47=LINE('',#1348,#162);
#48=LINE('',#1350,#163);
#49=LINE('',#1353,#164);
#50=LINE('',#1355,#165);
#51=LINE('',#1357,#166);
#52=LINE('',#1359,#167);
#53=LINE('',#1361,#168);
#54=LINE('',#1363,#169);
#55=LINE('',#1365,#170);
#56=LINE('',#1367,#171);
#57=LINE('',#1369,#172);
#58=LINE('',#1371,#173);
#59=LINE('',#1373,#174);
#60=LINE('',#1375,#175);
#61=LINE('',#1377,#176);
#62=LINE('',#1386,#177);
#63=LINE('',#1387,#178);
#64=LINE('',#1389,#179);
#65=LINE('',#1391,#180);
#66=LINE('',#1393,#181);
#67=LINE('',#1394,#182);
#68=LINE('',#1396,#183);
#69=LINE('',#1398,#184);
#70=LINE('',#1399,#185);
#71=LINE('',#1401,#186);
#72=LINE('',#1406,#187);
#73=LINE('',#1410,#188);
#74=LINE('',#1412,#189);
#75=LINE('',#1414,#190);
#76=LINE('',#1416,#191);
#77=LINE('',#1418,#192);
#78=LINE('',#1420,#193);
#79=LINE('',#1423,#194);
#80=LINE('',#1425,#195);
#81=LINE('',#1427,#196);
#82=LINE('',#1430,#197);
#83=LINE('',#1432,#198);
#84=LINE('',#1434,#199);
#85=LINE('',#1436,#200);
#86=LINE('',#1438,#201);
#87=LINE('',#1440,#202);
#88=LINE('',#1442,#203);
#89=LINE('',#1444,#204);
#90=LINE('',#1445,#205);
#91=LINE('',#1447,#206);
#92=LINE('',#1449,#207);
#93=LINE('',#1452,#208);
#94=LINE('',#1453,#209);
#95=LINE('',#1455,#210);
#96=LINE('',#1457,#211);
#97=LINE('',#1460,#212);
#98=LINE('',#1462,#213);
#99=LINE('',#1464,#214);
#100=LINE('',#1466,#215);
#101=LINE('',#1472,#216);
#102=LINE('',#1474,#217);
#103=LINE('',#1476,#218);
#104=LINE('',#1478,#219);
#105=LINE('',#1479,#220);
#106=LINE('',#1481,#221);
#107=LINE('',#1483,#222);
#108=LINE('',#1484,#223);
#109=LINE('',#1486,#224);
#110=LINE('',#1487,#225);
#111=LINE('',#1489,#226);
#112=LINE('',#1490,#227);
#113=LINE('',#1494,#228);
#114=LINE('',#1497,#229);
#115=LINE('',#1502,#230);
#116=LINE('',#1506,#231);
#117=LINE('',#1507,#232);
#118=LINE('',#1508,#233);
#119=LINE('',#1510,#234);
#120=LINE('',#1511,#235);
#121=LINE('',#1512,#236);
#122=LINE('',#1521,#237);
#123=LINE('',#1523,#238);
#124=LINE('',#1525,#239);
#125=LINE('',#1528,#240);
#126=LINE('',#1530,#241);
#127=LINE('',#1532,#242);
#128=LINE('',#1534,#243);
#129=LINE('',#1536,#244);
#130=LINE('',#1541,#245);
#131=LINE('',#1543,#246);
#132=LINE('',#1545,#247);
#133=LINE('',#1547,#248);
#134=LINE('',#1549,#249);
#135=VECTOR('',#1044,1.);
#136=VECTOR('',#1045,1.);
#137=VECTOR('',#1046,1.);
#138=VECTOR('',#1047,1.);
#139=VECTOR('',#1048,1.);
#140=VECTOR('',#1049,1.);
#141=VECTOR('',#1050,1.);
#142=VECTOR('',#1051,1.);
#143=VECTOR('',#1054,1.);
#144=VECTOR('',#1055,1.);
#145=VECTOR('',#1056,1.);
#146=VECTOR('',#1057,1.);
#147=VECTOR('',#1058,1.);
#148=VECTOR('',#1059,1.);
#149=VECTOR('',#1062,1.);
#150=VECTOR('',#1063,1.);
#151=VECTOR('',#1064,1.);
#152=VECTOR('',#1067,1.);
#153=VECTOR('',#1068,1.);
#154=VECTOR('',#1069,1.);
#155=VECTOR('',#1070,1.);
#156=VECTOR('',#1071,1.);
#157=VECTOR('',#1072,1.);
#158=VECTOR('',#1073,1.);
#159=VECTOR('',#1074,1.);
#160=VECTOR('',#1075,1.);
#161=VECTOR('',#1076,1.);
#162=VECTOR('',#1077,1.);
#163=VECTOR('',#1080,1.);
#164=VECTOR('',#1081,1.);
#165=VECTOR('',#1082,1.);
#166=VECTOR('',#1083,1.);
#167=VECTOR('',#1084,1.);
#168=VECTOR('',#1085,1.);
#169=VECTOR('',#1086,1.);
#170=VECTOR('',#1087,1.);
#171=VECTOR('',#1088,1.);
#172=VECTOR('',#1089,1.);
#173=VECTOR('',#1090,1.);
#174=VECTOR('',#1091,1.);
#175=VECTOR('',#1092,1.);
#176=VECTOR('',#1093,1.);
#177=VECTOR('',#1104,1.);
#178=VECTOR('',#1105,1.);
#179=VECTOR('',#1108,1.);
#180=VECTOR('',#1109,1.);
#181=VECTOR('',#1110,1.);
#182=VECTOR('',#1111,1.);
#183=VECTOR('',#1112,1.);
#184=VECTOR('',#1113,1.);
#185=VECTOR('',#1114,1.);
#186=VECTOR('',#1115,1.);
#187=VECTOR('',#1120,1.);
#188=VECTOR('',#1123,1.);
#189=VECTOR('',#1126,1.);
#190=VECTOR('',#1127,1.);
#191=VECTOR('',#1128,1.);
#192=VECTOR('',#1131,1.);
#193=VECTOR('',#1134,1.);
#194=VECTOR('',#1135,1.);
#195=VECTOR('',#1136,1.);
#196=VECTOR('',#1137,1.);
#197=VECTOR('',#1140,1.);
#198=VECTOR('',#1141,1.);
#199=VECTOR('',#1144,1.);
#200=VECTOR('',#1145,1.);
#201=VECTOR('',#1146,1.);
#202=VECTOR('',#1149,1.);
#203=VECTOR('',#1150,1.);
#204=VECTOR('',#1153,1.);
#205=VECTOR('',#1154,1.);
#206=VECTOR('',#1155,1.);
#207=VECTOR('',#1158,1.);
#208=VECTOR('',#1159,1.);
#209=VECTOR('',#1160,1.);
#210=VECTOR('',#1161,1.);
#211=VECTOR('',#1164,1.);
#212=VECTOR('',#1165,1.);
#213=VECTOR('',#1166,1.);
#214=VECTOR('',#1167,1.);
#215=VECTOR('',#1170,1.);
#216=VECTOR('',#1177,1.);
#217=VECTOR('',#1178,1.);
#218=VECTOR('',#1179,1.);
#219=VECTOR('',#1182,1.);
#220=VECTOR('',#1183,1.);
#221=VECTOR('',#1186,1.);
#222=VECTOR('',#1189,1.);
#223=VECTOR('',#1190,1.);
#224=VECTOR('',#1193,1.);
#225=VECTOR('',#1194,1.);
#226=VECTOR('',#1197,1.);
#227=VECTOR('',#1198,1.);
#228=VECTOR('',#1203,1.);
#229=VECTOR('',#1208,1.);
#230=VECTOR('',#1217,1.);
#231=VECTOR('',#1224,1.);
#232=VECTOR('',#1225,1.);
#233=VECTOR('',#1226,1.);
#234=VECTOR('',#1229,1.);
#235=VECTOR('',#1230,1.);
#236=VECTOR('',#1231,1.);
#237=VECTOR('',#1246,1.);
#238=VECTOR('',#1247,1.);
#239=VECTOR('',#1250,1.);
#240=VECTOR('',#1255,1.);
#241=VECTOR('',#1256,1.);
#242=VECTOR('',#1257,1.);
#243=VECTOR('',#1260,1.);
#244=VECTOR('',#1263,1.);
#245=VECTOR('',#1270,1.);
#246=VECTOR('',#1271,1.);
#247=VECTOR('',#1272,1.);
#248=VECTOR('',#1275,1.);
#249=VECTOR('',#1278,1.);
#250=ORIENTED_EDGE('',*,*,#512,.F.);
#251=ORIENTED_EDGE('',*,*,#513,.F.);
#252=ORIENTED_EDGE('',*,*,#514,.T.);
#253=ORIENTED_EDGE('',*,*,#515,.T.);
#254=ORIENTED_EDGE('',*,*,#516,.T.);
#255=ORIENTED_EDGE('',*,*,#517,.T.);
#256=ORIENTED_EDGE('',*,*,#518,.T.);
#257=ORIENTED_EDGE('',*,*,#519,.T.);
#258=ORIENTED_EDGE('',*,*,#520,.T.);
#259=ORIENTED_EDGE('',*,*,#521,.F.);
#260=ORIENTED_EDGE('',*,*,#520,.F.);
#261=ORIENTED_EDGE('',*,*,#522,.T.);
#262=ORIENTED_EDGE('',*,*,#523,.F.);
#263=ORIENTED_EDGE('',*,*,#524,.T.);
#264=ORIENTED_EDGE('',*,*,#516,.F.);
#265=ORIENTED_EDGE('',*,*,#525,.T.);
#266=ORIENTED_EDGE('',*,*,#526,.F.);
#267=ORIENTED_EDGE('',*,*,#527,.T.);
#268=ORIENTED_EDGE('',*,*,#528,.T.);
#269=ORIENTED_EDGE('',*,*,#529,.F.);
#270=ORIENTED_EDGE('',*,*,#530,.F.);
#271=ORIENTED_EDGE('',*,*,#531,.T.);
#272=ORIENTED_EDGE('',*,*,#532,.F.);
#273=ORIENTED_EDGE('',*,*,#533,.T.);
#274=ORIENTED_EDGE('',*,*,#534,.T.);
#275=ORIENTED_EDGE('',*,*,#535,.T.);
#276=ORIENTED_EDGE('',*,*,#536,.T.);
#277=ORIENTED_EDGE('',*,*,#537,.T.);
#278=ORIENTED_EDGE('',*,*,#538,.T.);
#279=ORIENTED_EDGE('',*,*,#539,.T.);
#280=ORIENTED_EDGE('',*,*,#540,.F.);
#281=ORIENTED_EDGE('',*,*,#541,.T.);
#282=ORIENTED_EDGE('',*,*,#542,.F.);
#283=ORIENTED_EDGE('',*,*,#543,.F.);
#284=ORIENTED_EDGE('',*,*,#544,.F.);
#285=ORIENTED_EDGE('',*,*,#545,.T.);
#286=ORIENTED_EDGE('',*,*,#546,.T.);
#287=ORIENTED_EDGE('',*,*,#547,.F.);
#288=ORIENTED_EDGE('',*,*,#548,.T.);
#289=ORIENTED_EDGE('',*,*,#549,.T.);
#290=ORIENTED_EDGE('',*,*,#550,.T.);
#291=ORIENTED_EDGE('',*,*,#551,.T.);
#292=ORIENTED_EDGE('',*,*,#552,.T.);
#293=ORIENTED_EDGE('',*,*,#553,.F.);
#294=ORIENTED_EDGE('',*,*,#554,.T.);
#295=ORIENTED_EDGE('',*,*,#555,.F.);
#296=ORIENTED_EDGE('',*,*,#556,.F.);
#297=ORIENTED_EDGE('',*,*,#557,.T.);
#298=ORIENTED_EDGE('',*,*,#558,.F.);
#299=ORIENTED_EDGE('',*,*,#546,.F.);
#300=ORIENTED_EDGE('',*,*,#559,.T.);
#301=ORIENTED_EDGE('',*,*,#541,.F.);
#302=ORIENTED_EDGE('',*,*,#560,.F.);
#303=ORIENTED_EDGE('',*,*,#543,.T.);
#304=ORIENTED_EDGE('',*,*,#561,.T.);
#305=ORIENTED_EDGE('',*,*,#562,.F.);
#306=ORIENTED_EDGE('',*,*,#563,.F.);
#307=ORIENTED_EDGE('',*,*,#553,.T.);
#308=ORIENTED_EDGE('',*,*,#564,.T.);
#309=ORIENTED_EDGE('',*,*,#565,.F.);
#310=ORIENTED_EDGE('',*,*,#566,.F.);
#311=ORIENTED_EDGE('',*,*,#529,.T.);
#312=ORIENTED_EDGE('',*,*,#567,.F.);
#313=ORIENTED_EDGE('',*,*,#568,.F.);
#314=ORIENTED_EDGE('',*,*,#512,.T.);
#315=ORIENTED_EDGE('',*,*,#556,.T.);
#316=ORIENTED_EDGE('',*,*,#569,.F.);
#317=ORIENTED_EDGE('',*,*,#570,.F.);
#318=ORIENTED_EDGE('',*,*,#571,.T.);
#319=ORIENTED_EDGE('',*,*,#572,.F.);
#320=ORIENTED_EDGE('',*,*,#535,.F.);
#321=ORIENTED_EDGE('',*,*,#573,.T.);
#322=ORIENTED_EDGE('',*,*,#574,.F.);
#323=ORIENTED_EDGE('',*,*,#575,.F.);
#324=ORIENTED_EDGE('',*,*,#531,.F.);
#325=ORIENTED_EDGE('',*,*,#576,.F.);
#326=ORIENTED_EDGE('',*,*,#522,.F.);
#327=ORIENTED_EDGE('',*,*,#519,.F.);
#328=ORIENTED_EDGE('',*,*,#577,.F.);
#329=ORIENTED_EDGE('',*,*,#578,.F.);
#330=ORIENTED_EDGE('',*,*,#579,.T.);
#331=ORIENTED_EDGE('',*,*,#580,.F.);
#332=ORIENTED_EDGE('',*,*,#581,.F.);
#333=ORIENTED_EDGE('',*,*,#517,.F.);
#334=ORIENTED_EDGE('',*,*,#524,.F.);
#335=ORIENTED_EDGE('',*,*,#582,.F.);
#336=ORIENTED_EDGE('',*,*,#583,.F.);
#337=ORIENTED_EDGE('',*,*,#584,.F.);
#338=ORIENTED_EDGE('',*,*,#585,.F.);
#339=ORIENTED_EDGE('',*,*,#586,.F.);
#340=ORIENTED_EDGE('',*,*,#587,.T.);
#341=ORIENTED_EDGE('',*,*,#583,.T.);
#342=ORIENTED_EDGE('',*,*,#588,.T.);
#343=ORIENTED_EDGE('',*,*,#565,.T.);
#344=ORIENTED_EDGE('',*,*,#589,.T.);
#345=ORIENTED_EDGE('',*,*,#590,.T.);
#346=ORIENTED_EDGE('',*,*,#580,.T.);
#347=ORIENTED_EDGE('',*,*,#591,.T.);
#348=ORIENTED_EDGE('',*,*,#592,.T.);
#349=ORIENTED_EDGE('',*,*,#593,.F.);
#350=ORIENTED_EDGE('',*,*,#594,.T.);
#351=ORIENTED_EDGE('',*,*,#595,.T.);
#352=ORIENTED_EDGE('',*,*,#596,.T.);
#353=ORIENTED_EDGE('',*,*,#597,.T.);
#354=ORIENTED_EDGE('',*,*,#598,.T.);
#355=ORIENTED_EDGE('',*,*,#599,.T.);
#356=ORIENTED_EDGE('',*,*,#600,.F.);
#357=ORIENTED_EDGE('',*,*,#601,.T.);
#358=ORIENTED_EDGE('',*,*,#602,.F.);
#359=ORIENTED_EDGE('',*,*,#603,.F.);
#360=ORIENTED_EDGE('',*,*,#601,.F.);
#361=ORIENTED_EDGE('',*,*,#604,.F.);
#362=ORIENTED_EDGE('',*,*,#605,.T.);
#363=ORIENTED_EDGE('',*,*,#606,.T.);
#364=ORIENTED_EDGE('',*,*,#607,.F.);
#365=ORIENTED_EDGE('',*,*,#602,.T.);
#366=ORIENTED_EDGE('',*,*,#608,.T.);
#367=ORIENTED_EDGE('',*,*,#518,.F.);
#368=ORIENTED_EDGE('',*,*,#609,.F.);
#369=ORIENTED_EDGE('',*,*,#597,.F.);
#370=ORIENTED_EDGE('',*,*,#593,.T.);
#371=ORIENTED_EDGE('',*,*,#595,.F.);
#372=ORIENTED_EDGE('',*,*,#610,.F.);
#373=ORIENTED_EDGE('',*,*,#551,.F.);
#374=ORIENTED_EDGE('',*,*,#611,.F.);
#375=ORIENTED_EDGE('',*,*,#599,.F.);
#376=ORIENTED_EDGE('',*,*,#612,.F.);
#377=ORIENTED_EDGE('',*,*,#548,.F.);
#378=ORIENTED_EDGE('',*,*,#613,.T.);
#379=ORIENTED_EDGE('',*,*,#590,.F.);
#380=ORIENTED_EDGE('',*,*,#614,.F.);
#381=ORIENTED_EDGE('',*,*,#594,.F.);
#382=ORIENTED_EDGE('',*,*,#615,.F.);
#383=ORIENTED_EDGE('',*,*,#539,.F.);
#384=ORIENTED_EDGE('',*,*,#616,.F.);
#385=ORIENTED_EDGE('',*,*,#606,.F.);
#386=ORIENTED_EDGE('',*,*,#617,.F.);
#387=ORIENTED_EDGE('',*,*,#538,.F.);
#388=ORIENTED_EDGE('',*,*,#618,.T.);
#389=ORIENTED_EDGE('',*,*,#549,.F.);
#390=ORIENTED_EDGE('',*,*,#612,.T.);
#391=ORIENTED_EDGE('',*,*,#598,.F.);
#392=ORIENTED_EDGE('',*,*,#603,.T.);
#393=ORIENTED_EDGE('',*,*,#607,.T.);
#394=ORIENTED_EDGE('',*,*,#616,.T.);
#395=ORIENTED_EDGE('',*,*,#618,.F.);
#396=ORIENTED_EDGE('',*,*,#537,.F.);
#397=ORIENTED_EDGE('',*,*,#591,.F.);
#398=ORIENTED_EDGE('',*,*,#550,.F.);
#399=ORIENTED_EDGE('',*,*,#619,.T.);
#400=ORIENTED_EDGE('',*,*,#596,.F.);
#401=ORIENTED_EDGE('',*,*,#592,.F.);
#402=ORIENTED_EDGE('',*,*,#536,.F.);
#403=ORIENTED_EDGE('',*,*,#557,.F.);
#404=ORIENTED_EDGE('',*,*,#547,.T.);
#405=ORIENTED_EDGE('',*,*,#560,.T.);
#406=ORIENTED_EDGE('',*,*,#540,.T.);
#407=ORIENTED_EDGE('',*,*,#615,.T.);
#408=ORIENTED_EDGE('',*,*,#605,.F.);
#409=ORIENTED_EDGE('',*,*,#604,.T.);
#410=ORIENTED_EDGE('',*,*,#600,.T.);
#411=ORIENTED_EDGE('',*,*,#611,.T.);
#412=ORIENTED_EDGE('',*,*,#619,.F.);
#413=ORIENTED_EDGE('',*,*,#577,.T.);
#414=ORIENTED_EDGE('',*,*,#608,.F.);
#415=ORIENTED_EDGE('',*,*,#609,.T.);
#416=ORIENTED_EDGE('',*,*,#581,.T.);
#417=ORIENTED_EDGE('',*,*,#613,.F.);
#418=ORIENTED_EDGE('',*,*,#610,.T.);
#419=ORIENTED_EDGE('',*,*,#614,.T.);
#420=ORIENTED_EDGE('',*,*,#620,.F.);
#421=ORIENTED_EDGE('',*,*,#564,.F.);
#422=ORIENTED_EDGE('',*,*,#552,.F.);
#423=ORIENTED_EDGE('',*,*,#620,.T.);
#424=ORIENTED_EDGE('',*,*,#589,.F.);
#425=ORIENTED_EDGE('',*,*,#530,.T.);
#426=ORIENTED_EDGE('',*,*,#566,.T.);
#427=ORIENTED_EDGE('',*,*,#588,.F.);
#428=ORIENTED_EDGE('',*,*,#582,.T.);
#429=ORIENTED_EDGE('',*,*,#523,.T.);
#430=ORIENTED_EDGE('',*,*,#576,.T.);
#431=ORIENTED_EDGE('',*,*,#621,.F.);
#432=ORIENTED_EDGE('',*,*,#578,.T.);
#433=ORIENTED_EDGE('',*,*,#622,.T.);
#434=ORIENTED_EDGE('',*,*,#574,.T.);
#435=ORIENTED_EDGE('',*,*,#623,.F.);
#436=ORIENTED_EDGE('',*,*,#571,.F.);
#437=ORIENTED_EDGE('',*,*,#569,.T.);
#438=ORIENTED_EDGE('',*,*,#624,.T.);
#439=ORIENTED_EDGE('',*,*,#533,.F.);
#440=ORIENTED_EDGE('',*,*,#625,.F.);
#441=ORIENTED_EDGE('',*,*,#586,.T.);
#442=ORIENTED_EDGE('',*,*,#626,.T.);
#443=ORIENTED_EDGE('',*,*,#570,.T.);
#444=ORIENTED_EDGE('',*,*,#626,.F.);
#445=ORIENTED_EDGE('',*,*,#585,.T.);
#446=ORIENTED_EDGE('',*,*,#579,.F.);
#447=ORIENTED_EDGE('',*,*,#621,.T.);
#448=ORIENTED_EDGE('',*,*,#572,.T.);
#449=ORIENTED_EDGE('',*,*,#623,.T.);
#450=ORIENTED_EDGE('',*,*,#573,.F.);
#451=ORIENTED_EDGE('',*,*,#534,.F.);
#452=ORIENTED_EDGE('',*,*,#624,.F.);
#453=ORIENTED_EDGE('',*,*,#575,.T.);
#454=ORIENTED_EDGE('',*,*,#622,.F.);
#455=ORIENTED_EDGE('',*,*,#584,.T.);
#456=ORIENTED_EDGE('',*,*,#587,.F.);
#457=ORIENTED_EDGE('',*,*,#625,.T.);
#458=ORIENTED_EDGE('',*,*,#532,.T.);
#459=ORIENTED_EDGE('',*,*,#617,.T.);
#460=ORIENTED_EDGE('',*,*,#627,.F.);
#461=ORIENTED_EDGE('',*,*,#627,.T.);
#462=ORIENTED_EDGE('',*,*,#545,.F.);
#463=ORIENTED_EDGE('',*,*,#628,.T.);
#464=ORIENTED_EDGE('',*,*,#629,.T.);
#465=ORIENTED_EDGE('',*,*,#527,.F.);
#466=ORIENTED_EDGE('',*,*,#559,.F.);
#467=ORIENTED_EDGE('',*,*,#558,.T.);
#468=ORIENTED_EDGE('',*,*,#568,.T.);
#469=ORIENTED_EDGE('',*,*,#630,.F.);
#470=ORIENTED_EDGE('',*,*,#628,.F.);
#471=ORIENTED_EDGE('',*,*,#544,.T.);
#472=ORIENTED_EDGE('',*,*,#567,.T.);
#473=ORIENTED_EDGE('',*,*,#528,.F.);
#474=ORIENTED_EDGE('',*,*,#629,.F.);
#475=ORIENTED_EDGE('',*,*,#630,.T.);
#476=ORIENTED_EDGE('',*,*,#631,.T.);
#477=ORIENTED_EDGE('',*,*,#632,.T.);
#478=ORIENTED_EDGE('',*,*,#633,.F.);
#479=ORIENTED_EDGE('',*,*,#514,.F.);
#480=ORIENTED_EDGE('',*,*,#513,.T.);
#481=ORIENTED_EDGE('',*,*,#521,.T.);
#482=ORIENTED_EDGE('',*,*,#634,.F.);
#483=ORIENTED_EDGE('',*,*,#631,.F.);
#484=ORIENTED_EDGE('',*,*,#633,.T.);
#485=ORIENTED_EDGE('',*,*,#635,.T.);
#486=ORIENTED_EDGE('',*,*,#525,.F.);
#487=ORIENTED_EDGE('',*,*,#515,.F.);
#488=ORIENTED_EDGE('',*,*,#526,.T.);
#489=ORIENTED_EDGE('',*,*,#635,.F.);
#490=ORIENTED_EDGE('',*,*,#632,.F.);
#491=ORIENTED_EDGE('',*,*,#634,.T.);
#492=ORIENTED_EDGE('',*,*,#636,.T.);
#493=ORIENTED_EDGE('',*,*,#562,.T.);
#494=ORIENTED_EDGE('',*,*,#637,.F.);
#495=ORIENTED_EDGE('',*,*,#638,.F.);
#496=ORIENTED_EDGE('',*,*,#639,.T.);
#497=ORIENTED_EDGE('',*,*,#542,.T.);
#498=ORIENTED_EDGE('',*,*,#640,.T.);
#499=ORIENTED_EDGE('',*,*,#637,.T.);
#500=ORIENTED_EDGE('',*,*,#561,.F.);
#501=ORIENTED_EDGE('',*,*,#555,.T.);
#502=ORIENTED_EDGE('',*,*,#641,.T.);
#503=ORIENTED_EDGE('',*,*,#638,.T.);
#504=ORIENTED_EDGE('',*,*,#640,.F.);
#505=ORIENTED_EDGE('',*,*,#563,.T.);
#506=ORIENTED_EDGE('',*,*,#639,.F.);
#507=ORIENTED_EDGE('',*,*,#641,.F.);
#508=ORIENTED_EDGE('',*,*,#554,.F.);
#509=ORIENTED_EDGE('',*,*,#636,.F.);
#510=ORIENTED_EDGE('',*,*,#642,.F.);
#511=ORIENTED_EDGE('',*,*,#642,.T.);
#512=EDGE_CURVE('',#643,#643,#729,.T.);
#513=EDGE_CURVE('',#644,#645,#20,.T.);
#514=EDGE_CURVE('',#644,#646,#21,.T.);
#515=EDGE_CURVE('',#646,#647,#22,.T.);
#516=EDGE_CURVE('',#647,#648,#23,.T.);
#517=EDGE_CURVE('',#648,#649,#24,.T.);
#518=EDGE_CURVE('',#649,#650,#25,.T.);
#519=EDGE_CURVE('',#650,#651,#26,.T.);
#520=EDGE_CURVE('',#651,#645,#27,.T.);
#521=EDGE_CURVE('',#645,#652,#28,.T.);
#522=EDGE_CURVE('',#651,#653,#29,.T.);
#523=EDGE_CURVE('',#654,#653,#30,.T.);
#524=EDGE_CURVE('',#654,#648,#31,.F.);
#525=EDGE_CURVE('',#647,#655,#32,.T.);
#526=EDGE_CURVE('',#652,#655,#33,.T.);
#527=EDGE_CURVE('',#656,#657,#34,.T.);
#528=EDGE_CURVE('',#657,#658,#35,.T.);
#529=EDGE_CURVE('',#659,#658,#36,.T.);
#530=EDGE_CURVE('',#660,#659,#730,.T.);
#531=EDGE_CURVE('',#660,#661,#37,.T.);
#532=EDGE_CURVE('',#662,#661,#38,.T.);
#533=EDGE_CURVE('',#662,#663,#39,.T.);
#534=EDGE_CURVE('',#663,#664,#40,.T.);
#535=EDGE_CURVE('',#664,#665,#41,.T.);
#536=EDGE_CURVE('',#665,#666,#42,.T.);
#537=EDGE_CURVE('',#666,#667,#43,.T.);
#538=EDGE_CURVE('',#667,#668,#44,.T.);
#539=EDGE_CURVE('',#668,#669,#45,.T.);
#540=EDGE_CURVE('',#670,#669,#46,.T.);
#541=EDGE_CURVE('',#670,#656,#47,.T.);
#542=EDGE_CURVE('',#671,#672,#48,.T.);
#543=EDGE_CURVE('',#673,#671,#49,.T.);
#544=EDGE_CURVE('',#674,#673,#50,.T.);
#545=EDGE_CURVE('',#674,#675,#51,.T.);
#546=EDGE_CURVE('',#675,#676,#52,.T.);
#547=EDGE_CURVE('',#677,#676,#53,.T.);
#548=EDGE_CURVE('',#677,#678,#54,.T.);
#549=EDGE_CURVE('',#678,#679,#55,.T.);
#550=EDGE_CURVE('',#679,#680,#56,.T.);
#551=EDGE_CURVE('',#680,#681,#57,.T.);
#552=EDGE_CURVE('',#681,#682,#58,.T.);
#553=EDGE_CURVE('',#683,#682,#59,.T.);
#554=EDGE_CURVE('',#683,#684,#60,.T.);
#555=EDGE_CURVE('',#672,#684,#61,.T.);
#556=EDGE_CURVE('',#685,#685,#731,.T.);
#557=EDGE_CURVE('',#686,#686,#732,.T.);
#558=EDGE_CURVE('',#687,#687,#733,.F.);
#559=EDGE_CURVE('',#675,#656,#62,.F.);
#560=EDGE_CURVE('',#676,#670,#63,.F.);
#561=EDGE_CURVE('',#671,#688,#64,.T.);
#562=EDGE_CURVE('',#689,#688,#65,.T.);
#563=EDGE_CURVE('',#683,#689,#66,.T.);
#564=EDGE_CURVE('',#682,#690,#67,.T.);
#565=EDGE_CURVE('',#691,#690,#68,.T.);
#566=EDGE_CURVE('',#659,#691,#69,.F.);
#567=EDGE_CURVE('',#692,#658,#70,.T.);
#568=EDGE_CURVE('',#673,#692,#71,.T.);
#569=EDGE_CURVE('',#693,#694,#734,.F.);
#570=EDGE_CURVE('',#695,#693,#72,.F.);
#571=EDGE_CURVE('',#695,#696,#735,.F.);
#572=EDGE_CURVE('',#694,#696,#73,.T.);
#573=EDGE_CURVE('',#664,#697,#74,.T.);
#574=EDGE_CURVE('',#698,#697,#75,.T.);
#575=EDGE_CURVE('',#661,#698,#76,.T.);
#576=EDGE_CURVE('',#653,#660,#12,.T.);
#577=EDGE_CURVE('',#665,#650,#77,.T.);
#578=EDGE_CURVE('',#699,#700,#78,.F.);
#579=EDGE_CURVE('',#699,#701,#79,.F.);
#580=EDGE_CURVE('',#702,#701,#80,.T.);
#581=EDGE_CURVE('',#649,#702,#81,.F.);
#582=EDGE_CURVE('',#703,#654,#13,.F.);
#583=EDGE_CURVE('',#704,#703,#82,.T.);
#584=EDGE_CURVE('',#700,#704,#83,.F.);
#585=EDGE_CURVE('',#705,#701,#84,.T.);
#586=EDGE_CURVE('',#706,#705,#85,.T.);
#587=EDGE_CURVE('',#706,#704,#86,.T.);
#588=EDGE_CURVE('',#703,#691,#736,.T.);
#589=EDGE_CURVE('',#690,#707,#87,.T.);
#590=EDGE_CURVE('',#707,#702,#88,.T.);
#591=EDGE_CURVE('',#680,#666,#89,.F.);
#592=EDGE_CURVE('',#666,#708,#90,.F.);
#593=EDGE_CURVE('',#680,#708,#91,.T.);
#594=EDGE_CURVE('',#709,#710,#92,.T.);
#595=EDGE_CURVE('',#710,#708,#93,.T.);
#596=EDGE_CURVE('',#708,#711,#94,.T.);
#597=EDGE_CURVE('',#711,#709,#95,.T.);
#598=EDGE_CURVE('',#712,#713,#96,.T.);
#599=EDGE_CURVE('',#713,#714,#97,.T.);
#600=EDGE_CURVE('',#715,#714,#98,.T.);
#601=EDGE_CURVE('',#715,#712,#99,.F.);
#602=EDGE_CURVE('',#716,#717,#100,.T.);
#603=EDGE_CURVE('',#712,#716,#737,.T.);
#604=EDGE_CURVE('',#717,#715,#738,.T.);
#605=EDGE_CURVE('',#717,#718,#101,.T.);
#606=EDGE_CURVE('',#718,#719,#102,.T.);
#607=EDGE_CURVE('',#716,#719,#103,.T.);
#608=EDGE_CURVE('',#711,#650,#104,.F.);
#609=EDGE_CURVE('',#709,#649,#105,.T.);
#610=EDGE_CURVE('',#681,#710,#106,.F.);
#611=EDGE_CURVE('',#714,#677,#107,.T.);
#612=EDGE_CURVE('',#678,#713,#108,.T.);
#613=EDGE_CURVE('',#709,#702,#109,.F.);
#614=EDGE_CURVE('',#710,#707,#110,.T.);
#615=EDGE_CURVE('',#669,#718,#111,.T.);
#616=EDGE_CURVE('',#719,#668,#112,.T.);
#617=EDGE_CURVE('',#720,#720,#739,.T.);
#618=EDGE_CURVE('',#667,#679,#113,.F.);
#619=EDGE_CURVE('',#665,#711,#114,.T.);
#620=EDGE_CURVE('',#681,#707,#115,.F.);
#621=EDGE_CURVE('',#699,#695,#116,.T.);
#622=EDGE_CURVE('',#700,#698,#117,.T.);
#623=EDGE_CURVE('',#696,#697,#118,.T.);
#624=EDGE_CURVE('',#694,#663,#119,.T.);
#625=EDGE_CURVE('',#706,#662,#120,.T.);
#626=EDGE_CURVE('',#705,#693,#121,.T.);
#627=EDGE_CURVE('',#721,#721,#740,.T.);
#628=EDGE_CURVE('',#674,#722,#122,.T.);
#629=EDGE_CURVE('',#722,#657,#123,.T.);
#630=EDGE_CURVE('',#722,#692,#124,.T.);
#631=EDGE_CURVE('',#644,#723,#125,.T.);
#632=EDGE_CURVE('',#723,#724,#126,.T.);
#633=EDGE_CURVE('',#646,#724,#127,.T.);
#634=EDGE_CURVE('',#723,#652,#128,.T.);
#635=EDGE_CURVE('',#724,#655,#129,.T.);
#636=EDGE_CURVE('',#725,#725,#741,.F.);
#637=EDGE_CURVE('',#726,#688,#130,.T.);
#638=EDGE_CURVE('',#727,#726,#131,.T.);
#639=EDGE_CURVE('',#727,#689,#132,.T.);
#640=EDGE_CURVE('',#672,#726,#133,.T.);
#641=EDGE_CURVE('',#684,#727,#134,.T.);
#642=EDGE_CURVE('',#728,#728,#742,.T.);
#643=VERTEX_POINT('',#1290);
#644=VERTEX_POINT('',#1292);
#645=VERTEX_POINT('',#1293);
#646=VERTEX_POINT('',#1295);
#647=VERTEX_POINT('',#1297);
#648=VERTEX_POINT('',#1299);
#649=VERTEX_POINT('',#1301);
#650=VERTEX_POINT('',#1303);
#651=VERTEX_POINT('',#1305);
#652=VERTEX_POINT('',#1309);
#653=VERTEX_POINT('',#1311);
#654=VERTEX_POINT('',#1313);
#655=VERTEX_POINT('',#1316);
#656=VERTEX_POINT('',#1320);
#657=VERTEX_POINT('',#1321);
#658=VERTEX_POINT('',#1323);
#659=VERTEX_POINT('',#1325);
#660=VERTEX_POINT('',#1327);
#661=VERTEX_POINT('',#1329);
#662=VERTEX_POINT('',#1331);
#663=VERTEX_POINT('',#1333);
#664=VERTEX_POINT('',#1335);
#665=VERTEX_POINT('',#1337);
#666=VERTEX_POINT('',#1339);
#667=VERTEX_POINT('',#1341);
#668=VERTEX_POINT('',#1343);
#669=VERTEX_POINT('',#1345);
#670=VERTEX_POINT('',#1347);
#671=VERTEX_POINT('',#1351);
#672=VERTEX_POINT('',#1352);
#673=VERTEX_POINT('',#1354);
#674=VERTEX_POINT('',#1356);
#675=VERTEX_POINT('',#1358);
#676=VERTEX_POINT('',#1360);
#677=VERTEX_POINT('',#1362);
#678=VERTEX_POINT('',#1364);
#679=VERTEX_POINT('',#1366);
#680=VERTEX_POINT('',#1368);
#681=VERTEX_POINT('',#1370);
#682=VERTEX_POINT('',#1372);
#683=VERTEX_POINT('',#1374);
#684=VERTEX_POINT('',#1376);
#685=VERTEX_POINT('',#1379);
#686=VERTEX_POINT('',#1382);
#687=VERTEX_POINT('',#1384);
#688=VERTEX_POINT('',#1390);
#689=VERTEX_POINT('',#1392);
#690=VERTEX_POINT('',#1395);
#691=VERTEX_POINT('',#1397);
#692=VERTEX_POINT('',#1400);
#693=VERTEX_POINT('',#1404);
#694=VERTEX_POINT('',#1405);
#695=VERTEX_POINT('',#1407);
#696=VERTEX_POINT('',#1409);
#697=VERTEX_POINT('',#1413);
#698=VERTEX_POINT('',#1415);
#699=VERTEX_POINT('',#1421);
#700=VERTEX_POINT('',#1422);
#701=VERTEX_POINT('',#1424);
#702=VERTEX_POINT('',#1426);
#703=VERTEX_POINT('',#1429);
#704=VERTEX_POINT('',#1431);
#705=VERTEX_POINT('',#1435);
#706=VERTEX_POINT('',#1437);
#707=VERTEX_POINT('',#1441);
#708=VERTEX_POINT('',#1446);
#709=VERTEX_POINT('',#1450);
#710=VERTEX_POINT('',#1451);
#711=VERTEX_POINT('',#1454);
#712=VERTEX_POINT('',#1458);
#713=VERTEX_POINT('',#1459);
#714=VERTEX_POINT('',#1461);
#715=VERTEX_POINT('',#1463);
#716=VERTEX_POINT('',#1467);
#717=VERTEX_POINT('',#1468);
#718=VERTEX_POINT('',#1473);
#719=VERTEX_POINT('',#1475);
#720=VERTEX_POINT('',#1493);
#721=VERTEX_POINT('',#1518);
#722=VERTEX_POINT('',#1522);
#723=VERTEX_POINT('',#1529);
#724=VERTEX_POINT('',#1531);
#725=VERTEX_POINT('',#1540);
#726=VERTEX_POINT('',#1542);
#727=VERTEX_POINT('',#1544);
#728=VERTEX_POINT('',#1553);
#729=CIRCLE('',#973,0.0103);
#730=CIRCLE('',#976,0.0105);
#731=CIRCLE('',#978,0.0103);
#732=CIRCLE('',#980,0.0025);
#733=CIRCLE('',#981,0.0025);
#734=CIRCLE('',#985,0.0103);
#735=CIRCLE('',#986,0.0103);
#736=CIRCLE('',#992,0.0105);
#737=CIRCLE('',#997,0.005);
#738=CIRCLE('',#998,0.005);
#739=CIRCLE('',#1006,0.0025);
#740=CIRCLE('',#1021,0.0025);
#741=CIRCLE('',#1031,0.0016);
#742=CIRCLE('',#1036,0.0016);
#743=EDGE_LOOP('',(#250));
#744=EDGE_LOOP('',(#251,#252,#253,#254,#255,#256,#257,#258));
#745=EDGE_LOOP('',(#259,#260,#261,#262,#263,#264,#265,#266));
#746=EDGE_LOOP('',(#267,#268,#269,#270,#271,#272,#273,#274,#275,#276,#277,
#278,#279,#280,#281));
#747=EDGE_LOOP('',(#282,#283,#284,#285,#286,#287,#288,#289,#290,#291,#292,
#293,#294,#295));
#748=EDGE_LOOP('',(#296));
#749=EDGE_LOOP('',(#297));
#750=EDGE_LOOP('',(#298));
#751=EDGE_LOOP('',(#299,#300,#301,#302));
#752=EDGE_LOOP('',(#303,#304,#305,#306,#307,#308,#309,#310,#311,#312,#313));
#753=EDGE_LOOP('',(#314));
#754=EDGE_LOOP('',(#315));
#755=EDGE_LOOP('',(#316,#317,#318,#319));
#756=EDGE_LOOP('',(#320,#321,#322,#323,#324,#325,#326,#327,#328));
#757=EDGE_LOOP('',(#329,#330,#331,#332,#333,#334,#335,#336,#337));
#758=EDGE_LOOP('',(#338,#339,#340,#341,#342,#343,#344,#345,#346));
#759=EDGE_LOOP('',(#347,#348,#349));
#760=EDGE_LOOP('',(#350,#351,#352,#353));
#761=EDGE_LOOP('',(#354,#355,#356,#357));
#762=EDGE_LOOP('',(#358,#359,#360,#361));
#763=EDGE_LOOP('',(#362,#363,#364,#365));
#764=EDGE_LOOP('',(#366,#367,#368,#369));
#765=EDGE_LOOP('',(#370,#371,#372,#373));
#766=EDGE_LOOP('',(#374,#375,#376,#377));
#767=EDGE_LOOP('',(#378,#379,#380,#381));
#768=EDGE_LOOP('',(#382,#383,#384,#385));
#769=EDGE_LOOP('',(#386));
#770=EDGE_LOOP('',(#387,#388,#389,#390,#391,#392,#393,#394));
#771=EDGE_LOOP('',(#395,#396,#397,#398));
#772=EDGE_LOOP('',(#399,#400,#401,#402));
#773=EDGE_LOOP('',(#403));
#774=EDGE_LOOP('',(#404,#405,#406,#407,#408,#409,#410,#411));
#775=EDGE_LOOP('',(#412,#413,#414));
#776=EDGE_LOOP('',(#415,#416,#417));
#777=EDGE_LOOP('',(#418,#419,#420));
#778=EDGE_LOOP('',(#421,#422,#423,#424));
#779=EDGE_LOOP('',(#425,#426,#427,#428,#429,#430));
#780=EDGE_LOOP('',(#431,#432,#433,#434,#435,#436));
#781=EDGE_LOOP('',(#437,#438,#439,#440,#441,#442));
#782=EDGE_LOOP('',(#443,#444,#445,#446,#447));
#783=EDGE_LOOP('',(#448,#449,#450,#451,#452));
#784=EDGE_LOOP('',(#453,#454,#455,#456,#457,#458));
#785=EDGE_LOOP('',(#459));
#786=EDGE_LOOP('',(#460));
#787=EDGE_LOOP('',(#461));
#788=EDGE_LOOP('',(#462,#463,#464,#465,#466));
#789=EDGE_LOOP('',(#467));
#790=EDGE_LOOP('',(#468,#469,#470,#471));
#791=EDGE_LOOP('',(#472,#473,#474,#475));
#792=EDGE_LOOP('',(#476,#477,#478,#479));
#793=EDGE_LOOP('',(#480,#481,#482,#483));
#794=EDGE_LOOP('',(#484,#485,#486,#487));
#795=EDGE_LOOP('',(#488,#489,#490,#491));
#796=EDGE_LOOP('',(#492));
#797=EDGE_LOOP('',(#493,#494,#495,#496));
#798=EDGE_LOOP('',(#497,#498,#499,#500));
#799=EDGE_LOOP('',(#501,#502,#503,#504));
#800=EDGE_LOOP('',(#505,#506,#507,#508));
#801=EDGE_LOOP('',(#509));
#802=EDGE_LOOP('',(#510));
#803=EDGE_LOOP('',(#511));
#804=FACE_BOUND('',#743,.T.);
#805=FACE_BOUND('',#744,.T.);
#806=FACE_BOUND('',#745,.T.);
#807=FACE_BOUND('',#746,.T.);
#808=FACE_BOUND('',#747,.T.);
#809=FACE_BOUND('',#748,.T.);
#810=FACE_BOUND('',#749,.T.);
#811=FACE_BOUND('',#750,.T.);
#812=FACE_BOUND('',#751,.T.);
#813=FACE_BOUND('',#752,.T.);
#814=FACE_BOUND('',#753,.T.);
#815=FACE_BOUND('',#754,.T.);
#816=FACE_BOUND('',#755,.T.);
#817=FACE_BOUND('',#756,.T.);
#818=FACE_BOUND('',#757,.T.);
#819=FACE_BOUND('',#758,.T.);
#820=FACE_BOUND('',#759,.T.);
#821=FACE_BOUND('',#760,.T.);
#822=FACE_BOUND('',#761,.T.);
#823=FACE_BOUND('',#762,.T.);
#824=FACE_BOUND('',#763,.T.);
#825=FACE_BOUND('',#764,.T.);
#826=FACE_BOUND('',#765,.T.);
#827=FACE_BOUND('',#766,.T.);
#828=FACE_BOUND('',#767,.T.);
#829=FACE_BOUND('',#768,.T.);
#830=FACE_BOUND('',#769,.T.);
#831=FACE_BOUND('',#770,.T.);
#832=FACE_BOUND('',#771,.T.);
#833=FACE_BOUND('',#772,.T.);
#834=FACE_BOUND('',#773,.T.);
#835=FACE_BOUND('',#774,.T.);
#836=FACE_BOUND('',#775,.T.);
#837=FACE_BOUND('',#776,.T.);
#838=FACE_BOUND('',#777,.T.);
#839=FACE_BOUND('',#778,.T.);
#840=FACE_BOUND('',#779,.T.);
#841=FACE_BOUND('',#780,.T.);
#842=FACE_BOUND('',#781,.T.);
#843=FACE_BOUND('',#782,.T.);
#844=FACE_BOUND('',#783,.T.);
#845=FACE_BOUND('',#784,.T.);
#846=FACE_BOUND('',#785,.T.);
#847=FACE_BOUND('',#786,.T.);
#848=FACE_BOUND('',#787,.T.);
#849=FACE_BOUND('',#788,.T.);
#850=FACE_BOUND('',#789,.T.);
#851=FACE_BOUND('',#790,.T.);
#852=FACE_BOUND('',#791,.T.);
#853=FACE_BOUND('',#792,.T.);
#854=FACE_BOUND('',#793,.T.);
#855=FACE_BOUND('',#794,.T.);
#856=FACE_BOUND('',#795,.T.);
#857=FACE_BOUND('',#796,.T.);
#858=FACE_BOUND('',#797,.T.);
#859=FACE_BOUND('',#798,.T.);
#860=FACE_BOUND('',#799,.T.);
#861=FACE_BOUND('',#800,.T.);
#862=FACE_BOUND('',#801,.T.);
#863=FACE_BOUND('',#802,.T.);
#864=FACE_BOUND('',#803,.T.);
#865=PLANE('',#972);
#866=PLANE('',#974);
#867=PLANE('',#975);
#868=PLANE('',#977);
#869=PLANE('',#982);
#870=PLANE('',#983);
#871=PLANE('',#987);
#872=PLANE('',#989);
#873=PLANE('',#991);
#874=PLANE('',#993);
#875=PLANE('',#994);
#876=PLANE('',#995);
#877=PLANE('',#999);
#878=PLANE('',#1000);
#879=PLANE('',#1001);
#880=PLANE('',#1002);
#881=PLANE('',#1003);
#882=PLANE('',#1004);
#883=PLANE('',#1005);
#884=PLANE('',#1007);
#885=PLANE('',#1008);
#886=PLANE('',#1009);
#887=PLANE('',#1010);
#888=PLANE('',#1011);
#889=PLANE('',#1012);
#890=PLANE('',#1013);
#891=PLANE('',#1015);
#892=PLANE('',#1016);
#893=PLANE('',#1017);
#894=PLANE('',#1018);
#895=PLANE('',#1019);
#896=PLANE('',#1022);
#897=PLANE('',#1023);
#898=PLANE('',#1024);
#899=PLANE('',#1025);
#900=PLANE('',#1026);
#901=PLANE('',#1027);
#902=PLANE('',#1028);
#903=PLANE('',#1029);
#904=PLANE('',#1030);
#905=PLANE('',#1032);
#906=PLANE('',#1033);
#907=PLANE('',#1034);
#908=PLANE('',#1037);
#909=ADVANCED_FACE('',(#804,#805),#865,.F.);
#910=ADVANCED_FACE('',(#806),#866,.F.);
#911=ADVANCED_FACE('',(#807),#867,.T.);
#912=ADVANCED_FACE('',(#808,#809),#868,.T.);
#913=ADVANCED_FACE('',(#810,#811),#14,.F.);
#914=ADVANCED_FACE('',(#812),#869,.F.);
#915=ADVANCED_FACE('',(#813),#870,.F.);
#916=ADVANCED_FACE('',(#814,#815,#816),#15,.F.);
#917=ADVANCED_FACE('',(#817),#871,.T.);
#918=ADVANCED_FACE('',(#818),#872,.F.);
#919=ADVANCED_FACE('',(#819),#873,.F.);
#920=ADVANCED_FACE('',(#820),#874,.T.);
#921=ADVANCED_FACE('',(#821),#875,.T.);
#922=ADVANCED_FACE('',(#822),#876,.F.);
#923=ADVANCED_FACE('',(#823),#16,.F.);
#924=ADVANCED_FACE('',(#824),#877,.F.);
#925=ADVANCED_FACE('',(#825),#878,.T.);
#926=ADVANCED_FACE('',(#826),#879,.F.);
#927=ADVANCED_FACE('',(#827),#880,.T.);
#928=ADVANCED_FACE('',(#828),#881,.T.);
#929=ADVANCED_FACE('',(#829),#882,.T.);
#930=ADVANCED_FACE('',(#830,#831),#883,.T.);
#931=ADVANCED_FACE('',(#832),#884,.F.);
#932=ADVANCED_FACE('',(#833),#885,.F.);
#933=ADVANCED_FACE('',(#834,#835),#886,.T.);
#934=ADVANCED_FACE('',(#836),#887,.T.);
#935=ADVANCED_FACE('',(#837),#888,.T.);
#936=ADVANCED_FACE('',(#838),#889,.T.);
#937=ADVANCED_FACE('',(#839),#890,.T.);
#938=ADVANCED_FACE('',(#840),#17,.F.);
#939=ADVANCED_FACE('',(#841),#891,.F.);
#940=ADVANCED_FACE('',(#842),#892,.T.);
#941=ADVANCED_FACE('',(#843),#893,.T.);
#942=ADVANCED_FACE('',(#844),#894,.T.);
#943=ADVANCED_FACE('',(#845),#895,.F.);
#944=ADVANCED_FACE('',(#846,#847),#18,.F.);
#945=ADVANCED_FACE('',(#848),#896,.T.);
#946=ADVANCED_FACE('',(#849,#850),#897,.T.);
#947=ADVANCED_FACE('',(#851),#898,.F.);
#948=ADVANCED_FACE('',(#852),#899,.F.);
#949=ADVANCED_FACE('',(#853),#900,.F.);
#950=ADVANCED_FACE('',(#854),#901,.T.);
#951=ADVANCED_FACE('',(#855),#902,.F.);
#952=ADVANCED_FACE('',(#856),#903,.T.);
#953=ADVANCED_FACE('',(#857,#858),#904,.T.);
#954=ADVANCED_FACE('',(#859),#905,.F.);
#955=ADVANCED_FACE('',(#860),#906,.F.);
#956=ADVANCED_FACE('',(#861),#907,.T.);
#957=ADVANCED_FACE('',(#862,#863),#19,.F.);
#958=ADVANCED_FACE('',(#864),#908,.T.);
#959=CLOSED_SHELL('',(#909,#910,#911,#912,#913,#914,#915,#916,#917,#918,
#919,#920,#921,#922,#923,#924,#925,#926,#927,#928,#929,#930,#931,#932,#933,
#934,#935,#936,#937,#938,#939,#940,#941,#942,#943,#944,#945,#946,#947,#948,
#949,#950,#951,#952,#953,#954,#955,#956,#957,#958));
#960=STYLED_ITEM('',(#961),#968);
#961=PRESENTATION_STYLE_ASSIGNMENT((#962));
#962=SURFACE_STYLE_USAGE(.BOTH.,#963);
#963=SURFACE_SIDE_STYLE('',(#964));
#964=SURFACE_STYLE_FILL_AREA(#965);
#965=FILL_AREA_STYLE('',(#966));
#966=FILL_AREA_STYLE_COLOUR('',#967);
#967=COLOUR_RGB('',0.866666666666667,0.32156862745098,0.156862745098039);
#968=MANIFOLD_SOLID_BREP('XY1_TOP',#959);
#969=SHAPE_DEFINITION_REPRESENTATION(#1561,#970);
#970=SHAPE_REPRESENTATION('XY1_TOP',(#971),#1556);
#971=AXIS2_PLACEMENT_3D('',#1287,#1038,#1039);
#972=AXIS2_PLACEMENT_3D('',#1288,#1040,#1041);
#973=AXIS2_PLACEMENT_3D('',#1289,#1042,#1043);
#974=AXIS2_PLACEMENT_3D('',#1307,#1052,#1053);
#975=AXIS2_PLACEMENT_3D('',#1318,#1060,#1061);
#976=AXIS2_PLACEMENT_3D('',#1326,#1065,#1066);
#977=AXIS2_PLACEMENT_3D('',#1349,#1078,#1079);
#978=AXIS2_PLACEMENT_3D('',#1378,#1094,#1095);
#979=AXIS2_PLACEMENT_3D('',#1380,#1096,#1097);
#980=AXIS2_PLACEMENT_3D('',#1381,#1098,#1099);
#981=AXIS2_PLACEMENT_3D('',#1383,#1100,#1101);
#982=AXIS2_PLACEMENT_3D('',#1385,#1102,#1103);
#983=AXIS2_PLACEMENT_3D('',#1388,#1106,#1107);
#984=AXIS2_PLACEMENT_3D('',#1402,#1116,#1117);
#985=AXIS2_PLACEMENT_3D('',#1403,#1118,#1119);
#986=AXIS2_PLACEMENT_3D('',#1408,#1121,#1122);
#987=AXIS2_PLACEMENT_3D('',#1411,#1124,#1125);
#988=AXIS2_PLACEMENT_3D('',#1417,#1129,#1130);
#989=AXIS2_PLACEMENT_3D('',#1419,#1132,#1133);
#990=AXIS2_PLACEMENT_3D('',#1428,#1138,#1139);
#991=AXIS2_PLACEMENT_3D('',#1433,#1142,#1143);
#992=AXIS2_PLACEMENT_3D('',#1439,#1147,#1148);
#993=AXIS2_PLACEMENT_3D('',#1443,#1151,#1152);
#994=AXIS2_PLACEMENT_3D('',#1448,#1156,#1157);
#995=AXIS2_PLACEMENT_3D('',#1456,#1162,#1163);
#996=AXIS2_PLACEMENT_3D('',#1465,#1168,#1169);
#997=AXIS2_PLACEMENT_3D('',#1469,#1171,#1172);
#998=AXIS2_PLACEMENT_3D('',#1470,#1173,#1174);
#999=AXIS2_PLACEMENT_3D('',#1471,#1175,#1176);
#1000=AXIS2_PLACEMENT_3D('',#1477,#1180,#1181);
#1001=AXIS2_PLACEMENT_3D('',#1480,#1184,#1185);
#1002=AXIS2_PLACEMENT_3D('',#1482,#1187,#1188);
#1003=AXIS2_PLACEMENT_3D('',#1485,#1191,#1192);
#1004=AXIS2_PLACEMENT_3D('',#1488,#1195,#1196);
#1005=AXIS2_PLACEMENT_3D('',#1491,#1199,#1200);
#1006=AXIS2_PLACEMENT_3D('',#1492,#1201,#1202);
#1007=AXIS2_PLACEMENT_3D('',#1495,#1204,#1205);
#1008=AXIS2_PLACEMENT_3D('',#1496,#1206,#1207);
#1009=AXIS2_PLACEMENT_3D('',#1498,#1209,#1210);
#1010=AXIS2_PLACEMENT_3D('',#1499,#1211,#1212);
#1011=AXIS2_PLACEMENT_3D('',#1500,#1213,#1214);
#1012=AXIS2_PLACEMENT_3D('',#1501,#1215,#1216);
#1013=AXIS2_PLACEMENT_3D('',#1503,#1218,#1219);
#1014=AXIS2_PLACEMENT_3D('',#1504,#1220,#1221);
#1015=AXIS2_PLACEMENT_3D('',#1505,#1222,#1223);
#1016=AXIS2_PLACEMENT_3D('',#1509,#1227,#1228);
#1017=AXIS2_PLACEMENT_3D('',#1513,#1232,#1233);
#1018=AXIS2_PLACEMENT_3D('',#1514,#1234,#1235);
#1019=AXIS2_PLACEMENT_3D('',#1515,#1236,#1237);
#1020=AXIS2_PLACEMENT_3D('',#1516,#1238,#1239);
#1021=AXIS2_PLACEMENT_3D('',#1517,#1240,#1241);
#1022=AXIS2_PLACEMENT_3D('',#1519,#1242,#1243);
#1023=AXIS2_PLACEMENT_3D('',#1520,#1244,#1245);
#1024=AXIS2_PLACEMENT_3D('',#1524,#1248,#1249);
#1025=AXIS2_PLACEMENT_3D('',#1526,#1251,#1252);
#1026=AXIS2_PLACEMENT_3D('',#1527,#1253,#1254);
#1027=AXIS2_PLACEMENT_3D('',#1533,#1258,#1259);
#1028=AXIS2_PLACEMENT_3D('',#1535,#1261,#1262);
#1029=AXIS2_PLACEMENT_3D('',#1537,#1264,#1265);
#1030=AXIS2_PLACEMENT_3D('',#1538,#1266,#1267);
#1031=AXIS2_PLACEMENT_3D('',#1539,#1268,#1269);
#1032=AXIS2_PLACEMENT_3D('',#1546,#1273,#1274);
#1033=AXIS2_PLACEMENT_3D('',#1548,#1276,#1277);
#1034=AXIS2_PLACEMENT_3D('',#1550,#1279,#1280);
#1035=AXIS2_PLACEMENT_3D('',#1551,#1281,#1282);
#1036=AXIS2_PLACEMENT_3D('',#1552,#1283,#1284);
#1037=AXIS2_PLACEMENT_3D('',#1554,#1285,#1286);
#1038=DIRECTION('',(0.,0.,1.));
#1039=DIRECTION('',(1.,0.,0.));
#1040=DIRECTION('',(-1.,0.,-4.62592926927149E-16));
#1041=DIRECTION('',(-4.62592926927149E-16,0.,1.));
#1042=DIRECTION('',(1.,0.,4.62592926927149E-16));
#1043=DIRECTION('',(4.62592926927149E-16,0.,-1.));
#1044=DIRECTION('',(4.62592926927149E-16,0.,-1.));
#1045=DIRECTION('',(0.,1.,0.));
#1046=DIRECTION('',(4.62592926927149E-16,0.,-1.));
#1047=DIRECTION('',(2.83256473634769E-32,1.,-6.12323399573677E-17));
#1048=DIRECTION('',(-4.62592926927149E-16,0.,1.));
#1049=DIRECTION('',(0.,-1.,0.));
#1050=DIRECTION('',(4.62592926927149E-16,0.,-1.));
#1051=DIRECTION('',(2.83256473634769E-32,1.,-6.12323399573677E-17));
#1052=DIRECTION('',(0.,6.12323399573677E-17,1.));
#1053=DIRECTION('',(1.,0.,0.));
#1054=DIRECTION('',(-1.,0.,0.));
#1055=DIRECTION('',(-0.707106781186548,-0.707106781186547,4.32978028117746E-17));
#1056=DIRECTION('',(0.,-1.,0.));
#1057=DIRECTION('',(-0.707106781186548,0.707106781186547,-4.32978028117746E-17));
#1058=DIRECTION('',(-1.,0.,0.));
#1059=DIRECTION('',(2.83256473634769E-32,1.,-6.12323399573677E-17));
#1060=DIRECTION('',(0.,-1.,0.));
#1061=DIRECTION('',(1.,0.,0.));
#1062=DIRECTION('',(1.,0.,0.));
#1063=DIRECTION('',(0.,-6.12323399573677E-17,-1.));
#1064=DIRECTION('',(-1.,0.,0.));
#1065=DIRECTION('',(0.,-1.,0.));
#1066=DIRECTION('',(0.,0.,-1.));
#1067=DIRECTION('',(-4.62592926927149E-16,0.,1.));
#1068=DIRECTION('',(1.,0.,0.));
#1069=DIRECTION('',(0.,0.,1.));
#1070=DIRECTION('',(1.,0.,0.));
#1071=DIRECTION('',(-4.62592926927149E-16,0.,1.));
#1072=DIRECTION('',(-1.,0.,0.));
#1073=DIRECTION('',(4.62592926927149E-16,0.,-1.));
#1074=DIRECTION('',(1.,0.,0.));
#1075=DIRECTION('',(0.,0.,-1.));
#1076=DIRECTION('',(1.,0.,0.));
#1077=DIRECTION('',(4.62592926927149E-16,0.,-1.));
#1078=DIRECTION('',(-1.,0.,-4.62592926927149E-16));
#1079=DIRECTION('',(-4.62592926927149E-16,0.,1.));
#1080=DIRECTION('',(-4.62592926927149E-16,0.,1.));
#1081=DIRECTION('',(2.83256473634769E-32,1.,-6.12323399573677E-17));
#1082=DIRECTION('',(0.,-6.12323399573677E-17,-1.));
#1083=DIRECTION('',(0.,-1.,6.12323399573677E-17));
#1084=DIRECTION('',(-4.62592926927149E-16,0.,1.));
#1085=DIRECTION('',(0.,-1.,0.));
#1086=DIRECTION('',(-4.62592926927149E-16,0.,1.));
#1087=DIRECTION('',(0.,-1.,0.));
#1088=DIRECTION('',(-4.62592926927149E-16,0.,1.));
#1089=DIRECTION('',(0.,1.,0.));
#1090=DIRECTION('',(4.62592926927149E-16,0.,-1.));
#1091=DIRECTION('',(2.83256473634769E-32,1.,-6.12323399573677E-17));
#1092=DIRECTION('',(-4.62592926927149E-16,0.,1.));
#1093=DIRECTION('',(0.,1.,0.));
#1094=DIRECTION('',(-1.,0.,-4.62592926927149E-16));
#1095=DIRECTION('',(-4.62592926927149E-16,0.,1.));
#1096=DIRECTION('',(0.,0.,1.));
#1097=DIRECTION('',(1.,0.,0.));
#1098=DIRECTION('',(0.,0.,1.));
#1099=DIRECTION('',(1.,0.,0.));
#1100=DIRECTION('',(0.,-6.12323399573677E-17,-1.));
#1101=DIRECTION('',(0.,1.,-6.12323399573677E-17));
#1102=DIRECTION('',(0.707106781186547,0.707106781186548,3.2710259555912E-16));
#1103=DIRECTION('',(4.62592926927149E-16,0.,-1.));
#1104=DIRECTION('',(-0.707106781186548,0.707106781186547,-4.32978028117746E-17));
#1105=DIRECTION('',(-0.707106781186548,0.707106781186547,0.));
#1106=DIRECTION('',(0.,6.12323399573677E-17,1.));
#1107=DIRECTION('',(1.,0.,0.));
#1108=DIRECTION('',(1.,0.,0.));
#1109=DIRECTION('',(-2.83256473634769E-32,-1.,6.12323399573677E-17));
#1110=DIRECTION('',(1.,0.,0.));
#1111=DIRECTION('',(0.707106781186548,0.707106781186547,-4.32978028117746E-17));
#1112=DIRECTION('',(-1.,0.,0.));
#1113=DIRECTION('',(0.,-1.,0.));
#1114=DIRECTION('',(0.,-1.,6.12323399573677E-17));
#1115=DIRECTION('',(1.,0.,0.));
#1116=DIRECTION('',(1.,0.,4.62592926927149E-16));
#1117=DIRECTION('',(4.62592926927149E-16,0.,-1.));
#1118=DIRECTION('',(1.,0.,0.));
#1119=DIRECTION('',(0.,0.,-1.));
#1120=DIRECTION('',(1.,0.,4.62592926927149E-16));
#1121=DIRECTION('',(1.,0.,0.));
#1122=DIRECTION('',(0.,0.,-1.));
#1123=DIRECTION('',(1.,0.,4.62592926927149E-16));
#1124=DIRECTION('',(0.707106781186547,-0.707106781186548,3.2710259555912E-16));
#1125=DIRECTION('',(-4.62592926927149E-16,0.,1.));
#1126=DIRECTION('',(0.707106781186548,0.707106781186547,0.));
#1127=DIRECTION('',(0.,4.62592926927148E-16,1.));
#1128=DIRECTION('',(0.707106781186548,0.707106781186547,0.));
#1129=DIRECTION('',(0.707106781186547,-0.707106781186548,3.2710259555912E-16));
#1130=DIRECTION('',(-0.707106781186548,-0.707106781186547,-3.2710259555912E-16));
#1131=DIRECTION('',(0.707106781186548,0.707106781186547,0.));
#1132=DIRECTION('',(-0.707106781186547,-0.707106781186548,-3.2710259555912E-16));
#1133=DIRECTION('',(4.62592926927149E-16,0.,-1.));
#1134=DIRECTION('',(0.,-4.62592926927148E-16,1.));
#1135=DIRECTION('',(0.707106781186548,-0.707106781186547,0.));
#1136=DIRECTION('',(4.62592926927149E-16,0.,-1.));
#1137=DIRECTION('',(0.707106781186548,-0.707106781186547,0.));
#1138=DIRECTION('',(-0.707106781186547,-0.707106781186548,-3.2710259555912E-16));
#1139=DIRECTION('',(0.707106781186548,-0.707106781186547,3.2710259555912E-16));
#1140=DIRECTION('',(4.62592926927149E-16,0.,-1.));
#1141=DIRECTION('',(0.707106781186548,-0.707106781186547,0.));
#1142=DIRECTION('',(0.,-1.,0.));
#1143=DIRECTION('',(1.,0.,0.));
#1144=DIRECTION('',(1.,0.,0.));
#1145=DIRECTION('',(0.,0.,1.));
#1146=DIRECTION('',(1.,0.,0.));
#1147=DIRECTION('',(0.,-1.,0.));
#1148=DIRECTION('',(0.,0.,-1.));
#1149=DIRECTION('',(-4.62592926927149E-16,0.,1.));
#1150=DIRECTION('',(1.,0.,0.));
#1151=DIRECTION('',(-0.577350269189625,-0.577350269189629,0.577350269189625));
#1152=DIRECTION('',(0.,-0.707106781186545,-0.70710678118655));
#1153=DIRECTION('',(-0.707106781186548,0.707106781186547,3.9603166342744E-15));
#1154=DIRECTION('',(3.94207350708631E-15,-0.707106781186547,-0.707106781186548));
#1155=DIRECTION('',(0.707106781186548,0.,0.707106781186548));
#1156=DIRECTION('',(0.,0.,1.));
#1157=DIRECTION('',(1.,0.,0.));
#1158=DIRECTION('',(-1.,0.,0.));
#1159=DIRECTION('',(0.,-1.,0.));
#1160=DIRECTION('',(1.,0.,0.));
#1161=DIRECTION('',(0.,1.,0.));
#1162=DIRECTION('',(0.,1.,0.));
#1163=DIRECTION('',(0.,0.,1.));
#1164=DIRECTION('',(-1.,0.,0.));
#1165=DIRECTION('',(4.62592926927149E-16,0.,-1.));
#1166=DIRECTION('',(-1.,0.,0.));
#1167=DIRECTION('',(0.,0.,-1.));
#1168=DIRECTION('',(0.,0.,1.));
#1169=DIRECTION('',(1.,0.,0.));
#1170=DIRECTION('',(0.,0.,-1.));
#1171=DIRECTION('',(0.,0.,-1.));
#1172=DIRECTION('',(-1.,0.,0.));
#1173=DIRECTION('',(0.,0.,1.));
#1174=DIRECTION('',(1.,0.,0.));
#1175=DIRECTION('',(1.,0.,0.));
#1176=DIRECTION('',(0.,0.,-1.));
#1177=DIRECTION('',(0.,-1.,0.));
#1178=DIRECTION('',(0.,0.,1.));
#1179=DIRECTION('',(0.,-1.,0.));
#1180=DIRECTION('',(0.70710678118655,0.,0.707106781186546));
#1181=DIRECTION('',(0.,1.,0.));
#1182=DIRECTION('',(-0.707106781186546,-6.8392558703549E-17,0.70710678118655));
#1183=DIRECTION('',(0.707106781186546,-6.8392558703549E-17,-0.70710678118655));
#1184=DIRECTION('',(0.707106781186548,0.,-0.707106781186548));
#1185=DIRECTION('',(0.,-1.,0.));
#1186=DIRECTION('',(-0.707106781186548,0.,-0.707106781186548));
#1187=DIRECTION('',(-0.707106781186564,-0.707106781186531,-3.27102595559128E-16));
#1188=DIRECTION('',(4.62592926927149E-16,0.,-1.));
#1189=DIRECTION('',(-0.707106781186531,0.707106781186564,0.));
#1190=DIRECTION('',(0.707106781186531,-0.707106781186564,0.));
#1191=DIRECTION('',(0.,0.707106781186548,0.707106781186547));
#1192=DIRECTION('',(1.,0.,0.));
#1193=DIRECTION('',(3.9420735070863E-15,-0.707106781186547,0.707106781186548));
#1194=DIRECTION('',(-1.23903709934807E-16,0.707106781186547,-0.707106781186548));
#1195=DIRECTION('',(-0.707106781186548,-0.707106781186548,0.));
#1196=DIRECTION('',(0.,0.,-1.));
#1197=DIRECTION('',(-0.707106781186548,0.707106781186548,0.));
#1198=DIRECTION('',(0.707106781186548,-0.707106781186548,0.));
#1199=DIRECTION('',(0.,0.,-1.));
#1200=DIRECTION('',(-1.,0.,0.));
#1201=DIRECTION('',(0.,0.,-1.));
#1202=DIRECTION('',(-1.,0.,0.));
#1203=DIRECTION('',(0.707106781186548,-0.707106781186547,0.));
#1204=DIRECTION('',(0.707106781186547,0.707106781186548,3.2710259555912E-16));
#1205=DIRECTION('',(4.62592926927149E-16,0.,-1.));
#1206=DIRECTION('',(0.,0.707106781186548,-0.707106781186547));
#1207=DIRECTION('',(-1.,0.,0.));
#1208=DIRECTION('',(3.9420735070863E-15,0.707106781186547,0.707106781186548));
#1209=DIRECTION('',(0.,0.,1.));
#1210=DIRECTION('',(1.,0.,0.));
#1211=DIRECTION('',(0.577350269189627,-0.577350269189627,0.577350269189623));
#1212=DIRECTION('',(0.707106781186548,0.707106781186547,0.));
#1213=DIRECTION('',(0.577350269189627,0.577350269189627,0.577350269189623));
#1214=DIRECTION('',(-0.707106781186548,0.707106781186547,0.));
#1215=DIRECTION('',(-0.577350269189626,0.577350269189626,0.577350269189626));
#1216=DIRECTION('',(0.,-0.707106781186547,0.707106781186548));
#1217=DIRECTION('',(-0.707106781186548,-0.707106781186547,-9.18543318284144E-17));
#1218=DIRECTION('',(-0.707106781186547,0.707106781186548,-3.2710259555912E-16));
#1219=DIRECTION('',(-4.62592926927149E-16,0.,1.));
#1220=DIRECTION('',(0.,-1.,0.));
#1221=DIRECTION('',(0.,0.,-1.));
#1222=DIRECTION('',(1.,0.,0.));
#1223=DIRECTION('',(0.,0.,-1.));
#1224=DIRECTION('',(0.,-1.,0.));
#1225=DIRECTION('',(0.,-1.,0.));
#1226=DIRECTION('',(0.,-1.,0.));
#1227=DIRECTION('',(1.,0.,0.));
#1228=DIRECTION('',(0.,0.,-1.));
#1229=DIRECTION('',(0.,-1.,0.));
#1230=DIRECTION('',(0.,-1.,0.));
#1231=DIRECTION('',(0.,-1.,0.));
#1232=DIRECTION('',(0.,0.,-1.));
#1233=DIRECTION('',(-1.,0.,0.));
#1234=DIRECTION('',(0.,0.,-1.));
#1235=DIRECTION('',(-1.,0.,0.));
#1236=DIRECTION('',(0.,0.,-1.));
#1237=DIRECTION('',(-1.,0.,0.));
#1238=DIRECTION('',(0.,-6.12323399573677E-17,-1.));
#1239=DIRECTION('',(0.,1.,-6.12323399573677E-17));
#1240=DIRECTION('',(0.,-6.12323399573677E-17,-1.));
#1241=DIRECTION('',(0.,1.,-6.12323399573677E-17));
#1242=DIRECTION('',(0.,-6.12323399573677E-17,-1.));
#1243=DIRECTION('',(1.,0.,0.));
#1244=DIRECTION('',(0.,-6.12323399573677E-17,-1.));
#1245=DIRECTION('',(1.,0.,0.));
#1246=DIRECTION('',(1.,0.,0.));
#1247=DIRECTION('',(0.,-1.,6.12323399573677E-17));
#1248=DIRECTION('',(0.,1.,-6.12323399573677E-17));
#1249=DIRECTION('',(0.,6.12323399573677E-17,1.));
#1250=DIRECTION('',(0.,-6.12323399573677E-17,-1.));
#1251=DIRECTION('',(1.,0.,0.));
#1252=DIRECTION('',(0.,0.,-1.));
#1253=DIRECTION('',(-4.62592926927148E-16,0.,1.));
#1254=DIRECTION('',(1.,0.,4.62592926927148E-16));
#1255=DIRECTION('',(-1.,0.,-4.62592926927148E-16));
#1256=DIRECTION('',(0.,1.,0.));
#1257=DIRECTION('',(-1.,0.,-4.62592926927148E-16));
#1258=DIRECTION('',(0.,1.,0.));
#1259=DIRECTION('',(0.,0.,1.));
#1260=DIRECTION('',(4.62592926927149E-16,0.,-1.));
#1261=DIRECTION('',(0.,1.,0.));
#1262=DIRECTION('',(0.,0.,1.));
#1263=DIRECTION('',(4.62592926927149E-16,0.,-1.));
#1264=DIRECTION('',(1.,0.,4.62592926927149E-16));
#1265=DIRECTION('',(0.,1.,0.));
#1266=DIRECTION('',(-1.,0.,-4.62592926927149E-16));
#1267=DIRECTION('',(0.,-1.,0.));
#1268=DIRECTION('',(-1.,0.,-4.62592926927149E-16));
#1269=DIRECTION('',(-4.62592926927149E-16,0.,1.));
#1270=DIRECTION('',(4.62592926927149E-16,0.,-1.));
#1271=DIRECTION('',(0.,-1.,0.));
#1272=DIRECTION('',(4.62592926927149E-16,0.,-1.));
#1273=DIRECTION('',(0.,-1.,0.));
#1274=DIRECTION('',(0.,0.,-1.));
#1275=DIRECTION('',(1.,0.,0.));
#1276=DIRECTION('',(0.,0.,1.));
#1277=DIRECTION('',(1.,0.,0.));
#1278=DIRECTION('',(1.,0.,0.));
#1279=DIRECTION('',(0.,-1.,0.));
#1280=DIRECTION('',(0.,0.,-1.));
#1281=DIRECTION('',(1.,0.,0.));
#1282=DIRECTION('',(0.,0.,-1.));
#1283=DIRECTION('',(-1.,0.,-4.62592926927149E-16));
#1284=DIRECTION('',(-4.62592926927149E-16,0.,1.));
#1285=DIRECTION('',(-1.,0.,-4.62592926927149E-16));
#1286=DIRECTION('',(0.,-1.,0.));
#1287=CARTESIAN_POINT('',(0.,0.,0.));
#1288=CARTESIAN_POINT('',(0.1625,0.045,0.400052546262741));
#1289=CARTESIAN_POINT('',(0.1625,0.022,0.4367));
#1290=CARTESIAN_POINT('',(0.1625,0.022,0.4264));
#1291=CARTESIAN_POINT('',(0.1625,0.0175,0.400052546262741));
#1292=CARTESIAN_POINT('',(0.1625,0.0175,0.412950115781006));
#1293=CARTESIAN_POINT('',(0.1625,0.0175,0.400450115781006));
#1294=CARTESIAN_POINT('',(0.1625,0.045,0.412950115781006));
#1295=CARTESIAN_POINT('',(0.1625,0.0275,0.412950115781006));
#1296=CARTESIAN_POINT('',(0.1625,0.0275,0.400052546262741));
#1297=CARTESIAN_POINT('',(0.1625,0.0275,0.400450115781006));
#1298=CARTESIAN_POINT('',(0.1625,0.045,0.400450115781006));
#1299=CARTESIAN_POINT('',(0.1625,0.04,0.400450115781006));
#1300=CARTESIAN_POINT('',(0.1625,0.04,0.400052546262741));
#1301=CARTESIAN_POINT('',(0.1625,0.04,0.455052546262741));
#1302=CARTESIAN_POINT('',(0.1625,0.,0.455052546262741));
#1303=CARTESIAN_POINT('',(0.1625,0.005,0.455052546262741));
#1304=CARTESIAN_POINT('',(0.1625,0.005,0.378052546262741));
#1305=CARTESIAN_POINT('',(0.1625,0.005,0.400450115781006));
#1306=CARTESIAN_POINT('',(0.1625,0.045,0.400450115781006));
#1307=CARTESIAN_POINT('',(0.1625,0.0225,0.400450115781006));
#1308=CARTESIAN_POINT('',(0.1625,0.0175,0.400450115781006));
#1309=CARTESIAN_POINT('',(0.16,0.0175,0.400450115781006));
#1310=CARTESIAN_POINT('',(0.1625,0.005,0.400450115781006));
#1311=CARTESIAN_POINT('',(0.157805994965578,0.000305994965578704,0.400450115781006));
#1312=CARTESIAN_POINT('',(0.157805994965578,0.850868496704852,0.400450115781006));
#1313=CARTESIAN_POINT('',(0.157805994965578,0.0446940050344213,0.400450115781006));
#1314=CARTESIAN_POINT('',(0.1575,0.045,0.400450115781006));
#1315=CARTESIAN_POINT('',(0.1625,0.0275,0.400450115781006));
#1316=CARTESIAN_POINT('',(0.16,0.0275,0.400450115781006));
#1317=CARTESIAN_POINT('',(0.16,0.0225,0.400450115781006));
#1318=CARTESIAN_POINT('',(-0.04,0.,0.400052546262741));
#1319=CARTESIAN_POINT('',(0.1285,6.12323399573677E-19,0.410450115781006));
#1320=CARTESIAN_POINT('',(0.1275,0.,0.410450115781006));
#1321=CARTESIAN_POINT('',(0.1345,6.12323399573677E-19,0.410450115781006));
#1322=CARTESIAN_POINT('',(0.1345,6.12323399573677E-19,0.410450115781006));
#1323=CARTESIAN_POINT('',(0.1345,8.436148777473E-35,0.400450115781006));
#1324=CARTESIAN_POINT('',(-0.04,0.,0.400450115781006));
#1325=CARTESIAN_POINT('',(0.136821053843131,0.,0.400450115781006));
#1326=CARTESIAN_POINT('',(0.147313524404355,0.,0.400052546262741));
#1327=CARTESIAN_POINT('',(0.1575,0.,0.402599252947723));
#1328=CARTESIAN_POINT('',(0.1575,0.,0.460052546262741));
#1329=CARTESIAN_POINT('',(0.1575,0.,0.413006029657602));
#1330=CARTESIAN_POINT('',(-0.04,0.,0.413006029657602));
#1331=CARTESIAN_POINT('',(0.154813524404355,0.,0.413006029657602));
#1332=CARTESIAN_POINT('',(0.154813524404355,0.,0.400052546262741));
#1333=CARTESIAN_POINT('',(0.154813524404355,0.,0.427006029657602));
#1334=CARTESIAN_POINT('',(-0.04,0.,0.427006029657602));
#1335=CARTESIAN_POINT('',(0.1575,0.,0.427006029657602));
#1336=CARTESIAN_POINT('',(0.1575,0.,0.460052546262741));
#1337=CARTESIAN_POINT('',(0.1575,0.,0.455052546262741));
#1338=CARTESIAN_POINT('',(-0.04,0.,0.455052546262741));
#1339=CARTESIAN_POINT('',(0.1275,0.,0.455052546262741));
#1340=CARTESIAN_POINT('',(0.1275,0.,0.400052546262741));
#1341=CARTESIAN_POINT('',(0.1275,0.,0.425052546262741));
#1342=CARTESIAN_POINT('',(0.13,0.,0.425052546262741));
#1343=CARTESIAN_POINT('',(0.1425,0.,0.425052546262741));
#1344=CARTESIAN_POINT('',(0.1425,0.,0.415052546262741));
#1345=CARTESIAN_POINT('',(0.1425,0.,0.415052546262741));
#1346=CARTESIAN_POINT('',(0.13,0.,0.415052546262741));
#1347=CARTESIAN_POINT('',(0.1275,0.,0.415052546262741));
#1348=CARTESIAN_POINT('',(0.1275,0.,0.400052546262741));
#1349=CARTESIAN_POINT('',(0.1225,0.045,0.400052546262741));
#1350=CARTESIAN_POINT('',(0.1225,0.02,0.400052546262741));
#1351=CARTESIAN_POINT('',(0.1225,0.02,0.400450115781006));
#1352=CARTESIAN_POINT('',(0.1225,0.02,0.410450115781006));
#1353=CARTESIAN_POINT('',(0.1225,0.045,0.400450115781006));
#1354=CARTESIAN_POINT('',(0.1225,0.015,0.400450115781006));
#1355=CARTESIAN_POINT('',(0.1225,0.015,0.410450115781006));
#1356=CARTESIAN_POINT('',(0.1225,0.015,0.410450115781006));
#1357=CARTESIAN_POINT('',(0.1225,0.0075,0.410450115781006));
#1358=CARTESIAN_POINT('',(0.1225,0.005,0.410450115781006));
#1359=CARTESIAN_POINT('',(0.1225,0.005,0.400052546262741));
#1360=CARTESIAN_POINT('',(0.1225,0.00500000000000023,0.415052546262741));
#1361=CARTESIAN_POINT('',(0.1225,0.850868496704852,0.415052546262741));
#1362=CARTESIAN_POINT('',(0.1225,0.0250000000000005,0.415052546262741));
#1363=CARTESIAN_POINT('',(0.1225,0.025,0.425052546262741));
#1364=CARTESIAN_POINT('',(0.1225,0.025,0.425052546262741));
#1365=CARTESIAN_POINT('',(0.1225,0.850868496704852,0.425052546262741));
#1366=CARTESIAN_POINT('',(0.1225,0.00500000000000023,0.425052546262741));
#1367=CARTESIAN_POINT('',(0.1225,0.005,0.400052546262741));
#1368=CARTESIAN_POINT('',(0.1225,0.005,0.455052546262741));
#1369=CARTESIAN_POINT('',(0.1225,0.045,0.455052546262741));
#1370=CARTESIAN_POINT('',(0.1225,0.04,0.455052546262741));
#1371=CARTESIAN_POINT('',(0.1225,0.04,0.385052546262741));
#1372=CARTESIAN_POINT('',(0.1225,0.04,0.400450115781006));
#1373=CARTESIAN_POINT('',(0.1225,0.045,0.400450115781006));
#1374=CARTESIAN_POINT('',(0.1225,0.028,0.400450115781006));
#1375=CARTESIAN_POINT('',(0.1225,0.028,0.400052546262741));
#1376=CARTESIAN_POINT('',(0.1225,0.028,0.410450115781006));
#1377=CARTESIAN_POINT('',(0.1225,0.045,0.410450115781006));
#1378=CARTESIAN_POINT('',(0.1225,0.022,0.4367));
#1379=CARTESIAN_POINT('',(0.1225,0.022,0.447));
#1380=CARTESIAN_POINT('',(0.1285,0.01,0.405052546262741));
#1381=CARTESIAN_POINT('',(0.1285,0.01,0.415052546262741));
#1382=CARTESIAN_POINT('',(0.131,0.01,0.415052546262741));
#1383=CARTESIAN_POINT('',(0.1285,0.01,0.410450115781006));
#1384=CARTESIAN_POINT('',(0.1285,0.0125,0.410450115781006));
#1385=CARTESIAN_POINT('',(0.1275,0.,0.400052546262741));
#1386=CARTESIAN_POINT('',(0.1275,-2.08658730245498E-18,0.410450115781006));
#1387=CARTESIAN_POINT('',(0.0325,0.095,0.415052546262741));
#1388=CARTESIAN_POINT('',(0.1625,0.0225,0.400450115781006));
#1389=CARTESIAN_POINT('',(0.1625,0.02,0.400450115781006));
#1390=CARTESIAN_POINT('',(0.126,0.02,0.400450115781006));
#1391=CARTESIAN_POINT('',(0.126,0.0225,0.400450115781006));
#1392=CARTESIAN_POINT('',(0.126,0.028,0.400450115781006));
#1393=CARTESIAN_POINT('',(0.1625,0.028,0.400450115781006));
#1394=CARTESIAN_POINT('',(0.1225,0.04,0.400450115781006));
#1395=CARTESIAN_POINT('',(0.1275,0.045,0.400450115781006));
#1396=CARTESIAN_POINT('',(-0.04,0.045,0.400450115781006));
#1397=CARTESIAN_POINT('',(0.136821053843131,0.045,0.400450115781006));
#1398=CARTESIAN_POINT('',(0.136821053843131,0.850868496704852,0.400450115781006));
#1399=CARTESIAN_POINT('',(0.1345,0.0075,0.400450115781006));
#1400=CARTESIAN_POINT('',(0.1345,0.015,0.400450115781006));
#1401=CARTESIAN_POINT('',(0.1285,0.015,0.400450115781006));
#1402=CARTESIAN_POINT('',(-0.688368496704852,0.022,0.4367));
#1403=CARTESIAN_POINT('',(0.154813524404355,0.022,0.4367));
#1404=CARTESIAN_POINT('',(0.154813524404355,0.0254809393848096,0.427006029657602));
#1405=CARTESIAN_POINT('',(0.154813524404355,0.0185190606151906,0.427006029657602));
#1406=CARTESIAN_POINT('',(-0.688368496704852,0.0254809393848096,0.427006029657602));
#1407=CARTESIAN_POINT('',(0.159813524404355,0.0254809393848085,0.427006029657602));
#1408=CARTESIAN_POINT('',(0.159813524404355,0.022,0.4367));
#1409=CARTESIAN_POINT('',(0.159813524404355,0.0185190606151917,0.427006029657602));
#1410=CARTESIAN_POINT('',(-0.688368496704852,0.0185190606151906,0.427006029657602));
#1411=CARTESIAN_POINT('',(0.1625,0.005,0.400052546262741));
#1412=CARTESIAN_POINT('',(0.1625,0.005,0.427006029657602));
#1413=CARTESIAN_POINT('',(0.159813524404355,0.00231352440435495,0.427006029657602));
#1414=CARTESIAN_POINT('',(0.159813524404355,0.00231352440435494,0.400052546262741));
#1415=CARTESIAN_POINT('',(0.159813524404355,0.00231352440435495,0.413006029657602));
#1416=CARTESIAN_POINT('',(0.1625,0.005,0.413006029657602));
#1417=CARTESIAN_POINT('',(0.147313524404355,-0.010186475595645,0.400052546262741));
#1418=CARTESIAN_POINT('',(0.1575,-1.38499394299047E-18,0.455052546262741));
#1419=CARTESIAN_POINT('',(0.1575,0.045,0.400052546262741));
#1420=CARTESIAN_POINT('',(0.159813524404355,0.042686475595645,0.400052546262741));
#1421=CARTESIAN_POINT('',(0.159813524404355,0.042686475595645,0.427006029657602));
#1422=CARTESIAN_POINT('',(0.159813524404355,0.042686475595645,0.413006029657602));
#1423=CARTESIAN_POINT('',(0.1575,0.045,0.427006029657602));
#1424=CARTESIAN_POINT('',(0.1575,0.045,0.427006029657602));
#1425=CARTESIAN_POINT('',(0.1575,0.045,0.400052546262741));
#1426=CARTESIAN_POINT('',(0.1575,0.045,0.455052546262741));
#1427=CARTESIAN_POINT('',(0.1625,0.04,0.455052546262741));
#1428=CARTESIAN_POINT('',(0.147313524404355,0.0551864755956451,0.400052546262741));
#1429=CARTESIAN_POINT('',(0.1575,0.045,0.402599252947723));
#1430=CARTESIAN_POINT('',(0.1575,0.045,0.400052546262741));
#1431=CARTESIAN_POINT('',(0.1575,0.045,0.413006029657602));
#1432=CARTESIAN_POINT('',(0.1575,0.045,0.413006029657602));
#1433=CARTESIAN_POINT('',(-0.04,0.045,0.400052546262741));
#1434=CARTESIAN_POINT('',(-0.04,0.045,0.427006029657602));
#1435=CARTESIAN_POINT('',(0.154813524404355,0.045,0.427006029657602));
#1436=CARTESIAN_POINT('',(0.154813524404355,0.045,0.400052546262741));
#1437=CARTESIAN_POINT('',(0.154813524404355,0.045,0.413006029657602));
#1438=CARTESIAN_POINT('',(-0.04,0.045,0.413006029657602));
#1439=CARTESIAN_POINT('',(0.147313524404355,0.045,0.400052546262741));
#1440=CARTESIAN_POINT('',(0.1275,0.045,0.460052546262741));
#1441=CARTESIAN_POINT('',(0.1275,0.045,0.455052546262741));
#1442=CARTESIAN_POINT('',(0.1625,0.045,0.455052546262741));
#1443=CARTESIAN_POINT('',(0.1225,0.005,0.455052546262741));
#1444=CARTESIAN_POINT('',(0.1225,0.005,0.455052546262741));
#1445=CARTESIAN_POINT('',(0.1275,0.0025,0.457552546262741));
#1446=CARTESIAN_POINT('',(0.1275,0.005,0.460052546262741));
#1447=CARTESIAN_POINT('',(0.1225,0.005,0.455052546262741));
#1448=CARTESIAN_POINT('',(0.1425,0.045,0.460052546262741));
#1449=CARTESIAN_POINT('',(0.1225,0.04,0.460052546262741));
#1450=CARTESIAN_POINT('',(0.1575,0.04,0.460052546262741));
#1451=CARTESIAN_POINT('',(0.1275,0.04,0.460052546262741));
#1452=CARTESIAN_POINT('',(0.1275,0.045,0.460052546262741));
#1453=CARTESIAN_POINT('',(0.1425,0.005,0.460052546262741));
#1454=CARTESIAN_POINT('',(0.1575,0.005,0.460052546262741));
#1455=CARTESIAN_POINT('',(0.1575,0.045,0.460052546262741));
#1456=CARTESIAN_POINT('',(0.13,0.02,0.405052546262742));
#1457=CARTESIAN_POINT('',(0.13,0.02,0.425052546262741));
#1458=CARTESIAN_POINT('',(0.1325,0.02,0.425052546262741));
#1459=CARTESIAN_POINT('',(0.1275,0.02,0.425052546262741));
#1460=CARTESIAN_POINT('',(0.1275,0.02,0.415052546262741));
#1461=CARTESIAN_POINT('',(0.1275,0.02,0.415052546262741));
#1462=CARTESIAN_POINT('',(-0.04,0.02,0.415052546262741));
#1463=CARTESIAN_POINT('',(0.1325,0.02,0.415052546262741));
#1464=CARTESIAN_POINT('',(0.1325,0.02,0.400052546262741));
#1465=CARTESIAN_POINT('',(0.1325,0.015,0.400052546262741));
#1466=CARTESIAN_POINT('',(0.1375,0.015,0.400052546262741));
#1467=CARTESIAN_POINT('',(0.1375,0.0150000000000002,0.425052546262741));
#1468=CARTESIAN_POINT('',(0.1375,0.0150000000000002,0.415052546262741));
#1469=CARTESIAN_POINT('',(0.1325,0.015,0.425052546262741));
#1470=CARTESIAN_POINT('',(0.1325,0.015,0.415052546262741));
#1471=CARTESIAN_POINT('',(0.1375,0.850868496704852,0.400052546262741));
#1472=CARTESIAN_POINT('',(0.1375,0.850868496704852,0.415052546262741));
#1473=CARTESIAN_POINT('',(0.1375,0.00500000000000023,0.415052546262741));
#1474=CARTESIAN_POINT('',(0.1375,0.005,0.425052546262741));
#1475=CARTESIAN_POINT('',(0.1375,0.00500000000000023,0.425052546262741));
#1476=CARTESIAN_POINT('',(0.1375,0.850868496704852,0.425052546262741));
#1477=CARTESIAN_POINT('',(0.1625,0.045,0.455052546262741));
#1478=CARTESIAN_POINT('',(0.16,0.005,0.457552546262741));
#1479=CARTESIAN_POINT('',(0.1625,0.04,0.455052546262741));
#1480=CARTESIAN_POINT('',(0.1275,0.045,0.460052546262741));
#1481=CARTESIAN_POINT('',(0.125,0.04,0.457552546262741));
#1482=CARTESIAN_POINT('',(0.1225,0.025,0.400052546262741));
#1483=CARTESIAN_POINT('',(0.1225,0.025,0.415052546262741));
#1484=CARTESIAN_POINT('',(0.1225,0.025,0.425052546262741));
#1485=CARTESIAN_POINT('',(0.1425,0.04,0.460052546262741));
#1486=CARTESIAN_POINT('',(0.1575,0.0425,0.457552546262741));
#1487=CARTESIAN_POINT('',(0.1275,0.045,0.455052546262741));
#1488=CARTESIAN_POINT('',(0.1375,0.005,0.400052546262741));
#1489=CARTESIAN_POINT('',(0.1375,0.005,0.415052546262741));
#1490=CARTESIAN_POINT('',(0.1375,0.005,0.425052546262741));
#1491=CARTESIAN_POINT('',(0.13,0.850868496704852,0.425052546262741));
#1492=CARTESIAN_POINT('',(0.1285,0.01,0.425052546262741));
#1493=CARTESIAN_POINT('',(0.126,0.01,0.425052546262741));
#1494=CARTESIAN_POINT('',(-0.296684248352426,0.424184248352425,0.425052546262741));
#1495=CARTESIAN_POINT('',(0.1275,0.,0.400052546262741));
#1496=CARTESIAN_POINT('',(-0.04,0.,0.455052546262741));
#1497=CARTESIAN_POINT('',(0.1575,0.,0.455052546262741));
#1498=CARTESIAN_POINT('',(-0.04,0.0225,0.415052546262741));
#1499=CARTESIAN_POINT('',(0.1575,0.,0.455052546262741));
#1500=CARTESIAN_POINT('',(0.1625,0.04,0.455052546262741));
#1501=CARTESIAN_POINT('',(0.1275,0.045,0.455052546262741));
#1502=CARTESIAN_POINT('',(0.1275,0.045,0.455052546262741));
#1503=CARTESIAN_POINT('',(0.1225,0.04,0.400052546262741));
#1504=CARTESIAN_POINT('',(0.147313524404355,0.850868496704852,0.400052546262741));
#1505=CARTESIAN_POINT('',(0.159813524404355,0.204502,0.420006029657602));
#1506=CARTESIAN_POINT('',(0.159813524404355,0.204502,0.427006029657602));
#1507=CARTESIAN_POINT('',(0.159813524404355,0.204502,0.413006029657602));
#1508=CARTESIAN_POINT('',(0.159813524404355,0.204502,0.427006029657602));
#1509=CARTESIAN_POINT('',(0.154813524404355,0.204502,0.420006029657602));
#1510=CARTESIAN_POINT('',(0.154813524404355,0.204502,0.427006029657602));
#1511=CARTESIAN_POINT('',(0.154813524404355,0.204502,0.413006029657602));
#1512=CARTESIAN_POINT('',(0.154813524404355,0.204502,0.427006029657602));
#1513=CARTESIAN_POINT('',(0.157313524404355,0.204502,0.427006029657602));
#1514=CARTESIAN_POINT('',(0.157313524404355,0.204502,0.427006029657602));
#1515=CARTESIAN_POINT('',(0.157313524404355,0.204502,0.413006029657602));
#1516=CARTESIAN_POINT('',(0.1285,0.01,0.430450115781006));
#1517=CARTESIAN_POINT('',(0.1285,0.01,0.430450115781006));
#1518=CARTESIAN_POINT('',(0.1285,0.0125,0.430450115781006));
#1519=CARTESIAN_POINT('',(0.00291052692156562,0.0225,0.430450115781006));
#1520=CARTESIAN_POINT('',(-0.000898585978294952,0.0225,0.410450115781006));
#1521=CARTESIAN_POINT('',(0.1285,0.015,0.410450115781006));
#1522=CARTESIAN_POINT('',(0.1345,0.015,0.410450115781006));
#1523=CARTESIAN_POINT('',(0.1345,0.0075,0.410450115781006));
#1524=CARTESIAN_POINT('',(0.1285,0.015,0.410450115781006));
#1525=CARTESIAN_POINT('',(0.1345,0.015,0.410450115781006));
#1526=CARTESIAN_POINT('',(0.1345,0.0075,0.410450115781006));
#1527=CARTESIAN_POINT('',(0.165,0.0225,0.412950115781006));
#1528=CARTESIAN_POINT('',(0.165,0.0175,0.412950115781006));
#1529=CARTESIAN_POINT('',(0.16,0.0175,0.412950115781006));
#1530=CARTESIAN_POINT('',(0.16,0.0225,0.412950115781006));
#1531=CARTESIAN_POINT('',(0.16,0.0275,0.412950115781006));
#1532=CARTESIAN_POINT('',(0.165,0.0275,0.412950115781006));
#1533=CARTESIAN_POINT('',(0.165,0.0175,0.400450115781006));
#1534=CARTESIAN_POINT('',(0.16,0.0175,0.400450115781006));
#1535=CARTESIAN_POINT('',(0.165,0.0275,0.400450115781006));
#1536=CARTESIAN_POINT('',(0.16,0.0275,0.400450115781006));
#1537=CARTESIAN_POINT('',(0.16,0.0225,0.395501331021874));
#1538=CARTESIAN_POINT('',(0.126,0.0225,0.422751331021874));
#1539=CARTESIAN_POINT('',(0.126,0.024,0.405450115781006));
#1540=CARTESIAN_POINT('',(0.126,0.024,0.407050115781006));
#1541=CARTESIAN_POINT('',(0.126,0.02,0.400450115781006));
#1542=CARTESIAN_POINT('',(0.126,0.02,0.410450115781006));
#1543=CARTESIAN_POINT('',(0.126,0.024,0.410450115781006));
#1544=CARTESIAN_POINT('',(0.126,0.028,0.410450115781006));
#1545=CARTESIAN_POINT('',(0.126,0.028,0.400450115781006));
#1546=CARTESIAN_POINT('',(0.119,0.02,0.400450115781006));
#1547=CARTESIAN_POINT('',(0.119,0.02,0.410450115781006));
#1548=CARTESIAN_POINT('',(0.119,0.024,0.410450115781006));
#1549=CARTESIAN_POINT('',(0.119,0.028,0.410450115781006));
#1550=CARTESIAN_POINT('',(0.119,0.028,0.400450115781006));
#1551=CARTESIAN_POINT('',(0.1225,0.024,0.405450115781006));
#1552=CARTESIAN_POINT('',(0.1295,0.024,0.405450115781006));
#1553=CARTESIAN_POINT('',(0.1295,0.024,0.407050115781006));
#1554=CARTESIAN_POINT('',(0.1295,0.024,0.402150115781006));
#1555=MECHANICAL_DESIGN_GEOMETRIC_PRESENTATION_REPRESENTATION('',(#960),
#1556);
#1556=(
GEOMETRIC_REPRESENTATION_CONTEXT(3)
GLOBAL_UNCERTAINTY_ASSIGNED_CONTEXT((#1557))
GLOBAL_UNIT_ASSIGNED_CONTEXT((#1560,#1559,#1558))
REPRESENTATION_CONTEXT('XY1_TOP','TOP_LEVEL_ASSEMBLY_PART')
);
#1557=UNCERTAINTY_MEASURE_WITH_UNIT(LENGTH_MEASURE(1.E-8),#1560,
'DISTANCE_ACCURACY_VALUE','Maximum Tolerance applied to model');
#1558=(
NAMED_UNIT(*)
SI_UNIT($,.STERADIAN.)
SOLID_ANGLE_UNIT()
);
#1559=(
NAMED_UNIT(*)
PLANE_ANGLE_UNIT()
SI_UNIT($,.RADIAN.)
);
#1560=(
LENGTH_UNIT()
NAMED_UNIT(*)
SI_UNIT($,.METRE.)
);
#1561=PRODUCT_DEFINITION_SHAPE('','',#1562);
#1562=PRODUCT_DEFINITION('','',#1564,#1563);
#1563=PRODUCT_DEFINITION_CONTEXT('',#1570,'design');
#1564=PRODUCT_DEFINITION_FORMATION_WITH_SPECIFIED_SOURCE('','',#1566,
 .NOT_KNOWN.);
#1565=PRODUCT_RELATED_PRODUCT_CATEGORY('','',(#1566));
#1566=PRODUCT('XY1_TOP','XY1_TOP','XY1_TOP',(#1568));
#1567=PRODUCT_CATEGORY('','');
#1568=PRODUCT_CONTEXT('',#1570,'mechanical');
#1569=APPLICATION_PROTOCOL_DEFINITION('international standard',
'ap242_managed_model_based_3d_engineering',2020,#1570);
#1570=APPLICATION_CONTEXT('managed model based 3d engineering');
ENDSEC;
END-ISO-10303-21;
