ISO-10303-21;
HEADER;
/* Generated by software containing ST-Developer
 * from STEP Tools, Inc. (www.steptools.com) 
 */
/* OPTION: using custom renumber hook */

FILE_DESCRIPTION(
/* description */ ('STEP AP242 Edition 2',
'CAx-IF Rec.Pracs.---Representation and Presentation of Product Manufa
cturing Information (PMI)---4.0---2014-10-13',
'CAx-IF Rec.Pracs.---3D Tessellated Geometry---0.4---2014-09-14','2;1',
'CAx-IF Rec.Pracs.---User Defined Attributes---1.5---2016-08-15'),
/* implementation_level */ '2;1');

FILE_NAME(
/* name */ 'NOT-618 - Z-TopMount',
/* time_stamp */ '2026-07-11T06:00:17Z',
/* author */ (''),
/* organization */ (''),
/* preprocessor_version */ 'ST-DEVELOPER v20',
/* originating_system */ 'ONSHAPE BY PTC INC, 1.217',
/* authorisation */ '  ');

FILE_SCHEMA (('AP242_MANAGED_MODEL_BASED_3D_ENGINEERING_MIM_LF { 1 0 10303 442 3 1 4 }'));
ENDSEC;

DATA;
#10=SHAPE_REPRESENTATION_RELATIONSHIP('','',#805,#11);
#11=ADVANCED_BREP_SHAPE_REPRESENTATION('',(#803),#1287);
#12=CONICAL_SURFACE('',#839,0.0025,0.785398163397448);
#13=CONICAL_SURFACE('',#840,0.0025,0.785398163397448);
#14=CYLINDRICAL_SURFACE('',#819,0.0025);
#15=CYLINDRICAL_SURFACE('',#822,0.0025);
#16=CYLINDRICAL_SURFACE('',#834,0.006);
#17=CYLINDRICAL_SURFACE('',#837,0.006);
#18=CYLINDRICAL_SURFACE('',#838,0.004);
#19=CYLINDRICAL_SURFACE('',#846,0.0011);
#20=CYLINDRICAL_SURFACE('',#849,0.0011);
#21=LINE('',#1074,#105);
#22=LINE('',#1077,#106);
#23=LINE('',#1079,#107);
#24=LINE('',#1081,#108);
#25=LINE('',#1083,#109);
#26=LINE('',#1085,#110);
#27=LINE('',#1087,#111);
#28=LINE('',#1089,#112);
#29=LINE('',#1091,#113);
#30=LINE('',#1093,#114);
#31=LINE('',#1095,#115);
#32=LINE('',#1097,#116);
#33=LINE('',#1098,#117);
#34=LINE('',#1101,#118);
#35=LINE('',#1103,#119);
#36=LINE('',#1104,#120);
#37=LINE('',#1107,#121);
#38=LINE('',#1109,#122);
#39=LINE('',#1110,#123);
#40=LINE('',#1113,#124);
#41=LINE('',#1115,#125);
#42=LINE('',#1116,#126);
#43=LINE('',#1119,#127);
#44=LINE('',#1121,#128);
#45=LINE('',#1133,#129);
#46=LINE('',#1136,#130);
#47=LINE('',#1138,#131);
#48=LINE('',#1140,#132);
#49=LINE('',#1142,#133);
#50=LINE('',#1144,#134);
#51=LINE('',#1146,#135);
#52=LINE('',#1148,#136);
#53=LINE('',#1150,#137);
#54=LINE('',#1152,#138);
#55=LINE('',#1154,#139);
#56=LINE('',#1156,#140);
#57=LINE('',#1158,#141);
#58=LINE('',#1160,#142);
#59=LINE('',#1161,#143);
#60=LINE('',#1164,#144);
#61=LINE('',#1166,#145);
#62=LINE('',#1167,#146);
#63=LINE('',#1170,#147);
#64=LINE('',#1172,#148);
#65=LINE('',#1173,#149);
#66=LINE('',#1176,#150);
#67=LINE('',#1178,#151);
#68=LINE('',#1179,#152);
#69=LINE('',#1182,#153);
#70=LINE('',#1184,#154);
#71=LINE('',#1186,#155);
#72=LINE('',#1187,#156);
#73=LINE('',#1189,#157);
#74=LINE('',#1191,#158);
#75=LINE('',#1193,#159);
#76=LINE('',#1195,#160);
#77=LINE('',#1197,#161);
#78=LINE('',#1199,#162);
#79=LINE('',#1201,#163);
#80=LINE('',#1213,#164);
#81=LINE('',#1216,#165);
#82=LINE('',#1217,#166);
#83=LINE('',#1219,#167);
#84=LINE('',#1220,#168);
#85=LINE('',#1222,#169);
#86=LINE('',#1224,#170);
#87=LINE('',#1226,#171);
#88=LINE('',#1228,#172);
#89=LINE('',#1242,#173);
#90=LINE('',#1243,#174);
#91=LINE('',#1245,#175);
#92=LINE('',#1246,#176);
#93=LINE('',#1263,#177);
#94=LINE('',#1264,#178);
#95=LINE('',#1266,#179);
#96=LINE('',#1269,#180);
#97=LINE('',#1270,#181);
#98=LINE('',#1272,#182);
#99=LINE('',#1275,#183);
#100=LINE('',#1276,#184);
#101=LINE('',#1278,#185);
#102=LINE('',#1281,#186);
#103=LINE('',#1282,#187);
#104=LINE('',#1284,#188);
#105=VECTOR('',#872,1.);
#106=VECTOR('',#873,1.);
#107=VECTOR('',#874,1.);
#108=VECTOR('',#875,1.);
#109=VECTOR('',#876,1.);
#110=VECTOR('',#877,1.);
#111=VECTOR('',#878,1.);
#112=VECTOR('',#879,1.);
#113=VECTOR('',#880,1.);
#114=VECTOR('',#881,1.);
#115=VECTOR('',#882,1.);
#116=VECTOR('',#883,1.);
#117=VECTOR('',#884,1.);
#118=VECTOR('',#885,1.);
#119=VECTOR('',#886,1.);
#120=VECTOR('',#887,1.);
#121=VECTOR('',#888,1.);
#122=VECTOR('',#889,1.);
#123=VECTOR('',#890,1.);
#124=VECTOR('',#891,1.);
#125=VECTOR('',#892,1.);
#126=VECTOR('',#893,1.);
#127=VECTOR('',#894,1.);
#128=VECTOR('',#895,1.);
#129=VECTOR('',#908,1.);
#130=VECTOR('',#909,1.);
#131=VECTOR('',#910,1.);
#132=VECTOR('',#911,1.);
#133=VECTOR('',#912,1.);
#134=VECTOR('',#913,1.);
#135=VECTOR('',#914,1.);
#136=VECTOR('',#915,1.);
#137=VECTOR('',#916,1.);
#138=VECTOR('',#917,1.);
#139=VECTOR('',#918,1.);
#140=VECTOR('',#919,1.);
#141=VECTOR('',#920,1.);
#142=VECTOR('',#921,1.);
#143=VECTOR('',#922,1.);
#144=VECTOR('',#923,1.);
#145=VECTOR('',#924,1.);
#146=VECTOR('',#925,1.);
#147=VECTOR('',#926,1.);
#148=VECTOR('',#927,1.);
#149=VECTOR('',#928,1.);
#150=VECTOR('',#929,1.);
#151=VECTOR('',#930,1.);
#152=VECTOR('',#931,1.);
#153=VECTOR('',#932,1.);
#154=VECTOR('',#933,1.);
#155=VECTOR('',#936,1.);
#156=VECTOR('',#937,1.);
#157=VECTOR('',#940,1.);
#158=VECTOR('',#941,1.);
#159=VECTOR('',#942,1.);
#160=VECTOR('',#945,1.);
#161=VECTOR('',#946,1.);
#162=VECTOR('',#949,1.);
#163=VECTOR('',#950,1.);
#164=VECTOR('',#965,1.);
#165=VECTOR('',#966,1.);
#166=VECTOR('',#967,1.);
#167=VECTOR('',#970,1.);
#168=VECTOR('',#971,1.);
#169=VECTOR('',#974,1.);
#170=VECTOR('',#977,1.);
#171=VECTOR('',#980,1.);
#172=VECTOR('',#983,1.);
#173=VECTOR('',#1006,1.);
#174=VECTOR('',#1007,1.);
#175=VECTOR('',#1010,1.);
#176=VECTOR('',#1011,1.);
#177=VECTOR('',#1036,1.);
#178=VECTOR('',#1037,1.);
#179=VECTOR('',#1040,1.);
#180=VECTOR('',#1045,1.);
#181=VECTOR('',#1046,1.);
#182=VECTOR('',#1049,1.);
#183=VECTOR('',#1054,1.);
#184=VECTOR('',#1055,1.);
#185=VECTOR('',#1058,1.);
#186=VECTOR('',#1063,1.);
#187=VECTOR('',#1064,1.);
#188=VECTOR('',#1067,1.);
#189=ORIENTED_EDGE('',*,*,#389,.F.);
#190=ORIENTED_EDGE('',*,*,#390,.T.);
#191=ORIENTED_EDGE('',*,*,#391,.T.);
#192=ORIENTED_EDGE('',*,*,#392,.T.);
#193=ORIENTED_EDGE('',*,*,#393,.T.);
#194=ORIENTED_EDGE('',*,*,#394,.T.);
#195=ORIENTED_EDGE('',*,*,#395,.T.);
#196=ORIENTED_EDGE('',*,*,#396,.T.);
#197=ORIENTED_EDGE('',*,*,#397,.F.);
#198=ORIENTED_EDGE('',*,*,#398,.T.);
#199=ORIENTED_EDGE('',*,*,#399,.T.);
#200=ORIENTED_EDGE('',*,*,#400,.F.);
#201=ORIENTED_EDGE('',*,*,#401,.T.);
#202=ORIENTED_EDGE('',*,*,#402,.T.);
#203=ORIENTED_EDGE('',*,*,#403,.T.);
#204=ORIENTED_EDGE('',*,*,#404,.T.);
#205=ORIENTED_EDGE('',*,*,#405,.T.);
#206=ORIENTED_EDGE('',*,*,#406,.T.);
#207=ORIENTED_EDGE('',*,*,#407,.T.);
#208=ORIENTED_EDGE('',*,*,#408,.T.);
#209=ORIENTED_EDGE('',*,*,#409,.T.);
#210=ORIENTED_EDGE('',*,*,#410,.T.);
#211=ORIENTED_EDGE('',*,*,#411,.T.);
#212=ORIENTED_EDGE('',*,*,#412,.T.);
#213=ORIENTED_EDGE('',*,*,#413,.T.);
#214=ORIENTED_EDGE('',*,*,#414,.T.);
#215=ORIENTED_EDGE('',*,*,#415,.T.);
#216=ORIENTED_EDGE('',*,*,#416,.F.);
#217=ORIENTED_EDGE('',*,*,#417,.F.);
#218=ORIENTED_EDGE('',*,*,#418,.F.);
#219=ORIENTED_EDGE('',*,*,#419,.F.);
#220=ORIENTED_EDGE('',*,*,#420,.T.);
#221=ORIENTED_EDGE('',*,*,#421,.F.);
#222=ORIENTED_EDGE('',*,*,#422,.F.);
#223=ORIENTED_EDGE('',*,*,#423,.T.);
#224=ORIENTED_EDGE('',*,*,#424,.T.);
#225=ORIENTED_EDGE('',*,*,#425,.F.);
#226=ORIENTED_EDGE('',*,*,#426,.F.);
#227=ORIENTED_EDGE('',*,*,#427,.F.);
#228=ORIENTED_EDGE('',*,*,#428,.F.);
#229=ORIENTED_EDGE('',*,*,#429,.F.);
#230=ORIENTED_EDGE('',*,*,#430,.F.);
#231=ORIENTED_EDGE('',*,*,#431,.F.);
#232=ORIENTED_EDGE('',*,*,#432,.F.);
#233=ORIENTED_EDGE('',*,*,#433,.F.);
#234=ORIENTED_EDGE('',*,*,#434,.F.);
#235=ORIENTED_EDGE('',*,*,#435,.F.);
#236=ORIENTED_EDGE('',*,*,#436,.F.);
#237=ORIENTED_EDGE('',*,*,#437,.F.);
#238=ORIENTED_EDGE('',*,*,#438,.F.);
#239=ORIENTED_EDGE('',*,*,#439,.F.);
#240=ORIENTED_EDGE('',*,*,#440,.F.);
#241=ORIENTED_EDGE('',*,*,#441,.F.);
#242=ORIENTED_EDGE('',*,*,#442,.F.);
#243=ORIENTED_EDGE('',*,*,#443,.F.);
#244=ORIENTED_EDGE('',*,*,#444,.F.);
#245=ORIENTED_EDGE('',*,*,#392,.F.);
#246=ORIENTED_EDGE('',*,*,#445,.T.);
#247=ORIENTED_EDGE('',*,*,#419,.T.);
#248=ORIENTED_EDGE('',*,*,#446,.F.);
#249=ORIENTED_EDGE('',*,*,#447,.F.);
#250=ORIENTED_EDGE('',*,*,#426,.T.);
#251=ORIENTED_EDGE('',*,*,#448,.T.);
#252=ORIENTED_EDGE('',*,*,#449,.F.);
#253=ORIENTED_EDGE('',*,*,#450,.F.);
#254=ORIENTED_EDGE('',*,*,#427,.T.);
#255=ORIENTED_EDGE('',*,*,#447,.T.);
#256=ORIENTED_EDGE('',*,*,#451,.F.);
#257=ORIENTED_EDGE('',*,*,#452,.F.);
#258=ORIENTED_EDGE('',*,*,#428,.T.);
#259=ORIENTED_EDGE('',*,*,#450,.T.);
#260=ORIENTED_EDGE('',*,*,#453,.F.);
#261=ORIENTED_EDGE('',*,*,#454,.T.);
#262=ORIENTED_EDGE('',*,*,#455,.F.);
#263=ORIENTED_EDGE('',*,*,#456,.T.);
#264=ORIENTED_EDGE('',*,*,#457,.F.);
#265=ORIENTED_EDGE('',*,*,#458,.F.);
#266=ORIENTED_EDGE('',*,*,#459,.F.);
#267=ORIENTED_EDGE('',*,*,#397,.T.);
#268=ORIENTED_EDGE('',*,*,#460,.T.);
#269=ORIENTED_EDGE('',*,*,#425,.T.);
#270=ORIENTED_EDGE('',*,*,#461,.T.);
#271=ORIENTED_EDGE('',*,*,#398,.F.);
#272=ORIENTED_EDGE('',*,*,#459,.T.);
#273=ORIENTED_EDGE('',*,*,#462,.F.);
#274=ORIENTED_EDGE('',*,*,#448,.F.);
#275=ORIENTED_EDGE('',*,*,#446,.T.);
#276=ORIENTED_EDGE('',*,*,#432,.T.);
#277=ORIENTED_EDGE('',*,*,#463,.F.);
#278=ORIENTED_EDGE('',*,*,#393,.F.);
#279=ORIENTED_EDGE('',*,*,#463,.T.);
#280=ORIENTED_EDGE('',*,*,#431,.T.);
#281=ORIENTED_EDGE('',*,*,#464,.F.);
#282=ORIENTED_EDGE('',*,*,#394,.F.);
#283=ORIENTED_EDGE('',*,*,#464,.T.);
#284=ORIENTED_EDGE('',*,*,#430,.T.);
#285=ORIENTED_EDGE('',*,*,#465,.F.);
#286=ORIENTED_EDGE('',*,*,#395,.F.);
#287=ORIENTED_EDGE('',*,*,#465,.T.);
#288=ORIENTED_EDGE('',*,*,#429,.T.);
#289=ORIENTED_EDGE('',*,*,#452,.T.);
#290=ORIENTED_EDGE('',*,*,#466,.F.);
#291=ORIENTED_EDGE('',*,*,#460,.F.);
#292=ORIENTED_EDGE('',*,*,#396,.F.);
#293=ORIENTED_EDGE('',*,*,#462,.T.);
#294=ORIENTED_EDGE('',*,*,#458,.T.);
#295=ORIENTED_EDGE('',*,*,#466,.T.);
#296=ORIENTED_EDGE('',*,*,#453,.T.);
#297=ORIENTED_EDGE('',*,*,#451,.T.);
#298=ORIENTED_EDGE('',*,*,#449,.T.);
#299=ORIENTED_EDGE('',*,*,#455,.T.);
#300=ORIENTED_EDGE('',*,*,#457,.T.);
#301=ORIENTED_EDGE('',*,*,#467,.T.);
#302=ORIENTED_EDGE('',*,*,#467,.F.);
#303=ORIENTED_EDGE('',*,*,#418,.T.);
#304=ORIENTED_EDGE('',*,*,#468,.T.);
#305=ORIENTED_EDGE('',*,*,#468,.F.);
#306=ORIENTED_EDGE('',*,*,#417,.T.);
#307=ORIENTED_EDGE('',*,*,#389,.T.);
#308=ORIENTED_EDGE('',*,*,#416,.T.);
#309=ORIENTED_EDGE('',*,*,#414,.F.);
#310=ORIENTED_EDGE('',*,*,#454,.F.);
#311=ORIENTED_EDGE('',*,*,#415,.F.);
#312=ORIENTED_EDGE('',*,*,#456,.F.);
#313=ORIENTED_EDGE('',*,*,#400,.T.);
#314=ORIENTED_EDGE('',*,*,#469,.T.);
#315=ORIENTED_EDGE('',*,*,#423,.F.);
#316=ORIENTED_EDGE('',*,*,#470,.T.);
#317=ORIENTED_EDGE('',*,*,#421,.T.);
#318=ORIENTED_EDGE('',*,*,#471,.T.);
#319=ORIENTED_EDGE('',*,*,#390,.F.);
#320=ORIENTED_EDGE('',*,*,#472,.F.);
#321=ORIENTED_EDGE('',*,*,#473,.F.);
#322=ORIENTED_EDGE('',*,*,#474,.F.);
#323=ORIENTED_EDGE('',*,*,#470,.F.);
#324=ORIENTED_EDGE('',*,*,#422,.T.);
#325=ORIENTED_EDGE('',*,*,#472,.T.);
#326=ORIENTED_EDGE('',*,*,#401,.F.);
#327=ORIENTED_EDGE('',*,*,#475,.F.);
#328=ORIENTED_EDGE('',*,*,#474,.T.);
#329=ORIENTED_EDGE('',*,*,#475,.T.);
#330=ORIENTED_EDGE('',*,*,#476,.F.);
#331=ORIENTED_EDGE('',*,*,#473,.T.);
#332=ORIENTED_EDGE('',*,*,#476,.T.);
#333=ORIENTED_EDGE('',*,*,#420,.F.);
#334=ORIENTED_EDGE('',*,*,#445,.F.);
#335=ORIENTED_EDGE('',*,*,#391,.F.);
#336=ORIENTED_EDGE('',*,*,#471,.F.);
#337=ORIENTED_EDGE('',*,*,#424,.F.);
#338=ORIENTED_EDGE('',*,*,#469,.F.);
#339=ORIENTED_EDGE('',*,*,#399,.F.);
#340=ORIENTED_EDGE('',*,*,#461,.F.);
#341=ORIENTED_EDGE('',*,*,#434,.T.);
#342=ORIENTED_EDGE('',*,*,#477,.T.);
#343=ORIENTED_EDGE('',*,*,#403,.F.);
#344=ORIENTED_EDGE('',*,*,#478,.F.);
#345=ORIENTED_EDGE('',*,*,#435,.T.);
#346=ORIENTED_EDGE('',*,*,#478,.T.);
#347=ORIENTED_EDGE('',*,*,#402,.F.);
#348=ORIENTED_EDGE('',*,*,#479,.F.);
#349=ORIENTED_EDGE('',*,*,#433,.T.);
#350=ORIENTED_EDGE('',*,*,#479,.T.);
#351=ORIENTED_EDGE('',*,*,#404,.F.);
#352=ORIENTED_EDGE('',*,*,#477,.F.);
#353=ORIENTED_EDGE('',*,*,#437,.T.);
#354=ORIENTED_EDGE('',*,*,#480,.T.);
#355=ORIENTED_EDGE('',*,*,#406,.F.);
#356=ORIENTED_EDGE('',*,*,#481,.F.);
#357=ORIENTED_EDGE('',*,*,#438,.T.);
#358=ORIENTED_EDGE('',*,*,#481,.T.);
#359=ORIENTED_EDGE('',*,*,#405,.F.);
#360=ORIENTED_EDGE('',*,*,#482,.F.);
#361=ORIENTED_EDGE('',*,*,#436,.T.);
#362=ORIENTED_EDGE('',*,*,#482,.T.);
#363=ORIENTED_EDGE('',*,*,#407,.F.);
#364=ORIENTED_EDGE('',*,*,#480,.F.);
#365=ORIENTED_EDGE('',*,*,#440,.T.);
#366=ORIENTED_EDGE('',*,*,#483,.T.);
#367=ORIENTED_EDGE('',*,*,#409,.F.);
#368=ORIENTED_EDGE('',*,*,#484,.F.);
#369=ORIENTED_EDGE('',*,*,#441,.T.);
#370=ORIENTED_EDGE('',*,*,#484,.T.);
#371=ORIENTED_EDGE('',*,*,#408,.F.);
#372=ORIENTED_EDGE('',*,*,#485,.F.);
#373=ORIENTED_EDGE('',*,*,#439,.T.);
#374=ORIENTED_EDGE('',*,*,#485,.T.);
#375=ORIENTED_EDGE('',*,*,#410,.F.);
#376=ORIENTED_EDGE('',*,*,#483,.F.);
#377=ORIENTED_EDGE('',*,*,#443,.T.);
#378=ORIENTED_EDGE('',*,*,#486,.T.);
#379=ORIENTED_EDGE('',*,*,#412,.F.);
#380=ORIENTED_EDGE('',*,*,#487,.F.);
#381=ORIENTED_EDGE('',*,*,#444,.T.);
#382=ORIENTED_EDGE('',*,*,#487,.T.);
#383=ORIENTED_EDGE('',*,*,#411,.F.);
#384=ORIENTED_EDGE('',*,*,#488,.F.);
#385=ORIENTED_EDGE('',*,*,#442,.T.);
#386=ORIENTED_EDGE('',*,*,#488,.T.);
#387=ORIENTED_EDGE('',*,*,#413,.F.);
#388=ORIENTED_EDGE('',*,*,#486,.F.);
#389=EDGE_CURVE('',#489,#489,#561,.T.);
#390=EDGE_CURVE('',#490,#491,#21,.T.);
#391=EDGE_CURVE('',#491,#492,#22,.F.);
#392=EDGE_CURVE('',#492,#493,#23,.T.);
#393=EDGE_CURVE('',#493,#494,#24,.T.);
#394=EDGE_CURVE('',#494,#495,#25,.T.);
#395=EDGE_CURVE('',#495,#496,#26,.T.);
#396=EDGE_CURVE('',#496,#497,#27,.T.);
#397=EDGE_CURVE('',#498,#497,#28,.T.);
#398=EDGE_CURVE('',#498,#499,#29,.T.);
#399=EDGE_CURVE('',#499,#500,#30,.T.);
#400=EDGE_CURVE('',#501,#500,#31,.T.);
#401=EDGE_CURVE('',#501,#490,#32,.T.);
#402=EDGE_CURVE('',#502,#503,#33,.T.);
#403=EDGE_CURVE('',#503,#504,#34,.T.);
#404=EDGE_CURVE('',#504,#502,#35,.T.);
#405=EDGE_CURVE('',#505,#506,#36,.T.);
#406=EDGE_CURVE('',#506,#507,#37,.T.);
#407=EDGE_CURVE('',#507,#505,#38,.T.);
#408=EDGE_CURVE('',#508,#509,#39,.T.);
#409=EDGE_CURVE('',#509,#510,#40,.T.);
#410=EDGE_CURVE('',#510,#508,#41,.T.);
#411=EDGE_CURVE('',#511,#512,#42,.T.);
#412=EDGE_CURVE('',#512,#513,#43,.T.);
#413=EDGE_CURVE('',#513,#511,#44,.T.);
#414=EDGE_CURVE('',#514,#514,#562,.F.);
#415=EDGE_CURVE('',#515,#515,#563,.F.);
#416=EDGE_CURVE('',#516,#516,#564,.T.);
#417=EDGE_CURVE('',#517,#517,#565,.T.);
#418=EDGE_CURVE('',#518,#518,#566,.T.);
#419=EDGE_CURVE('',#519,#520,#45,.T.);
#420=EDGE_CURVE('',#519,#521,#46,.F.);
#421=EDGE_CURVE('',#522,#521,#47,.T.);
#422=EDGE_CURVE('',#523,#522,#48,.T.);
#423=EDGE_CURVE('',#523,#524,#49,.T.);
#424=EDGE_CURVE('',#524,#525,#50,.T.);
#425=EDGE_CURVE('',#526,#525,#51,.T.);
#426=EDGE_CURVE('',#527,#526,#52,.T.);
#427=EDGE_CURVE('',#528,#527,#53,.T.);
#428=EDGE_CURVE('',#529,#528,#54,.T.);
#429=EDGE_CURVE('',#530,#529,#55,.T.);
#430=EDGE_CURVE('',#531,#530,#56,.T.);
#431=EDGE_CURVE('',#532,#531,#57,.T.);
#432=EDGE_CURVE('',#520,#532,#58,.T.);
#433=EDGE_CURVE('',#533,#534,#59,.T.);
#434=EDGE_CURVE('',#535,#533,#60,.T.);
#435=EDGE_CURVE('',#534,#535,#61,.T.);
#436=EDGE_CURVE('',#536,#537,#62,.T.);
#437=EDGE_CURVE('',#538,#536,#63,.T.);
#438=EDGE_CURVE('',#537,#538,#64,.T.);
#439=EDGE_CURVE('',#539,#540,#65,.T.);
#440=EDGE_CURVE('',#541,#539,#66,.T.);
#441=EDGE_CURVE('',#540,#541,#67,.T.);
#442=EDGE_CURVE('',#542,#543,#68,.T.);
#443=EDGE_CURVE('',#544,#542,#69,.T.);
#444=EDGE_CURVE('',#543,#544,#70,.T.);
#445=EDGE_CURVE('',#492,#519,#71,.T.);
#446=EDGE_CURVE('',#493,#520,#72,.T.);
#447=EDGE_CURVE('',#527,#545,#73,.T.);
#448=EDGE_CURVE('',#526,#546,#74,.T.);
#449=EDGE_CURVE('',#545,#546,#75,.T.);
#450=EDGE_CURVE('',#528,#547,#76,.T.);
#451=EDGE_CURVE('',#547,#545,#77,.T.);
#452=EDGE_CURVE('',#529,#548,#78,.T.);
#453=EDGE_CURVE('',#548,#547,#79,.T.);
#454=EDGE_CURVE('',#549,#549,#567,.T.);
#455=EDGE_CURVE('',#550,#550,#568,.T.);
#456=EDGE_CURVE('',#551,#551,#569,.T.);
#457=EDGE_CURVE('',#552,#552,#570,.T.);
#458=EDGE_CURVE('',#553,#554,#80,.T.);
#459=EDGE_CURVE('',#498,#553,#81,.T.);
#460=EDGE_CURVE('',#497,#554,#82,.T.);
#461=EDGE_CURVE('',#525,#499,#83,.T.);
#462=EDGE_CURVE('',#546,#553,#84,.T.);
#463=EDGE_CURVE('',#494,#532,#85,.T.);
#464=EDGE_CURVE('',#495,#531,#86,.T.);
#465=EDGE_CURVE('',#496,#530,#87,.T.);
#466=EDGE_CURVE('',#554,#548,#88,.T.);
#467=EDGE_CURVE('',#555,#555,#571,.F.);
#468=EDGE_CURVE('',#556,#556,#572,.F.);
#469=EDGE_CURVE('',#500,#524,#89,.T.);
#470=EDGE_CURVE('',#523,#501,#90,.T.);
#471=EDGE_CURVE('',#521,#491,#91,.T.);
#472=EDGE_CURVE('',#522,#490,#92,.T.);
#473=EDGE_CURVE('',#557,#557,#573,.T.);
#474=EDGE_CURVE('',#558,#558,#574,.T.);
#475=EDGE_CURVE('',#559,#559,#575,.T.);
#476=EDGE_CURVE('',#560,#560,#576,.T.);
#477=EDGE_CURVE('',#533,#504,#93,.T.);
#478=EDGE_CURVE('',#535,#503,#94,.T.);
#479=EDGE_CURVE('',#534,#502,#95,.T.);
#480=EDGE_CURVE('',#536,#507,#96,.T.);
#481=EDGE_CURVE('',#538,#506,#97,.T.);
#482=EDGE_CURVE('',#537,#505,#98,.T.);
#483=EDGE_CURVE('',#539,#510,#99,.T.);
#484=EDGE_CURVE('',#541,#509,#100,.T.);
#485=EDGE_CURVE('',#540,#508,#101,.T.);
#486=EDGE_CURVE('',#542,#513,#102,.T.);
#487=EDGE_CURVE('',#544,#512,#103,.T.);
#488=EDGE_CURVE('',#543,#511,#104,.T.);
#489=VERTEX_POINT('',#1073);
#490=VERTEX_POINT('',#1075);
#491=VERTEX_POINT('',#1076);
#492=VERTEX_POINT('',#1078);
#493=VERTEX_POINT('',#1080);
#494=VERTEX_POINT('',#1082);
#495=VERTEX_POINT('',#1084);
#496=VERTEX_POINT('',#1086);
#497=VERTEX_POINT('',#1088);
#498=VERTEX_POINT('',#1090);
#499=VERTEX_POINT('',#1092);
#500=VERTEX_POINT('',#1094);
#501=VERTEX_POINT('',#1096);
#502=VERTEX_POINT('',#1099);
#503=VERTEX_POINT('',#1100);
#504=VERTEX_POINT('',#1102);
#505=VERTEX_POINT('',#1105);
#506=VERTEX_POINT('',#1106);
#507=VERTEX_POINT('',#1108);
#508=VERTEX_POINT('',#1111);
#509=VERTEX_POINT('',#1112);
#510=VERTEX_POINT('',#1114);
#511=VERTEX_POINT('',#1117);
#512=VERTEX_POINT('',#1118);
#513=VERTEX_POINT('',#1120);
#514=VERTEX_POINT('',#1124);
#515=VERTEX_POINT('',#1126);
#516=VERTEX_POINT('',#1128);
#517=VERTEX_POINT('',#1130);
#518=VERTEX_POINT('',#1132);
#519=VERTEX_POINT('',#1134);
#520=VERTEX_POINT('',#1135);
#521=VERTEX_POINT('',#1137);
#522=VERTEX_POINT('',#1139);
#523=VERTEX_POINT('',#1141);
#524=VERTEX_POINT('',#1143);
#525=VERTEX_POINT('',#1145);
#526=VERTEX_POINT('',#1147);
#527=VERTEX_POINT('',#1149);
#528=VERTEX_POINT('',#1151);
#529=VERTEX_POINT('',#1153);
#530=VERTEX_POINT('',#1155);
#531=VERTEX_POINT('',#1157);
#532=VERTEX_POINT('',#1159);
#533=VERTEX_POINT('',#1162);
#534=VERTEX_POINT('',#1163);
#535=VERTEX_POINT('',#1165);
#536=VERTEX_POINT('',#1168);
#537=VERTEX_POINT('',#1169);
#538=VERTEX_POINT('',#1171);
#539=VERTEX_POINT('',#1174);
#540=VERTEX_POINT('',#1175);
#541=VERTEX_POINT('',#1177);
#542=VERTEX_POINT('',#1180);
#543=VERTEX_POINT('',#1181);
#544=VERTEX_POINT('',#1183);
#545=VERTEX_POINT('',#1190);
#546=VERTEX_POINT('',#1192);
#547=VERTEX_POINT('',#1196);
#548=VERTEX_POINT('',#1200);
#549=VERTEX_POINT('',#1204);
#550=VERTEX_POINT('',#1206);
#551=VERTEX_POINT('',#1209);
#552=VERTEX_POINT('',#1211);
#553=VERTEX_POINT('',#1214);
#554=VERTEX_POINT('',#1215);
#555=VERTEX_POINT('',#1232);
#556=VERTEX_POINT('',#1236);
#557=VERTEX_POINT('',#1249);
#558=VERTEX_POINT('',#1251);
#559=VERTEX_POINT('',#1254);
#560=VERTEX_POINT('',#1258);
#561=CIRCLE('',#808,0.004);
#562=CIRCLE('',#810,0.0045);
#563=CIRCLE('',#811,0.0045);
#564=CIRCLE('',#812,0.004);
#565=CIRCLE('',#813,0.006);
#566=CIRCLE('',#814,0.006);
#567=CIRCLE('',#820,0.0025);
#568=CIRCLE('',#821,0.0025);
#569=CIRCLE('',#823,0.0025);
#570=CIRCLE('',#824,0.0025);
#571=CIRCLE('',#833,0.006);
#572=CIRCLE('',#836,0.006);
#573=CIRCLE('',#844,0.0011);
#574=CIRCLE('',#845,0.0011);
#575=CIRCLE('',#847,0.0011);
#576=CIRCLE('',#850,0.0011);
#577=EDGE_LOOP('',(#189));
#578=EDGE_LOOP('',(#190,#191,#192,#193,#194,#195,#196,#197,#198,#199,#200,
#201));
#579=EDGE_LOOP('',(#202,#203,#204));
#580=EDGE_LOOP('',(#205,#206,#207));
#581=EDGE_LOOP('',(#208,#209,#210));
#582=EDGE_LOOP('',(#211,#212,#213));
#583=EDGE_LOOP('',(#214));
#584=EDGE_LOOP('',(#215));
#585=EDGE_LOOP('',(#216));
#586=EDGE_LOOP('',(#217));
#587=EDGE_LOOP('',(#218));
#588=EDGE_LOOP('',(#219,#220,#221,#222,#223,#224,#225,#226,#227,#228,#229,
#230,#231,#232));
#589=EDGE_LOOP('',(#233,#234,#235));
#590=EDGE_LOOP('',(#236,#237,#238));
#591=EDGE_LOOP('',(#239,#240,#241));
#592=EDGE_LOOP('',(#242,#243,#244));
#593=EDGE_LOOP('',(#245,#246,#247,#248));
#594=EDGE_LOOP('',(#249,#250,#251,#252));
#595=EDGE_LOOP('',(#253,#254,#255,#256));
#596=EDGE_LOOP('',(#257,#258,#259,#260));
#597=EDGE_LOOP('',(#261));
#598=EDGE_LOOP('',(#262));
#599=EDGE_LOOP('',(#263));
#600=EDGE_LOOP('',(#264));
#601=EDGE_LOOP('',(#265,#266,#267,#268));
#602=EDGE_LOOP('',(#269,#270,#271,#272,#273,#274));
#603=EDGE_LOOP('',(#275,#276,#277,#278));
#604=EDGE_LOOP('',(#279,#280,#281,#282));
#605=EDGE_LOOP('',(#283,#284,#285,#286));
#606=EDGE_LOOP('',(#287,#288,#289,#290,#291,#292));
#607=EDGE_LOOP('',(#293,#294,#295,#296,#297,#298));
#608=EDGE_LOOP('',(#299));
#609=EDGE_LOOP('',(#300));
#610=EDGE_LOOP('',(#301));
#611=EDGE_LOOP('',(#302));
#612=EDGE_LOOP('',(#303));
#613=EDGE_LOOP('',(#304));
#614=EDGE_LOOP('',(#305));
#615=EDGE_LOOP('',(#306));
#616=EDGE_LOOP('',(#307));
#617=EDGE_LOOP('',(#308));
#618=EDGE_LOOP('',(#309));
#619=EDGE_LOOP('',(#310));
#620=EDGE_LOOP('',(#311));
#621=EDGE_LOOP('',(#312));
#622=EDGE_LOOP('',(#313,#314,#315,#316));
#623=EDGE_LOOP('',(#317,#318,#319,#320));
#624=EDGE_LOOP('',(#321));
#625=EDGE_LOOP('',(#322));
#626=EDGE_LOOP('',(#323,#324,#325,#326));
#627=EDGE_LOOP('',(#327));
#628=EDGE_LOOP('',(#328));
#629=EDGE_LOOP('',(#329));
#630=EDGE_LOOP('',(#330));
#631=EDGE_LOOP('',(#331));
#632=EDGE_LOOP('',(#332));
#633=EDGE_LOOP('',(#333,#334,#335,#336));
#634=EDGE_LOOP('',(#337,#338,#339,#340));
#635=EDGE_LOOP('',(#341,#342,#343,#344));
#636=EDGE_LOOP('',(#345,#346,#347,#348));
#637=EDGE_LOOP('',(#349,#350,#351,#352));
#638=EDGE_LOOP('',(#353,#354,#355,#356));
#639=EDGE_LOOP('',(#357,#358,#359,#360));
#640=EDGE_LOOP('',(#361,#362,#363,#364));
#641=EDGE_LOOP('',(#365,#366,#367,#368));
#642=EDGE_LOOP('',(#369,#370,#371,#372));
#643=EDGE_LOOP('',(#373,#374,#375,#376));
#644=EDGE_LOOP('',(#377,#378,#379,#380));
#645=EDGE_LOOP('',(#381,#382,#383,#384));
#646=EDGE_LOOP('',(#385,#386,#387,#388));
#647=FACE_BOUND('',#577,.T.);
#648=FACE_BOUND('',#578,.T.);
#649=FACE_BOUND('',#579,.T.);
#650=FACE_BOUND('',#580,.T.);
#651=FACE_BOUND('',#581,.T.);
#652=FACE_BOUND('',#582,.T.);
#653=FACE_BOUND('',#583,.T.);
#654=FACE_BOUND('',#584,.T.);
#655=FACE_BOUND('',#585,.T.);
#656=FACE_BOUND('',#586,.T.);
#657=FACE_BOUND('',#587,.T.);
#658=FACE_BOUND('',#588,.T.);
#659=FACE_BOUND('',#589,.T.);
#660=FACE_BOUND('',#590,.T.);
#661=FACE_BOUND('',#591,.T.);
#662=FACE_BOUND('',#592,.T.);
#663=FACE_BOUND('',#593,.T.);
#664=FACE_BOUND('',#594,.T.);
#665=FACE_BOUND('',#595,.T.);
#666=FACE_BOUND('',#596,.T.);
#667=FACE_BOUND('',#597,.T.);
#668=FACE_BOUND('',#598,.T.);
#669=FACE_BOUND('',#599,.T.);
#670=FACE_BOUND('',#600,.T.);
#671=FACE_BOUND('',#601,.T.);
#672=FACE_BOUND('',#602,.T.);
#673=FACE_BOUND('',#603,.T.);
#674=FACE_BOUND('',#604,.T.);
#675=FACE_BOUND('',#605,.T.);
#676=FACE_BOUND('',#606,.T.);
#677=FACE_BOUND('',#607,.T.);
#678=FACE_BOUND('',#608,.T.);
#679=FACE_BOUND('',#609,.T.);
#680=FACE_BOUND('',#610,.T.);
#681=FACE_BOUND('',#611,.T.);
#682=FACE_BOUND('',#612,.T.);
#683=FACE_BOUND('',#613,.T.);
#684=FACE_BOUND('',#614,.T.);
#685=FACE_BOUND('',#615,.T.);
#686=FACE_BOUND('',#616,.T.);
#687=FACE_BOUND('',#617,.T.);
#688=FACE_BOUND('',#618,.T.);
#689=FACE_BOUND('',#619,.T.);
#690=FACE_BOUND('',#620,.T.);
#691=FACE_BOUND('',#621,.T.);
#692=FACE_BOUND('',#622,.T.);
#693=FACE_BOUND('',#623,.T.);
#694=FACE_BOUND('',#624,.T.);
#695=FACE_BOUND('',#625,.T.);
#696=FACE_BOUND('',#626,.T.);
#697=FACE_BOUND('',#627,.T.);
#698=FACE_BOUND('',#628,.T.);
#699=FACE_BOUND('',#629,.T.);
#700=FACE_BOUND('',#630,.T.);
#701=FACE_BOUND('',#631,.T.);
#702=FACE_BOUND('',#632,.T.);
#703=FACE_BOUND('',#633,.T.);
#704=FACE_BOUND('',#634,.T.);
#705=FACE_BOUND('',#635,.T.);
#706=FACE_BOUND('',#636,.T.);
#707=FACE_BOUND('',#637,.T.);
#708=FACE_BOUND('',#638,.T.);
#709=FACE_BOUND('',#639,.T.);
#710=FACE_BOUND('',#640,.T.);
#711=FACE_BOUND('',#641,.T.);
#712=FACE_BOUND('',#642,.T.);
#713=FACE_BOUND('',#643,.T.);
#714=FACE_BOUND('',#644,.T.);
#715=FACE_BOUND('',#645,.T.);
#716=FACE_BOUND('',#646,.T.);
#717=PLANE('',#807);
#718=PLANE('',#809);
#719=PLANE('',#815);
#720=PLANE('',#816);
#721=PLANE('',#817);
#722=PLANE('',#818);
#723=PLANE('',#825);
#724=PLANE('',#826);
#725=PLANE('',#827);
#726=PLANE('',#828);
#727=PLANE('',#829);
#728=PLANE('',#830);
#729=PLANE('',#831);
#730=PLANE('',#832);
#731=PLANE('',#835);
#732=PLANE('',#841);
#733=PLANE('',#842);
#734=PLANE('',#843);
#735=PLANE('',#848);
#736=PLANE('',#851);
#737=PLANE('',#852);
#738=PLANE('',#853);
#739=PLANE('',#854);
#740=PLANE('',#855);
#741=PLANE('',#856);
#742=PLANE('',#857);
#743=PLANE('',#858);
#744=PLANE('',#859);
#745=PLANE('',#860);
#746=PLANE('',#861);
#747=PLANE('',#862);
#748=PLANE('',#863);
#749=PLANE('',#864);
#750=PLANE('',#865);
#751=ADVANCED_FACE('',(#647,#648,#649,#650,#651,#652),#717,.T.);
#752=ADVANCED_FACE('',(#653,#654,#655,#656,#657,#658,#659,#660,#661,#662),
#718,.T.);
#753=ADVANCED_FACE('',(#663),#719,.F.);
#754=ADVANCED_FACE('',(#664),#720,.T.);
#755=ADVANCED_FACE('',(#665),#721,.T.);
#756=ADVANCED_FACE('',(#666),#722,.T.);
#757=ADVANCED_FACE('',(#667,#668),#14,.F.);
#758=ADVANCED_FACE('',(#669,#670),#15,.F.);
#759=ADVANCED_FACE('',(#671),#723,.T.);
#760=ADVANCED_FACE('',(#672),#724,.F.);
#761=ADVANCED_FACE('',(#673),#725,.F.);
#762=ADVANCED_FACE('',(#674),#726,.F.);
#763=ADVANCED_FACE('',(#675),#727,.F.);
#764=ADVANCED_FACE('',(#676),#728,.F.);
#765=ADVANCED_FACE('',(#677,#678,#679),#729,.T.);
#766=ADVANCED_FACE('',(#680),#730,.F.);
#767=ADVANCED_FACE('',(#681,#682),#16,.F.);
#768=ADVANCED_FACE('',(#683),#731,.F.);
#769=ADVANCED_FACE('',(#684,#685),#17,.F.);
#770=ADVANCED_FACE('',(#686,#687),#18,.F.);
#771=ADVANCED_FACE('',(#688,#689),#12,.F.);
#772=ADVANCED_FACE('',(#690,#691),#13,.F.);
#773=ADVANCED_FACE('',(#692),#732,.T.);
#774=ADVANCED_FACE('',(#693),#733,.F.);
#775=ADVANCED_FACE('',(#694,#695,#696),#734,.T.);
#776=ADVANCED_FACE('',(#697,#698),#19,.F.);
#777=ADVANCED_FACE('',(#699),#735,.T.);
#778=ADVANCED_FACE('',(#700,#701),#20,.F.);
#779=ADVANCED_FACE('',(#702),#736,.T.);
#780=ADVANCED_FACE('',(#703),#737,.F.);
#781=ADVANCED_FACE('',(#704),#738,.T.);
#782=ADVANCED_FACE('',(#705),#739,.T.);
#783=ADVANCED_FACE('',(#706),#740,.T.);
#784=ADVANCED_FACE('',(#707),#741,.T.);
#785=ADVANCED_FACE('',(#708),#742,.T.);
#786=ADVANCED_FACE('',(#709),#743,.T.);
#787=ADVANCED_FACE('',(#710),#744,.T.);
#788=ADVANCED_FACE('',(#711),#745,.T.);
#789=ADVANCED_FACE('',(#712),#746,.T.);
#790=ADVANCED_FACE('',(#713),#747,.T.);
#791=ADVANCED_FACE('',(#714),#748,.T.);
#792=ADVANCED_FACE('',(#715),#749,.T.);
#793=ADVANCED_FACE('',(#716),#750,.T.);
#794=CLOSED_SHELL('',(#751,#752,#753,#754,#755,#756,#757,#758,#759,#760,
#761,#762,#763,#764,#765,#766,#767,#768,#769,#770,#771,#772,#773,#774,#775,
#776,#777,#778,#779,#780,#781,#782,#783,#784,#785,#786,#787,#788,#789,#790,
#791,#792,#793));
#795=STYLED_ITEM('',(#796),#803);
#796=PRESENTATION_STYLE_ASSIGNMENT((#797));
#797=SURFACE_STYLE_USAGE(.BOTH.,#798);
#798=SURFACE_SIDE_STYLE('',(#799));
#799=SURFACE_STYLE_FILL_AREA(#800);
#800=FILL_AREA_STYLE('',(#801));
#801=FILL_AREA_STYLE_COLOUR('',#802);
#802=COLOUR_RGB('',0.866666666666667,0.32156862745098,0.156862745098039);
#803=MANIFOLD_SOLID_BREP('Z-TopMount',#794);
#804=SHAPE_DEFINITION_REPRESENTATION(#1292,#805);
#805=SHAPE_REPRESENTATION('Z-TopMount',(#806),#1287);
#806=AXIS2_PLACEMENT_3D('',#1070,#866,#867);
#807=AXIS2_PLACEMENT_3D('',#1071,#868,#869);
#808=AXIS2_PLACEMENT_3D('',#1072,#870,#871);
#809=AXIS2_PLACEMENT_3D('',#1122,#896,#897);
#810=AXIS2_PLACEMENT_3D('',#1123,#898,#899);
#811=AXIS2_PLACEMENT_3D('',#1125,#900,#901);
#812=AXIS2_PLACEMENT_3D('',#1127,#902,#903);
#813=AXIS2_PLACEMENT_3D('',#1129,#904,#905);
#814=AXIS2_PLACEMENT_3D('',#1131,#906,#907);
#815=AXIS2_PLACEMENT_3D('',#1185,#934,#935);
#816=AXIS2_PLACEMENT_3D('',#1188,#938,#939);
#817=AXIS2_PLACEMENT_3D('',#1194,#943,#944);
#818=AXIS2_PLACEMENT_3D('',#1198,#947,#948);
#819=AXIS2_PLACEMENT_3D('',#1202,#951,#952);
#820=AXIS2_PLACEMENT_3D('',#1203,#953,#954);
#821=AXIS2_PLACEMENT_3D('',#1205,#955,#956);
#822=AXIS2_PLACEMENT_3D('',#1207,#957,#958);
#823=AXIS2_PLACEMENT_3D('',#1208,#959,#960);
#824=AXIS2_PLACEMENT_3D('',#1210,#961,#962);
#825=AXIS2_PLACEMENT_3D('',#1212,#963,#964);
#826=AXIS2_PLACEMENT_3D('',#1218,#968,#969);
#827=AXIS2_PLACEMENT_3D('',#1221,#972,#973);
#828=AXIS2_PLACEMENT_3D('',#1223,#975,#976);
#829=AXIS2_PLACEMENT_3D('',#1225,#978,#979);
#830=AXIS2_PLACEMENT_3D('',#1227,#981,#982);
#831=AXIS2_PLACEMENT_3D('',#1229,#984,#985);
#832=AXIS2_PLACEMENT_3D('',#1230,#986,#987);
#833=AXIS2_PLACEMENT_3D('',#1231,#988,#989);
#834=AXIS2_PLACEMENT_3D('',#1233,#990,#991);
#835=AXIS2_PLACEMENT_3D('',#1234,#992,#993);
#836=AXIS2_PLACEMENT_3D('',#1235,#994,#995);
#837=AXIS2_PLACEMENT_3D('',#1237,#996,#997);
#838=AXIS2_PLACEMENT_3D('',#1238,#998,#999);
#839=AXIS2_PLACEMENT_3D('',#1239,#1000,#1001);
#840=AXIS2_PLACEMENT_3D('',#1240,#1002,#1003);
#841=AXIS2_PLACEMENT_3D('',#1241,#1004,#1005);
#842=AXIS2_PLACEMENT_3D('',#1244,#1008,#1009);
#843=AXIS2_PLACEMENT_3D('',#1247,#1012,#1013);
#844=AXIS2_PLACEMENT_3D('',#1248,#1014,#1015);
#845=AXIS2_PLACEMENT_3D('',#1250,#1016,#1017);
#846=AXIS2_PLACEMENT_3D('',#1252,#1018,#1019);
#847=AXIS2_PLACEMENT_3D('',#1253,#1020,#1021);
#848=AXIS2_PLACEMENT_3D('',#1255,#1022,#1023);
#849=AXIS2_PLACEMENT_3D('',#1256,#1024,#1025);
#850=AXIS2_PLACEMENT_3D('',#1257,#1026,#1027);
#851=AXIS2_PLACEMENT_3D('',#1259,#1028,#1029);
#852=AXIS2_PLACEMENT_3D('',#1260,#1030,#1031);
#853=AXIS2_PLACEMENT_3D('',#1261,#1032,#1033);
#854=AXIS2_PLACEMENT_3D('',#1262,#1034,#1035);
#855=AXIS2_PLACEMENT_3D('',#1265,#1038,#1039);
#856=AXIS2_PLACEMENT_3D('',#1267,#1041,#1042);
#857=AXIS2_PLACEMENT_3D('',#1268,#1043,#1044);
#858=AXIS2_PLACEMENT_3D('',#1271,#1047,#1048);
#859=AXIS2_PLACEMENT_3D('',#1273,#1050,#1051);
#860=AXIS2_PLACEMENT_3D('',#1274,#1052,#1053);
#861=AXIS2_PLACEMENT_3D('',#1277,#1056,#1057);
#862=AXIS2_PLACEMENT_3D('',#1279,#1059,#1060);
#863=AXIS2_PLACEMENT_3D('',#1280,#1061,#1062);
#864=AXIS2_PLACEMENT_3D('',#1283,#1065,#1066);
#865=AXIS2_PLACEMENT_3D('',#1285,#1068,#1069);
#866=DIRECTION('',(0.,0.,1.));
#867=DIRECTION('',(1.,0.,0.));
#868=DIRECTION('',(0.,0.,1.));
#869=DIRECTION('',(1.,0.,0.));
#870=DIRECTION('',(0.,0.,1.));
#871=DIRECTION('',(1.,0.,0.));
#872=DIRECTION('',(0.,-1.,0.));
#873=DIRECTION('',(-0.707106781186548,0.707106781186548,0.));
#874=DIRECTION('',(1.,0.,0.));
#875=DIRECTION('',(0.707106781186548,0.707106781186548,0.));
#876=DIRECTION('',(0.,1.,0.));
#877=DIRECTION('',(-0.707106781186548,0.707106781186547,0.));
#878=DIRECTION('',(-1.,0.,0.));
#879=DIRECTION('',(0.,1.,0.));
#880=DIRECTION('',(1.,0.,0.));
#881=DIRECTION('',(0.707106781186548,0.707106781186548,0.));
#882=DIRECTION('',(0.,-1.,0.));
#883=DIRECTION('',(1.,0.,0.));
#884=DIRECTION('',(0.,-1.,0.));
#885=DIRECTION('',(-0.484122918275927,0.875,0.));
#886=DIRECTION('',(0.968245836551854,0.25,0.));
#887=DIRECTION('',(-0.968245836551854,-0.25,0.));
#888=DIRECTION('',(0.,1.,0.));
#889=DIRECTION('',(0.484122918275927,-0.875,0.));
#890=DIRECTION('',(0.,-1.,0.));
#891=DIRECTION('',(-0.484122918275927,0.875,0.));
#892=DIRECTION('',(0.968245836551854,0.25,0.));
#893=DIRECTION('',(-0.968245836551854,-0.25,0.));
#894=DIRECTION('',(0.,1.,0.));
#895=DIRECTION('',(0.484122918275927,-0.875,0.));
#896=DIRECTION('',(0.,0.,-1.));
#897=DIRECTION('',(1.,0.,0.));
#898=DIRECTION('',(0.,0.,-1.));
#899=DIRECTION('',(-1.,0.,0.));
#900=DIRECTION('',(0.,0.,-1.));
#901=DIRECTION('',(-1.,0.,0.));
#902=DIRECTION('',(0.,0.,-1.));
#903=DIRECTION('',(-1.,0.,0.));
#904=DIRECTION('',(0.,0.,-1.));
#905=DIRECTION('',(-1.,0.,0.));
#906=DIRECTION('',(0.,0.,-1.));
#907=DIRECTION('',(-1.,0.,0.));
#908=DIRECTION('',(1.,0.,0.));
#909=DIRECTION('',(0.707106781186548,-0.707106781186548,0.));
#910=DIRECTION('',(0.,-1.,0.));
#911=DIRECTION('',(1.,0.,0.));
#912=DIRECTION('',(0.,-1.,0.));
#913=DIRECTION('',(-0.707106781186548,-0.707106781186548,0.));
#914=DIRECTION('',(1.,0.,0.));
#915=DIRECTION('',(0.707106781186545,-0.70710678118655,0.));
#916=DIRECTION('',(0.,-1.,0.));
#917=DIRECTION('',(-0.707106781186548,-0.707106781186547,0.));
#918=DIRECTION('',(-1.,0.,0.));
#919=DIRECTION('',(-0.707106781186548,0.707106781186547,0.));
#920=DIRECTION('',(0.,1.,0.));
#921=DIRECTION('',(0.707106781186548,0.707106781186548,0.));
#922=DIRECTION('',(0.968245836551854,0.25,0.));
#923=DIRECTION('',(-0.484122918275927,0.875,0.));
#924=DIRECTION('',(0.,-1.,0.));
#925=DIRECTION('',(0.484122918275927,-0.875,0.));
#926=DIRECTION('',(0.,1.,0.));
#927=DIRECTION('',(-0.968245836551854,-0.25,0.));
#928=DIRECTION('',(0.968245836551854,0.25,0.));
#929=DIRECTION('',(-0.484122918275927,0.875,0.));
#930=DIRECTION('',(0.,-1.,0.));
#931=DIRECTION('',(0.484122918275927,-0.875,0.));
#932=DIRECTION('',(0.,1.,0.));
#933=DIRECTION('',(-0.968245836551854,-0.25,0.));
#934=DIRECTION('',(0.,1.,0.));
#935=DIRECTION('',(0.,0.,1.));
#936=DIRECTION('',(0.,0.,-1.));
#937=DIRECTION('',(0.,0.,-1.));
#938=DIRECTION('',(-0.70710678118655,-0.707106781186545,0.));
#939=DIRECTION('',(0.707106781186545,-0.70710678118655,0.));
#940=DIRECTION('',(0.,0.,1.));
#941=DIRECTION('',(0.,0.,1.));
#942=DIRECTION('',(0.707106781186545,-0.70710678118655,0.));
#943=DIRECTION('',(-1.,0.,0.));
#944=DIRECTION('',(0.,0.,1.));
#945=DIRECTION('',(0.,0.,1.));
#946=DIRECTION('',(0.,-1.,0.));
#947=DIRECTION('',(-0.707106781186547,0.707106781186548,0.));
#948=DIRECTION('',(-0.707106781186548,-0.707106781186547,0.));
#949=DIRECTION('',(0.,0.,1.));
#950=DIRECTION('',(-0.707106781186548,-0.707106781186547,0.));
#951=DIRECTION('',(0.,0.,1.));
#952=DIRECTION('',(1.,0.,0.));
#953=DIRECTION('',(0.,0.,-1.));
#954=DIRECTION('',(-1.,0.,0.));
#955=DIRECTION('',(0.,0.,-1.));
#956=DIRECTION('',(-1.,0.,0.));
#957=DIRECTION('',(0.,0.,1.));
#958=DIRECTION('',(1.,0.,0.));
#959=DIRECTION('',(0.,0.,-1.));
#960=DIRECTION('',(-1.,0.,0.));
#961=DIRECTION('',(0.,0.,-1.));
#962=DIRECTION('',(-1.,0.,0.));
#963=DIRECTION('',(-1.,0.,0.));
#964=DIRECTION('',(0.,0.,1.));
#965=DIRECTION('',(0.,1.,0.));
#966=DIRECTION('',(0.,0.,-1.));
#967=DIRECTION('',(0.,0.,-1.));
#968=DIRECTION('',(0.,1.,0.));
#969=DIRECTION('',(0.,0.,1.));
#970=DIRECTION('',(0.,0.,1.));
#971=DIRECTION('',(1.,0.,0.));
#972=DIRECTION('',(-0.707106781186548,0.707106781186548,0.));
#973=DIRECTION('',(-0.707106781186548,-0.707106781186548,0.));
#974=DIRECTION('',(0.,0.,-1.));
#975=DIRECTION('',(-1.,0.,0.));
#976=DIRECTION('',(0.,0.,1.));
#977=DIRECTION('',(0.,0.,-1.));
#978=DIRECTION('',(-0.707106781186547,-0.707106781186548,0.));
#979=DIRECTION('',(0.707106781186548,-0.707106781186547,0.));
#980=DIRECTION('',(0.,0.,-1.));
#981=DIRECTION('',(0.,-1.,0.));
#982=DIRECTION('',(0.,0.,-1.));
#983=DIRECTION('',(-1.,0.,0.));
#984=DIRECTION('',(0.,0.,1.));
#985=DIRECTION('',(1.,0.,0.));
#986=DIRECTION('',(0.,0.,1.));
#987=DIRECTION('',(1.,0.,0.));
#988=DIRECTION('',(0.,0.,1.));
#989=DIRECTION('',(1.,0.,0.));
#990=DIRECTION('',(0.,0.,1.));
#991=DIRECTION('',(1.,0.,0.));
#992=DIRECTION('',(0.,0.,1.));
#993=DIRECTION('',(1.,0.,0.));
#994=DIRECTION('',(0.,0.,1.));
#995=DIRECTION('',(1.,0.,0.));
#996=DIRECTION('',(0.,0.,1.));
#997=DIRECTION('',(1.,0.,0.));
#998=DIRECTION('',(0.,0.,-1.));
#999=DIRECTION('',(-1.,0.,0.));
#1000=DIRECTION('',(0.,0.,-1.));
#1001=DIRECTION('',(-1.,0.,0.));
#1002=DIRECTION('',(0.,0.,-1.));
#1003=DIRECTION('',(-1.,0.,0.));
#1004=DIRECTION('',(1.,0.,0.));
#1005=DIRECTION('',(0.,0.,-1.));
#1006=DIRECTION('',(0.,0.,-1.));
#1007=DIRECTION('',(0.,0.,1.));
#1008=DIRECTION('',(1.,0.,0.));
#1009=DIRECTION('',(0.,0.,-1.));
#1010=DIRECTION('',(0.,0.,1.));
#1011=DIRECTION('',(0.,0.,1.));
#1012=DIRECTION('',(0.,-1.,0.));
#1013=DIRECTION('',(1.,0.,0.));
#1014=DIRECTION('',(0.,-1.,0.));
#1015=DIRECTION('',(0.,0.,-1.));
#1016=DIRECTION('',(0.,-1.,0.));
#1017=DIRECTION('',(0.,0.,-1.));
#1018=DIRECTION('',(0.,-1.,0.));
#1019=DIRECTION('',(0.,0.,-1.));
#1020=DIRECTION('',(0.,-1.,0.));
#1021=DIRECTION('',(0.,0.,-1.));
#1022=DIRECTION('',(0.,-1.,0.));
#1023=DIRECTION('',(1.,0.,0.));
#1024=DIRECTION('',(0.,-1.,0.));
#1025=DIRECTION('',(0.,0.,-1.));
#1026=DIRECTION('',(0.,-1.,0.));
#1027=DIRECTION('',(0.,0.,-1.));
#1028=DIRECTION('',(0.,-1.,0.));
#1029=DIRECTION('',(1.,0.,0.));
#1030=DIRECTION('',(0.707106781186548,0.707106781186548,0.));
#1031=DIRECTION('',(0.,0.,1.));
#1032=DIRECTION('',(0.707106781186548,-0.707106781186548,0.));
#1033=DIRECTION('',(0.,0.,-1.));
#1034=DIRECTION('',(0.875,0.484122918275927,0.));
#1035=DIRECTION('',(-0.484122918275927,0.875,0.));
#1036=DIRECTION('',(0.,0.,1.));
#1037=DIRECTION('',(0.,0.,1.));
#1038=DIRECTION('',(-1.,0.,0.));
#1039=DIRECTION('',(0.,0.,1.));
#1040=DIRECTION('',(0.,0.,1.));
#1041=DIRECTION('',(0.25,-0.968245836551854,0.));
#1042=DIRECTION('',(0.968245836551854,0.25,0.));
#1043=DIRECTION('',(1.,0.,0.));
#1044=DIRECTION('',(0.,0.,-1.));
#1045=DIRECTION('',(0.,0.,1.));
#1046=DIRECTION('',(0.,0.,1.));
#1047=DIRECTION('',(-0.25,0.968245836551854,0.));
#1048=DIRECTION('',(-0.968245836551854,-0.25,0.));
#1049=DIRECTION('',(0.,0.,1.));
#1050=DIRECTION('',(-0.875,-0.484122918275927,0.));
#1051=DIRECTION('',(0.484122918275927,-0.875,0.));
#1052=DIRECTION('',(0.875,0.484122918275927,0.));
#1053=DIRECTION('',(-0.484122918275927,0.875,0.));
#1054=DIRECTION('',(0.,0.,1.));
#1055=DIRECTION('',(0.,0.,1.));
#1056=DIRECTION('',(-1.,0.,0.));
#1057=DIRECTION('',(0.,0.,1.));
#1058=DIRECTION('',(0.,0.,1.));
#1059=DIRECTION('',(0.25,-0.968245836551854,0.));
#1060=DIRECTION('',(0.968245836551854,0.25,0.));
#1061=DIRECTION('',(1.,0.,0.));
#1062=DIRECTION('',(0.,0.,-1.));
#1063=DIRECTION('',(0.,0.,1.));
#1064=DIRECTION('',(0.,0.,1.));
#1065=DIRECTION('',(-0.25,0.968245836551854,0.));
#1066=DIRECTION('',(-0.968245836551854,-0.25,0.));
#1067=DIRECTION('',(0.,0.,1.));
#1068=DIRECTION('',(-0.875,-0.484122918275927,0.));
#1069=DIRECTION('',(0.484122918275927,-0.875,0.));
#1070=CARTESIAN_POINT('',(0.,0.,0.));
#1071=CARTESIAN_POINT('',(0.030538696047054,-0.0185,0.324506029657602));
#1072=CARTESIAN_POINT('',(-0.141955178741093,-0.0185,0.324506029657602));
#1073=CARTESIAN_POINT('',(-0.137955178741093,-0.0185,0.324506029657602));
#1074=CARTESIAN_POINT('',(-0.138736132310247,-0.0885,0.324506029657602));
#1075=CARTESIAN_POINT('',(-0.138736132310247,-0.0885,0.324506029657602));
#1076=CARTESIAN_POINT('',(-0.138736132310247,-0.0955,0.324506029657602));
#1077=CARTESIAN_POINT('',(-0.0925987181315965,-0.14163741417865,0.324506029657602));
#1078=CARTESIAN_POINT('',(-0.135736132310247,-0.0985,0.324506029657602));
#1079=CARTESIAN_POINT('',(-0.15164565552567,-0.0985,0.324506029657602));
#1080=CARTESIAN_POINT('',(-0.128805178741093,-0.0985,0.324506029657602));
#1081=CARTESIAN_POINT('',(-0.124805178741093,-0.0945,0.324506029657602));
#1082=CARTESIAN_POINT('',(-0.120805178741093,-0.0905,0.324506029657602));
#1083=CARTESIAN_POINT('',(-0.120805178741093,-0.0185,0.324506029657602));
#1084=CARTESIAN_POINT('',(-0.120805178741093,0.0535,0.324506029657602));
#1085=CARTESIAN_POINT('',(-0.124805178741093,0.0575,0.324506029657602));
#1086=CARTESIAN_POINT('',(-0.128805178741093,0.0615,0.324506029657602));
#1087=CARTESIAN_POINT('',(-0.15164565552567,0.0615,0.324506029657602));
#1088=CARTESIAN_POINT('',(-0.162986132310247,0.0615,0.324506029657602));
#1089=CARTESIAN_POINT('',(-0.162986132310247,-0.0185,0.324506029657602));
#1090=CARTESIAN_POINT('',(-0.162986132310247,-0.0985,0.324506029657602));
#1091=CARTESIAN_POINT('',(-0.15164565552567,-0.0985,0.324506029657602));
#1092=CARTESIAN_POINT('',(-0.155736132310247,-0.0985,0.324506029657602));
#1093=CARTESIAN_POINT('',(-0.0225987181315965,0.0346374141786505,0.324506029657602));
#1094=CARTESIAN_POINT('',(-0.152736132310247,-0.0955,0.324506029657602));
#1095=CARTESIAN_POINT('',(-0.152736132310247,-0.0885,0.324506029657602));
#1096=CARTESIAN_POINT('',(-0.152736132310247,-0.0885,0.324506029657602));
#1097=CARTESIAN_POINT('',(-0.15164565552567,-0.0885,0.324506029657602));
#1098=CARTESIAN_POINT('',(-0.128805178741093,-0.0435310268666772,0.324506029657602));
#1099=CARTESIAN_POINT('',(-0.128805178741093,-0.0285310268666772,0.324506029657602));
#1100=CARTESIAN_POINT('',(-0.128805178741093,-0.0585310268666772,0.324506029657602));
#1101=CARTESIAN_POINT('',(-0.136067022515232,-0.0454060268666772,0.324506029657602));
#1102=CARTESIAN_POINT('',(-0.143328866289371,-0.0322810268666772,0.324506029657602));
#1103=CARTESIAN_POINT('',(-0.136067022515232,-0.0304060268666772,0.324506029657602));
#1104=CARTESIAN_POINT('',(-0.147553279428728,-0.00748190266297076,0.324506029657602));
#1105=CARTESIAN_POINT('',(-0.140291435654589,-0.00560690266297076,0.324506029657602));
#1106=CARTESIAN_POINT('',(-0.154815123202867,-0.00935690266297077,0.324506029657602));
#1107=CARTESIAN_POINT('',(-0.154815123202867,0.00564309733702924,0.324506029657602));
#1108=CARTESIAN_POINT('',(-0.154815123202867,0.0206430973370292,0.324506029657602));
#1109=CARTESIAN_POINT('',(-0.147553279428728,0.00751809733702922,0.324506029657602));
#1110=CARTESIAN_POINT('',(-0.128805178741093,0.00564309733702923,0.324506029657602));
#1111=CARTESIAN_POINT('',(-0.128805178741093,0.0206430973370292,0.324506029657602));
#1112=CARTESIAN_POINT('',(-0.128805178741093,-0.00935690266297077,0.324506029657602));
#1113=CARTESIAN_POINT('',(-0.136067022515232,0.00376809733702924,0.324506029657602));
#1114=CARTESIAN_POINT('',(-0.143328866289371,0.0168930973370292,0.324506029657602));
#1115=CARTESIAN_POINT('',(-0.136067022515232,0.0187680973370292,0.324506029657602));
#1116=CARTESIAN_POINT('',(-0.147553279428728,-0.0566560268666772,0.324506029657602));
#1117=CARTESIAN_POINT('',(-0.140291435654589,-0.0547810268666772,0.324506029657602));
#1118=CARTESIAN_POINT('',(-0.154815123202867,-0.0585310268666772,0.324506029657602));
#1119=CARTESIAN_POINT('',(-0.154815123202867,-0.0435310268666771,0.324506029657602));
#1120=CARTESIAN_POINT('',(-0.154815123202867,-0.0285310268666772,0.324506029657602));
#1121=CARTESIAN_POINT('',(-0.147553279428728,-0.0416560268666772,0.324506029657602));
#1122=CARTESIAN_POINT('',(0.040288696047054,-0.0188810511188456,0.304506029657602));
#1123=CARTESIAN_POINT('',(-0.173139499088135,0.03165,0.304506029657602));
#1124=CARTESIAN_POINT('',(-0.177639499088135,0.03165,0.304506029657602));
#1125=CARTESIAN_POINT('',(-0.173139499088135,-0.06835,0.304506029657602));
#1126=CARTESIAN_POINT('',(-0.177639499088135,-0.06835,0.304506029657602));
#1127=CARTESIAN_POINT('',(-0.141955178741093,-0.0185,0.304506029657602));
#1128=CARTESIAN_POINT('',(-0.145955178741093,-0.0185,0.304506029657602));
#1129=CARTESIAN_POINT('',(-0.141955178741093,-0.0735,0.304506029657602));
#1130=CARTESIAN_POINT('',(-0.147955178741093,-0.0735,0.304506029657602));
#1131=CARTESIAN_POINT('',(-0.141955178741093,0.0365,0.304506029657602));
#1132=CARTESIAN_POINT('',(-0.147955178741093,0.0365,0.304506029657602));
#1133=CARTESIAN_POINT('',(-0.15164565552567,-0.0985,0.304506029657602));
#1134=CARTESIAN_POINT('',(-0.135736132310247,-0.0985,0.304506029657602));
#1135=CARTESIAN_POINT('',(-0.128805178741093,-0.0985,0.304506029657602));
#1136=CARTESIAN_POINT('',(-0.0875331925721737,-0.146702939738073,0.304506029657602));
#1137=CARTESIAN_POINT('',(-0.138736132310247,-0.0955,0.304506029657602));
#1138=CARTESIAN_POINT('',(-0.138736132310247,-0.0885,0.304506029657602));
#1139=CARTESIAN_POINT('',(-0.138736132310247,-0.0885,0.304506029657602));
#1140=CARTESIAN_POINT('',(-0.15164565552567,-0.0885,0.304506029657602));
#1141=CARTESIAN_POINT('',(-0.152736132310247,-0.0885,0.304506029657602));
#1142=CARTESIAN_POINT('',(-0.152736132310247,-0.0885,0.304506029657602));
#1143=CARTESIAN_POINT('',(-0.152736132310247,-0.0955,0.304506029657602));
#1144=CARTESIAN_POINT('',(-0.0179142436910193,0.0393218886192278,0.304506029657602));
#1145=CARTESIAN_POINT('',(-0.155736132310247,-0.0985,0.304506029657602));
#1146=CARTESIAN_POINT('',(-0.15164565552567,-0.0985,0.304506029657602));
#1147=CARTESIAN_POINT('',(-0.174486132310247,-0.0985,0.304506029657602));
#1148=CARTESIAN_POINT('',(-0.178486132310247,-0.0945,0.304506029657602));
#1149=CARTESIAN_POINT('',(-0.182486132310247,-0.0905,0.304506029657602));
#1150=CARTESIAN_POINT('',(-0.182486132310247,-0.0185,0.304506029657602));
#1151=CARTESIAN_POINT('',(-0.182486132310247,0.0535,0.304506029657602));
#1152=CARTESIAN_POINT('',(-0.178486132310247,0.0575,0.304506029657602));
#1153=CARTESIAN_POINT('',(-0.174486132310247,0.0615,0.304506029657602));
#1154=CARTESIAN_POINT('',(-0.15164565552567,0.0615,0.304506029657602));
#1155=CARTESIAN_POINT('',(-0.128805178741093,0.0615,0.304506029657602));
#1156=CARTESIAN_POINT('',(-0.124805178741093,0.0575,0.304506029657602));
#1157=CARTESIAN_POINT('',(-0.120805178741093,0.0535,0.304506029657602));
#1158=CARTESIAN_POINT('',(-0.120805178741093,-0.0185,0.304506029657602));
#1159=CARTESIAN_POINT('',(-0.120805178741093,-0.0905,0.304506029657602));
#1160=CARTESIAN_POINT('',(-0.124805178741093,-0.0945,0.304506029657602));
#1161=CARTESIAN_POINT('',(-0.136067022515232,-0.0304060268666772,0.304506029657602));
#1162=CARTESIAN_POINT('',(-0.143328866289371,-0.0322810268666772,0.304506029657602));
#1163=CARTESIAN_POINT('',(-0.128805178741093,-0.0285310268666772,0.304506029657602));
#1164=CARTESIAN_POINT('',(-0.136067022515232,-0.0454060268666772,0.304506029657602));
#1165=CARTESIAN_POINT('',(-0.128805178741093,-0.0585310268666772,0.304506029657602));
#1166=CARTESIAN_POINT('',(-0.128805178741093,-0.0435310268666772,0.304506029657602));
#1167=CARTESIAN_POINT('',(-0.147553279428728,0.00751809733702922,0.304506029657602));
#1168=CARTESIAN_POINT('',(-0.154815123202867,0.0206430973370292,0.304506029657602));
#1169=CARTESIAN_POINT('',(-0.140291435654589,-0.00560690266297076,0.304506029657602));
#1170=CARTESIAN_POINT('',(-0.154815123202867,0.00564309733702924,0.304506029657602));
#1171=CARTESIAN_POINT('',(-0.154815123202867,-0.00935690266297077,0.304506029657602));
#1172=CARTESIAN_POINT('',(-0.147553279428728,-0.00748190266297076,0.304506029657602));
#1173=CARTESIAN_POINT('',(-0.136067022515232,0.0187680973370292,0.304506029657602));
#1174=CARTESIAN_POINT('',(-0.143328866289371,0.0168930973370292,0.304506029657602));
#1175=CARTESIAN_POINT('',(-0.128805178741093,0.0206430973370292,0.304506029657602));
#1176=CARTESIAN_POINT('',(-0.136067022515232,0.00376809733702924,0.304506029657602));
#1177=CARTESIAN_POINT('',(-0.128805178741093,-0.00935690266297077,0.304506029657602));
#1178=CARTESIAN_POINT('',(-0.128805178741093,0.00564309733702923,0.304506029657602));
#1179=CARTESIAN_POINT('',(-0.147553279428728,-0.0416560268666772,0.304506029657602));
#1180=CARTESIAN_POINT('',(-0.154815123202867,-0.0285310268666772,0.304506029657602));
#1181=CARTESIAN_POINT('',(-0.140291435654589,-0.0547810268666772,0.304506029657602));
#1182=CARTESIAN_POINT('',(-0.154815123202867,-0.0435310268666771,0.304506029657602));
#1183=CARTESIAN_POINT('',(-0.154815123202867,-0.0585310268666772,0.304506029657602));
#1184=CARTESIAN_POINT('',(-0.147553279428728,-0.0566560268666772,0.304506029657602));
#1185=CARTESIAN_POINT('',(-0.15164565552567,-0.0985,0.317506029657602));
#1186=CARTESIAN_POINT('',(-0.135736132310247,-0.0985,0.317506029657602));
#1187=CARTESIAN_POINT('',(-0.128805178741093,-0.0985,0.317506029657602));
#1188=CARTESIAN_POINT('',(-0.178486132310247,-0.0945,0.297506029657602));
#1189=CARTESIAN_POINT('',(-0.182486132310247,-0.0905,0.297506029657602));
#1190=CARTESIAN_POINT('',(-0.182486132310247,-0.0905,0.312506029657602));
#1191=CARTESIAN_POINT('',(-0.174486132310247,-0.0985,0.297506029657602));
#1192=CARTESIAN_POINT('',(-0.174486132310247,-0.0985,0.312506029657602));
#1193=CARTESIAN_POINT('',(-0.178486132310247,-0.0945,0.312506029657602));
#1194=CARTESIAN_POINT('',(-0.182486132310247,-0.0185,0.297506029657602));
#1195=CARTESIAN_POINT('',(-0.182486132310247,0.0535,0.297506029657602));
#1196=CARTESIAN_POINT('',(-0.182486132310247,0.0535,0.312506029657602));
#1197=CARTESIAN_POINT('',(-0.182486132310247,-0.0185,0.312506029657602));
#1198=CARTESIAN_POINT('',(-0.178486132310247,0.0575,0.297506029657602));
#1199=CARTESIAN_POINT('',(-0.174486132310247,0.0615,0.297506029657602));
#1200=CARTESIAN_POINT('',(-0.174486132310247,0.0615,0.312506029657602));
#1201=CARTESIAN_POINT('',(-0.178486132310247,0.0575,0.312506029657602));
#1202=CARTESIAN_POINT('',(-0.173139499088135,0.03165,0.297506029657602));
#1203=CARTESIAN_POINT('',(-0.173139499088135,0.03165,0.306506029657602));
#1204=CARTESIAN_POINT('',(-0.175639499088135,0.03165,0.306506029657602));
#1205=CARTESIAN_POINT('',(-0.173139499088135,0.03165,0.312506029657602));
#1206=CARTESIAN_POINT('',(-0.175639499088135,0.03165,0.312506029657602));
#1207=CARTESIAN_POINT('',(-0.173139499088135,-0.06835,0.297506029657602));
#1208=CARTESIAN_POINT('',(-0.173139499088135,-0.06835,0.306506029657602));
#1209=CARTESIAN_POINT('',(-0.175639499088135,-0.06835,0.306506029657602));
#1210=CARTESIAN_POINT('',(-0.173139499088135,-0.06835,0.312506029657602));
#1211=CARTESIAN_POINT('',(-0.175639499088135,-0.06835,0.312506029657602));
#1212=CARTESIAN_POINT('',(-0.162986132310247,-0.0185,0.317506029657602));
#1213=CARTESIAN_POINT('',(-0.162986132310247,-0.0185,0.312506029657602));
#1214=CARTESIAN_POINT('',(-0.162986132310247,-0.0985,0.312506029657602));
#1215=CARTESIAN_POINT('',(-0.162986132310247,0.0615,0.312506029657602));
#1216=CARTESIAN_POINT('',(-0.162986132310247,-0.0985,0.317506029657602));
#1217=CARTESIAN_POINT('',(-0.162986132310247,0.0615,0.317506029657602));
#1218=CARTESIAN_POINT('',(-0.15164565552567,-0.0985,0.317506029657602));
#1219=CARTESIAN_POINT('',(-0.155736132310247,-0.0985,0.324506029657602));
#1220=CARTESIAN_POINT('',(-0.15164565552567,-0.0985,0.312506029657602));
#1221=CARTESIAN_POINT('',(-0.124805178741093,-0.0945,0.317506029657602));
#1222=CARTESIAN_POINT('',(-0.120805178741093,-0.0905,0.317506029657602));
#1223=CARTESIAN_POINT('',(-0.120805178741093,-0.0185,0.317506029657602));
#1224=CARTESIAN_POINT('',(-0.120805178741093,0.0535,0.317506029657602));
#1225=CARTESIAN_POINT('',(-0.124805178741093,0.0575,0.317506029657602));
#1226=CARTESIAN_POINT('',(-0.128805178741093,0.0615,0.317506029657602));
#1227=CARTESIAN_POINT('',(-0.15164565552567,0.0615,0.317506029657602));
#1228=CARTESIAN_POINT('',(-0.15164565552567,0.0615,0.312506029657602));
#1229=CARTESIAN_POINT('',(0.030538696047054,-0.0185,0.312506029657602));
#1230=CARTESIAN_POINT('',(0.030538696047054,-0.0185,0.322806029657602));
#1231=CARTESIAN_POINT('',(-0.141955178741093,0.0365,0.322806029657602));
#1232=CARTESIAN_POINT('',(-0.135955178741093,0.0365,0.322806029657602));
#1233=CARTESIAN_POINT('',(-0.141955178741093,0.0365,0.297506029657602));
#1234=CARTESIAN_POINT('',(0.030538696047054,-0.0185,0.322806029657602));
#1235=CARTESIAN_POINT('',(-0.141955178741093,-0.0735,0.322806029657602));
#1236=CARTESIAN_POINT('',(-0.135955178741093,-0.0735,0.322806029657602));
#1237=CARTESIAN_POINT('',(-0.141955178741093,-0.0735,0.297506029657602));
#1238=CARTESIAN_POINT('',(-0.141955178741093,-0.0185,1.15537452636245));
#1239=CARTESIAN_POINT('',(-0.173139499088135,0.03165,0.306506029657602));
#1240=CARTESIAN_POINT('',(-0.173139499088135,-0.06835,0.306506029657602));
#1241=CARTESIAN_POINT('',(-0.152736132310247,-0.0885,0.314506029657602));
#1242=CARTESIAN_POINT('',(-0.152736132310247,-0.0955,0.304506029657602));
#1243=CARTESIAN_POINT('',(-0.152736132310247,-0.0885,0.314506029657602));
#1244=CARTESIAN_POINT('',(-0.138736132310247,-0.0885,0.314506029657602));
#1245=CARTESIAN_POINT('',(-0.138736132310247,-0.0955,0.314506029657602));
#1246=CARTESIAN_POINT('',(-0.138736132310247,-0.0885,0.314506029657602));
#1247=CARTESIAN_POINT('',(-0.15164565552567,-0.0885,0.154453727770382));
#1248=CARTESIAN_POINT('',(-0.142168285776939,-0.0885,0.30961365265112));
#1249=CARTESIAN_POINT('',(-0.142168285776939,-0.0885,0.30851365265112));
#1250=CARTESIAN_POINT('',(-0.149168285776939,-0.0885,0.30961365265112));
#1251=CARTESIAN_POINT('',(-0.149168285776939,-0.0885,0.30851365265112));
#1252=CARTESIAN_POINT('',(-0.149168285776939,-0.0835,0.30961365265112));
#1253=CARTESIAN_POINT('',(-0.149168285776939,-0.0835,0.30961365265112));
#1254=CARTESIAN_POINT('',(-0.149168285776939,-0.0835,0.30851365265112));
#1255=CARTESIAN_POINT('',(-0.145736132310247,-0.0835,0.156099916273624));
#1256=CARTESIAN_POINT('',(-0.142168285776939,-0.0835,0.30961365265112));
#1257=CARTESIAN_POINT('',(-0.142168285776939,-0.0835,0.30961365265112));
#1258=CARTESIAN_POINT('',(-0.142168285776939,-0.0835,0.30851365265112));
#1259=CARTESIAN_POINT('',(-0.145736132310247,-0.0835,0.156099916273624));
#1260=CARTESIAN_POINT('',(-0.138736132310247,-0.0955,0.314506029657602));
#1261=CARTESIAN_POINT('',(-0.155736132310247,-0.0985,0.317506029657602));
#1262=CARTESIAN_POINT('',(-0.136067022515232,-0.0454060268666772,0.304504029657602));
#1263=CARTESIAN_POINT('',(-0.143328866289371,-0.0322810268666772,0.304504029657602));
#1264=CARTESIAN_POINT('',(-0.128805178741093,-0.0585310268666772,0.304504029657602));
#1265=CARTESIAN_POINT('',(-0.128805178741093,-0.0435310268666772,0.304504029657602));
#1266=CARTESIAN_POINT('',(-0.128805178741093,-0.0285310268666772,0.304504029657602));
#1267=CARTESIAN_POINT('',(-0.136067022515232,-0.0304060268666772,0.304504029657602));
#1268=CARTESIAN_POINT('',(-0.154815123202867,0.00564309733702924,0.304504029657602));
#1269=CARTESIAN_POINT('',(-0.154815123202867,0.0206430973370292,0.304504029657602));
#1270=CARTESIAN_POINT('',(-0.154815123202867,-0.00935690266297077,0.304504029657602));
#1271=CARTESIAN_POINT('',(-0.147553279428728,-0.00748190266297076,0.304504029657602));
#1272=CARTESIAN_POINT('',(-0.140291435654589,-0.00560690266297076,0.304504029657602));
#1273=CARTESIAN_POINT('',(-0.147553279428728,0.00751809733702922,0.304504029657602));
#1274=CARTESIAN_POINT('',(-0.136067022515232,0.00376809733702924,0.304504029657602));
#1275=CARTESIAN_POINT('',(-0.143328866289371,0.0168930973370292,0.304504029657602));
#1276=CARTESIAN_POINT('',(-0.128805178741093,-0.00935690266297077,0.304504029657602));
#1277=CARTESIAN_POINT('',(-0.128805178741093,0.00564309733702923,0.304504029657602));
#1278=CARTESIAN_POINT('',(-0.128805178741093,0.0206430973370292,0.304504029657602));
#1279=CARTESIAN_POINT('',(-0.136067022515232,0.0187680973370292,0.304504029657602));
#1280=CARTESIAN_POINT('',(-0.154815123202867,-0.0435310268666771,0.304504029657602));
#1281=CARTESIAN_POINT('',(-0.154815123202867,-0.0285310268666772,0.304504029657602));
#1282=CARTESIAN_POINT('',(-0.154815123202867,-0.0585310268666772,0.304504029657602));
#1283=CARTESIAN_POINT('',(-0.147553279428728,-0.0566560268666772,0.304504029657602));
#1284=CARTESIAN_POINT('',(-0.140291435654589,-0.0547810268666772,0.304504029657602));
#1285=CARTESIAN_POINT('',(-0.147553279428728,-0.0416560268666772,0.304504029657602));
#1286=MECHANICAL_DESIGN_GEOMETRIC_PRESENTATION_REPRESENTATION('',(#795),
#1287);
#1287=(
GEOMETRIC_REPRESENTATION_CONTEXT(3)
GLOBAL_UNCERTAINTY_ASSIGNED_CONTEXT((#1288))
GLOBAL_UNIT_ASSIGNED_CONTEXT((#1291,#1290,#1289))
REPRESENTATION_CONTEXT('Z-TopMount','TOP_LEVEL_ASSEMBLY_PART')
);
#1288=UNCERTAINTY_MEASURE_WITH_UNIT(LENGTH_MEASURE(1.E-8),#1291,
'DISTANCE_ACCURACY_VALUE','Maximum Tolerance applied to model');
#1289=(
NAMED_UNIT(*)
SI_UNIT($,.STERADIAN.)
SOLID_ANGLE_UNIT()
);
#1290=(
NAMED_UNIT(*)
PLANE_ANGLE_UNIT()
SI_UNIT($,.RADIAN.)
);
#1291=(
LENGTH_UNIT()
NAMED_UNIT(*)
SI_UNIT($,.METRE.)
);
#1292=PRODUCT_DEFINITION_SHAPE('','',#1293);
#1293=PRODUCT_DEFINITION('','',#1295,#1294);
#1294=PRODUCT_DEFINITION_CONTEXT('',#1301,'design');
#1295=PRODUCT_DEFINITION_FORMATION_WITH_SPECIFIED_SOURCE('','',#1297,
 .NOT_KNOWN.);
#1296=PRODUCT_RELATED_PRODUCT_CATEGORY('','',(#1297));
#1297=PRODUCT('Z-TopMount','Z-TopMount','Z-TopMount',(#1299));
#1298=PRODUCT_CATEGORY('','');
#1299=PRODUCT_CONTEXT('',#1301,'mechanical');
#1300=APPLICATION_PROTOCOL_DEFINITION('international standard',
'ap242_managed_model_based_3d_engineering',2020,#1301);
#1301=APPLICATION_CONTEXT('managed model based 3d engineering');
ENDSEC;
END-ISO-10303-21;
