ISO-10303-21;
HEADER;
/* Generated by software containing ST-Developer
 * from STEP Tools, Inc. (www.steptools.com) 
 */
/* OPTION: using custom renumber hook */

FILE_DESCRIPTION(
/* description */ ('STEP AP242 Edition 2',
'CAx-IF Rec.Pracs.---Representation and Presentation of Product Manufa
cturing Information (PMI)---4.0---2014-10-13',
'CAx-IF Rec.Pracs.---3D Tessellated Geometry---0.4---2014-09-14','2;1',
'CAx-IF Rec.Pracs.---User Defined Attributes---1.5---2016-08-15'),
/* implementation_level */ '2;1');

FILE_NAME(
/* name */ 'NOT-618 - TFR-Rod Mount',
/* time_stamp */ '2026-07-11T06:05:35Z',
/* author */ (''),
/* organization */ (''),
/* preprocessor_version */ 'ST-DEVELOPER v20',
/* originating_system */ 'ONSHAPE BY PTC INC, 1.217',
/* authorisation */ '  ');

FILE_SCHEMA (('AP242_MANAGED_MODEL_BASED_3D_ENGINEERING_MIM_LF { 1 0 10303 442 3 1 4 }'));
ENDSEC;

DATA;
#10=SHAPE_REPRESENTATION_RELATIONSHIP('','',#897,#11);
#11=ADVANCED_BREP_SHAPE_REPRESENTATION('',(#895),#1438);
#12=CONICAL_SURFACE('',#930,0.0045,0.785398163397448);
#13=CONICAL_SURFACE('',#931,0.0045,0.785398163397448);
#14=CONICAL_SURFACE('',#932,0.0025,0.785398163397457);
#15=CYLINDRICAL_SURFACE('',#906,0.0105);
#16=CYLINDRICAL_SURFACE('',#915,0.0025);
#17=CYLINDRICAL_SURFACE('',#926,0.0025);
#18=CYLINDRICAL_SURFACE('',#928,0.0025);
#19=CYLINDRICAL_SURFACE('',#962,0.0025);
#20=CYLINDRICAL_SURFACE('',#963,0.0025);
#21=CIRCLE('',#903,0.0105);
#22=CIRCLE('',#904,0.00450000000000006);
#23=CIRCLE('',#905,0.00450000000000006);
#24=CIRCLE('',#907,0.0105);
#25=CIRCLE('',#909,0.0025);
#26=CIRCLE('',#912,0.0055);
#27=CIRCLE('',#916,0.0025);
#28=CIRCLE('',#918,0.0025);
#29=CIRCLE('',#919,0.0025);
#30=CIRCLE('',#927,0.0025);
#31=CIRCLE('',#929,0.0025);
#32=CIRCLE('',#945,0.0025);
#33=CIRCLE('',#949,0.0025);
#34=CIRCLE('',#953,0.0025);
#35=CIRCLE('',#956,0.0025);
#36=ORIENTED_EDGE('',*,*,#264,.T.);
#37=ORIENTED_EDGE('',*,*,#265,.T.);
#38=ORIENTED_EDGE('',*,*,#266,.F.);
#39=ORIENTED_EDGE('',*,*,#267,.F.);
#40=ORIENTED_EDGE('',*,*,#268,.F.);
#41=ORIENTED_EDGE('',*,*,#269,.F.);
#42=ORIENTED_EDGE('',*,*,#270,.T.);
#43=ORIENTED_EDGE('',*,*,#271,.T.);
#44=ORIENTED_EDGE('',*,*,#266,.T.);
#45=ORIENTED_EDGE('',*,*,#272,.T.);
#46=ORIENTED_EDGE('',*,*,#271,.F.);
#47=ORIENTED_EDGE('',*,*,#273,.F.);
#48=ORIENTED_EDGE('',*,*,#274,.T.);
#49=ORIENTED_EDGE('',*,*,#275,.T.);
#50=ORIENTED_EDGE('',*,*,#276,.T.);
#51=ORIENTED_EDGE('',*,*,#277,.T.);
#52=ORIENTED_EDGE('',*,*,#278,.F.);
#53=ORIENTED_EDGE('',*,*,#279,.T.);
#54=ORIENTED_EDGE('',*,*,#280,.T.);
#55=ORIENTED_EDGE('',*,*,#281,.T.);
#56=ORIENTED_EDGE('',*,*,#282,.T.);
#57=ORIENTED_EDGE('',*,*,#283,.T.);
#58=ORIENTED_EDGE('',*,*,#284,.T.);
#59=ORIENTED_EDGE('',*,*,#269,.T.);
#60=ORIENTED_EDGE('',*,*,#285,.T.);
#61=ORIENTED_EDGE('',*,*,#286,.F.);
#62=ORIENTED_EDGE('',*,*,#287,.F.);
#63=ORIENTED_EDGE('',*,*,#264,.F.);
#64=ORIENTED_EDGE('',*,*,#288,.F.);
#65=ORIENTED_EDGE('',*,*,#280,.F.);
#66=ORIENTED_EDGE('',*,*,#289,.F.);
#67=ORIENTED_EDGE('',*,*,#290,.T.);
#68=ORIENTED_EDGE('',*,*,#291,.T.);
#69=ORIENTED_EDGE('',*,*,#292,.T.);
#70=ORIENTED_EDGE('',*,*,#293,.F.);
#71=ORIENTED_EDGE('',*,*,#294,.F.);
#72=ORIENTED_EDGE('',*,*,#295,.T.);
#73=ORIENTED_EDGE('',*,*,#296,.T.);
#74=ORIENTED_EDGE('',*,*,#297,.T.);
#75=ORIENTED_EDGE('',*,*,#298,.T.);
#76=ORIENTED_EDGE('',*,*,#295,.F.);
#77=ORIENTED_EDGE('',*,*,#299,.F.);
#78=ORIENTED_EDGE('',*,*,#300,.T.);
#79=ORIENTED_EDGE('',*,*,#301,.T.);
#80=ORIENTED_EDGE('',*,*,#302,.T.);
#81=ORIENTED_EDGE('',*,*,#303,.T.);
#82=ORIENTED_EDGE('',*,*,#304,.T.);
#83=ORIENTED_EDGE('',*,*,#305,.T.);
#84=ORIENTED_EDGE('',*,*,#306,.T.);
#85=ORIENTED_EDGE('',*,*,#307,.T.);
#86=ORIENTED_EDGE('',*,*,#293,.T.);
#87=ORIENTED_EDGE('',*,*,#308,.T.);
#88=ORIENTED_EDGE('',*,*,#309,.T.);
#89=ORIENTED_EDGE('',*,*,#310,.T.);
#90=ORIENTED_EDGE('',*,*,#311,.F.);
#91=ORIENTED_EDGE('',*,*,#312,.T.);
#92=ORIENTED_EDGE('',*,*,#313,.T.);
#93=ORIENTED_EDGE('',*,*,#314,.T.);
#94=ORIENTED_EDGE('',*,*,#315,.T.);
#95=ORIENTED_EDGE('',*,*,#291,.F.);
#96=ORIENTED_EDGE('',*,*,#316,.T.);
#97=ORIENTED_EDGE('',*,*,#317,.T.);
#98=ORIENTED_EDGE('',*,*,#290,.F.);
#99=ORIENTED_EDGE('',*,*,#318,.T.);
#100=ORIENTED_EDGE('',*,*,#319,.T.);
#101=ORIENTED_EDGE('',*,*,#320,.F.);
#102=ORIENTED_EDGE('',*,*,#321,.T.);
#103=ORIENTED_EDGE('',*,*,#299,.T.);
#104=ORIENTED_EDGE('',*,*,#294,.T.);
#105=ORIENTED_EDGE('',*,*,#313,.F.);
#106=ORIENTED_EDGE('',*,*,#322,.T.);
#107=ORIENTED_EDGE('',*,*,#274,.F.);
#108=ORIENTED_EDGE('',*,*,#323,.T.);
#109=ORIENTED_EDGE('',*,*,#324,.T.);
#110=ORIENTED_EDGE('',*,*,#311,.T.);
#111=ORIENTED_EDGE('',*,*,#310,.F.);
#112=ORIENTED_EDGE('',*,*,#325,.F.);
#113=ORIENTED_EDGE('',*,*,#275,.F.);
#114=ORIENTED_EDGE('',*,*,#301,.F.);
#115=ORIENTED_EDGE('',*,*,#326,.T.);
#116=ORIENTED_EDGE('',*,*,#327,.T.);
#117=ORIENTED_EDGE('',*,*,#278,.T.);
#118=ORIENTED_EDGE('',*,*,#277,.F.);
#119=ORIENTED_EDGE('',*,*,#328,.F.);
#120=ORIENTED_EDGE('',*,*,#302,.F.);
#121=ORIENTED_EDGE('',*,*,#329,.T.);
#122=ORIENTED_EDGE('',*,*,#330,.T.);
#123=ORIENTED_EDGE('',*,*,#320,.T.);
#124=ORIENTED_EDGE('',*,*,#331,.T.);
#125=ORIENTED_EDGE('',*,*,#312,.F.);
#126=ORIENTED_EDGE('',*,*,#324,.F.);
#127=ORIENTED_EDGE('',*,*,#332,.F.);
#128=ORIENTED_EDGE('',*,*,#331,.F.);
#129=ORIENTED_EDGE('',*,*,#322,.F.);
#130=ORIENTED_EDGE('',*,*,#279,.F.);
#131=ORIENTED_EDGE('',*,*,#327,.F.);
#132=ORIENTED_EDGE('',*,*,#333,.F.);
#133=ORIENTED_EDGE('',*,*,#329,.F.);
#134=ORIENTED_EDGE('',*,*,#332,.T.);
#135=ORIENTED_EDGE('',*,*,#323,.F.);
#136=ORIENTED_EDGE('',*,*,#326,.F.);
#137=ORIENTED_EDGE('',*,*,#300,.F.);
#138=ORIENTED_EDGE('',*,*,#321,.F.);
#139=ORIENTED_EDGE('',*,*,#330,.F.);
#140=ORIENTED_EDGE('',*,*,#333,.T.);
#141=ORIENTED_EDGE('',*,*,#334,.T.);
#142=ORIENTED_EDGE('',*,*,#319,.F.);
#143=ORIENTED_EDGE('',*,*,#335,.T.);
#144=ORIENTED_EDGE('',*,*,#318,.F.);
#145=ORIENTED_EDGE('',*,*,#334,.F.);
#146=ORIENTED_EDGE('',*,*,#282,.F.);
#147=ORIENTED_EDGE('',*,*,#335,.F.);
#148=ORIENTED_EDGE('',*,*,#281,.F.);
#149=ORIENTED_EDGE('',*,*,#303,.F.);
#150=ORIENTED_EDGE('',*,*,#317,.F.);
#151=ORIENTED_EDGE('',*,*,#336,.F.);
#152=ORIENTED_EDGE('',*,*,#297,.F.);
#153=ORIENTED_EDGE('',*,*,#337,.F.);
#154=ORIENTED_EDGE('',*,*,#306,.F.);
#155=ORIENTED_EDGE('',*,*,#296,.F.);
#156=ORIENTED_EDGE('',*,*,#298,.F.);
#157=ORIENTED_EDGE('',*,*,#338,.F.);
#158=ORIENTED_EDGE('',*,*,#316,.F.);
#159=ORIENTED_EDGE('',*,*,#337,.T.);
#160=ORIENTED_EDGE('',*,*,#328,.T.);
#161=ORIENTED_EDGE('',*,*,#339,.F.);
#162=ORIENTED_EDGE('',*,*,#338,.T.);
#163=ORIENTED_EDGE('',*,*,#336,.T.);
#164=ORIENTED_EDGE('',*,*,#340,.F.);
#165=ORIENTED_EDGE('',*,*,#339,.T.);
#166=ORIENTED_EDGE('',*,*,#276,.F.);
#167=ORIENTED_EDGE('',*,*,#341,.F.);
#168=ORIENTED_EDGE('',*,*,#307,.F.);
#169=ORIENTED_EDGE('',*,*,#340,.T.);
#170=ORIENTED_EDGE('',*,*,#305,.F.);
#171=ORIENTED_EDGE('',*,*,#342,.F.);
#172=ORIENTED_EDGE('',*,*,#314,.F.);
#173=ORIENTED_EDGE('',*,*,#292,.F.);
#174=ORIENTED_EDGE('',*,*,#315,.F.);
#175=ORIENTED_EDGE('',*,*,#343,.F.);
#176=ORIENTED_EDGE('',*,*,#308,.F.);
#177=ORIENTED_EDGE('',*,*,#341,.T.);
#178=ORIENTED_EDGE('',*,*,#325,.T.);
#179=ORIENTED_EDGE('',*,*,#344,.F.);
#180=ORIENTED_EDGE('',*,*,#343,.T.);
#181=ORIENTED_EDGE('',*,*,#342,.T.);
#182=ORIENTED_EDGE('',*,*,#345,.F.);
#183=ORIENTED_EDGE('',*,*,#344,.T.);
#184=ORIENTED_EDGE('',*,*,#309,.F.);
#185=ORIENTED_EDGE('',*,*,#345,.T.);
#186=ORIENTED_EDGE('',*,*,#304,.F.);
#187=ORIENTED_EDGE('',*,*,#289,.T.);
#188=ORIENTED_EDGE('',*,*,#346,.F.);
#189=ORIENTED_EDGE('',*,*,#347,.T.);
#190=ORIENTED_EDGE('',*,*,#348,.T.);
#191=ORIENTED_EDGE('',*,*,#349,.T.);
#192=ORIENTED_EDGE('',*,*,#283,.F.);
#193=ORIENTED_EDGE('',*,*,#350,.F.);
#194=ORIENTED_EDGE('',*,*,#351,.T.);
#195=ORIENTED_EDGE('',*,*,#352,.F.);
#196=ORIENTED_EDGE('',*,*,#353,.T.);
#197=ORIENTED_EDGE('',*,*,#350,.T.);
#198=ORIENTED_EDGE('',*,*,#288,.T.);
#199=ORIENTED_EDGE('',*,*,#349,.F.);
#200=ORIENTED_EDGE('',*,*,#354,.T.);
#201=ORIENTED_EDGE('',*,*,#355,.T.);
#202=ORIENTED_EDGE('',*,*,#284,.F.);
#203=ORIENTED_EDGE('',*,*,#356,.T.);
#204=ORIENTED_EDGE('',*,*,#355,.F.);
#205=ORIENTED_EDGE('',*,*,#357,.T.);
#206=ORIENTED_EDGE('',*,*,#358,.F.);
#207=ORIENTED_EDGE('',*,*,#359,.T.);
#208=ORIENTED_EDGE('',*,*,#352,.T.);
#209=ORIENTED_EDGE('',*,*,#267,.T.);
#210=ORIENTED_EDGE('',*,*,#273,.T.);
#211=ORIENTED_EDGE('',*,*,#270,.F.);
#212=ORIENTED_EDGE('',*,*,#358,.T.);
#213=ORIENTED_EDGE('',*,*,#360,.T.);
#214=ORIENTED_EDGE('',*,*,#347,.F.);
#215=ORIENTED_EDGE('',*,*,#361,.T.);
#216=ORIENTED_EDGE('',*,*,#362,.F.);
#217=ORIENTED_EDGE('',*,*,#363,.T.);
#218=ORIENTED_EDGE('',*,*,#364,.T.);
#219=ORIENTED_EDGE('',*,*,#287,.T.);
#220=ORIENTED_EDGE('',*,*,#365,.T.);
#221=ORIENTED_EDGE('',*,*,#366,.F.);
#222=ORIENTED_EDGE('',*,*,#367,.T.);
#223=ORIENTED_EDGE('',*,*,#368,.F.);
#224=ORIENTED_EDGE('',*,*,#369,.T.);
#225=ORIENTED_EDGE('',*,*,#362,.T.);
#226=ORIENTED_EDGE('',*,*,#286,.T.);
#227=ORIENTED_EDGE('',*,*,#370,.F.);
#228=ORIENTED_EDGE('',*,*,#371,.T.);
#229=ORIENTED_EDGE('',*,*,#366,.T.);
#230=ORIENTED_EDGE('',*,*,#285,.F.);
#231=ORIENTED_EDGE('',*,*,#372,.F.);
#232=ORIENTED_EDGE('',*,*,#373,.T.);
#233=ORIENTED_EDGE('',*,*,#374,.T.);
#234=ORIENTED_EDGE('',*,*,#370,.T.);
#235=ORIENTED_EDGE('',*,*,#268,.T.);
#236=ORIENTED_EDGE('',*,*,#272,.F.);
#237=ORIENTED_EDGE('',*,*,#265,.F.);
#238=ORIENTED_EDGE('',*,*,#364,.F.);
#239=ORIENTED_EDGE('',*,*,#375,.T.);
#240=ORIENTED_EDGE('',*,*,#368,.T.);
#241=ORIENTED_EDGE('',*,*,#376,.T.);
#242=ORIENTED_EDGE('',*,*,#373,.F.);
#243=ORIENTED_EDGE('',*,*,#377,.T.);
#244=ORIENTED_EDGE('',*,*,#348,.F.);
#245=ORIENTED_EDGE('',*,*,#360,.F.);
#246=ORIENTED_EDGE('',*,*,#357,.F.);
#247=ORIENTED_EDGE('',*,*,#354,.F.);
#248=ORIENTED_EDGE('',*,*,#351,.F.);
#249=ORIENTED_EDGE('',*,*,#353,.F.);
#250=ORIENTED_EDGE('',*,*,#359,.F.);
#251=ORIENTED_EDGE('',*,*,#361,.F.);
#252=ORIENTED_EDGE('',*,*,#367,.F.);
#253=ORIENTED_EDGE('',*,*,#371,.F.);
#254=ORIENTED_EDGE('',*,*,#374,.F.);
#255=ORIENTED_EDGE('',*,*,#376,.F.);
#256=ORIENTED_EDGE('',*,*,#369,.F.);
#257=ORIENTED_EDGE('',*,*,#377,.F.);
#258=ORIENTED_EDGE('',*,*,#375,.F.);
#259=ORIENTED_EDGE('',*,*,#363,.F.);
#260=ORIENTED_EDGE('',*,*,#372,.T.);
#261=ORIENTED_EDGE('',*,*,#365,.F.);
#262=ORIENTED_EDGE('',*,*,#346,.T.);
#263=ORIENTED_EDGE('',*,*,#356,.F.);
#264=EDGE_CURVE('',#378,#379,#455,.T.);
#265=EDGE_CURVE('',#379,#380,#456,.T.);
#266=EDGE_CURVE('',#381,#380,#457,.T.);
#267=EDGE_CURVE('',#378,#381,#458,.T.);
#268=EDGE_CURVE('',#382,#383,#459,.T.);
#269=EDGE_CURVE('',#384,#382,#460,.T.);
#270=EDGE_CURVE('',#384,#385,#461,.T.);
#271=EDGE_CURVE('',#385,#383,#462,.T.);
#272=EDGE_CURVE('',#380,#383,#463,.T.);
#273=EDGE_CURVE('',#381,#385,#464,.T.);
#274=EDGE_CURVE('',#386,#387,#465,.T.);
#275=EDGE_CURVE('',#387,#388,#466,.T.);
#276=EDGE_CURVE('',#388,#389,#467,.T.);
#277=EDGE_CURVE('',#389,#390,#468,.T.);
#278=EDGE_CURVE('',#391,#390,#469,.T.);
#279=EDGE_CURVE('',#391,#386,#470,.T.);
#280=EDGE_CURVE('',#392,#392,#21,.T.);
#281=EDGE_CURVE('',#393,#393,#22,.T.);
#282=EDGE_CURVE('',#394,#394,#23,.T.);
#283=EDGE_CURVE('',#395,#396,#471,.T.);
#284=EDGE_CURVE('',#396,#384,#472,.T.);
#285=EDGE_CURVE('',#382,#397,#473,.T.);
#286=EDGE_CURVE('',#398,#397,#474,.T.);
#287=EDGE_CURVE('',#379,#398,#475,.T.);
#288=EDGE_CURVE('',#395,#378,#476,.T.);
#289=EDGE_CURVE('',#399,#399,#24,.F.);
#290=EDGE_CURVE('',#400,#400,#25,.T.);
#291=EDGE_CURVE('',#401,#402,#477,.T.);
#292=EDGE_CURVE('',#402,#403,#478,.F.);
#293=EDGE_CURVE('',#404,#403,#479,.T.);
#294=EDGE_CURVE('',#405,#404,#480,.T.);
#295=EDGE_CURVE('',#405,#406,#481,.T.);
#296=EDGE_CURVE('',#406,#401,#482,.T.);
#297=EDGE_CURVE('',#407,#408,#483,.T.);
#298=EDGE_CURVE('',#408,#406,#484,.T.);
#299=EDGE_CURVE('',#409,#405,#485,.T.);
#300=EDGE_CURVE('',#409,#410,#486,.T.);
#301=EDGE_CURVE('',#410,#411,#487,.T.);
#302=EDGE_CURVE('',#411,#407,#488,.T.);
#303=EDGE_CURVE('',#412,#412,#26,.F.);
#304=EDGE_CURVE('',#413,#414,#489,.T.);
#305=EDGE_CURVE('',#414,#415,#490,.T.);
#306=EDGE_CURVE('',#415,#416,#491,.T.);
#307=EDGE_CURVE('',#416,#413,#492,.T.);
#308=EDGE_CURVE('',#403,#417,#493,.T.);
#309=EDGE_CURVE('',#417,#418,#494,.T.);
#310=EDGE_CURVE('',#418,#419,#495,.T.);
#311=EDGE_CURVE('',#420,#419,#496,.T.);
#312=EDGE_CURVE('',#420,#421,#497,.T.);
#313=EDGE_CURVE('',#421,#404,#498,.T.);
#314=EDGE_CURVE('',#422,#423,#499,.T.);
#315=EDGE_CURVE('',#423,#402,#500,.T.);
#316=EDGE_CURVE('',#401,#422,#501,.T.);
#317=EDGE_CURVE('',#424,#424,#27,.T.);
#318=EDGE_CURVE('',#425,#425,#28,.T.);
#319=EDGE_CURVE('',#426,#426,#29,.T.);
#320=EDGE_CURVE('',#427,#428,#502,.T.);
#321=EDGE_CURVE('',#427,#409,#503,.T.);
#322=EDGE_CURVE('',#421,#428,#504,.T.);
#323=EDGE_CURVE('',#386,#429,#505,.T.);
#324=EDGE_CURVE('',#429,#420,#506,.T.);
#325=EDGE_CURVE('',#388,#418,#507,.T.);
#326=EDGE_CURVE('',#410,#430,#508,.T.);
#327=EDGE_CURVE('',#430,#391,#509,.T.);
#328=EDGE_CURVE('',#407,#389,#510,.F.);
#329=EDGE_CURVE('',#431,#432,#511,.T.);
#330=EDGE_CURVE('',#432,#427,#512,.T.);
#331=EDGE_CURVE('',#428,#431,#513,.T.);
#332=EDGE_CURVE('',#431,#429,#514,.T.);
#333=EDGE_CURVE('',#432,#430,#515,.T.);
#334=EDGE_CURVE('',#433,#433,#30,.F.);
#335=EDGE_CURVE('',#434,#434,#31,.F.);
#336=EDGE_CURVE('',#408,#415,#516,.T.);
#337=EDGE_CURVE('',#416,#407,#517,.T.);
#338=EDGE_CURVE('',#422,#408,#518,.T.);
#339=EDGE_CURVE('',#416,#389,#519,.F.);
#340=EDGE_CURVE('',#422,#415,#520,.T.);
#341=EDGE_CURVE('',#413,#388,#521,.T.);
#342=EDGE_CURVE('',#423,#414,#522,.F.);
#343=EDGE_CURVE('',#417,#423,#523,.F.);
#344=EDGE_CURVE('',#413,#418,#524,.T.);
#345=EDGE_CURVE('',#417,#414,#525,.T.);
#346=EDGE_CURVE('',#435,#435,#32,.T.);
#347=EDGE_CURVE('',#436,#437,#526,.T.);
#348=EDGE_CURVE('',#437,#438,#527,.F.);
#349=EDGE_CURVE('',#438,#396,#528,.T.);
#350=EDGE_CURVE('',#439,#395,#529,.T.);
#351=EDGE_CURVE('',#439,#436,#530,.T.);
#352=EDGE_CURVE('',#440,#378,#531,.T.);
#353=EDGE_CURVE('',#440,#439,#532,.T.);
#354=EDGE_CURVE('',#438,#441,#533,.T.);
#355=EDGE_CURVE('',#441,#384,#534,.T.);
#356=EDGE_CURVE('',#442,#442,#33,.T.);
#357=EDGE_CURVE('',#441,#443,#535,.F.);
#358=EDGE_CURVE('',#444,#443,#536,.T.);
#359=EDGE_CURVE('',#444,#440,#537,.T.);
#360=EDGE_CURVE('',#443,#437,#538,.T.);
#361=EDGE_CURVE('',#436,#444,#539,.T.);
#362=EDGE_CURVE('',#445,#398,#540,.T.);
#363=EDGE_CURVE('',#445,#446,#541,.T.);
#364=EDGE_CURVE('',#446,#379,#542,.T.);
#365=EDGE_CURVE('',#447,#447,#34,.T.);
#366=EDGE_CURVE('',#448,#397,#543,.T.);
#367=EDGE_CURVE('',#448,#449,#544,.T.);
#368=EDGE_CURVE('',#450,#449,#545,.T.);
#369=EDGE_CURVE('',#450,#445,#546,.F.);
#370=EDGE_CURVE('',#451,#382,#547,.T.);
#371=EDGE_CURVE('',#451,#448,#548,.T.);
#372=EDGE_CURVE('',#452,#452,#35,.T.);
#373=EDGE_CURVE('',#453,#454,#549,.T.);
#374=EDGE_CURVE('',#454,#451,#550,.T.);
#375=EDGE_CURVE('',#446,#453,#551,.F.);
#376=EDGE_CURVE('',#449,#454,#552,.T.);
#377=EDGE_CURVE('',#453,#450,#553,.T.);
#378=VERTEX_POINT('',#1198);
#379=VERTEX_POINT('',#1199);
#380=VERTEX_POINT('',#1201);
#381=VERTEX_POINT('',#1203);
#382=VERTEX_POINT('',#1207);
#383=VERTEX_POINT('',#1208);
#384=VERTEX_POINT('',#1210);
#385=VERTEX_POINT('',#1212);
#386=VERTEX_POINT('',#1219);
#387=VERTEX_POINT('',#1220);
#388=VERTEX_POINT('',#1222);
#389=VERTEX_POINT('',#1224);
#390=VERTEX_POINT('',#1226);
#391=VERTEX_POINT('',#1228);
#392=VERTEX_POINT('',#1231);
#393=VERTEX_POINT('',#1233);
#394=VERTEX_POINT('',#1235);
#395=VERTEX_POINT('',#1237);
#396=VERTEX_POINT('',#1238);
#397=VERTEX_POINT('',#1241);
#398=VERTEX_POINT('',#1243);
#399=VERTEX_POINT('',#1248);
#400=VERTEX_POINT('',#1251);
#401=VERTEX_POINT('',#1253);
#402=VERTEX_POINT('',#1254);
#403=VERTEX_POINT('',#1256);
#404=VERTEX_POINT('',#1258);
#405=VERTEX_POINT('',#1260);
#406=VERTEX_POINT('',#1262);
#407=VERTEX_POINT('',#1266);
#408=VERTEX_POINT('',#1267);
#409=VERTEX_POINT('',#1270);
#410=VERTEX_POINT('',#1272);
#411=VERTEX_POINT('',#1274);
#412=VERTEX_POINT('',#1278);
#413=VERTEX_POINT('',#1280);
#414=VERTEX_POINT('',#1281);
#415=VERTEX_POINT('',#1283);
#416=VERTEX_POINT('',#1285);
#417=VERTEX_POINT('',#1289);
#418=VERTEX_POINT('',#1291);
#419=VERTEX_POINT('',#1293);
#420=VERTEX_POINT('',#1295);
#421=VERTEX_POINT('',#1297);
#422=VERTEX_POINT('',#1301);
#423=VERTEX_POINT('',#1302);
#424=VERTEX_POINT('',#1307);
#425=VERTEX_POINT('',#1310);
#426=VERTEX_POINT('',#1312);
#427=VERTEX_POINT('',#1314);
#428=VERTEX_POINT('',#1315);
#429=VERTEX_POINT('',#1320);
#430=VERTEX_POINT('',#1325);
#431=VERTEX_POINT('',#1330);
#432=VERTEX_POINT('',#1331);
#433=VERTEX_POINT('',#1341);
#434=VERTEX_POINT('',#1344);
#435=VERTEX_POINT('',#1371);
#436=VERTEX_POINT('',#1373);
#437=VERTEX_POINT('',#1374);
#438=VERTEX_POINT('',#1376);
#439=VERTEX_POINT('',#1379);
#440=VERTEX_POINT('',#1383);
#441=VERTEX_POINT('',#1387);
#442=VERTEX_POINT('',#1391);
#443=VERTEX_POINT('',#1393);
#444=VERTEX_POINT('',#1395);
#445=VERTEX_POINT('',#1402);
#446=VERTEX_POINT('',#1404);
#447=VERTEX_POINT('',#1408);
#448=VERTEX_POINT('',#1410);
#449=VERTEX_POINT('',#1412);
#450=VERTEX_POINT('',#1414);
#451=VERTEX_POINT('',#1418);
#452=VERTEX_POINT('',#1422);
#453=VERTEX_POINT('',#1424);
#454=VERTEX_POINT('',#1425);
#455=LINE('',#1197,#554);
#456=LINE('',#1200,#555);
#457=LINE('',#1202,#556);
#458=LINE('',#1204,#557);
#459=LINE('',#1206,#558);
#460=LINE('',#1209,#559);
#461=LINE('',#1211,#560);
#462=LINE('',#1213,#561);
#463=LINE('',#1215,#562);
#464=LINE('',#1216,#563);
#465=LINE('',#1218,#564);
#466=LINE('',#1221,#565);
#467=LINE('',#1223,#566);
#468=LINE('',#1225,#567);
#469=LINE('',#1227,#568);
#470=LINE('',#1229,#569);
#471=LINE('',#1236,#570);
#472=LINE('',#1239,#571);
#473=LINE('',#1240,#572);
#474=LINE('',#1242,#573);
#475=LINE('',#1244,#574);
#476=LINE('',#1245,#575);
#477=LINE('',#1252,#576);
#478=LINE('',#1255,#577);
#479=LINE('',#1257,#578);
#480=LINE('',#1259,#579);
#481=LINE('',#1261,#580);
#482=LINE('',#1263,#581);
#483=LINE('',#1265,#582);
#484=LINE('',#1268,#583);
#485=LINE('',#1269,#584);
#486=LINE('',#1271,#585);
#487=LINE('',#1273,#586);
#488=LINE('',#1275,#587);
#489=LINE('',#1279,#588);
#490=LINE('',#1282,#589);
#491=LINE('',#1284,#590);
#492=LINE('',#1286,#591);
#493=LINE('',#1288,#592);
#494=LINE('',#1290,#593);
#495=LINE('',#1292,#594);
#496=LINE('',#1294,#595);
#497=LINE('',#1296,#596);
#498=LINE('',#1298,#597);
#499=LINE('',#1300,#598);
#500=LINE('',#1303,#599);
#501=LINE('',#1304,#600);
#502=LINE('',#1313,#601);
#503=LINE('',#1316,#602);
#504=LINE('',#1317,#603);
#505=LINE('',#1319,#604);
#506=LINE('',#1321,#605);
#507=LINE('',#1322,#606);
#508=LINE('',#1324,#607);
#509=LINE('',#1326,#608);
#510=LINE('',#1327,#609);
#511=LINE('',#1329,#610);
#512=LINE('',#1332,#611);
#513=LINE('',#1333,#612);
#514=LINE('',#1335,#613);
#515=LINE('',#1337,#614);
#516=LINE('',#1349,#615);
#517=LINE('',#1350,#616);
#518=LINE('',#1352,#617);
#519=LINE('',#1354,#618);
#520=LINE('',#1356,#619);
#521=LINE('',#1358,#620);
#522=LINE('',#1360,#621);
#523=LINE('',#1362,#622);
#524=LINE('',#1364,#623);
#525=LINE('',#1366,#624);
#526=LINE('',#1372,#625);
#527=LINE('',#1375,#626);
#528=LINE('',#1377,#627);
#529=LINE('',#1378,#628);
#530=LINE('',#1380,#629);
#531=LINE('',#1382,#630);
#532=LINE('',#1384,#631);
#533=LINE('',#1386,#632);
#534=LINE('',#1388,#633);
#535=LINE('',#1392,#634);
#536=LINE('',#1394,#635);
#537=LINE('',#1396,#636);
#538=LINE('',#1398,#637);
#539=LINE('',#1399,#638);
#540=LINE('',#1401,#639);
#541=LINE('',#1403,#640);
#542=LINE('',#1405,#641);
#543=LINE('',#1409,#642);
#544=LINE('',#1411,#643);
#545=LINE('',#1413,#644);
#546=LINE('',#1415,#645);
#547=LINE('',#1417,#646);
#548=LINE('',#1419,#647);
#549=LINE('',#1423,#648);
#550=LINE('',#1426,#649);
#551=LINE('',#1427,#650);
#552=LINE('',#1429,#651);
#553=LINE('',#1430,#652);
#554=VECTOR('',#968,1.);
#555=VECTOR('',#969,1.);
#556=VECTOR('',#970,1.);
#557=VECTOR('',#971,1.);
#558=VECTOR('',#974,1.);
#559=VECTOR('',#975,1.);
#560=VECTOR('',#976,1.);
#561=VECTOR('',#977,1.);
#562=VECTOR('',#980,1.);
#563=VECTOR('',#981,1.);
#564=VECTOR('',#984,1.);
#565=VECTOR('',#985,1.);
#566=VECTOR('',#986,1.);
#567=VECTOR('',#987,1.);
#568=VECTOR('',#988,1.);
#569=VECTOR('',#989,1.);
#570=VECTOR('',#996,1.);
#571=VECTOR('',#997,1.);
#572=VECTOR('',#998,1.);
#573=VECTOR('',#999,1.);
#574=VECTOR('',#1000,1.);
#575=VECTOR('',#1001,1.);
#576=VECTOR('',#1010,1.);
#577=VECTOR('',#1011,1.);
#578=VECTOR('',#1012,1.);
#579=VECTOR('',#1013,1.);
#580=VECTOR('',#1014,1.);
#581=VECTOR('',#1015,1.);
#582=VECTOR('',#1018,1.);
#583=VECTOR('',#1019,1.);
#584=VECTOR('',#1020,1.);
#585=VECTOR('',#1021,1.);
#586=VECTOR('',#1022,1.);
#587=VECTOR('',#1023,1.);
#588=VECTOR('',#1028,1.);
#589=VECTOR('',#1029,1.);
#590=VECTOR('',#1030,1.);
#591=VECTOR('',#1031,1.);
#592=VECTOR('',#1034,1.);
#593=VECTOR('',#1035,1.);
#594=VECTOR('',#1036,1.);
#595=VECTOR('',#1037,1.);
#596=VECTOR('',#1038,1.);
#597=VECTOR('',#1039,1.);
#598=VECTOR('',#1042,1.);
#599=VECTOR('',#1043,1.);
#600=VECTOR('',#1044,1.);
#601=VECTOR('',#1055,1.);
#602=VECTOR('',#1056,1.);
#603=VECTOR('',#1057,1.);
#604=VECTOR('',#1060,1.);
#605=VECTOR('',#1061,1.);
#606=VECTOR('',#1062,1.);
#607=VECTOR('',#1065,1.);
#608=VECTOR('',#1066,1.);
#609=VECTOR('',#1067,1.);
#610=VECTOR('',#1070,1.);
#611=VECTOR('',#1071,1.);
#612=VECTOR('',#1072,1.);
#613=VECTOR('',#1075,1.);
#614=VECTOR('',#1078,1.);
#615=VECTOR('',#1097,1.);
#616=VECTOR('',#1098,1.);
#617=VECTOR('',#1101,1.);
#618=VECTOR('',#1104,1.);
#619=VECTOR('',#1107,1.);
#620=VECTOR('',#1110,1.);
#621=VECTOR('',#1113,1.);
#622=VECTOR('',#1116,1.);
#623=VECTOR('',#1119,1.);
#624=VECTOR('',#1122,1.);
#625=VECTOR('',#1131,1.);
#626=VECTOR('',#1132,1.);
#627=VECTOR('',#1133,1.);
#628=VECTOR('',#1134,1.);
#629=VECTOR('',#1135,1.);
#630=VECTOR('',#1138,1.);
#631=VECTOR('',#1139,1.);
#632=VECTOR('',#1142,1.);
#633=VECTOR('',#1143,1.);
#634=VECTOR('',#1148,1.);
#635=VECTOR('',#1149,1.);
#636=VECTOR('',#1150,1.);
#637=VECTOR('',#1153,1.);
#638=VECTOR('',#1154,1.);
#639=VECTOR('',#1157,1.);
#640=VECTOR('',#1158,1.);
#641=VECTOR('',#1159,1.);
#642=VECTOR('',#1164,1.);
#643=VECTOR('',#1165,1.);
#644=VECTOR('',#1166,1.);
#645=VECTOR('',#1167,1.);
#646=VECTOR('',#1170,1.);
#647=VECTOR('',#1171,1.);
#648=VECTOR('',#1176,1.);
#649=VECTOR('',#1177,1.);
#650=VECTOR('',#1178,1.);
#651=VECTOR('',#1181,1.);
#652=VECTOR('',#1182,1.);
#653=EDGE_LOOP('',(#36,#37,#38,#39));
#654=EDGE_LOOP('',(#40,#41,#42,#43));
#655=EDGE_LOOP('',(#44,#45,#46,#47));
#656=EDGE_LOOP('',(#48,#49,#50,#51,#52,#53));
#657=EDGE_LOOP('',(#54));
#658=EDGE_LOOP('',(#55));
#659=EDGE_LOOP('',(#56));
#660=EDGE_LOOP('',(#57,#58,#59,#60,#61,#62,#63,#64));
#661=EDGE_LOOP('',(#65));
#662=EDGE_LOOP('',(#66));
#663=EDGE_LOOP('',(#67));
#664=EDGE_LOOP('',(#68,#69,#70,#71,#72,#73));
#665=EDGE_LOOP('',(#74,#75,#76,#77,#78,#79,#80));
#666=EDGE_LOOP('',(#81));
#667=EDGE_LOOP('',(#82,#83,#84,#85));
#668=EDGE_LOOP('',(#86,#87,#88,#89,#90,#91,#92));
#669=EDGE_LOOP('',(#93,#94,#95,#96));
#670=EDGE_LOOP('',(#97));
#671=EDGE_LOOP('',(#98));
#672=EDGE_LOOP('',(#99));
#673=EDGE_LOOP('',(#100));
#674=EDGE_LOOP('',(#101,#102,#103,#104,#105,#106));
#675=EDGE_LOOP('',(#107,#108,#109,#110,#111,#112,#113));
#676=EDGE_LOOP('',(#114,#115,#116,#117,#118,#119,#120));
#677=EDGE_LOOP('',(#121,#122,#123,#124));
#678=EDGE_LOOP('',(#125,#126,#127,#128,#129));
#679=EDGE_LOOP('',(#130,#131,#132,#133,#134,#135));
#680=EDGE_LOOP('',(#136,#137,#138,#139,#140));
#681=EDGE_LOOP('',(#141));
#682=EDGE_LOOP('',(#142));
#683=EDGE_LOOP('',(#143));
#684=EDGE_LOOP('',(#144));
#685=EDGE_LOOP('',(#145));
#686=EDGE_LOOP('',(#146));
#687=EDGE_LOOP('',(#147));
#688=EDGE_LOOP('',(#148));
#689=EDGE_LOOP('',(#149));
#690=EDGE_LOOP('',(#150));
#691=EDGE_LOOP('',(#151,#152,#153,#154));
#692=EDGE_LOOP('',(#155,#156,#157,#158));
#693=EDGE_LOOP('',(#159,#160,#161));
#694=EDGE_LOOP('',(#162,#163,#164));
#695=EDGE_LOOP('',(#165,#166,#167,#168));
#696=EDGE_LOOP('',(#169,#170,#171,#172));
#697=EDGE_LOOP('',(#173,#174,#175,#176));
#698=EDGE_LOOP('',(#177,#178,#179));
#699=EDGE_LOOP('',(#180,#181,#182));
#700=EDGE_LOOP('',(#183,#184,#185,#186));
#701=EDGE_LOOP('',(#187));
#702=EDGE_LOOP('',(#188));
#703=EDGE_LOOP('',(#189,#190,#191,#192,#193,#194));
#704=EDGE_LOOP('',(#195,#196,#197,#198));
#705=EDGE_LOOP('',(#199,#200,#201,#202));
#706=EDGE_LOOP('',(#203));
#707=EDGE_LOOP('',(#204,#205,#206,#207,#208,#209,#210,#211));
#708=EDGE_LOOP('',(#212,#213,#214,#215));
#709=EDGE_LOOP('',(#216,#217,#218,#219));
#710=EDGE_LOOP('',(#220));
#711=EDGE_LOOP('',(#221,#222,#223,#224,#225,#226));
#712=EDGE_LOOP('',(#227,#228,#229,#230));
#713=EDGE_LOOP('',(#231));
#714=EDGE_LOOP('',(#232,#233,#234,#235,#236,#237,#238,#239));
#715=EDGE_LOOP('',(#240,#241,#242,#243));
#716=EDGE_LOOP('',(#244,#245,#246,#247));
#717=EDGE_LOOP('',(#248,#249,#250,#251));
#718=EDGE_LOOP('',(#252,#253,#254,#255));
#719=EDGE_LOOP('',(#256,#257,#258,#259));
#720=EDGE_LOOP('',(#260));
#721=EDGE_LOOP('',(#261));
#722=EDGE_LOOP('',(#262));
#723=EDGE_LOOP('',(#263));
#724=FACE_BOUND('',#653,.T.);
#725=FACE_BOUND('',#654,.T.);
#726=FACE_BOUND('',#655,.T.);
#727=FACE_BOUND('',#656,.T.);
#728=FACE_BOUND('',#657,.T.);
#729=FACE_BOUND('',#658,.T.);
#730=FACE_BOUND('',#659,.T.);
#731=FACE_BOUND('',#660,.T.);
#732=FACE_BOUND('',#661,.T.);
#733=FACE_BOUND('',#662,.T.);
#734=FACE_BOUND('',#663,.T.);
#735=FACE_BOUND('',#664,.T.);
#736=FACE_BOUND('',#665,.T.);
#737=FACE_BOUND('',#666,.T.);
#738=FACE_BOUND('',#667,.T.);
#739=FACE_BOUND('',#668,.T.);
#740=FACE_BOUND('',#669,.T.);
#741=FACE_BOUND('',#670,.T.);
#742=FACE_BOUND('',#671,.T.);
#743=FACE_BOUND('',#672,.T.);
#744=FACE_BOUND('',#673,.T.);
#745=FACE_BOUND('',#674,.T.);
#746=FACE_BOUND('',#675,.T.);
#747=FACE_BOUND('',#676,.T.);
#748=FACE_BOUND('',#677,.T.);
#749=FACE_BOUND('',#678,.T.);
#750=FACE_BOUND('',#679,.T.);
#751=FACE_BOUND('',#680,.T.);
#752=FACE_BOUND('',#681,.T.);
#753=FACE_BOUND('',#682,.T.);
#754=FACE_BOUND('',#683,.T.);
#755=FACE_BOUND('',#684,.T.);
#756=FACE_BOUND('',#685,.T.);
#757=FACE_BOUND('',#686,.T.);
#758=FACE_BOUND('',#687,.T.);
#759=FACE_BOUND('',#688,.T.);
#760=FACE_BOUND('',#689,.T.);
#761=FACE_BOUND('',#690,.T.);
#762=FACE_BOUND('',#691,.T.);
#763=FACE_BOUND('',#692,.T.);
#764=FACE_BOUND('',#693,.T.);
#765=FACE_BOUND('',#694,.T.);
#766=FACE_BOUND('',#695,.T.);
#767=FACE_BOUND('',#696,.T.);
#768=FACE_BOUND('',#697,.T.);
#769=FACE_BOUND('',#698,.T.);
#770=FACE_BOUND('',#699,.T.);
#771=FACE_BOUND('',#700,.T.);
#772=FACE_BOUND('',#701,.T.);
#773=FACE_BOUND('',#702,.T.);
#774=FACE_BOUND('',#703,.T.);
#775=FACE_BOUND('',#704,.T.);
#776=FACE_BOUND('',#705,.T.);
#777=FACE_BOUND('',#706,.T.);
#778=FACE_BOUND('',#707,.T.);
#779=FACE_BOUND('',#708,.T.);
#780=FACE_BOUND('',#709,.T.);
#781=FACE_BOUND('',#710,.T.);
#782=FACE_BOUND('',#711,.T.);
#783=FACE_BOUND('',#712,.T.);
#784=FACE_BOUND('',#713,.T.);
#785=FACE_BOUND('',#714,.T.);
#786=FACE_BOUND('',#715,.T.);
#787=FACE_BOUND('',#716,.T.);
#788=FACE_BOUND('',#717,.T.);
#789=FACE_BOUND('',#718,.T.);
#790=FACE_BOUND('',#719,.T.);
#791=FACE_BOUND('',#720,.T.);
#792=FACE_BOUND('',#721,.T.);
#793=FACE_BOUND('',#722,.T.);
#794=FACE_BOUND('',#723,.T.);
#795=PLANE('',#899);
#796=PLANE('',#900);
#797=PLANE('',#901);
#798=PLANE('',#902);
#799=PLANE('',#908);
#800=PLANE('',#910);
#801=PLANE('',#911);
#802=PLANE('',#913);
#803=PLANE('',#914);
#804=PLANE('',#917);
#805=PLANE('',#920);
#806=PLANE('',#921);
#807=PLANE('',#922);
#808=PLANE('',#923);
#809=PLANE('',#924);
#810=PLANE('',#925);
#811=PLANE('',#933);
#812=PLANE('',#934);
#813=PLANE('',#935);
#814=PLANE('',#936);
#815=PLANE('',#937);
#816=PLANE('',#938);
#817=PLANE('',#939);
#818=PLANE('',#940);
#819=PLANE('',#941);
#820=PLANE('',#942);
#821=PLANE('',#943);
#822=PLANE('',#944);
#823=PLANE('',#946);
#824=PLANE('',#947);
#825=PLANE('',#948);
#826=PLANE('',#950);
#827=PLANE('',#951);
#828=PLANE('',#952);
#829=PLANE('',#954);
#830=PLANE('',#955);
#831=PLANE('',#957);
#832=PLANE('',#958);
#833=PLANE('',#959);
#834=PLANE('',#960);
#835=PLANE('',#961);
#836=ADVANCED_FACE('',(#724),#795,.F.);
#837=ADVANCED_FACE('',(#725),#796,.T.);
#838=ADVANCED_FACE('',(#726),#797,.T.);
#839=ADVANCED_FACE('',(#727,#728,#729,#730,#731),#798,.F.);
#840=ADVANCED_FACE('',(#732,#733),#15,.F.);
#841=ADVANCED_FACE('',(#734,#735),#799,.F.);
#842=ADVANCED_FACE('',(#736),#800,.F.);
#843=ADVANCED_FACE('',(#737,#738),#801,.T.);
#844=ADVANCED_FACE('',(#739),#802,.T.);
#845=ADVANCED_FACE('',(#740),#803,.T.);
#846=ADVANCED_FACE('',(#741,#742),#16,.F.);
#847=ADVANCED_FACE('',(#743,#744,#745),#804,.F.);
#848=ADVANCED_FACE('',(#746),#805,.F.);
#849=ADVANCED_FACE('',(#747),#806,.F.);
#850=ADVANCED_FACE('',(#748),#807,.T.);
#851=ADVANCED_FACE('',(#749),#808,.T.);
#852=ADVANCED_FACE('',(#750),#809,.T.);
#853=ADVANCED_FACE('',(#751),#810,.T.);
#854=ADVANCED_FACE('',(#752,#753),#17,.F.);
#855=ADVANCED_FACE('',(#754,#755),#18,.F.);
#856=ADVANCED_FACE('',(#756,#757),#12,.F.);
#857=ADVANCED_FACE('',(#758,#759),#13,.F.);
#858=ADVANCED_FACE('',(#760,#761),#14,.F.);
#859=ADVANCED_FACE('',(#762),#811,.T.);
#860=ADVANCED_FACE('',(#763),#812,.T.);
#861=ADVANCED_FACE('',(#764),#813,.T.);
#862=ADVANCED_FACE('',(#765),#814,.T.);
#863=ADVANCED_FACE('',(#766),#815,.T.);
#864=ADVANCED_FACE('',(#767),#816,.F.);
#865=ADVANCED_FACE('',(#768),#817,.F.);
#866=ADVANCED_FACE('',(#769),#818,.T.);
#867=ADVANCED_FACE('',(#770),#819,.T.);
#868=ADVANCED_FACE('',(#771),#820,.F.);
#869=ADVANCED_FACE('',(#772),#821,.F.);
#870=ADVANCED_FACE('',(#773,#774),#822,.T.);
#871=ADVANCED_FACE('',(#775),#823,.F.);
#872=ADVANCED_FACE('',(#776),#824,.T.);
#873=ADVANCED_FACE('',(#777,#778),#825,.F.);
#874=ADVANCED_FACE('',(#779),#826,.T.);
#875=ADVANCED_FACE('',(#780),#827,.T.);
#876=ADVANCED_FACE('',(#781,#782),#828,.F.);
#877=ADVANCED_FACE('',(#783),#829,.F.);
#878=ADVANCED_FACE('',(#784,#785),#830,.T.);
#879=ADVANCED_FACE('',(#786),#831,.T.);
#880=ADVANCED_FACE('',(#787),#832,.F.);
#881=ADVANCED_FACE('',(#788),#833,.T.);
#882=ADVANCED_FACE('',(#789),#834,.T.);
#883=ADVANCED_FACE('',(#790),#835,.F.);
#884=ADVANCED_FACE('',(#791,#792),#19,.F.);
#885=ADVANCED_FACE('',(#793,#794),#20,.F.);
#886=CLOSED_SHELL('',(#836,#837,#838,#839,#840,#841,#842,#843,#844,#845,
#846,#847,#848,#849,#850,#851,#852,#853,#854,#855,#856,#857,#858,#859,#860,
#861,#862,#863,#864,#865,#866,#867,#868,#869,#870,#871,#872,#873,#874,#875,
#876,#877,#878,#879,#880,#881,#882,#883,#884,#885));
#887=STYLED_ITEM('',(#888),#895);
#888=PRESENTATION_STYLE_ASSIGNMENT((#889));
#889=SURFACE_STYLE_USAGE(.BOTH.,#890);
#890=SURFACE_SIDE_STYLE('',(#891));
#891=SURFACE_STYLE_FILL_AREA(#892);
#892=FILL_AREA_STYLE('',(#893));
#893=FILL_AREA_STYLE_COLOUR('',#894);
#894=COLOUR_RGB('',0.866666666666667,0.32156862745098,0.156862745098039);
#895=MANIFOLD_SOLID_BREP('TFR-Rod Mount',#886);
#896=SHAPE_DEFINITION_REPRESENTATION(#1443,#897);
#897=SHAPE_REPRESENTATION('TFR-Rod Mount',(#898),#1438);
#898=AXIS2_PLACEMENT_3D('',#1195,#964,#965);
#899=AXIS2_PLACEMENT_3D('',#1196,#966,#967);
#900=AXIS2_PLACEMENT_3D('',#1205,#972,#973);
#901=AXIS2_PLACEMENT_3D('',#1214,#978,#979);
#902=AXIS2_PLACEMENT_3D('',#1217,#982,#983);
#903=AXIS2_PLACEMENT_3D('',#1230,#990,#991);
#904=AXIS2_PLACEMENT_3D('',#1232,#992,#993);
#905=AXIS2_PLACEMENT_3D('',#1234,#994,#995);
#906=AXIS2_PLACEMENT_3D('',#1246,#1002,#1003);
#907=AXIS2_PLACEMENT_3D('',#1247,#1004,#1005);
#908=AXIS2_PLACEMENT_3D('',#1249,#1006,#1007);
#909=AXIS2_PLACEMENT_3D('',#1250,#1008,#1009);
#910=AXIS2_PLACEMENT_3D('',#1264,#1016,#1017);
#911=AXIS2_PLACEMENT_3D('',#1276,#1024,#1025);
#912=AXIS2_PLACEMENT_3D('',#1277,#1026,#1027);
#913=AXIS2_PLACEMENT_3D('',#1287,#1032,#1033);
#914=AXIS2_PLACEMENT_3D('',#1299,#1040,#1041);
#915=AXIS2_PLACEMENT_3D('',#1305,#1045,#1046);
#916=AXIS2_PLACEMENT_3D('',#1306,#1047,#1048);
#917=AXIS2_PLACEMENT_3D('',#1308,#1049,#1050);
#918=AXIS2_PLACEMENT_3D('',#1309,#1051,#1052);
#919=AXIS2_PLACEMENT_3D('',#1311,#1053,#1054);
#920=AXIS2_PLACEMENT_3D('',#1318,#1058,#1059);
#921=AXIS2_PLACEMENT_3D('',#1323,#1063,#1064);
#922=AXIS2_PLACEMENT_3D('',#1328,#1068,#1069);
#923=AXIS2_PLACEMENT_3D('',#1334,#1073,#1074);
#924=AXIS2_PLACEMENT_3D('',#1336,#1076,#1077);
#925=AXIS2_PLACEMENT_3D('',#1338,#1079,#1080);
#926=AXIS2_PLACEMENT_3D('',#1339,#1081,#1082);
#927=AXIS2_PLACEMENT_3D('',#1340,#1083,#1084);
#928=AXIS2_PLACEMENT_3D('',#1342,#1085,#1086);
#929=AXIS2_PLACEMENT_3D('',#1343,#1087,#1088);
#930=AXIS2_PLACEMENT_3D('',#1345,#1089,#1090);
#931=AXIS2_PLACEMENT_3D('',#1346,#1091,#1092);
#932=AXIS2_PLACEMENT_3D('',#1347,#1093,#1094);
#933=AXIS2_PLACEMENT_3D('',#1348,#1095,#1096);
#934=AXIS2_PLACEMENT_3D('',#1351,#1099,#1100);
#935=AXIS2_PLACEMENT_3D('',#1353,#1102,#1103);
#936=AXIS2_PLACEMENT_3D('',#1355,#1105,#1106);
#937=AXIS2_PLACEMENT_3D('',#1357,#1108,#1109);
#938=AXIS2_PLACEMENT_3D('',#1359,#1111,#1112);
#939=AXIS2_PLACEMENT_3D('',#1361,#1114,#1115);
#940=AXIS2_PLACEMENT_3D('',#1363,#1117,#1118);
#941=AXIS2_PLACEMENT_3D('',#1365,#1120,#1121);
#942=AXIS2_PLACEMENT_3D('',#1367,#1123,#1124);
#943=AXIS2_PLACEMENT_3D('',#1368,#1125,#1126);
#944=AXIS2_PLACEMENT_3D('',#1369,#1127,#1128);
#945=AXIS2_PLACEMENT_3D('',#1370,#1129,#1130);
#946=AXIS2_PLACEMENT_3D('',#1381,#1136,#1137);
#947=AXIS2_PLACEMENT_3D('',#1385,#1140,#1141);
#948=AXIS2_PLACEMENT_3D('',#1389,#1144,#1145);
#949=AXIS2_PLACEMENT_3D('',#1390,#1146,#1147);
#950=AXIS2_PLACEMENT_3D('',#1397,#1151,#1152);
#951=AXIS2_PLACEMENT_3D('',#1400,#1155,#1156);
#952=AXIS2_PLACEMENT_3D('',#1406,#1160,#1161);
#953=AXIS2_PLACEMENT_3D('',#1407,#1162,#1163);
#954=AXIS2_PLACEMENT_3D('',#1416,#1168,#1169);
#955=AXIS2_PLACEMENT_3D('',#1420,#1172,#1173);
#956=AXIS2_PLACEMENT_3D('',#1421,#1174,#1175);
#957=AXIS2_PLACEMENT_3D('',#1428,#1179,#1180);
#958=AXIS2_PLACEMENT_3D('',#1431,#1183,#1184);
#959=AXIS2_PLACEMENT_3D('',#1432,#1185,#1186);
#960=AXIS2_PLACEMENT_3D('',#1433,#1187,#1188);
#961=AXIS2_PLACEMENT_3D('',#1434,#1189,#1190);
#962=AXIS2_PLACEMENT_3D('',#1435,#1191,#1192);
#963=AXIS2_PLACEMENT_3D('',#1436,#1193,#1194);
#964=DIRECTION('',(0.,0.,1.));
#965=DIRECTION('',(1.,0.,0.));
#966=DIRECTION('',(1.,0.,0.));
#967=DIRECTION('',(0.,0.,-1.));
#968=DIRECTION('',(0.,0.,-1.));
#969=DIRECTION('',(0.,-1.,0.));
#970=DIRECTION('',(0.,0.,-1.));
#971=DIRECTION('',(0.,-1.,0.));
#972=DIRECTION('',(1.,0.,0.));
#973=DIRECTION('',(0.,0.,-1.));
#974=DIRECTION('',(0.,-1.,0.));
#975=DIRECTION('',(0.,0.,-1.));
#976=DIRECTION('',(0.,-1.,0.));
#977=DIRECTION('',(0.,0.,-1.));
#978=DIRECTION('',(0.,1.,0.));
#979=DIRECTION('',(-1.,0.,0.));
#980=DIRECTION('',(-1.,0.,0.));
#981=DIRECTION('',(-1.,0.,0.));
#982=DIRECTION('',(0.,-1.,0.));
#983=DIRECTION('',(1.,0.,0.));
#984=DIRECTION('',(-1.,0.,0.));
#985=DIRECTION('',(-1.,0.,0.));
#986=DIRECTION('',(0.,0.,1.));
#987=DIRECTION('',(1.,0.,0.));
#988=DIRECTION('',(-1.,0.,0.));
#989=DIRECTION('',(0.,0.,-1.));
#990=DIRECTION('',(0.,-1.,0.));
#991=DIRECTION('',(0.,0.,-1.));
#992=DIRECTION('',(0.,-1.,0.));
#993=DIRECTION('',(0.,0.,-1.));
#994=DIRECTION('',(0.,-1.,0.));
#995=DIRECTION('',(0.,0.,-1.));
#996=DIRECTION('',(-1.,0.,0.));
#997=DIRECTION('',(0.,0.,-1.));
#998=DIRECTION('',(0.,0.,-1.));
#999=DIRECTION('',(-1.,0.,0.));
#1000=DIRECTION('',(0.,0.,-1.));
#1001=DIRECTION('',(0.,0.,-1.));
#1002=DIRECTION('',(0.,-1.,0.));
#1003=DIRECTION('',(0.,0.,-1.));
#1004=DIRECTION('',(0.,-1.,0.));
#1005=DIRECTION('',(0.,0.,-1.));
#1006=DIRECTION('',(-1.,0.,0.));
#1007=DIRECTION('',(0.,0.,1.));
#1008=DIRECTION('',(-1.,0.,0.));
#1009=DIRECTION('',(0.,0.,1.));
#1010=DIRECTION('',(0.,0.,-1.));
#1011=DIRECTION('',(0.,-0.707106781186548,0.707106781186548));
#1012=DIRECTION('',(0.,-1.,0.));
#1013=DIRECTION('',(0.,0.,-1.));
#1014=DIRECTION('',(0.,-1.,0.));
#1015=DIRECTION('',(0.,-0.707106781186548,-0.707106781186548));
#1016=DIRECTION('',(0.,0.,-1.));
#1017=DIRECTION('',(-1.,0.,0.));
#1018=DIRECTION('',(0.,-1.,0.));
#1019=DIRECTION('',(1.,0.,0.));
#1020=DIRECTION('',(-1.,0.,0.));
#1021=DIRECTION('',(0.,1.,0.));
#1022=DIRECTION('',(-1.,0.,0.));
#1023=DIRECTION('',(-1.,0.,0.));
#1024=DIRECTION('',(-1.,0.,0.));
#1025=DIRECTION('',(0.,0.,1.));
#1026=DIRECTION('',(-1.,0.,0.));
#1027=DIRECTION('',(0.,0.,1.));
#1028=DIRECTION('',(0.,-1.,0.));
#1029=DIRECTION('',(0.,0.,1.));
#1030=DIRECTION('',(0.,1.,0.));
#1031=DIRECTION('',(0.,0.,-1.));
#1032=DIRECTION('',(0.,0.,-1.));
#1033=DIRECTION('',(-1.,0.,0.));
#1034=DIRECTION('',(-1.,0.,0.));
#1035=DIRECTION('',(0.,1.,0.));
#1036=DIRECTION('',(1.,0.,0.));
#1037=DIRECTION('',(-1.,0.,0.));
#1038=DIRECTION('',(0.,-1.,0.));
#1039=DIRECTION('',(-1.,0.,0.));
#1040=DIRECTION('',(0.,-1.,0.));
#1041=DIRECTION('',(1.,0.,0.));
#1042=DIRECTION('',(0.,0.,-1.));
#1043=DIRECTION('',(1.,0.,0.));
#1044=DIRECTION('',(-1.,0.,0.));
#1045=DIRECTION('',(-1.,0.,0.));
#1046=DIRECTION('',(0.,0.,1.));
#1047=DIRECTION('',(-1.,0.,0.));
#1048=DIRECTION('',(0.,0.,1.));
#1049=DIRECTION('',(0.,1.,0.));
#1050=DIRECTION('',(0.,0.,1.));
#1051=DIRECTION('',(0.,1.,0.));
#1052=DIRECTION('',(0.,0.,1.));
#1053=DIRECTION('',(0.,1.,0.));
#1054=DIRECTION('',(0.,0.,1.));
#1055=DIRECTION('',(0.,0.,-1.));
#1056=DIRECTION('',(-0.707106781186548,0.,0.707106781186548));
#1057=DIRECTION('',(0.707106781186548,0.,0.707106781186548));
#1058=DIRECTION('',(0.,-0.707106781186548,0.707106781186548));
#1059=DIRECTION('',(0.,-0.707106781186548,-0.707106781186548));
#1060=DIRECTION('',(0.577350269189626,-0.577350269189626,-0.577350269189626));
#1061=DIRECTION('',(-0.577350269189626,-0.577350269189626,-0.577350269189626));
#1062=DIRECTION('',(0.,-0.707106781186548,-0.707106781186548));
#1063=DIRECTION('',(0.,-0.707106781186548,-0.707106781186548));
#1064=DIRECTION('',(0.,0.707106781186548,-0.707106781186548));
#1065=DIRECTION('',(0.577350269189626,0.577350269189626,-0.577350269189626));
#1066=DIRECTION('',(-0.577350269189626,0.577350269189626,-0.577350269189626));
#1067=DIRECTION('',(0.,-0.707106781186548,0.707106781186548));
#1068=DIRECTION('',(1.,0.,0.));
#1069=DIRECTION('',(0.,1.,0.));
#1070=DIRECTION('',(0.,0.,1.));
#1071=DIRECTION('',(0.,-1.,0.));
#1072=DIRECTION('',(0.,1.,0.));
#1073=DIRECTION('',(0.707106781186548,0.,-0.707106781186548));
#1074=DIRECTION('',(0.,-1.,0.));
#1075=DIRECTION('',(-0.577350269189626,0.577350269189626,-0.577350269189626));
#1076=DIRECTION('',(0.707106781186548,0.707106781186548,0.));
#1077=DIRECTION('',(0.,0.,-1.));
#1078=DIRECTION('',(-0.577350269189626,0.577350269189626,0.577350269189626));
#1079=DIRECTION('',(0.707106781186548,0.,0.707106781186548));
#1080=DIRECTION('',(0.,1.,0.));
#1081=DIRECTION('',(0.,1.,0.));
#1082=DIRECTION('',(0.,0.,1.));
#1083=DIRECTION('',(0.,-1.,0.));
#1084=DIRECTION('',(0.,0.,-1.));
#1085=DIRECTION('',(0.,1.,0.));
#1086=DIRECTION('',(0.,0.,1.));
#1087=DIRECTION('',(0.,-1.,0.));
#1088=DIRECTION('',(0.,0.,-1.));
#1089=DIRECTION('',(0.,1.,0.));
#1090=DIRECTION('',(0.,0.,1.));
#1091=DIRECTION('',(0.,1.,0.));
#1092=DIRECTION('',(0.,0.,1.));
#1093=DIRECTION('',(-1.,0.,0.));
#1094=DIRECTION('',(0.,0.,1.));
#1095=DIRECTION('',(-0.707106781186548,0.,0.707106781186548));
#1096=DIRECTION('',(0.,1.,0.));
#1097=DIRECTION('',(-0.707106781186548,0.,-0.707106781186548));
#1098=DIRECTION('',(0.707106781186548,0.,0.707106781186548));
#1099=DIRECTION('',(0.,-0.707106781186548,0.707106781186548));
#1100=DIRECTION('',(-1.,0.,0.));
#1101=DIRECTION('',(0.,0.707106781186548,0.707106781186548));
#1102=DIRECTION('',(-0.577350269189626,0.577350269189626,0.577350269189626));
#1103=DIRECTION('',(0.707106781186548,0.,0.707106781186548));
#1104=DIRECTION('',(-0.707106781186548,-0.707106781186548,0.));
#1105=DIRECTION('',(-0.577350269189626,-0.577350269189626,0.577350269189626));
#1106=DIRECTION('',(0.707106781186548,0.,0.707106781186548));
#1107=DIRECTION('',(-0.707106781186548,0.707106781186548,0.));
#1108=DIRECTION('',(-0.707106781186548,0.707106781186548,0.));
#1109=DIRECTION('',(0.,0.,1.));
#1110=DIRECTION('',(0.707106781186548,0.707106781186548,0.));
#1111=DIRECTION('',(0.707106781186548,0.707106781186548,0.));
#1112=DIRECTION('',(0.,0.,-1.));
#1113=DIRECTION('',(0.707106781186548,-0.707106781186548,0.));
#1114=DIRECTION('',(0.,0.707106781186548,0.707106781186548));
#1115=DIRECTION('',(1.,0.,0.));
#1116=DIRECTION('',(0.,0.707106781186548,-0.707106781186548));
#1117=DIRECTION('',(-0.577350269189626,0.577350269189626,-0.577350269189626));
#1118=DIRECTION('',(-0.707106781186548,0.,0.707106781186548));
#1119=DIRECTION('',(0.707106781186548,0.,-0.707106781186548));
#1120=DIRECTION('',(-0.577350269189626,-0.577350269189626,-0.577350269189626));
#1121=DIRECTION('',(-0.707106781186548,0.,0.707106781186548));
#1122=DIRECTION('',(-0.707106781186548,0.,0.707106781186548));
#1123=DIRECTION('',(0.707106781186548,0.,0.707106781186548));
#1124=DIRECTION('',(0.,-1.,0.));
#1125=DIRECTION('',(0.,-1.,0.));
#1126=DIRECTION('',(1.,0.,0.));
#1127=DIRECTION('',(0.,0.,1.));
#1128=DIRECTION('',(1.,0.,0.));
#1129=DIRECTION('',(0.,0.,1.));
#1130=DIRECTION('',(1.,0.,0.));
#1131=DIRECTION('',(-1.,0.,0.));
#1132=DIRECTION('',(0.707106781186548,0.707106781186548,0.));
#1133=DIRECTION('',(0.,-1.,0.));
#1134=DIRECTION('',(0.,-1.,0.));
#1135=DIRECTION('',(-0.707106781186548,0.707106781186548,0.));
#1136=DIRECTION('',(-1.,0.,0.));
#1137=DIRECTION('',(0.,0.,1.));
#1138=DIRECTION('',(0.,-1.,0.));
#1139=DIRECTION('',(0.,0.,1.));
#1140=DIRECTION('',(-1.,0.,0.));
#1141=DIRECTION('',(0.,0.,1.));
#1142=DIRECTION('',(0.,0.,-1.));
#1143=DIRECTION('',(0.,-1.,0.));
#1144=DIRECTION('',(0.,0.,1.));
#1145=DIRECTION('',(1.,0.,0.));
#1146=DIRECTION('',(0.,0.,1.));
#1147=DIRECTION('',(1.,0.,0.));
#1148=DIRECTION('',(-0.707106781186548,-0.707106781186548,0.));
#1149=DIRECTION('',(-1.,0.,0.));
#1150=DIRECTION('',(0.707106781186548,-0.707106781186548,0.));
#1151=DIRECTION('',(0.,1.,0.));
#1152=DIRECTION('',(-1.,0.,0.));
#1153=DIRECTION('',(0.,0.,1.));
#1154=DIRECTION('',(0.,0.,-1.));
#1155=DIRECTION('',(1.,0.,0.));
#1156=DIRECTION('',(0.,0.,-1.));
#1157=DIRECTION('',(0.,-1.,0.));
#1158=DIRECTION('',(0.,0.,1.));
#1159=DIRECTION('',(0.,-1.,0.));
#1160=DIRECTION('',(0.,0.,1.));
#1161=DIRECTION('',(1.,0.,0.));
#1162=DIRECTION('',(0.,0.,1.));
#1163=DIRECTION('',(1.,0.,0.));
#1164=DIRECTION('',(0.,-1.,0.));
#1165=DIRECTION('',(0.707106781186548,0.707106781186548,0.));
#1166=DIRECTION('',(-1.,0.,0.));
#1167=DIRECTION('',(-0.707106781186548,0.707106781186548,0.));
#1168=DIRECTION('',(1.,0.,0.));
#1169=DIRECTION('',(0.,0.,-1.));
#1170=DIRECTION('',(0.,-1.,0.));
#1171=DIRECTION('',(0.,0.,-1.));
#1172=DIRECTION('',(0.,0.,1.));
#1173=DIRECTION('',(1.,0.,0.));
#1174=DIRECTION('',(0.,0.,1.));
#1175=DIRECTION('',(1.,0.,0.));
#1176=DIRECTION('',(-1.,0.,0.));
#1177=DIRECTION('',(-0.707106781186548,-0.707106781186548,0.));
#1178=DIRECTION('',(0.707106781186548,-0.707106781186548,0.));
#1179=DIRECTION('',(0.,1.,0.));
#1180=DIRECTION('',(-1.,0.,0.));
#1181=DIRECTION('',(0.,0.,1.));
#1182=DIRECTION('',(0.,0.,-1.));
#1183=DIRECTION('',(0.707106781186548,-0.707106781186548,0.));
#1184=DIRECTION('',(0.,0.,-1.));
#1185=DIRECTION('',(0.707106781186548,0.707106781186548,0.));
#1186=DIRECTION('',(0.,0.,1.));
#1187=DIRECTION('',(-0.707106781186548,0.707106781186548,0.));
#1188=DIRECTION('',(0.,0.,-1.));
#1189=DIRECTION('',(-0.707106781186548,-0.707106781186548,0.));
#1190=DIRECTION('',(0.,0.,1.));
#1191=DIRECTION('',(0.,0.,-1.));
#1192=DIRECTION('',(-1.,0.,0.));
#1193=DIRECTION('',(0.,0.,-1.));
#1194=DIRECTION('',(-1.,0.,0.));
#1195=CARTESIAN_POINT('',(0.,0.,0.));
#1196=CARTESIAN_POINT('',(0.154813524404355,-0.1831,0.420006029657602));
#1197=CARTESIAN_POINT('',(0.154813524404355,-0.1815,0.420006029657602));
#1198=CARTESIAN_POINT('',(0.154813524404355,-0.1815,0.424506029657602));
#1199=CARTESIAN_POINT('',(0.154813524404355,-0.1815,0.415506029657602));
#1200=CARTESIAN_POINT('',(0.154813524404355,-0.1681,0.415506029657602));
#1201=CARTESIAN_POINT('',(0.154813524404355,-0.1831,0.415506029657602));
#1202=CARTESIAN_POINT('',(0.154813524404355,-0.1831,0.420006029657602));
#1203=CARTESIAN_POINT('',(0.154813524404355,-0.1831,0.424506029657602));
#1204=CARTESIAN_POINT('',(0.154813524404355,-0.1681,0.424506029657602));
#1205=CARTESIAN_POINT('',(0.137813524404355,-0.1831,0.420006029657602));
#1206=CARTESIAN_POINT('',(0.137813524404355,-0.1681,0.415506029657602));
#1207=CARTESIAN_POINT('',(0.137813524404355,-0.1815,0.415506029657602));
#1208=CARTESIAN_POINT('',(0.137813524404355,-0.1831,0.415506029657602));
#1209=CARTESIAN_POINT('',(0.137813524404355,-0.1815,0.420006029657602));
#1210=CARTESIAN_POINT('',(0.137813524404355,-0.1815,0.424506029657602));
#1211=CARTESIAN_POINT('',(0.137813524404355,-0.1681,0.424506029657602));
#1212=CARTESIAN_POINT('',(0.137813524404355,-0.1831,0.424506029657602));
#1213=CARTESIAN_POINT('',(0.137813524404355,-0.1831,0.420006029657602));
#1214=CARTESIAN_POINT('',(-0.026961303952946,-0.1831,0.398756029657602));
#1215=CARTESIAN_POINT('',(0.146313524404355,-0.1831,0.415506029657602));
#1216=CARTESIAN_POINT('',(0.146313524404355,-0.1831,0.424506029657602));
#1217=CARTESIAN_POINT('',(-0.039711303952946,-0.1815,0.398756029657602));
#1218=CARTESIAN_POINT('',(0.183313524404355,-0.1815,0.360756029657602));
#1219=CARTESIAN_POINT('',(0.180313524404355,-0.1815,0.360756029657602));
#1220=CARTESIAN_POINT('',(0.163313524404355,-0.1815,0.360756029657602));
#1221=CARTESIAN_POINT('',(0.128313524404355,-0.1815,0.360756029657602));
#1222=CARTESIAN_POINT('',(0.131313524404355,-0.1815,0.360756029657602));
#1223=CARTESIAN_POINT('',(0.131313524404355,-0.1815,0.439756029657602));
#1224=CARTESIAN_POINT('',(0.131313524404355,-0.1815,0.436756029657602));
#1225=CARTESIAN_POINT('',(-0.039711303952946,-0.1815,0.436756029657602));
#1226=CARTESIAN_POINT('',(0.163313524404355,-0.1815,0.436756029657602));
#1227=CARTESIAN_POINT('',(0.183313524404355,-0.1815,0.436756029657602));
#1228=CARTESIAN_POINT('',(0.180313524404355,-0.1815,0.436756029657602));
#1229=CARTESIAN_POINT('',(0.180313524404355,-0.1815,0.360756029657602));
#1230=CARTESIAN_POINT('',(0.147313524404355,-0.1815,0.400052546262741));
#1231=CARTESIAN_POINT('',(0.147313524404355,-0.1815,0.389552546262741));
#1232=CARTESIAN_POINT('',(0.173313524404355,-0.1815,0.431552546262741));
#1233=CARTESIAN_POINT('',(0.173313524404355,-0.1815,0.427052546262741));
#1234=CARTESIAN_POINT('',(0.173313524404355,-0.1815,0.386552546262741));
#1235=CARTESIAN_POINT('',(0.173313524404355,-0.1815,0.382052546262741));
#1236=CARTESIAN_POINT('',(0.146313524404355,-0.1815,0.427006029657602));
#1237=CARTESIAN_POINT('',(0.154813524404355,-0.1815,0.427006029657602));
#1238=CARTESIAN_POINT('',(0.137813524404355,-0.1815,0.427006029657602));
#1239=CARTESIAN_POINT('',(0.137813524404355,-0.1815,0.420006029657602));
#1240=CARTESIAN_POINT('',(0.137813524404355,-0.1815,0.420006029657602));
#1241=CARTESIAN_POINT('',(0.137813524404355,-0.1815,0.413006029657602));
#1242=CARTESIAN_POINT('',(0.146313524404355,-0.1815,0.413006029657602));
#1243=CARTESIAN_POINT('',(0.154813524404355,-0.1815,0.413006029657602));
#1244=CARTESIAN_POINT('',(0.154813524404355,-0.1815,0.420006029657602));
#1245=CARTESIAN_POINT('',(0.154813524404355,-0.1815,0.420006029657602));
#1246=CARTESIAN_POINT('',(0.147313524404355,-0.1815,0.400052546262741));
#1247=CARTESIAN_POINT('',(0.147313524404355,-0.2055,0.400052546262741));
#1248=CARTESIAN_POINT('',(0.147313524404355,-0.2055,0.389552546262741));
#1249=CARTESIAN_POINT('',(0.163313524404355,-0.1815,0.398756029657602));
#1250=CARTESIAN_POINT('',(0.163313524404355,-0.19838858210906,0.382506029657602));
#1251=CARTESIAN_POINT('',(0.163313524404355,-0.19838858210906,0.385006029657602));
#1252=CARTESIAN_POINT('',(0.163313524404355,-0.2085,0.398756029657602));
#1253=CARTESIAN_POINT('',(0.163313524404355,-0.2085,0.436756029657602));
#1254=CARTESIAN_POINT('',(0.163313524404355,-0.2085,0.360756029657602));
#1255=CARTESIAN_POINT('',(0.163313524404355,-0.2085,0.360756029657602));
#1256=CARTESIAN_POINT('',(0.163313524404355,-0.2055,0.357756029657602));
#1257=CARTESIAN_POINT('',(0.163313524404355,-0.1815,0.357756029657602));
#1258=CARTESIAN_POINT('',(0.163313524404355,-0.188447915675596,0.357756029657602));
#1259=CARTESIAN_POINT('',(0.163313524404355,-0.188447915675596,0.398756029657602));
#1260=CARTESIAN_POINT('',(0.163313524404355,-0.188447915675596,0.439756029657602));
#1261=CARTESIAN_POINT('',(0.163313524404355,-0.1815,0.439756029657602));
#1262=CARTESIAN_POINT('',(0.163313524404355,-0.2055,0.439756029657602));
#1263=CARTESIAN_POINT('',(0.163313524404355,-0.2055,0.439756029657602));
#1264=CARTESIAN_POINT('',(0.145813524404355,-0.1815,0.439756029657602));
#1265=CARTESIAN_POINT('',(0.131313524404355,-0.2085,0.439756029657602));
#1266=CARTESIAN_POINT('',(0.131313524404355,-0.1845,0.439756029657602));
#1267=CARTESIAN_POINT('',(0.131313524404355,-0.2055,0.439756029657602));
#1268=CARTESIAN_POINT('',(0.163313524404355,-0.2055,0.439756029657602));
#1269=CARTESIAN_POINT('',(0.183313524404355,-0.188447915675596,0.439756029657602));
#1270=CARTESIAN_POINT('',(0.180313524404355,-0.188447915675596,0.439756029657602));
#1271=CARTESIAN_POINT('',(0.180313524404355,-0.1845,0.439756029657602));
#1272=CARTESIAN_POINT('',(0.180313524404355,-0.1845,0.439756029657602));
#1273=CARTESIAN_POINT('',(0.183313524404355,-0.1845,0.439756029657602));
#1274=CARTESIAN_POINT('',(0.163313524404355,-0.1845,0.439756029657602));
#1275=CARTESIAN_POINT('',(0.145813524404355,-0.1845,0.439756029657602));
#1276=CARTESIAN_POINT('',(0.128313524404355,-0.1815,0.398756029657602));
#1277=CARTESIAN_POINT('',(0.128313524404355,-0.19838858210906,0.382506029657602));
#1278=CARTESIAN_POINT('',(0.128313524404355,-0.19838858210906,0.388006029657602));
#1279=CARTESIAN_POINT('',(0.128313524404355,-0.1815,0.360756029657602));
#1280=CARTESIAN_POINT('',(0.128313524404355,-0.1845,0.360756029657602));
#1281=CARTESIAN_POINT('',(0.128313524404355,-0.2055,0.360756029657602));
#1282=CARTESIAN_POINT('',(0.128313524404355,-0.2055,0.398756029657602));
#1283=CARTESIAN_POINT('',(0.128313524404355,-0.2055,0.436756029657602));
#1284=CARTESIAN_POINT('',(0.128313524404355,-0.1815,0.436756029657602));
#1285=CARTESIAN_POINT('',(0.128313524404355,-0.1845,0.436756029657602));
#1286=CARTESIAN_POINT('',(0.128313524404355,-0.1845,0.357756029657602));
#1287=CARTESIAN_POINT('',(0.145813524404355,-0.1815,0.357756029657602));
#1288=CARTESIAN_POINT('',(0.145813524404355,-0.2055,0.357756029657602));
#1289=CARTESIAN_POINT('',(0.131313524404355,-0.2055,0.357756029657602));
#1290=CARTESIAN_POINT('',(0.131313524404355,-0.1815,0.357756029657602));
#1291=CARTESIAN_POINT('',(0.131313524404355,-0.1845,0.357756029657602));
#1292=CARTESIAN_POINT('',(0.163313524404355,-0.1845,0.357756029657602));
#1293=CARTESIAN_POINT('',(0.163313524404355,-0.1845,0.357756029657602));
#1294=CARTESIAN_POINT('',(0.183313524404355,-0.1845,0.357756029657602));
#1295=CARTESIAN_POINT('',(0.180313524404355,-0.1845,0.357756029657602));
#1296=CARTESIAN_POINT('',(0.180313524404355,-0.188447915675596,0.357756029657602));
#1297=CARTESIAN_POINT('',(0.180313524404355,-0.188447915675596,0.357756029657602));
#1298=CARTESIAN_POINT('',(0.183313524404355,-0.188447915675596,0.357756029657602));
#1299=CARTESIAN_POINT('',(-0.039711303952946,-0.2085,0.398756029657602));
#1300=CARTESIAN_POINT('',(0.131313524404355,-0.2085,0.398756029657602));
#1301=CARTESIAN_POINT('',(0.131313524404355,-0.2085,0.436756029657602));
#1302=CARTESIAN_POINT('',(0.131313524404355,-0.2085,0.360756029657602));
#1303=CARTESIAN_POINT('',(-0.039711303952946,-0.2085,0.360756029657602));
#1304=CARTESIAN_POINT('',(0.128313524404355,-0.2085,0.436756029657602));
#1305=CARTESIAN_POINT('',(0.594184032928131,-0.19838858210906,0.382506029657602));
#1306=CARTESIAN_POINT('',(0.131313524404355,-0.19838858210906,0.382506029657602));
#1307=CARTESIAN_POINT('',(0.131313524404355,-0.19838858210906,0.385006029657602));
#1308=CARTESIAN_POINT('',(0.183313524404355,-0.188447915675596,0.398756029657602));
#1309=CARTESIAN_POINT('',(0.173313524404355,-0.188447915675596,0.431552546262741));
#1310=CARTESIAN_POINT('',(0.173313524404355,-0.188447915675596,0.434052546262741));
#1311=CARTESIAN_POINT('',(0.173313524404355,-0.188447915675596,0.386552546262741));
#1312=CARTESIAN_POINT('',(0.173313524404355,-0.188447915675596,0.389052546262741));
#1313=CARTESIAN_POINT('',(0.183313524404355,-0.188447915675596,0.398756029657602));
#1314=CARTESIAN_POINT('',(0.183313524404355,-0.188447915675596,0.436756029657602));
#1315=CARTESIAN_POINT('',(0.183313524404355,-0.188447915675596,0.360756029657602));
#1316=CARTESIAN_POINT('',(0.183313524404355,-0.188447915675596,0.436756029657602));
#1317=CARTESIAN_POINT('',(0.183313524404355,-0.188447915675596,0.360756029657602));
#1318=CARTESIAN_POINT('',(0.183313524404355,-0.183,0.359256029657602));
#1319=CARTESIAN_POINT('',(0.169688524404355,-0.170875,0.371381029657602));
#1320=CARTESIAN_POINT('',(0.181813524404355,-0.183,0.359256029657602));
#1321=CARTESIAN_POINT('',(0.260988871791756,-0.103824652612599,0.438431377045003));
#1322=CARTESIAN_POINT('',(0.131313524404355,-0.1845,0.357756029657602));
#1323=CARTESIAN_POINT('',(0.183313524404355,-0.183,0.438256029657602));
#1324=CARTESIAN_POINT('',(0.260988871791756,-0.103824652612599,0.359080682270201));
#1325=CARTESIAN_POINT('',(0.181813524404355,-0.183,0.438256029657602));
#1326=CARTESIAN_POINT('',(0.169605191071021,-0.170791666666667,0.426047696324268));
#1327=CARTESIAN_POINT('',(0.131313524404355,-0.183,0.438256029657602));
#1328=CARTESIAN_POINT('',(0.183313524404355,0.0515260421622018,0.398631029657602));
#1329=CARTESIAN_POINT('',(0.183313524404355,-0.1845,0.436756029657602));
#1330=CARTESIAN_POINT('',(0.183313524404355,-0.1845,0.360756029657602));
#1331=CARTESIAN_POINT('',(0.183313524404355,-0.1845,0.436756029657602));
#1332=CARTESIAN_POINT('',(0.183313524404355,-0.188447915675596,0.436756029657602));
#1333=CARTESIAN_POINT('',(0.183313524404355,-0.1845,0.360756029657602));
#1334=CARTESIAN_POINT('',(0.183313524404355,0.0515260421622018,0.360756029657602));
#1335=CARTESIAN_POINT('',(0.195938524404355,-0.197125,0.373381029657602));
#1336=CARTESIAN_POINT('',(0.183313524404355,-0.1845,0.398631029657602));
#1337=CARTESIAN_POINT('',(0.104638177016954,-0.105824652612599,0.515431377045003));
#1338=CARTESIAN_POINT('',(0.183313524404355,0.0515260421622018,0.436756029657602));
#1339=CARTESIAN_POINT('',(0.173313524404355,-0.565856028364463,0.386552546262741));
#1340=CARTESIAN_POINT('',(0.173313524404355,-0.1835,0.386552546262741));
#1341=CARTESIAN_POINT('',(0.173313524404355,-0.1835,0.384052546262741));
#1342=CARTESIAN_POINT('',(0.173313524404355,-0.565856028364463,0.431552546262741));
#1343=CARTESIAN_POINT('',(0.173313524404355,-0.1835,0.431552546262741));
#1344=CARTESIAN_POINT('',(0.173313524404355,-0.1835,0.429052546262741));
#1345=CARTESIAN_POINT('',(0.173313524404355,-0.1815,0.386552546262741));
#1346=CARTESIAN_POINT('',(0.173313524404355,-0.1815,0.431552546262741));
#1347=CARTESIAN_POINT('',(0.131313524404355,-0.19838858210906,0.382506029657602));
#1348=CARTESIAN_POINT('',(0.131313524404355,-0.1815,0.439756029657602));
#1349=CARTESIAN_POINT('',(0.131313524404355,-0.2055,0.439756029657602));
#1350=CARTESIAN_POINT('',(0.128313524404355,-0.1845,0.436756029657602));
#1351=CARTESIAN_POINT('',(0.145813524404355,-0.2055,0.439756029657602));
#1352=CARTESIAN_POINT('',(0.131313524404355,-0.2055,0.439756029657602));
#1353=CARTESIAN_POINT('',(0.128313524404355,-0.1845,0.436756029657602));
#1354=CARTESIAN_POINT('',(0.128313524404355,-0.1845,0.436756029657602));
#1355=CARTESIAN_POINT('',(0.131313524404355,-0.2055,0.439756029657602));
#1356=CARTESIAN_POINT('',(0.129813524404355,-0.207,0.436756029657602));
#1357=CARTESIAN_POINT('',(0.128313524404355,-0.1845,0.398756029657602));
#1358=CARTESIAN_POINT('',(0.129813524404355,-0.183,0.360756029657602));
#1359=CARTESIAN_POINT('',(0.131313524404355,-0.2085,0.398756029657602));
#1360=CARTESIAN_POINT('',(0.128313524404355,-0.2055,0.360756029657602));
#1361=CARTESIAN_POINT('',(-0.039711303952946,-0.2085,0.360756029657602));
#1362=CARTESIAN_POINT('',(0.131313524404355,-0.207,0.359256029657602));
#1363=CARTESIAN_POINT('',(0.131313524404355,-0.1845,0.357756029657602));
#1364=CARTESIAN_POINT('',(0.131313524404355,-0.1845,0.357756029657602));
#1365=CARTESIAN_POINT('',(0.128313524404355,-0.2055,0.360756029657602));
#1366=CARTESIAN_POINT('',(0.128313524404355,-0.2055,0.360756029657602));
#1367=CARTESIAN_POINT('',(0.128313524404355,-0.1815,0.360756029657602));
#1368=CARTESIAN_POINT('',(-0.042461303952946,-0.2055,0.398756029657602));
#1369=CARTESIAN_POINT('',(0.146313524404355,-0.1681,0.427006029657602));
#1370=CARTESIAN_POINT('',(0.146513524404355,-0.1745,0.427006029657602));
#1371=CARTESIAN_POINT('',(0.149013524404355,-0.1745,0.427006029657602));
#1372=CARTESIAN_POINT('',(0.146313524404355,-0.1681,0.427006029657602));
#1373=CARTESIAN_POINT('',(0.149813524404355,-0.1681,0.427006029657602));
#1374=CARTESIAN_POINT('',(0.142813524404355,-0.1681,0.427006029657602));
#1375=CARTESIAN_POINT('',(0.144563524404355,-0.16635,0.427006029657602));
#1376=CARTESIAN_POINT('',(0.137813524404355,-0.1731,0.427006029657602));
#1377=CARTESIAN_POINT('',(0.137813524404355,-0.1681,0.427006029657602));
#1378=CARTESIAN_POINT('',(0.154813524404355,-0.1681,0.427006029657602));
#1379=CARTESIAN_POINT('',(0.154813524404355,-0.1731,0.427006029657602));
#1380=CARTESIAN_POINT('',(0.148063524404355,-0.16635,0.427006029657602));
#1381=CARTESIAN_POINT('',(0.154813524404355,-0.1681,0.425756029657602));
#1382=CARTESIAN_POINT('',(0.154813524404355,-0.1681,0.424506029657602));
#1383=CARTESIAN_POINT('',(0.154813524404355,-0.1731,0.424506029657602));
#1384=CARTESIAN_POINT('',(0.154813524404355,-0.1731,0.427006029657602));
#1385=CARTESIAN_POINT('',(0.137813524404355,-0.1681,0.425756029657602));
#1386=CARTESIAN_POINT('',(0.137813524404355,-0.1731,0.425756029657602));
#1387=CARTESIAN_POINT('',(0.137813524404355,-0.1731,0.424506029657602));
#1388=CARTESIAN_POINT('',(0.137813524404355,-0.1681,0.424506029657602));
#1389=CARTESIAN_POINT('',(0.146313524404355,-0.1681,0.424506029657602));
#1390=CARTESIAN_POINT('',(0.146513524404355,-0.1745,0.424506029657602));
#1391=CARTESIAN_POINT('',(0.149013524404355,-0.1745,0.424506029657602));
#1392=CARTESIAN_POINT('',(0.137813524404355,-0.1731,0.424506029657602));
#1393=CARTESIAN_POINT('',(0.142813524404355,-0.1681,0.424506029657602));
#1394=CARTESIAN_POINT('',(0.146313524404355,-0.1681,0.424506029657602));
#1395=CARTESIAN_POINT('',(0.149813524404355,-0.1681,0.424506029657602));
#1396=CARTESIAN_POINT('',(0.149813524404355,-0.1681,0.424506029657602));
#1397=CARTESIAN_POINT('',(-0.039711303952946,-0.1681,0.400006029657602));
#1398=CARTESIAN_POINT('',(0.142813524404355,-0.1681,0.400006029657602));
#1399=CARTESIAN_POINT('',(0.149813524404355,-0.1681,0.424506029657602));
#1400=CARTESIAN_POINT('',(0.154813524404355,-0.1681,0.414256029657602));
#1401=CARTESIAN_POINT('',(0.154813524404355,-0.1681,0.413006029657602));
#1402=CARTESIAN_POINT('',(0.154813524404355,-0.1731,0.413006029657602));
#1403=CARTESIAN_POINT('',(0.154813524404355,-0.1731,0.414256029657602));
#1404=CARTESIAN_POINT('',(0.154813524404355,-0.1731,0.415506029657602));
#1405=CARTESIAN_POINT('',(0.154813524404355,-0.1681,0.415506029657602));
#1406=CARTESIAN_POINT('',(0.146313524404355,-0.1681,0.413006029657602));
#1407=CARTESIAN_POINT('',(0.146513524404355,-0.1745,0.413006029657602));
#1408=CARTESIAN_POINT('',(0.149013524404355,-0.1745,0.413006029657602));
#1409=CARTESIAN_POINT('',(0.137813524404355,-0.1681,0.413006029657602));
#1410=CARTESIAN_POINT('',(0.137813524404355,-0.1731,0.413006029657602));
#1411=CARTESIAN_POINT('',(0.142813524404355,-0.1681,0.413006029657602));
#1412=CARTESIAN_POINT('',(0.142813524404355,-0.1681,0.413006029657602));
#1413=CARTESIAN_POINT('',(0.146313524404355,-0.1681,0.413006029657602));
#1414=CARTESIAN_POINT('',(0.149813524404355,-0.1681,0.413006029657602));
#1415=CARTESIAN_POINT('',(0.154813524404355,-0.1731,0.413006029657602));
#1416=CARTESIAN_POINT('',(0.137813524404355,-0.1681,0.414256029657602));
#1417=CARTESIAN_POINT('',(0.137813524404355,-0.1681,0.415506029657602));
#1418=CARTESIAN_POINT('',(0.137813524404355,-0.1731,0.415506029657602));
#1419=CARTESIAN_POINT('',(0.137813524404355,-0.1731,0.413006029657602));
#1420=CARTESIAN_POINT('',(0.146313524404355,-0.1681,0.415506029657602));
#1421=CARTESIAN_POINT('',(0.146513524404355,-0.1745,0.415506029657602));
#1422=CARTESIAN_POINT('',(0.149013524404355,-0.1745,0.415506029657602));
#1423=CARTESIAN_POINT('',(0.146313524404355,-0.1681,0.415506029657602));
#1424=CARTESIAN_POINT('',(0.149813524404355,-0.1681,0.415506029657602));
#1425=CARTESIAN_POINT('',(0.142813524404355,-0.1681,0.415506029657602));
#1426=CARTESIAN_POINT('',(0.144563524404355,-0.16635,0.415506029657602));
#1427=CARTESIAN_POINT('',(0.148063524404355,-0.16635,0.415506029657602));
#1428=CARTESIAN_POINT('',(-0.039711303952946,-0.1681,0.400006029657602));
#1429=CARTESIAN_POINT('',(0.142813524404355,-0.1681,0.415506029657602));
#1430=CARTESIAN_POINT('',(0.149813524404355,-0.1681,0.400006029657602));
#1431=CARTESIAN_POINT('',(0.137813524404355,-0.1731,0.425756029657602));
#1432=CARTESIAN_POINT('',(0.149813524404355,-0.1681,0.400006029657602));
#1433=CARTESIAN_POINT('',(0.142813524404355,-0.1681,0.400006029657602));
#1434=CARTESIAN_POINT('',(0.154813524404355,-0.1731,0.414256029657602));
#1435=CARTESIAN_POINT('',(0.146513524404355,-0.1745,1.22387452636245));
#1436=CARTESIAN_POINT('',(0.146513524404355,-0.1745,1.22387452636245));
#1437=MECHANICAL_DESIGN_GEOMETRIC_PRESENTATION_REPRESENTATION('',(#887),
#1438);
#1438=(
GEOMETRIC_REPRESENTATION_CONTEXT(3)
GLOBAL_UNCERTAINTY_ASSIGNED_CONTEXT((#1439))
GLOBAL_UNIT_ASSIGNED_CONTEXT((#1442,#1441,#1440))
REPRESENTATION_CONTEXT('TFR-Rod Mount','TOP_LEVEL_ASSEMBLY_PART')
);
#1439=UNCERTAINTY_MEASURE_WITH_UNIT(LENGTH_MEASURE(1.E-8),#1442,
'DISTANCE_ACCURACY_VALUE','Maximum Tolerance applied to model');
#1440=(
NAMED_UNIT(*)
SI_UNIT($,.STERADIAN.)
SOLID_ANGLE_UNIT()
);
#1441=(
NAMED_UNIT(*)
PLANE_ANGLE_UNIT()
SI_UNIT($,.RADIAN.)
);
#1442=(
LENGTH_UNIT()
NAMED_UNIT(*)
SI_UNIT($,.METRE.)
);
#1443=PRODUCT_DEFINITION_SHAPE('','',#1444);
#1444=PRODUCT_DEFINITION('','',#1446,#1445);
#1445=PRODUCT_DEFINITION_CONTEXT('',#1452,'design');
#1446=PRODUCT_DEFINITION_FORMATION_WITH_SPECIFIED_SOURCE('','',#1448,
 .NOT_KNOWN.);
#1447=PRODUCT_RELATED_PRODUCT_CATEGORY('','',(#1448));
#1448=PRODUCT('TFR-Rod Mount','TFR-Rod Mount','TFR-Rod Mount',(#1450));
#1449=PRODUCT_CATEGORY('','');
#1450=PRODUCT_CONTEXT('',#1452,'mechanical');
#1451=APPLICATION_PROTOCOL_DEFINITION('international standard',
'ap242_managed_model_based_3d_engineering',2020,#1452);
#1452=APPLICATION_CONTEXT('managed model based 3d engineering');
ENDSEC;
END-ISO-10303-21;
