ISO-10303-21;
HEADER;
/* Generated by software containing ST-Developer
 * from STEP Tools, Inc. (www.steptools.com) 
 */
/* OPTION: using custom renumber hook */

FILE_DESCRIPTION(
/* description */ ('STEP AP242 Edition 2',
'CAx-IF Rec.Pracs.---Representation and Presentation of Product Manufa
cturing Information (PMI)---4.0---2014-10-13',
'CAx-IF Rec.Pracs.---3D Tessellated Geometry---0.4---2014-09-14','2;1',
'CAx-IF Rec.Pracs.---User Defined Attributes---1.5---2016-08-15'),
/* implementation_level */ '2;1');

FILE_NAME(
/* name */ 'NOT-618 - Z-TopMount',
/* time_stamp */ '2026-07-11T05:59:39Z',
/* author */ (''),
/* organization */ (''),
/* preprocessor_version */ 'ST-DEVELOPER v20',
/* originating_system */ 'ONSHAPE BY PTC INC, 1.217',
/* authorisation */ '  ');

FILE_SCHEMA (('AP242_MANAGED_MODEL_BASED_3D_ENGINEERING_MIM_LF { 1 0 10303 442 3 1 4 }'));
ENDSEC;

DATA;
#10=SHAPE_REPRESENTATION_RELATIONSHIP('','',#635,#11);
#11=ADVANCED_BREP_SHAPE_REPRESENTATION('',(#633),#1009);
#12=CONICAL_SURFACE('',#668,0.0025,0.785398163397448);
#13=CONICAL_SURFACE('',#669,0.0025,0.785398163397448);
#14=CYLINDRICAL_SURFACE('',#653,0.0025);
#15=CYLINDRICAL_SURFACE('',#656,0.0025);
#16=CYLINDRICAL_SURFACE('',#663,0.006);
#17=CYLINDRICAL_SURFACE('',#666,0.006);
#18=CYLINDRICAL_SURFACE('',#667,0.004);
#19=LINE('',#844,#85);
#20=LINE('',#847,#86);
#21=LINE('',#849,#87);
#22=LINE('',#851,#88);
#23=LINE('',#853,#89);
#24=LINE('',#855,#90);
#25=LINE('',#856,#91);
#26=LINE('',#859,#92);
#27=LINE('',#861,#93);
#28=LINE('',#862,#94);
#29=LINE('',#865,#95);
#30=LINE('',#867,#96);
#31=LINE('',#868,#97);
#32=LINE('',#871,#98);
#33=LINE('',#873,#99);
#34=LINE('',#874,#100);
#35=LINE('',#877,#101);
#36=LINE('',#879,#102);
#37=LINE('',#887,#103);
#38=LINE('',#890,#104);
#39=LINE('',#892,#105);
#40=LINE('',#894,#106);
#41=LINE('',#896,#107);
#42=LINE('',#898,#108);
#43=LINE('',#900,#109);
#44=LINE('',#902,#110);
#45=LINE('',#907,#111);
#46=LINE('',#910,#112);
#47=LINE('',#912,#113);
#48=LINE('',#913,#114);
#49=LINE('',#916,#115);
#50=LINE('',#918,#116);
#51=LINE('',#919,#117);
#52=LINE('',#922,#118);
#53=LINE('',#924,#119);
#54=LINE('',#925,#120);
#55=LINE('',#928,#121);
#56=LINE('',#930,#122);
#57=LINE('',#932,#123);
#58=LINE('',#933,#124);
#59=LINE('',#935,#125);
#60=LINE('',#937,#126);
#61=LINE('',#939,#127);
#62=LINE('',#941,#128);
#63=LINE('',#943,#129);
#64=LINE('',#945,#130);
#65=LINE('',#947,#131);
#66=LINE('',#949,#132);
#67=LINE('',#951,#133);
#68=LINE('',#953,#134);
#69=LINE('',#955,#135);
#70=LINE('',#957,#136);
#71=LINE('',#959,#137);
#72=LINE('',#971,#138);
#73=LINE('',#985,#139);
#74=LINE('',#986,#140);
#75=LINE('',#988,#141);
#76=LINE('',#991,#142);
#77=LINE('',#992,#143);
#78=LINE('',#994,#144);
#79=LINE('',#997,#145);
#80=LINE('',#998,#146);
#81=LINE('',#1000,#147);
#82=LINE('',#1003,#148);
#83=LINE('',#1004,#149);
#84=LINE('',#1006,#150);
#85=VECTOR('',#688,1.);
#86=VECTOR('',#689,1.);
#87=VECTOR('',#690,1.);
#88=VECTOR('',#691,1.);
#89=VECTOR('',#692,1.);
#90=VECTOR('',#693,1.);
#91=VECTOR('',#694,1.);
#92=VECTOR('',#695,1.);
#93=VECTOR('',#696,1.);
#94=VECTOR('',#697,1.);
#95=VECTOR('',#698,1.);
#96=VECTOR('',#699,1.);
#97=VECTOR('',#700,1.);
#98=VECTOR('',#701,1.);
#99=VECTOR('',#702,1.);
#100=VECTOR('',#703,1.);
#101=VECTOR('',#704,1.);
#102=VECTOR('',#705,1.);
#103=VECTOR('',#714,1.);
#104=VECTOR('',#715,1.);
#105=VECTOR('',#716,1.);
#106=VECTOR('',#717,1.);
#107=VECTOR('',#718,1.);
#108=VECTOR('',#719,1.);
#109=VECTOR('',#720,1.);
#110=VECTOR('',#721,1.);
#111=VECTOR('',#726,1.);
#112=VECTOR('',#727,1.);
#113=VECTOR('',#728,1.);
#114=VECTOR('',#729,1.);
#115=VECTOR('',#730,1.);
#116=VECTOR('',#731,1.);
#117=VECTOR('',#732,1.);
#118=VECTOR('',#733,1.);
#119=VECTOR('',#734,1.);
#120=VECTOR('',#735,1.);
#121=VECTOR('',#736,1.);
#122=VECTOR('',#737,1.);
#123=VECTOR('',#740,1.);
#124=VECTOR('',#741,1.);
#125=VECTOR('',#742,1.);
#126=VECTOR('',#743,1.);
#127=VECTOR('',#746,1.);
#128=VECTOR('',#749,1.);
#129=VECTOR('',#752,1.);
#130=VECTOR('',#755,1.);
#131=VECTOR('',#756,1.);
#132=VECTOR('',#757,1.);
#133=VECTOR('',#760,1.);
#134=VECTOR('',#761,1.);
#135=VECTOR('',#764,1.);
#136=VECTOR('',#765,1.);
#137=VECTOR('',#768,1.);
#138=VECTOR('',#783,1.);
#139=VECTOR('',#806,1.);
#140=VECTOR('',#807,1.);
#141=VECTOR('',#810,1.);
#142=VECTOR('',#815,1.);
#143=VECTOR('',#816,1.);
#144=VECTOR('',#819,1.);
#145=VECTOR('',#824,1.);
#146=VECTOR('',#825,1.);
#147=VECTOR('',#828,1.);
#148=VECTOR('',#833,1.);
#149=VECTOR('',#834,1.);
#150=VECTOR('',#837,1.);
#151=ORIENTED_EDGE('',*,*,#307,.F.);
#152=ORIENTED_EDGE('',*,*,#308,.T.);
#153=ORIENTED_EDGE('',*,*,#309,.T.);
#154=ORIENTED_EDGE('',*,*,#310,.T.);
#155=ORIENTED_EDGE('',*,*,#311,.T.);
#156=ORIENTED_EDGE('',*,*,#312,.T.);
#157=ORIENTED_EDGE('',*,*,#313,.T.);
#158=ORIENTED_EDGE('',*,*,#314,.T.);
#159=ORIENTED_EDGE('',*,*,#315,.T.);
#160=ORIENTED_EDGE('',*,*,#316,.T.);
#161=ORIENTED_EDGE('',*,*,#317,.T.);
#162=ORIENTED_EDGE('',*,*,#318,.T.);
#163=ORIENTED_EDGE('',*,*,#319,.T.);
#164=ORIENTED_EDGE('',*,*,#320,.T.);
#165=ORIENTED_EDGE('',*,*,#321,.T.);
#166=ORIENTED_EDGE('',*,*,#322,.T.);
#167=ORIENTED_EDGE('',*,*,#323,.T.);
#168=ORIENTED_EDGE('',*,*,#324,.T.);
#169=ORIENTED_EDGE('',*,*,#325,.T.);
#170=ORIENTED_EDGE('',*,*,#326,.T.);
#171=ORIENTED_EDGE('',*,*,#327,.T.);
#172=ORIENTED_EDGE('',*,*,#328,.F.);
#173=ORIENTED_EDGE('',*,*,#329,.F.);
#174=ORIENTED_EDGE('',*,*,#330,.F.);
#175=ORIENTED_EDGE('',*,*,#331,.F.);
#176=ORIENTED_EDGE('',*,*,#332,.F.);
#177=ORIENTED_EDGE('',*,*,#333,.F.);
#178=ORIENTED_EDGE('',*,*,#334,.F.);
#179=ORIENTED_EDGE('',*,*,#335,.F.);
#180=ORIENTED_EDGE('',*,*,#336,.F.);
#181=ORIENTED_EDGE('',*,*,#337,.F.);
#182=ORIENTED_EDGE('',*,*,#338,.F.);
#183=ORIENTED_EDGE('',*,*,#339,.F.);
#184=ORIENTED_EDGE('',*,*,#340,.F.);
#185=ORIENTED_EDGE('',*,*,#341,.F.);
#186=ORIENTED_EDGE('',*,*,#342,.F.);
#187=ORIENTED_EDGE('',*,*,#343,.F.);
#188=ORIENTED_EDGE('',*,*,#344,.F.);
#189=ORIENTED_EDGE('',*,*,#345,.F.);
#190=ORIENTED_EDGE('',*,*,#346,.F.);
#191=ORIENTED_EDGE('',*,*,#347,.F.);
#192=ORIENTED_EDGE('',*,*,#348,.F.);
#193=ORIENTED_EDGE('',*,*,#349,.F.);
#194=ORIENTED_EDGE('',*,*,#350,.F.);
#195=ORIENTED_EDGE('',*,*,#351,.F.);
#196=ORIENTED_EDGE('',*,*,#329,.T.);
#197=ORIENTED_EDGE('',*,*,#352,.T.);
#198=ORIENTED_EDGE('',*,*,#353,.F.);
#199=ORIENTED_EDGE('',*,*,#354,.T.);
#200=ORIENTED_EDGE('',*,*,#313,.F.);
#201=ORIENTED_EDGE('',*,*,#355,.F.);
#202=ORIENTED_EDGE('',*,*,#330,.T.);
#203=ORIENTED_EDGE('',*,*,#351,.T.);
#204=ORIENTED_EDGE('',*,*,#312,.F.);
#205=ORIENTED_EDGE('',*,*,#356,.F.);
#206=ORIENTED_EDGE('',*,*,#331,.T.);
#207=ORIENTED_EDGE('',*,*,#355,.T.);
#208=ORIENTED_EDGE('',*,*,#311,.F.);
#209=ORIENTED_EDGE('',*,*,#357,.F.);
#210=ORIENTED_EDGE('',*,*,#332,.T.);
#211=ORIENTED_EDGE('',*,*,#356,.T.);
#212=ORIENTED_EDGE('',*,*,#310,.F.);
#213=ORIENTED_EDGE('',*,*,#358,.F.);
#214=ORIENTED_EDGE('',*,*,#333,.T.);
#215=ORIENTED_EDGE('',*,*,#357,.T.);
#216=ORIENTED_EDGE('',*,*,#309,.F.);
#217=ORIENTED_EDGE('',*,*,#359,.F.);
#218=ORIENTED_EDGE('',*,*,#360,.F.);
#219=ORIENTED_EDGE('',*,*,#361,.F.);
#220=ORIENTED_EDGE('',*,*,#334,.T.);
#221=ORIENTED_EDGE('',*,*,#358,.T.);
#222=ORIENTED_EDGE('',*,*,#362,.F.);
#223=ORIENTED_EDGE('',*,*,#363,.F.);
#224=ORIENTED_EDGE('',*,*,#335,.T.);
#225=ORIENTED_EDGE('',*,*,#361,.T.);
#226=ORIENTED_EDGE('',*,*,#364,.F.);
#227=ORIENTED_EDGE('',*,*,#352,.F.);
#228=ORIENTED_EDGE('',*,*,#336,.T.);
#229=ORIENTED_EDGE('',*,*,#363,.T.);
#230=ORIENTED_EDGE('',*,*,#365,.F.);
#231=ORIENTED_EDGE('',*,*,#366,.T.);
#232=ORIENTED_EDGE('',*,*,#367,.F.);
#233=ORIENTED_EDGE('',*,*,#368,.T.);
#234=ORIENTED_EDGE('',*,*,#369,.F.);
#235=ORIENTED_EDGE('',*,*,#360,.T.);
#236=ORIENTED_EDGE('',*,*,#370,.T.);
#237=ORIENTED_EDGE('',*,*,#353,.T.);
#238=ORIENTED_EDGE('',*,*,#365,.T.);
#239=ORIENTED_EDGE('',*,*,#364,.T.);
#240=ORIENTED_EDGE('',*,*,#362,.T.);
#241=ORIENTED_EDGE('',*,*,#367,.T.);
#242=ORIENTED_EDGE('',*,*,#369,.T.);
#243=ORIENTED_EDGE('',*,*,#370,.F.);
#244=ORIENTED_EDGE('',*,*,#359,.T.);
#245=ORIENTED_EDGE('',*,*,#308,.F.);
#246=ORIENTED_EDGE('',*,*,#354,.F.);
#247=ORIENTED_EDGE('',*,*,#371,.F.);
#248=ORIENTED_EDGE('',*,*,#371,.T.);
#249=ORIENTED_EDGE('',*,*,#337,.T.);
#250=ORIENTED_EDGE('',*,*,#372,.F.);
#251=ORIENTED_EDGE('',*,*,#372,.T.);
#252=ORIENTED_EDGE('',*,*,#338,.T.);
#253=ORIENTED_EDGE('',*,*,#307,.T.);
#254=ORIENTED_EDGE('',*,*,#328,.T.);
#255=ORIENTED_EDGE('',*,*,#326,.F.);
#256=ORIENTED_EDGE('',*,*,#368,.F.);
#257=ORIENTED_EDGE('',*,*,#327,.F.);
#258=ORIENTED_EDGE('',*,*,#366,.F.);
#259=ORIENTED_EDGE('',*,*,#340,.T.);
#260=ORIENTED_EDGE('',*,*,#373,.T.);
#261=ORIENTED_EDGE('',*,*,#315,.F.);
#262=ORIENTED_EDGE('',*,*,#374,.F.);
#263=ORIENTED_EDGE('',*,*,#341,.T.);
#264=ORIENTED_EDGE('',*,*,#374,.T.);
#265=ORIENTED_EDGE('',*,*,#314,.F.);
#266=ORIENTED_EDGE('',*,*,#375,.F.);
#267=ORIENTED_EDGE('',*,*,#339,.T.);
#268=ORIENTED_EDGE('',*,*,#375,.T.);
#269=ORIENTED_EDGE('',*,*,#316,.F.);
#270=ORIENTED_EDGE('',*,*,#373,.F.);
#271=ORIENTED_EDGE('',*,*,#343,.T.);
#272=ORIENTED_EDGE('',*,*,#376,.T.);
#273=ORIENTED_EDGE('',*,*,#318,.F.);
#274=ORIENTED_EDGE('',*,*,#377,.F.);
#275=ORIENTED_EDGE('',*,*,#344,.T.);
#276=ORIENTED_EDGE('',*,*,#377,.T.);
#277=ORIENTED_EDGE('',*,*,#317,.F.);
#278=ORIENTED_EDGE('',*,*,#378,.F.);
#279=ORIENTED_EDGE('',*,*,#342,.T.);
#280=ORIENTED_EDGE('',*,*,#378,.T.);
#281=ORIENTED_EDGE('',*,*,#319,.F.);
#282=ORIENTED_EDGE('',*,*,#376,.F.);
#283=ORIENTED_EDGE('',*,*,#346,.T.);
#284=ORIENTED_EDGE('',*,*,#379,.T.);
#285=ORIENTED_EDGE('',*,*,#321,.F.);
#286=ORIENTED_EDGE('',*,*,#380,.F.);
#287=ORIENTED_EDGE('',*,*,#347,.T.);
#288=ORIENTED_EDGE('',*,*,#380,.T.);
#289=ORIENTED_EDGE('',*,*,#320,.F.);
#290=ORIENTED_EDGE('',*,*,#381,.F.);
#291=ORIENTED_EDGE('',*,*,#345,.T.);
#292=ORIENTED_EDGE('',*,*,#381,.T.);
#293=ORIENTED_EDGE('',*,*,#322,.F.);
#294=ORIENTED_EDGE('',*,*,#379,.F.);
#295=ORIENTED_EDGE('',*,*,#349,.T.);
#296=ORIENTED_EDGE('',*,*,#382,.T.);
#297=ORIENTED_EDGE('',*,*,#324,.F.);
#298=ORIENTED_EDGE('',*,*,#383,.F.);
#299=ORIENTED_EDGE('',*,*,#350,.T.);
#300=ORIENTED_EDGE('',*,*,#383,.T.);
#301=ORIENTED_EDGE('',*,*,#323,.F.);
#302=ORIENTED_EDGE('',*,*,#384,.F.);
#303=ORIENTED_EDGE('',*,*,#348,.T.);
#304=ORIENTED_EDGE('',*,*,#384,.T.);
#305=ORIENTED_EDGE('',*,*,#325,.F.);
#306=ORIENTED_EDGE('',*,*,#382,.F.);
#307=EDGE_CURVE('',#385,#385,#441,.T.);
#308=EDGE_CURVE('',#386,#387,#19,.T.);
#309=EDGE_CURVE('',#387,#388,#20,.T.);
#310=EDGE_CURVE('',#388,#389,#21,.T.);
#311=EDGE_CURVE('',#389,#390,#22,.T.);
#312=EDGE_CURVE('',#390,#391,#23,.T.);
#313=EDGE_CURVE('',#391,#386,#24,.T.);
#314=EDGE_CURVE('',#392,#393,#25,.T.);
#315=EDGE_CURVE('',#393,#394,#26,.T.);
#316=EDGE_CURVE('',#394,#392,#27,.T.);
#317=EDGE_CURVE('',#395,#396,#28,.T.);
#318=EDGE_CURVE('',#396,#397,#29,.T.);
#319=EDGE_CURVE('',#397,#395,#30,.T.);
#320=EDGE_CURVE('',#398,#399,#31,.T.);
#321=EDGE_CURVE('',#399,#400,#32,.T.);
#322=EDGE_CURVE('',#400,#398,#33,.T.);
#323=EDGE_CURVE('',#401,#402,#34,.T.);
#324=EDGE_CURVE('',#402,#403,#35,.T.);
#325=EDGE_CURVE('',#403,#401,#36,.T.);
#326=EDGE_CURVE('',#404,#404,#442,.F.);
#327=EDGE_CURVE('',#405,#405,#443,.F.);
#328=EDGE_CURVE('',#406,#406,#444,.T.);
#329=EDGE_CURVE('',#407,#408,#37,.T.);
#330=EDGE_CURVE('',#409,#407,#38,.T.);
#331=EDGE_CURVE('',#410,#409,#39,.T.);
#332=EDGE_CURVE('',#411,#410,#40,.T.);
#333=EDGE_CURVE('',#412,#411,#41,.T.);
#334=EDGE_CURVE('',#413,#412,#42,.T.);
#335=EDGE_CURVE('',#414,#413,#43,.T.);
#336=EDGE_CURVE('',#408,#414,#44,.T.);
#337=EDGE_CURVE('',#415,#415,#445,.T.);
#338=EDGE_CURVE('',#416,#416,#446,.T.);
#339=EDGE_CURVE('',#417,#418,#45,.T.);
#340=EDGE_CURVE('',#419,#417,#46,.T.);
#341=EDGE_CURVE('',#418,#419,#47,.T.);
#342=EDGE_CURVE('',#420,#421,#48,.T.);
#343=EDGE_CURVE('',#422,#420,#49,.T.);
#344=EDGE_CURVE('',#421,#422,#50,.T.);
#345=EDGE_CURVE('',#423,#424,#51,.T.);
#346=EDGE_CURVE('',#425,#423,#52,.T.);
#347=EDGE_CURVE('',#424,#425,#53,.T.);
#348=EDGE_CURVE('',#426,#427,#54,.T.);
#349=EDGE_CURVE('',#428,#426,#55,.T.);
#350=EDGE_CURVE('',#427,#428,#56,.T.);
#351=EDGE_CURVE('',#407,#391,#57,.T.);
#352=EDGE_CURVE('',#408,#429,#58,.T.);
#353=EDGE_CURVE('',#430,#429,#59,.T.);
#354=EDGE_CURVE('',#430,#386,#60,.T.);
#355=EDGE_CURVE('',#409,#390,#61,.T.);
#356=EDGE_CURVE('',#410,#389,#62,.T.);
#357=EDGE_CURVE('',#411,#388,#63,.T.);
#358=EDGE_CURVE('',#412,#431,#64,.T.);
#359=EDGE_CURVE('',#432,#387,#65,.T.);
#360=EDGE_CURVE('',#431,#432,#66,.T.);
#361=EDGE_CURVE('',#413,#433,#67,.T.);
#362=EDGE_CURVE('',#433,#431,#68,.T.);
#363=EDGE_CURVE('',#414,#434,#69,.T.);
#364=EDGE_CURVE('',#434,#433,#70,.T.);
#365=EDGE_CURVE('',#429,#434,#71,.T.);
#366=EDGE_CURVE('',#435,#435,#447,.T.);
#367=EDGE_CURVE('',#436,#436,#448,.T.);
#368=EDGE_CURVE('',#437,#437,#449,.T.);
#369=EDGE_CURVE('',#438,#438,#450,.T.);
#370=EDGE_CURVE('',#432,#430,#72,.T.);
#371=EDGE_CURVE('',#439,#439,#451,.T.);
#372=EDGE_CURVE('',#440,#440,#452,.T.);
#373=EDGE_CURVE('',#417,#394,#73,.T.);
#374=EDGE_CURVE('',#419,#393,#74,.T.);
#375=EDGE_CURVE('',#418,#392,#75,.T.);
#376=EDGE_CURVE('',#420,#397,#76,.T.);
#377=EDGE_CURVE('',#422,#396,#77,.T.);
#378=EDGE_CURVE('',#421,#395,#78,.T.);
#379=EDGE_CURVE('',#423,#400,#79,.T.);
#380=EDGE_CURVE('',#425,#399,#80,.T.);
#381=EDGE_CURVE('',#424,#398,#81,.T.);
#382=EDGE_CURVE('',#426,#403,#82,.T.);
#383=EDGE_CURVE('',#428,#402,#83,.T.);
#384=EDGE_CURVE('',#427,#401,#84,.T.);
#385=VERTEX_POINT('',#843);
#386=VERTEX_POINT('',#845);
#387=VERTEX_POINT('',#846);
#388=VERTEX_POINT('',#848);
#389=VERTEX_POINT('',#850);
#390=VERTEX_POINT('',#852);
#391=VERTEX_POINT('',#854);
#392=VERTEX_POINT('',#857);
#393=VERTEX_POINT('',#858);
#394=VERTEX_POINT('',#860);
#395=VERTEX_POINT('',#863);
#396=VERTEX_POINT('',#864);
#397=VERTEX_POINT('',#866);
#398=VERTEX_POINT('',#869);
#399=VERTEX_POINT('',#870);
#400=VERTEX_POINT('',#872);
#401=VERTEX_POINT('',#875);
#402=VERTEX_POINT('',#876);
#403=VERTEX_POINT('',#878);
#404=VERTEX_POINT('',#882);
#405=VERTEX_POINT('',#884);
#406=VERTEX_POINT('',#886);
#407=VERTEX_POINT('',#888);
#408=VERTEX_POINT('',#889);
#409=VERTEX_POINT('',#891);
#410=VERTEX_POINT('',#893);
#411=VERTEX_POINT('',#895);
#412=VERTEX_POINT('',#897);
#413=VERTEX_POINT('',#899);
#414=VERTEX_POINT('',#901);
#415=VERTEX_POINT('',#904);
#416=VERTEX_POINT('',#906);
#417=VERTEX_POINT('',#908);
#418=VERTEX_POINT('',#909);
#419=VERTEX_POINT('',#911);
#420=VERTEX_POINT('',#914);
#421=VERTEX_POINT('',#915);
#422=VERTEX_POINT('',#917);
#423=VERTEX_POINT('',#920);
#424=VERTEX_POINT('',#921);
#425=VERTEX_POINT('',#923);
#426=VERTEX_POINT('',#926);
#427=VERTEX_POINT('',#927);
#428=VERTEX_POINT('',#929);
#429=VERTEX_POINT('',#934);
#430=VERTEX_POINT('',#936);
#431=VERTEX_POINT('',#946);
#432=VERTEX_POINT('',#948);
#433=VERTEX_POINT('',#952);
#434=VERTEX_POINT('',#956);
#435=VERTEX_POINT('',#962);
#436=VERTEX_POINT('',#964);
#437=VERTEX_POINT('',#967);
#438=VERTEX_POINT('',#969);
#439=VERTEX_POINT('',#975);
#440=VERTEX_POINT('',#979);
#441=CIRCLE('',#638,0.004);
#442=CIRCLE('',#640,0.0045);
#443=CIRCLE('',#641,0.0045);
#444=CIRCLE('',#642,0.004);
#445=CIRCLE('',#643,0.006);
#446=CIRCLE('',#644,0.006);
#447=CIRCLE('',#654,0.0025);
#448=CIRCLE('',#655,0.0025);
#449=CIRCLE('',#657,0.0025);
#450=CIRCLE('',#658,0.0025);
#451=CIRCLE('',#662,0.006);
#452=CIRCLE('',#665,0.006);
#453=EDGE_LOOP('',(#151));
#454=EDGE_LOOP('',(#152,#153,#154,#155,#156,#157));
#455=EDGE_LOOP('',(#158,#159,#160));
#456=EDGE_LOOP('',(#161,#162,#163));
#457=EDGE_LOOP('',(#164,#165,#166));
#458=EDGE_LOOP('',(#167,#168,#169));
#459=EDGE_LOOP('',(#170));
#460=EDGE_LOOP('',(#171));
#461=EDGE_LOOP('',(#172));
#462=EDGE_LOOP('',(#173,#174,#175,#176,#177,#178,#179,#180));
#463=EDGE_LOOP('',(#181));
#464=EDGE_LOOP('',(#182));
#465=EDGE_LOOP('',(#183,#184,#185));
#466=EDGE_LOOP('',(#186,#187,#188));
#467=EDGE_LOOP('',(#189,#190,#191));
#468=EDGE_LOOP('',(#192,#193,#194));
#469=EDGE_LOOP('',(#195,#196,#197,#198,#199,#200));
#470=EDGE_LOOP('',(#201,#202,#203,#204));
#471=EDGE_LOOP('',(#205,#206,#207,#208));
#472=EDGE_LOOP('',(#209,#210,#211,#212));
#473=EDGE_LOOP('',(#213,#214,#215,#216,#217,#218));
#474=EDGE_LOOP('',(#219,#220,#221,#222));
#475=EDGE_LOOP('',(#223,#224,#225,#226));
#476=EDGE_LOOP('',(#227,#228,#229,#230));
#477=EDGE_LOOP('',(#231));
#478=EDGE_LOOP('',(#232));
#479=EDGE_LOOP('',(#233));
#480=EDGE_LOOP('',(#234));
#481=EDGE_LOOP('',(#235,#236,#237,#238,#239,#240));
#482=EDGE_LOOP('',(#241));
#483=EDGE_LOOP('',(#242));
#484=EDGE_LOOP('',(#243,#244,#245,#246));
#485=EDGE_LOOP('',(#247));
#486=EDGE_LOOP('',(#248));
#487=EDGE_LOOP('',(#249));
#488=EDGE_LOOP('',(#250));
#489=EDGE_LOOP('',(#251));
#490=EDGE_LOOP('',(#252));
#491=EDGE_LOOP('',(#253));
#492=EDGE_LOOP('',(#254));
#493=EDGE_LOOP('',(#255));
#494=EDGE_LOOP('',(#256));
#495=EDGE_LOOP('',(#257));
#496=EDGE_LOOP('',(#258));
#497=EDGE_LOOP('',(#259,#260,#261,#262));
#498=EDGE_LOOP('',(#263,#264,#265,#266));
#499=EDGE_LOOP('',(#267,#268,#269,#270));
#500=EDGE_LOOP('',(#271,#272,#273,#274));
#501=EDGE_LOOP('',(#275,#276,#277,#278));
#502=EDGE_LOOP('',(#279,#280,#281,#282));
#503=EDGE_LOOP('',(#283,#284,#285,#286));
#504=EDGE_LOOP('',(#287,#288,#289,#290));
#505=EDGE_LOOP('',(#291,#292,#293,#294));
#506=EDGE_LOOP('',(#295,#296,#297,#298));
#507=EDGE_LOOP('',(#299,#300,#301,#302));
#508=EDGE_LOOP('',(#303,#304,#305,#306));
#509=FACE_BOUND('',#453,.T.);
#510=FACE_BOUND('',#454,.T.);
#511=FACE_BOUND('',#455,.T.);
#512=FACE_BOUND('',#456,.T.);
#513=FACE_BOUND('',#457,.T.);
#514=FACE_BOUND('',#458,.T.);
#515=FACE_BOUND('',#459,.T.);
#516=FACE_BOUND('',#460,.T.);
#517=FACE_BOUND('',#461,.T.);
#518=FACE_BOUND('',#462,.T.);
#519=FACE_BOUND('',#463,.T.);
#520=FACE_BOUND('',#464,.T.);
#521=FACE_BOUND('',#465,.T.);
#522=FACE_BOUND('',#466,.T.);
#523=FACE_BOUND('',#467,.T.);
#524=FACE_BOUND('',#468,.T.);
#525=FACE_BOUND('',#469,.T.);
#526=FACE_BOUND('',#470,.T.);
#527=FACE_BOUND('',#471,.T.);
#528=FACE_BOUND('',#472,.T.);
#529=FACE_BOUND('',#473,.T.);
#530=FACE_BOUND('',#474,.T.);
#531=FACE_BOUND('',#475,.T.);
#532=FACE_BOUND('',#476,.T.);
#533=FACE_BOUND('',#477,.T.);
#534=FACE_BOUND('',#478,.T.);
#535=FACE_BOUND('',#479,.T.);
#536=FACE_BOUND('',#480,.T.);
#537=FACE_BOUND('',#481,.T.);
#538=FACE_BOUND('',#482,.T.);
#539=FACE_BOUND('',#483,.T.);
#540=FACE_BOUND('',#484,.T.);
#541=FACE_BOUND('',#485,.T.);
#542=FACE_BOUND('',#486,.T.);
#543=FACE_BOUND('',#487,.T.);
#544=FACE_BOUND('',#488,.T.);
#545=FACE_BOUND('',#489,.T.);
#546=FACE_BOUND('',#490,.T.);
#547=FACE_BOUND('',#491,.T.);
#548=FACE_BOUND('',#492,.T.);
#549=FACE_BOUND('',#493,.T.);
#550=FACE_BOUND('',#494,.T.);
#551=FACE_BOUND('',#495,.T.);
#552=FACE_BOUND('',#496,.T.);
#553=FACE_BOUND('',#497,.T.);
#554=FACE_BOUND('',#498,.T.);
#555=FACE_BOUND('',#499,.T.);
#556=FACE_BOUND('',#500,.T.);
#557=FACE_BOUND('',#501,.T.);
#558=FACE_BOUND('',#502,.T.);
#559=FACE_BOUND('',#503,.T.);
#560=FACE_BOUND('',#504,.T.);
#561=FACE_BOUND('',#505,.T.);
#562=FACE_BOUND('',#506,.T.);
#563=FACE_BOUND('',#507,.T.);
#564=FACE_BOUND('',#508,.T.);
#565=PLANE('',#637);
#566=PLANE('',#639);
#567=PLANE('',#645);
#568=PLANE('',#646);
#569=PLANE('',#647);
#570=PLANE('',#648);
#571=PLANE('',#649);
#572=PLANE('',#650);
#573=PLANE('',#651);
#574=PLANE('',#652);
#575=PLANE('',#659);
#576=PLANE('',#660);
#577=PLANE('',#661);
#578=PLANE('',#664);
#579=PLANE('',#670);
#580=PLANE('',#671);
#581=PLANE('',#672);
#582=PLANE('',#673);
#583=PLANE('',#674);
#584=PLANE('',#675);
#585=PLANE('',#676);
#586=PLANE('',#677);
#587=PLANE('',#678);
#588=PLANE('',#679);
#589=PLANE('',#680);
#590=PLANE('',#681);
#591=ADVANCED_FACE('',(#509,#510,#511,#512,#513,#514),#565,.T.);
#592=ADVANCED_FACE('',(#515,#516,#517,#518,#519,#520,#521,#522,#523,#524),
#566,.T.);
#593=ADVANCED_FACE('',(#525),#567,.T.);
#594=ADVANCED_FACE('',(#526),#568,.T.);
#595=ADVANCED_FACE('',(#527),#569,.T.);
#596=ADVANCED_FACE('',(#528),#570,.T.);
#597=ADVANCED_FACE('',(#529),#571,.T.);
#598=ADVANCED_FACE('',(#530),#572,.T.);
#599=ADVANCED_FACE('',(#531),#573,.T.);
#600=ADVANCED_FACE('',(#532),#574,.T.);
#601=ADVANCED_FACE('',(#533,#534),#14,.F.);
#602=ADVANCED_FACE('',(#535,#536),#15,.F.);
#603=ADVANCED_FACE('',(#537,#538,#539),#575,.F.);
#604=ADVANCED_FACE('',(#540),#576,.T.);
#605=ADVANCED_FACE('',(#541),#577,.F.);
#606=ADVANCED_FACE('',(#542,#543),#16,.F.);
#607=ADVANCED_FACE('',(#544),#578,.F.);
#608=ADVANCED_FACE('',(#545,#546),#17,.F.);
#609=ADVANCED_FACE('',(#547,#548),#18,.F.);
#610=ADVANCED_FACE('',(#549,#550),#12,.F.);
#611=ADVANCED_FACE('',(#551,#552),#13,.F.);
#612=ADVANCED_FACE('',(#553),#579,.T.);
#613=ADVANCED_FACE('',(#554),#580,.T.);
#614=ADVANCED_FACE('',(#555),#581,.T.);
#615=ADVANCED_FACE('',(#556),#582,.T.);
#616=ADVANCED_FACE('',(#557),#583,.T.);
#617=ADVANCED_FACE('',(#558),#584,.T.);
#618=ADVANCED_FACE('',(#559),#585,.T.);
#619=ADVANCED_FACE('',(#560),#586,.T.);
#620=ADVANCED_FACE('',(#561),#587,.T.);
#621=ADVANCED_FACE('',(#562),#588,.T.);
#622=ADVANCED_FACE('',(#563),#589,.T.);
#623=ADVANCED_FACE('',(#564),#590,.T.);
#624=CLOSED_SHELL('',(#591,#592,#593,#594,#595,#596,#597,#598,#599,#600,
#601,#602,#603,#604,#605,#606,#607,#608,#609,#610,#611,#612,#613,#614,#615,
#616,#617,#618,#619,#620,#621,#622,#623));
#625=STYLED_ITEM('',(#626),#633);
#626=PRESENTATION_STYLE_ASSIGNMENT((#627));
#627=SURFACE_STYLE_USAGE(.BOTH.,#628);
#628=SURFACE_SIDE_STYLE('',(#629));
#629=SURFACE_STYLE_FILL_AREA(#630);
#630=FILL_AREA_STYLE('',(#631));
#631=FILL_AREA_STYLE_COLOUR('',#632);
#632=COLOUR_RGB('',0.866666666666667,0.32156862745098,0.156862745098039);
#633=MANIFOLD_SOLID_BREP('Z-TopMount',#624);
#634=SHAPE_DEFINITION_REPRESENTATION(#1014,#635);
#635=SHAPE_REPRESENTATION('Z-TopMount',(#636),#1009);
#636=AXIS2_PLACEMENT_3D('',#840,#682,#683);
#637=AXIS2_PLACEMENT_3D('',#841,#684,#685);
#638=AXIS2_PLACEMENT_3D('',#842,#686,#687);
#639=AXIS2_PLACEMENT_3D('',#880,#706,#707);
#640=AXIS2_PLACEMENT_3D('',#881,#708,#709);
#641=AXIS2_PLACEMENT_3D('',#883,#710,#711);
#642=AXIS2_PLACEMENT_3D('',#885,#712,#713);
#643=AXIS2_PLACEMENT_3D('',#903,#722,#723);
#644=AXIS2_PLACEMENT_3D('',#905,#724,#725);
#645=AXIS2_PLACEMENT_3D('',#931,#738,#739);
#646=AXIS2_PLACEMENT_3D('',#938,#744,#745);
#647=AXIS2_PLACEMENT_3D('',#940,#747,#748);
#648=AXIS2_PLACEMENT_3D('',#942,#750,#751);
#649=AXIS2_PLACEMENT_3D('',#944,#753,#754);
#650=AXIS2_PLACEMENT_3D('',#950,#758,#759);
#651=AXIS2_PLACEMENT_3D('',#954,#762,#763);
#652=AXIS2_PLACEMENT_3D('',#958,#766,#767);
#653=AXIS2_PLACEMENT_3D('',#960,#769,#770);
#654=AXIS2_PLACEMENT_3D('',#961,#771,#772);
#655=AXIS2_PLACEMENT_3D('',#963,#773,#774);
#656=AXIS2_PLACEMENT_3D('',#965,#775,#776);
#657=AXIS2_PLACEMENT_3D('',#966,#777,#778);
#658=AXIS2_PLACEMENT_3D('',#968,#779,#780);
#659=AXIS2_PLACEMENT_3D('',#970,#781,#782);
#660=AXIS2_PLACEMENT_3D('',#972,#784,#785);
#661=AXIS2_PLACEMENT_3D('',#973,#786,#787);
#662=AXIS2_PLACEMENT_3D('',#974,#788,#789);
#663=AXIS2_PLACEMENT_3D('',#976,#790,#791);
#664=AXIS2_PLACEMENT_3D('',#977,#792,#793);
#665=AXIS2_PLACEMENT_3D('',#978,#794,#795);
#666=AXIS2_PLACEMENT_3D('',#980,#796,#797);
#667=AXIS2_PLACEMENT_3D('',#981,#798,#799);
#668=AXIS2_PLACEMENT_3D('',#982,#800,#801);
#669=AXIS2_PLACEMENT_3D('',#983,#802,#803);
#670=AXIS2_PLACEMENT_3D('',#984,#804,#805);
#671=AXIS2_PLACEMENT_3D('',#987,#808,#809);
#672=AXIS2_PLACEMENT_3D('',#989,#811,#812);
#673=AXIS2_PLACEMENT_3D('',#990,#813,#814);
#674=AXIS2_PLACEMENT_3D('',#993,#817,#818);
#675=AXIS2_PLACEMENT_3D('',#995,#820,#821);
#676=AXIS2_PLACEMENT_3D('',#996,#822,#823);
#677=AXIS2_PLACEMENT_3D('',#999,#826,#827);
#678=AXIS2_PLACEMENT_3D('',#1001,#829,#830);
#679=AXIS2_PLACEMENT_3D('',#1002,#831,#832);
#680=AXIS2_PLACEMENT_3D('',#1005,#835,#836);
#681=AXIS2_PLACEMENT_3D('',#1007,#838,#839);
#682=DIRECTION('',(0.,0.,1.));
#683=DIRECTION('',(1.,0.,0.));
#684=DIRECTION('',(0.,0.,1.));
#685=DIRECTION('',(1.,0.,0.));
#686=DIRECTION('',(0.,0.,1.));
#687=DIRECTION('',(1.,0.,0.));
#688=DIRECTION('',(0.,1.,0.));
#689=DIRECTION('',(-1.,0.,0.));
#690=DIRECTION('',(-0.707106781186548,-0.707106781186547,0.));
#691=DIRECTION('',(0.,-1.,0.));
#692=DIRECTION('',(0.707106781186548,-0.707106781186547,0.));
#693=DIRECTION('',(1.,0.,0.));
#694=DIRECTION('',(0.,-1.,0.));
#695=DIRECTION('',(-0.484122918275927,0.875,0.));
#696=DIRECTION('',(0.968245836551854,0.25,0.));
#697=DIRECTION('',(-0.968245836551854,-0.25,0.));
#698=DIRECTION('',(0.,1.,0.));
#699=DIRECTION('',(0.484122918275927,-0.875,0.));
#700=DIRECTION('',(0.,-1.,0.));
#701=DIRECTION('',(-0.484122918275927,0.875,0.));
#702=DIRECTION('',(0.968245836551854,0.25,0.));
#703=DIRECTION('',(-0.968245836551854,-0.25,0.));
#704=DIRECTION('',(0.,1.,0.));
#705=DIRECTION('',(0.484122918275927,-0.875,0.));
#706=DIRECTION('',(0.,0.,-1.));
#707=DIRECTION('',(1.,0.,0.));
#708=DIRECTION('',(0.,0.,-1.));
#709=DIRECTION('',(-1.,0.,0.));
#710=DIRECTION('',(0.,0.,-1.));
#711=DIRECTION('',(-1.,0.,0.));
#712=DIRECTION('',(0.,0.,-1.));
#713=DIRECTION('',(-1.,0.,0.));
#714=DIRECTION('',(1.,0.,0.));
#715=DIRECTION('',(0.707106781186548,-0.707106781186547,0.));
#716=DIRECTION('',(0.,-1.,0.));
#717=DIRECTION('',(-0.707106781186548,-0.707106781186548,0.));
#718=DIRECTION('',(-1.,0.,0.));
#719=DIRECTION('',(-0.707106781186551,0.707106781186544,0.));
#720=DIRECTION('',(0.,1.,0.));
#721=DIRECTION('',(0.707106781186553,0.707106781186542,0.));
#722=DIRECTION('',(0.,0.,-1.));
#723=DIRECTION('',(-1.,0.,0.));
#724=DIRECTION('',(0.,0.,-1.));
#725=DIRECTION('',(-1.,0.,0.));
#726=DIRECTION('',(0.968245836551854,0.25,0.));
#727=DIRECTION('',(-0.484122918275927,0.875,0.));
#728=DIRECTION('',(0.,-1.,0.));
#729=DIRECTION('',(0.484122918275927,-0.875,0.));
#730=DIRECTION('',(0.,1.,0.));
#731=DIRECTION('',(-0.968245836551854,-0.25,0.));
#732=DIRECTION('',(0.968245836551854,0.25,0.));
#733=DIRECTION('',(-0.484122918275927,0.875,0.));
#734=DIRECTION('',(0.,-1.,0.));
#735=DIRECTION('',(0.484122918275927,-0.875,0.));
#736=DIRECTION('',(0.,1.,0.));
#737=DIRECTION('',(-0.968245836551854,-0.25,0.));
#738=DIRECTION('',(0.,-1.,0.));
#739=DIRECTION('',(0.,0.,-1.));
#740=DIRECTION('',(0.,0.,1.));
#741=DIRECTION('',(0.,0.,1.));
#742=DIRECTION('',(1.,0.,0.));
#743=DIRECTION('',(0.,0.,1.));
#744=DIRECTION('',(-0.707106781186547,-0.707106781186548,0.));
#745=DIRECTION('',(0.707106781186548,-0.707106781186547,0.));
#746=DIRECTION('',(0.,0.,1.));
#747=DIRECTION('',(-1.,0.,0.));
#748=DIRECTION('',(0.,0.,1.));
#749=DIRECTION('',(0.,0.,1.));
#750=DIRECTION('',(-0.707106781186548,0.707106781186548,0.));
#751=DIRECTION('',(-0.707106781186548,-0.707106781186548,0.));
#752=DIRECTION('',(0.,0.,1.));
#753=DIRECTION('',(0.,1.,0.));
#754=DIRECTION('',(0.,0.,1.));
#755=DIRECTION('',(0.,0.,1.));
#756=DIRECTION('',(0.,0.,1.));
#757=DIRECTION('',(-1.,0.,0.));
#758=DIRECTION('',(0.707106781186544,0.707106781186551,0.));
#759=DIRECTION('',(-0.707106781186551,0.707106781186544,0.));
#760=DIRECTION('',(0.,0.,1.));
#761=DIRECTION('',(-0.707106781186551,0.707106781186544,0.));
#762=DIRECTION('',(1.,0.,0.));
#763=DIRECTION('',(0.,0.,-1.));
#764=DIRECTION('',(0.,0.,1.));
#765=DIRECTION('',(0.,1.,0.));
#766=DIRECTION('',(0.707106781186542,-0.707106781186553,0.));
#767=DIRECTION('',(0.707106781186553,0.707106781186542,0.));
#768=DIRECTION('',(0.707106781186553,0.707106781186542,0.));
#769=DIRECTION('',(0.,0.,1.));
#770=DIRECTION('',(1.,0.,0.));
#771=DIRECTION('',(0.,0.,-1.));
#772=DIRECTION('',(-1.,0.,0.));
#773=DIRECTION('',(0.,0.,-1.));
#774=DIRECTION('',(-1.,0.,0.));
#775=DIRECTION('',(0.,0.,1.));
#776=DIRECTION('',(1.,0.,0.));
#777=DIRECTION('',(0.,0.,-1.));
#778=DIRECTION('',(-1.,0.,0.));
#779=DIRECTION('',(0.,0.,-1.));
#780=DIRECTION('',(-1.,0.,0.));
#781=DIRECTION('',(0.,0.,-1.));
#782=DIRECTION('',(1.,0.,0.));
#783=DIRECTION('',(0.,-1.,0.));
#784=DIRECTION('',(1.,0.,0.));
#785=DIRECTION('',(0.,0.,-1.));
#786=DIRECTION('',(0.,0.,1.));
#787=DIRECTION('',(1.,0.,0.));
#788=DIRECTION('',(0.,0.,1.));
#789=DIRECTION('',(1.,0.,0.));
#790=DIRECTION('',(0.,0.,1.));
#791=DIRECTION('',(1.,0.,0.));
#792=DIRECTION('',(0.,0.,1.));
#793=DIRECTION('',(1.,0.,0.));
#794=DIRECTION('',(0.,0.,1.));
#795=DIRECTION('',(1.,0.,0.));
#796=DIRECTION('',(0.,0.,1.));
#797=DIRECTION('',(1.,0.,0.));
#798=DIRECTION('',(0.,0.,-1.));
#799=DIRECTION('',(-1.,0.,0.));
#800=DIRECTION('',(0.,0.,-1.));
#801=DIRECTION('',(-1.,0.,0.));
#802=DIRECTION('',(0.,0.,-1.));
#803=DIRECTION('',(-1.,0.,0.));
#804=DIRECTION('',(0.875,0.484122918275927,0.));
#805=DIRECTION('',(-0.484122918275927,0.875,0.));
#806=DIRECTION('',(0.,0.,1.));
#807=DIRECTION('',(0.,0.,1.));
#808=DIRECTION('',(-1.,0.,0.));
#809=DIRECTION('',(0.,0.,1.));
#810=DIRECTION('',(0.,0.,1.));
#811=DIRECTION('',(0.25,-0.968245836551854,0.));
#812=DIRECTION('',(0.968245836551854,0.25,0.));
#813=DIRECTION('',(1.,0.,0.));
#814=DIRECTION('',(0.,0.,-1.));
#815=DIRECTION('',(0.,0.,1.));
#816=DIRECTION('',(0.,0.,1.));
#817=DIRECTION('',(-0.25,0.968245836551854,0.));
#818=DIRECTION('',(-0.968245836551854,-0.25,0.));
#819=DIRECTION('',(0.,0.,1.));
#820=DIRECTION('',(-0.875,-0.484122918275927,0.));
#821=DIRECTION('',(0.484122918275927,-0.875,0.));
#822=DIRECTION('',(0.875,0.484122918275927,0.));
#823=DIRECTION('',(-0.484122918275927,0.875,0.));
#824=DIRECTION('',(0.,0.,1.));
#825=DIRECTION('',(0.,0.,1.));
#826=DIRECTION('',(-1.,0.,0.));
#827=DIRECTION('',(0.,0.,1.));
#828=DIRECTION('',(0.,0.,1.));
#829=DIRECTION('',(0.25,-0.968245836551854,0.));
#830=DIRECTION('',(0.968245836551854,0.25,0.));
#831=DIRECTION('',(1.,0.,0.));
#832=DIRECTION('',(0.,0.,-1.));
#833=DIRECTION('',(0.,0.,1.));
#834=DIRECTION('',(0.,0.,1.));
#835=DIRECTION('',(-0.25,0.968245836551854,0.));
#836=DIRECTION('',(-0.968245836551854,-0.25,0.));
#837=DIRECTION('',(0.,0.,1.));
#838=DIRECTION('',(-0.875,-0.484122918275927,0.));
#839=DIRECTION('',(0.484122918275927,-0.875,0.));
#840=CARTESIAN_POINT('',(0.,0.,0.));
#841=CARTESIAN_POINT('',(-0.0494613039529461,-0.0185,0.324506029657602));
#842=CARTESIAN_POINT('',(0.141955178741093,-0.0185,0.324506029657602));
#843=CARTESIAN_POINT('',(0.145955178741093,-0.0185,0.324506029657602));
#844=CARTESIAN_POINT('',(0.163563524404355,-0.0185,0.324506029657602));
#845=CARTESIAN_POINT('',(0.163563524404355,-0.0985,0.324506029657602));
#846=CARTESIAN_POINT('',(0.163563524404355,0.0615,0.324506029657602));
#847=CARTESIAN_POINT('',(0.146184351572724,0.0615,0.324506029657602));
#848=CARTESIAN_POINT('',(0.128805178741093,0.0615,0.324506029657602));
#849=CARTESIAN_POINT('',(0.124805178741093,0.0575,0.324506029657602));
#850=CARTESIAN_POINT('',(0.120805178741093,0.0535,0.324506029657602));
#851=CARTESIAN_POINT('',(0.120805178741093,-0.0185,0.324506029657602));
#852=CARTESIAN_POINT('',(0.120805178741093,-0.0905,0.324506029657602));
#853=CARTESIAN_POINT('',(0.124805178741093,-0.0945,0.324506029657602));
#854=CARTESIAN_POINT('',(0.128805178741093,-0.0985,0.324506029657602));
#855=CARTESIAN_POINT('',(0.146184351572724,-0.0985,0.324506029657602));
#856=CARTESIAN_POINT('',(0.155288043719303,0.00564309733702924,0.324506029657602));
#857=CARTESIAN_POINT('',(0.155288043719303,0.0206430973370292,0.324506029657602));
#858=CARTESIAN_POINT('',(0.155288043719303,-0.00935690266297076,0.324506029657602));
#859=CARTESIAN_POINT('',(0.148026199945164,0.00376809733702923,0.324506029657602));
#860=CARTESIAN_POINT('',(0.140764356171025,0.0168930973370292,0.324506029657602));
#861=CARTESIAN_POINT('',(0.148026199945164,0.0187680973370292,0.324506029657602));
#862=CARTESIAN_POINT('',(0.136067022515232,-0.0566560268666772,0.324506029657602));
#863=CARTESIAN_POINT('',(0.143328866289371,-0.0547810268666772,0.324506029657602));
#864=CARTESIAN_POINT('',(0.128805178741093,-0.0585310268666772,0.324506029657602));
#865=CARTESIAN_POINT('',(0.128805178741093,-0.0435310268666772,0.324506029657602));
#866=CARTESIAN_POINT('',(0.128805178741093,-0.0285310268666772,0.324506029657602));
#867=CARTESIAN_POINT('',(0.136067022515232,-0.0416560268666772,0.324506029657602));
#868=CARTESIAN_POINT('',(0.155288043719303,-0.0435310268666772,0.324506029657602));
#869=CARTESIAN_POINT('',(0.155288043719303,-0.0285310268666772,0.324506029657602));
#870=CARTESIAN_POINT('',(0.155288043719303,-0.0585310268666772,0.324506029657602));
#871=CARTESIAN_POINT('',(0.148026199945164,-0.0454060268666772,0.324506029657602));
#872=CARTESIAN_POINT('',(0.140764356171025,-0.0322810268666772,0.324506029657602));
#873=CARTESIAN_POINT('',(0.148026199945164,-0.0304060268666772,0.324506029657602));
#874=CARTESIAN_POINT('',(0.136067022515232,-0.00748190266297077,0.324506029657602));
#875=CARTESIAN_POINT('',(0.143328866289371,-0.00560690266297077,0.324506029657602));
#876=CARTESIAN_POINT('',(0.128805178741093,-0.00935690266297076,0.324506029657602));
#877=CARTESIAN_POINT('',(0.128805178741093,0.00564309733702923,0.324506029657602));
#878=CARTESIAN_POINT('',(0.128805178741093,0.0206430973370292,0.324506029657602));
#879=CARTESIAN_POINT('',(0.136067022515232,0.00751809733702923,0.324506029657602));
#880=CARTESIAN_POINT('',(-0.0397113039529461,-0.0188810511188456,0.304506029657602));
#881=CARTESIAN_POINT('',(0.173139499088135,-0.06835,0.304506029657602));
#882=CARTESIAN_POINT('',(0.168639499088135,-0.06835,0.304506029657602));
#883=CARTESIAN_POINT('',(0.173139499088135,0.03165,0.304506029657602));
#884=CARTESIAN_POINT('',(0.168639499088135,0.03165,0.304506029657602));
#885=CARTESIAN_POINT('',(0.141955178741093,-0.0185,0.304506029657602));
#886=CARTESIAN_POINT('',(0.137955178741093,-0.0185,0.304506029657602));
#887=CARTESIAN_POINT('',(0.151934351572724,-0.0985,0.304506029657602));
#888=CARTESIAN_POINT('',(0.128805178741093,-0.0985,0.304506029657602));
#889=CARTESIAN_POINT('',(0.175063524404355,-0.0985,0.304506029657602));
#890=CARTESIAN_POINT('',(0.124805178741093,-0.0945,0.304506029657602));
#891=CARTESIAN_POINT('',(0.120805178741093,-0.0905,0.304506029657602));
#892=CARTESIAN_POINT('',(0.120805178741093,-0.0185,0.304506029657602));
#893=CARTESIAN_POINT('',(0.120805178741093,0.0535,0.304506029657602));
#894=CARTESIAN_POINT('',(0.124805178741093,0.0575,0.304506029657602));
#895=CARTESIAN_POINT('',(0.128805178741093,0.0615,0.304506029657602));
#896=CARTESIAN_POINT('',(0.151934351572724,0.0615,0.304506029657602));
#897=CARTESIAN_POINT('',(0.175063524404355,0.0615,0.304506029657602));
#898=CARTESIAN_POINT('',(0.179063524404355,0.0575,0.304506029657602));
#899=CARTESIAN_POINT('',(0.183063524404355,0.0535,0.304506029657602));
#900=CARTESIAN_POINT('',(0.183063524404355,-0.0185,0.304506029657602));
#901=CARTESIAN_POINT('',(0.183063524404355,-0.0905,0.304506029657602));
#902=CARTESIAN_POINT('',(0.179063524404355,-0.0945,0.304506029657602));
#903=CARTESIAN_POINT('',(0.141955178741093,-0.0735,0.304506029657602));
#904=CARTESIAN_POINT('',(0.135955178741093,-0.0735,0.304506029657602));
#905=CARTESIAN_POINT('',(0.141955178741093,0.0365,0.304506029657602));
#906=CARTESIAN_POINT('',(0.135955178741093,0.0365,0.304506029657602));
#907=CARTESIAN_POINT('',(0.148026199945164,0.0187680973370292,0.304506029657602));
#908=CARTESIAN_POINT('',(0.140764356171025,0.0168930973370292,0.304506029657602));
#909=CARTESIAN_POINT('',(0.155288043719303,0.0206430973370292,0.304506029657602));
#910=CARTESIAN_POINT('',(0.148026199945164,0.00376809733702923,0.304506029657602));
#911=CARTESIAN_POINT('',(0.155288043719303,-0.00935690266297076,0.304506029657602));
#912=CARTESIAN_POINT('',(0.155288043719303,0.00564309733702924,0.304506029657602));
#913=CARTESIAN_POINT('',(0.136067022515232,-0.0416560268666772,0.304506029657602));
#914=CARTESIAN_POINT('',(0.128805178741093,-0.0285310268666772,0.304506029657602));
#915=CARTESIAN_POINT('',(0.143328866289371,-0.0547810268666772,0.304506029657602));
#916=CARTESIAN_POINT('',(0.128805178741093,-0.0435310268666772,0.304506029657602));
#917=CARTESIAN_POINT('',(0.128805178741093,-0.0585310268666772,0.304506029657602));
#918=CARTESIAN_POINT('',(0.136067022515232,-0.0566560268666772,0.304506029657602));
#919=CARTESIAN_POINT('',(0.148026199945164,-0.0304060268666772,0.304506029657602));
#920=CARTESIAN_POINT('',(0.140764356171025,-0.0322810268666772,0.304506029657602));
#921=CARTESIAN_POINT('',(0.155288043719303,-0.0285310268666772,0.304506029657602));
#922=CARTESIAN_POINT('',(0.148026199945164,-0.0454060268666772,0.304506029657602));
#923=CARTESIAN_POINT('',(0.155288043719303,-0.0585310268666772,0.304506029657602));
#924=CARTESIAN_POINT('',(0.155288043719303,-0.0435310268666772,0.304506029657602));
#925=CARTESIAN_POINT('',(0.136067022515232,0.00751809733702923,0.304506029657602));
#926=CARTESIAN_POINT('',(0.128805178741093,0.0206430973370292,0.304506029657602));
#927=CARTESIAN_POINT('',(0.143328866289371,-0.00560690266297077,0.304506029657602));
#928=CARTESIAN_POINT('',(0.128805178741093,0.00564309733702923,0.304506029657602));
#929=CARTESIAN_POINT('',(0.128805178741093,-0.00935690266297076,0.304506029657602));
#930=CARTESIAN_POINT('',(0.136067022515232,-0.00748190266297077,0.304506029657602));
#931=CARTESIAN_POINT('',(0.151934351572724,-0.0985,0.297506029657602));
#932=CARTESIAN_POINT('',(0.128805178741093,-0.0985,0.297506029657602));
#933=CARTESIAN_POINT('',(0.175063524404355,-0.0985,0.297506029657602));
#934=CARTESIAN_POINT('',(0.175063524404355,-0.0985,0.312506029657602));
#935=CARTESIAN_POINT('',(0.151934351572724,-0.0985,0.312506029657602));
#936=CARTESIAN_POINT('',(0.163563524404355,-0.0985,0.312506029657602));
#937=CARTESIAN_POINT('',(0.163563524404355,-0.0985,0.309506029657602));
#938=CARTESIAN_POINT('',(0.124805178741093,-0.0945,0.297506029657602));
#939=CARTESIAN_POINT('',(0.120805178741093,-0.0905,0.297506029657602));
#940=CARTESIAN_POINT('',(0.120805178741093,-0.0185,0.297506029657602));
#941=CARTESIAN_POINT('',(0.120805178741093,0.0535,0.297506029657602));
#942=CARTESIAN_POINT('',(0.124805178741093,0.0575,0.297506029657602));
#943=CARTESIAN_POINT('',(0.128805178741093,0.0615,0.297506029657602));
#944=CARTESIAN_POINT('',(0.151934351572724,0.0615,0.297506029657602));
#945=CARTESIAN_POINT('',(0.175063524404355,0.0615,0.297506029657602));
#946=CARTESIAN_POINT('',(0.175063524404355,0.0615,0.312506029657602));
#947=CARTESIAN_POINT('',(0.163563524404355,0.0615,0.309506029657602));
#948=CARTESIAN_POINT('',(0.163563524404355,0.0615,0.312506029657602));
#949=CARTESIAN_POINT('',(0.151934351572724,0.0615,0.312506029657602));
#950=CARTESIAN_POINT('',(0.179063524404355,0.0575,0.297506029657602));
#951=CARTESIAN_POINT('',(0.183063524404355,0.0535,0.297506029657602));
#952=CARTESIAN_POINT('',(0.183063524404355,0.0535,0.312506029657602));
#953=CARTESIAN_POINT('',(0.179063524404355,0.0575,0.312506029657602));
#954=CARTESIAN_POINT('',(0.183063524404355,-0.0185,0.297506029657602));
#955=CARTESIAN_POINT('',(0.183063524404355,-0.0905,0.297506029657602));
#956=CARTESIAN_POINT('',(0.183063524404355,-0.0905,0.312506029657602));
#957=CARTESIAN_POINT('',(0.183063524404355,-0.0185,0.312506029657602));
#958=CARTESIAN_POINT('',(0.179063524404355,-0.0945,0.297506029657602));
#959=CARTESIAN_POINT('',(0.179063524404355,-0.0945,0.312506029657602));
#960=CARTESIAN_POINT('',(0.173139499088135,0.03165,0.297506029657602));
#961=CARTESIAN_POINT('',(0.173139499088135,0.03165,0.306506029657602));
#962=CARTESIAN_POINT('',(0.170639499088135,0.03165,0.306506029657602));
#963=CARTESIAN_POINT('',(0.173139499088135,0.03165,0.312506029657602));
#964=CARTESIAN_POINT('',(0.170639499088135,0.03165,0.312506029657602));
#965=CARTESIAN_POINT('',(0.173139499088135,-0.06835,0.297506029657602));
#966=CARTESIAN_POINT('',(0.173139499088135,-0.06835,0.306506029657602));
#967=CARTESIAN_POINT('',(0.170639499088135,-0.06835,0.306506029657602));
#968=CARTESIAN_POINT('',(0.173139499088135,-0.06835,0.312506029657602));
#969=CARTESIAN_POINT('',(0.170639499088135,-0.06835,0.312506029657602));
#970=CARTESIAN_POINT('',(-0.0397113039529461,-0.0188810511188456,0.312506029657602));
#971=CARTESIAN_POINT('',(0.163563524404355,-0.0188810511188456,0.312506029657602));
#972=CARTESIAN_POINT('',(0.163563524404355,-0.0185,0.309506029657602));
#973=CARTESIAN_POINT('',(-0.0494613039529461,-0.0185,0.322806029657602));
#974=CARTESIAN_POINT('',(0.141955178741093,-0.0735,0.322806029657602));
#975=CARTESIAN_POINT('',(0.147955178741093,-0.0735,0.322806029657602));
#976=CARTESIAN_POINT('',(0.141955178741093,-0.0735,0.297506029657602));
#977=CARTESIAN_POINT('',(-0.0494613039529461,-0.0185,0.322806029657602));
#978=CARTESIAN_POINT('',(0.141955178741093,0.0365,0.322806029657602));
#979=CARTESIAN_POINT('',(0.147955178741093,0.0365,0.322806029657602));
#980=CARTESIAN_POINT('',(0.141955178741093,0.0365,0.297506029657602));
#981=CARTESIAN_POINT('',(0.141955178741093,-0.0185,1.15537452636245));
#982=CARTESIAN_POINT('',(0.173139499088135,-0.06835,0.306506029657602));
#983=CARTESIAN_POINT('',(0.173139499088135,0.03165,0.306506029657602));
#984=CARTESIAN_POINT('',(0.148026199945164,0.00376809733702923,0.304504029657602));
#985=CARTESIAN_POINT('',(0.140764356171025,0.0168930973370292,0.304504029657602));
#986=CARTESIAN_POINT('',(0.155288043719303,-0.00935690266297076,0.304504029657602));
#987=CARTESIAN_POINT('',(0.155288043719303,0.00564309733702924,0.304504029657602));
#988=CARTESIAN_POINT('',(0.155288043719303,0.0206430973370292,0.304504029657602));
#989=CARTESIAN_POINT('',(0.148026199945164,0.0187680973370292,0.304504029657602));
#990=CARTESIAN_POINT('',(0.128805178741093,-0.0435310268666772,0.304504029657602));
#991=CARTESIAN_POINT('',(0.128805178741093,-0.0285310268666772,0.304504029657602));
#992=CARTESIAN_POINT('',(0.128805178741093,-0.0585310268666772,0.304504029657602));
#993=CARTESIAN_POINT('',(0.136067022515232,-0.0566560268666772,0.304504029657602));
#994=CARTESIAN_POINT('',(0.143328866289371,-0.0547810268666772,0.304504029657602));
#995=CARTESIAN_POINT('',(0.136067022515232,-0.0416560268666772,0.304504029657602));
#996=CARTESIAN_POINT('',(0.148026199945164,-0.0454060268666772,0.304504029657602));
#997=CARTESIAN_POINT('',(0.140764356171025,-0.0322810268666772,0.304504029657602));
#998=CARTESIAN_POINT('',(0.155288043719303,-0.0585310268666772,0.304504029657602));
#999=CARTESIAN_POINT('',(0.155288043719303,-0.0435310268666772,0.304504029657602));
#1000=CARTESIAN_POINT('',(0.155288043719303,-0.0285310268666772,0.304504029657602));
#1001=CARTESIAN_POINT('',(0.148026199945164,-0.0304060268666772,0.304504029657602));
#1002=CARTESIAN_POINT('',(0.128805178741093,0.00564309733702923,0.304504029657602));
#1003=CARTESIAN_POINT('',(0.128805178741093,0.0206430973370292,0.304504029657602));
#1004=CARTESIAN_POINT('',(0.128805178741093,-0.00935690266297076,0.304504029657602));
#1005=CARTESIAN_POINT('',(0.136067022515232,-0.00748190266297077,0.304504029657602));
#1006=CARTESIAN_POINT('',(0.143328866289371,-0.00560690266297077,0.304504029657602));
#1007=CARTESIAN_POINT('',(0.136067022515232,0.00751809733702923,0.304504029657602));
#1008=MECHANICAL_DESIGN_GEOMETRIC_PRESENTATION_REPRESENTATION('',(#625),
#1009);
#1009=(
GEOMETRIC_REPRESENTATION_CONTEXT(3)
GLOBAL_UNCERTAINTY_ASSIGNED_CONTEXT((#1010))
GLOBAL_UNIT_ASSIGNED_CONTEXT((#1013,#1012,#1011))
REPRESENTATION_CONTEXT('Z-TopMount','TOP_LEVEL_ASSEMBLY_PART')
);
#1010=UNCERTAINTY_MEASURE_WITH_UNIT(LENGTH_MEASURE(1.E-8),#1013,
'DISTANCE_ACCURACY_VALUE','Maximum Tolerance applied to model');
#1011=(
NAMED_UNIT(*)
SI_UNIT($,.STERADIAN.)
SOLID_ANGLE_UNIT()
);
#1012=(
NAMED_UNIT(*)
PLANE_ANGLE_UNIT()
SI_UNIT($,.RADIAN.)
);
#1013=(
LENGTH_UNIT()
NAMED_UNIT(*)
SI_UNIT($,.METRE.)
);
#1014=PRODUCT_DEFINITION_SHAPE('','',#1015);
#1015=PRODUCT_DEFINITION('','',#1017,#1016);
#1016=PRODUCT_DEFINITION_CONTEXT('',#1023,'design');
#1017=PRODUCT_DEFINITION_FORMATION_WITH_SPECIFIED_SOURCE('','',#1019,
 .NOT_KNOWN.);
#1018=PRODUCT_RELATED_PRODUCT_CATEGORY('','',(#1019));
#1019=PRODUCT('Z-TopMount','Z-TopMount','Z-TopMount',(#1021));
#1020=PRODUCT_CATEGORY('','');
#1021=PRODUCT_CONTEXT('',#1023,'mechanical');
#1022=APPLICATION_PROTOCOL_DEFINITION('international standard',
'ap242_managed_model_based_3d_engineering',2020,#1023);
#1023=APPLICATION_CONTEXT('managed model based 3d engineering');
ENDSEC;
END-ISO-10303-21;
