ISO-10303-21;
HEADER;
/* Generated by software containing ST-Developer
 * from STEP Tools, Inc. (www.steptools.com) 
 */
/* OPTION: using custom renumber hook */

FILE_DESCRIPTION(
/* description */ ('STEP AP242 Edition 2',
'CAx-IF Rec.Pracs.---Representation and Presentation of Product Manufa
cturing Information (PMI)---4.0---2014-10-13',
'CAx-IF Rec.Pracs.---3D Tessellated Geometry---0.4---2014-09-14','2;1',
'CAx-IF Rec.Pracs.---User Defined Attributes---1.5---2016-08-15'),
/* implementation_level */ '2;1');

FILE_NAME(
/* name */ 'NOT-618 - Extruder Mount',
/* time_stamp */ '2026-07-26T08:51:49Z',
/* author */ (''),
/* organization */ (''),
/* preprocessor_version */ 'ST-DEVELOPER v20',
/* originating_system */ 'ONSHAPE BY PTC INC, 1.218',
/* authorisation */ '  ');

FILE_SCHEMA (('AP242_MANAGED_MODEL_BASED_3D_ENGINEERING_MIM_LF { 1 0 10303 442 3 1 4 }'));
ENDSEC;

DATA;
#10=SHAPE_REPRESENTATION_RELATIONSHIP('','',#607,#11);
#11=ADVANCED_BREP_SHAPE_REPRESENTATION('',(#605),#1052);
#12=CONICAL_SURFACE('',#668,0.0021,0.785398163397448);
#13=CONICAL_SURFACE('',#669,0.0021,0.785398163397448);
#14=PLANE('',#614);
#15=PLANE('',#616);
#16=PLANE('',#618);
#17=PLANE('',#619);
#18=PLANE('',#629);
#19=PLANE('',#630);
#20=PLANE('',#632);
#21=PLANE('',#634);
#22=PLANE('',#637);
#23=PLANE('',#641);
#24=PLANE('',#644);
#25=PLANE('',#645);
#26=PLANE('',#646);
#27=PLANE('',#649);
#28=PLANE('',#652);
#29=PLANE('',#655);
#30=PLANE('',#658);
#31=PLANE('',#659);
#32=PLANE('',#663);
#33=PLANE('',#674);
#34=PLANE('',#675);
#35=CIRCLE('',#610,0.01115);
#36=CIRCLE('',#611,0.01115);
#37=CIRCLE('',#612,0.01115);
#38=CIRCLE('',#613,0.01115);
#39=CIRCLE('',#615,0.00804159628599882);
#40=CIRCLE('',#617,0.0021);
#41=CIRCLE('',#620,0.0031);
#42=CIRCLE('',#621,0.0031);
#43=CIRCLE('',#622,0.002);
#44=CIRCLE('',#623,0.002);
#45=CIRCLE('',#624,0.014);
#46=CIRCLE('',#625,0.00143278490557872);
#47=CIRCLE('',#626,0.00143278490557872);
#48=CIRCLE('',#627,0.00143278490557872);
#49=CIRCLE('',#628,0.00143278490557872);
#50=CIRCLE('',#631,0.0021);
#51=CIRCLE('',#633,0.00804159628599882);
#52=CIRCLE('',#636,0.00804159628599882);
#53=CIRCLE('',#638,0.00603159628599882);
#54=CIRCLE('',#640,0.00603159628599882);
#55=CIRCLE('',#642,0.00804159628599882);
#56=CIRCLE('',#648,0.00143278490557872);
#57=CIRCLE('',#651,0.00143278490557872);
#58=CIRCLE('',#654,0.00143278490557872);
#59=CIRCLE('',#657,0.00143278490557872);
#60=CIRCLE('',#660,0.014);
#61=CIRCLE('',#662,0.014);
#62=CIRCLE('',#665,0.0021);
#63=CIRCLE('',#667,0.0021);
#64=CIRCLE('',#671,0.002);
#65=CIRCLE('',#673,0.002);
#66=LINE('',#874,#109);
#67=LINE('',#892,#110);
#68=LINE('',#896,#111);
#69=LINE('',#900,#112);
#70=LINE('',#906,#113);
#71=LINE('',#910,#114);
#72=LINE('',#914,#115);
#73=LINE('',#916,#116);
#74=LINE('',#918,#117);
#75=LINE('',#920,#118);
#76=LINE('',#922,#119);
#77=LINE('',#924,#120);
#78=LINE('',#926,#121);
#79=LINE('',#928,#122);
#80=LINE('',#930,#123);
#81=LINE('',#933,#124);
#82=LINE('',#935,#125);
#83=LINE('',#937,#126);
#84=LINE('',#939,#127);
#85=LINE('',#940,#128);
#86=LINE('',#946,#129);
#87=LINE('',#951,#130);
#88=LINE('',#953,#131);
#89=LINE('',#966,#132);
#90=LINE('',#968,#133);
#91=LINE('',#970,#134);
#92=LINE('',#972,#135);
#93=LINE('',#974,#136);
#94=LINE('',#976,#137);
#95=LINE('',#980,#138);
#96=LINE('',#981,#139);
#97=LINE('',#983,#140);
#98=LINE('',#985,#141);
#99=LINE('',#987,#142);
#100=LINE('',#989,#143);
#101=LINE('',#991,#144);
#102=LINE('',#993,#145);
#103=LINE('',#1006,#146);
#104=LINE('',#1008,#147);
#105=LINE('',#1010,#148);
#106=LINE('',#1012,#149);
#107=LINE('',#1013,#150);
#108=LINE('',#1015,#151);
#109=VECTOR('',#680,1.);
#110=VECTOR('',#681,1.);
#111=VECTOR('',#684,1.);
#112=VECTOR('',#687,1.);
#113=VECTOR('',#694,1.);
#114=VECTOR('',#697,1.);
#115=VECTOR('',#702,1.);
#116=VECTOR('',#703,1.);
#117=VECTOR('',#704,1.);
#118=VECTOR('',#705,1.);
#119=VECTOR('',#706,1.);
#120=VECTOR('',#707,1.);
#121=VECTOR('',#708,1.);
#122=VECTOR('',#709,1.);
#123=VECTOR('',#712,1.);
#124=VECTOR('',#713,1.);
#125=VECTOR('',#714,1.);
#126=VECTOR('',#715,1.);
#127=VECTOR('',#716,1.);
#128=VECTOR('',#717,1.);
#129=VECTOR('',#724,1.);
#130=VECTOR('',#727,1.);
#131=VECTOR('',#728,1.);
#132=VECTOR('',#743,1.);
#133=VECTOR('',#744,1.);
#134=VECTOR('',#745,1.);
#135=VECTOR('',#746,1.);
#136=VECTOR('',#747,1.);
#137=VECTOR('',#748,1.);
#138=VECTOR('',#753,1.);
#139=VECTOR('',#754,1.);
#140=VECTOR('',#755,1.);
#141=VECTOR('',#756,1.);
#142=VECTOR('',#757,1.);
#143=VECTOR('',#758,1.);
#144=VECTOR('',#759,1.);
#145=VECTOR('',#762,1.);
#146=VECTOR('',#787,1.);
#147=VECTOR('',#790,1.);
#148=VECTOR('',#793,1.);
#149=VECTOR('',#794,1.);
#150=VECTOR('',#795,1.);
#151=VECTOR('',#796,1.);
#152=ORIENTED_EDGE('',*,*,#304,.F.);
#153=ORIENTED_EDGE('',*,*,#305,.T.);
#154=ORIENTED_EDGE('',*,*,#306,.F.);
#155=ORIENTED_EDGE('',*,*,#307,.T.);
#156=ORIENTED_EDGE('',*,*,#308,.T.);
#157=ORIENTED_EDGE('',*,*,#309,.T.);
#158=ORIENTED_EDGE('',*,*,#310,.F.);
#159=ORIENTED_EDGE('',*,*,#311,.T.);
#160=ORIENTED_EDGE('',*,*,#312,.T.);
#161=ORIENTED_EDGE('',*,*,#313,.T.);
#162=ORIENTED_EDGE('',*,*,#313,.F.);
#163=ORIENTED_EDGE('',*,*,#314,.F.);
#164=ORIENTED_EDGE('',*,*,#315,.F.);
#165=ORIENTED_EDGE('',*,*,#316,.F.);
#166=ORIENTED_EDGE('',*,*,#317,.F.);
#167=ORIENTED_EDGE('',*,*,#314,.T.);
#168=ORIENTED_EDGE('',*,*,#318,.T.);
#169=ORIENTED_EDGE('',*,*,#319,.F.);
#170=ORIENTED_EDGE('',*,*,#320,.F.);
#171=ORIENTED_EDGE('',*,*,#321,.F.);
#172=ORIENTED_EDGE('',*,*,#322,.F.);
#173=ORIENTED_EDGE('',*,*,#323,.F.);
#174=ORIENTED_EDGE('',*,*,#324,.F.);
#175=ORIENTED_EDGE('',*,*,#325,.F.);
#176=ORIENTED_EDGE('',*,*,#326,.T.);
#177=ORIENTED_EDGE('',*,*,#327,.T.);
#178=ORIENTED_EDGE('',*,*,#328,.F.);
#179=ORIENTED_EDGE('',*,*,#329,.T.);
#180=ORIENTED_EDGE('',*,*,#330,.F.);
#181=ORIENTED_EDGE('',*,*,#319,.T.);
#182=ORIENTED_EDGE('',*,*,#331,.F.);
#183=ORIENTED_EDGE('',*,*,#332,.T.);
#184=ORIENTED_EDGE('',*,*,#333,.T.);
#185=ORIENTED_EDGE('',*,*,#334,.F.);
#186=ORIENTED_EDGE('',*,*,#335,.T.);
#187=ORIENTED_EDGE('',*,*,#336,.F.);
#188=ORIENTED_EDGE('',*,*,#337,.T.);
#189=ORIENTED_EDGE('',*,*,#328,.T.);
#190=ORIENTED_EDGE('',*,*,#338,.T.);
#191=ORIENTED_EDGE('',*,*,#339,.F.);
#192=ORIENTED_EDGE('',*,*,#340,.F.);
#193=ORIENTED_EDGE('',*,*,#341,.F.);
#194=ORIENTED_EDGE('',*,*,#342,.F.);
#195=ORIENTED_EDGE('',*,*,#343,.F.);
#196=ORIENTED_EDGE('',*,*,#336,.T.);
#197=ORIENTED_EDGE('',*,*,#344,.T.);
#198=ORIENTED_EDGE('',*,*,#345,.T.);
#199=ORIENTED_EDGE('',*,*,#346,.T.);
#200=ORIENTED_EDGE('',*,*,#347,.F.);
#201=ORIENTED_EDGE('',*,*,#348,.T.);
#202=ORIENTED_EDGE('',*,*,#349,.T.);
#203=ORIENTED_EDGE('',*,*,#350,.F.);
#204=ORIENTED_EDGE('',*,*,#351,.T.);
#205=ORIENTED_EDGE('',*,*,#316,.T.);
#206=ORIENTED_EDGE('',*,*,#352,.T.);
#207=ORIENTED_EDGE('',*,*,#353,.T.);
#208=ORIENTED_EDGE('',*,*,#354,.T.);
#209=ORIENTED_EDGE('',*,*,#355,.T.);
#210=ORIENTED_EDGE('',*,*,#356,.T.);
#211=ORIENTED_EDGE('',*,*,#357,.F.);
#212=ORIENTED_EDGE('',*,*,#347,.T.);
#213=ORIENTED_EDGE('',*,*,#330,.T.);
#214=ORIENTED_EDGE('',*,*,#358,.T.);
#215=ORIENTED_EDGE('',*,*,#348,.F.);
#216=ORIENTED_EDGE('',*,*,#357,.T.);
#217=ORIENTED_EDGE('',*,*,#359,.T.);
#218=ORIENTED_EDGE('',*,*,#320,.T.);
#219=ORIENTED_EDGE('',*,*,#349,.F.);
#220=ORIENTED_EDGE('',*,*,#358,.F.);
#221=ORIENTED_EDGE('',*,*,#329,.F.);
#222=ORIENTED_EDGE('',*,*,#337,.F.);
#223=ORIENTED_EDGE('',*,*,#360,.F.);
#224=ORIENTED_EDGE('',*,*,#352,.F.);
#225=ORIENTED_EDGE('',*,*,#315,.T.);
#226=ORIENTED_EDGE('',*,*,#325,.T.);
#227=ORIENTED_EDGE('',*,*,#361,.F.);
#228=ORIENTED_EDGE('',*,*,#353,.F.);
#229=ORIENTED_EDGE('',*,*,#360,.T.);
#230=ORIENTED_EDGE('',*,*,#324,.T.);
#231=ORIENTED_EDGE('',*,*,#362,.F.);
#232=ORIENTED_EDGE('',*,*,#354,.F.);
#233=ORIENTED_EDGE('',*,*,#361,.T.);
#234=ORIENTED_EDGE('',*,*,#323,.T.);
#235=ORIENTED_EDGE('',*,*,#363,.F.);
#236=ORIENTED_EDGE('',*,*,#355,.F.);
#237=ORIENTED_EDGE('',*,*,#362,.T.);
#238=ORIENTED_EDGE('',*,*,#322,.T.);
#239=ORIENTED_EDGE('',*,*,#359,.F.);
#240=ORIENTED_EDGE('',*,*,#356,.F.);
#241=ORIENTED_EDGE('',*,*,#363,.T.);
#242=ORIENTED_EDGE('',*,*,#321,.T.);
#243=ORIENTED_EDGE('',*,*,#364,.F.);
#244=ORIENTED_EDGE('',*,*,#331,.T.);
#245=ORIENTED_EDGE('',*,*,#318,.F.);
#246=ORIENTED_EDGE('',*,*,#312,.F.);
#247=ORIENTED_EDGE('',*,*,#365,.F.);
#248=ORIENTED_EDGE('',*,*,#308,.F.);
#249=ORIENTED_EDGE('',*,*,#351,.F.);
#250=ORIENTED_EDGE('',*,*,#346,.F.);
#251=ORIENTED_EDGE('',*,*,#366,.T.);
#252=ORIENTED_EDGE('',*,*,#367,.T.);
#253=ORIENTED_EDGE('',*,*,#310,.T.);
#254=ORIENTED_EDGE('',*,*,#368,.T.);
#255=ORIENTED_EDGE('',*,*,#369,.T.);
#256=ORIENTED_EDGE('',*,*,#334,.T.);
#257=ORIENTED_EDGE('',*,*,#370,.F.);
#258=ORIENTED_EDGE('',*,*,#343,.T.);
#259=ORIENTED_EDGE('',*,*,#370,.T.);
#260=ORIENTED_EDGE('',*,*,#371,.F.);
#261=ORIENTED_EDGE('',*,*,#342,.T.);
#262=ORIENTED_EDGE('',*,*,#371,.T.);
#263=ORIENTED_EDGE('',*,*,#372,.F.);
#264=ORIENTED_EDGE('',*,*,#341,.T.);
#265=ORIENTED_EDGE('',*,*,#372,.T.);
#266=ORIENTED_EDGE('',*,*,#373,.F.);
#267=ORIENTED_EDGE('',*,*,#340,.T.);
#268=ORIENTED_EDGE('',*,*,#373,.T.);
#269=ORIENTED_EDGE('',*,*,#374,.T.);
#270=ORIENTED_EDGE('',*,*,#305,.F.);
#271=ORIENTED_EDGE('',*,*,#304,.T.);
#272=ORIENTED_EDGE('',*,*,#375,.F.);
#273=ORIENTED_EDGE('',*,*,#306,.T.);
#274=ORIENTED_EDGE('',*,*,#374,.F.);
#275=ORIENTED_EDGE('',*,*,#339,.T.);
#276=ORIENTED_EDGE('',*,*,#375,.T.);
#277=ORIENTED_EDGE('',*,*,#307,.F.);
#278=ORIENTED_EDGE('',*,*,#376,.T.);
#279=ORIENTED_EDGE('',*,*,#350,.T.);
#280=ORIENTED_EDGE('',*,*,#377,.T.);
#281=ORIENTED_EDGE('',*,*,#317,.T.);
#282=ORIENTED_EDGE('',*,*,#332,.F.);
#283=ORIENTED_EDGE('',*,*,#376,.F.);
#284=ORIENTED_EDGE('',*,*,#333,.F.);
#285=ORIENTED_EDGE('',*,*,#377,.F.);
#286=ORIENTED_EDGE('',*,*,#335,.F.);
#287=ORIENTED_EDGE('',*,*,#369,.F.);
#288=ORIENTED_EDGE('',*,*,#378,.F.);
#289=ORIENTED_EDGE('',*,*,#344,.F.);
#290=ORIENTED_EDGE('',*,*,#338,.F.);
#291=ORIENTED_EDGE('',*,*,#327,.F.);
#292=ORIENTED_EDGE('',*,*,#379,.F.);
#293=ORIENTED_EDGE('',*,*,#366,.F.);
#294=ORIENTED_EDGE('',*,*,#367,.F.);
#295=ORIENTED_EDGE('',*,*,#379,.T.);
#296=ORIENTED_EDGE('',*,*,#326,.F.);
#297=ORIENTED_EDGE('',*,*,#364,.T.);
#298=ORIENTED_EDGE('',*,*,#311,.F.);
#299=ORIENTED_EDGE('',*,*,#365,.T.);
#300=ORIENTED_EDGE('',*,*,#345,.F.);
#301=ORIENTED_EDGE('',*,*,#378,.T.);
#302=ORIENTED_EDGE('',*,*,#368,.F.);
#303=ORIENTED_EDGE('',*,*,#309,.F.);
#304=EDGE_CURVE('',#380,#381,#435,.T.);
#305=EDGE_CURVE('',#380,#382,#66,.T.);
#306=EDGE_CURVE('',#383,#382,#436,.T.);
#307=EDGE_CURVE('',#383,#381,#67,.F.);
#308=EDGE_CURVE('',#384,#385,#35,.T.);
#309=EDGE_CURVE('',#385,#386,#68,.T.);
#310=EDGE_CURVE('',#387,#386,#36,.T.);
#311=EDGE_CURVE('',#387,#388,#69,.F.);
#312=EDGE_CURVE('',#388,#389,#37,.T.);
#313=EDGE_CURVE('',#389,#384,#38,.T.);
#314=EDGE_CURVE('',#390,#389,#70,.T.);
#315=EDGE_CURVE('',#391,#390,#39,.T.);
#316=EDGE_CURVE('',#384,#391,#71,.T.);
#317=EDGE_CURVE('',#392,#392,#40,.T.);
#318=EDGE_CURVE('',#389,#393,#72,.T.);
#319=EDGE_CURVE('',#394,#393,#73,.T.);
#320=EDGE_CURVE('',#395,#394,#74,.T.);
#321=EDGE_CURVE('',#396,#395,#75,.T.);
#322=EDGE_CURVE('',#397,#396,#76,.T.);
#323=EDGE_CURVE('',#398,#397,#77,.T.);
#324=EDGE_CURVE('',#399,#398,#78,.T.);
#325=EDGE_CURVE('',#390,#399,#79,.T.);
#326=EDGE_CURVE('',#400,#401,#80,.T.);
#327=EDGE_CURVE('',#401,#402,#81,.T.);
#328=EDGE_CURVE('',#403,#402,#82,.T.);
#329=EDGE_CURVE('',#403,#404,#83,.F.);
#330=EDGE_CURVE('',#394,#404,#84,.T.);
#331=EDGE_CURVE('',#400,#393,#85,.T.);
#332=EDGE_CURVE('',#405,#405,#41,.F.);
#333=EDGE_CURVE('',#406,#406,#42,.F.);
#334=EDGE_CURVE('',#407,#408,#86,.T.);
#335=EDGE_CURVE('',#407,#409,#43,.T.);
#336=EDGE_CURVE('',#410,#409,#87,.T.);
#337=EDGE_CURVE('',#410,#403,#88,.T.);
#338=EDGE_CURVE('',#402,#408,#44,.T.);
#339=EDGE_CURVE('',#411,#411,#45,.T.);
#340=EDGE_CURVE('',#412,#412,#46,.T.);
#341=EDGE_CURVE('',#413,#413,#47,.T.);
#342=EDGE_CURVE('',#414,#414,#48,.T.);
#343=EDGE_CURVE('',#415,#415,#49,.T.);
#344=EDGE_CURVE('',#409,#416,#89,.F.);
#345=EDGE_CURVE('',#416,#417,#90,.F.);
#346=EDGE_CURVE('',#417,#418,#91,.T.);
#347=EDGE_CURVE('',#419,#418,#92,.T.);
#348=EDGE_CURVE('',#419,#420,#93,.T.);
#349=EDGE_CURVE('',#420,#410,#94,.F.);
#350=EDGE_CURVE('',#421,#421,#50,.T.);
#351=EDGE_CURVE('',#418,#384,#95,.T.);
#352=EDGE_CURVE('',#391,#422,#96,.T.);
#353=EDGE_CURVE('',#422,#423,#97,.T.);
#354=EDGE_CURVE('',#423,#424,#98,.T.);
#355=EDGE_CURVE('',#424,#425,#99,.T.);
#356=EDGE_CURVE('',#425,#426,#100,.T.);
#357=EDGE_CURVE('',#419,#426,#101,.T.);
#358=EDGE_CURVE('',#404,#420,#102,.T.);
#359=EDGE_CURVE('',#426,#395,#51,.T.);
#360=EDGE_CURVE('',#422,#399,#52,.T.);
#361=EDGE_CURVE('',#423,#398,#53,.T.);
#362=EDGE_CURVE('',#424,#397,#54,.T.);
#363=EDGE_CURVE('',#425,#396,#55,.T.);
#364=EDGE_CURVE('',#400,#388,#103,.T.);
#365=EDGE_CURVE('',#385,#417,#104,.T.);
#366=EDGE_CURVE('',#408,#427,#105,.F.);
#367=EDGE_CURVE('',#427,#387,#106,.T.);
#368=EDGE_CURVE('',#386,#428,#107,.T.);
#369=EDGE_CURVE('',#428,#407,#108,.T.);
#370=EDGE_CURVE('',#429,#429,#56,.T.);
#371=EDGE_CURVE('',#430,#430,#57,.T.);
#372=EDGE_CURVE('',#431,#431,#58,.T.);
#373=EDGE_CURVE('',#432,#432,#59,.T.);
#374=EDGE_CURVE('',#380,#382,#60,.T.);
#375=EDGE_CURVE('',#383,#381,#61,.T.);
#376=EDGE_CURVE('',#433,#433,#62,.T.);
#377=EDGE_CURVE('',#434,#434,#63,.T.);
#378=EDGE_CURVE('',#416,#428,#64,.T.);
#379=EDGE_CURVE('',#427,#401,#65,.T.);
#380=VERTEX_POINT('',#872);
#381=VERTEX_POINT('',#873);
#382=VERTEX_POINT('',#875);
#383=VERTEX_POINT('',#891);
#384=VERTEX_POINT('',#894);
#385=VERTEX_POINT('',#895);
#386=VERTEX_POINT('',#897);
#387=VERTEX_POINT('',#899);
#388=VERTEX_POINT('',#901);
#389=VERTEX_POINT('',#903);
#390=VERTEX_POINT('',#907);
#391=VERTEX_POINT('',#909);
#392=VERTEX_POINT('',#913);
#393=VERTEX_POINT('',#915);
#394=VERTEX_POINT('',#917);
#395=VERTEX_POINT('',#919);
#396=VERTEX_POINT('',#921);
#397=VERTEX_POINT('',#923);
#398=VERTEX_POINT('',#925);
#399=VERTEX_POINT('',#927);
#400=VERTEX_POINT('',#931);
#401=VERTEX_POINT('',#932);
#402=VERTEX_POINT('',#934);
#403=VERTEX_POINT('',#936);
#404=VERTEX_POINT('',#938);
#405=VERTEX_POINT('',#943);
#406=VERTEX_POINT('',#945);
#407=VERTEX_POINT('',#947);
#408=VERTEX_POINT('',#948);
#409=VERTEX_POINT('',#950);
#410=VERTEX_POINT('',#952);
#411=VERTEX_POINT('',#956);
#412=VERTEX_POINT('',#958);
#413=VERTEX_POINT('',#960);
#414=VERTEX_POINT('',#962);
#415=VERTEX_POINT('',#964);
#416=VERTEX_POINT('',#967);
#417=VERTEX_POINT('',#969);
#418=VERTEX_POINT('',#971);
#419=VERTEX_POINT('',#973);
#420=VERTEX_POINT('',#975);
#421=VERTEX_POINT('',#979);
#422=VERTEX_POINT('',#982);
#423=VERTEX_POINT('',#984);
#424=VERTEX_POINT('',#986);
#425=VERTEX_POINT('',#988);
#426=VERTEX_POINT('',#990);
#427=VERTEX_POINT('',#1011);
#428=VERTEX_POINT('',#1014);
#429=VERTEX_POINT('',#1018);
#430=VERTEX_POINT('',#1022);
#431=VERTEX_POINT('',#1026);
#432=VERTEX_POINT('',#1030);
#433=VERTEX_POINT('',#1039);
#434=VERTEX_POINT('',#1042);
#435=B_SPLINE_CURVE_WITH_KNOTS('',3,(#857,#858,#859,#860,#861,#862,#863,
#864,#865,#866,#867,#868,#869,#870,#871),.UNSPECIFIED.,.F.,.F.,(4,1,1,1,
1,1,1,1,1,1,1,1,4),(0.,0.00234726030128029,0.00469452060256057,0.00704178090384086,
0.00938904120512114,0.0140835618076817,0.0187780824102423,0.0234726030128029,
0.0281671236153634,0.0305143839166437,0.032861644217924,0.0352089045192043,
0.0375561648204846),.UNSPECIFIED.);
#436=B_SPLINE_CURVE_WITH_KNOTS('',3,(#876,#877,#878,#879,#880,#881,#882,
#883,#884,#885,#886,#887,#888,#889,#890),.UNSPECIFIED.,.F.,.F.,(4,1,1,1,
1,1,1,1,1,1,1,1,4),(0.,0.0023472603012803,0.0046945206025606,0.00704178090384089,
0.00938904120512119,0.0140835618076818,0.0187780824102424,0.023472603012803,
0.0281671236153636,0.0305143839166439,0.0328616442179242,0.0352089045192045,
0.0375561648204848),.UNSPECIFIED.);
#437=EDGE_LOOP('',(#152,#153,#154,#155));
#438=EDGE_LOOP('',(#156,#157,#158,#159,#160,#161));
#439=EDGE_LOOP('',(#162,#163,#164,#165));
#440=EDGE_LOOP('',(#166));
#441=EDGE_LOOP('',(#167,#168,#169,#170,#171,#172,#173,#174,#175));
#442=EDGE_LOOP('',(#176,#177,#178,#179,#180,#181,#182));
#443=EDGE_LOOP('',(#183));
#444=EDGE_LOOP('',(#184));
#445=EDGE_LOOP('',(#185,#186,#187,#188,#189,#190));
#446=EDGE_LOOP('',(#191));
#447=EDGE_LOOP('',(#192));
#448=EDGE_LOOP('',(#193));
#449=EDGE_LOOP('',(#194));
#450=EDGE_LOOP('',(#195));
#451=EDGE_LOOP('',(#196,#197,#198,#199,#200,#201,#202));
#452=EDGE_LOOP('',(#203));
#453=EDGE_LOOP('',(#204,#205,#206,#207,#208,#209,#210,#211,#212));
#454=EDGE_LOOP('',(#213,#214,#215,#216,#217,#218));
#455=EDGE_LOOP('',(#219,#220,#221,#222));
#456=EDGE_LOOP('',(#223,#224,#225,#226));
#457=EDGE_LOOP('',(#227,#228,#229,#230));
#458=EDGE_LOOP('',(#231,#232,#233,#234));
#459=EDGE_LOOP('',(#235,#236,#237,#238));
#460=EDGE_LOOP('',(#239,#240,#241,#242));
#461=EDGE_LOOP('',(#243,#244,#245,#246));
#462=EDGE_LOOP('',(#247,#248,#249,#250));
#463=EDGE_LOOP('',(#251,#252,#253,#254,#255,#256));
#464=EDGE_LOOP('',(#257));
#465=EDGE_LOOP('',(#258));
#466=EDGE_LOOP('',(#259));
#467=EDGE_LOOP('',(#260));
#468=EDGE_LOOP('',(#261));
#469=EDGE_LOOP('',(#262));
#470=EDGE_LOOP('',(#263));
#471=EDGE_LOOP('',(#264));
#472=EDGE_LOOP('',(#265));
#473=EDGE_LOOP('',(#266));
#474=EDGE_LOOP('',(#267));
#475=EDGE_LOOP('',(#268));
#476=EDGE_LOOP('',(#269,#270));
#477=EDGE_LOOP('',(#271,#272,#273,#274));
#478=EDGE_LOOP('',(#275));
#479=EDGE_LOOP('',(#276,#277));
#480=EDGE_LOOP('',(#278));
#481=EDGE_LOOP('',(#279));
#482=EDGE_LOOP('',(#280));
#483=EDGE_LOOP('',(#281));
#484=EDGE_LOOP('',(#282));
#485=EDGE_LOOP('',(#283));
#486=EDGE_LOOP('',(#284));
#487=EDGE_LOOP('',(#285));
#488=EDGE_LOOP('',(#286,#287,#288,#289));
#489=EDGE_LOOP('',(#290,#291,#292,#293));
#490=EDGE_LOOP('',(#294,#295,#296,#297,#298));
#491=EDGE_LOOP('',(#299,#300,#301,#302,#303));
#492=FACE_BOUND('',#437,.T.);
#493=FACE_BOUND('',#438,.T.);
#494=FACE_BOUND('',#439,.T.);
#495=FACE_BOUND('',#440,.T.);
#496=FACE_BOUND('',#441,.T.);
#497=FACE_BOUND('',#442,.T.);
#498=FACE_BOUND('',#443,.T.);
#499=FACE_BOUND('',#444,.T.);
#500=FACE_BOUND('',#445,.T.);
#501=FACE_BOUND('',#446,.T.);
#502=FACE_BOUND('',#447,.T.);
#503=FACE_BOUND('',#448,.T.);
#504=FACE_BOUND('',#449,.T.);
#505=FACE_BOUND('',#450,.T.);
#506=FACE_BOUND('',#451,.T.);
#507=FACE_BOUND('',#452,.T.);
#508=FACE_BOUND('',#453,.T.);
#509=FACE_BOUND('',#454,.T.);
#510=FACE_BOUND('',#455,.T.);
#511=FACE_BOUND('',#456,.T.);
#512=FACE_BOUND('',#457,.T.);
#513=FACE_BOUND('',#458,.T.);
#514=FACE_BOUND('',#459,.T.);
#515=FACE_BOUND('',#460,.T.);
#516=FACE_BOUND('',#461,.T.);
#517=FACE_BOUND('',#462,.T.);
#518=FACE_BOUND('',#463,.T.);
#519=FACE_BOUND('',#464,.T.);
#520=FACE_BOUND('',#465,.T.);
#521=FACE_BOUND('',#466,.T.);
#522=FACE_BOUND('',#467,.T.);
#523=FACE_BOUND('',#468,.T.);
#524=FACE_BOUND('',#469,.T.);
#525=FACE_BOUND('',#470,.T.);
#526=FACE_BOUND('',#471,.T.);
#527=FACE_BOUND('',#472,.T.);
#528=FACE_BOUND('',#473,.T.);
#529=FACE_BOUND('',#474,.T.);
#530=FACE_BOUND('',#475,.T.);
#531=FACE_BOUND('',#476,.T.);
#532=FACE_BOUND('',#477,.T.);
#533=FACE_BOUND('',#478,.T.);
#534=FACE_BOUND('',#479,.T.);
#535=FACE_BOUND('',#480,.T.);
#536=FACE_BOUND('',#481,.T.);
#537=FACE_BOUND('',#482,.T.);
#538=FACE_BOUND('',#483,.T.);
#539=FACE_BOUND('',#484,.T.);
#540=FACE_BOUND('',#485,.T.);
#541=FACE_BOUND('',#486,.T.);
#542=FACE_BOUND('',#487,.T.);
#543=FACE_BOUND('',#488,.T.);
#544=FACE_BOUND('',#489,.T.);
#545=FACE_BOUND('',#490,.T.);
#546=FACE_BOUND('',#491,.T.);
#547=CYLINDRICAL_SURFACE('',#609,0.01115);
#548=CYLINDRICAL_SURFACE('',#635,0.00804159628599882);
#549=CYLINDRICAL_SURFACE('',#639,0.00603159628599882);
#550=CYLINDRICAL_SURFACE('',#643,0.00804159628599882);
#551=CYLINDRICAL_SURFACE('',#647,0.00143278490557872);
#552=CYLINDRICAL_SURFACE('',#650,0.00143278490557872);
#553=CYLINDRICAL_SURFACE('',#653,0.00143278490557872);
#554=CYLINDRICAL_SURFACE('',#656,0.00143278490557872);
#555=CYLINDRICAL_SURFACE('',#661,0.014);
#556=CYLINDRICAL_SURFACE('',#664,0.0021);
#557=CYLINDRICAL_SURFACE('',#666,0.0021);
#558=CYLINDRICAL_SURFACE('',#670,0.002);
#559=CYLINDRICAL_SURFACE('',#672,0.002);
#560=ADVANCED_FACE('',(#492,#493),#547,.F.);
#561=ADVANCED_FACE('',(#494),#14,.F.);
#562=ADVANCED_FACE('',(#495,#496),#15,.F.);
#563=ADVANCED_FACE('',(#497),#16,.F.);
#564=ADVANCED_FACE('',(#498,#499,#500,#501,#502,#503,#504,#505),#17,.T.);
#565=ADVANCED_FACE('',(#506),#18,.T.);
#566=ADVANCED_FACE('',(#507,#508),#19,.F.);
#567=ADVANCED_FACE('',(#509),#20,.T.);
#568=ADVANCED_FACE('',(#510),#21,.F.);
#569=ADVANCED_FACE('',(#511),#548,.F.);
#570=ADVANCED_FACE('',(#512),#22,.F.);
#571=ADVANCED_FACE('',(#513),#549,.F.);
#572=ADVANCED_FACE('',(#514),#23,.F.);
#573=ADVANCED_FACE('',(#515),#550,.F.);
#574=ADVANCED_FACE('',(#516),#24,.T.);
#575=ADVANCED_FACE('',(#517),#25,.T.);
#576=ADVANCED_FACE('',(#518),#26,.F.);
#577=ADVANCED_FACE('',(#519,#520),#551,.F.);
#578=ADVANCED_FACE('',(#521),#27,.T.);
#579=ADVANCED_FACE('',(#522,#523),#552,.F.);
#580=ADVANCED_FACE('',(#524),#28,.T.);
#581=ADVANCED_FACE('',(#525,#526),#553,.F.);
#582=ADVANCED_FACE('',(#527),#29,.T.);
#583=ADVANCED_FACE('',(#528,#529),#554,.F.);
#584=ADVANCED_FACE('',(#530),#30,.T.);
#585=ADVANCED_FACE('',(#531),#31,.T.);
#586=ADVANCED_FACE('',(#532,#533),#555,.F.);
#587=ADVANCED_FACE('',(#534),#32,.T.);
#588=ADVANCED_FACE('',(#535,#536),#556,.F.);
#589=ADVANCED_FACE('',(#537,#538),#557,.F.);
#590=ADVANCED_FACE('',(#539,#540),#12,.F.);
#591=ADVANCED_FACE('',(#541,#542),#13,.F.);
#592=ADVANCED_FACE('',(#543),#558,.T.);
#593=ADVANCED_FACE('',(#544),#559,.T.);
#594=ADVANCED_FACE('',(#545),#33,.T.);
#595=ADVANCED_FACE('',(#546),#34,.T.);
#596=CLOSED_SHELL('',(#560,#561,#562,#563,#564,#565,#566,#567,#568,#569,
#570,#571,#572,#573,#574,#575,#576,#577,#578,#579,#580,#581,#582,#583,#584,
#585,#586,#587,#588,#589,#590,#591,#592,#593,#594,#595));
#597=STYLED_ITEM('',(#598),#605);
#598=PRESENTATION_STYLE_ASSIGNMENT((#599));
#599=SURFACE_STYLE_USAGE(.BOTH.,#600);
#600=SURFACE_SIDE_STYLE('',(#601));
#601=SURFACE_STYLE_FILL_AREA(#602);
#602=FILL_AREA_STYLE('',(#603));
#603=FILL_AREA_STYLE_COLOUR('',#604);
#604=COLOUR_RGB('',0.301960784313725,0.301960784313725,0.301960784313725);
#605=MANIFOLD_SOLID_BREP('Extruder Mount',#596);
#606=SHAPE_DEFINITION_REPRESENTATION(#1057,#607);
#607=SHAPE_REPRESENTATION('Extruder Mount',(#608),#1052);
#608=AXIS2_PLACEMENT_3D('',#855,#676,#677);
#609=AXIS2_PLACEMENT_3D('',#856,#678,#679);
#610=AXIS2_PLACEMENT_3D('',#893,#682,#683);
#611=AXIS2_PLACEMENT_3D('',#898,#685,#686);
#612=AXIS2_PLACEMENT_3D('',#902,#688,#689);
#613=AXIS2_PLACEMENT_3D('',#904,#690,#691);
#614=AXIS2_PLACEMENT_3D('',#905,#692,#693);
#615=AXIS2_PLACEMENT_3D('',#908,#695,#696);
#616=AXIS2_PLACEMENT_3D('',#911,#698,#699);
#617=AXIS2_PLACEMENT_3D('',#912,#700,#701);
#618=AXIS2_PLACEMENT_3D('',#929,#710,#711);
#619=AXIS2_PLACEMENT_3D('',#941,#718,#719);
#620=AXIS2_PLACEMENT_3D('',#942,#720,#721);
#621=AXIS2_PLACEMENT_3D('',#944,#722,#723);
#622=AXIS2_PLACEMENT_3D('',#949,#725,#726);
#623=AXIS2_PLACEMENT_3D('',#954,#729,#730);
#624=AXIS2_PLACEMENT_3D('',#955,#731,#732);
#625=AXIS2_PLACEMENT_3D('',#957,#733,#734);
#626=AXIS2_PLACEMENT_3D('',#959,#735,#736);
#627=AXIS2_PLACEMENT_3D('',#961,#737,#738);
#628=AXIS2_PLACEMENT_3D('',#963,#739,#740);
#629=AXIS2_PLACEMENT_3D('',#965,#741,#742);
#630=AXIS2_PLACEMENT_3D('',#977,#749,#750);
#631=AXIS2_PLACEMENT_3D('',#978,#751,#752);
#632=AXIS2_PLACEMENT_3D('',#992,#760,#761);
#633=AXIS2_PLACEMENT_3D('',#994,#763,#764);
#634=AXIS2_PLACEMENT_3D('',#995,#765,#766);
#635=AXIS2_PLACEMENT_3D('',#996,#767,#768);
#636=AXIS2_PLACEMENT_3D('',#997,#769,#770);
#637=AXIS2_PLACEMENT_3D('',#998,#771,#772);
#638=AXIS2_PLACEMENT_3D('',#999,#773,#774);
#639=AXIS2_PLACEMENT_3D('',#1000,#775,#776);
#640=AXIS2_PLACEMENT_3D('',#1001,#777,#778);
#641=AXIS2_PLACEMENT_3D('',#1002,#779,#780);
#642=AXIS2_PLACEMENT_3D('',#1003,#781,#782);
#643=AXIS2_PLACEMENT_3D('',#1004,#783,#784);
#644=AXIS2_PLACEMENT_3D('',#1005,#785,#786);
#645=AXIS2_PLACEMENT_3D('',#1007,#788,#789);
#646=AXIS2_PLACEMENT_3D('',#1009,#791,#792);
#647=AXIS2_PLACEMENT_3D('',#1016,#797,#798);
#648=AXIS2_PLACEMENT_3D('',#1017,#799,#800);
#649=AXIS2_PLACEMENT_3D('',#1019,#801,#802);
#650=AXIS2_PLACEMENT_3D('',#1020,#803,#804);
#651=AXIS2_PLACEMENT_3D('',#1021,#805,#806);
#652=AXIS2_PLACEMENT_3D('',#1023,#807,#808);
#653=AXIS2_PLACEMENT_3D('',#1024,#809,#810);
#654=AXIS2_PLACEMENT_3D('',#1025,#811,#812);
#655=AXIS2_PLACEMENT_3D('',#1027,#813,#814);
#656=AXIS2_PLACEMENT_3D('',#1028,#815,#816);
#657=AXIS2_PLACEMENT_3D('',#1029,#817,#818);
#658=AXIS2_PLACEMENT_3D('',#1031,#819,#820);
#659=AXIS2_PLACEMENT_3D('',#1032,#821,#822);
#660=AXIS2_PLACEMENT_3D('',#1033,#823,#824);
#661=AXIS2_PLACEMENT_3D('',#1034,#825,#826);
#662=AXIS2_PLACEMENT_3D('',#1035,#827,#828);
#663=AXIS2_PLACEMENT_3D('',#1036,#829,#830);
#664=AXIS2_PLACEMENT_3D('',#1037,#831,#832);
#665=AXIS2_PLACEMENT_3D('',#1038,#833,#834);
#666=AXIS2_PLACEMENT_3D('',#1040,#835,#836);
#667=AXIS2_PLACEMENT_3D('',#1041,#837,#838);
#668=AXIS2_PLACEMENT_3D('',#1043,#839,#840);
#669=AXIS2_PLACEMENT_3D('',#1044,#841,#842);
#670=AXIS2_PLACEMENT_3D('',#1045,#843,#844);
#671=AXIS2_PLACEMENT_3D('',#1046,#845,#846);
#672=AXIS2_PLACEMENT_3D('',#1047,#847,#848);
#673=AXIS2_PLACEMENT_3D('',#1048,#849,#850);
#674=AXIS2_PLACEMENT_3D('',#1049,#851,#852);
#675=AXIS2_PLACEMENT_3D('',#1050,#853,#854);
#676=DIRECTION('',(0.,0.,1.));
#677=DIRECTION('',(1.,0.,0.));
#678=DIRECTION('',(0.,-1.,0.));
#679=DIRECTION('',(-1.,0.,0.));
#680=DIRECTION('',(0.,-1.,0.));
#681=DIRECTION('',(0.,-1.,0.));
#682=DIRECTION('',(0.,1.,0.));
#683=DIRECTION('',(1.,0.,0.));
#684=DIRECTION('',(0.,-1.,0.));
#685=DIRECTION('',(0.,1.,0.));
#686=DIRECTION('',(1.,0.,0.));
#687=DIRECTION('',(0.,-1.,0.));
#688=DIRECTION('',(0.,1.,0.));
#689=DIRECTION('',(1.,0.,0.));
#690=DIRECTION('',(0.,1.,0.));
#691=DIRECTION('',(1.,0.,0.));
#692=DIRECTION('',(0.,1.,0.));
#693=DIRECTION('',(1.,0.,0.));
#694=DIRECTION('',(-1.,0.,0.));
#695=DIRECTION('',(0.,-1.,0.));
#696=DIRECTION('',(-1.,0.,0.));
#697=DIRECTION('',(-1.,0.,0.));
#698=DIRECTION('',(0.,0.,1.));
#699=DIRECTION('',(0.,-1.,0.));
#700=DIRECTION('',(0.,0.,-1.));
#701=DIRECTION('',(0.,1.,0.));
#702=DIRECTION('',(-1.,0.,0.));
#703=DIRECTION('',(0.,-1.,0.));
#704=DIRECTION('',(-1.,0.,0.));
#705=DIRECTION('',(0.,1.,0.));
#706=DIRECTION('',(-1.,0.,0.));
#707=DIRECTION('',(-2.90512162347792E-16,1.,0.));
#708=DIRECTION('',(1.,0.,0.));
#709=DIRECTION('',(0.,1.,0.));
#710=DIRECTION('',(1.,0.,5.55111512312578E-16));
#711=DIRECTION('',(5.55111512312578E-16,0.,-1.));
#712=DIRECTION('',(0.,-1.,0.));
#713=DIRECTION('',(-5.55111512312578E-16,0.,1.));
#714=DIRECTION('',(0.,-1.,0.));
#715=DIRECTION('',(-3.92523114670944E-16,-0.707106781186548,0.707106781186547));
#716=DIRECTION('',(-5.55111512312578E-16,0.,1.));
#717=DIRECTION('',(-5.55111512312578E-16,0.,1.));
#718=DIRECTION('',(3.98370568005197E-16,0.,1.));
#719=DIRECTION('',(1.,0.,-3.98370568005197E-16));
#720=DIRECTION('',(3.98370568005197E-16,0.,1.));
#721=DIRECTION('',(1.,0.,-3.98370568005197E-16));
#722=DIRECTION('',(3.98370568005197E-16,0.,1.));
#723=DIRECTION('',(1.,0.,-3.98370568005197E-16));
#724=DIRECTION('',(-1.,0.,3.98370568005197E-16));
#725=DIRECTION('',(3.98370568005197E-16,0.,1.));
#726=DIRECTION('',(1.,0.,-3.98370568005197E-16));
#727=DIRECTION('',(0.,-1.,0.));
#728=DIRECTION('',(-1.,0.,3.98370568005197E-16));
#729=DIRECTION('',(3.98370568005197E-16,0.,1.));
#730=DIRECTION('',(1.,0.,-3.98370568005197E-16));
#731=DIRECTION('',(3.98370568005197E-16,0.,1.));
#732=DIRECTION('',(1.,0.,-3.98370568005197E-16));
#733=DIRECTION('',(3.98370568005197E-16,0.,1.));
#734=DIRECTION('',(1.,0.,-3.98370568005197E-16));
#735=DIRECTION('',(3.98370568005197E-16,0.,1.));
#736=DIRECTION('',(1.,0.,-3.98370568005197E-16));
#737=DIRECTION('',(3.98370568005197E-16,0.,1.));
#738=DIRECTION('',(1.,0.,-3.98370568005197E-16));
#739=DIRECTION('',(3.98370568005197E-16,0.,1.));
#740=DIRECTION('',(1.,0.,-3.98370568005197E-16));
#741=DIRECTION('',(1.,0.,5.55111512312578E-16));
#742=DIRECTION('',(5.55111512312578E-16,0.,-1.));
#743=DIRECTION('',(-5.55111512312578E-16,0.,1.));
#744=DIRECTION('',(0.,-1.,0.));
#745=DIRECTION('',(-5.55111512312578E-16,0.,1.));
#746=DIRECTION('',(0.,-1.,0.));
#747=DIRECTION('',(-5.55111512312578E-16,0.,1.));
#748=DIRECTION('',(3.92523114670944E-16,0.707106781186548,-0.707106781186547));
#749=DIRECTION('',(0.,0.,1.));
#750=DIRECTION('',(0.,-1.,0.));
#751=DIRECTION('',(0.,0.,-1.));
#752=DIRECTION('',(0.,1.,0.));
#753=DIRECTION('',(-1.,0.,0.));
#754=DIRECTION('',(0.,1.,0.));
#755=DIRECTION('',(-1.,0.,-1.22464679914735E-16));
#756=DIRECTION('',(2.90512162347792E-16,1.,3.55774789732599E-32));
#757=DIRECTION('',(1.,0.,1.22464679914735E-16));
#758=DIRECTION('',(0.,1.,0.));
#759=DIRECTION('',(-1.,0.,0.));
#760=DIRECTION('',(0.,1.,0.));
#761=DIRECTION('',(1.,0.,0.));
#762=DIRECTION('',(1.,0.,-3.98370568005197E-16));
#763=DIRECTION('',(0.,-1.,0.));
#764=DIRECTION('',(-1.,0.,0.));
#765=DIRECTION('',(-2.81690530061612E-16,-0.707106781186547,-0.707106781186548));
#766=DIRECTION('',(-1.,0.,3.98370568005197E-16));
#767=DIRECTION('',(0.,-1.,0.));
#768=DIRECTION('',(-1.,0.,0.));
#769=DIRECTION('',(0.,-1.,0.));
#770=DIRECTION('',(-1.,0.,0.));
#771=DIRECTION('',(0.,1.,0.));
#772=DIRECTION('',(1.,0.,0.));
#773=DIRECTION('',(0.,-1.,0.));
#774=DIRECTION('',(-1.,0.,0.));
#775=DIRECTION('',(0.,-1.,0.));
#776=DIRECTION('',(-1.,0.,0.));
#777=DIRECTION('',(0.,-1.,0.));
#778=DIRECTION('',(-1.,0.,0.));
#779=DIRECTION('',(0.,-1.,0.));
#780=DIRECTION('',(-1.,0.,0.));
#781=DIRECTION('',(0.,-1.,0.));
#782=DIRECTION('',(-1.,0.,0.));
#783=DIRECTION('',(0.,-1.,0.));
#784=DIRECTION('',(-1.,0.,0.));
#785=DIRECTION('',(0.,1.,0.));
#786=DIRECTION('',(1.,0.,0.));
#787=DIRECTION('',(1.,0.,5.55111512312578E-16));
#788=DIRECTION('',(0.,1.,0.));
#789=DIRECTION('',(1.,0.,0.));
#790=DIRECTION('',(1.,0.,5.55111512312578E-16));
#791=DIRECTION('',(0.,1.,0.));
#792=DIRECTION('',(1.,0.,0.));
#793=DIRECTION('',(-5.55111512312578E-16,0.,1.));
#794=DIRECTION('',(1.,0.,5.55111512312578E-16));
#795=DIRECTION('',(1.,0.,5.55111512312578E-16));
#796=DIRECTION('',(-5.55111512312578E-16,0.,1.));
#797=DIRECTION('',(3.98370568005197E-16,0.,1.));
#798=DIRECTION('',(1.,0.,-3.98370568005197E-16));
#799=DIRECTION('',(3.98370568005197E-16,0.,1.));
#800=DIRECTION('',(1.,0.,-3.98370568005197E-16));
#801=DIRECTION('',(3.98370568005197E-16,0.,1.));
#802=DIRECTION('',(1.,0.,-3.98370568005197E-16));
#803=DIRECTION('',(3.98370568005197E-16,0.,1.));
#804=DIRECTION('',(1.,0.,-3.98370568005197E-16));
#805=DIRECTION('',(3.98370568005197E-16,0.,1.));
#806=DIRECTION('',(1.,0.,-3.98370568005197E-16));
#807=DIRECTION('',(3.98370568005197E-16,0.,1.));
#808=DIRECTION('',(1.,0.,-3.98370568005197E-16));
#809=DIRECTION('',(3.98370568005197E-16,0.,1.));
#810=DIRECTION('',(1.,0.,-3.98370568005197E-16));
#811=DIRECTION('',(3.98370568005197E-16,0.,1.));
#812=DIRECTION('',(1.,0.,-3.98370568005197E-16));
#813=DIRECTION('',(3.98370568005197E-16,0.,1.));
#814=DIRECTION('',(1.,0.,-3.98370568005197E-16));
#815=DIRECTION('',(3.98370568005197E-16,0.,1.));
#816=DIRECTION('',(1.,0.,-3.98370568005197E-16));
#817=DIRECTION('',(3.98370568005197E-16,0.,1.));
#818=DIRECTION('',(1.,0.,-3.98370568005197E-16));
#819=DIRECTION('',(3.98370568005197E-16,0.,1.));
#820=DIRECTION('',(1.,0.,-3.98370568005197E-16));
#821=DIRECTION('',(3.98370568005197E-16,0.,1.));
#822=DIRECTION('',(1.,0.,-3.98370568005197E-16));
#823=DIRECTION('',(3.98370568005197E-16,0.,1.));
#824=DIRECTION('',(1.,0.,-3.98370568005197E-16));
#825=DIRECTION('',(3.98370568005197E-16,0.,1.));
#826=DIRECTION('',(1.,0.,-3.98370568005197E-16));
#827=DIRECTION('',(3.98370568005197E-16,0.,1.));
#828=DIRECTION('',(1.,0.,-3.98370568005197E-16));
#829=DIRECTION('',(3.98370568005197E-16,0.,1.));
#830=DIRECTION('',(1.,0.,-3.98370568005197E-16));
#831=DIRECTION('',(0.,0.,-1.));
#832=DIRECTION('',(0.,1.,0.));
#833=DIRECTION('',(0.,0.,1.));
#834=DIRECTION('',(0.,-1.,0.));
#835=DIRECTION('',(0.,0.,-1.));
#836=DIRECTION('',(0.,1.,0.));
#837=DIRECTION('',(0.,0.,1.));
#838=DIRECTION('',(0.,-1.,0.));
#839=DIRECTION('',(0.,0.,1.));
#840=DIRECTION('',(0.,-1.,0.));
#841=DIRECTION('',(0.,0.,1.));
#842=DIRECTION('',(0.,-1.,0.));
#843=DIRECTION('',(5.55111512312578E-16,0.,-1.));
#844=DIRECTION('',(-1.,0.,-5.55111512312578E-16));
#845=DIRECTION('',(6.50521303491303E-16,0.,-1.));
#846=DIRECTION('',(-1.,0.,-6.50521303491303E-16));
#847=DIRECTION('',(-5.55111512312578E-16,0.,1.));
#848=DIRECTION('',(1.,0.,5.55111512312578E-16));
#849=DIRECTION('',(6.50521303491303E-16,0.,-1.));
#850=DIRECTION('',(-1.,0.,-6.50521303491303E-16));
#851=DIRECTION('',(5.55111512312578E-16,0.,-1.));
#852=DIRECTION('',(-1.,0.,-5.55111512312578E-16));
#853=DIRECTION('',(5.55111512312578E-16,0.,-1.));
#854=DIRECTION('',(-1.,0.,-5.55111512312578E-16));
#855=CARTESIAN_POINT('',(0.,0.,0.));
#856=CARTESIAN_POINT('',(0.,0.38,-6.82740590524649E-19));
#857=CARTESIAN_POINT('',(-0.0111459633948798,0.373471570102407,-0.0003));
#858=CARTESIAN_POINT('',(-0.0111673387688971,0.373443446728172,0.000494163787829833));
#859=CARTESIAN_POINT('',(-0.011037761513558,0.373620243848908,0.00206198353618111));
#860=CARTESIAN_POINT('',(-0.0104004048263925,0.374399221521168,0.00421271285522151));
#861=CARTESIAN_POINT('',(-0.00940341254048155,0.375410529316446,0.00611318734246733));
#862=CARTESIAN_POINT('',(-0.00767315013358808,0.376811466003322,0.00829735151985684));
#863=CARTESIAN_POINT('',(-0.00470631095869809,0.37843407451394,0.0104485968971187));
#864=CARTESIAN_POINT('',(-2.43352895129079E-5,0.379279696446899,0.0114967251017204));
#865=CARTESIAN_POINT('',(0.00467187253036675,0.378447036330188,0.0104643729061924));
#866=CARTESIAN_POINT('',(0.00764826901571078,0.376829679018983,0.00832440416799028));
#867=CARTESIAN_POINT('',(0.00940059316442701,0.375413401907453,0.00611809466219977));
#868=CARTESIAN_POINT('',(0.0103916664454646,0.374408690749719,0.004232184160678));
#869=CARTESIAN_POINT('',(0.0110367338892088,0.373621976018639,0.00207516846532852));
#870=CARTESIAN_POINT('',(0.0111673523208121,0.373443428898048,0.000494667284990371));
#871=CARTESIAN_POINT('',(0.0111459633948798,0.373471570102407,-0.000300000000000009));
#872=CARTESIAN_POINT('',(-0.0111459633948798,0.373471570102407,-0.0003));
#873=CARTESIAN_POINT('',(0.0111459633948798,0.373471570102407,-0.000300000000000009));
#874=CARTESIAN_POINT('',(-0.0111459633948798,0.38,-0.0003));
#875=CARTESIAN_POINT('',(-0.0111459633948798,0.356528429897593,-0.0003));
#876=CARTESIAN_POINT('',(0.0111459633948798,0.356528429897593,-0.000300000000000009));
#877=CARTESIAN_POINT('',(0.0111673387688971,0.356556553271828,0.000494163787829825));
#878=CARTESIAN_POINT('',(0.011037761513558,0.356379756151092,0.00206198353618113));
#879=CARTESIAN_POINT('',(0.0104004048263925,0.355600778478833,0.00421271285522149));
#880=CARTESIAN_POINT('',(0.00940341254048154,0.354589470683555,0.00611318734246735));
#881=CARTESIAN_POINT('',(0.00767315013358802,0.353188533996677,0.00829735151985691));
#882=CARTESIAN_POINT('',(0.00470631095869804,0.35156592548606,0.0104485968971187));
#883=CARTESIAN_POINT('',(2.43352895127914E-5,0.350720303553101,0.0114967251017204));
#884=CARTESIAN_POINT('',(-0.00467187253036695,0.351552963669812,0.0104643729061923));
#885=CARTESIAN_POINT('',(-0.0076482690157109,0.353170320981017,0.00832440416799016));
#886=CARTESIAN_POINT('',(-0.00940059316442707,0.354586598092547,0.00611809466219969));
#887=CARTESIAN_POINT('',(-0.0103916664454647,0.355591309250281,0.00423218416067792));
#888=CARTESIAN_POINT('',(-0.0110367338892088,0.356378023981361,0.00207516846532848));
#889=CARTESIAN_POINT('',(-0.0111673523208121,0.356556571101952,0.000494667284990359));
#890=CARTESIAN_POINT('',(-0.0111459633948798,0.356528429897593,-0.0003));
#891=CARTESIAN_POINT('',(0.0111459633948798,0.356528429897593,-0.000300000000000009));
#892=CARTESIAN_POINT('',(0.0111459633948798,0.38,-0.000300000000000009));
#893=CARTESIAN_POINT('',(0.,0.38,-6.82740590524649E-19));
#894=CARTESIAN_POINT('',(0.01115,0.38,-8.67361737988404E-19));
#895=CARTESIAN_POINT('',(0.0108661170617659,0.38,-0.0025));
#896=CARTESIAN_POINT('',(0.0108661170617659,0.38,-0.0025));
#897=CARTESIAN_POINT('',(0.0108661170617657,0.35,-0.0025));
#898=CARTESIAN_POINT('',(0.,0.35,-6.82740590524649E-19));
#899=CARTESIAN_POINT('',(-0.0108661170617661,0.35,-0.0025));
#900=CARTESIAN_POINT('',(-0.0108661170617659,0.38,-0.0025));
#901=CARTESIAN_POINT('',(-0.0108661170617659,0.38,-0.0025));
#902=CARTESIAN_POINT('',(0.,0.38,-6.82740590524649E-19));
#903=CARTESIAN_POINT('',(-0.01115,0.38,-8.67361737988404E-19));
#904=CARTESIAN_POINT('',(0.,0.38,-6.82740590524649E-19));
#905=CARTESIAN_POINT('',(-6.93889390390723E-18,0.38,0.));
#906=CARTESIAN_POINT('',(-0.0122707981429994,0.38,-8.67361737988404E-19));
#907=CARTESIAN_POINT('',(-0.00804159628599882,0.38,0.));
#908=CARTESIAN_POINT('',(0.,0.38,0.));
#909=CARTESIAN_POINT('',(0.00804159628599882,0.38,9.8481151516837E-19));
#910=CARTESIAN_POINT('',(0.0122707981429994,0.38,-8.67361737988404E-19));
#911=CARTESIAN_POINT('',(-0.0122707981429994,0.3927,-8.67361737988404E-19));
#912=CARTESIAN_POINT('',(-0.011,0.38635,-8.67361737988404E-19));
#913=CARTESIAN_POINT('',(-0.011,0.38845,-8.67361737988404E-19));
#914=CARTESIAN_POINT('',(-0.0122707981429994,0.38,-8.67361737988404E-19));
#915=CARTESIAN_POINT('',(-0.015,0.38,-8.67361737988404E-19));
#916=CARTESIAN_POINT('',(-0.015,0.3927,-8.67361737988404E-19));
#917=CARTESIAN_POINT('',(-0.015,0.3927,-8.67361737988404E-19));
#918=CARTESIAN_POINT('',(-0.0122707981429994,0.3927,-8.67361737988404E-19));
#919=CARTESIAN_POINT('',(-0.00804159628599882,0.3927,0.));
#920=CARTESIAN_POINT('',(-0.00804159628599882,0.39085,0.));
#921=CARTESIAN_POINT('',(-0.00804159628599882,0.389,0.));
#922=CARTESIAN_POINT('',(-0.00703659628599882,0.389,0.));
#923=CARTESIAN_POINT('',(-0.00603159628599882,0.389,0.));
#924=CARTESIAN_POINT('',(-0.00603159628599882,0.386014370307326,0.));
#925=CARTESIAN_POINT('',(-0.00603159628599882,0.383028740614652,0.));
#926=CARTESIAN_POINT('',(-0.00703659628599882,0.383028740614652,0.));
#927=CARTESIAN_POINT('',(-0.00804159628599882,0.383028740614652,0.));
#928=CARTESIAN_POINT('',(-0.00804159628599882,0.381514370307326,0.));
#929=CARTESIAN_POINT('',(-0.015,0.3927,3.46944695195361E-18));
#930=CARTESIAN_POINT('',(-0.015,0.3927,-0.0025));
#931=CARTESIAN_POINT('',(-0.015,0.38,-0.0025));
#932=CARTESIAN_POINT('',(-0.015,0.352,-0.0025));
#933=CARTESIAN_POINT('',(-0.015,0.352,3.46944695195361E-18));
#934=CARTESIAN_POINT('',(-0.015,0.352,0.0125));
#935=CARTESIAN_POINT('',(-0.015,0.3927,0.0125));
#936=CARTESIAN_POINT('',(-0.015,0.3907,0.0125));
#937=CARTESIAN_POINT('',(-0.015,0.3907,0.0125));
#938=CARTESIAN_POINT('',(-0.015,0.3927,0.0105));
#939=CARTESIAN_POINT('',(-0.015,0.3927,3.46944695195361E-18));
#940=CARTESIAN_POINT('',(-0.015,0.38,3.46944695195361E-18));
#941=CARTESIAN_POINT('',(-0.0128227263566894,0.3927,0.0125));
#942=CARTESIAN_POINT('',(0.011,0.38635,0.0125));
#943=CARTESIAN_POINT('',(0.0141,0.38635,0.0125));
#944=CARTESIAN_POINT('',(-0.011,0.38635,0.0125));
#945=CARTESIAN_POINT('',(-0.0079,0.38635,0.0125));
#946=CARTESIAN_POINT('',(-0.0128227263566894,0.35,0.0125));
#947=CARTESIAN_POINT('',(0.013,0.35,0.0125));
#948=CARTESIAN_POINT('',(-0.013,0.35,0.0125));
#949=CARTESIAN_POINT('',(0.013,0.352,0.0125));
#950=CARTESIAN_POINT('',(0.015,0.352,0.0125));
#951=CARTESIAN_POINT('',(0.015,0.3927,0.0125));
#952=CARTESIAN_POINT('',(0.015,0.3907,0.0125));
#953=CARTESIAN_POINT('',(-0.0128227263566894,0.3907,0.0125));
#954=CARTESIAN_POINT('',(-0.013,0.352,0.0125));
#955=CARTESIAN_POINT('',(5.20417042793042E-18,0.365,0.0125));
#956=CARTESIAN_POINT('',(0.014,0.365,0.0125));
#957=CARTESIAN_POINT('',(0.012,0.377,0.0125));
#958=CARTESIAN_POINT('',(0.0134327849055787,0.377,0.0125));
#959=CARTESIAN_POINT('',(-0.012,0.353,0.0125));
#960=CARTESIAN_POINT('',(-0.0105672150944213,0.353,0.0125));
#961=CARTESIAN_POINT('',(0.012,0.353,0.0125));
#962=CARTESIAN_POINT('',(0.0134327849055787,0.353,0.0125));
#963=CARTESIAN_POINT('',(-0.012,0.377,0.0125));
#964=CARTESIAN_POINT('',(-0.0105672150944213,0.377,0.0125));
#965=CARTESIAN_POINT('',(0.015,0.3927,0.));
#966=CARTESIAN_POINT('',(0.015,0.352,-0.0025));
#967=CARTESIAN_POINT('',(0.015,0.352,-0.0025));
#968=CARTESIAN_POINT('',(0.015,0.38,-0.0025));
#969=CARTESIAN_POINT('',(0.015,0.38,-0.0025));
#970=CARTESIAN_POINT('',(0.015,0.38,0.));
#971=CARTESIAN_POINT('',(0.015,0.38,-8.67361737988404E-19));
#972=CARTESIAN_POINT('',(0.015,0.3927,-8.67361737988404E-19));
#973=CARTESIAN_POINT('',(0.015,0.3927,-8.67361737988404E-19));
#974=CARTESIAN_POINT('',(0.015,0.3927,0.));
#975=CARTESIAN_POINT('',(0.015,0.3927,0.0105));
#976=CARTESIAN_POINT('',(0.015,0.39795,0.00525));
#977=CARTESIAN_POINT('',(0.0122707981429994,0.3927,-8.67361737988404E-19));
#978=CARTESIAN_POINT('',(0.011,0.38635,-8.67361737988404E-19));
#979=CARTESIAN_POINT('',(0.011,0.38845,-8.67361737988404E-19));
#980=CARTESIAN_POINT('',(0.0122707981429994,0.38,-8.67361737988404E-19));
#981=CARTESIAN_POINT('',(0.00804159628599882,0.381514370307326,9.8481151516837E-19));
#982=CARTESIAN_POINT('',(0.00804159628599882,0.383028740614652,9.8481151516837E-19));
#983=CARTESIAN_POINT('',(0.00703659628599882,0.383028740614652,8.61734511854061E-19));
#984=CARTESIAN_POINT('',(0.00603159628599882,0.383028740614652,7.38657508539752E-19));
#985=CARTESIAN_POINT('',(0.00603159628599882,0.386014370307326,7.38657508539752E-19));
#986=CARTESIAN_POINT('',(0.00603159628599882,0.389,7.38657508539752E-19));
#987=CARTESIAN_POINT('',(0.00703659628599882,0.389,8.61734511854061E-19));
#988=CARTESIAN_POINT('',(0.00804159628599882,0.389,9.8481151516837E-19));
#989=CARTESIAN_POINT('',(0.00804159628599882,0.39085,9.8481151516837E-19));
#990=CARTESIAN_POINT('',(0.00804159628599882,0.3927,9.8481151516837E-19));
#991=CARTESIAN_POINT('',(0.0122707981429994,0.3927,-8.67361737988404E-19));
#992=CARTESIAN_POINT('',(-6.93889390390723E-18,0.3927,0.));
#993=CARTESIAN_POINT('',(-2.75600293985267E-18,0.3927,0.0105));
#994=CARTESIAN_POINT('',(0.,0.3927,0.));
#995=CARTESIAN_POINT('',(-0.0128227263566894,0.3907,0.0125));
#996=CARTESIAN_POINT('',(0.,0.386,0.));
#997=CARTESIAN_POINT('',(0.,0.383028740614652,0.));
#998=CARTESIAN_POINT('',(0.00703659628599882,0.383028740614652,8.61734511854061E-19));
#999=CARTESIAN_POINT('',(0.,0.383028740614652,0.));
#1000=CARTESIAN_POINT('',(0.,0.386,0.));
#1001=CARTESIAN_POINT('',(0.,0.389,0.));
#1002=CARTESIAN_POINT('',(0.00703659628599882,0.389,8.61734511854061E-19));
#1003=CARTESIAN_POINT('',(0.,0.389,0.));
#1004=CARTESIAN_POINT('',(0.,0.386,0.));
#1005=CARTESIAN_POINT('',(-6.93889390390723E-18,0.38,-1.7347234759768E-18));
#1006=CARTESIAN_POINT('',(-0.835868496704852,0.38,-0.00250000000000047));
#1007=CARTESIAN_POINT('',(-6.93889390390723E-18,0.38,-1.7347234759768E-18));
#1008=CARTESIAN_POINT('',(-0.835868496704852,0.38,-0.00250000000000047));
#1009=CARTESIAN_POINT('',(-6.93889390390723E-18,0.35,-1.7347234759768E-18));
#1010=CARTESIAN_POINT('',(-0.013,0.35,-8.95117313604032E-18));
#1011=CARTESIAN_POINT('',(-0.013,0.35,-0.0025));
#1012=CARTESIAN_POINT('',(-0.835868496704852,0.35,-0.00250000000000048));
#1013=CARTESIAN_POINT('',(-0.835868496704852,0.35,-0.00250000000000048));
#1014=CARTESIAN_POINT('',(0.013,0.35,-0.0025));
#1015=CARTESIAN_POINT('',(0.013,0.35,0.0125));
#1016=CARTESIAN_POINT('',(-0.012,0.377,0.0075));
#1017=CARTESIAN_POINT('',(-0.012,0.377,0.0075));
#1018=CARTESIAN_POINT('',(-0.0105672150944213,0.377,0.0075));
#1019=CARTESIAN_POINT('',(-1.78289024516827E-17,0.365,0.0075));
#1020=CARTESIAN_POINT('',(0.012,0.353,0.0075));
#1021=CARTESIAN_POINT('',(0.012,0.353,0.0075));
#1022=CARTESIAN_POINT('',(0.0134327849055787,0.353,0.0075));
#1023=CARTESIAN_POINT('',(-1.78289024516827E-17,0.365,0.0075));
#1024=CARTESIAN_POINT('',(-0.012,0.353,0.0075));
#1025=CARTESIAN_POINT('',(-0.012,0.353,0.0075));
#1026=CARTESIAN_POINT('',(-0.0105672150944213,0.353,0.0075));
#1027=CARTESIAN_POINT('',(-1.78289024516827E-17,0.365,0.0075));
#1028=CARTESIAN_POINT('',(0.012,0.377,0.0075));
#1029=CARTESIAN_POINT('',(0.012,0.377,0.0075));
#1030=CARTESIAN_POINT('',(0.0134327849055787,0.377,0.0075));
#1031=CARTESIAN_POINT('',(-1.78289024516827E-17,0.365,0.0075));
#1032=CARTESIAN_POINT('',(-2.09361928821232E-17,0.365,-0.000300000000000005));
#1033=CARTESIAN_POINT('',(1.050271574639E-19,0.365,-0.000300000000000005));
#1034=CARTESIAN_POINT('',(1.050271574639E-19,0.365,-0.000300000000000005));
#1035=CARTESIAN_POINT('',(1.050271574639E-19,0.365,-0.000300000000000005));
#1036=CARTESIAN_POINT('',(-2.09361928821232E-17,0.365,-0.000300000000000005));
#1037=CARTESIAN_POINT('',(0.011,0.38635,0.154211125915251));
#1038=CARTESIAN_POINT('',(0.011,0.38635,0.0115));
#1039=CARTESIAN_POINT('',(0.011,0.38425,0.0115));
#1040=CARTESIAN_POINT('',(-0.011,0.38635,0.154211125915251));
#1041=CARTESIAN_POINT('',(-0.011,0.38635,0.0115));
#1042=CARTESIAN_POINT('',(-0.011,0.38425,0.0115));
#1043=CARTESIAN_POINT('',(0.011,0.38635,0.0115));
#1044=CARTESIAN_POINT('',(-0.011,0.38635,0.0115));
#1045=CARTESIAN_POINT('',(0.013,0.352,5.48172618408671E-18));
#1046=CARTESIAN_POINT('',(0.013,0.352,-0.0025));
#1047=CARTESIAN_POINT('',(-0.013,0.352,4.57966997657877E-18));
#1048=CARTESIAN_POINT('',(-0.013,0.352,-0.0025));
#1049=CARTESIAN_POINT('',(-0.835868496704852,0.38,-0.00250000000000047));
#1050=CARTESIAN_POINT('',(-0.835868496704852,0.38,-0.00250000000000047));
#1051=MECHANICAL_DESIGN_GEOMETRIC_PRESENTATION_REPRESENTATION('',(#597),
#1052);
#1052=(
GEOMETRIC_REPRESENTATION_CONTEXT(3)
GLOBAL_UNCERTAINTY_ASSIGNED_CONTEXT((#1053))
GLOBAL_UNIT_ASSIGNED_CONTEXT((#1056,#1055,#1054))
REPRESENTATION_CONTEXT('Extruder Mount','TOP_LEVEL_ASSEMBLY_PART')
);
#1053=UNCERTAINTY_MEASURE_WITH_UNIT(LENGTH_MEASURE(2.E-5),#1056,
'DISTANCE_ACCURACY_VALUE','Maximum Tolerance applied to model');
#1054=(
NAMED_UNIT(*)
SI_UNIT($,.STERADIAN.)
SOLID_ANGLE_UNIT()
);
#1055=(
NAMED_UNIT(*)
PLANE_ANGLE_UNIT()
SI_UNIT($,.RADIAN.)
);
#1056=(
LENGTH_UNIT()
NAMED_UNIT(*)
SI_UNIT($,.METRE.)
);
#1057=PRODUCT_DEFINITION_SHAPE('','',#1058);
#1058=PRODUCT_DEFINITION('','',#1060,#1059);
#1059=PRODUCT_DEFINITION_CONTEXT('',#1066,'design');
#1060=PRODUCT_DEFINITION_FORMATION_WITH_SPECIFIED_SOURCE('','',#1062,
 .NOT_KNOWN.);
#1061=PRODUCT_RELATED_PRODUCT_CATEGORY('','',(#1062));
#1062=PRODUCT('Extruder Mount','Extruder Mount','Extruder Mount',(#1064));
#1063=PRODUCT_CATEGORY('','');
#1064=PRODUCT_CONTEXT('',#1066,'mechanical');
#1065=APPLICATION_PROTOCOL_DEFINITION('international standard',
'ap242_managed_model_based_3d_engineering',2020,#1066);
#1066=APPLICATION_CONTEXT('managed model based 3d engineering');
ENDSEC;
END-ISO-10303-21;
