ISO-10303-21;
HEADER;
/* Generated by software containing ST-Developer
 * from STEP Tools, Inc. (www.steptools.com) 
 */
/* OPTION: using custom renumber hook */

FILE_DESCRIPTION(
/* description */ ('STEP AP242 Edition 2',
'CAx-IF Rec.Pracs.---Representation and Presentation of Product Manufa
cturing Information (PMI)---4.0---2014-10-13',
'CAx-IF Rec.Pracs.---3D Tessellated Geometry---0.4---2014-09-14','2;1',
'CAx-IF Rec.Pracs.---User Defined Attributes---1.5---2016-08-15'),
/* implementation_level */ '2;1');

FILE_NAME(
/* name */ 'NOT-618 - TFL-Rod Mount',
/* time_stamp */ '2026-07-26T08:51:50Z',
/* author */ (''),
/* organization */ (''),
/* preprocessor_version */ 'ST-DEVELOPER v20',
/* originating_system */ 'ONSHAPE BY PTC INC, 1.218',
/* authorisation */ '  ');

FILE_SCHEMA (('AP242_MANAGED_MODEL_BASED_3D_ENGINEERING_MIM_LF { 1 0 10303 442 3 1 4 }'));
ENDSEC;

DATA;
#10=SHAPE_REPRESENTATION_RELATIONSHIP('','',#919,#11);
#11=ADVANCED_BREP_SHAPE_REPRESENTATION('',(#917),#1478);
#12=CONICAL_SURFACE('',#953,0.0045,0.785398163397448);
#13=CONICAL_SURFACE('',#954,0.0045,0.785398163397448);
#14=CONICAL_SURFACE('',#955,0.004,0.785398163397448);
#15=CYLINDRICAL_SURFACE('',#938,0.0025);
#16=CYLINDRICAL_SURFACE('',#947,0.004);
#17=CYLINDRICAL_SURFACE('',#949,0.0025);
#18=CYLINDRICAL_SURFACE('',#951,0.0025);
#19=CYLINDRICAL_SURFACE('',#985,0.0025);
#20=CYLINDRICAL_SURFACE('',#986,0.0025);
#21=CYLINDRICAL_SURFACE('',#987,0.0095);
#22=CIRCLE('',#924,0.00450000000000006);
#23=CIRCLE('',#925,0.00450000000000006);
#24=CIRCLE('',#926,0.0095);
#25=CIRCLE('',#928,0.0025);
#26=CIRCLE('',#929,0.0025);
#27=CIRCLE('',#939,0.0025);
#28=CIRCLE('',#940,0.0025);
#29=CIRCLE('',#943,0.007);
#30=CIRCLE('',#946,0.004);
#31=CIRCLE('',#948,0.004);
#32=CIRCLE('',#950,0.0025);
#33=CIRCLE('',#952,0.0025);
#34=CIRCLE('',#970,0.0025);
#35=CIRCLE('',#972,0.0025);
#36=CIRCLE('',#977,0.0025);
#37=CIRCLE('',#979,0.0025);
#38=CIRCLE('',#988,0.0095);
#39=ORIENTED_EDGE('',*,*,#271,.F.);
#40=ORIENTED_EDGE('',*,*,#272,.T.);
#41=ORIENTED_EDGE('',*,*,#273,.T.);
#42=ORIENTED_EDGE('',*,*,#274,.F.);
#43=ORIENTED_EDGE('',*,*,#275,.F.);
#44=ORIENTED_EDGE('',*,*,#276,.T.);
#45=ORIENTED_EDGE('',*,*,#277,.T.);
#46=ORIENTED_EDGE('',*,*,#278,.F.);
#47=ORIENTED_EDGE('',*,*,#279,.T.);
#48=ORIENTED_EDGE('',*,*,#280,.T.);
#49=ORIENTED_EDGE('',*,*,#281,.F.);
#50=ORIENTED_EDGE('',*,*,#282,.T.);
#51=ORIENTED_EDGE('',*,*,#283,.T.);
#52=ORIENTED_EDGE('',*,*,#284,.T.);
#53=ORIENTED_EDGE('',*,*,#285,.T.);
#54=ORIENTED_EDGE('',*,*,#286,.T.);
#55=ORIENTED_EDGE('',*,*,#287,.T.);
#56=ORIENTED_EDGE('',*,*,#288,.T.);
#57=ORIENTED_EDGE('',*,*,#275,.T.);
#58=ORIENTED_EDGE('',*,*,#289,.T.);
#59=ORIENTED_EDGE('',*,*,#290,.F.);
#60=ORIENTED_EDGE('',*,*,#291,.F.);
#61=ORIENTED_EDGE('',*,*,#272,.F.);
#62=ORIENTED_EDGE('',*,*,#292,.F.);
#63=ORIENTED_EDGE('',*,*,#293,.T.);
#64=ORIENTED_EDGE('',*,*,#294,.F.);
#65=ORIENTED_EDGE('',*,*,#295,.F.);
#66=ORIENTED_EDGE('',*,*,#296,.T.);
#67=ORIENTED_EDGE('',*,*,#297,.T.);
#68=ORIENTED_EDGE('',*,*,#298,.T.);
#69=ORIENTED_EDGE('',*,*,#299,.F.);
#70=ORIENTED_EDGE('',*,*,#300,.F.);
#71=ORIENTED_EDGE('',*,*,#301,.T.);
#72=ORIENTED_EDGE('',*,*,#302,.T.);
#73=ORIENTED_EDGE('',*,*,#303,.T.);
#74=ORIENTED_EDGE('',*,*,#304,.T.);
#75=ORIENTED_EDGE('',*,*,#305,.T.);
#76=ORIENTED_EDGE('',*,*,#306,.F.);
#77=ORIENTED_EDGE('',*,*,#307,.T.);
#78=ORIENTED_EDGE('',*,*,#300,.T.);
#79=ORIENTED_EDGE('',*,*,#283,.F.);
#80=ORIENTED_EDGE('',*,*,#308,.T.);
#81=ORIENTED_EDGE('',*,*,#309,.T.);
#82=ORIENTED_EDGE('',*,*,#306,.T.);
#83=ORIENTED_EDGE('',*,*,#305,.F.);
#84=ORIENTED_EDGE('',*,*,#310,.F.);
#85=ORIENTED_EDGE('',*,*,#284,.F.);
#86=ORIENTED_EDGE('',*,*,#311,.F.);
#87=ORIENTED_EDGE('',*,*,#312,.T.);
#88=ORIENTED_EDGE('',*,*,#313,.T.);
#89=ORIENTED_EDGE('',*,*,#281,.T.);
#90=ORIENTED_EDGE('',*,*,#280,.F.);
#91=ORIENTED_EDGE('',*,*,#314,.F.);
#92=ORIENTED_EDGE('',*,*,#315,.F.);
#93=ORIENTED_EDGE('',*,*,#316,.T.);
#94=ORIENTED_EDGE('',*,*,#317,.T.);
#95=ORIENTED_EDGE('',*,*,#318,.F.);
#96=ORIENTED_EDGE('',*,*,#298,.F.);
#97=ORIENTED_EDGE('',*,*,#319,.T.);
#98=ORIENTED_EDGE('',*,*,#311,.T.);
#99=ORIENTED_EDGE('',*,*,#315,.T.);
#100=ORIENTED_EDGE('',*,*,#320,.T.);
#101=ORIENTED_EDGE('',*,*,#321,.T.);
#102=ORIENTED_EDGE('',*,*,#296,.F.);
#103=ORIENTED_EDGE('',*,*,#322,.T.);
#104=ORIENTED_EDGE('',*,*,#307,.F.);
#105=ORIENTED_EDGE('',*,*,#309,.F.);
#106=ORIENTED_EDGE('',*,*,#323,.F.);
#107=ORIENTED_EDGE('',*,*,#322,.F.);
#108=ORIENTED_EDGE('',*,*,#301,.F.);
#109=ORIENTED_EDGE('',*,*,#282,.F.);
#110=ORIENTED_EDGE('',*,*,#313,.F.);
#111=ORIENTED_EDGE('',*,*,#324,.F.);
#112=ORIENTED_EDGE('',*,*,#320,.F.);
#113=ORIENTED_EDGE('',*,*,#323,.T.);
#114=ORIENTED_EDGE('',*,*,#308,.F.);
#115=ORIENTED_EDGE('',*,*,#312,.F.);
#116=ORIENTED_EDGE('',*,*,#319,.F.);
#117=ORIENTED_EDGE('',*,*,#297,.F.);
#118=ORIENTED_EDGE('',*,*,#321,.F.);
#119=ORIENTED_EDGE('',*,*,#324,.T.);
#120=ORIENTED_EDGE('',*,*,#325,.T.);
#121=ORIENTED_EDGE('',*,*,#326,.F.);
#122=ORIENTED_EDGE('',*,*,#325,.F.);
#123=ORIENTED_EDGE('',*,*,#318,.T.);
#124=ORIENTED_EDGE('',*,*,#327,.T.);
#125=ORIENTED_EDGE('',*,*,#328,.F.);
#126=ORIENTED_EDGE('',*,*,#329,.T.);
#127=ORIENTED_EDGE('',*,*,#302,.F.);
#128=ORIENTED_EDGE('',*,*,#299,.T.);
#129=ORIENTED_EDGE('',*,*,#330,.T.);
#130=ORIENTED_EDGE('',*,*,#331,.T.);
#131=ORIENTED_EDGE('',*,*,#332,.T.);
#132=ORIENTED_EDGE('',*,*,#333,.T.);
#133=ORIENTED_EDGE('',*,*,#334,.T.);
#134=ORIENTED_EDGE('',*,*,#328,.T.);
#135=ORIENTED_EDGE('',*,*,#335,.T.);
#136=ORIENTED_EDGE('',*,*,#336,.T.);
#137=ORIENTED_EDGE('',*,*,#337,.T.);
#138=ORIENTED_EDGE('',*,*,#338,.T.);
#139=ORIENTED_EDGE('',*,*,#326,.T.);
#140=ORIENTED_EDGE('',*,*,#339,.T.);
#141=ORIENTED_EDGE('',*,*,#338,.F.);
#142=ORIENTED_EDGE('',*,*,#340,.T.);
#143=ORIENTED_EDGE('',*,*,#295,.T.);
#144=ORIENTED_EDGE('',*,*,#341,.T.);
#145=ORIENTED_EDGE('',*,*,#294,.T.);
#146=ORIENTED_EDGE('',*,*,#340,.F.);
#147=ORIENTED_EDGE('',*,*,#286,.F.);
#148=ORIENTED_EDGE('',*,*,#341,.F.);
#149=ORIENTED_EDGE('',*,*,#285,.F.);
#150=ORIENTED_EDGE('',*,*,#330,.F.);
#151=ORIENTED_EDGE('',*,*,#339,.F.);
#152=ORIENTED_EDGE('',*,*,#329,.F.);
#153=ORIENTED_EDGE('',*,*,#337,.F.);
#154=ORIENTED_EDGE('',*,*,#342,.F.);
#155=ORIENTED_EDGE('',*,*,#303,.F.);
#156=ORIENTED_EDGE('',*,*,#343,.F.);
#157=ORIENTED_EDGE('',*,*,#304,.F.);
#158=ORIENTED_EDGE('',*,*,#344,.F.);
#159=ORIENTED_EDGE('',*,*,#331,.F.);
#160=ORIENTED_EDGE('',*,*,#310,.T.);
#161=ORIENTED_EDGE('',*,*,#343,.T.);
#162=ORIENTED_EDGE('',*,*,#345,.F.);
#163=ORIENTED_EDGE('',*,*,#344,.T.);
#164=ORIENTED_EDGE('',*,*,#342,.T.);
#165=ORIENTED_EDGE('',*,*,#346,.F.);
#166=ORIENTED_EDGE('',*,*,#345,.T.);
#167=ORIENTED_EDGE('',*,*,#334,.F.);
#168=ORIENTED_EDGE('',*,*,#347,.F.);
#169=ORIENTED_EDGE('',*,*,#279,.F.);
#170=ORIENTED_EDGE('',*,*,#327,.F.);
#171=ORIENTED_EDGE('',*,*,#317,.F.);
#172=ORIENTED_EDGE('',*,*,#348,.F.);
#173=ORIENTED_EDGE('',*,*,#335,.F.);
#174=ORIENTED_EDGE('',*,*,#346,.T.);
#175=ORIENTED_EDGE('',*,*,#336,.F.);
#176=ORIENTED_EDGE('',*,*,#349,.F.);
#177=ORIENTED_EDGE('',*,*,#332,.F.);
#178=ORIENTED_EDGE('',*,*,#314,.T.);
#179=ORIENTED_EDGE('',*,*,#347,.T.);
#180=ORIENTED_EDGE('',*,*,#350,.F.);
#181=ORIENTED_EDGE('',*,*,#349,.T.);
#182=ORIENTED_EDGE('',*,*,#348,.T.);
#183=ORIENTED_EDGE('',*,*,#351,.F.);
#184=ORIENTED_EDGE('',*,*,#350,.T.);
#185=ORIENTED_EDGE('',*,*,#333,.F.);
#186=ORIENTED_EDGE('',*,*,#351,.T.);
#187=ORIENTED_EDGE('',*,*,#316,.F.);
#188=ORIENTED_EDGE('',*,*,#352,.F.);
#189=ORIENTED_EDGE('',*,*,#274,.T.);
#190=ORIENTED_EDGE('',*,*,#353,.F.);
#191=ORIENTED_EDGE('',*,*,#277,.F.);
#192=ORIENTED_EDGE('',*,*,#354,.F.);
#193=ORIENTED_EDGE('',*,*,#355,.T.);
#194=ORIENTED_EDGE('',*,*,#356,.T.);
#195=ORIENTED_EDGE('',*,*,#289,.F.);
#196=ORIENTED_EDGE('',*,*,#357,.F.);
#197=ORIENTED_EDGE('',*,*,#358,.T.);
#198=ORIENTED_EDGE('',*,*,#359,.T.);
#199=ORIENTED_EDGE('',*,*,#291,.T.);
#200=ORIENTED_EDGE('',*,*,#360,.T.);
#201=ORIENTED_EDGE('',*,*,#361,.F.);
#202=ORIENTED_EDGE('',*,*,#362,.T.);
#203=ORIENTED_EDGE('',*,*,#357,.T.);
#204=ORIENTED_EDGE('',*,*,#290,.T.);
#205=ORIENTED_EDGE('',*,*,#356,.F.);
#206=ORIENTED_EDGE('',*,*,#363,.T.);
#207=ORIENTED_EDGE('',*,*,#364,.T.);
#208=ORIENTED_EDGE('',*,*,#359,.F.);
#209=ORIENTED_EDGE('',*,*,#365,.T.);
#210=ORIENTED_EDGE('',*,*,#366,.F.);
#211=ORIENTED_EDGE('',*,*,#367,.T.);
#212=ORIENTED_EDGE('',*,*,#354,.T.);
#213=ORIENTED_EDGE('',*,*,#278,.T.);
#214=ORIENTED_EDGE('',*,*,#353,.T.);
#215=ORIENTED_EDGE('',*,*,#273,.F.);
#216=ORIENTED_EDGE('',*,*,#366,.T.);
#217=ORIENTED_EDGE('',*,*,#368,.T.);
#218=ORIENTED_EDGE('',*,*,#361,.T.);
#219=ORIENTED_EDGE('',*,*,#369,.T.);
#220=ORIENTED_EDGE('',*,*,#370,.F.);
#221=ORIENTED_EDGE('',*,*,#371,.T.);
#222=ORIENTED_EDGE('',*,*,#372,.T.);
#223=ORIENTED_EDGE('',*,*,#292,.T.);
#224=ORIENTED_EDGE('',*,*,#373,.F.);
#225=ORIENTED_EDGE('',*,*,#374,.T.);
#226=ORIENTED_EDGE('',*,*,#375,.T.);
#227=ORIENTED_EDGE('',*,*,#288,.F.);
#228=ORIENTED_EDGE('',*,*,#376,.F.);
#229=ORIENTED_EDGE('',*,*,#377,.T.);
#230=ORIENTED_EDGE('',*,*,#378,.T.);
#231=ORIENTED_EDGE('',*,*,#373,.T.);
#232=ORIENTED_EDGE('',*,*,#287,.F.);
#233=ORIENTED_EDGE('',*,*,#372,.F.);
#234=ORIENTED_EDGE('',*,*,#379,.T.);
#235=ORIENTED_EDGE('',*,*,#380,.T.);
#236=ORIENTED_EDGE('',*,*,#375,.F.);
#237=ORIENTED_EDGE('',*,*,#381,.T.);
#238=ORIENTED_EDGE('',*,*,#382,.F.);
#239=ORIENTED_EDGE('',*,*,#383,.T.);
#240=ORIENTED_EDGE('',*,*,#370,.T.);
#241=ORIENTED_EDGE('',*,*,#271,.T.);
#242=ORIENTED_EDGE('',*,*,#352,.T.);
#243=ORIENTED_EDGE('',*,*,#276,.F.);
#244=ORIENTED_EDGE('',*,*,#382,.T.);
#245=ORIENTED_EDGE('',*,*,#384,.T.);
#246=ORIENTED_EDGE('',*,*,#377,.F.);
#247=ORIENTED_EDGE('',*,*,#385,.T.);
#248=ORIENTED_EDGE('',*,*,#365,.F.);
#249=ORIENTED_EDGE('',*,*,#358,.F.);
#250=ORIENTED_EDGE('',*,*,#362,.F.);
#251=ORIENTED_EDGE('',*,*,#368,.F.);
#252=ORIENTED_EDGE('',*,*,#367,.F.);
#253=ORIENTED_EDGE('',*,*,#369,.F.);
#254=ORIENTED_EDGE('',*,*,#363,.F.);
#255=ORIENTED_EDGE('',*,*,#355,.F.);
#256=ORIENTED_EDGE('',*,*,#378,.F.);
#257=ORIENTED_EDGE('',*,*,#384,.F.);
#258=ORIENTED_EDGE('',*,*,#381,.F.);
#259=ORIENTED_EDGE('',*,*,#374,.F.);
#260=ORIENTED_EDGE('',*,*,#379,.F.);
#261=ORIENTED_EDGE('',*,*,#371,.F.);
#262=ORIENTED_EDGE('',*,*,#383,.F.);
#263=ORIENTED_EDGE('',*,*,#385,.F.);
#264=ORIENTED_EDGE('',*,*,#376,.T.);
#265=ORIENTED_EDGE('',*,*,#380,.F.);
#266=ORIENTED_EDGE('',*,*,#364,.F.);
#267=ORIENTED_EDGE('',*,*,#360,.F.);
#268=ORIENTED_EDGE('',*,*,#293,.F.);
#269=ORIENTED_EDGE('',*,*,#386,.F.);
#270=ORIENTED_EDGE('',*,*,#386,.T.);
#271=EDGE_CURVE('',#387,#388,#466,.T.);
#272=EDGE_CURVE('',#387,#389,#467,.T.);
#273=EDGE_CURVE('',#389,#390,#468,.T.);
#274=EDGE_CURVE('',#388,#390,#469,.T.);
#275=EDGE_CURVE('',#391,#392,#470,.T.);
#276=EDGE_CURVE('',#391,#393,#471,.T.);
#277=EDGE_CURVE('',#393,#394,#472,.T.);
#278=EDGE_CURVE('',#392,#394,#473,.T.);
#279=EDGE_CURVE('',#395,#396,#474,.T.);
#280=EDGE_CURVE('',#396,#397,#475,.T.);
#281=EDGE_CURVE('',#398,#397,#476,.T.);
#282=EDGE_CURVE('',#398,#399,#477,.T.);
#283=EDGE_CURVE('',#399,#400,#478,.T.);
#284=EDGE_CURVE('',#400,#395,#479,.T.);
#285=EDGE_CURVE('',#401,#401,#22,.T.);
#286=EDGE_CURVE('',#402,#402,#23,.T.);
#287=EDGE_CURVE('',#403,#404,#480,.T.);
#288=EDGE_CURVE('',#404,#391,#481,.T.);
#289=EDGE_CURVE('',#392,#405,#482,.T.);
#290=EDGE_CURVE('',#406,#405,#483,.T.);
#291=EDGE_CURVE('',#389,#406,#484,.T.);
#292=EDGE_CURVE('',#403,#387,#485,.T.);
#293=EDGE_CURVE('',#407,#407,#24,.T.);
#294=EDGE_CURVE('',#408,#408,#25,.T.);
#295=EDGE_CURVE('',#409,#409,#26,.T.);
#296=EDGE_CURVE('',#410,#411,#486,.T.);
#297=EDGE_CURVE('',#411,#412,#487,.T.);
#298=EDGE_CURVE('',#412,#413,#488,.T.);
#299=EDGE_CURVE('',#414,#413,#489,.T.);
#300=EDGE_CURVE('',#415,#414,#490,.T.);
#301=EDGE_CURVE('',#415,#410,#491,.F.);
#302=EDGE_CURVE('',#414,#416,#492,.T.);
#303=EDGE_CURVE('',#416,#417,#493,.T.);
#304=EDGE_CURVE('',#417,#418,#494,.T.);
#305=EDGE_CURVE('',#418,#419,#495,.T.);
#306=EDGE_CURVE('',#420,#419,#496,.T.);
#307=EDGE_CURVE('',#420,#415,#497,.T.);
#308=EDGE_CURVE('',#399,#421,#498,.T.);
#309=EDGE_CURVE('',#421,#420,#499,.F.);
#310=EDGE_CURVE('',#395,#418,#500,.T.);
#311=EDGE_CURVE('',#422,#423,#501,.T.);
#312=EDGE_CURVE('',#422,#424,#502,.T.);
#313=EDGE_CURVE('',#424,#398,#503,.T.);
#314=EDGE_CURVE('',#425,#396,#504,.F.);
#315=EDGE_CURVE('',#423,#425,#505,.T.);
#316=EDGE_CURVE('',#425,#426,#506,.T.);
#317=EDGE_CURVE('',#426,#427,#507,.T.);
#318=EDGE_CURVE('',#413,#427,#508,.T.);
#319=EDGE_CURVE('',#412,#422,#509,.T.);
#320=EDGE_CURVE('',#428,#429,#510,.T.);
#321=EDGE_CURVE('',#429,#411,#511,.T.);
#322=EDGE_CURVE('',#410,#428,#512,.T.);
#323=EDGE_CURVE('',#428,#421,#513,.F.);
#324=EDGE_CURVE('',#429,#424,#514,.T.);
#325=EDGE_CURVE('',#430,#430,#27,.T.);
#326=EDGE_CURVE('',#431,#431,#28,.F.);
#327=EDGE_CURVE('',#427,#432,#515,.T.);
#328=EDGE_CURVE('',#433,#432,#516,.T.);
#329=EDGE_CURVE('',#433,#416,#517,.F.);
#330=EDGE_CURVE('',#434,#434,#29,.T.);
#331=EDGE_CURVE('',#435,#436,#518,.T.);
#332=EDGE_CURVE('',#436,#437,#519,.T.);
#333=EDGE_CURVE('',#437,#438,#520,.T.);
#334=EDGE_CURVE('',#438,#435,#521,.T.);
#335=EDGE_CURVE('',#432,#439,#522,.T.);
#336=EDGE_CURVE('',#439,#440,#523,.T.);
#337=EDGE_CURVE('',#440,#433,#524,.T.);
#338=EDGE_CURVE('',#441,#441,#30,.T.);
#339=EDGE_CURVE('',#442,#442,#31,.F.);
#340=EDGE_CURVE('',#443,#443,#32,.F.);
#341=EDGE_CURVE('',#444,#444,#33,.F.);
#342=EDGE_CURVE('',#417,#440,#525,.F.);
#343=EDGE_CURVE('',#418,#435,#526,.T.);
#344=EDGE_CURVE('',#436,#417,#527,.T.);
#345=EDGE_CURVE('',#395,#435,#528,.T.);
#346=EDGE_CURVE('',#436,#440,#529,.F.);
#347=EDGE_CURVE('',#396,#438,#530,.F.);
#348=EDGE_CURVE('',#439,#426,#531,.T.);
#349=EDGE_CURVE('',#437,#439,#532,.T.);
#350=EDGE_CURVE('',#425,#438,#533,.T.);
#351=EDGE_CURVE('',#437,#426,#534,.T.);
#352=EDGE_CURVE('',#388,#393,#535,.T.);
#353=EDGE_CURVE('',#394,#390,#536,.T.);
#354=EDGE_CURVE('',#445,#392,#537,.T.);
#355=EDGE_CURVE('',#445,#446,#538,.T.);
#356=EDGE_CURVE('',#446,#405,#539,.T.);
#357=EDGE_CURVE('',#447,#406,#540,.T.);
#358=EDGE_CURVE('',#447,#448,#541,.T.);
#359=EDGE_CURVE('',#448,#389,#542,.T.);
#360=EDGE_CURVE('',#449,#449,#34,.T.);
#361=EDGE_CURVE('',#450,#451,#543,.T.);
#362=EDGE_CURVE('',#450,#447,#544,.T.);
#363=EDGE_CURVE('',#446,#451,#545,.F.);
#364=EDGE_CURVE('',#452,#452,#35,.T.);
#365=EDGE_CURVE('',#448,#453,#546,.T.);
#366=EDGE_CURVE('',#454,#453,#547,.T.);
#367=EDGE_CURVE('',#454,#445,#548,.F.);
#368=EDGE_CURVE('',#453,#450,#549,.T.);
#369=EDGE_CURVE('',#451,#454,#550,.T.);
#370=EDGE_CURVE('',#455,#387,#551,.T.);
#371=EDGE_CURVE('',#455,#456,#552,.T.);
#372=EDGE_CURVE('',#456,#403,#553,.T.);
#373=EDGE_CURVE('',#457,#404,#554,.T.);
#374=EDGE_CURVE('',#457,#458,#555,.T.);
#375=EDGE_CURVE('',#458,#391,#556,.T.);
#376=EDGE_CURVE('',#459,#459,#36,.T.);
#377=EDGE_CURVE('',#460,#461,#557,.T.);
#378=EDGE_CURVE('',#461,#457,#558,.F.);
#379=EDGE_CURVE('',#456,#460,#559,.T.);
#380=EDGE_CURVE('',#462,#462,#37,.T.);
#381=EDGE_CURVE('',#458,#463,#560,.F.);
#382=EDGE_CURVE('',#464,#463,#561,.T.);
#383=EDGE_CURVE('',#464,#455,#562,.T.);
#384=EDGE_CURVE('',#463,#461,#563,.T.);
#385=EDGE_CURVE('',#460,#464,#564,.T.);
#386=EDGE_CURVE('',#465,#465,#38,.T.);
#387=VERTEX_POINT('',#1232);
#388=VERTEX_POINT('',#1233);
#389=VERTEX_POINT('',#1235);
#390=VERTEX_POINT('',#1237);
#391=VERTEX_POINT('',#1241);
#392=VERTEX_POINT('',#1242);
#393=VERTEX_POINT('',#1244);
#394=VERTEX_POINT('',#1246);
#395=VERTEX_POINT('',#1250);
#396=VERTEX_POINT('',#1251);
#397=VERTEX_POINT('',#1253);
#398=VERTEX_POINT('',#1255);
#399=VERTEX_POINT('',#1257);
#400=VERTEX_POINT('',#1259);
#401=VERTEX_POINT('',#1262);
#402=VERTEX_POINT('',#1264);
#403=VERTEX_POINT('',#1266);
#404=VERTEX_POINT('',#1267);
#405=VERTEX_POINT('',#1270);
#406=VERTEX_POINT('',#1272);
#407=VERTEX_POINT('',#1276);
#408=VERTEX_POINT('',#1279);
#409=VERTEX_POINT('',#1281);
#410=VERTEX_POINT('',#1283);
#411=VERTEX_POINT('',#1284);
#412=VERTEX_POINT('',#1286);
#413=VERTEX_POINT('',#1288);
#414=VERTEX_POINT('',#1290);
#415=VERTEX_POINT('',#1292);
#416=VERTEX_POINT('',#1296);
#417=VERTEX_POINT('',#1298);
#418=VERTEX_POINT('',#1300);
#419=VERTEX_POINT('',#1302);
#420=VERTEX_POINT('',#1304);
#421=VERTEX_POINT('',#1308);
#422=VERTEX_POINT('',#1313);
#423=VERTEX_POINT('',#1314);
#424=VERTEX_POINT('',#1316);
#425=VERTEX_POINT('',#1319);
#426=VERTEX_POINT('',#1323);
#427=VERTEX_POINT('',#1325);
#428=VERTEX_POINT('',#1330);
#429=VERTEX_POINT('',#1331);
#430=VERTEX_POINT('',#1341);
#431=VERTEX_POINT('',#1343);
#432=VERTEX_POINT('',#1346);
#433=VERTEX_POINT('',#1348);
#434=VERTEX_POINT('',#1352);
#435=VERTEX_POINT('',#1354);
#436=VERTEX_POINT('',#1355);
#437=VERTEX_POINT('',#1357);
#438=VERTEX_POINT('',#1359);
#439=VERTEX_POINT('',#1363);
#440=VERTEX_POINT('',#1365);
#441=VERTEX_POINT('',#1369);
#442=VERTEX_POINT('',#1372);
#443=VERTEX_POINT('',#1375);
#444=VERTEX_POINT('',#1378);
#445=VERTEX_POINT('',#1407);
#446=VERTEX_POINT('',#1409);
#447=VERTEX_POINT('',#1413);
#448=VERTEX_POINT('',#1415);
#449=VERTEX_POINT('',#1419);
#450=VERTEX_POINT('',#1421);
#451=VERTEX_POINT('',#1422);
#452=VERTEX_POINT('',#1427);
#453=VERTEX_POINT('',#1429);
#454=VERTEX_POINT('',#1431);
#455=VERTEX_POINT('',#1438);
#456=VERTEX_POINT('',#1440);
#457=VERTEX_POINT('',#1444);
#458=VERTEX_POINT('',#1446);
#459=VERTEX_POINT('',#1450);
#460=VERTEX_POINT('',#1452);
#461=VERTEX_POINT('',#1453);
#462=VERTEX_POINT('',#1458);
#463=VERTEX_POINT('',#1460);
#464=VERTEX_POINT('',#1462);
#465=VERTEX_POINT('',#1475);
#466=LINE('',#1231,#565);
#467=LINE('',#1234,#566);
#468=LINE('',#1236,#567);
#469=LINE('',#1238,#568);
#470=LINE('',#1240,#569);
#471=LINE('',#1243,#570);
#472=LINE('',#1245,#571);
#473=LINE('',#1247,#572);
#474=LINE('',#1249,#573);
#475=LINE('',#1252,#574);
#476=LINE('',#1254,#575);
#477=LINE('',#1256,#576);
#478=LINE('',#1258,#577);
#479=LINE('',#1260,#578);
#480=LINE('',#1265,#579);
#481=LINE('',#1268,#580);
#482=LINE('',#1269,#581);
#483=LINE('',#1271,#582);
#484=LINE('',#1273,#583);
#485=LINE('',#1274,#584);
#486=LINE('',#1282,#585);
#487=LINE('',#1285,#586);
#488=LINE('',#1287,#587);
#489=LINE('',#1289,#588);
#490=LINE('',#1291,#589);
#491=LINE('',#1293,#590);
#492=LINE('',#1295,#591);
#493=LINE('',#1297,#592);
#494=LINE('',#1299,#593);
#495=LINE('',#1301,#594);
#496=LINE('',#1303,#595);
#497=LINE('',#1305,#596);
#498=LINE('',#1307,#597);
#499=LINE('',#1309,#598);
#500=LINE('',#1310,#599);
#501=LINE('',#1312,#600);
#502=LINE('',#1315,#601);
#503=LINE('',#1317,#602);
#504=LINE('',#1318,#603);
#505=LINE('',#1320,#604);
#506=LINE('',#1322,#605);
#507=LINE('',#1324,#606);
#508=LINE('',#1326,#607);
#509=LINE('',#1327,#608);
#510=LINE('',#1329,#609);
#511=LINE('',#1332,#610);
#512=LINE('',#1333,#611);
#513=LINE('',#1335,#612);
#514=LINE('',#1337,#613);
#515=LINE('',#1345,#614);
#516=LINE('',#1347,#615);
#517=LINE('',#1349,#616);
#518=LINE('',#1353,#617);
#519=LINE('',#1356,#618);
#520=LINE('',#1358,#619);
#521=LINE('',#1360,#620);
#522=LINE('',#1362,#621);
#523=LINE('',#1364,#622);
#524=LINE('',#1366,#623);
#525=LINE('',#1383,#624);
#526=LINE('',#1385,#625);
#527=LINE('',#1386,#626);
#528=LINE('',#1388,#627);
#529=LINE('',#1390,#628);
#530=LINE('',#1392,#629);
#531=LINE('',#1394,#630);
#532=LINE('',#1396,#631);
#533=LINE('',#1398,#632);
#534=LINE('',#1400,#633);
#535=LINE('',#1403,#634);
#536=LINE('',#1404,#635);
#537=LINE('',#1406,#636);
#538=LINE('',#1408,#637);
#539=LINE('',#1410,#638);
#540=LINE('',#1412,#639);
#541=LINE('',#1414,#640);
#542=LINE('',#1416,#641);
#543=LINE('',#1420,#642);
#544=LINE('',#1423,#643);
#545=LINE('',#1424,#644);
#546=LINE('',#1428,#645);
#547=LINE('',#1430,#646);
#548=LINE('',#1432,#647);
#549=LINE('',#1434,#648);
#550=LINE('',#1435,#649);
#551=LINE('',#1437,#650);
#552=LINE('',#1439,#651);
#553=LINE('',#1441,#652);
#554=LINE('',#1443,#653);
#555=LINE('',#1445,#654);
#556=LINE('',#1447,#655);
#557=LINE('',#1451,#656);
#558=LINE('',#1454,#657);
#559=LINE('',#1455,#658);
#560=LINE('',#1459,#659);
#561=LINE('',#1461,#660);
#562=LINE('',#1463,#661);
#563=LINE('',#1465,#662);
#564=LINE('',#1466,#663);
#565=VECTOR('',#994,1.);
#566=VECTOR('',#995,1.);
#567=VECTOR('',#996,1.);
#568=VECTOR('',#997,1.);
#569=VECTOR('',#1000,1.);
#570=VECTOR('',#1001,1.);
#571=VECTOR('',#1002,1.);
#572=VECTOR('',#1003,1.);
#573=VECTOR('',#1006,1.);
#574=VECTOR('',#1007,1.);
#575=VECTOR('',#1008,1.);
#576=VECTOR('',#1009,1.);
#577=VECTOR('',#1010,1.);
#578=VECTOR('',#1011,1.);
#579=VECTOR('',#1016,1.);
#580=VECTOR('',#1017,1.);
#581=VECTOR('',#1018,1.);
#582=VECTOR('',#1019,1.);
#583=VECTOR('',#1020,1.);
#584=VECTOR('',#1021,1.);
#585=VECTOR('',#1030,1.);
#586=VECTOR('',#1031,1.);
#587=VECTOR('',#1032,1.);
#588=VECTOR('',#1033,1.);
#589=VECTOR('',#1034,1.);
#590=VECTOR('',#1035,1.);
#591=VECTOR('',#1038,1.);
#592=VECTOR('',#1039,1.);
#593=VECTOR('',#1040,1.);
#594=VECTOR('',#1041,1.);
#595=VECTOR('',#1042,1.);
#596=VECTOR('',#1043,1.);
#597=VECTOR('',#1046,1.);
#598=VECTOR('',#1047,1.);
#599=VECTOR('',#1048,1.);
#600=VECTOR('',#1051,1.);
#601=VECTOR('',#1052,1.);
#602=VECTOR('',#1053,1.);
#603=VECTOR('',#1054,1.);
#604=VECTOR('',#1055,1.);
#605=VECTOR('',#1058,1.);
#606=VECTOR('',#1059,1.);
#607=VECTOR('',#1060,1.);
#608=VECTOR('',#1061,1.);
#609=VECTOR('',#1064,1.);
#610=VECTOR('',#1065,1.);
#611=VECTOR('',#1066,1.);
#612=VECTOR('',#1069,1.);
#613=VECTOR('',#1072,1.);
#614=VECTOR('',#1083,1.);
#615=VECTOR('',#1084,1.);
#616=VECTOR('',#1085,1.);
#617=VECTOR('',#1090,1.);
#618=VECTOR('',#1091,1.);
#619=VECTOR('',#1092,1.);
#620=VECTOR('',#1093,1.);
#621=VECTOR('',#1096,1.);
#622=VECTOR('',#1097,1.);
#623=VECTOR('',#1098,1.);
#624=VECTOR('',#1123,1.);
#625=VECTOR('',#1126,1.);
#626=VECTOR('',#1127,1.);
#627=VECTOR('',#1130,1.);
#628=VECTOR('',#1133,1.);
#629=VECTOR('',#1136,1.);
#630=VECTOR('',#1139,1.);
#631=VECTOR('',#1142,1.);
#632=VECTOR('',#1145,1.);
#633=VECTOR('',#1148,1.);
#634=VECTOR('',#1153,1.);
#635=VECTOR('',#1154,1.);
#636=VECTOR('',#1157,1.);
#637=VECTOR('',#1158,1.);
#638=VECTOR('',#1159,1.);
#639=VECTOR('',#1162,1.);
#640=VECTOR('',#1163,1.);
#641=VECTOR('',#1164,1.);
#642=VECTOR('',#1169,1.);
#643=VECTOR('',#1170,1.);
#644=VECTOR('',#1171,1.);
#645=VECTOR('',#1176,1.);
#646=VECTOR('',#1177,1.);
#647=VECTOR('',#1178,1.);
#648=VECTOR('',#1181,1.);
#649=VECTOR('',#1182,1.);
#650=VECTOR('',#1185,1.);
#651=VECTOR('',#1186,1.);
#652=VECTOR('',#1187,1.);
#653=VECTOR('',#1190,1.);
#654=VECTOR('',#1191,1.);
#655=VECTOR('',#1192,1.);
#656=VECTOR('',#1197,1.);
#657=VECTOR('',#1198,1.);
#658=VECTOR('',#1199,1.);
#659=VECTOR('',#1204,1.);
#660=VECTOR('',#1205,1.);
#661=VECTOR('',#1206,1.);
#662=VECTOR('',#1209,1.);
#663=VECTOR('',#1210,1.);
#664=EDGE_LOOP('',(#39,#40,#41,#42));
#665=EDGE_LOOP('',(#43,#44,#45,#46));
#666=EDGE_LOOP('',(#47,#48,#49,#50,#51,#52));
#667=EDGE_LOOP('',(#53));
#668=EDGE_LOOP('',(#54));
#669=EDGE_LOOP('',(#55,#56,#57,#58,#59,#60,#61,#62));
#670=EDGE_LOOP('',(#63));
#671=EDGE_LOOP('',(#64));
#672=EDGE_LOOP('',(#65));
#673=EDGE_LOOP('',(#66,#67,#68,#69,#70,#71));
#674=EDGE_LOOP('',(#72,#73,#74,#75,#76,#77,#78));
#675=EDGE_LOOP('',(#79,#80,#81,#82,#83,#84,#85));
#676=EDGE_LOOP('',(#86,#87,#88,#89,#90,#91,#92));
#677=EDGE_LOOP('',(#93,#94,#95,#96,#97,#98,#99));
#678=EDGE_LOOP('',(#100,#101,#102,#103));
#679=EDGE_LOOP('',(#104,#105,#106,#107,#108));
#680=EDGE_LOOP('',(#109,#110,#111,#112,#113,#114));
#681=EDGE_LOOP('',(#115,#116,#117,#118,#119));
#682=EDGE_LOOP('',(#120));
#683=EDGE_LOOP('',(#121));
#684=EDGE_LOOP('',(#122));
#685=EDGE_LOOP('',(#123,#124,#125,#126,#127,#128));
#686=EDGE_LOOP('',(#129));
#687=EDGE_LOOP('',(#130,#131,#132,#133));
#688=EDGE_LOOP('',(#134,#135,#136,#137));
#689=EDGE_LOOP('',(#138));
#690=EDGE_LOOP('',(#139));
#691=EDGE_LOOP('',(#140));
#692=EDGE_LOOP('',(#141));
#693=EDGE_LOOP('',(#142));
#694=EDGE_LOOP('',(#143));
#695=EDGE_LOOP('',(#144));
#696=EDGE_LOOP('',(#145));
#697=EDGE_LOOP('',(#146));
#698=EDGE_LOOP('',(#147));
#699=EDGE_LOOP('',(#148));
#700=EDGE_LOOP('',(#149));
#701=EDGE_LOOP('',(#150));
#702=EDGE_LOOP('',(#151));
#703=EDGE_LOOP('',(#152,#153,#154,#155));
#704=EDGE_LOOP('',(#156,#157,#158,#159));
#705=EDGE_LOOP('',(#160,#161,#162));
#706=EDGE_LOOP('',(#163,#164,#165));
#707=EDGE_LOOP('',(#166,#167,#168,#169));
#708=EDGE_LOOP('',(#170,#171,#172,#173));
#709=EDGE_LOOP('',(#174,#175,#176,#177));
#710=EDGE_LOOP('',(#178,#179,#180));
#711=EDGE_LOOP('',(#181,#182,#183));
#712=EDGE_LOOP('',(#184,#185,#186,#187));
#713=EDGE_LOOP('',(#188,#189,#190,#191));
#714=EDGE_LOOP('',(#192,#193,#194,#195));
#715=EDGE_LOOP('',(#196,#197,#198,#199));
#716=EDGE_LOOP('',(#200));
#717=EDGE_LOOP('',(#201,#202,#203,#204,#205,#206));
#718=EDGE_LOOP('',(#207));
#719=EDGE_LOOP('',(#208,#209,#210,#211,#212,#213,#214,#215));
#720=EDGE_LOOP('',(#216,#217,#218,#219));
#721=EDGE_LOOP('',(#220,#221,#222,#223));
#722=EDGE_LOOP('',(#224,#225,#226,#227));
#723=EDGE_LOOP('',(#228));
#724=EDGE_LOOP('',(#229,#230,#231,#232,#233,#234));
#725=EDGE_LOOP('',(#235));
#726=EDGE_LOOP('',(#236,#237,#238,#239,#240,#241,#242,#243));
#727=EDGE_LOOP('',(#244,#245,#246,#247));
#728=EDGE_LOOP('',(#248,#249,#250,#251));
#729=EDGE_LOOP('',(#252,#253,#254,#255));
#730=EDGE_LOOP('',(#256,#257,#258,#259));
#731=EDGE_LOOP('',(#260,#261,#262,#263));
#732=EDGE_LOOP('',(#264));
#733=EDGE_LOOP('',(#265));
#734=EDGE_LOOP('',(#266));
#735=EDGE_LOOP('',(#267));
#736=EDGE_LOOP('',(#268));
#737=EDGE_LOOP('',(#269));
#738=EDGE_LOOP('',(#270));
#739=FACE_BOUND('',#664,.T.);
#740=FACE_BOUND('',#665,.T.);
#741=FACE_BOUND('',#666,.T.);
#742=FACE_BOUND('',#667,.T.);
#743=FACE_BOUND('',#668,.T.);
#744=FACE_BOUND('',#669,.T.);
#745=FACE_BOUND('',#670,.T.);
#746=FACE_BOUND('',#671,.T.);
#747=FACE_BOUND('',#672,.T.);
#748=FACE_BOUND('',#673,.T.);
#749=FACE_BOUND('',#674,.T.);
#750=FACE_BOUND('',#675,.T.);
#751=FACE_BOUND('',#676,.T.);
#752=FACE_BOUND('',#677,.T.);
#753=FACE_BOUND('',#678,.T.);
#754=FACE_BOUND('',#679,.T.);
#755=FACE_BOUND('',#680,.T.);
#756=FACE_BOUND('',#681,.T.);
#757=FACE_BOUND('',#682,.T.);
#758=FACE_BOUND('',#683,.T.);
#759=FACE_BOUND('',#684,.T.);
#760=FACE_BOUND('',#685,.T.);
#761=FACE_BOUND('',#686,.T.);
#762=FACE_BOUND('',#687,.T.);
#763=FACE_BOUND('',#688,.T.);
#764=FACE_BOUND('',#689,.T.);
#765=FACE_BOUND('',#690,.T.);
#766=FACE_BOUND('',#691,.T.);
#767=FACE_BOUND('',#692,.T.);
#768=FACE_BOUND('',#693,.T.);
#769=FACE_BOUND('',#694,.T.);
#770=FACE_BOUND('',#695,.T.);
#771=FACE_BOUND('',#696,.T.);
#772=FACE_BOUND('',#697,.T.);
#773=FACE_BOUND('',#698,.T.);
#774=FACE_BOUND('',#699,.T.);
#775=FACE_BOUND('',#700,.T.);
#776=FACE_BOUND('',#701,.T.);
#777=FACE_BOUND('',#702,.T.);
#778=FACE_BOUND('',#703,.T.);
#779=FACE_BOUND('',#704,.T.);
#780=FACE_BOUND('',#705,.T.);
#781=FACE_BOUND('',#706,.T.);
#782=FACE_BOUND('',#707,.T.);
#783=FACE_BOUND('',#708,.T.);
#784=FACE_BOUND('',#709,.T.);
#785=FACE_BOUND('',#710,.T.);
#786=FACE_BOUND('',#711,.T.);
#787=FACE_BOUND('',#712,.T.);
#788=FACE_BOUND('',#713,.T.);
#789=FACE_BOUND('',#714,.T.);
#790=FACE_BOUND('',#715,.T.);
#791=FACE_BOUND('',#716,.T.);
#792=FACE_BOUND('',#717,.T.);
#793=FACE_BOUND('',#718,.T.);
#794=FACE_BOUND('',#719,.T.);
#795=FACE_BOUND('',#720,.T.);
#796=FACE_BOUND('',#721,.T.);
#797=FACE_BOUND('',#722,.T.);
#798=FACE_BOUND('',#723,.T.);
#799=FACE_BOUND('',#724,.T.);
#800=FACE_BOUND('',#725,.T.);
#801=FACE_BOUND('',#726,.T.);
#802=FACE_BOUND('',#727,.T.);
#803=FACE_BOUND('',#728,.T.);
#804=FACE_BOUND('',#729,.T.);
#805=FACE_BOUND('',#730,.T.);
#806=FACE_BOUND('',#731,.T.);
#807=FACE_BOUND('',#732,.T.);
#808=FACE_BOUND('',#733,.T.);
#809=FACE_BOUND('',#734,.T.);
#810=FACE_BOUND('',#735,.T.);
#811=FACE_BOUND('',#736,.T.);
#812=FACE_BOUND('',#737,.T.);
#813=FACE_BOUND('',#738,.T.);
#814=PLANE('',#921);
#815=PLANE('',#922);
#816=PLANE('',#923);
#817=PLANE('',#927);
#818=PLANE('',#930);
#819=PLANE('',#931);
#820=PLANE('',#932);
#821=PLANE('',#933);
#822=PLANE('',#934);
#823=PLANE('',#935);
#824=PLANE('',#936);
#825=PLANE('',#937);
#826=PLANE('',#941);
#827=PLANE('',#942);
#828=PLANE('',#944);
#829=PLANE('',#945);
#830=PLANE('',#956);
#831=PLANE('',#957);
#832=PLANE('',#958);
#833=PLANE('',#959);
#834=PLANE('',#960);
#835=PLANE('',#961);
#836=PLANE('',#962);
#837=PLANE('',#963);
#838=PLANE('',#964);
#839=PLANE('',#965);
#840=PLANE('',#966);
#841=PLANE('',#967);
#842=PLANE('',#968);
#843=PLANE('',#969);
#844=PLANE('',#971);
#845=PLANE('',#973);
#846=PLANE('',#974);
#847=PLANE('',#975);
#848=PLANE('',#976);
#849=PLANE('',#978);
#850=PLANE('',#980);
#851=PLANE('',#981);
#852=PLANE('',#982);
#853=PLANE('',#983);
#854=PLANE('',#984);
#855=PLANE('',#989);
#856=ADVANCED_FACE('',(#739),#814,.F.);
#857=ADVANCED_FACE('',(#740),#815,.T.);
#858=ADVANCED_FACE('',(#741,#742,#743,#744,#745),#816,.F.);
#859=ADVANCED_FACE('',(#746,#747,#748),#817,.T.);
#860=ADVANCED_FACE('',(#749),#818,.T.);
#861=ADVANCED_FACE('',(#750),#819,.F.);
#862=ADVANCED_FACE('',(#751),#820,.F.);
#863=ADVANCED_FACE('',(#752),#821,.F.);
#864=ADVANCED_FACE('',(#753),#822,.T.);
#865=ADVANCED_FACE('',(#754),#823,.F.);
#866=ADVANCED_FACE('',(#755),#824,.T.);
#867=ADVANCED_FACE('',(#756),#825,.T.);
#868=ADVANCED_FACE('',(#757,#758),#15,.F.);
#869=ADVANCED_FACE('',(#759,#760),#826,.T.);
#870=ADVANCED_FACE('',(#761,#762),#827,.F.);
#871=ADVANCED_FACE('',(#763),#828,.T.);
#872=ADVANCED_FACE('',(#764,#765),#829,.T.);
#873=ADVANCED_FACE('',(#766,#767),#16,.F.);
#874=ADVANCED_FACE('',(#768,#769),#17,.F.);
#875=ADVANCED_FACE('',(#770,#771),#18,.F.);
#876=ADVANCED_FACE('',(#772,#773),#12,.F.);
#877=ADVANCED_FACE('',(#774,#775),#13,.F.);
#878=ADVANCED_FACE('',(#776,#777),#14,.F.);
#879=ADVANCED_FACE('',(#778),#830,.F.);
#880=ADVANCED_FACE('',(#779),#831,.T.);
#881=ADVANCED_FACE('',(#780),#832,.T.);
#882=ADVANCED_FACE('',(#781),#833,.T.);
#883=ADVANCED_FACE('',(#782),#834,.F.);
#884=ADVANCED_FACE('',(#783),#835,.T.);
#885=ADVANCED_FACE('',(#784),#836,.T.);
#886=ADVANCED_FACE('',(#785),#837,.T.);
#887=ADVANCED_FACE('',(#786),#838,.T.);
#888=ADVANCED_FACE('',(#787),#839,.F.);
#889=ADVANCED_FACE('',(#788),#840,.T.);
#890=ADVANCED_FACE('',(#789),#841,.T.);
#891=ADVANCED_FACE('',(#790),#842,.F.);
#892=ADVANCED_FACE('',(#791,#792),#843,.F.);
#893=ADVANCED_FACE('',(#793,#794),#844,.F.);
#894=ADVANCED_FACE('',(#795),#845,.T.);
#895=ADVANCED_FACE('',(#796),#846,.F.);
#896=ADVANCED_FACE('',(#797),#847,.T.);
#897=ADVANCED_FACE('',(#798,#799),#848,.T.);
#898=ADVANCED_FACE('',(#800,#801),#849,.F.);
#899=ADVANCED_FACE('',(#802),#850,.T.);
#900=ADVANCED_FACE('',(#803),#851,.T.);
#901=ADVANCED_FACE('',(#804),#852,.F.);
#902=ADVANCED_FACE('',(#805),#853,.F.);
#903=ADVANCED_FACE('',(#806),#854,.T.);
#904=ADVANCED_FACE('',(#807,#808),#19,.F.);
#905=ADVANCED_FACE('',(#809,#810),#20,.F.);
#906=ADVANCED_FACE('',(#811,#812),#21,.F.);
#907=ADVANCED_FACE('',(#813),#855,.F.);
#908=CLOSED_SHELL('',(#856,#857,#858,#859,#860,#861,#862,#863,#864,#865,
#866,#867,#868,#869,#870,#871,#872,#873,#874,#875,#876,#877,#878,#879,#880,
#881,#882,#883,#884,#885,#886,#887,#888,#889,#890,#891,#892,#893,#894,#895,
#896,#897,#898,#899,#900,#901,#902,#903,#904,#905,#906,#907));
#909=STYLED_ITEM('',(#910),#917);
#910=PRESENTATION_STYLE_ASSIGNMENT((#911));
#911=SURFACE_STYLE_USAGE(.BOTH.,#912);
#912=SURFACE_SIDE_STYLE('',(#913));
#913=SURFACE_STYLE_FILL_AREA(#914);
#914=FILL_AREA_STYLE('',(#915));
#915=FILL_AREA_STYLE_COLOUR('',#916);
#916=COLOUR_RGB('',0.866666666666667,0.32156862745098,0.156862745098039);
#917=MANIFOLD_SOLID_BREP('TFL-Rod Mount',#908);
#918=SHAPE_DEFINITION_REPRESENTATION(#1483,#919);
#919=SHAPE_REPRESENTATION('TFL-Rod Mount',(#920),#1478);
#920=AXIS2_PLACEMENT_3D('',#1229,#990,#991);
#921=AXIS2_PLACEMENT_3D('',#1230,#992,#993);
#922=AXIS2_PLACEMENT_3D('',#1239,#998,#999);
#923=AXIS2_PLACEMENT_3D('',#1248,#1004,#1005);
#924=AXIS2_PLACEMENT_3D('',#1261,#1012,#1013);
#925=AXIS2_PLACEMENT_3D('',#1263,#1014,#1015);
#926=AXIS2_PLACEMENT_3D('',#1275,#1022,#1023);
#927=AXIS2_PLACEMENT_3D('',#1277,#1024,#1025);
#928=AXIS2_PLACEMENT_3D('',#1278,#1026,#1027);
#929=AXIS2_PLACEMENT_3D('',#1280,#1028,#1029);
#930=AXIS2_PLACEMENT_3D('',#1294,#1036,#1037);
#931=AXIS2_PLACEMENT_3D('',#1306,#1044,#1045);
#932=AXIS2_PLACEMENT_3D('',#1311,#1049,#1050);
#933=AXIS2_PLACEMENT_3D('',#1321,#1056,#1057);
#934=AXIS2_PLACEMENT_3D('',#1328,#1062,#1063);
#935=AXIS2_PLACEMENT_3D('',#1334,#1067,#1068);
#936=AXIS2_PLACEMENT_3D('',#1336,#1070,#1071);
#937=AXIS2_PLACEMENT_3D('',#1338,#1073,#1074);
#938=AXIS2_PLACEMENT_3D('',#1339,#1075,#1076);
#939=AXIS2_PLACEMENT_3D('',#1340,#1077,#1078);
#940=AXIS2_PLACEMENT_3D('',#1342,#1079,#1080);
#941=AXIS2_PLACEMENT_3D('',#1344,#1081,#1082);
#942=AXIS2_PLACEMENT_3D('',#1350,#1086,#1087);
#943=AXIS2_PLACEMENT_3D('',#1351,#1088,#1089);
#944=AXIS2_PLACEMENT_3D('',#1361,#1094,#1095);
#945=AXIS2_PLACEMENT_3D('',#1367,#1099,#1100);
#946=AXIS2_PLACEMENT_3D('',#1368,#1101,#1102);
#947=AXIS2_PLACEMENT_3D('',#1370,#1103,#1104);
#948=AXIS2_PLACEMENT_3D('',#1371,#1105,#1106);
#949=AXIS2_PLACEMENT_3D('',#1373,#1107,#1108);
#950=AXIS2_PLACEMENT_3D('',#1374,#1109,#1110);
#951=AXIS2_PLACEMENT_3D('',#1376,#1111,#1112);
#952=AXIS2_PLACEMENT_3D('',#1377,#1113,#1114);
#953=AXIS2_PLACEMENT_3D('',#1379,#1115,#1116);
#954=AXIS2_PLACEMENT_3D('',#1380,#1117,#1118);
#955=AXIS2_PLACEMENT_3D('',#1381,#1119,#1120);
#956=AXIS2_PLACEMENT_3D('',#1382,#1121,#1122);
#957=AXIS2_PLACEMENT_3D('',#1384,#1124,#1125);
#958=AXIS2_PLACEMENT_3D('',#1387,#1128,#1129);
#959=AXIS2_PLACEMENT_3D('',#1389,#1131,#1132);
#960=AXIS2_PLACEMENT_3D('',#1391,#1134,#1135);
#961=AXIS2_PLACEMENT_3D('',#1393,#1137,#1138);
#962=AXIS2_PLACEMENT_3D('',#1395,#1140,#1141);
#963=AXIS2_PLACEMENT_3D('',#1397,#1143,#1144);
#964=AXIS2_PLACEMENT_3D('',#1399,#1146,#1147);
#965=AXIS2_PLACEMENT_3D('',#1401,#1149,#1150);
#966=AXIS2_PLACEMENT_3D('',#1402,#1151,#1152);
#967=AXIS2_PLACEMENT_3D('',#1405,#1155,#1156);
#968=AXIS2_PLACEMENT_3D('',#1411,#1160,#1161);
#969=AXIS2_PLACEMENT_3D('',#1417,#1165,#1166);
#970=AXIS2_PLACEMENT_3D('',#1418,#1167,#1168);
#971=AXIS2_PLACEMENT_3D('',#1425,#1172,#1173);
#972=AXIS2_PLACEMENT_3D('',#1426,#1174,#1175);
#973=AXIS2_PLACEMENT_3D('',#1433,#1179,#1180);
#974=AXIS2_PLACEMENT_3D('',#1436,#1183,#1184);
#975=AXIS2_PLACEMENT_3D('',#1442,#1188,#1189);
#976=AXIS2_PLACEMENT_3D('',#1448,#1193,#1194);
#977=AXIS2_PLACEMENT_3D('',#1449,#1195,#1196);
#978=AXIS2_PLACEMENT_3D('',#1456,#1200,#1201);
#979=AXIS2_PLACEMENT_3D('',#1457,#1202,#1203);
#980=AXIS2_PLACEMENT_3D('',#1464,#1207,#1208);
#981=AXIS2_PLACEMENT_3D('',#1467,#1211,#1212);
#982=AXIS2_PLACEMENT_3D('',#1468,#1213,#1214);
#983=AXIS2_PLACEMENT_3D('',#1469,#1215,#1216);
#984=AXIS2_PLACEMENT_3D('',#1470,#1217,#1218);
#985=AXIS2_PLACEMENT_3D('',#1471,#1219,#1220);
#986=AXIS2_PLACEMENT_3D('',#1472,#1221,#1222);
#987=AXIS2_PLACEMENT_3D('',#1473,#1223,#1224);
#988=AXIS2_PLACEMENT_3D('',#1474,#1225,#1226);
#989=AXIS2_PLACEMENT_3D('',#1476,#1227,#1228);
#990=DIRECTION('',(0.,0.,1.));
#991=DIRECTION('',(1.,0.,0.));
#992=DIRECTION('',(-1.,0.,0.));
#993=DIRECTION('',(0.,1.,0.));
#994=DIRECTION('',(0.,0.,1.));
#995=DIRECTION('',(0.,1.,0.));
#996=DIRECTION('',(0.,0.,1.));
#997=DIRECTION('',(0.,1.,0.));
#998=DIRECTION('',(-1.,0.,0.));
#999=DIRECTION('',(0.,1.,0.));
#1000=DIRECTION('',(0.,1.,0.));
#1001=DIRECTION('',(0.,0.,1.));
#1002=DIRECTION('',(0.,1.,0.));
#1003=DIRECTION('',(0.,0.,1.));
#1004=DIRECTION('',(0.,0.,1.));
#1005=DIRECTION('',(0.,-1.,0.));
#1006=DIRECTION('',(0.,-1.,0.));
#1007=DIRECTION('',(-1.,0.,0.));
#1008=DIRECTION('',(1.,0.,0.));
#1009=DIRECTION('',(0.,1.,0.));
#1010=DIRECTION('',(1.,0.,0.));
#1011=DIRECTION('',(1.,0.,0.));
#1012=DIRECTION('',(0.,0.,1.));
#1013=DIRECTION('',(0.,-1.,0.));
#1014=DIRECTION('',(0.,0.,1.));
#1015=DIRECTION('',(0.,-1.,0.));
#1016=DIRECTION('',(1.,0.,0.));
#1017=DIRECTION('',(0.,1.,0.));
#1018=DIRECTION('',(0.,1.,0.));
#1019=DIRECTION('',(1.,0.,0.));
#1020=DIRECTION('',(0.,1.,0.));
#1021=DIRECTION('',(0.,1.,0.));
#1022=DIRECTION('',(0.,0.,1.));
#1023=DIRECTION('',(0.,-1.,0.));
#1024=DIRECTION('',(0.,0.,1.));
#1025=DIRECTION('',(0.,-1.,0.));
#1026=DIRECTION('',(0.,0.,1.));
#1027=DIRECTION('',(0.,-1.,0.));
#1028=DIRECTION('',(0.,0.,1.));
#1029=DIRECTION('',(0.,-1.,0.));
#1030=DIRECTION('',(0.,-1.,0.));
#1031=DIRECTION('',(0.707106781186544,-0.707106781186551,0.));
#1032=DIRECTION('',(1.,0.,0.));
#1033=DIRECTION('',(0.,-1.,0.));
#1034=DIRECTION('',(1.,0.,0.));
#1035=DIRECTION('',(0.707106781186548,0.707106781186548,0.));
#1036=DIRECTION('',(0.,1.,0.));
#1037=DIRECTION('',(1.,0.,0.));
#1038=DIRECTION('',(0.,0.,1.));
#1039=DIRECTION('',(1.,0.,0.));
#1040=DIRECTION('',(0.,0.,-1.));
#1041=DIRECTION('',(-1.,0.,0.));
#1042=DIRECTION('',(1.,0.,0.));
#1043=DIRECTION('',(0.,0.,1.));
#1044=DIRECTION('',(0.,-0.707106781186548,0.707106781186548));
#1045=DIRECTION('',(0.,-0.707106781186548,-0.707106781186548));
#1046=DIRECTION('',(-0.577350269189622,0.577350269189628,0.577350269189628));
#1047=DIRECTION('',(-0.577350269189626,-0.577350269189626,-0.577350269189626));
#1048=DIRECTION('',(0.,0.707106781186548,0.707106781186548));
#1049=DIRECTION('',(0.,0.707106781186548,0.707106781186548));
#1050=DIRECTION('',(0.,-0.707106781186548,0.707106781186548));
#1051=DIRECTION('',(1.,0.,0.));
#1052=DIRECTION('',(-0.577350269189622,0.577350269189628,-0.577350269189628));
#1053=DIRECTION('',(0.577350269189622,0.577350269189628,-0.577350269189628));
#1054=DIRECTION('',(0.,-0.707106781186548,0.707106781186548));
#1055=DIRECTION('',(1.,0.,0.));
#1056=DIRECTION('',(0.,1.,0.));
#1057=DIRECTION('',(1.,0.,0.));
#1058=DIRECTION('',(0.,0.,1.));
#1059=DIRECTION('',(-1.,0.,0.));
#1060=DIRECTION('',(0.,0.,1.));
#1061=DIRECTION('',(0.,0.,-1.));
#1062=DIRECTION('',(-1.,0.,0.));
#1063=DIRECTION('',(0.,0.,1.));
#1064=DIRECTION('',(0.,-1.,0.));
#1065=DIRECTION('',(0.,0.,1.));
#1066=DIRECTION('',(0.,0.,-1.));
#1067=DIRECTION('',(0.707106781186548,-0.707106781186548,0.));
#1068=DIRECTION('',(0.,0.,1.));
#1069=DIRECTION('',(-0.577350269189624,-0.577350269189624,0.577350269189629));
#1070=DIRECTION('',(-0.707106781186551,0.,-0.707106781186544));
#1071=DIRECTION('',(0.,1.,0.));
#1072=DIRECTION('',(0.577350269189622,-0.577350269189628,-0.577350269189628));
#1073=DIRECTION('',(-0.707106781186551,-0.707106781186544,0.));
#1074=DIRECTION('',(0.,0.,-1.));
#1075=DIRECTION('',(-1.,0.,0.));
#1076=DIRECTION('',(0.,1.,0.));
#1077=DIRECTION('',(-1.,0.,0.));
#1078=DIRECTION('',(0.,1.,0.));
#1079=DIRECTION('',(1.,0.,0.));
#1080=DIRECTION('',(0.,-1.,0.));
#1081=DIRECTION('',(-1.,0.,0.));
#1082=DIRECTION('',(0.,1.,0.));
#1083=DIRECTION('',(0.,0.707106781186548,0.707106781186548));
#1084=DIRECTION('',(0.,-1.,0.));
#1085=DIRECTION('',(0.,-0.707106781186548,0.707106781186548));
#1086=DIRECTION('',(-1.,0.,0.));
#1087=DIRECTION('',(0.,1.,0.));
#1088=DIRECTION('',(-1.,0.,0.));
#1089=DIRECTION('',(0.,1.,0.));
#1090=DIRECTION('',(0.,0.,1.));
#1091=DIRECTION('',(0.,-1.,0.));
#1092=DIRECTION('',(0.,0.,-1.));
#1093=DIRECTION('',(0.,1.,0.));
#1094=DIRECTION('',(0.,0.,1.));
#1095=DIRECTION('',(1.,0.,0.));
#1096=DIRECTION('',(1.,0.,0.));
#1097=DIRECTION('',(0.,1.,0.));
#1098=DIRECTION('',(-1.,0.,0.));
#1099=DIRECTION('',(1.,0.,0.));
#1100=DIRECTION('',(0.,0.,-1.));
#1101=DIRECTION('',(1.,0.,0.));
#1102=DIRECTION('',(0.,-1.,0.));
#1103=DIRECTION('',(1.,0.,0.));
#1104=DIRECTION('',(0.,-1.,0.));
#1105=DIRECTION('',(-1.,0.,0.));
#1106=DIRECTION('',(0.,1.,0.));
#1107=DIRECTION('',(0.,0.,-1.));
#1108=DIRECTION('',(0.,1.,0.));
#1109=DIRECTION('',(0.,0.,1.));
#1110=DIRECTION('',(0.,-1.,0.));
#1111=DIRECTION('',(0.,0.,-1.));
#1112=DIRECTION('',(0.,1.,0.));
#1113=DIRECTION('',(0.,0.,1.));
#1114=DIRECTION('',(0.,-1.,0.));
#1115=DIRECTION('',(0.,0.,-1.));
#1116=DIRECTION('',(0.,1.,0.));
#1117=DIRECTION('',(0.,0.,-1.));
#1118=DIRECTION('',(0.,1.,0.));
#1119=DIRECTION('',(1.,0.,0.));
#1120=DIRECTION('',(0.,-1.,0.));
#1121=DIRECTION('',(0.,-0.707106781186548,-0.707106781186548));
#1122=DIRECTION('',(1.,0.,0.));
#1123=DIRECTION('',(0.,0.707106781186548,-0.707106781186548));
#1124=DIRECTION('',(0.707106781186548,0.707106781186548,0.));
#1125=DIRECTION('',(0.,0.,-1.));
#1126=DIRECTION('',(0.707106781186548,-0.707106781186548,0.));
#1127=DIRECTION('',(-0.707106781186548,0.707106781186548,0.));
#1128=DIRECTION('',(0.577350269189626,0.577350269189626,-0.577350269189626));
#1129=DIRECTION('',(0.707106781186548,-0.707106781186548,0.));
#1130=DIRECTION('',(0.707106781186548,0.,0.707106781186548));
#1131=DIRECTION('',(0.577350269189626,0.577350269189626,0.577350269189626));
#1132=DIRECTION('',(0.707106781186548,-0.707106781186548,0.));
#1133=DIRECTION('',(0.707106781186548,0.,-0.707106781186548));
#1134=DIRECTION('',(-0.707106781186548,0.,0.707106781186548));
#1135=DIRECTION('',(0.,-1.,0.));
#1136=DIRECTION('',(-0.707106781186548,0.,-0.707106781186548));
#1137=DIRECTION('',(0.,-0.707106781186548,0.707106781186548));
#1138=DIRECTION('',(-1.,0.,0.));
#1139=DIRECTION('',(0.,-0.707106781186548,-0.707106781186548));
#1140=DIRECTION('',(0.707106781186548,0.,0.707106781186548));
#1141=DIRECTION('',(0.,1.,0.));
#1142=DIRECTION('',(-0.707106781186548,0.,0.707106781186548));
#1143=DIRECTION('',(0.577350269189626,-0.577350269189626,-0.577350269189626));
#1144=DIRECTION('',(-0.707106781186548,-0.707106781186548,0.));
#1145=DIRECTION('',(0.707106781186548,0.707106781186548,0.));
#1146=DIRECTION('',(0.577350269189626,-0.577350269189626,0.577350269189626));
#1147=DIRECTION('',(-0.707106781186548,-0.707106781186548,0.));
#1148=DIRECTION('',(-0.707106781186548,-0.707106781186548,0.));
#1149=DIRECTION('',(-0.707106781186548,0.707106781186548,0.));
#1150=DIRECTION('',(0.,0.,1.));
#1151=DIRECTION('',(0.,0.,-1.));
#1152=DIRECTION('',(-1.,0.,0.));
#1153=DIRECTION('',(1.,0.,0.));
#1154=DIRECTION('',(-1.,0.,0.));
#1155=DIRECTION('',(1.,0.,0.));
#1156=DIRECTION('',(0.,-1.,0.));
#1157=DIRECTION('',(0.,0.,1.));
#1158=DIRECTION('',(0.,1.,0.));
#1159=DIRECTION('',(0.,0.,1.));
#1160=DIRECTION('',(1.,0.,0.));
#1161=DIRECTION('',(0.,-1.,0.));
#1162=DIRECTION('',(0.,0.,1.));
#1163=DIRECTION('',(0.,-1.,0.));
#1164=DIRECTION('',(0.,0.,1.));
#1165=DIRECTION('',(0.,-1.,0.));
#1166=DIRECTION('',(-1.,0.,0.));
#1167=DIRECTION('',(0.,-1.,0.));
#1168=DIRECTION('',(-1.,0.,0.));
#1169=DIRECTION('',(1.,0.,0.));
#1170=DIRECTION('',(-0.707106781186548,0.,0.707106781186548));
#1171=DIRECTION('',(0.707106781186548,0.,0.707106781186548));
#1172=DIRECTION('',(0.,1.,0.));
#1173=DIRECTION('',(1.,0.,0.));
#1174=DIRECTION('',(0.,1.,0.));
#1175=DIRECTION('',(1.,0.,0.));
#1176=DIRECTION('',(0.707106781186548,0.,-0.707106781186548));
#1177=DIRECTION('',(-1.,0.,0.));
#1178=DIRECTION('',(-0.707106781186548,0.,-0.707106781186548));
#1179=DIRECTION('',(0.,0.,-1.));
#1180=DIRECTION('',(-1.,0.,0.));
#1181=DIRECTION('',(0.,1.,0.));
#1182=DIRECTION('',(0.,-1.,0.));
#1183=DIRECTION('',(1.,0.,0.));
#1184=DIRECTION('',(0.,-1.,0.));
#1185=DIRECTION('',(0.,0.,1.));
#1186=DIRECTION('',(0.,-1.,0.));
#1187=DIRECTION('',(0.,0.,1.));
#1188=DIRECTION('',(1.,0.,0.));
#1189=DIRECTION('',(0.,-1.,0.));
#1190=DIRECTION('',(0.,0.,1.));
#1191=DIRECTION('',(0.,1.,0.));
#1192=DIRECTION('',(0.,0.,1.));
#1193=DIRECTION('',(0.,-1.,0.));
#1194=DIRECTION('',(-1.,0.,0.));
#1195=DIRECTION('',(0.,-1.,0.));
#1196=DIRECTION('',(-1.,0.,0.));
#1197=DIRECTION('',(1.,0.,0.));
#1198=DIRECTION('',(-0.707106781186548,0.,-0.707106781186548));
#1199=DIRECTION('',(0.707106781186548,0.,-0.707106781186548));
#1200=DIRECTION('',(0.,-1.,0.));
#1201=DIRECTION('',(-1.,0.,0.));
#1202=DIRECTION('',(0.,-1.,0.));
#1203=DIRECTION('',(-1.,0.,0.));
#1204=DIRECTION('',(0.707106781186548,0.,0.707106781186548));
#1205=DIRECTION('',(1.,0.,0.));
#1206=DIRECTION('',(-0.707106781186548,0.,0.707106781186548));
#1207=DIRECTION('',(0.,0.,-1.));
#1208=DIRECTION('',(-1.,0.,0.));
#1209=DIRECTION('',(0.,-1.,0.));
#1210=DIRECTION('',(0.,1.,0.));
#1211=DIRECTION('',(-0.707106781186548,0.,-0.707106781186548));
#1212=DIRECTION('',(0.,-1.,0.));
#1213=DIRECTION('',(-0.707106781186548,0.,0.707106781186548));
#1214=DIRECTION('',(0.,1.,0.));
#1215=DIRECTION('',(-0.707106781186548,0.,0.707106781186548));
#1216=DIRECTION('',(0.,1.,0.));
#1217=DIRECTION('',(-0.707106781186548,0.,-0.707106781186548));
#1218=DIRECTION('',(0.,-1.,0.));
#1219=DIRECTION('',(0.,-1.,0.));
#1220=DIRECTION('',(-1.,0.,0.));
#1221=DIRECTION('',(0.,-1.,0.));
#1222=DIRECTION('',(-1.,0.,0.));
#1223=DIRECTION('',(0.,0.,1.));
#1224=DIRECTION('',(0.,-1.,0.));
#1225=DIRECTION('',(0.,0.,-1.));
#1226=DIRECTION('',(0.,1.,0.));
#1227=DIRECTION('',(0.,0.,1.));
#1228=DIRECTION('',(1.,0.,0.));
#1229=CARTESIAN_POINT('',(0.,0.,0.));
#1230=CARTESIAN_POINT('',(-0.154236132310247,0.380006029657602,0.1831));
#1231=CARTESIAN_POINT('',(-0.154236132310247,0.375506029657602,0.1681));
#1232=CARTESIAN_POINT('',(-0.154236132310247,0.375506029657602,0.1815));
#1233=CARTESIAN_POINT('',(-0.154236132310247,0.375506029657602,0.1831));
#1234=CARTESIAN_POINT('',(-0.154236132310247,0.380006029657602,0.1815));
#1235=CARTESIAN_POINT('',(-0.154236132310247,0.384506029657602,0.1815));
#1236=CARTESIAN_POINT('',(-0.154236132310247,0.384506029657602,0.1681));
#1237=CARTESIAN_POINT('',(-0.154236132310247,0.384506029657602,0.1831));
#1238=CARTESIAN_POINT('',(-0.154236132310247,0.380006029657602,0.1831));
#1239=CARTESIAN_POINT('',(-0.137236132310247,0.380006029657602,0.1831));
#1240=CARTESIAN_POINT('',(-0.137236132310247,0.380006029657602,0.1815));
#1241=CARTESIAN_POINT('',(-0.137236132310247,0.375506029657602,0.1815));
#1242=CARTESIAN_POINT('',(-0.137236132310247,0.384506029657602,0.1815));
#1243=CARTESIAN_POINT('',(-0.137236132310247,0.375506029657602,0.1681));
#1244=CARTESIAN_POINT('',(-0.137236132310247,0.375506029657602,0.1831));
#1245=CARTESIAN_POINT('',(-0.137236132310247,0.380006029657602,0.1831));
#1246=CARTESIAN_POINT('',(-0.137236132310247,0.384506029657602,0.1831));
#1247=CARTESIAN_POINT('',(-0.137236132310247,0.384506029657602,0.1681));
#1248=CARTESIAN_POINT('',(-0.182736132310247,0.398756029657602,0.1815));
#1249=CARTESIAN_POINT('',(-0.130736132310247,0.398756029657602,0.1815));
#1250=CARTESIAN_POINT('',(-0.130736132310247,0.436756029657602,0.1815));
#1251=CARTESIAN_POINT('',(-0.130736132310247,0.360756029657602,0.1815));
#1252=CARTESIAN_POINT('',(-0.182736132310247,0.360756029657602,0.1815));
#1253=CARTESIAN_POINT('',(-0.162736132310247,0.360756029657602,0.1815));
#1254=CARTESIAN_POINT('',(-0.182736132310247,0.360756029657602,0.1815));
#1255=CARTESIAN_POINT('',(-0.179736132310247,0.360756029657602,0.1815));
#1256=CARTESIAN_POINT('',(-0.179736132310247,0.436756029657602,0.1815));
#1257=CARTESIAN_POINT('',(-0.179736132310247,0.436756029657602,0.1815));
#1258=CARTESIAN_POINT('',(-0.182736132310247,0.436756029657602,0.1815));
#1259=CARTESIAN_POINT('',(-0.162736132310247,0.436756029657602,0.1815));
#1260=CARTESIAN_POINT('',(-0.127736132310247,0.436756029657602,0.1815));
#1261=CARTESIAN_POINT('',(-0.172789642517814,0.431552546262741,0.1815));
#1262=CARTESIAN_POINT('',(-0.172789642517814,0.427052546262741,0.1815));
#1263=CARTESIAN_POINT('',(-0.172789642517814,0.386552546262741,0.1815));
#1264=CARTESIAN_POINT('',(-0.172789642517814,0.382052546262741,0.1815));
#1265=CARTESIAN_POINT('',(-0.145736132310247,0.373006029657602,0.1815));
#1266=CARTESIAN_POINT('',(-0.154236132310247,0.373006029657602,0.1815));
#1267=CARTESIAN_POINT('',(-0.137236132310247,0.373006029657602,0.1815));
#1268=CARTESIAN_POINT('',(-0.137236132310247,0.380006029657602,0.1815));
#1269=CARTESIAN_POINT('',(-0.137236132310247,0.380006029657602,0.1815));
#1270=CARTESIAN_POINT('',(-0.137236132310247,0.387006029657602,0.1815));
#1271=CARTESIAN_POINT('',(-0.145736132310247,0.387006029657602,0.1815));
#1272=CARTESIAN_POINT('',(-0.154236132310247,0.387006029657602,0.1815));
#1273=CARTESIAN_POINT('',(-0.154236132310247,0.380006029657602,0.1815));
#1274=CARTESIAN_POINT('',(-0.154236132310247,0.380006029657602,0.1815));
#1275=CARTESIAN_POINT('',(-0.146789642517814,0.400052546262742,0.1815));
#1276=CARTESIAN_POINT('',(-0.146789642517814,0.390552546262741,0.1815));
#1277=CARTESIAN_POINT('',(-0.182736132310247,0.398756029657602,0.188390007992223));
#1278=CARTESIAN_POINT('',(-0.172789642517814,0.431552546262741,0.188390007992223));
#1279=CARTESIAN_POINT('',(-0.172789642517814,0.429052546262741,0.188390007992223));
#1280=CARTESIAN_POINT('',(-0.172789642517814,0.386552546262741,0.188390007992223));
#1281=CARTESIAN_POINT('',(-0.172789642517814,0.384052546262741,0.188390007992223));
#1282=CARTESIAN_POINT('',(-0.182736132310247,0.398756029657602,0.188390007992223));
#1283=CARTESIAN_POINT('',(-0.182736132310247,0.436756029657602,0.188390007992223));
#1284=CARTESIAN_POINT('',(-0.182736132310247,0.360756029657602,0.188390007992223));
#1285=CARTESIAN_POINT('',(-0.201736132310247,0.379756029657602,0.188390007992223));
#1286=CARTESIAN_POINT('',(-0.179736132310247,0.357756029657602,0.188390007992223));
#1287=CARTESIAN_POINT('',(-0.182736132310247,0.357756029657602,0.188390007992223));
#1288=CARTESIAN_POINT('',(-0.162736132310247,0.357756029657602,0.188390007992223));
#1289=CARTESIAN_POINT('',(-0.162736132310247,0.398756029657602,0.188390007992223));
#1290=CARTESIAN_POINT('',(-0.162736132310247,0.439756029657602,0.188390007992223));
#1291=CARTESIAN_POINT('',(-0.182736132310247,0.439756029657602,0.188390007992223));
#1292=CARTESIAN_POINT('',(-0.179736132310247,0.439756029657602,0.188390007992223));
#1293=CARTESIAN_POINT('',(-0.201736132310247,0.417756029657602,0.188390007992223));
#1294=CARTESIAN_POINT('',(-0.182736132310247,0.439756029657602,0.1815));
#1295=CARTESIAN_POINT('',(-0.162736132310247,0.439756029657602,0.1815));
#1296=CARTESIAN_POINT('',(-0.162736132310247,0.439756029657602,0.2055));
#1297=CARTESIAN_POINT('',(-0.182736132310247,0.439756029657602,0.2055));
#1298=CARTESIAN_POINT('',(-0.130736132310247,0.439756029657602,0.2055));
#1299=CARTESIAN_POINT('',(-0.130736132310247,0.439756029657602,0.1815));
#1300=CARTESIAN_POINT('',(-0.130736132310247,0.439756029657602,0.1845));
#1301=CARTESIAN_POINT('',(-0.162736132310247,0.439756029657602,0.1845));
#1302=CARTESIAN_POINT('',(-0.162736132310247,0.439756029657602,0.1845));
#1303=CARTESIAN_POINT('',(-0.182736132310247,0.439756029657602,0.1845));
#1304=CARTESIAN_POINT('',(-0.179736132310247,0.439756029657602,0.1845));
#1305=CARTESIAN_POINT('',(-0.179736132310247,0.439756029657602,0.1815));
#1306=CARTESIAN_POINT('',(-0.182736132310247,0.438256029657602,0.183));
#1307=CARTESIAN_POINT('',(-0.169027798976914,0.426047696324268,0.170791666666667));
#1308=CARTESIAN_POINT('',(-0.181236132310247,0.438256029657602,0.183));
#1309=CARTESIAN_POINT('',(-0.180736132310247,0.438756029657602,0.1835));
#1310=CARTESIAN_POINT('',(-0.130736132310247,0.439756029657602,0.1845));
#1311=CARTESIAN_POINT('',(-0.182736132310247,0.359256029657602,0.183));
#1312=CARTESIAN_POINT('',(-0.182736132310247,0.357756029657602,0.1845));
#1313=CARTESIAN_POINT('',(-0.179736132310247,0.357756029657602,0.1845));
#1314=CARTESIAN_POINT('',(-0.162736132310247,0.357756029657602,0.1845));
#1315=CARTESIAN_POINT('',(-0.253736369957454,0.431756267304809,0.110499762352793));
#1316=CARTESIAN_POINT('',(-0.181236132310247,0.359256029657602,0.183));
#1317=CARTESIAN_POINT('',(-0.169111132310247,0.371381029657602,0.170875));
#1318=CARTESIAN_POINT('',(-0.130736132310247,0.359256029657602,0.183));
#1319=CARTESIAN_POINT('',(-0.130736132310247,0.357756029657602,0.1845));
#1320=CARTESIAN_POINT('',(-0.182736132310247,0.357756029657602,0.1845));
#1321=CARTESIAN_POINT('',(-0.182736132310247,0.357756029657602,0.1815));
#1322=CARTESIAN_POINT('',(-0.130736132310247,0.357756029657602,0.1815));
#1323=CARTESIAN_POINT('',(-0.130736132310247,0.357756029657602,0.2055));
#1324=CARTESIAN_POINT('',(-0.162736132310247,0.357756029657602,0.2055));
#1325=CARTESIAN_POINT('',(-0.162736132310247,0.357756029657602,0.2055));
#1326=CARTESIAN_POINT('',(-0.162736132310247,0.357756029657602,0.1815));
#1327=CARTESIAN_POINT('',(-0.179736132310247,0.357756029657602,0.1845));
#1328=CARTESIAN_POINT('',(-0.182736132310247,0.398631029657602,-0.03150071294162));
#1329=CARTESIAN_POINT('',(-0.182736132310247,0.360756029657602,0.1845));
#1330=CARTESIAN_POINT('',(-0.182736132310247,0.436756029657602,0.1845));
#1331=CARTESIAN_POINT('',(-0.182736132310247,0.360756029657602,0.1845));
#1332=CARTESIAN_POINT('',(-0.182736132310247,0.360756029657602,0.188390007992223));
#1333=CARTESIAN_POINT('',(-0.182736132310247,0.436756029657602,-0.03150071294162));
#1334=CARTESIAN_POINT('',(-0.179736132310247,0.439756029657602,0.1815));
#1335=CARTESIAN_POINT('',(-0.19544446564358,0.424047696324269,0.197208333333334));
#1336=CARTESIAN_POINT('',(-0.182736132310247,0.398631029657602,0.1845));
#1337=CARTESIAN_POINT('',(-0.11073589466304,0.288755792010395,0.112499762352793));
#1338=CARTESIAN_POINT('',(-0.182736132310247,0.360756029657602,-0.03150071294162));
#1339=CARTESIAN_POINT('',(0.674184032928131,0.382506029657602,0.19838858210906));
#1340=CARTESIAN_POINT('',(-0.162736132310247,0.382506029657602,0.19838858210906));
#1341=CARTESIAN_POINT('',(-0.162736132310247,0.385006029657602,0.19838858210906));
#1342=CARTESIAN_POINT('',(-0.157789642517813,0.382506029657602,0.19838858210906));
#1343=CARTESIAN_POINT('',(-0.157789642517813,0.380006029657602,0.19838858210906));
#1344=CARTESIAN_POINT('',(-0.162736132310247,0.398756029657602,0.1815));
#1345=CARTESIAN_POINT('',(-0.162736132310247,0.366256029657602,0.214));
#1346=CARTESIAN_POINT('',(-0.162736132310247,0.360756029657602,0.2085));
#1347=CARTESIAN_POINT('',(-0.162736132310247,0.398756029657602,0.2085));
#1348=CARTESIAN_POINT('',(-0.162736132310247,0.436756029657602,0.2085));
#1349=CARTESIAN_POINT('',(-0.162736132310247,0.431256029657602,0.214));
#1350=CARTESIAN_POINT('',(-0.127736132310247,0.398756029657602,0.1815));
#1351=CARTESIAN_POINT('',(-0.127736132310247,0.382506029657602,0.19838858210906));
#1352=CARTESIAN_POINT('',(-0.127736132310247,0.389506029657602,0.19838858210906));
#1353=CARTESIAN_POINT('',(-0.127736132310247,0.436756029657602,0.2085));
#1354=CARTESIAN_POINT('',(-0.127736132310247,0.436756029657602,0.1845));
#1355=CARTESIAN_POINT('',(-0.127736132310247,0.436756029657602,0.2055));
#1356=CARTESIAN_POINT('',(-0.127736132310247,0.357756029657602,0.2055));
#1357=CARTESIAN_POINT('',(-0.127736132310247,0.360756029657602,0.2055));
#1358=CARTESIAN_POINT('',(-0.127736132310247,0.360756029657602,0.1815));
#1359=CARTESIAN_POINT('',(-0.127736132310247,0.360756029657602,0.1845));
#1360=CARTESIAN_POINT('',(-0.127736132310247,0.398756029657602,0.1845));
#1361=CARTESIAN_POINT('',(0.040288696047054,0.398756029657602,0.2085));
#1362=CARTESIAN_POINT('',(-0.127736132310247,0.360756029657602,0.2085));
#1363=CARTESIAN_POINT('',(-0.130736132310247,0.360756029657602,0.2085));
#1364=CARTESIAN_POINT('',(-0.130736132310247,0.439756029657602,0.2085));
#1365=CARTESIAN_POINT('',(-0.130736132310247,0.436756029657602,0.2085));
#1366=CARTESIAN_POINT('',(0.040288696047054,0.436756029657602,0.2085));
#1367=CARTESIAN_POINT('',(-0.157789642517813,0.398506029657602,-0.0445557089454698));
#1368=CARTESIAN_POINT('',(-0.157789642517813,0.382506029657602,0.19838858210906));
#1369=CARTESIAN_POINT('',(-0.157789642517813,0.378506029657602,0.19838858210906));
#1370=CARTESIAN_POINT('',(-0.157789642517813,0.382506029657602,0.19838858210906));
#1371=CARTESIAN_POINT('',(-0.130736132310247,0.382506029657602,0.19838858210906));
#1372=CARTESIAN_POINT('',(-0.130736132310247,0.386506029657602,0.19838858210906));
#1373=CARTESIAN_POINT('',(-0.172789642517814,0.386552546262741,0.565856028364463));
#1374=CARTESIAN_POINT('',(-0.172789642517814,0.386552546262741,0.1835));
#1375=CARTESIAN_POINT('',(-0.172789642517814,0.384052546262741,0.1835));
#1376=CARTESIAN_POINT('',(-0.172789642517814,0.431552546262741,0.565856028364463));
#1377=CARTESIAN_POINT('',(-0.172789642517814,0.431552546262741,0.1835));
#1378=CARTESIAN_POINT('',(-0.172789642517814,0.429052546262741,0.1835));
#1379=CARTESIAN_POINT('',(-0.172789642517814,0.386552546262741,0.1815));
#1380=CARTESIAN_POINT('',(-0.172789642517814,0.431552546262741,0.1815));
#1381=CARTESIAN_POINT('',(-0.130736132310247,0.382506029657602,0.19838858210906));
#1382=CARTESIAN_POINT('',(-0.182736132310247,0.439756029657602,0.2055));
#1383=CARTESIAN_POINT('',(-0.130736132310247,0.438256029657602,0.207));
#1384=CARTESIAN_POINT('',(-0.127736132310247,0.436756029657602,0.1815));
#1385=CARTESIAN_POINT('',(-0.130736132310247,0.439756029657602,0.1845));
#1386=CARTESIAN_POINT('',(-0.127736132310247,0.436756029657602,0.2055));
#1387=CARTESIAN_POINT('',(-0.130736132310247,0.439756029657602,0.1845));
#1388=CARTESIAN_POINT('',(-0.129236132310247,0.436756029657602,0.183));
#1389=CARTESIAN_POINT('',(-0.127736132310247,0.436756029657602,0.2055));
#1390=CARTESIAN_POINT('',(-0.127736132310247,0.436756029657602,0.2055));
#1391=CARTESIAN_POINT('',(-0.130736132310247,0.398756029657602,0.1815));
#1392=CARTESIAN_POINT('',(-0.127736132310247,0.360756029657602,0.1845));
#1393=CARTESIAN_POINT('',(0.040288696047054,0.360756029657602,0.2085));
#1394=CARTESIAN_POINT('',(-0.130736132310247,0.357756029657602,0.2055));
#1395=CARTESIAN_POINT('',(-0.127736132310247,0.398756029657602,0.2055));
#1396=CARTESIAN_POINT('',(-0.129236132310247,0.360756029657602,0.207));
#1397=CARTESIAN_POINT('',(-0.127736132310247,0.360756029657602,0.1845));
#1398=CARTESIAN_POINT('',(-0.127736132310247,0.360756029657602,0.1845));
#1399=CARTESIAN_POINT('',(-0.130736132310247,0.357756029657602,0.2055));
#1400=CARTESIAN_POINT('',(-0.130736132310247,0.357756029657602,0.2055));
#1401=CARTESIAN_POINT('',(-0.130736132310247,0.357756029657602,0.1815));
#1402=CARTESIAN_POINT('',(0.0530386960470541,0.398756029657602,0.1831));
#1403=CARTESIAN_POINT('',(-0.145736132310247,0.375506029657602,0.1831));
#1404=CARTESIAN_POINT('',(-0.145736132310247,0.384506029657602,0.1831));
#1405=CARTESIAN_POINT('',(-0.137236132310247,0.380006029657602,0.1681));
#1406=CARTESIAN_POINT('',(-0.137236132310247,0.384506029657602,0.1681));
#1407=CARTESIAN_POINT('',(-0.137236132310247,0.384506029657602,0.1731));
#1408=CARTESIAN_POINT('',(-0.137236132310247,0.380006029657602,0.1731));
#1409=CARTESIAN_POINT('',(-0.137236132310247,0.387006029657602,0.1731));
#1410=CARTESIAN_POINT('',(-0.137236132310247,0.387006029657602,0.1681));
#1411=CARTESIAN_POINT('',(-0.154236132310247,0.380006029657602,0.1681));
#1412=CARTESIAN_POINT('',(-0.154236132310247,0.387006029657602,0.1681));
#1413=CARTESIAN_POINT('',(-0.154236132310247,0.387006029657602,0.1731));
#1414=CARTESIAN_POINT('',(-0.154236132310247,0.384506029657602,0.1731));
#1415=CARTESIAN_POINT('',(-0.154236132310247,0.384506029657602,0.1731));
#1416=CARTESIAN_POINT('',(-0.154236132310247,0.384506029657602,0.1681));
#1417=CARTESIAN_POINT('',(-0.145736132310247,0.387006029657602,0.1681));
#1418=CARTESIAN_POINT('',(-0.145736132310247,0.387006029657602,0.1745));
#1419=CARTESIAN_POINT('',(-0.148236132310247,0.387006029657602,0.1745));
#1420=CARTESIAN_POINT('',(-0.145736132310247,0.387006029657602,0.1681));
#1421=CARTESIAN_POINT('',(-0.149236132310247,0.387006029657602,0.1681));
#1422=CARTESIAN_POINT('',(-0.142236132310247,0.387006029657602,0.1681));
#1423=CARTESIAN_POINT('',(-0.149236132310247,0.387006029657602,0.1681));
#1424=CARTESIAN_POINT('',(-0.137236132310247,0.387006029657602,0.1731));
#1425=CARTESIAN_POINT('',(-0.145736132310247,0.384506029657602,0.1681));
#1426=CARTESIAN_POINT('',(-0.145736132310247,0.384506029657602,0.1745));
#1427=CARTESIAN_POINT('',(-0.143236132310247,0.384506029657602,0.1745));
#1428=CARTESIAN_POINT('',(-0.149236132310247,0.384506029657602,0.1681));
#1429=CARTESIAN_POINT('',(-0.149236132310247,0.384506029657602,0.1681));
#1430=CARTESIAN_POINT('',(-0.145736132310247,0.384506029657602,0.1681));
#1431=CARTESIAN_POINT('',(-0.142236132310247,0.384506029657602,0.1681));
#1432=CARTESIAN_POINT('',(-0.137236132310247,0.384506029657602,0.1731));
#1433=CARTESIAN_POINT('',(0.040288696047054,0.400006029657602,0.1681));
#1434=CARTESIAN_POINT('',(-0.149236132310247,0.387006029657602,0.1681));
#1435=CARTESIAN_POINT('',(-0.142236132310247,0.400006029657602,0.1681));
#1436=CARTESIAN_POINT('',(-0.154236132310247,0.380006029657602,0.1681));
#1437=CARTESIAN_POINT('',(-0.154236132310247,0.375506029657602,0.1681));
#1438=CARTESIAN_POINT('',(-0.154236132310247,0.375506029657602,0.1731));
#1439=CARTESIAN_POINT('',(-0.154236132310247,0.373006029657602,0.1731));
#1440=CARTESIAN_POINT('',(-0.154236132310247,0.373006029657602,0.1731));
#1441=CARTESIAN_POINT('',(-0.154236132310247,0.373006029657602,0.1681));
#1442=CARTESIAN_POINT('',(-0.137236132310247,0.380006029657602,0.1681));
#1443=CARTESIAN_POINT('',(-0.137236132310247,0.373006029657602,0.1681));
#1444=CARTESIAN_POINT('',(-0.137236132310247,0.373006029657602,0.1731));
#1445=CARTESIAN_POINT('',(-0.137236132310247,0.380006029657602,0.1731));
#1446=CARTESIAN_POINT('',(-0.137236132310247,0.375506029657602,0.1731));
#1447=CARTESIAN_POINT('',(-0.137236132310247,0.375506029657602,0.1681));
#1448=CARTESIAN_POINT('',(-0.145736132310247,0.373006029657602,0.1681));
#1449=CARTESIAN_POINT('',(-0.145736132310247,0.373006029657602,0.1745));
#1450=CARTESIAN_POINT('',(-0.148236132310247,0.373006029657602,0.1745));
#1451=CARTESIAN_POINT('',(-0.145736132310247,0.373006029657602,0.1681));
#1452=CARTESIAN_POINT('',(-0.149236132310247,0.373006029657602,0.1681));
#1453=CARTESIAN_POINT('',(-0.142236132310247,0.373006029657602,0.1681));
#1454=CARTESIAN_POINT('',(-0.143986132310247,0.373006029657602,0.16635));
#1455=CARTESIAN_POINT('',(-0.147486132310247,0.373006029657602,0.16635));
#1456=CARTESIAN_POINT('',(-0.145736132310247,0.375506029657602,0.1681));
#1457=CARTESIAN_POINT('',(-0.145736132310247,0.375506029657602,0.1745));
#1458=CARTESIAN_POINT('',(-0.148236132310247,0.375506029657602,0.1745));
#1459=CARTESIAN_POINT('',(-0.137236132310247,0.375506029657602,0.1731));
#1460=CARTESIAN_POINT('',(-0.142236132310247,0.375506029657602,0.1681));
#1461=CARTESIAN_POINT('',(-0.145736132310247,0.375506029657602,0.1681));
#1462=CARTESIAN_POINT('',(-0.149236132310247,0.375506029657602,0.1681));
#1463=CARTESIAN_POINT('',(-0.149236132310247,0.375506029657602,0.1681));
#1464=CARTESIAN_POINT('',(0.040288696047054,0.400006029657602,0.1681));
#1465=CARTESIAN_POINT('',(-0.142236132310247,0.400006029657602,0.1681));
#1466=CARTESIAN_POINT('',(-0.149236132310247,0.375506029657602,0.1681));
#1467=CARTESIAN_POINT('',(-0.149236132310247,0.400006029657602,0.1681));
#1468=CARTESIAN_POINT('',(-0.137236132310247,0.380006029657602,0.1731));
#1469=CARTESIAN_POINT('',(-0.137236132310247,0.380006029657602,0.1731));
#1470=CARTESIAN_POINT('',(-0.149236132310247,0.400006029657602,0.1681));
#1471=CARTESIAN_POINT('',(-0.145736132310247,1.22387452636245,0.1745));
#1472=CARTESIAN_POINT('',(-0.145736132310247,1.22387452636245,0.1745));
#1473=CARTESIAN_POINT('',(-0.146789642517814,0.400052546262742,0.181498));
#1474=CARTESIAN_POINT('',(-0.146789642517814,0.400052546262742,0.2055));
#1475=CARTESIAN_POINT('',(-0.146789642517814,0.409552546262742,0.2055));
#1476=CARTESIAN_POINT('',(0.0375386960470541,0.398756029657602,0.2055));
#1477=MECHANICAL_DESIGN_GEOMETRIC_PRESENTATION_REPRESENTATION('',(#909),
#1478);
#1478=(
GEOMETRIC_REPRESENTATION_CONTEXT(3)
GLOBAL_UNCERTAINTY_ASSIGNED_CONTEXT((#1479))
GLOBAL_UNIT_ASSIGNED_CONTEXT((#1482,#1481,#1480))
REPRESENTATION_CONTEXT('TFL-Rod Mount','TOP_LEVEL_ASSEMBLY_PART')
);
#1479=UNCERTAINTY_MEASURE_WITH_UNIT(LENGTH_MEASURE(1.E-8),#1482,
'DISTANCE_ACCURACY_VALUE','Maximum Tolerance applied to model');
#1480=(
NAMED_UNIT(*)
SI_UNIT($,.STERADIAN.)
SOLID_ANGLE_UNIT()
);
#1481=(
NAMED_UNIT(*)
PLANE_ANGLE_UNIT()
SI_UNIT($,.RADIAN.)
);
#1482=(
LENGTH_UNIT()
NAMED_UNIT(*)
SI_UNIT($,.METRE.)
);
#1483=PRODUCT_DEFINITION_SHAPE('','',#1484);
#1484=PRODUCT_DEFINITION('','',#1486,#1485);
#1485=PRODUCT_DEFINITION_CONTEXT('',#1492,'design');
#1486=PRODUCT_DEFINITION_FORMATION_WITH_SPECIFIED_SOURCE('','',#1488,
 .NOT_KNOWN.);
#1487=PRODUCT_RELATED_PRODUCT_CATEGORY('','',(#1488));
#1488=PRODUCT('TFL-Rod Mount','TFL-Rod Mount','TFL-Rod Mount',(#1490));
#1489=PRODUCT_CATEGORY('','');
#1490=PRODUCT_CONTEXT('',#1492,'mechanical');
#1491=APPLICATION_PROTOCOL_DEFINITION('international standard',
'ap242_managed_model_based_3d_engineering',2020,#1492);
#1492=APPLICATION_CONTEXT('managed model based 3d engineering');
ENDSEC;
END-ISO-10303-21;
