ISO-10303-21;
HEADER;
/* Generated by software containing ST-Developer
 * from STEP Tools, Inc. (www.steptools.com) 
 */
/* OPTION: using custom renumber hook */

FILE_DESCRIPTION(
/* description */ ('STEP AP242 Edition 2',
'CAx-IF Rec.Pracs.---Representation and Presentation of Product Manufa
cturing Information (PMI)---4.0---2014-10-13',
'CAx-IF Rec.Pracs.---3D Tessellated Geometry---0.4---2014-09-14','2;1',
'CAx-IF Rec.Pracs.---User Defined Attributes---1.5---2016-08-15'),
/* implementation_level */ '2;1');

FILE_NAME(
/* name */ 'NOT-618 - Ext Connector (1)',
/* time_stamp */ '2026-07-26T08:51:49Z',
/* author */ (''),
/* organization */ (''),
/* preprocessor_version */ 'ST-DEVELOPER v20',
/* originating_system */ 'ONSHAPE BY PTC INC, 1.218',
/* authorisation */ '  ');

FILE_SCHEMA (('AP242_MANAGED_MODEL_BASED_3D_ENGINEERING_MIM_LF { 1 0 10303 442 3 1 4 }'));
ENDSEC;

DATA;
#10=SHAPE_REPRESENTATION_RELATIONSHIP('','',#818,#11);
#11=ADVANCED_BREP_SHAPE_REPRESENTATION('',(#816),#1321);
#12=CONICAL_SURFACE('',#881,0.00465,0.785398163397455);
#13=CONICAL_SURFACE('',#882,0.00465,0.785398163397455);
#14=CONICAL_SURFACE('',#883,0.00465,0.785398163397455);
#15=CONICAL_SURFACE('',#884,0.00265,0.785398163397442);
#16=CONICAL_SURFACE('',#885,0.00265,0.785398163397442);
#17=CONICAL_SURFACE('',#886,0.00265,0.785398163397442);
#18=CYLINDRICAL_SURFACE('',#869,0.00265);
#19=CYLINDRICAL_SURFACE('',#871,0.00265);
#20=CYLINDRICAL_SURFACE('',#873,0.00265);
#21=CYLINDRICAL_SURFACE('',#875,0.00265);
#22=CYLINDRICAL_SURFACE('',#877,0.00265);
#23=CYLINDRICAL_SURFACE('',#879,0.00265);
#24=CIRCLE('',#826,0.00465);
#25=CIRCLE('',#827,0.00465);
#26=CIRCLE('',#828,0.00465);
#27=CIRCLE('',#830,0.00465);
#28=CIRCLE('',#831,0.00465);
#29=CIRCLE('',#832,0.00465);
#30=CIRCLE('',#835,0.00265);
#31=CIRCLE('',#838,0.00265);
#32=CIRCLE('',#840,0.00265);
#33=CIRCLE('',#841,0.00265);
#34=CIRCLE('',#845,0.00265);
#35=CIRCLE('',#846,0.00265);
#36=CIRCLE('',#847,0.00265);
#37=CIRCLE('',#870,0.00265);
#38=CIRCLE('',#872,0.00265);
#39=CIRCLE('',#874,0.00265);
#40=CIRCLE('',#876,0.00265);
#41=CIRCLE('',#878,0.00265);
#42=CIRCLE('',#880,0.00265);
#43=ORIENTED_EDGE('',*,*,#245,.F.);
#44=ORIENTED_EDGE('',*,*,#246,.F.);
#45=ORIENTED_EDGE('',*,*,#247,.F.);
#46=ORIENTED_EDGE('',*,*,#248,.F.);
#47=ORIENTED_EDGE('',*,*,#249,.T.);
#48=ORIENTED_EDGE('',*,*,#250,.T.);
#49=ORIENTED_EDGE('',*,*,#251,.T.);
#50=ORIENTED_EDGE('',*,*,#252,.T.);
#51=ORIENTED_EDGE('',*,*,#253,.T.);
#52=ORIENTED_EDGE('',*,*,#254,.T.);
#53=ORIENTED_EDGE('',*,*,#255,.F.);
#54=ORIENTED_EDGE('',*,*,#256,.F.);
#55=ORIENTED_EDGE('',*,*,#257,.T.);
#56=ORIENTED_EDGE('',*,*,#258,.T.);
#57=ORIENTED_EDGE('',*,*,#259,.T.);
#58=ORIENTED_EDGE('',*,*,#260,.T.);
#59=ORIENTED_EDGE('',*,*,#261,.F.);
#60=ORIENTED_EDGE('',*,*,#262,.F.);
#61=ORIENTED_EDGE('',*,*,#263,.T.);
#62=ORIENTED_EDGE('',*,*,#264,.T.);
#63=ORIENTED_EDGE('',*,*,#265,.T.);
#64=ORIENTED_EDGE('',*,*,#266,.T.);
#65=ORIENTED_EDGE('',*,*,#267,.T.);
#66=ORIENTED_EDGE('',*,*,#268,.T.);
#67=ORIENTED_EDGE('',*,*,#269,.T.);
#68=ORIENTED_EDGE('',*,*,#270,.T.);
#69=ORIENTED_EDGE('',*,*,#271,.F.);
#70=ORIENTED_EDGE('',*,*,#272,.F.);
#71=ORIENTED_EDGE('',*,*,#273,.T.);
#72=ORIENTED_EDGE('',*,*,#274,.T.);
#73=ORIENTED_EDGE('',*,*,#275,.T.);
#74=ORIENTED_EDGE('',*,*,#276,.T.);
#75=ORIENTED_EDGE('',*,*,#277,.T.);
#76=ORIENTED_EDGE('',*,*,#278,.T.);
#77=ORIENTED_EDGE('',*,*,#279,.T.);
#78=ORIENTED_EDGE('',*,*,#280,.T.);
#79=ORIENTED_EDGE('',*,*,#281,.T.);
#80=ORIENTED_EDGE('',*,*,#282,.T.);
#81=ORIENTED_EDGE('',*,*,#283,.T.);
#82=ORIENTED_EDGE('',*,*,#284,.T.);
#83=ORIENTED_EDGE('',*,*,#285,.T.);
#84=ORIENTED_EDGE('',*,*,#286,.T.);
#85=ORIENTED_EDGE('',*,*,#287,.T.);
#86=ORIENTED_EDGE('',*,*,#288,.T.);
#87=ORIENTED_EDGE('',*,*,#289,.T.);
#88=ORIENTED_EDGE('',*,*,#290,.T.);
#89=ORIENTED_EDGE('',*,*,#261,.T.);
#90=ORIENTED_EDGE('',*,*,#291,.F.);
#91=ORIENTED_EDGE('',*,*,#270,.F.);
#92=ORIENTED_EDGE('',*,*,#292,.T.);
#93=ORIENTED_EDGE('',*,*,#293,.T.);
#94=ORIENTED_EDGE('',*,*,#294,.F.);
#95=ORIENTED_EDGE('',*,*,#271,.T.);
#96=ORIENTED_EDGE('',*,*,#291,.T.);
#97=ORIENTED_EDGE('',*,*,#264,.F.);
#98=ORIENTED_EDGE('',*,*,#295,.F.);
#99=ORIENTED_EDGE('',*,*,#296,.T.);
#100=ORIENTED_EDGE('',*,*,#297,.T.);
#101=ORIENTED_EDGE('',*,*,#298,.F.);
#102=ORIENTED_EDGE('',*,*,#299,.F.);
#103=ORIENTED_EDGE('',*,*,#272,.T.);
#104=ORIENTED_EDGE('',*,*,#294,.T.);
#105=ORIENTED_EDGE('',*,*,#263,.F.);
#106=ORIENTED_EDGE('',*,*,#300,.F.);
#107=ORIENTED_EDGE('',*,*,#301,.T.);
#108=ORIENTED_EDGE('',*,*,#302,.F.);
#109=ORIENTED_EDGE('',*,*,#295,.T.);
#110=ORIENTED_EDGE('',*,*,#262,.T.);
#111=ORIENTED_EDGE('',*,*,#292,.F.);
#112=ORIENTED_EDGE('',*,*,#269,.F.);
#113=ORIENTED_EDGE('',*,*,#299,.T.);
#114=ORIENTED_EDGE('',*,*,#303,.T.);
#115=ORIENTED_EDGE('',*,*,#246,.T.);
#116=ORIENTED_EDGE('',*,*,#304,.T.);
#117=ORIENTED_EDGE('',*,*,#305,.T.);
#118=ORIENTED_EDGE('',*,*,#306,.T.);
#119=ORIENTED_EDGE('',*,*,#255,.T.);
#120=ORIENTED_EDGE('',*,*,#307,.F.);
#121=ORIENTED_EDGE('',*,*,#297,.F.);
#122=ORIENTED_EDGE('',*,*,#302,.T.);
#123=ORIENTED_EDGE('',*,*,#308,.F.);
#124=ORIENTED_EDGE('',*,*,#309,.T.);
#125=ORIENTED_EDGE('',*,*,#256,.T.);
#126=ORIENTED_EDGE('',*,*,#306,.F.);
#127=ORIENTED_EDGE('',*,*,#296,.F.);
#128=ORIENTED_EDGE('',*,*,#298,.T.);
#129=ORIENTED_EDGE('',*,*,#307,.T.);
#130=ORIENTED_EDGE('',*,*,#254,.F.);
#131=ORIENTED_EDGE('',*,*,#310,.F.);
#132=ORIENTED_EDGE('',*,*,#247,.T.);
#133=ORIENTED_EDGE('',*,*,#303,.F.);
#134=ORIENTED_EDGE('',*,*,#311,.F.);
#135=ORIENTED_EDGE('',*,*,#248,.T.);
#136=ORIENTED_EDGE('',*,*,#310,.T.);
#137=ORIENTED_EDGE('',*,*,#253,.F.);
#138=ORIENTED_EDGE('',*,*,#309,.F.);
#139=ORIENTED_EDGE('',*,*,#312,.T.);
#140=ORIENTED_EDGE('',*,*,#313,.F.);
#141=ORIENTED_EDGE('',*,*,#314,.F.);
#142=ORIENTED_EDGE('',*,*,#315,.F.);
#143=ORIENTED_EDGE('',*,*,#312,.F.);
#144=ORIENTED_EDGE('',*,*,#308,.T.);
#145=ORIENTED_EDGE('',*,*,#301,.F.);
#146=ORIENTED_EDGE('',*,*,#316,.F.);
#147=ORIENTED_EDGE('',*,*,#275,.F.);
#148=ORIENTED_EDGE('',*,*,#317,.F.);
#149=ORIENTED_EDGE('',*,*,#287,.F.);
#150=ORIENTED_EDGE('',*,*,#318,.F.);
#151=ORIENTED_EDGE('',*,*,#316,.T.);
#152=ORIENTED_EDGE('',*,*,#319,.F.);
#153=ORIENTED_EDGE('',*,*,#320,.F.);
#154=ORIENTED_EDGE('',*,*,#317,.T.);
#155=ORIENTED_EDGE('',*,*,#321,.F.);
#156=ORIENTED_EDGE('',*,*,#319,.T.);
#157=ORIENTED_EDGE('',*,*,#290,.F.);
#158=ORIENTED_EDGE('',*,*,#322,.F.);
#159=ORIENTED_EDGE('',*,*,#257,.F.);
#160=ORIENTED_EDGE('',*,*,#318,.T.);
#161=ORIENTED_EDGE('',*,*,#260,.F.);
#162=ORIENTED_EDGE('',*,*,#323,.F.);
#163=ORIENTED_EDGE('',*,*,#276,.F.);
#164=ORIENTED_EDGE('',*,*,#324,.F.);
#165=ORIENTED_EDGE('',*,*,#273,.F.);
#166=ORIENTED_EDGE('',*,*,#325,.F.);
#167=ORIENTED_EDGE('',*,*,#282,.F.);
#168=ORIENTED_EDGE('',*,*,#321,.T.);
#169=ORIENTED_EDGE('',*,*,#274,.F.);
#170=ORIENTED_EDGE('',*,*,#326,.F.);
#171=ORIENTED_EDGE('',*,*,#268,.F.);
#172=ORIENTED_EDGE('',*,*,#320,.T.);
#173=ORIENTED_EDGE('',*,*,#267,.F.);
#174=ORIENTED_EDGE('',*,*,#327,.F.);
#175=ORIENTED_EDGE('',*,*,#288,.F.);
#176=ORIENTED_EDGE('',*,*,#328,.F.);
#177=ORIENTED_EDGE('',*,*,#289,.F.);
#178=ORIENTED_EDGE('',*,*,#329,.F.);
#179=ORIENTED_EDGE('',*,*,#249,.F.);
#180=ORIENTED_EDGE('',*,*,#322,.T.);
#181=ORIENTED_EDGE('',*,*,#328,.T.);
#182=ORIENTED_EDGE('',*,*,#330,.F.);
#183=ORIENTED_EDGE('',*,*,#325,.T.);
#184=ORIENTED_EDGE('',*,*,#323,.T.);
#185=ORIENTED_EDGE('',*,*,#331,.F.);
#186=ORIENTED_EDGE('',*,*,#326,.T.);
#187=ORIENTED_EDGE('',*,*,#324,.T.);
#188=ORIENTED_EDGE('',*,*,#332,.F.);
#189=ORIENTED_EDGE('',*,*,#329,.T.);
#190=ORIENTED_EDGE('',*,*,#327,.T.);
#191=ORIENTED_EDGE('',*,*,#333,.F.);
#192=ORIENTED_EDGE('',*,*,#330,.T.);
#193=ORIENTED_EDGE('',*,*,#252,.F.);
#194=ORIENTED_EDGE('',*,*,#334,.F.);
#195=ORIENTED_EDGE('',*,*,#258,.F.);
#196=ORIENTED_EDGE('',*,*,#331,.T.);
#197=ORIENTED_EDGE('',*,*,#259,.F.);
#198=ORIENTED_EDGE('',*,*,#335,.F.);
#199=ORIENTED_EDGE('',*,*,#283,.F.);
#200=ORIENTED_EDGE('',*,*,#332,.T.);
#201=ORIENTED_EDGE('',*,*,#281,.F.);
#202=ORIENTED_EDGE('',*,*,#336,.F.);
#203=ORIENTED_EDGE('',*,*,#265,.F.);
#204=ORIENTED_EDGE('',*,*,#333,.T.);
#205=ORIENTED_EDGE('',*,*,#266,.F.);
#206=ORIENTED_EDGE('',*,*,#337,.F.);
#207=ORIENTED_EDGE('',*,*,#250,.F.);
#208=ORIENTED_EDGE('',*,*,#335,.T.);
#209=ORIENTED_EDGE('',*,*,#334,.T.);
#210=ORIENTED_EDGE('',*,*,#338,.F.);
#211=ORIENTED_EDGE('',*,*,#337,.T.);
#212=ORIENTED_EDGE('',*,*,#336,.T.);
#213=ORIENTED_EDGE('',*,*,#339,.F.);
#214=ORIENTED_EDGE('',*,*,#338,.T.);
#215=ORIENTED_EDGE('',*,*,#251,.F.);
#216=ORIENTED_EDGE('',*,*,#339,.T.);
#217=ORIENTED_EDGE('',*,*,#280,.F.);
#218=ORIENTED_EDGE('',*,*,#340,.T.);
#219=ORIENTED_EDGE('',*,*,#245,.T.);
#220=ORIENTED_EDGE('',*,*,#311,.T.);
#221=ORIENTED_EDGE('',*,*,#315,.T.);
#222=ORIENTED_EDGE('',*,*,#300,.T.);
#223=ORIENTED_EDGE('',*,*,#341,.T.);
#224=ORIENTED_EDGE('',*,*,#314,.T.);
#225=ORIENTED_EDGE('',*,*,#342,.T.);
#226=ORIENTED_EDGE('',*,*,#313,.T.);
#227=ORIENTED_EDGE('',*,*,#343,.T.);
#228=ORIENTED_EDGE('',*,*,#305,.F.);
#229=ORIENTED_EDGE('',*,*,#344,.T.);
#230=ORIENTED_EDGE('',*,*,#304,.F.);
#231=ORIENTED_EDGE('',*,*,#345,.T.);
#232=ORIENTED_EDGE('',*,*,#293,.F.);
#233=ORIENTED_EDGE('',*,*,#341,.F.);
#234=ORIENTED_EDGE('',*,*,#277,.F.);
#235=ORIENTED_EDGE('',*,*,#342,.F.);
#236=ORIENTED_EDGE('',*,*,#278,.F.);
#237=ORIENTED_EDGE('',*,*,#340,.F.);
#238=ORIENTED_EDGE('',*,*,#279,.F.);
#239=ORIENTED_EDGE('',*,*,#284,.F.);
#240=ORIENTED_EDGE('',*,*,#343,.F.);
#241=ORIENTED_EDGE('',*,*,#285,.F.);
#242=ORIENTED_EDGE('',*,*,#344,.F.);
#243=ORIENTED_EDGE('',*,*,#286,.F.);
#244=ORIENTED_EDGE('',*,*,#345,.F.);
#245=EDGE_CURVE('',#346,#347,#411,.T.);
#246=EDGE_CURVE('',#348,#346,#412,.T.);
#247=EDGE_CURVE('',#349,#348,#413,.T.);
#248=EDGE_CURVE('',#347,#349,#414,.T.);
#249=EDGE_CURVE('',#350,#351,#415,.T.);
#250=EDGE_CURVE('',#351,#352,#416,.T.);
#251=EDGE_CURVE('',#352,#353,#417,.T.);
#252=EDGE_CURVE('',#353,#350,#418,.T.);
#253=EDGE_CURVE('',#354,#355,#419,.T.);
#254=EDGE_CURVE('',#355,#356,#420,.T.);
#255=EDGE_CURVE('',#357,#356,#421,.T.);
#256=EDGE_CURVE('',#354,#357,#422,.T.);
#257=EDGE_CURVE('',#358,#359,#423,.T.);
#258=EDGE_CURVE('',#359,#360,#424,.T.);
#259=EDGE_CURVE('',#360,#361,#425,.T.);
#260=EDGE_CURVE('',#361,#358,#426,.T.);
#261=EDGE_CURVE('',#362,#363,#427,.T.);
#262=EDGE_CURVE('',#364,#362,#428,.T.);
#263=EDGE_CURVE('',#364,#365,#429,.T.);
#264=EDGE_CURVE('',#365,#363,#430,.T.);
#265=EDGE_CURVE('',#366,#367,#431,.T.);
#266=EDGE_CURVE('',#367,#368,#432,.T.);
#267=EDGE_CURVE('',#368,#369,#433,.T.);
#268=EDGE_CURVE('',#369,#366,#434,.T.);
#269=EDGE_CURVE('',#370,#371,#435,.T.);
#270=EDGE_CURVE('',#371,#372,#436,.T.);
#271=EDGE_CURVE('',#373,#372,#437,.T.);
#272=EDGE_CURVE('',#370,#373,#438,.T.);
#273=EDGE_CURVE('',#374,#375,#439,.T.);
#274=EDGE_CURVE('',#375,#376,#440,.T.);
#275=EDGE_CURVE('',#376,#377,#441,.T.);
#276=EDGE_CURVE('',#377,#374,#442,.T.);
#277=EDGE_CURVE('',#378,#378,#24,.T.);
#278=EDGE_CURVE('',#379,#379,#25,.T.);
#279=EDGE_CURVE('',#380,#380,#26,.T.);
#280=EDGE_CURVE('',#381,#382,#443,.T.);
#281=EDGE_CURVE('',#382,#383,#444,.T.);
#282=EDGE_CURVE('',#383,#384,#445,.T.);
#283=EDGE_CURVE('',#384,#381,#446,.T.);
#284=EDGE_CURVE('',#385,#385,#27,.F.);
#285=EDGE_CURVE('',#386,#386,#28,.F.);
#286=EDGE_CURVE('',#387,#387,#29,.F.);
#287=EDGE_CURVE('',#388,#389,#447,.T.);
#288=EDGE_CURVE('',#389,#390,#448,.T.);
#289=EDGE_CURVE('',#390,#391,#449,.T.);
#290=EDGE_CURVE('',#391,#388,#450,.T.);
#291=EDGE_CURVE('',#372,#363,#451,.T.);
#292=EDGE_CURVE('',#371,#362,#452,.T.);
#293=EDGE_CURVE('',#392,#392,#30,.T.);
#294=EDGE_CURVE('',#373,#365,#453,.T.);
#295=EDGE_CURVE('',#393,#364,#454,.T.);
#296=EDGE_CURVE('',#393,#394,#455,.T.);
#297=EDGE_CURVE('',#394,#395,#456,.T.);
#298=EDGE_CURVE('',#396,#395,#457,.T.);
#299=EDGE_CURVE('',#370,#396,#458,.T.);
#300=EDGE_CURVE('',#397,#346,#31,.T.);
#301=EDGE_CURVE('',#397,#398,#459,.T.);
#302=EDGE_CURVE('',#393,#398,#460,.T.);
#303=EDGE_CURVE('',#396,#348,#461,.T.);
#304=EDGE_CURVE('',#399,#399,#32,.T.);
#305=EDGE_CURVE('',#400,#400,#33,.T.);
#306=EDGE_CURVE('',#394,#357,#462,.T.);
#307=EDGE_CURVE('',#395,#356,#463,.T.);
#308=EDGE_CURVE('',#401,#398,#464,.T.);
#309=EDGE_CURVE('',#401,#354,#465,.T.);
#310=EDGE_CURVE('',#349,#355,#466,.T.);
#311=EDGE_CURVE('',#347,#402,#34,.T.);
#312=EDGE_CURVE('',#401,#402,#467,.T.);
#313=EDGE_CURVE('',#403,#403,#35,.T.);
#314=EDGE_CURVE('',#404,#404,#36,.T.);
#315=EDGE_CURVE('',#402,#397,#468,.F.);
#316=EDGE_CURVE('',#377,#388,#469,.F.);
#317=EDGE_CURVE('',#389,#376,#470,.F.);
#318=EDGE_CURVE('',#377,#358,#471,.F.);
#319=EDGE_CURVE('',#358,#388,#472,.F.);
#320=EDGE_CURVE('',#389,#369,#473,.T.);
#321=EDGE_CURVE('',#369,#376,#474,.T.);
#322=EDGE_CURVE('',#359,#391,#475,.T.);
#323=EDGE_CURVE('',#374,#361,#476,.T.);
#324=EDGE_CURVE('',#375,#383,#477,.T.);
#325=EDGE_CURVE('',#384,#374,#478,.T.);
#326=EDGE_CURVE('',#366,#375,#479,.F.);
#327=EDGE_CURVE('',#390,#368,#480,.F.);
#328=EDGE_CURVE('',#391,#350,#481,.T.);
#329=EDGE_CURVE('',#351,#390,#482,.T.);
#330=EDGE_CURVE('',#359,#350,#483,.T.);
#331=EDGE_CURVE('',#384,#361,#484,.T.);
#332=EDGE_CURVE('',#366,#383,#485,.F.);
#333=EDGE_CURVE('',#351,#368,#486,.F.);
#334=EDGE_CURVE('',#360,#353,#487,.F.);
#335=EDGE_CURVE('',#381,#360,#488,.F.);
#336=EDGE_CURVE('',#367,#382,#489,.T.);
#337=EDGE_CURVE('',#352,#367,#490,.T.);
#338=EDGE_CURVE('',#381,#353,#491,.T.);
#339=EDGE_CURVE('',#352,#382,#492,.T.);
#340=EDGE_CURVE('',#405,#405,#37,.F.);
#341=EDGE_CURVE('',#406,#406,#38,.F.);
#342=EDGE_CURVE('',#407,#407,#39,.F.);
#343=EDGE_CURVE('',#408,#408,#40,.T.);
#344=EDGE_CURVE('',#409,#409,#41,.T.);
#345=EDGE_CURVE('',#410,#410,#42,.T.);
#346=VERTEX_POINT('',#1108);
#347=VERTEX_POINT('',#1109);
#348=VERTEX_POINT('',#1111);
#349=VERTEX_POINT('',#1113);
#350=VERTEX_POINT('',#1117);
#351=VERTEX_POINT('',#1118);
#352=VERTEX_POINT('',#1120);
#353=VERTEX_POINT('',#1122);
#354=VERTEX_POINT('',#1125);
#355=VERTEX_POINT('',#1126);
#356=VERTEX_POINT('',#1128);
#357=VERTEX_POINT('',#1130);
#358=VERTEX_POINT('',#1134);
#359=VERTEX_POINT('',#1135);
#360=VERTEX_POINT('',#1137);
#361=VERTEX_POINT('',#1139);
#362=VERTEX_POINT('',#1142);
#363=VERTEX_POINT('',#1143);
#364=VERTEX_POINT('',#1145);
#365=VERTEX_POINT('',#1147);
#366=VERTEX_POINT('',#1151);
#367=VERTEX_POINT('',#1152);
#368=VERTEX_POINT('',#1154);
#369=VERTEX_POINT('',#1156);
#370=VERTEX_POINT('',#1159);
#371=VERTEX_POINT('',#1160);
#372=VERTEX_POINT('',#1162);
#373=VERTEX_POINT('',#1164);
#374=VERTEX_POINT('',#1168);
#375=VERTEX_POINT('',#1169);
#376=VERTEX_POINT('',#1171);
#377=VERTEX_POINT('',#1173);
#378=VERTEX_POINT('',#1177);
#379=VERTEX_POINT('',#1179);
#380=VERTEX_POINT('',#1181);
#381=VERTEX_POINT('',#1183);
#382=VERTEX_POINT('',#1184);
#383=VERTEX_POINT('',#1186);
#384=VERTEX_POINT('',#1188);
#385=VERTEX_POINT('',#1192);
#386=VERTEX_POINT('',#1194);
#387=VERTEX_POINT('',#1196);
#388=VERTEX_POINT('',#1198);
#389=VERTEX_POINT('',#1199);
#390=VERTEX_POINT('',#1201);
#391=VERTEX_POINT('',#1203);
#392=VERTEX_POINT('',#1210);
#393=VERTEX_POINT('',#1214);
#394=VERTEX_POINT('',#1216);
#395=VERTEX_POINT('',#1218);
#396=VERTEX_POINT('',#1220);
#397=VERTEX_POINT('',#1224);
#398=VERTEX_POINT('',#1226);
#399=VERTEX_POINT('',#1231);
#400=VERTEX_POINT('',#1233);
#401=VERTEX_POINT('',#1238);
#402=VERTEX_POINT('',#1244);
#403=VERTEX_POINT('',#1247);
#404=VERTEX_POINT('',#1249);
#405=VERTEX_POINT('',#1298);
#406=VERTEX_POINT('',#1301);
#407=VERTEX_POINT('',#1304);
#408=VERTEX_POINT('',#1307);
#409=VERTEX_POINT('',#1310);
#410=VERTEX_POINT('',#1313);
#411=LINE('',#1107,#493);
#412=LINE('',#1110,#494);
#413=LINE('',#1112,#495);
#414=LINE('',#1114,#496);
#415=LINE('',#1116,#497);
#416=LINE('',#1119,#498);
#417=LINE('',#1121,#499);
#418=LINE('',#1123,#500);
#419=LINE('',#1124,#501);
#420=LINE('',#1127,#502);
#421=LINE('',#1129,#503);
#422=LINE('',#1131,#504);
#423=LINE('',#1133,#505);
#424=LINE('',#1136,#506);
#425=LINE('',#1138,#507);
#426=LINE('',#1140,#508);
#427=LINE('',#1141,#509);
#428=LINE('',#1144,#510);
#429=LINE('',#1146,#511);
#430=LINE('',#1148,#512);
#431=LINE('',#1150,#513);
#432=LINE('',#1153,#514);
#433=LINE('',#1155,#515);
#434=LINE('',#1157,#516);
#435=LINE('',#1158,#517);
#436=LINE('',#1161,#518);
#437=LINE('',#1163,#519);
#438=LINE('',#1165,#520);
#439=LINE('',#1167,#521);
#440=LINE('',#1170,#522);
#441=LINE('',#1172,#523);
#442=LINE('',#1174,#524);
#443=LINE('',#1182,#525);
#444=LINE('',#1185,#526);
#445=LINE('',#1187,#527);
#446=LINE('',#1189,#528);
#447=LINE('',#1197,#529);
#448=LINE('',#1200,#530);
#449=LINE('',#1202,#531);
#450=LINE('',#1204,#532);
#451=LINE('',#1206,#533);
#452=LINE('',#1207,#534);
#453=LINE('',#1211,#535);
#454=LINE('',#1213,#536);
#455=LINE('',#1215,#537);
#456=LINE('',#1217,#538);
#457=LINE('',#1219,#539);
#458=LINE('',#1221,#540);
#459=LINE('',#1225,#541);
#460=LINE('',#1227,#542);
#461=LINE('',#1228,#543);
#462=LINE('',#1234,#544);
#463=LINE('',#1235,#545);
#464=LINE('',#1237,#546);
#465=LINE('',#1239,#547);
#466=LINE('',#1241,#548);
#467=LINE('',#1245,#549);
#468=LINE('',#1251,#550);
#469=LINE('',#1253,#551);
#470=LINE('',#1254,#552);
#471=LINE('',#1256,#553);
#472=LINE('',#1257,#554);
#473=LINE('',#1259,#555);
#474=LINE('',#1260,#556);
#475=LINE('',#1262,#557);
#476=LINE('',#1264,#558);
#477=LINE('',#1266,#559);
#478=LINE('',#1267,#560);
#479=LINE('',#1269,#561);
#480=LINE('',#1271,#562);
#481=LINE('',#1273,#563);
#482=LINE('',#1274,#564);
#483=LINE('',#1276,#565);
#484=LINE('',#1278,#566);
#485=LINE('',#1280,#567);
#486=LINE('',#1282,#568);
#487=LINE('',#1284,#569);
#488=LINE('',#1286,#570);
#489=LINE('',#1288,#571);
#490=LINE('',#1290,#572);
#491=LINE('',#1292,#573);
#492=LINE('',#1294,#574);
#493=VECTOR('',#891,1.);
#494=VECTOR('',#892,1.);
#495=VECTOR('',#893,1.);
#496=VECTOR('',#894,1.);
#497=VECTOR('',#897,1.);
#498=VECTOR('',#898,1.);
#499=VECTOR('',#899,1.);
#500=VECTOR('',#900,1.);
#501=VECTOR('',#901,1.);
#502=VECTOR('',#902,1.);
#503=VECTOR('',#903,1.);
#504=VECTOR('',#904,1.);
#505=VECTOR('',#907,1.);
#506=VECTOR('',#908,1.);
#507=VECTOR('',#909,1.);
#508=VECTOR('',#910,1.);
#509=VECTOR('',#911,1.);
#510=VECTOR('',#912,1.);
#511=VECTOR('',#913,1.);
#512=VECTOR('',#914,1.);
#513=VECTOR('',#917,1.);
#514=VECTOR('',#918,1.);
#515=VECTOR('',#919,1.);
#516=VECTOR('',#920,1.);
#517=VECTOR('',#921,1.);
#518=VECTOR('',#922,1.);
#519=VECTOR('',#923,1.);
#520=VECTOR('',#924,1.);
#521=VECTOR('',#927,1.);
#522=VECTOR('',#928,1.);
#523=VECTOR('',#929,1.);
#524=VECTOR('',#930,1.);
#525=VECTOR('',#939,1.);
#526=VECTOR('',#940,1.);
#527=VECTOR('',#941,1.);
#528=VECTOR('',#942,1.);
#529=VECTOR('',#951,1.);
#530=VECTOR('',#952,1.);
#531=VECTOR('',#953,1.);
#532=VECTOR('',#954,1.);
#533=VECTOR('',#957,1.);
#534=VECTOR('',#958,1.);
#535=VECTOR('',#963,1.);
#536=VECTOR('',#966,1.);
#537=VECTOR('',#967,1.);
#538=VECTOR('',#968,1.);
#539=VECTOR('',#969,1.);
#540=VECTOR('',#970,1.);
#541=VECTOR('',#975,1.);
#542=VECTOR('',#976,1.);
#543=VECTOR('',#977,1.);
#544=VECTOR('',#984,1.);
#545=VECTOR('',#985,1.);
#546=VECTOR('',#988,1.);
#547=VECTOR('',#989,1.);
#548=VECTOR('',#992,1.);
#549=VECTOR('',#997,1.);
#550=VECTOR('',#1004,1.);
#551=VECTOR('',#1007,1.);
#552=VECTOR('',#1008,1.);
#553=VECTOR('',#1011,1.);
#554=VECTOR('',#1012,1.);
#555=VECTOR('',#1015,1.);
#556=VECTOR('',#1016,1.);
#557=VECTOR('',#1019,1.);
#558=VECTOR('',#1022,1.);
#559=VECTOR('',#1025,1.);
#560=VECTOR('',#1026,1.);
#561=VECTOR('',#1029,1.);
#562=VECTOR('',#1032,1.);
#563=VECTOR('',#1035,1.);
#564=VECTOR('',#1036,1.);
#565=VECTOR('',#1039,1.);
#566=VECTOR('',#1042,1.);
#567=VECTOR('',#1045,1.);
#568=VECTOR('',#1048,1.);
#569=VECTOR('',#1051,1.);
#570=VECTOR('',#1054,1.);
#571=VECTOR('',#1057,1.);
#572=VECTOR('',#1060,1.);
#573=VECTOR('',#1063,1.);
#574=VECTOR('',#1066,1.);
#575=EDGE_LOOP('',(#43,#44,#45,#46));
#576=EDGE_LOOP('',(#47,#48,#49,#50));
#577=EDGE_LOOP('',(#51,#52,#53,#54));
#578=EDGE_LOOP('',(#55,#56,#57,#58));
#579=EDGE_LOOP('',(#59,#60,#61,#62));
#580=EDGE_LOOP('',(#63,#64,#65,#66));
#581=EDGE_LOOP('',(#67,#68,#69,#70));
#582=EDGE_LOOP('',(#71,#72,#73,#74));
#583=EDGE_LOOP('',(#75));
#584=EDGE_LOOP('',(#76));
#585=EDGE_LOOP('',(#77));
#586=EDGE_LOOP('',(#78,#79,#80,#81));
#587=EDGE_LOOP('',(#82));
#588=EDGE_LOOP('',(#83));
#589=EDGE_LOOP('',(#84));
#590=EDGE_LOOP('',(#85,#86,#87,#88));
#591=EDGE_LOOP('',(#89,#90,#91,#92));
#592=EDGE_LOOP('',(#93));
#593=EDGE_LOOP('',(#94,#95,#96,#97));
#594=EDGE_LOOP('',(#98,#99,#100,#101,#102,#103,#104,#105));
#595=EDGE_LOOP('',(#106,#107,#108,#109,#110,#111,#112,#113,#114,#115));
#596=EDGE_LOOP('',(#116));
#597=EDGE_LOOP('',(#117));
#598=EDGE_LOOP('',(#118,#119,#120,#121));
#599=EDGE_LOOP('',(#122,#123,#124,#125,#126,#127));
#600=EDGE_LOOP('',(#128,#129,#130,#131,#132,#133));
#601=EDGE_LOOP('',(#134,#135,#136,#137,#138,#139));
#602=EDGE_LOOP('',(#140));
#603=EDGE_LOOP('',(#141));
#604=EDGE_LOOP('',(#142,#143,#144,#145));
#605=EDGE_LOOP('',(#146,#147,#148,#149));
#606=EDGE_LOOP('',(#150,#151,#152));
#607=EDGE_LOOP('',(#153,#154,#155));
#608=EDGE_LOOP('',(#156,#157,#158,#159));
#609=EDGE_LOOP('',(#160,#161,#162,#163));
#610=EDGE_LOOP('',(#164,#165,#166,#167));
#611=EDGE_LOOP('',(#168,#169,#170,#171));
#612=EDGE_LOOP('',(#172,#173,#174,#175));
#613=EDGE_LOOP('',(#176,#177,#178,#179));
#614=EDGE_LOOP('',(#180,#181,#182));
#615=EDGE_LOOP('',(#183,#184,#185));
#616=EDGE_LOOP('',(#186,#187,#188));
#617=EDGE_LOOP('',(#189,#190,#191));
#618=EDGE_LOOP('',(#192,#193,#194,#195));
#619=EDGE_LOOP('',(#196,#197,#198,#199));
#620=EDGE_LOOP('',(#200,#201,#202,#203));
#621=EDGE_LOOP('',(#204,#205,#206,#207));
#622=EDGE_LOOP('',(#208,#209,#210));
#623=EDGE_LOOP('',(#211,#212,#213));
#624=EDGE_LOOP('',(#214,#215,#216,#217));
#625=EDGE_LOOP('',(#218));
#626=EDGE_LOOP('',(#219,#220,#221,#222));
#627=EDGE_LOOP('',(#223));
#628=EDGE_LOOP('',(#224));
#629=EDGE_LOOP('',(#225));
#630=EDGE_LOOP('',(#226));
#631=EDGE_LOOP('',(#227));
#632=EDGE_LOOP('',(#228));
#633=EDGE_LOOP('',(#229));
#634=EDGE_LOOP('',(#230));
#635=EDGE_LOOP('',(#231));
#636=EDGE_LOOP('',(#232));
#637=EDGE_LOOP('',(#233));
#638=EDGE_LOOP('',(#234));
#639=EDGE_LOOP('',(#235));
#640=EDGE_LOOP('',(#236));
#641=EDGE_LOOP('',(#237));
#642=EDGE_LOOP('',(#238));
#643=EDGE_LOOP('',(#239));
#644=EDGE_LOOP('',(#240));
#645=EDGE_LOOP('',(#241));
#646=EDGE_LOOP('',(#242));
#647=EDGE_LOOP('',(#243));
#648=EDGE_LOOP('',(#244));
#649=FACE_BOUND('',#575,.T.);
#650=FACE_BOUND('',#576,.T.);
#651=FACE_BOUND('',#577,.T.);
#652=FACE_BOUND('',#578,.T.);
#653=FACE_BOUND('',#579,.T.);
#654=FACE_BOUND('',#580,.T.);
#655=FACE_BOUND('',#581,.T.);
#656=FACE_BOUND('',#582,.T.);
#657=FACE_BOUND('',#583,.T.);
#658=FACE_BOUND('',#584,.T.);
#659=FACE_BOUND('',#585,.T.);
#660=FACE_BOUND('',#586,.T.);
#661=FACE_BOUND('',#587,.T.);
#662=FACE_BOUND('',#588,.T.);
#663=FACE_BOUND('',#589,.T.);
#664=FACE_BOUND('',#590,.T.);
#665=FACE_BOUND('',#591,.T.);
#666=FACE_BOUND('',#592,.T.);
#667=FACE_BOUND('',#593,.T.);
#668=FACE_BOUND('',#594,.T.);
#669=FACE_BOUND('',#595,.T.);
#670=FACE_BOUND('',#596,.T.);
#671=FACE_BOUND('',#597,.T.);
#672=FACE_BOUND('',#598,.T.);
#673=FACE_BOUND('',#599,.T.);
#674=FACE_BOUND('',#600,.T.);
#675=FACE_BOUND('',#601,.T.);
#676=FACE_BOUND('',#602,.T.);
#677=FACE_BOUND('',#603,.T.);
#678=FACE_BOUND('',#604,.T.);
#679=FACE_BOUND('',#605,.T.);
#680=FACE_BOUND('',#606,.T.);
#681=FACE_BOUND('',#607,.T.);
#682=FACE_BOUND('',#608,.T.);
#683=FACE_BOUND('',#609,.T.);
#684=FACE_BOUND('',#610,.T.);
#685=FACE_BOUND('',#611,.T.);
#686=FACE_BOUND('',#612,.T.);
#687=FACE_BOUND('',#613,.T.);
#688=FACE_BOUND('',#614,.T.);
#689=FACE_BOUND('',#615,.T.);
#690=FACE_BOUND('',#616,.T.);
#691=FACE_BOUND('',#617,.T.);
#692=FACE_BOUND('',#618,.T.);
#693=FACE_BOUND('',#619,.T.);
#694=FACE_BOUND('',#620,.T.);
#695=FACE_BOUND('',#621,.T.);
#696=FACE_BOUND('',#622,.T.);
#697=FACE_BOUND('',#623,.T.);
#698=FACE_BOUND('',#624,.T.);
#699=FACE_BOUND('',#625,.T.);
#700=FACE_BOUND('',#626,.T.);
#701=FACE_BOUND('',#627,.T.);
#702=FACE_BOUND('',#628,.T.);
#703=FACE_BOUND('',#629,.T.);
#704=FACE_BOUND('',#630,.T.);
#705=FACE_BOUND('',#631,.T.);
#706=FACE_BOUND('',#632,.T.);
#707=FACE_BOUND('',#633,.T.);
#708=FACE_BOUND('',#634,.T.);
#709=FACE_BOUND('',#635,.T.);
#710=FACE_BOUND('',#636,.T.);
#711=FACE_BOUND('',#637,.T.);
#712=FACE_BOUND('',#638,.T.);
#713=FACE_BOUND('',#639,.T.);
#714=FACE_BOUND('',#640,.T.);
#715=FACE_BOUND('',#641,.T.);
#716=FACE_BOUND('',#642,.T.);
#717=FACE_BOUND('',#643,.T.);
#718=FACE_BOUND('',#644,.T.);
#719=FACE_BOUND('',#645,.T.);
#720=FACE_BOUND('',#646,.T.);
#721=FACE_BOUND('',#647,.T.);
#722=FACE_BOUND('',#648,.T.);
#723=PLANE('',#820);
#724=PLANE('',#821);
#725=PLANE('',#822);
#726=PLANE('',#823);
#727=PLANE('',#824);
#728=PLANE('',#825);
#729=PLANE('',#829);
#730=PLANE('',#833);
#731=PLANE('',#834);
#732=PLANE('',#836);
#733=PLANE('',#837);
#734=PLANE('',#839);
#735=PLANE('',#842);
#736=PLANE('',#843);
#737=PLANE('',#844);
#738=PLANE('',#848);
#739=PLANE('',#849);
#740=PLANE('',#850);
#741=PLANE('',#851);
#742=PLANE('',#852);
#743=PLANE('',#853);
#744=PLANE('',#854);
#745=PLANE('',#855);
#746=PLANE('',#856);
#747=PLANE('',#857);
#748=PLANE('',#858);
#749=PLANE('',#859);
#750=PLANE('',#860);
#751=PLANE('',#861);
#752=PLANE('',#862);
#753=PLANE('',#863);
#754=PLANE('',#864);
#755=PLANE('',#865);
#756=PLANE('',#866);
#757=PLANE('',#867);
#758=PLANE('',#868);
#759=ADVANCED_FACE('',(#649),#723,.T.);
#760=ADVANCED_FACE('',(#650,#651),#724,.F.);
#761=ADVANCED_FACE('',(#652,#653),#725,.F.);
#762=ADVANCED_FACE('',(#654,#655),#726,.T.);
#763=ADVANCED_FACE('',(#656),#727,.T.);
#764=ADVANCED_FACE('',(#657,#658,#659,#660),#728,.F.);
#765=ADVANCED_FACE('',(#661,#662,#663,#664),#729,.T.);
#766=ADVANCED_FACE('',(#665),#730,.T.);
#767=ADVANCED_FACE('',(#666,#667),#731,.F.);
#768=ADVANCED_FACE('',(#668),#732,.F.);
#769=ADVANCED_FACE('',(#669),#733,.T.);
#770=ADVANCED_FACE('',(#670,#671,#672),#734,.F.);
#771=ADVANCED_FACE('',(#673),#735,.F.);
#772=ADVANCED_FACE('',(#674),#736,.T.);
#773=ADVANCED_FACE('',(#675,#676,#677),#737,.T.);
#774=ADVANCED_FACE('',(#678),#738,.T.);
#775=ADVANCED_FACE('',(#679),#739,.F.);
#776=ADVANCED_FACE('',(#680),#740,.T.);
#777=ADVANCED_FACE('',(#681),#741,.T.);
#778=ADVANCED_FACE('',(#682),#742,.T.);
#779=ADVANCED_FACE('',(#683),#743,.T.);
#780=ADVANCED_FACE('',(#684),#744,.T.);
#781=ADVANCED_FACE('',(#685),#745,.F.);
#782=ADVANCED_FACE('',(#686),#746,.F.);
#783=ADVANCED_FACE('',(#687),#747,.T.);
#784=ADVANCED_FACE('',(#688),#748,.T.);
#785=ADVANCED_FACE('',(#689),#749,.T.);
#786=ADVANCED_FACE('',(#690),#750,.T.);
#787=ADVANCED_FACE('',(#691),#751,.T.);
#788=ADVANCED_FACE('',(#692),#752,.F.);
#789=ADVANCED_FACE('',(#693),#753,.F.);
#790=ADVANCED_FACE('',(#694),#754,.T.);
#791=ADVANCED_FACE('',(#695),#755,.T.);
#792=ADVANCED_FACE('',(#696),#756,.T.);
#793=ADVANCED_FACE('',(#697),#757,.T.);
#794=ADVANCED_FACE('',(#698),#758,.F.);
#795=ADVANCED_FACE('',(#699,#700),#18,.F.);
#796=ADVANCED_FACE('',(#701,#702),#19,.F.);
#797=ADVANCED_FACE('',(#703,#704),#20,.F.);
#798=ADVANCED_FACE('',(#705,#706),#21,.F.);
#799=ADVANCED_FACE('',(#707,#708),#22,.F.);
#800=ADVANCED_FACE('',(#709,#710),#23,.F.);
#801=ADVANCED_FACE('',(#711,#712),#12,.F.);
#802=ADVANCED_FACE('',(#713,#714),#13,.F.);
#803=ADVANCED_FACE('',(#715,#716),#14,.F.);
#804=ADVANCED_FACE('',(#717,#718),#15,.F.);
#805=ADVANCED_FACE('',(#719,#720),#16,.F.);
#806=ADVANCED_FACE('',(#721,#722),#17,.F.);
#807=CLOSED_SHELL('',(#759,#760,#761,#762,#763,#764,#765,#766,#767,#768,
#769,#770,#771,#772,#773,#774,#775,#776,#777,#778,#779,#780,#781,#782,#783,
#784,#785,#786,#787,#788,#789,#790,#791,#792,#793,#794,#795,#796,#797,#798,
#799,#800,#801,#802,#803,#804,#805,#806));
#808=STYLED_ITEM('',(#809),#816);
#809=PRESENTATION_STYLE_ASSIGNMENT((#810));
#810=SURFACE_STYLE_USAGE(.BOTH.,#811);
#811=SURFACE_SIDE_STYLE('',(#812));
#812=SURFACE_STYLE_FILL_AREA(#813);
#813=FILL_AREA_STYLE('',(#814));
#814=FILL_AREA_STYLE_COLOUR('',#815);
#815=COLOUR_RGB('',0.866666666666667,0.32156862745098,0.156862745098039);
#816=MANIFOLD_SOLID_BREP('Ext Connector',#807);
#817=SHAPE_DEFINITION_REPRESENTATION(#1326,#818);
#818=SHAPE_REPRESENTATION('Ext Connector',(#819),#1321);
#819=AXIS2_PLACEMENT_3D('',#1105,#887,#888);
#820=AXIS2_PLACEMENT_3D('',#1106,#889,#890);
#821=AXIS2_PLACEMENT_3D('',#1115,#895,#896);
#822=AXIS2_PLACEMENT_3D('',#1132,#905,#906);
#823=AXIS2_PLACEMENT_3D('',#1149,#915,#916);
#824=AXIS2_PLACEMENT_3D('',#1166,#925,#926);
#825=AXIS2_PLACEMENT_3D('',#1175,#931,#932);
#826=AXIS2_PLACEMENT_3D('',#1176,#933,#934);
#827=AXIS2_PLACEMENT_3D('',#1178,#935,#936);
#828=AXIS2_PLACEMENT_3D('',#1180,#937,#938);
#829=AXIS2_PLACEMENT_3D('',#1190,#943,#944);
#830=AXIS2_PLACEMENT_3D('',#1191,#945,#946);
#831=AXIS2_PLACEMENT_3D('',#1193,#947,#948);
#832=AXIS2_PLACEMENT_3D('',#1195,#949,#950);
#833=AXIS2_PLACEMENT_3D('',#1205,#955,#956);
#834=AXIS2_PLACEMENT_3D('',#1208,#959,#960);
#835=AXIS2_PLACEMENT_3D('',#1209,#961,#962);
#836=AXIS2_PLACEMENT_3D('',#1212,#964,#965);
#837=AXIS2_PLACEMENT_3D('',#1222,#971,#972);
#838=AXIS2_PLACEMENT_3D('',#1223,#973,#974);
#839=AXIS2_PLACEMENT_3D('',#1229,#978,#979);
#840=AXIS2_PLACEMENT_3D('',#1230,#980,#981);
#841=AXIS2_PLACEMENT_3D('',#1232,#982,#983);
#842=AXIS2_PLACEMENT_3D('',#1236,#986,#987);
#843=AXIS2_PLACEMENT_3D('',#1240,#990,#991);
#844=AXIS2_PLACEMENT_3D('',#1242,#993,#994);
#845=AXIS2_PLACEMENT_3D('',#1243,#995,#996);
#846=AXIS2_PLACEMENT_3D('',#1246,#998,#999);
#847=AXIS2_PLACEMENT_3D('',#1248,#1000,#1001);
#848=AXIS2_PLACEMENT_3D('',#1250,#1002,#1003);
#849=AXIS2_PLACEMENT_3D('',#1252,#1005,#1006);
#850=AXIS2_PLACEMENT_3D('',#1255,#1009,#1010);
#851=AXIS2_PLACEMENT_3D('',#1258,#1013,#1014);
#852=AXIS2_PLACEMENT_3D('',#1261,#1017,#1018);
#853=AXIS2_PLACEMENT_3D('',#1263,#1020,#1021);
#854=AXIS2_PLACEMENT_3D('',#1265,#1023,#1024);
#855=AXIS2_PLACEMENT_3D('',#1268,#1027,#1028);
#856=AXIS2_PLACEMENT_3D('',#1270,#1030,#1031);
#857=AXIS2_PLACEMENT_3D('',#1272,#1033,#1034);
#858=AXIS2_PLACEMENT_3D('',#1275,#1037,#1038);
#859=AXIS2_PLACEMENT_3D('',#1277,#1040,#1041);
#860=AXIS2_PLACEMENT_3D('',#1279,#1043,#1044);
#861=AXIS2_PLACEMENT_3D('',#1281,#1046,#1047);
#862=AXIS2_PLACEMENT_3D('',#1283,#1049,#1050);
#863=AXIS2_PLACEMENT_3D('',#1285,#1052,#1053);
#864=AXIS2_PLACEMENT_3D('',#1287,#1055,#1056);
#865=AXIS2_PLACEMENT_3D('',#1289,#1058,#1059);
#866=AXIS2_PLACEMENT_3D('',#1291,#1061,#1062);
#867=AXIS2_PLACEMENT_3D('',#1293,#1064,#1065);
#868=AXIS2_PLACEMENT_3D('',#1295,#1067,#1068);
#869=AXIS2_PLACEMENT_3D('',#1296,#1069,#1070);
#870=AXIS2_PLACEMENT_3D('',#1297,#1071,#1072);
#871=AXIS2_PLACEMENT_3D('',#1299,#1073,#1074);
#872=AXIS2_PLACEMENT_3D('',#1300,#1075,#1076);
#873=AXIS2_PLACEMENT_3D('',#1302,#1077,#1078);
#874=AXIS2_PLACEMENT_3D('',#1303,#1079,#1080);
#875=AXIS2_PLACEMENT_3D('',#1305,#1081,#1082);
#876=AXIS2_PLACEMENT_3D('',#1306,#1083,#1084);
#877=AXIS2_PLACEMENT_3D('',#1308,#1085,#1086);
#878=AXIS2_PLACEMENT_3D('',#1309,#1087,#1088);
#879=AXIS2_PLACEMENT_3D('',#1311,#1089,#1090);
#880=AXIS2_PLACEMENT_3D('',#1312,#1091,#1092);
#881=AXIS2_PLACEMENT_3D('',#1314,#1093,#1094);
#882=AXIS2_PLACEMENT_3D('',#1315,#1095,#1096);
#883=AXIS2_PLACEMENT_3D('',#1316,#1097,#1098);
#884=AXIS2_PLACEMENT_3D('',#1317,#1099,#1100);
#885=AXIS2_PLACEMENT_3D('',#1318,#1101,#1102);
#886=AXIS2_PLACEMENT_3D('',#1319,#1103,#1104);
#887=DIRECTION('',(0.,0.,1.));
#888=DIRECTION('',(1.,0.,0.));
#889=DIRECTION('',(0.,0.,1.));
#890=DIRECTION('',(1.,0.,0.));
#891=DIRECTION('',(1.,0.,0.));
#892=DIRECTION('',(0.,1.,0.));
#893=DIRECTION('',(-1.,0.,0.));
#894=DIRECTION('',(0.,-1.,0.));
#895=DIRECTION('',(0.,0.,-1.));
#896=DIRECTION('',(0.,1.,0.));
#897=DIRECTION('',(0.,-1.,0.));
#898=DIRECTION('',(1.,0.,0.));
#899=DIRECTION('',(0.,1.,0.));
#900=DIRECTION('',(-1.,0.,0.));
#901=DIRECTION('',(0.,-1.,0.));
#902=DIRECTION('',(-1.,0.,0.));
#903=DIRECTION('',(0.,-1.,0.));
#904=DIRECTION('',(-1.,0.,0.));
#905=DIRECTION('',(0.,-1.,0.));
#906=DIRECTION('',(-1.,0.,0.));
#907=DIRECTION('',(0.,0.,1.));
#908=DIRECTION('',(1.,0.,0.));
#909=DIRECTION('',(0.,0.,-1.));
#910=DIRECTION('',(-1.,0.,0.));
#911=DIRECTION('',(-1.,0.,0.));
#912=DIRECTION('',(0.,0.,-1.));
#913=DIRECTION('',(-1.,0.,0.));
#914=DIRECTION('',(0.,0.,-1.));
#915=DIRECTION('',(0.,-1.,0.));
#916=DIRECTION('',(-1.,0.,0.));
#917=DIRECTION('',(0.,0.,1.));
#918=DIRECTION('',(-1.,0.,0.));
#919=DIRECTION('',(0.,0.,-1.));
#920=DIRECTION('',(1.,0.,0.));
#921=DIRECTION('',(0.,0.,-1.));
#922=DIRECTION('',(-1.,0.,0.));
#923=DIRECTION('',(0.,0.,-1.));
#924=DIRECTION('',(-1.,0.,0.));
#925=DIRECTION('',(0.,0.,-1.));
#926=DIRECTION('',(0.,1.,0.));
#927=DIRECTION('',(0.,-1.,0.));
#928=DIRECTION('',(-1.,0.,0.));
#929=DIRECTION('',(0.,1.,0.));
#930=DIRECTION('',(1.,0.,0.));
#931=DIRECTION('',(-1.,0.,0.));
#932=DIRECTION('',(0.,0.,1.));
#933=DIRECTION('',(-1.,0.,0.));
#934=DIRECTION('',(0.,1.,0.));
#935=DIRECTION('',(-1.,0.,0.));
#936=DIRECTION('',(0.,1.,0.));
#937=DIRECTION('',(-1.,0.,0.));
#938=DIRECTION('',(0.,1.,0.));
#939=DIRECTION('',(0.,-1.,0.));
#940=DIRECTION('',(0.,0.,-1.));
#941=DIRECTION('',(0.,1.,0.));
#942=DIRECTION('',(0.,0.,1.));
#943=DIRECTION('',(-1.,0.,0.));
#944=DIRECTION('',(0.,0.,1.));
#945=DIRECTION('',(-1.,0.,0.));
#946=DIRECTION('',(0.,1.,0.));
#947=DIRECTION('',(-1.,0.,0.));
#948=DIRECTION('',(0.,1.,0.));
#949=DIRECTION('',(-1.,0.,0.));
#950=DIRECTION('',(0.,1.,0.));
#951=DIRECTION('',(0.,-1.,0.));
#952=DIRECTION('',(0.,0.,1.));
#953=DIRECTION('',(0.,1.,0.));
#954=DIRECTION('',(0.,0.,-1.));
#955=DIRECTION('',(0.,0.,1.));
#956=DIRECTION('',(0.,-1.,0.));
#957=DIRECTION('',(0.,1.,0.));
#958=DIRECTION('',(0.,1.,0.));
#959=DIRECTION('',(-1.,0.,0.));
#960=DIRECTION('',(0.,1.,0.));
#961=DIRECTION('',(-1.,0.,0.));
#962=DIRECTION('',(0.,1.,0.));
#963=DIRECTION('',(0.,1.,0.));
#964=DIRECTION('',(0.,0.,1.));
#965=DIRECTION('',(0.,-1.,0.));
#966=DIRECTION('',(0.,1.,0.));
#967=DIRECTION('',(-1.,0.,0.));
#968=DIRECTION('',(0.,-1.,0.));
#969=DIRECTION('',(-1.,0.,0.));
#970=DIRECTION('',(0.,1.,0.));
#971=DIRECTION('',(-1.,0.,0.));
#972=DIRECTION('',(0.,1.,0.));
#973=DIRECTION('',(-1.,0.,0.));
#974=DIRECTION('',(0.,1.,0.));
#975=DIRECTION('',(0.,1.,0.));
#976=DIRECTION('',(0.,0.,-1.));
#977=DIRECTION('',(0.,0.,-1.));
#978=DIRECTION('',(-1.,0.,0.));
#979=DIRECTION('',(0.,1.,0.));
#980=DIRECTION('',(-1.,0.,0.));
#981=DIRECTION('',(0.,1.,0.));
#982=DIRECTION('',(-1.,0.,0.));
#983=DIRECTION('',(0.,1.,0.));
#984=DIRECTION('',(0.,0.,1.));
#985=DIRECTION('',(0.,0.,1.));
#986=DIRECTION('',(0.,1.,0.));
#987=DIRECTION('',(1.,0.,0.));
#988=DIRECTION('',(-1.,0.,0.));
#989=DIRECTION('',(0.,0.,1.));
#990=DIRECTION('',(0.,1.,0.));
#991=DIRECTION('',(1.,0.,0.));
#992=DIRECTION('',(0.,0.,1.));
#993=DIRECTION('',(-1.,0.,0.));
#994=DIRECTION('',(0.,1.,0.));
#995=DIRECTION('',(-1.,0.,0.));
#996=DIRECTION('',(0.,1.,0.));
#997=DIRECTION('',(0.,-1.,0.));
#998=DIRECTION('',(-1.,0.,0.));
#999=DIRECTION('',(0.,1.,0.));
#1000=DIRECTION('',(-1.,0.,0.));
#1001=DIRECTION('',(0.,1.,0.));
#1002=DIRECTION('',(0.,0.,1.));
#1003=DIRECTION('',(1.,0.,0.));
#1004=DIRECTION('',(1.,0.,0.));
#1005=DIRECTION('',(0.707106781186548,0.,0.707106781186548));
#1006=DIRECTION('',(0.,-1.,0.));
#1007=DIRECTION('',(0.707106781186548,0.,-0.707106781186548));
#1008=DIRECTION('',(-0.707106781186548,0.,0.707106781186548));
#1009=DIRECTION('',(-0.577350269189626,0.577350269189626,-0.577350269189626));
#1010=DIRECTION('',(0.707106781186548,0.707106781186548,0.));
#1011=DIRECTION('',(0.,-0.707106781186548,-0.707106781186548));
#1012=DIRECTION('',(0.707106781186548,0.707106781186548,0.));
#1013=DIRECTION('',(-0.577350269189626,-0.577350269189626,-0.577350269189626));
#1014=DIRECTION('',(-0.707106781186548,0.707106781186548,0.));
#1015=DIRECTION('',(0.707106781186548,-0.707106781186548,0.));
#1016=DIRECTION('',(0.,0.707106781186548,-0.707106781186548));
#1017=DIRECTION('',(-0.707106781186548,0.707106781186548,0.));
#1018=DIRECTION('',(0.,0.,-1.));
#1019=DIRECTION('',(-0.707106781186548,-0.707106781186548,0.));
#1020=DIRECTION('',(0.,0.707106781186548,-0.707106781186548));
#1021=DIRECTION('',(1.,0.,0.));
#1022=DIRECTION('',(0.,0.707106781186548,0.707106781186548));
#1023=DIRECTION('',(0.707106781186548,0.,-0.707106781186548));
#1024=DIRECTION('',(0.,1.,0.));
#1025=DIRECTION('',(0.707106781186548,0.,0.707106781186548));
#1026=DIRECTION('',(-0.707106781186548,0.,-0.707106781186548));
#1027=DIRECTION('',(0.,0.707106781186548,0.707106781186548));
#1028=DIRECTION('',(-1.,0.,0.));
#1029=DIRECTION('',(0.,-0.707106781186548,0.707106781186548));
#1030=DIRECTION('',(0.707106781186548,0.707106781186548,0.));
#1031=DIRECTION('',(0.,0.,1.));
#1032=DIRECTION('',(-0.707106781186548,0.707106781186548,0.));
#1033=DIRECTION('',(-0.707106781186548,0.,0.707106781186548));
#1034=DIRECTION('',(0.,1.,0.));
#1035=DIRECTION('',(0.707106781186548,0.,0.707106781186548));
#1036=DIRECTION('',(-0.707106781186548,0.,-0.707106781186548));
#1037=DIRECTION('',(-0.577350269189626,0.577350269189626,0.577350269189626));
#1038=DIRECTION('',(0.707106781186548,0.707106781186548,0.));
#1039=DIRECTION('',(0.,-0.707106781186548,0.707106781186548));
#1040=DIRECTION('',(0.577350269189626,0.577350269189626,-0.577350269189626));
#1041=DIRECTION('',(0.707106781186548,-0.707106781186548,0.));
#1042=DIRECTION('',(-0.707106781186548,0.707106781186548,0.));
#1043=DIRECTION('',(0.577350269189626,-0.577350269189626,-0.577350269189626));
#1044=DIRECTION('',(-0.707106781186548,-0.707106781186548,0.));
#1045=DIRECTION('',(-0.707106781186548,-0.707106781186548,0.));
#1046=DIRECTION('',(-0.577350269189626,-0.577350269189626,0.577350269189626));
#1047=DIRECTION('',(-0.707106781186548,0.707106781186548,0.));
#1048=DIRECTION('',(0.,0.707106781186548,0.707106781186548));
#1049=DIRECTION('',(0.,-0.707106781186548,-0.707106781186548));
#1050=DIRECTION('',(-1.,0.,0.));
#1051=DIRECTION('',(0.,0.707106781186548,-0.707106781186548));
#1052=DIRECTION('',(-0.707106781186548,-0.707106781186548,0.));
#1053=DIRECTION('',(0.,0.,1.));
#1054=DIRECTION('',(0.707106781186548,-0.707106781186548,0.));
#1055=DIRECTION('',(0.707106781186548,-0.707106781186548,0.));
#1056=DIRECTION('',(0.,0.,-1.));
#1057=DIRECTION('',(0.707106781186548,0.707106781186548,0.));
#1058=DIRECTION('',(0.,-0.707106781186548,0.707106781186548));
#1059=DIRECTION('',(1.,0.,0.));
#1060=DIRECTION('',(0.,-0.707106781186548,-0.707106781186548));
#1061=DIRECTION('',(0.577350269189626,0.577350269189626,0.577350269189626));
#1062=DIRECTION('',(0.707106781186548,-0.707106781186548,0.));
#1063=DIRECTION('',(-0.707106781186548,0.,0.707106781186548));
#1064=DIRECTION('',(0.577350269189626,-0.577350269189626,0.577350269189626));
#1065=DIRECTION('',(-0.707106781186548,-0.707106781186548,0.));
#1066=DIRECTION('',(0.707106781186548,0.,-0.707106781186548));
#1067=DIRECTION('',(-0.707106781186548,0.,-0.707106781186548));
#1068=DIRECTION('',(0.,-1.,0.));
#1069=DIRECTION('',(1.,0.,0.));
#1070=DIRECTION('',(0.,-1.,0.));
#1071=DIRECTION('',(-1.,0.,0.));
#1072=DIRECTION('',(0.,1.,0.));
#1073=DIRECTION('',(1.,0.,0.));
#1074=DIRECTION('',(0.,-1.,0.));
#1075=DIRECTION('',(-1.,0.,0.));
#1076=DIRECTION('',(0.,1.,0.));
#1077=DIRECTION('',(1.,0.,0.));
#1078=DIRECTION('',(0.,-1.,0.));
#1079=DIRECTION('',(-1.,0.,0.));
#1080=DIRECTION('',(0.,1.,0.));
#1081=DIRECTION('',(1.,0.,0.));
#1082=DIRECTION('',(0.,-1.,0.));
#1083=DIRECTION('',(-1.,0.,0.));
#1084=DIRECTION('',(0.,1.,0.));
#1085=DIRECTION('',(1.,0.,0.));
#1086=DIRECTION('',(0.,-1.,0.));
#1087=DIRECTION('',(-1.,0.,0.));
#1088=DIRECTION('',(0.,1.,0.));
#1089=DIRECTION('',(1.,0.,0.));
#1090=DIRECTION('',(0.,-1.,0.));
#1091=DIRECTION('',(-1.,0.,0.));
#1092=DIRECTION('',(0.,1.,0.));
#1093=DIRECTION('',(1.,0.,0.));
#1094=DIRECTION('',(0.,-1.,0.));
#1095=DIRECTION('',(1.,0.,0.));
#1096=DIRECTION('',(0.,-1.,0.));
#1097=DIRECTION('',(1.,0.,0.));
#1098=DIRECTION('',(0.,-1.,0.));
#1099=DIRECTION('',(-1.,0.,0.));
#1100=DIRECTION('',(0.,1.,0.));
#1101=DIRECTION('',(-1.,0.,0.));
#1102=DIRECTION('',(0.,1.,0.));
#1103=DIRECTION('',(-1.,0.,0.));
#1104=DIRECTION('',(0.,1.,0.));
#1105=CARTESIAN_POINT('',(0.,0.,0.));
#1106=CARTESIAN_POINT('',(0.0377886960470539,0.332506029657602,-0.161119923881155));
#1107=CARTESIAN_POINT('',(-0.582554972300497,0.329856029657602,-0.161119923881155));
#1108=CARTESIAN_POINT('',(-0.162789642517813,0.329856029657602,-0.161119923881155));
#1109=CARTESIAN_POINT('',(-0.162736132310247,0.329856029657602,-0.161119923881155));
#1110=CARTESIAN_POINT('',(-0.162789642517813,-0.49311246704725,-0.161119923881155));
#1111=CARTESIAN_POINT('',(-0.162789642517813,0.312506029657602,-0.161119923881155));
#1112=CARTESIAN_POINT('',(-0.172736132310247,0.312506029657602,-0.161119923881155));
#1113=CARTESIAN_POINT('',(-0.162736132310247,0.312506029657602,-0.161119923881155));
#1114=CARTESIAN_POINT('',(-0.162736132310247,0.332506029657602,-0.161119923881155));
#1115=CARTESIAN_POINT('',(-0.157736132310247,0.332506029657602,-0.131119923881154));
#1116=CARTESIAN_POINT('',(-0.184736132310247,0.307506029657602,-0.131119923881154));
#1117=CARTESIAN_POINT('',(-0.184736132310247,0.354506029657602,-0.131119923881154));
#1118=CARTESIAN_POINT('',(-0.184736132310247,0.310506029657602,-0.131119923881154));
#1119=CARTESIAN_POINT('',(-0.157736132310247,0.310506029657602,-0.131119923881154));
#1120=CARTESIAN_POINT('',(-0.160736132310247,0.310506029657602,-0.131119923881154));
#1121=CARTESIAN_POINT('',(-0.160736132310247,0.332506029657602,-0.131119923881154));
#1122=CARTESIAN_POINT('',(-0.160736132310247,0.354506029657602,-0.131119923881154));
#1123=CARTESIAN_POINT('',(-0.157736132310247,0.354506029657602,-0.131119923881154));
#1124=CARTESIAN_POINT('',(-0.162736132310247,0.332506029657602,-0.131119923881154));
#1125=CARTESIAN_POINT('',(-0.162736132310247,0.352506029657602,-0.131119923881154));
#1126=CARTESIAN_POINT('',(-0.162736132310247,0.312506029657602,-0.131119923881154));
#1127=CARTESIAN_POINT('',(-0.172736132310247,0.312506029657602,-0.131119923881154));
#1128=CARTESIAN_POINT('',(-0.182736132310247,0.312506029657602,-0.131119923881154));
#1129=CARTESIAN_POINT('',(-0.182736132310247,0.332506029657602,-0.131119923881154));
#1130=CARTESIAN_POINT('',(-0.182736132310247,0.352506029657602,-0.131119923881154));
#1131=CARTESIAN_POINT('',(-0.172736132310247,0.352506029657602,-0.131119923881154));
#1132=CARTESIAN_POINT('',(-0.157736132310247,0.357506029657602,-0.153619923881155));
#1133=CARTESIAN_POINT('',(-0.184736132310247,0.357506029657602,-0.131119923881154));
#1134=CARTESIAN_POINT('',(-0.184736132310247,0.357506029657602,-0.173119923881154));
#1135=CARTESIAN_POINT('',(-0.184736132310247,0.357506029657602,-0.134119923881154));
#1136=CARTESIAN_POINT('',(-0.157736132310247,0.357506029657602,-0.134119923881154));
#1137=CARTESIAN_POINT('',(-0.160736132310247,0.357506029657602,-0.134119923881154));
#1138=CARTESIAN_POINT('',(-0.160736132310247,0.357506029657602,-0.153619923881155));
#1139=CARTESIAN_POINT('',(-0.160736132310247,0.357506029657602,-0.173119923881154));
#1140=CARTESIAN_POINT('',(-0.187736132310247,0.357506029657602,-0.173119923881154));
#1141=CARTESIAN_POINT('',(-0.157736132310247,0.357506029657602,-0.171498574116913));
#1142=CARTESIAN_POINT('',(-0.162789642517813,0.357506029657602,-0.171498574116913));
#1143=CARTESIAN_POINT('',(-0.182789642517814,0.357506029657602,-0.171498574116913));
#1144=CARTESIAN_POINT('',(-0.162789642517813,0.357506029657602,-0.153619923881155));
#1145=CARTESIAN_POINT('',(-0.162789642517813,0.357506029657602,-0.15150142588324));
#1146=CARTESIAN_POINT('',(-0.157736132310247,0.357506029657602,-0.15150142588324));
#1147=CARTESIAN_POINT('',(-0.182789642517814,0.357506029657602,-0.15150142588324));
#1148=CARTESIAN_POINT('',(-0.182789642517814,0.357506029657602,-0.153619923881155));
#1149=CARTESIAN_POINT('',(-0.157736132310247,0.307506029657602,-0.153619923881155));
#1150=CARTESIAN_POINT('',(-0.160736132310247,0.307506029657602,-0.131119923881154));
#1151=CARTESIAN_POINT('',(-0.160736132310247,0.307506029657602,-0.173119923881154));
#1152=CARTESIAN_POINT('',(-0.160736132310247,0.307506029657602,-0.134119923881154));
#1153=CARTESIAN_POINT('',(-0.187736132310247,0.307506029657602,-0.134119923881154));
#1154=CARTESIAN_POINT('',(-0.184736132310247,0.307506029657602,-0.134119923881154));
#1155=CARTESIAN_POINT('',(-0.184736132310247,0.307506029657602,-0.153619923881155));
#1156=CARTESIAN_POINT('',(-0.184736132310247,0.307506029657602,-0.173119923881154));
#1157=CARTESIAN_POINT('',(-0.157736132310247,0.307506029657602,-0.173119923881154));
#1158=CARTESIAN_POINT('',(-0.162789642517813,0.307506029657602,-0.153619923881155));
#1159=CARTESIAN_POINT('',(-0.162789642517813,0.307506029657602,-0.15150142588324));
#1160=CARTESIAN_POINT('',(-0.162789642517813,0.307506029657602,-0.171498574116913));
#1161=CARTESIAN_POINT('',(-0.157736132310247,0.307506029657602,-0.171498574116913));
#1162=CARTESIAN_POINT('',(-0.182789642517814,0.307506029657602,-0.171498574116913));
#1163=CARTESIAN_POINT('',(-0.182789642517814,0.307506029657602,-0.153619923881155));
#1164=CARTESIAN_POINT('',(-0.182789642517814,0.307506029657602,-0.15150142588324));
#1165=CARTESIAN_POINT('',(-0.157736132310247,0.307506029657602,-0.15150142588324));
#1166=CARTESIAN_POINT('',(-0.157736132310247,0.332506029657602,-0.176119923881154));
#1167=CARTESIAN_POINT('',(-0.160736132310247,0.307506029657602,-0.176119923881154));
#1168=CARTESIAN_POINT('',(-0.160736132310247,0.354506029657602,-0.176119923881154));
#1169=CARTESIAN_POINT('',(-0.160736132310247,0.310506029657602,-0.176119923881154));
#1170=CARTESIAN_POINT('',(-0.157736132310247,0.310506029657602,-0.176119923881154));
#1171=CARTESIAN_POINT('',(-0.184736132310247,0.310506029657602,-0.176119923881154));
#1172=CARTESIAN_POINT('',(-0.184736132310247,0.332506029657602,-0.176119923881154));
#1173=CARTESIAN_POINT('',(-0.184736132310247,0.354506029657602,-0.176119923881154));
#1174=CARTESIAN_POINT('',(-0.157736132310247,0.354506029657602,-0.176119923881154));
#1175=CARTESIAN_POINT('',(-0.157736132310247,0.332631029657602,0.0786350420555346));
#1176=CARTESIAN_POINT('',(-0.157736132310247,0.342506029657602,-0.139923526466919));
#1177=CARTESIAN_POINT('',(-0.157736132310247,0.347156029657602,-0.139923526466919));
#1178=CARTESIAN_POINT('',(-0.157736132310247,0.322506029657602,-0.139923526466919));
#1179=CARTESIAN_POINT('',(-0.157736132310247,0.327156029657602,-0.139923526466919));
#1180=CARTESIAN_POINT('',(-0.157736132310247,0.332506029657602,-0.161119923881155));
#1181=CARTESIAN_POINT('',(-0.157736132310247,0.337156029657602,-0.161119923881155));
#1182=CARTESIAN_POINT('',(-0.157736132310247,0.332631029657602,-0.134119923881154));
#1183=CARTESIAN_POINT('',(-0.157736132310247,0.354506029657602,-0.134119923881154));
#1184=CARTESIAN_POINT('',(-0.157736132310247,0.310506029657602,-0.134119923881154));
#1185=CARTESIAN_POINT('',(-0.157736132310247,0.310506029657602,-0.176119923881154));
#1186=CARTESIAN_POINT('',(-0.157736132310247,0.310506029657602,-0.173119923881154));
#1187=CARTESIAN_POINT('',(-0.157736132310247,0.357506029657602,-0.173119923881154));
#1188=CARTESIAN_POINT('',(-0.157736132310247,0.354506029657602,-0.173119923881154));
#1189=CARTESIAN_POINT('',(-0.157736132310247,0.354506029657602,0.0786350420555346));
#1190=CARTESIAN_POINT('',(-0.187736132310247,0.332631029657602,0.0786350420555346));
#1191=CARTESIAN_POINT('',(-0.187736132310247,0.342506029657602,-0.139923526466919));
#1192=CARTESIAN_POINT('',(-0.187736132310247,0.347156029657602,-0.139923526466919));
#1193=CARTESIAN_POINT('',(-0.187736132310247,0.322506029657602,-0.139923526466919));
#1194=CARTESIAN_POINT('',(-0.187736132310247,0.327156029657602,-0.139923526466919));
#1195=CARTESIAN_POINT('',(-0.187736132310247,0.332506029657602,-0.161119923881155));
#1196=CARTESIAN_POINT('',(-0.187736132310247,0.337156029657602,-0.161119923881155));
#1197=CARTESIAN_POINT('',(-0.187736132310247,0.332631029657602,-0.173119923881154));
#1198=CARTESIAN_POINT('',(-0.187736132310247,0.354506029657602,-0.173119923881154));
#1199=CARTESIAN_POINT('',(-0.187736132310247,0.310506029657602,-0.173119923881154));
#1200=CARTESIAN_POINT('',(-0.187736132310247,0.310506029657602,0.0786350420555346));
#1201=CARTESIAN_POINT('',(-0.187736132310247,0.310506029657602,-0.134119923881154));
#1202=CARTESIAN_POINT('',(-0.187736132310247,0.357506029657602,-0.134119923881154));
#1203=CARTESIAN_POINT('',(-0.187736132310247,0.354506029657602,-0.134119923881154));
#1204=CARTESIAN_POINT('',(-0.187736132310247,0.354506029657602,-0.176119923881154));
#1205=CARTESIAN_POINT('',(-0.172789642517814,-0.49311246704725,-0.171498574116913));
#1206=CARTESIAN_POINT('',(-0.182789642517814,-0.49311246704725,-0.171498574116913));
#1207=CARTESIAN_POINT('',(-0.162789642517813,-0.49311246704725,-0.171498574116913));
#1208=CARTESIAN_POINT('',(-0.182789642517814,-0.49311246704725,-0.161500000000077));
#1209=CARTESIAN_POINT('',(-0.182789642517813,0.332506029657602,-0.161119923881155));
#1210=CARTESIAN_POINT('',(-0.182789642517813,0.335156029657602,-0.161119923881155));
#1211=CARTESIAN_POINT('',(-0.182789642517814,-0.49311246704725,-0.15150142588324));
#1212=CARTESIAN_POINT('',(-0.172789642517814,-0.49311246704725,-0.15150142588324));
#1213=CARTESIAN_POINT('',(-0.162789642517813,-0.49311246704725,-0.15150142588324));
#1214=CARTESIAN_POINT('',(-0.162789642517813,0.352506029657602,-0.15150142588324));
#1215=CARTESIAN_POINT('',(-0.172789642517814,0.352506029657602,-0.15150142588324));
#1216=CARTESIAN_POINT('',(-0.182736132310247,0.352506029657602,-0.15150142588324));
#1217=CARTESIAN_POINT('',(-0.182736132310247,-0.49311246704725,-0.15150142588324));
#1218=CARTESIAN_POINT('',(-0.182736132310247,0.312506029657602,-0.15150142588324));
#1219=CARTESIAN_POINT('',(-0.172789642517814,0.312506029657602,-0.15150142588324));
#1220=CARTESIAN_POINT('',(-0.162789642517813,0.312506029657602,-0.15150142588324));
#1221=CARTESIAN_POINT('',(-0.162789642517813,-0.49311246704725,-0.15150142588324));
#1222=CARTESIAN_POINT('',(-0.162789642517813,-0.49311246704725,-0.161500000000077));
#1223=CARTESIAN_POINT('',(-0.162789642517813,0.332506029657602,-0.161119923881155));
#1224=CARTESIAN_POINT('',(-0.162789642517814,0.335156029657602,-0.161119923881155));
#1225=CARTESIAN_POINT('',(-0.162789642517813,-0.49311246704725,-0.161119923881155));
#1226=CARTESIAN_POINT('',(-0.162789642517813,0.352506029657602,-0.161119923881155));
#1227=CARTESIAN_POINT('',(-0.162789642517813,0.352506029657602,-0.161500000000077));
#1228=CARTESIAN_POINT('',(-0.162789642517813,0.312506029657602,-0.161500000000077));
#1229=CARTESIAN_POINT('',(-0.182736132310247,0.332506029657602,-0.161119923881155));
#1230=CARTESIAN_POINT('',(-0.182736132310247,0.322506029657602,-0.139923526466919));
#1231=CARTESIAN_POINT('',(-0.182736132310247,0.325156029657602,-0.139923526466919));
#1232=CARTESIAN_POINT('',(-0.182736132310247,0.342506029657602,-0.139923526466919));
#1233=CARTESIAN_POINT('',(-0.182736132310247,0.345156029657602,-0.139923526466919));
#1234=CARTESIAN_POINT('',(-0.182736132310247,0.352506029657602,-0.161119923881155));
#1235=CARTESIAN_POINT('',(-0.182736132310247,0.312506029657602,-0.161119923881155));
#1236=CARTESIAN_POINT('',(-0.172736132310247,0.352506029657602,-0.161119923881155));
#1237=CARTESIAN_POINT('',(-0.172736132310247,0.352506029657602,-0.161119923881155));
#1238=CARTESIAN_POINT('',(-0.162736132310247,0.352506029657602,-0.161119923881155));
#1239=CARTESIAN_POINT('',(-0.162736132310247,0.352506029657602,-0.161119923881155));
#1240=CARTESIAN_POINT('',(-0.172736132310247,0.312506029657602,-0.161119923881155));
#1241=CARTESIAN_POINT('',(-0.162736132310247,0.312506029657602,-0.161119923881155));
#1242=CARTESIAN_POINT('',(-0.162736132310247,0.332506029657602,-0.161119923881155));
#1243=CARTESIAN_POINT('',(-0.162736132310247,0.332506029657602,-0.161119923881155));
#1244=CARTESIAN_POINT('',(-0.162736132310247,0.335156029657602,-0.161119923881155));
#1245=CARTESIAN_POINT('',(-0.162736132310247,0.332506029657602,-0.161119923881155));
#1246=CARTESIAN_POINT('',(-0.162736132310247,0.322506029657602,-0.139923526466919));
#1247=CARTESIAN_POINT('',(-0.162736132310247,0.325156029657602,-0.139923526466919));
#1248=CARTESIAN_POINT('',(-0.162736132310247,0.342506029657602,-0.139923526466919));
#1249=CARTESIAN_POINT('',(-0.162736132310247,0.345156029657602,-0.139923526466919));
#1250=CARTESIAN_POINT('',(0.0377886960470539,0.332506029657602,-0.161119923881155));
#1251=CARTESIAN_POINT('',(-0.582554972300497,0.335156029657602,-0.161119923881155));
#1252=CARTESIAN_POINT('',(-0.187736132310247,0.332631029657602,-0.173119923881154));
#1253=CARTESIAN_POINT('',(-0.184736132310247,0.354506029657602,-0.176119923881154));
#1254=CARTESIAN_POINT('',(-0.187736132310247,0.310506029657602,-0.173119923881154));
#1255=CARTESIAN_POINT('',(-0.184736132310247,0.354506029657602,-0.176119923881154));
#1256=CARTESIAN_POINT('',(-0.184736132310247,0.354506029657602,-0.176119923881154));
#1257=CARTESIAN_POINT('',(-0.186236132310247,0.356006029657602,-0.173119923881154));
#1258=CARTESIAN_POINT('',(-0.187736132310247,0.310506029657602,-0.173119923881154));
#1259=CARTESIAN_POINT('',(-0.187736132310247,0.310506029657602,-0.173119923881154));
#1260=CARTESIAN_POINT('',(-0.184736132310247,0.309006029657602,-0.174619923881154));
#1261=CARTESIAN_POINT('',(-0.184736132310247,0.357506029657602,-0.153619923881155));
#1262=CARTESIAN_POINT('',(-0.187736132310247,0.354506029657602,-0.134119923881154));
#1263=CARTESIAN_POINT('',(-0.157736132310247,0.357506029657602,-0.173119923881154));
#1264=CARTESIAN_POINT('',(-0.160736132310247,0.356006029657602,-0.174619923881154));
#1265=CARTESIAN_POINT('',(-0.160736132310247,0.332506029657602,-0.176119923881154));
#1266=CARTESIAN_POINT('',(-0.160736132310247,0.310506029657602,-0.176119923881154));
#1267=CARTESIAN_POINT('',(-0.157736132310247,0.354506029657602,-0.173119923881154));
#1268=CARTESIAN_POINT('',(-0.157736132310247,0.310506029657602,-0.176119923881154));
#1269=CARTESIAN_POINT('',(-0.160736132310247,0.310506029657602,-0.176119923881154));
#1270=CARTESIAN_POINT('',(-0.187736132310247,0.310506029657602,0.0786350420555346));
#1271=CARTESIAN_POINT('',(-0.186236132310247,0.309006029657602,-0.134119923881154));
#1272=CARTESIAN_POINT('',(-0.184736132310247,0.332506029657602,-0.131119923881154));
#1273=CARTESIAN_POINT('',(-0.187736132310247,0.354506029657602,-0.134119923881154));
#1274=CARTESIAN_POINT('',(-0.184736132310247,0.310506029657602,-0.131119923881154));
#1275=CARTESIAN_POINT('',(-0.187736132310247,0.354506029657602,-0.134119923881154));
#1276=CARTESIAN_POINT('',(-0.184736132310247,0.356006029657602,-0.132619923881154));
#1277=CARTESIAN_POINT('',(-0.157736132310247,0.354506029657602,-0.173119923881154));
#1278=CARTESIAN_POINT('',(-0.157736132310247,0.354506029657602,-0.173119923881154));
#1279=CARTESIAN_POINT('',(-0.160736132310247,0.310506029657602,-0.176119923881154));
#1280=CARTESIAN_POINT('',(-0.159236132310247,0.309006029657602,-0.173119923881154));
#1281=CARTESIAN_POINT('',(-0.184736132310247,0.310506029657602,-0.131119923881154));
#1282=CARTESIAN_POINT('',(-0.184736132310247,0.310506029657602,-0.131119923881154));
#1283=CARTESIAN_POINT('',(-0.157736132310247,0.354506029657602,-0.131119923881154));
#1284=CARTESIAN_POINT('',(-0.160736132310247,0.354506029657602,-0.131119923881154));
#1285=CARTESIAN_POINT('',(-0.157736132310247,0.354506029657602,0.0786350420555346));
#1286=CARTESIAN_POINT('',(-0.159236132310247,0.356006029657602,-0.134119923881154));
#1287=CARTESIAN_POINT('',(-0.160736132310247,0.307506029657602,-0.153619923881155));
#1288=CARTESIAN_POINT('',(-0.157736132310247,0.310506029657602,-0.134119923881154));
#1289=CARTESIAN_POINT('',(-0.157736132310247,0.307506029657602,-0.134119923881154));
#1290=CARTESIAN_POINT('',(-0.160736132310247,0.309006029657602,-0.132619923881154));
#1291=CARTESIAN_POINT('',(-0.160736132310247,0.354506029657602,-0.131119923881154));
#1292=CARTESIAN_POINT('',(-0.160736132310247,0.354506029657602,-0.131119923881154));
#1293=CARTESIAN_POINT('',(-0.157736132310247,0.310506029657602,-0.134119923881154));
#1294=CARTESIAN_POINT('',(-0.157736132310247,0.310506029657602,-0.134119923881154));
#1295=CARTESIAN_POINT('',(-0.157736132310247,0.332631029657602,-0.134119923881154));
#1296=CARTESIAN_POINT('',(-0.582554972300497,0.332506029657602,-0.161119923881155));
#1297=CARTESIAN_POINT('',(-0.159736132310247,0.332506029657602,-0.161119923881155));
#1298=CARTESIAN_POINT('',(-0.159736132310247,0.335156029657602,-0.161119923881155));
#1299=CARTESIAN_POINT('',(-0.582554972300497,0.342506029657602,-0.139923526466919));
#1300=CARTESIAN_POINT('',(-0.159736132310247,0.342506029657602,-0.139923526466919));
#1301=CARTESIAN_POINT('',(-0.159736132310247,0.345156029657602,-0.139923526466919));
#1302=CARTESIAN_POINT('',(-0.582554972300497,0.322506029657602,-0.139923526466919));
#1303=CARTESIAN_POINT('',(-0.159736132310247,0.322506029657602,-0.139923526466919));
#1304=CARTESIAN_POINT('',(-0.159736132310247,0.325156029657602,-0.139923526466919));
#1305=CARTESIAN_POINT('',(-0.582554972300497,0.342506029657602,-0.139923526466919));
#1306=CARTESIAN_POINT('',(-0.185736132310247,0.342506029657602,-0.139923526466919));
#1307=CARTESIAN_POINT('',(-0.185736132310247,0.345156029657602,-0.139923526466919));
#1308=CARTESIAN_POINT('',(-0.582554972300497,0.322506029657602,-0.139923526466919));
#1309=CARTESIAN_POINT('',(-0.185736132310247,0.322506029657602,-0.139923526466919));
#1310=CARTESIAN_POINT('',(-0.185736132310247,0.325156029657602,-0.139923526466919));
#1311=CARTESIAN_POINT('',(-0.582554972300497,0.332506029657602,-0.161119923881155));
#1312=CARTESIAN_POINT('',(-0.185736132310247,0.332506029657602,-0.161119923881155));
#1313=CARTESIAN_POINT('',(-0.185736132310247,0.335156029657602,-0.161119923881155));
#1314=CARTESIAN_POINT('',(-0.157736132310247,0.342506029657602,-0.139923526466919));
#1315=CARTESIAN_POINT('',(-0.157736132310247,0.322506029657602,-0.139923526466919));
#1316=CARTESIAN_POINT('',(-0.157736132310247,0.332506029657602,-0.161119923881155));
#1317=CARTESIAN_POINT('',(-0.185736132310247,0.342506029657602,-0.139923526466919));
#1318=CARTESIAN_POINT('',(-0.185736132310247,0.322506029657602,-0.139923526466919));
#1319=CARTESIAN_POINT('',(-0.185736132310247,0.332506029657602,-0.161119923881155));
#1320=MECHANICAL_DESIGN_GEOMETRIC_PRESENTATION_REPRESENTATION('',(#808),
#1321);
#1321=(
GEOMETRIC_REPRESENTATION_CONTEXT(3)
GLOBAL_UNCERTAINTY_ASSIGNED_CONTEXT((#1322))
GLOBAL_UNIT_ASSIGNED_CONTEXT((#1325,#1324,#1323))
REPRESENTATION_CONTEXT('Ext Connector','TOP_LEVEL_ASSEMBLY_PART')
);
#1322=UNCERTAINTY_MEASURE_WITH_UNIT(LENGTH_MEASURE(1.E-8),#1325,
'DISTANCE_ACCURACY_VALUE','Maximum Tolerance applied to model');
#1323=(
NAMED_UNIT(*)
SI_UNIT($,.STERADIAN.)
SOLID_ANGLE_UNIT()
);
#1324=(
NAMED_UNIT(*)
PLANE_ANGLE_UNIT()
SI_UNIT($,.RADIAN.)
);
#1325=(
LENGTH_UNIT()
NAMED_UNIT(*)
SI_UNIT($,.METRE.)
);
#1326=PRODUCT_DEFINITION_SHAPE('','',#1327);
#1327=PRODUCT_DEFINITION('','',#1329,#1328);
#1328=PRODUCT_DEFINITION_CONTEXT('',#1335,'design');
#1329=PRODUCT_DEFINITION_FORMATION_WITH_SPECIFIED_SOURCE('','',#1331,
 .NOT_KNOWN.);
#1330=PRODUCT_RELATED_PRODUCT_CATEGORY('','',(#1331));
#1331=PRODUCT('Ext Connector','Ext Connector','Ext Connector',(#1333));
#1332=PRODUCT_CATEGORY('','');
#1333=PRODUCT_CONTEXT('',#1335,'mechanical');
#1334=APPLICATION_PROTOCOL_DEFINITION('international standard',
'ap242_managed_model_based_3d_engineering',2020,#1335);
#1335=APPLICATION_CONTEXT('managed model based 3d engineering');
ENDSEC;
END-ISO-10303-21;
