ISO-10303-21;
HEADER;
/* Generated by software containing ST-Developer
 * from STEP Tools, Inc. (www.steptools.com) 
 */
/* OPTION: using custom renumber hook */

FILE_DESCRIPTION(
/* description */ ('STEP AP242 Edition 2',
'CAx-IF Rec.Pracs.---Representation and Presentation of Product Manufa
cturing Information (PMI)---4.0---2014-10-13',
'CAx-IF Rec.Pracs.---3D Tessellated Geometry---0.4---2014-09-14','2;1',
'CAx-IF Rec.Pracs.---User Defined Attributes---1.5---2016-08-15'),
/* implementation_level */ '2;1');

FILE_NAME(
/* name */ 'NOT-618 - Lead Adapter (1)',
/* time_stamp */ '2026-07-26T08:51:49Z',
/* author */ (''),
/* organization */ (''),
/* preprocessor_version */ 'ST-DEVELOPER v20',
/* originating_system */ 'ONSHAPE BY PTC INC, 1.218',
/* authorisation */ '  ');

FILE_SCHEMA (('AP242_MANAGED_MODEL_BASED_3D_ENGINEERING_MIM_LF { 1 0 10303 442 3 1 4 }'));
ENDSEC;

DATA;
#10=SHAPE_REPRESENTATION_RELATIONSHIP('','',#673,#11);
#11=ADVANCED_BREP_SHAPE_REPRESENTATION('',(#671),#1094);
#12=CONICAL_SURFACE('',#731,0.0025,0.785398163397448);
#13=CYLINDRICAL_SURFACE('',#681,0.0025);
#14=CYLINDRICAL_SURFACE('',#684,0.0025);
#15=CYLINDRICAL_SURFACE('',#701,0.005);
#16=CYLINDRICAL_SURFACE('',#703,0.0025);
#17=CYLINDRICAL_SURFACE('',#705,0.011);
#18=CYLINDRICAL_SURFACE('',#717,0.00175);
#19=CYLINDRICAL_SURFACE('',#720,0.00175);
#20=CYLINDRICAL_SURFACE('',#723,0.00175);
#21=CYLINDRICAL_SURFACE('',#726,0.00175);
#22=LINE('',#915,#85);
#23=LINE('',#918,#86);
#24=LINE('',#920,#87);
#25=LINE('',#922,#88);
#26=LINE('',#924,#89);
#27=LINE('',#928,#90);
#28=LINE('',#931,#91);
#29=LINE('',#933,#92);
#30=LINE('',#935,#93);
#31=LINE('',#937,#94);
#32=LINE('',#939,#95);
#33=LINE('',#941,#96);
#34=LINE('',#943,#97);
#35=LINE('',#945,#98);
#36=LINE('',#947,#99);
#37=LINE('',#949,#100);
#38=LINE('',#951,#101);
#39=LINE('',#953,#102);
#40=LINE('',#956,#103);
#41=LINE('',#957,#104);
#42=LINE('',#959,#105);
#43=LINE('',#961,#106);
#44=LINE('',#963,#107);
#45=LINE('',#965,#108);
#46=LINE('',#970,#109);
#47=LINE('',#972,#110);
#48=LINE('',#974,#111);
#49=LINE('',#976,#112);
#50=LINE('',#978,#113);
#51=LINE('',#979,#114);
#52=LINE('',#984,#115);
#53=LINE('',#985,#116);
#54=LINE('',#986,#117);
#55=LINE('',#988,#118);
#56=LINE('',#990,#119);
#57=LINE('',#992,#120);
#58=LINE('',#994,#121);
#59=LINE('',#996,#122);
#60=LINE('',#998,#123);
#61=LINE('',#1000,#124);
#62=LINE('',#1002,#125);
#63=LINE('',#1006,#126);
#64=LINE('',#1008,#127);
#65=LINE('',#1010,#128);
#66=LINE('',#1014,#129);
#67=LINE('',#1016,#130);
#68=LINE('',#1018,#131);
#69=LINE('',#1020,#132);
#70=LINE('',#1022,#133);
#71=LINE('',#1024,#134);
#72=LINE('',#1026,#135);
#73=LINE('',#1028,#136);
#74=LINE('',#1029,#137);
#75=LINE('',#1030,#138);
#76=LINE('',#1046,#139);
#77=LINE('',#1049,#140);
#78=LINE('',#1050,#141);
#79=LINE('',#1060,#142);
#80=LINE('',#1061,#143);
#81=LINE('',#1062,#144);
#82=LINE('',#1063,#145);
#83=LINE('',#1065,#146);
#84=LINE('',#1067,#147);
#85=VECTOR('',#738,1.);
#86=VECTOR('',#739,1.);
#87=VECTOR('',#740,1.);
#88=VECTOR('',#741,1.);
#89=VECTOR('',#742,1.);
#90=VECTOR('',#747,1.);
#91=VECTOR('',#748,1.);
#92=VECTOR('',#749,1.);
#93=VECTOR('',#750,1.);
#94=VECTOR('',#751,1.);
#95=VECTOR('',#754,1.);
#96=VECTOR('',#755,1.);
#97=VECTOR('',#756,1.);
#98=VECTOR('',#757,1.);
#99=VECTOR('',#758,1.);
#100=VECTOR('',#759,1.);
#101=VECTOR('',#760,1.);
#102=VECTOR('',#763,1.);
#103=VECTOR('',#764,1.);
#104=VECTOR('',#765,1.);
#105=VECTOR('',#766,1.);
#106=VECTOR('',#767,1.);
#107=VECTOR('',#768,1.);
#108=VECTOR('',#769,1.);
#109=VECTOR('',#776,1.);
#110=VECTOR('',#777,1.);
#111=VECTOR('',#778,1.);
#112=VECTOR('',#779,1.);
#113=VECTOR('',#780,1.);
#114=VECTOR('',#781,1.);
#115=VECTOR('',#788,1.);
#116=VECTOR('',#789,1.);
#117=VECTOR('',#790,1.);
#118=VECTOR('',#793,1.);
#119=VECTOR('',#794,1.);
#120=VECTOR('',#795,1.);
#121=VECTOR('',#796,1.);
#122=VECTOR('',#799,1.);
#123=VECTOR('',#800,1.);
#124=VECTOR('',#801,1.);
#125=VECTOR('',#802,1.);
#126=VECTOR('',#807,1.);
#127=VECTOR('',#808,1.);
#128=VECTOR('',#809,1.);
#129=VECTOR('',#814,1.);
#130=VECTOR('',#815,1.);
#131=VECTOR('',#816,1.);
#132=VECTOR('',#817,1.);
#133=VECTOR('',#818,1.);
#134=VECTOR('',#821,1.);
#135=VECTOR('',#822,1.);
#136=VECTOR('',#823,1.);
#137=VECTOR('',#824,1.);
#138=VECTOR('',#825,1.);
#139=VECTOR('',#844,1.);
#140=VECTOR('',#845,1.);
#141=VECTOR('',#846,1.);
#142=VECTOR('',#859,1.);
#143=VECTOR('',#860,1.);
#144=VECTOR('',#861,1.);
#145=VECTOR('',#862,1.);
#146=VECTOR('',#865,1.);
#147=VECTOR('',#868,1.);
#148=ORIENTED_EDGE('',*,*,#312,.F.);
#149=ORIENTED_EDGE('',*,*,#313,.T.);
#150=ORIENTED_EDGE('',*,*,#314,.T.);
#151=ORIENTED_EDGE('',*,*,#315,.F.);
#152=ORIENTED_EDGE('',*,*,#316,.T.);
#153=ORIENTED_EDGE('',*,*,#317,.F.);
#154=ORIENTED_EDGE('',*,*,#318,.F.);
#155=ORIENTED_EDGE('',*,*,#319,.F.);
#156=ORIENTED_EDGE('',*,*,#320,.T.);
#157=ORIENTED_EDGE('',*,*,#321,.F.);
#158=ORIENTED_EDGE('',*,*,#322,.F.);
#159=ORIENTED_EDGE('',*,*,#323,.T.);
#160=ORIENTED_EDGE('',*,*,#321,.T.);
#161=ORIENTED_EDGE('',*,*,#324,.T.);
#162=ORIENTED_EDGE('',*,*,#325,.F.);
#163=ORIENTED_EDGE('',*,*,#326,.F.);
#164=ORIENTED_EDGE('',*,*,#327,.T.);
#165=ORIENTED_EDGE('',*,*,#328,.T.);
#166=ORIENTED_EDGE('',*,*,#329,.T.);
#167=ORIENTED_EDGE('',*,*,#330,.F.);
#168=ORIENTED_EDGE('',*,*,#331,.T.);
#169=ORIENTED_EDGE('',*,*,#332,.T.);
#170=ORIENTED_EDGE('',*,*,#313,.F.);
#171=ORIENTED_EDGE('',*,*,#333,.T.);
#172=ORIENTED_EDGE('',*,*,#334,.T.);
#173=ORIENTED_EDGE('',*,*,#335,.F.);
#174=ORIENTED_EDGE('',*,*,#336,.T.);
#175=ORIENTED_EDGE('',*,*,#337,.T.);
#176=ORIENTED_EDGE('',*,*,#312,.T.);
#177=ORIENTED_EDGE('',*,*,#338,.F.);
#178=ORIENTED_EDGE('',*,*,#315,.T.);
#179=ORIENTED_EDGE('',*,*,#339,.T.);
#180=ORIENTED_EDGE('',*,*,#340,.F.);
#181=ORIENTED_EDGE('',*,*,#341,.F.);
#182=ORIENTED_EDGE('',*,*,#342,.F.);
#183=ORIENTED_EDGE('',*,*,#343,.T.);
#184=ORIENTED_EDGE('',*,*,#319,.T.);
#185=ORIENTED_EDGE('',*,*,#344,.T.);
#186=ORIENTED_EDGE('',*,*,#318,.T.);
#187=ORIENTED_EDGE('',*,*,#345,.F.);
#188=ORIENTED_EDGE('',*,*,#340,.T.);
#189=ORIENTED_EDGE('',*,*,#346,.T.);
#190=ORIENTED_EDGE('',*,*,#331,.F.);
#191=ORIENTED_EDGE('',*,*,#347,.T.);
#192=ORIENTED_EDGE('',*,*,#325,.T.);
#193=ORIENTED_EDGE('',*,*,#348,.T.);
#194=ORIENTED_EDGE('',*,*,#342,.T.);
#195=ORIENTED_EDGE('',*,*,#341,.T.);
#196=ORIENTED_EDGE('',*,*,#338,.T.);
#197=ORIENTED_EDGE('',*,*,#345,.T.);
#198=ORIENTED_EDGE('',*,*,#333,.F.);
#199=ORIENTED_EDGE('',*,*,#317,.T.);
#200=ORIENTED_EDGE('',*,*,#349,.T.);
#201=ORIENTED_EDGE('',*,*,#350,.T.);
#202=ORIENTED_EDGE('',*,*,#351,.F.);
#203=ORIENTED_EDGE('',*,*,#352,.T.);
#204=ORIENTED_EDGE('',*,*,#353,.F.);
#205=ORIENTED_EDGE('',*,*,#322,.T.);
#206=ORIENTED_EDGE('',*,*,#330,.T.);
#207=ORIENTED_EDGE('',*,*,#354,.T.);
#208=ORIENTED_EDGE('',*,*,#355,.T.);
#209=ORIENTED_EDGE('',*,*,#356,.T.);
#210=ORIENTED_EDGE('',*,*,#357,.T.);
#211=ORIENTED_EDGE('',*,*,#326,.T.);
#212=ORIENTED_EDGE('',*,*,#347,.F.);
#213=ORIENTED_EDGE('',*,*,#337,.F.);
#214=ORIENTED_EDGE('',*,*,#358,.T.);
#215=ORIENTED_EDGE('',*,*,#359,.T.);
#216=ORIENTED_EDGE('',*,*,#360,.T.);
#217=ORIENTED_EDGE('',*,*,#361,.F.);
#218=ORIENTED_EDGE('',*,*,#344,.F.);
#219=ORIENTED_EDGE('',*,*,#362,.T.);
#220=ORIENTED_EDGE('',*,*,#363,.T.);
#221=ORIENTED_EDGE('',*,*,#364,.F.);
#222=ORIENTED_EDGE('',*,*,#365,.T.);
#223=ORIENTED_EDGE('',*,*,#366,.F.);
#224=ORIENTED_EDGE('',*,*,#355,.F.);
#225=ORIENTED_EDGE('',*,*,#367,.T.);
#226=ORIENTED_EDGE('',*,*,#368,.F.);
#227=ORIENTED_EDGE('',*,*,#369,.T.);
#228=ORIENTED_EDGE('',*,*,#351,.T.);
#229=ORIENTED_EDGE('',*,*,#370,.T.);
#230=ORIENTED_EDGE('',*,*,#364,.T.);
#231=ORIENTED_EDGE('',*,*,#371,.T.);
#232=ORIENTED_EDGE('',*,*,#372,.T.);
#233=ORIENTED_EDGE('',*,*,#373,.T.);
#234=ORIENTED_EDGE('',*,*,#374,.T.);
#235=ORIENTED_EDGE('',*,*,#375,.T.);
#236=ORIENTED_EDGE('',*,*,#376,.T.);
#237=ORIENTED_EDGE('',*,*,#377,.T.);
#238=ORIENTED_EDGE('',*,*,#376,.F.);
#239=ORIENTED_EDGE('',*,*,#361,.T.);
#240=ORIENTED_EDGE('',*,*,#378,.T.);
#241=ORIENTED_EDGE('',*,*,#379,.T.);
#242=ORIENTED_EDGE('',*,*,#359,.F.);
#243=ORIENTED_EDGE('',*,*,#380,.T.);
#244=ORIENTED_EDGE('',*,*,#381,.T.);
#245=ORIENTED_EDGE('',*,*,#357,.F.);
#246=ORIENTED_EDGE('',*,*,#377,.F.);
#247=ORIENTED_EDGE('',*,*,#382,.T.);
#248=ORIENTED_EDGE('',*,*,#383,.T.);
#249=ORIENTED_EDGE('',*,*,#368,.T.);
#250=ORIENTED_EDGE('',*,*,#384,.T.);
#251=ORIENTED_EDGE('',*,*,#328,.F.);
#252=ORIENTED_EDGE('',*,*,#385,.T.);
#253=ORIENTED_EDGE('',*,*,#378,.F.);
#254=ORIENTED_EDGE('',*,*,#386,.T.);
#255=ORIENTED_EDGE('',*,*,#335,.T.);
#256=ORIENTED_EDGE('',*,*,#387,.T.);
#257=ORIENTED_EDGE('',*,*,#382,.F.);
#258=ORIENTED_EDGE('',*,*,#316,.F.);
#259=ORIENTED_EDGE('',*,*,#366,.T.);
#260=ORIENTED_EDGE('',*,*,#388,.T.);
#261=ORIENTED_EDGE('',*,*,#349,.F.);
#262=ORIENTED_EDGE('',*,*,#323,.F.);
#263=ORIENTED_EDGE('',*,*,#353,.T.);
#264=ORIENTED_EDGE('',*,*,#389,.T.);
#265=ORIENTED_EDGE('',*,*,#362,.F.);
#266=ORIENTED_EDGE('',*,*,#388,.F.);
#267=ORIENTED_EDGE('',*,*,#365,.F.);
#268=ORIENTED_EDGE('',*,*,#370,.F.);
#269=ORIENTED_EDGE('',*,*,#350,.F.);
#270=ORIENTED_EDGE('',*,*,#356,.F.);
#271=ORIENTED_EDGE('',*,*,#371,.F.);
#272=ORIENTED_EDGE('',*,*,#363,.F.);
#273=ORIENTED_EDGE('',*,*,#389,.F.);
#274=ORIENTED_EDGE('',*,*,#354,.F.);
#275=ORIENTED_EDGE('',*,*,#329,.F.);
#276=ORIENTED_EDGE('',*,*,#384,.F.);
#277=ORIENTED_EDGE('',*,*,#367,.F.);
#278=ORIENTED_EDGE('',*,*,#352,.F.);
#279=ORIENTED_EDGE('',*,*,#369,.F.);
#280=ORIENTED_EDGE('',*,*,#387,.F.);
#281=ORIENTED_EDGE('',*,*,#334,.F.);
#282=ORIENTED_EDGE('',*,*,#360,.F.);
#283=ORIENTED_EDGE('',*,*,#379,.F.);
#284=ORIENTED_EDGE('',*,*,#385,.F.);
#285=ORIENTED_EDGE('',*,*,#327,.F.);
#286=ORIENTED_EDGE('',*,*,#358,.F.);
#287=ORIENTED_EDGE('',*,*,#336,.F.);
#288=ORIENTED_EDGE('',*,*,#386,.F.);
#289=ORIENTED_EDGE('',*,*,#380,.F.);
#290=ORIENTED_EDGE('',*,*,#390,.F.);
#291=ORIENTED_EDGE('',*,*,#375,.F.);
#292=ORIENTED_EDGE('',*,*,#390,.T.);
#293=ORIENTED_EDGE('',*,*,#391,.F.);
#294=ORIENTED_EDGE('',*,*,#374,.F.);
#295=ORIENTED_EDGE('',*,*,#391,.T.);
#296=ORIENTED_EDGE('',*,*,#392,.F.);
#297=ORIENTED_EDGE('',*,*,#373,.F.);
#298=ORIENTED_EDGE('',*,*,#392,.T.);
#299=ORIENTED_EDGE('',*,*,#393,.F.);
#300=ORIENTED_EDGE('',*,*,#372,.F.);
#301=ORIENTED_EDGE('',*,*,#393,.T.);
#302=ORIENTED_EDGE('',*,*,#314,.F.);
#303=ORIENTED_EDGE('',*,*,#332,.F.);
#304=ORIENTED_EDGE('',*,*,#346,.F.);
#305=ORIENTED_EDGE('',*,*,#339,.F.);
#306=ORIENTED_EDGE('',*,*,#320,.F.);
#307=ORIENTED_EDGE('',*,*,#343,.F.);
#308=ORIENTED_EDGE('',*,*,#348,.F.);
#309=ORIENTED_EDGE('',*,*,#324,.F.);
#310=ORIENTED_EDGE('',*,*,#383,.F.);
#311=ORIENTED_EDGE('',*,*,#381,.F.);
#312=EDGE_CURVE('',#394,#394,#455,.T.);
#313=EDGE_CURVE('',#395,#396,#22,.T.);
#314=EDGE_CURVE('',#396,#397,#23,.T.);
#315=EDGE_CURVE('',#398,#397,#24,.T.);
#316=EDGE_CURVE('',#398,#399,#25,.T.);
#317=EDGE_CURVE('',#395,#399,#26,.F.);
#318=EDGE_CURVE('',#400,#400,#456,.T.);
#319=EDGE_CURVE('',#401,#402,#27,.T.);
#320=EDGE_CURVE('',#401,#403,#28,.F.);
#321=EDGE_CURVE('',#404,#403,#29,.T.);
#322=EDGE_CURVE('',#405,#404,#30,.F.);
#323=EDGE_CURVE('',#405,#402,#31,.T.);
#324=EDGE_CURVE('',#403,#406,#32,.T.);
#325=EDGE_CURVE('',#407,#406,#33,.T.);
#326=EDGE_CURVE('',#408,#407,#34,.T.);
#327=EDGE_CURVE('',#408,#409,#35,.T.);
#328=EDGE_CURVE('',#409,#410,#36,.T.);
#329=EDGE_CURVE('',#410,#411,#37,.T.);
#330=EDGE_CURVE('',#404,#411,#38,.T.);
#331=EDGE_CURVE('',#412,#413,#39,.T.);
#332=EDGE_CURVE('',#413,#396,#40,.T.);
#333=EDGE_CURVE('',#395,#414,#41,.T.);
#334=EDGE_CURVE('',#414,#415,#42,.T.);
#335=EDGE_CURVE('',#416,#415,#43,.T.);
#336=EDGE_CURVE('',#416,#417,#44,.T.);
#337=EDGE_CURVE('',#417,#412,#45,.T.);
#338=EDGE_CURVE('',#418,#418,#457,.T.);
#339=EDGE_CURVE('',#397,#419,#46,.T.);
#340=EDGE_CURVE('',#420,#419,#47,.T.);
#341=EDGE_CURVE('',#421,#420,#48,.T.);
#342=EDGE_CURVE('',#422,#421,#49,.T.);
#343=EDGE_CURVE('',#422,#401,#50,.T.);
#344=EDGE_CURVE('',#402,#398,#51,.T.);
#345=EDGE_CURVE('',#423,#423,#458,.T.);
#346=EDGE_CURVE('',#419,#413,#52,.T.);
#347=EDGE_CURVE('',#412,#407,#53,.T.);
#348=EDGE_CURVE('',#406,#422,#54,.F.);
#349=EDGE_CURVE('',#399,#424,#55,.T.);
#350=EDGE_CURVE('',#424,#425,#56,.T.);
#351=EDGE_CURVE('',#426,#425,#57,.T.);
#352=EDGE_CURVE('',#426,#414,#58,.F.);
#353=EDGE_CURVE('',#405,#427,#59,.T.);
#354=EDGE_CURVE('',#411,#428,#60,.T.);
#355=EDGE_CURVE('',#428,#429,#61,.T.);
#356=EDGE_CURVE('',#429,#427,#62,.T.);
#357=EDGE_CURVE('',#430,#430,#459,.T.);
#358=EDGE_CURVE('',#417,#431,#63,.T.);
#359=EDGE_CURVE('',#431,#432,#64,.T.);
#360=EDGE_CURVE('',#432,#408,#65,.F.);
#361=EDGE_CURVE('',#433,#433,#460,.T.);
#362=EDGE_CURVE('',#402,#434,#66,.T.);
#363=EDGE_CURVE('',#434,#435,#67,.T.);
#364=EDGE_CURVE('',#436,#435,#68,.T.);
#365=EDGE_CURVE('',#436,#437,#69,.T.);
#366=EDGE_CURVE('',#398,#437,#70,.T.);
#367=EDGE_CURVE('',#428,#438,#71,.T.);
#368=EDGE_CURVE('',#439,#438,#72,.T.);
#369=EDGE_CURVE('',#439,#426,#73,.T.);
#370=EDGE_CURVE('',#425,#436,#74,.T.);
#371=EDGE_CURVE('',#435,#429,#75,.T.);
#372=EDGE_CURVE('',#440,#440,#461,.T.);
#373=EDGE_CURVE('',#441,#441,#462,.T.);
#374=EDGE_CURVE('',#442,#442,#463,.T.);
#375=EDGE_CURVE('',#443,#443,#464,.T.);
#376=EDGE_CURVE('',#444,#444,#465,.T.);
#377=EDGE_CURVE('',#445,#445,#466,.T.);
#378=EDGE_CURVE('',#446,#447,#76,.T.);
#379=EDGE_CURVE('',#447,#432,#77,.T.);
#380=EDGE_CURVE('',#431,#446,#78,.T.);
#381=EDGE_CURVE('',#448,#448,#467,.T.);
#382=EDGE_CURVE('',#449,#449,#468,.T.);
#383=EDGE_CURVE('',#450,#450,#469,.F.);
#384=EDGE_CURVE('',#438,#410,#79,.T.);
#385=EDGE_CURVE('',#409,#447,#80,.F.);
#386=EDGE_CURVE('',#446,#416,#81,.T.);
#387=EDGE_CURVE('',#415,#439,#82,.F.);
#388=EDGE_CURVE('',#437,#424,#83,.T.);
#389=EDGE_CURVE('',#427,#434,#84,.T.);
#390=EDGE_CURVE('',#451,#451,#470,.T.);
#391=EDGE_CURVE('',#452,#452,#471,.T.);
#392=EDGE_CURVE('',#453,#453,#472,.T.);
#393=EDGE_CURVE('',#454,#454,#473,.T.);
#394=VERTEX_POINT('',#914);
#395=VERTEX_POINT('',#916);
#396=VERTEX_POINT('',#917);
#397=VERTEX_POINT('',#919);
#398=VERTEX_POINT('',#921);
#399=VERTEX_POINT('',#923);
#400=VERTEX_POINT('',#927);
#401=VERTEX_POINT('',#929);
#402=VERTEX_POINT('',#930);
#403=VERTEX_POINT('',#932);
#404=VERTEX_POINT('',#934);
#405=VERTEX_POINT('',#936);
#406=VERTEX_POINT('',#940);
#407=VERTEX_POINT('',#942);
#408=VERTEX_POINT('',#944);
#409=VERTEX_POINT('',#946);
#410=VERTEX_POINT('',#948);
#411=VERTEX_POINT('',#950);
#412=VERTEX_POINT('',#954);
#413=VERTEX_POINT('',#955);
#414=VERTEX_POINT('',#958);
#415=VERTEX_POINT('',#960);
#416=VERTEX_POINT('',#962);
#417=VERTEX_POINT('',#964);
#418=VERTEX_POINT('',#968);
#419=VERTEX_POINT('',#971);
#420=VERTEX_POINT('',#973);
#421=VERTEX_POINT('',#975);
#422=VERTEX_POINT('',#977);
#423=VERTEX_POINT('',#982);
#424=VERTEX_POINT('',#989);
#425=VERTEX_POINT('',#991);
#426=VERTEX_POINT('',#993);
#427=VERTEX_POINT('',#997);
#428=VERTEX_POINT('',#999);
#429=VERTEX_POINT('',#1001);
#430=VERTEX_POINT('',#1005);
#431=VERTEX_POINT('',#1007);
#432=VERTEX_POINT('',#1009);
#433=VERTEX_POINT('',#1013);
#434=VERTEX_POINT('',#1015);
#435=VERTEX_POINT('',#1017);
#436=VERTEX_POINT('',#1019);
#437=VERTEX_POINT('',#1021);
#438=VERTEX_POINT('',#1025);
#439=VERTEX_POINT('',#1027);
#440=VERTEX_POINT('',#1033);
#441=VERTEX_POINT('',#1035);
#442=VERTEX_POINT('',#1037);
#443=VERTEX_POINT('',#1039);
#444=VERTEX_POINT('',#1041);
#445=VERTEX_POINT('',#1043);
#446=VERTEX_POINT('',#1047);
#447=VERTEX_POINT('',#1048);
#448=VERTEX_POINT('',#1053);
#449=VERTEX_POINT('',#1056);
#450=VERTEX_POINT('',#1059);
#451=VERTEX_POINT('',#1076);
#452=VERTEX_POINT('',#1080);
#453=VERTEX_POINT('',#1084);
#454=VERTEX_POINT('',#1088);
#455=CIRCLE('',#676,0.0025);
#456=CIRCLE('',#678,0.0025);
#457=CIRCLE('',#682,0.0025);
#458=CIRCLE('',#685,0.0025);
#459=CIRCLE('',#690,0.0025);
#460=CIRCLE('',#692,0.005);
#461=CIRCLE('',#695,0.00175);
#462=CIRCLE('',#696,0.00175);
#463=CIRCLE('',#697,0.00175);
#464=CIRCLE('',#698,0.00175);
#465=CIRCLE('',#699,0.005);
#466=CIRCLE('',#700,0.011);
#467=CIRCLE('',#704,0.0025);
#468=CIRCLE('',#706,0.011);
#469=CIRCLE('',#708,0.0045);
#470=CIRCLE('',#718,0.00175);
#471=CIRCLE('',#721,0.00175);
#472=CIRCLE('',#724,0.00175);
#473=CIRCLE('',#727,0.00175);
#474=EDGE_LOOP('',(#148));
#475=EDGE_LOOP('',(#149,#150,#151,#152,#153));
#476=EDGE_LOOP('',(#154));
#477=EDGE_LOOP('',(#155,#156,#157,#158,#159));
#478=EDGE_LOOP('',(#160,#161,#162,#163,#164,#165,#166,#167));
#479=EDGE_LOOP('',(#168,#169,#170,#171,#172,#173,#174,#175));
#480=EDGE_LOOP('',(#176));
#481=EDGE_LOOP('',(#177));
#482=EDGE_LOOP('',(#178,#179,#180,#181,#182,#183,#184,#185));
#483=EDGE_LOOP('',(#186));
#484=EDGE_LOOP('',(#187));
#485=EDGE_LOOP('',(#188,#189,#190,#191,#192,#193,#194,#195));
#486=EDGE_LOOP('',(#196));
#487=EDGE_LOOP('',(#197));
#488=EDGE_LOOP('',(#198,#199,#200,#201,#202,#203));
#489=EDGE_LOOP('',(#204,#205,#206,#207,#208,#209));
#490=EDGE_LOOP('',(#210));
#491=EDGE_LOOP('',(#211,#212,#213,#214,#215,#216));
#492=EDGE_LOOP('',(#217));
#493=EDGE_LOOP('',(#218,#219,#220,#221,#222,#223));
#494=EDGE_LOOP('',(#224,#225,#226,#227,#228,#229,#230,#231));
#495=EDGE_LOOP('',(#232));
#496=EDGE_LOOP('',(#233));
#497=EDGE_LOOP('',(#234));
#498=EDGE_LOOP('',(#235));
#499=EDGE_LOOP('',(#236));
#500=EDGE_LOOP('',(#237));
#501=EDGE_LOOP('',(#238));
#502=EDGE_LOOP('',(#239));
#503=EDGE_LOOP('',(#240,#241,#242,#243));
#504=EDGE_LOOP('',(#244));
#505=EDGE_LOOP('',(#245));
#506=EDGE_LOOP('',(#246));
#507=EDGE_LOOP('',(#247));
#508=EDGE_LOOP('',(#248));
#509=EDGE_LOOP('',(#249,#250,#251,#252,#253,#254,#255,#256));
#510=EDGE_LOOP('',(#257));
#511=EDGE_LOOP('',(#258,#259,#260,#261));
#512=EDGE_LOOP('',(#262,#263,#264,#265));
#513=EDGE_LOOP('',(#266,#267,#268,#269));
#514=EDGE_LOOP('',(#270,#271,#272,#273));
#515=EDGE_LOOP('',(#274,#275,#276,#277));
#516=EDGE_LOOP('',(#278,#279,#280,#281));
#517=EDGE_LOOP('',(#282,#283,#284,#285));
#518=EDGE_LOOP('',(#286,#287,#288,#289));
#519=EDGE_LOOP('',(#290));
#520=EDGE_LOOP('',(#291));
#521=EDGE_LOOP('',(#292));
#522=EDGE_LOOP('',(#293));
#523=EDGE_LOOP('',(#294));
#524=EDGE_LOOP('',(#295));
#525=EDGE_LOOP('',(#296));
#526=EDGE_LOOP('',(#297));
#527=EDGE_LOOP('',(#298));
#528=EDGE_LOOP('',(#299));
#529=EDGE_LOOP('',(#300));
#530=EDGE_LOOP('',(#301));
#531=EDGE_LOOP('',(#302,#303,#304,#305));
#532=EDGE_LOOP('',(#306,#307,#308,#309));
#533=EDGE_LOOP('',(#310));
#534=EDGE_LOOP('',(#311));
#535=FACE_BOUND('',#474,.T.);
#536=FACE_BOUND('',#475,.T.);
#537=FACE_BOUND('',#476,.T.);
#538=FACE_BOUND('',#477,.T.);
#539=FACE_BOUND('',#478,.T.);
#540=FACE_BOUND('',#479,.T.);
#541=FACE_BOUND('',#480,.T.);
#542=FACE_BOUND('',#481,.T.);
#543=FACE_BOUND('',#482,.T.);
#544=FACE_BOUND('',#483,.T.);
#545=FACE_BOUND('',#484,.T.);
#546=FACE_BOUND('',#485,.T.);
#547=FACE_BOUND('',#486,.T.);
#548=FACE_BOUND('',#487,.T.);
#549=FACE_BOUND('',#488,.T.);
#550=FACE_BOUND('',#489,.T.);
#551=FACE_BOUND('',#490,.T.);
#552=FACE_BOUND('',#491,.T.);
#553=FACE_BOUND('',#492,.T.);
#554=FACE_BOUND('',#493,.T.);
#555=FACE_BOUND('',#494,.T.);
#556=FACE_BOUND('',#495,.T.);
#557=FACE_BOUND('',#496,.T.);
#558=FACE_BOUND('',#497,.T.);
#559=FACE_BOUND('',#498,.T.);
#560=FACE_BOUND('',#499,.T.);
#561=FACE_BOUND('',#500,.T.);
#562=FACE_BOUND('',#501,.T.);
#563=FACE_BOUND('',#502,.T.);
#564=FACE_BOUND('',#503,.T.);
#565=FACE_BOUND('',#504,.T.);
#566=FACE_BOUND('',#505,.T.);
#567=FACE_BOUND('',#506,.T.);
#568=FACE_BOUND('',#507,.T.);
#569=FACE_BOUND('',#508,.T.);
#570=FACE_BOUND('',#509,.T.);
#571=FACE_BOUND('',#510,.T.);
#572=FACE_BOUND('',#511,.T.);
#573=FACE_BOUND('',#512,.T.);
#574=FACE_BOUND('',#513,.T.);
#575=FACE_BOUND('',#514,.T.);
#576=FACE_BOUND('',#515,.T.);
#577=FACE_BOUND('',#516,.T.);
#578=FACE_BOUND('',#517,.T.);
#579=FACE_BOUND('',#518,.T.);
#580=FACE_BOUND('',#519,.T.);
#581=FACE_BOUND('',#520,.T.);
#582=FACE_BOUND('',#521,.T.);
#583=FACE_BOUND('',#522,.T.);
#584=FACE_BOUND('',#523,.T.);
#585=FACE_BOUND('',#524,.T.);
#586=FACE_BOUND('',#525,.T.);
#587=FACE_BOUND('',#526,.T.);
#588=FACE_BOUND('',#527,.T.);
#589=FACE_BOUND('',#528,.T.);
#590=FACE_BOUND('',#529,.T.);
#591=FACE_BOUND('',#530,.T.);
#592=FACE_BOUND('',#531,.T.);
#593=FACE_BOUND('',#532,.T.);
#594=FACE_BOUND('',#533,.T.);
#595=FACE_BOUND('',#534,.T.);
#596=PLANE('',#675);
#597=PLANE('',#677);
#598=PLANE('',#679);
#599=PLANE('',#680);
#600=PLANE('',#683);
#601=PLANE('',#686);
#602=PLANE('',#687);
#603=PLANE('',#688);
#604=PLANE('',#689);
#605=PLANE('',#691);
#606=PLANE('',#693);
#607=PLANE('',#694);
#608=PLANE('',#702);
#609=PLANE('',#707);
#610=PLANE('',#709);
#611=PLANE('',#710);
#612=PLANE('',#711);
#613=PLANE('',#712);
#614=PLANE('',#713);
#615=PLANE('',#714);
#616=PLANE('',#715);
#617=PLANE('',#716);
#618=PLANE('',#719);
#619=PLANE('',#722);
#620=PLANE('',#725);
#621=PLANE('',#728);
#622=PLANE('',#729);
#623=PLANE('',#730);
#624=ADVANCED_FACE('',(#535,#536),#596,.T.);
#625=ADVANCED_FACE('',(#537,#538),#597,.T.);
#626=ADVANCED_FACE('',(#539),#598,.T.);
#627=ADVANCED_FACE('',(#540),#599,.F.);
#628=ADVANCED_FACE('',(#541,#542),#13,.F.);
#629=ADVANCED_FACE('',(#543),#600,.T.);
#630=ADVANCED_FACE('',(#544,#545),#14,.F.);
#631=ADVANCED_FACE('',(#546,#547,#548),#601,.F.);
#632=ADVANCED_FACE('',(#549),#602,.F.);
#633=ADVANCED_FACE('',(#550),#603,.F.);
#634=ADVANCED_FACE('',(#551,#552),#604,.F.);
#635=ADVANCED_FACE('',(#553,#554),#605,.T.);
#636=ADVANCED_FACE('',(#555),#606,.T.);
#637=ADVANCED_FACE('',(#556,#557,#558,#559,#560,#561),#607,.F.);
#638=ADVANCED_FACE('',(#562,#563),#15,.F.);
#639=ADVANCED_FACE('',(#564),#608,.F.);
#640=ADVANCED_FACE('',(#565,#566),#16,.F.);
#641=ADVANCED_FACE('',(#567,#568),#17,.F.);
#642=ADVANCED_FACE('',(#569,#570,#571),#609,.T.);
#643=ADVANCED_FACE('',(#572),#610,.F.);
#644=ADVANCED_FACE('',(#573),#611,.F.);
#645=ADVANCED_FACE('',(#574),#612,.T.);
#646=ADVANCED_FACE('',(#575),#613,.T.);
#647=ADVANCED_FACE('',(#576),#614,.T.);
#648=ADVANCED_FACE('',(#577),#615,.F.);
#649=ADVANCED_FACE('',(#578),#616,.F.);
#650=ADVANCED_FACE('',(#579),#617,.T.);
#651=ADVANCED_FACE('',(#580,#581),#18,.F.);
#652=ADVANCED_FACE('',(#582),#618,.T.);
#653=ADVANCED_FACE('',(#583,#584),#19,.F.);
#654=ADVANCED_FACE('',(#585),#619,.T.);
#655=ADVANCED_FACE('',(#586,#587),#20,.F.);
#656=ADVANCED_FACE('',(#588),#620,.T.);
#657=ADVANCED_FACE('',(#589,#590),#21,.F.);
#658=ADVANCED_FACE('',(#591),#621,.T.);
#659=ADVANCED_FACE('',(#592),#622,.T.);
#660=ADVANCED_FACE('',(#593),#623,.F.);
#661=ADVANCED_FACE('',(#594,#595),#12,.F.);
#662=CLOSED_SHELL('',(#624,#625,#626,#627,#628,#629,#630,#631,#632,#633,
#634,#635,#636,#637,#638,#639,#640,#641,#642,#643,#644,#645,#646,#647,#648,
#649,#650,#651,#652,#653,#654,#655,#656,#657,#658,#659,#660,#661));
#663=STYLED_ITEM('',(#664),#671);
#664=PRESENTATION_STYLE_ASSIGNMENT((#665));
#665=SURFACE_STYLE_USAGE(.BOTH.,#666);
#666=SURFACE_SIDE_STYLE('',(#667));
#667=SURFACE_STYLE_FILL_AREA(#668);
#668=FILL_AREA_STYLE('',(#669));
#669=FILL_AREA_STYLE_COLOUR('',#670);
#670=COLOUR_RGB('',0.866666666666667,0.32156862745098,0.156862745098039);
#671=MANIFOLD_SOLID_BREP('Lead Adapter',#662);
#672=SHAPE_DEFINITION_REPRESENTATION(#1099,#673);
#673=SHAPE_REPRESENTATION('Lead Adapter',(#674),#1094);
#674=AXIS2_PLACEMENT_3D('',#911,#732,#733);
#675=AXIS2_PLACEMENT_3D('',#912,#734,#735);
#676=AXIS2_PLACEMENT_3D('',#913,#736,#737);
#677=AXIS2_PLACEMENT_3D('',#925,#743,#744);
#678=AXIS2_PLACEMENT_3D('',#926,#745,#746);
#679=AXIS2_PLACEMENT_3D('',#938,#752,#753);
#680=AXIS2_PLACEMENT_3D('',#952,#761,#762);
#681=AXIS2_PLACEMENT_3D('',#966,#770,#771);
#682=AXIS2_PLACEMENT_3D('',#967,#772,#773);
#683=AXIS2_PLACEMENT_3D('',#969,#774,#775);
#684=AXIS2_PLACEMENT_3D('',#980,#782,#783);
#685=AXIS2_PLACEMENT_3D('',#981,#784,#785);
#686=AXIS2_PLACEMENT_3D('',#983,#786,#787);
#687=AXIS2_PLACEMENT_3D('',#987,#791,#792);
#688=AXIS2_PLACEMENT_3D('',#995,#797,#798);
#689=AXIS2_PLACEMENT_3D('',#1003,#803,#804);
#690=AXIS2_PLACEMENT_3D('',#1004,#805,#806);
#691=AXIS2_PLACEMENT_3D('',#1011,#810,#811);
#692=AXIS2_PLACEMENT_3D('',#1012,#812,#813);
#693=AXIS2_PLACEMENT_3D('',#1023,#819,#820);
#694=AXIS2_PLACEMENT_3D('',#1031,#826,#827);
#695=AXIS2_PLACEMENT_3D('',#1032,#828,#829);
#696=AXIS2_PLACEMENT_3D('',#1034,#830,#831);
#697=AXIS2_PLACEMENT_3D('',#1036,#832,#833);
#698=AXIS2_PLACEMENT_3D('',#1038,#834,#835);
#699=AXIS2_PLACEMENT_3D('',#1040,#836,#837);
#700=AXIS2_PLACEMENT_3D('',#1042,#838,#839);
#701=AXIS2_PLACEMENT_3D('',#1044,#840,#841);
#702=AXIS2_PLACEMENT_3D('',#1045,#842,#843);
#703=AXIS2_PLACEMENT_3D('',#1051,#847,#848);
#704=AXIS2_PLACEMENT_3D('',#1052,#849,#850);
#705=AXIS2_PLACEMENT_3D('',#1054,#851,#852);
#706=AXIS2_PLACEMENT_3D('',#1055,#853,#854);
#707=AXIS2_PLACEMENT_3D('',#1057,#855,#856);
#708=AXIS2_PLACEMENT_3D('',#1058,#857,#858);
#709=AXIS2_PLACEMENT_3D('',#1064,#863,#864);
#710=AXIS2_PLACEMENT_3D('',#1066,#866,#867);
#711=AXIS2_PLACEMENT_3D('',#1068,#869,#870);
#712=AXIS2_PLACEMENT_3D('',#1069,#871,#872);
#713=AXIS2_PLACEMENT_3D('',#1070,#873,#874);
#714=AXIS2_PLACEMENT_3D('',#1071,#875,#876);
#715=AXIS2_PLACEMENT_3D('',#1072,#877,#878);
#716=AXIS2_PLACEMENT_3D('',#1073,#879,#880);
#717=AXIS2_PLACEMENT_3D('',#1074,#881,#882);
#718=AXIS2_PLACEMENT_3D('',#1075,#883,#884);
#719=AXIS2_PLACEMENT_3D('',#1077,#885,#886);
#720=AXIS2_PLACEMENT_3D('',#1078,#887,#888);
#721=AXIS2_PLACEMENT_3D('',#1079,#889,#890);
#722=AXIS2_PLACEMENT_3D('',#1081,#891,#892);
#723=AXIS2_PLACEMENT_3D('',#1082,#893,#894);
#724=AXIS2_PLACEMENT_3D('',#1083,#895,#896);
#725=AXIS2_PLACEMENT_3D('',#1085,#897,#898);
#726=AXIS2_PLACEMENT_3D('',#1086,#899,#900);
#727=AXIS2_PLACEMENT_3D('',#1087,#901,#902);
#728=AXIS2_PLACEMENT_3D('',#1089,#903,#904);
#729=AXIS2_PLACEMENT_3D('',#1090,#905,#906);
#730=AXIS2_PLACEMENT_3D('',#1091,#907,#908);
#731=AXIS2_PLACEMENT_3D('',#1092,#909,#910);
#732=DIRECTION('',(0.,0.,1.));
#733=DIRECTION('',(1.,0.,0.));
#734=DIRECTION('',(-1.,6.12323399573677E-17,8.57655218742367E-33));
#735=DIRECTION('',(8.57655218742367E-33,-5.25162359202431E-49,1.));
#736=DIRECTION('',(-1.,6.12323399573677E-17,8.57655218742367E-33));
#737=DIRECTION('',(6.12323399573677E-17,1.,0.));
#738=DIRECTION('',(6.12323399573677E-17,1.,-5.25162359202431E-49));
#739=DIRECTION('',(4.32978028117746E-17,0.707106781186548,-0.707106781186548));
#740=DIRECTION('',(8.57655218742367E-33,-5.25162359202431E-49,1.));
#741=DIRECTION('',(-6.12323399573677E-17,-1.,2.89120579329468E-16));
#742=DIRECTION('',(0.,6.03382078600629E-17,1.));
#743=DIRECTION('',(-1.,6.12323399573677E-17,8.57655218742367E-33));
#744=DIRECTION('',(8.57655218742367E-33,-5.25162359202431E-49,1.));
#745=DIRECTION('',(-1.,6.12323399573677E-17,8.57655218742367E-33));
#746=DIRECTION('',(6.12323399573677E-17,1.,0.));
#747=DIRECTION('',(8.57655218742367E-33,-5.25162359202431E-49,1.));
#748=DIRECTION('',(4.32978028117747E-17,0.707106781186548,0.707106781186548));
#749=DIRECTION('',(6.12323399573677E-17,1.,-1.73497086255096E-16));
#750=DIRECTION('',(0.,6.03382078600629E-17,1.));
#751=DIRECTION('',(6.12323399573677E-17,1.,-2.16840434497101E-16));
#752=DIRECTION('',(-1.92001847546084E-32,-1.73497086255096E-16,-1.));
#753=DIRECTION('',(0.,1.,-1.73497086255096E-16));
#754=DIRECTION('',(1.,-6.12323399573677E-17,-8.57655218742367E-33));
#755=DIRECTION('',(6.12323399573677E-17,1.,-1.73497086255096E-16));
#756=DIRECTION('',(-1.,-7.41413248518637E-33,-1.22876246215024E-16));
#757=DIRECTION('',(0.,-1.,6.03382078600629E-17));
#758=DIRECTION('',(-1.,-7.41413248518637E-33,-1.22876246215024E-16));
#759=DIRECTION('',(0.,1.,-6.03382078600629E-17));
#760=DIRECTION('',(-1.,-7.41413248518637E-33,-1.22876246215024E-16));
#761=DIRECTION('',(-8.57655218742367E-33,0.,-1.));
#762=DIRECTION('',(-1.,0.,8.57655218742367E-33));
#763=DIRECTION('',(6.12323399573677E-17,1.,-5.25162359202431E-49));
#764=DIRECTION('',(-1.,6.12323399573677E-17,8.57655218742367E-33));
#765=DIRECTION('',(-1.,-6.97800704488129E-33,-1.15648231731787E-16));
#766=DIRECTION('',(0.,-1.,6.03382078600629E-17));
#767=DIRECTION('',(-1.,-6.97800704488129E-33,-1.15648231731787E-16));
#768=DIRECTION('',(0.,1.,-6.03382078600629E-17));
#769=DIRECTION('',(-1.,-6.97800704488129E-33,-1.15648231731787E-16));
#770=DIRECTION('',(1.,-6.12323399573677E-17,-8.57655218742367E-33));
#771=DIRECTION('',(-6.12323399573677E-17,-1.,0.));
#772=DIRECTION('',(-1.,6.12323399573677E-17,8.57655218742367E-33));
#773=DIRECTION('',(6.12323399573677E-17,1.,0.));
#774=DIRECTION('',(6.12323399573677E-17,1.,-5.93472984109987E-65));
#775=DIRECTION('',(1.,-6.12323399573677E-17,0.));
#776=DIRECTION('',(1.,-6.12323399573677E-17,-8.57655218742367E-33));
#777=DIRECTION('',(8.57655218742367E-33,-5.25162359202431E-49,1.));
#778=DIRECTION('',(8.57655218742367E-33,-5.25162359202431E-49,1.));
#779=DIRECTION('',(8.57655218742367E-33,-5.25162359202431E-49,1.));
#780=DIRECTION('',(-1.,6.12323399573677E-17,8.57655218742367E-33));
#781=DIRECTION('',(8.57655218742367E-33,-5.25162359202431E-49,1.));
#782=DIRECTION('',(1.,-6.12323399573677E-17,-8.57655218742367E-33));
#783=DIRECTION('',(-6.12323399573677E-17,-1.,0.));
#784=DIRECTION('',(-1.,6.12323399573677E-17,8.57655218742367E-33));
#785=DIRECTION('',(6.12323399573677E-17,1.,0.));
#786=DIRECTION('',(-1.,6.12323399573677E-17,8.57655218742367E-33));
#787=DIRECTION('',(8.57655218742367E-33,-5.25162359202431E-49,1.));
#788=DIRECTION('',(-4.32978028117746E-17,-0.707106781186548,0.707106781186548));
#789=DIRECTION('',(-1.22712018435293E-32,-6.03382078600629E-17,-1.));
#790=DIRECTION('',(-4.32978028117747E-17,-0.707106781186548,-0.707106781186548));
#791=DIRECTION('',(0.,-1.,6.03382078600629E-17));
#792=DIRECTION('',(1.,0.,0.));
#793=DIRECTION('',(-1.,0.,0.));
#794=DIRECTION('',(-0.707106781186546,-4.26655559424939E-17,-0.707106781186549));
#795=DIRECTION('',(0.,0.,-1.));
#796=DIRECTION('',(-0.707106781186548,-4.26655559424939E-17,-0.707106781186548));
#797=DIRECTION('',(0.,-1.,6.03382078600629E-17));
#798=DIRECTION('',(1.,0.,0.));
#799=DIRECTION('',(-1.,0.,0.));
#800=DIRECTION('',(-0.707106781186548,4.26655559424938E-17,0.707106781186547));
#801=DIRECTION('',(0.,0.,1.));
#802=DIRECTION('',(0.707106781186546,-4.2665555942494E-17,-0.707106781186549));
#803=DIRECTION('',(0.,-1.,6.03382078600629E-17));
#804=DIRECTION('',(1.,0.,0.));
#805=DIRECTION('',(0.,-1.,6.03382078600629E-17));
#806=DIRECTION('',(0.,-6.03382078600629E-17,-1.));
#807=DIRECTION('',(0.707106781186548,-4.26655559424939E-17,-0.707106781186548));
#808=DIRECTION('',(0.,-6.03382078600629E-17,-1.));
#809=DIRECTION('',(0.707106781186548,4.26655559424939E-17,0.707106781186547));
#810=DIRECTION('',(0.,1.,-6.03382078600629E-17));
#811=DIRECTION('',(1.,0.,0.));
#812=DIRECTION('',(0.,1.,-6.03382078600629E-17));
#813=DIRECTION('',(0.,6.03382078600629E-17,1.));
#814=DIRECTION('',(-1.,0.,0.));
#815=DIRECTION('',(-0.707106781186546,4.2665555942494E-17,0.707106781186549));
#816=DIRECTION('',(0.,-6.03382078600629E-17,-1.));
#817=DIRECTION('',(0.707106781186546,4.26655559424939E-17,0.707106781186549));
#818=DIRECTION('',(-1.,0.,0.));
#819=DIRECTION('',(-1.,0.,0.));
#820=DIRECTION('',(0.,1.,0.));
#821=DIRECTION('',(0.,-1.,6.03382078600629E-17));
#822=DIRECTION('',(0.,-6.03382078600629E-17,-1.));
#823=DIRECTION('',(0.,1.,-6.03382078600629E-17));
#824=DIRECTION('',(0.,1.,-2.89120579329468E-16));
#825=DIRECTION('',(0.,-1.,2.16840434497101E-16));
#826=DIRECTION('',(0.,1.,-6.03382078600629E-17));
#827=DIRECTION('',(1.,0.,0.));
#828=DIRECTION('',(0.,1.,-6.03382078600629E-17));
#829=DIRECTION('',(0.,6.03382078600629E-17,1.));
#830=DIRECTION('',(0.,1.,-6.03382078600629E-17));
#831=DIRECTION('',(0.,6.03382078600629E-17,1.));
#832=DIRECTION('',(0.,1.,-6.03382078600629E-17));
#833=DIRECTION('',(0.,6.03382078600629E-17,1.));
#834=DIRECTION('',(0.,1.,-6.03382078600629E-17));
#835=DIRECTION('',(0.,6.03382078600629E-17,1.));
#836=DIRECTION('',(0.,1.,-6.03382078600629E-17));
#837=DIRECTION('',(0.,6.03382078600629E-17,1.));
#838=DIRECTION('',(0.,-1.,6.03382078600629E-17));
#839=DIRECTION('',(0.,-6.03382078600629E-17,-1.));
#840=DIRECTION('',(0.,-1.,6.03382078600629E-17));
#841=DIRECTION('',(0.,-6.03382078600629E-17,-1.));
#842=DIRECTION('',(-1.,0.,0.));
#843=DIRECTION('',(0.,1.,0.));
#844=DIRECTION('',(0.,-6.03382078600629E-17,-1.));
#845=DIRECTION('',(0.,1.,-6.03382078600629E-17));
#846=DIRECTION('',(0.,-1.,6.03382078600629E-17));
#847=DIRECTION('',(0.,-1.,6.03382078600629E-17));
#848=DIRECTION('',(0.,-6.03382078600629E-17,-1.));
#849=DIRECTION('',(0.,-1.,0.));
#850=DIRECTION('',(-1.,0.,0.));
#851=DIRECTION('',(0.,-1.,6.03382078600629E-17));
#852=DIRECTION('',(0.,-6.03382078600629E-17,-1.));
#853=DIRECTION('',(0.,-1.,6.03382078600629E-17));
#854=DIRECTION('',(0.,-6.03382078600629E-17,-1.));
#855=DIRECTION('',(0.,-1.,6.03382078600629E-17));
#856=DIRECTION('',(1.,0.,0.));
#857=DIRECTION('',(0.,-1.,6.03382078600629E-17));
#858=DIRECTION('',(0.,-6.03382078600629E-17,-1.));
#859=DIRECTION('',(0.707106781186548,-4.26655559424938E-17,-0.707106781186547));
#860=DIRECTION('',(-0.707106781186548,-4.26655559424939E-17,-0.707106781186547));
#861=DIRECTION('',(-0.707106781186548,4.26655559424939E-17,0.707106781186548));
#862=DIRECTION('',(0.707106781186548,4.26655559424939E-17,0.707106781186548));
#863=DIRECTION('',(0.,-2.89120579329468E-16,-1.));
#864=DIRECTION('',(0.,1.,-2.89120579329468E-16));
#865=DIRECTION('',(0.,-1.,2.89120579329468E-16));
#866=DIRECTION('',(0.,2.16840434497101E-16,1.));
#867=DIRECTION('',(0.,-1.,2.16840434497101E-16));
#868=DIRECTION('',(0.,1.,-2.16840434497101E-16));
#869=DIRECTION('',(-0.707106781186549,2.04439122224449E-16,0.707106781186546));
#870=DIRECTION('',(0.,1.,-2.89120579329468E-16));
#871=DIRECTION('',(-0.707106781186549,-1.53329341668337E-16,-0.707106781186546));
#872=DIRECTION('',(0.,-1.,2.16840434497101E-16));
#873=DIRECTION('',(-0.707106781186547,-4.26655559424939E-17,-0.707106781186548));
#874=DIRECTION('',(0.,1.,-6.03382078600629E-17));
#875=DIRECTION('',(0.707106781186548,-4.26655559424939E-17,-0.707106781186548));
#876=DIRECTION('',(0.,-1.,6.03382078600629E-17));
#877=DIRECTION('',(-0.707106781186547,4.26655559424939E-17,0.707106781186548));
#878=DIRECTION('',(0.,-1.,6.03382078600629E-17));
#879=DIRECTION('',(0.707106781186548,4.26655559424939E-17,0.707106781186548));
#880=DIRECTION('',(0.,1.,-6.03382078600629E-17));
#881=DIRECTION('',(0.,-1.,6.03382078600629E-17));
#882=DIRECTION('',(0.,-6.03382078600629E-17,-1.));
#883=DIRECTION('',(0.,-1.,6.03382078600629E-17));
#884=DIRECTION('',(0.,-6.03382078600629E-17,-1.));
#885=DIRECTION('',(0.,-1.,6.03382078600629E-17));
#886=DIRECTION('',(1.,0.,0.));
#887=DIRECTION('',(0.,-1.,6.03382078600629E-17));
#888=DIRECTION('',(0.,-6.03382078600629E-17,-1.));
#889=DIRECTION('',(0.,-1.,6.03382078600629E-17));
#890=DIRECTION('',(0.,-6.03382078600629E-17,-1.));
#891=DIRECTION('',(0.,-1.,6.03382078600629E-17));
#892=DIRECTION('',(1.,0.,0.));
#893=DIRECTION('',(0.,-1.,6.03382078600629E-17));
#894=DIRECTION('',(0.,-6.03382078600629E-17,-1.));
#895=DIRECTION('',(0.,-1.,6.03382078600629E-17));
#896=DIRECTION('',(0.,-6.03382078600629E-17,-1.));
#897=DIRECTION('',(0.,-1.,6.03382078600629E-17));
#898=DIRECTION('',(1.,0.,0.));
#899=DIRECTION('',(0.,-1.,6.03382078600629E-17));
#900=DIRECTION('',(0.,-6.03382078600629E-17,-1.));
#901=DIRECTION('',(0.,-1.,6.03382078600629E-17));
#902=DIRECTION('',(0.,-6.03382078600629E-17,-1.));
#903=DIRECTION('',(0.,-1.,6.03382078600629E-17));
#904=DIRECTION('',(1.,0.,0.));
#905=DIRECTION('',(4.32978028117746E-17,0.707106781186548,0.707106781186548));
#906=DIRECTION('',(-1.,6.12323399573677E-17,8.57655218742367E-33));
#907=DIRECTION('',(-4.32978028117746E-17,-0.707106781186548,0.707106781186548));
#908=DIRECTION('',(1.,-6.12323399573677E-17,-8.57655218742367E-33));
#909=DIRECTION('',(0.,-1.,0.));
#910=DIRECTION('',(-1.,0.,0.));
#911=CARTESIAN_POINT('',(0.,0.,0.));
#912=CARTESIAN_POINT('',(-0.125255854743811,0.1814,0.0187336882516528));
#913=CARTESIAN_POINT('',(-0.125255854743811,0.1814,0.034));
#914=CARTESIAN_POINT('',(-0.125255854743811,0.1839,0.034));
#915=CARTESIAN_POINT('',(-0.125255854743811,0.1814,0.0385));
#916=CARTESIAN_POINT('',(-0.125255854743811,0.171402576826773,0.0385));
#917=CARTESIAN_POINT('',(-0.125255854743811,0.188398574116837,0.0385));
#918=CARTESIAN_POINT('',(-0.125255854743811,0.194782442932592,0.0321161311842448));
#919=CARTESIAN_POINT('',(-0.125255854743811,0.191398574116837,0.0355));
#920=CARTESIAN_POINT('',(-0.125255854743811,0.191398574116837,0.0185));
#921=CARTESIAN_POINT('',(-0.12525585474381,0.19140115094361,0.0305));
#922=CARTESIAN_POINT('',(-0.125255854743811,0.1814,0.0305));
#923=CARTESIAN_POINT('',(-0.125255854743811,0.171403727770383,0.0305));
#924=CARTESIAN_POINT('',(-0.125255854743811,0.171403727770383,0.0185));
#925=CARTESIAN_POINT('',(-0.125255854743811,0.1814,0.0187336882516528));
#926=CARTESIAN_POINT('',(-0.125255854743811,0.1814,0.00299999999999989));
#927=CARTESIAN_POINT('',(-0.125255854743811,0.1839,0.00299999999999989));
#928=CARTESIAN_POINT('',(-0.125255854743811,0.191398574116837,0.0185));
#929=CARTESIAN_POINT('',(-0.125255854743811,0.191398574116837,0.00149999999999995));
#930=CARTESIAN_POINT('',(-0.12525585474381,0.19140115094361,0.0065));
#931=CARTESIAN_POINT('',(-0.125255854743811,0.195016131184245,0.00511755706740794));
#932=CARTESIAN_POINT('',(-0.125255854743811,0.188398574116837,-0.00150000000000006));
#933=CARTESIAN_POINT('',(-0.125255854743811,0.1814,-0.00150000000000006));
#934=CARTESIAN_POINT('',(-0.125255854743811,0.171402576826773,-0.00150000000000006));
#935=CARTESIAN_POINT('',(-0.125255854743811,0.171403727770383,0.0185));
#936=CARTESIAN_POINT('',(-0.125255854743811,0.171403727770383,0.0065));
#937=CARTESIAN_POINT('',(-0.125255854743811,0.1814,0.0065));
#938=CARTESIAN_POINT('',(-0.125255854743811,0.1814,-0.00150000000000006));
#939=CARTESIAN_POINT('',(-0.125255854743811,0.188398574116837,-0.00150000000000006));
#940=CARTESIAN_POINT('',(-0.120255854743811,0.188398574116837,-0.00150000000000006));
#941=CARTESIAN_POINT('',(-0.120255854743811,0.1814,-0.00150000000000006));
#942=CARTESIAN_POINT('',(-0.120255854743811,0.171402576826773,-0.00150000000000006));
#943=CARTESIAN_POINT('',(-0.130255854743811,0.171403727770383,-0.00150000000000005));
#944=CARTESIAN_POINT('',(-0.103255854743811,0.171403727770383,-0.00150000000000005));
#945=CARTESIAN_POINT('',(-0.103255854743811,0.183403727770382,-0.00150000000000005));
#946=CARTESIAN_POINT('',(-0.103255854743811,0.168203727770383,-0.00150000000000005));
#947=CARTESIAN_POINT('',(-0.130255854743811,0.168203727770383,-0.00150000000000005));
#948=CARTESIAN_POINT('',(-0.157255854743811,0.168203727770383,-0.00150000000000006));
#949=CARTESIAN_POINT('',(-0.157255854743811,0.171403727770383,-0.00150000000000006));
#950=CARTESIAN_POINT('',(-0.157255854743811,0.171403727770383,-0.00150000000000006));
#951=CARTESIAN_POINT('',(-0.130255854743811,0.171403727770383,-0.00150000000000005));
#952=CARTESIAN_POINT('',(-0.125255854743811,0.1814,0.0385));
#953=CARTESIAN_POINT('',(-0.120255854743811,0.1814,0.0385));
#954=CARTESIAN_POINT('',(-0.120255854743811,0.171402576826773,0.0385));
#955=CARTESIAN_POINT('',(-0.120255854743811,0.188398574116837,0.0385));
#956=CARTESIAN_POINT('',(-0.125255854743811,0.188398574116837,0.0385));
#957=CARTESIAN_POINT('',(-0.130255854743811,0.171403727770383,0.0385));
#958=CARTESIAN_POINT('',(-0.157255854743811,0.171403727770383,0.0385));
#959=CARTESIAN_POINT('',(-0.157255854743811,0.183403727770382,0.0385));
#960=CARTESIAN_POINT('',(-0.157255854743811,0.168203727770383,0.0385));
#961=CARTESIAN_POINT('',(-0.130255854743811,0.168203727770383,0.0385));
#962=CARTESIAN_POINT('',(-0.103255854743811,0.168203727770383,0.0385));
#963=CARTESIAN_POINT('',(-0.103255854743811,0.171403727770383,0.0385));
#964=CARTESIAN_POINT('',(-0.103255854743811,0.171403727770383,0.0385));
#965=CARTESIAN_POINT('',(-0.130255854743811,0.171403727770383,0.0385));
#966=CARTESIAN_POINT('',(-0.125255854743811,0.1814,0.034));
#967=CARTESIAN_POINT('',(-0.120255854743811,0.1814,0.034));
#968=CARTESIAN_POINT('',(-0.120255854743811,0.1839,0.034));
#969=CARTESIAN_POINT('',(-0.125255854743811,0.191398574116837,0.0185));
#970=CARTESIAN_POINT('',(-0.120255854743811,0.191398574116837,0.0355));
#971=CARTESIAN_POINT('',(-0.120255854743811,0.191398574116837,0.0355));
#972=CARTESIAN_POINT('',(-0.120255854743811,0.191398574116837,0.0185));
#973=CARTESIAN_POINT('',(-0.120255854743811,0.191398574116837,0.0305));
#974=CARTESIAN_POINT('',(-0.120255854743811,0.191398574116837,0.0185));
#975=CARTESIAN_POINT('',(-0.120255854743811,0.191398574116837,0.0065));
#976=CARTESIAN_POINT('',(-0.120255854743811,0.191398574116837,0.0185));
#977=CARTESIAN_POINT('',(-0.120255854743811,0.191398574116837,0.00149999999999995));
#978=CARTESIAN_POINT('',(-0.125255854743811,0.191398574116837,0.00149999999999995));
#979=CARTESIAN_POINT('',(-0.125255854743811,0.191398574116837,0.0185));
#980=CARTESIAN_POINT('',(-0.125255854743811,0.1814,0.00299999999999989));
#981=CARTESIAN_POINT('',(-0.120255854743811,0.1814,0.00299999999999989));
#982=CARTESIAN_POINT('',(-0.120255854743811,0.1839,0.00299999999999989));
#983=CARTESIAN_POINT('',(-0.120255854743811,0.1814,0.0187336882516528));
#984=CARTESIAN_POINT('',(-0.120255854743811,0.191398574116837,0.0355));
#985=CARTESIAN_POINT('',(-0.120255854743811,0.171403727770383,0.0185));
#986=CARTESIAN_POINT('',(-0.120255854743811,0.188398574116837,-0.00150000000000006));
#987=CARTESIAN_POINT('',(0.0397441452561892,0.171403727770383,0.0185));
#988=CARTESIAN_POINT('',(0.690612641961041,0.171403727770383,0.0305));
#989=CARTESIAN_POINT('',(-0.155255854743811,0.171403727770383,0.0305));
#990=CARTESIAN_POINT('',(-0.0637558547438111,0.171403727770383,0.122));
#991=CARTESIAN_POINT('',(-0.160255854743811,0.171403727770383,0.0255));
#992=CARTESIAN_POINT('',(-0.160255854743811,0.171403727770383,0.0345));
#993=CARTESIAN_POINT('',(-0.160255854743811,0.171403727770383,0.0355));
#994=CARTESIAN_POINT('',(-0.157255854743811,0.171403727770383,0.0385));
#995=CARTESIAN_POINT('',(0.0397441452561892,0.171403727770383,0.0185));
#996=CARTESIAN_POINT('',(0.690612641961041,0.171403727770383,0.0065));
#997=CARTESIAN_POINT('',(-0.155255854743811,0.171403727770383,0.0065));
#998=CARTESIAN_POINT('',(-0.160255854743811,0.171403727770383,0.00149999999999994));
#999=CARTESIAN_POINT('',(-0.160255854743811,0.171403727770383,0.00149999999999994));
#1000=CARTESIAN_POINT('',(-0.160255854743811,0.171403727770383,0.00249999999999994));
#1001=CARTESIAN_POINT('',(-0.160255854743811,0.171403727770383,0.0115));
#1002=CARTESIAN_POINT('',(-0.0637558547438112,0.171403727770383,-0.085));
#1003=CARTESIAN_POINT('',(0.0397441452561892,0.171403727770383,0.0185));
#1004=CARTESIAN_POINT('',(-0.110255854743811,0.171403727770383,0.0185));
#1005=CARTESIAN_POINT('',(-0.110255854743811,0.171403727770383,0.016));
#1006=CARTESIAN_POINT('',(-0.100255854743811,0.171403727770383,0.0355));
#1007=CARTESIAN_POINT('',(-0.100255854743811,0.171403727770383,0.0355));
#1008=CARTESIAN_POINT('',(-0.100255854743811,0.171403727770383,0.0185));
#1009=CARTESIAN_POINT('',(-0.100255854743811,0.171403727770383,0.00149999999999995));
#1010=CARTESIAN_POINT('',(-0.103255854743811,0.171403727770383,-0.00150000000000005));
#1011=CARTESIAN_POINT('',(0.0397441452561892,0.191403727770383,0.0185));
#1012=CARTESIAN_POINT('',(-0.141955178741093,0.191403727770383,0.0185));
#1013=CARTESIAN_POINT('',(-0.141955178741093,0.191403727770383,0.0235));
#1014=CARTESIAN_POINT('',(0.690612641961041,0.191403727770383,0.0065));
#1015=CARTESIAN_POINT('',(-0.155255854743811,0.191403727770383,0.0065));
#1016=CARTESIAN_POINT('',(-0.0637558547438112,0.191403727770383,-0.085));
#1017=CARTESIAN_POINT('',(-0.160255854743811,0.191403727770383,0.0115));
#1018=CARTESIAN_POINT('',(-0.160255854743811,0.191403727770383,0.0185));
#1019=CARTESIAN_POINT('',(-0.160255854743811,0.191403727770383,0.0255));
#1020=CARTESIAN_POINT('',(-0.0637558547438111,0.191403727770383,0.122));
#1021=CARTESIAN_POINT('',(-0.155255854743811,0.191403727770383,0.0305));
#1022=CARTESIAN_POINT('',(0.690612641961041,0.191403727770383,0.0305));
#1023=CARTESIAN_POINT('',(-0.160255854743811,0.183403727770382,0.0185));
#1024=CARTESIAN_POINT('',(-0.160255854743811,0.168203727770383,0.00149999999999994));
#1025=CARTESIAN_POINT('',(-0.160255854743811,0.168203727770383,0.00149999999999994));
#1026=CARTESIAN_POINT('',(-0.160255854743811,0.168203727770383,0.0185));
#1027=CARTESIAN_POINT('',(-0.160255854743811,0.168203727770383,0.0355));
#1028=CARTESIAN_POINT('',(-0.160255854743811,0.183403727770382,0.0355));
#1029=CARTESIAN_POINT('',(-0.160255854743811,0.183403727770382,0.0255));
#1030=CARTESIAN_POINT('',(-0.160255854743811,0.171403727770383,0.0115));
#1031=CARTESIAN_POINT('',(0.0397441452561892,0.171403727770383,0.0185));
#1032=CARTESIAN_POINT('',(-0.141955178741093,0.171403727770383,0.0265));
#1033=CARTESIAN_POINT('',(-0.141955178741093,0.171403727770383,0.02825));
#1034=CARTESIAN_POINT('',(-0.133955178741093,0.171403727770383,0.0185));
#1035=CARTESIAN_POINT('',(-0.133955178741093,0.171403727770383,0.02025));
#1036=CARTESIAN_POINT('',(-0.141955178741093,0.171403727770383,0.0105));
#1037=CARTESIAN_POINT('',(-0.141955178741093,0.171403727770383,0.01225));
#1038=CARTESIAN_POINT('',(-0.149955178741093,0.171403727770383,0.0185));
#1039=CARTESIAN_POINT('',(-0.149955178741093,0.171403727770383,0.02025));
#1040=CARTESIAN_POINT('',(-0.141955178741093,0.171403727770383,0.0185));
#1041=CARTESIAN_POINT('',(-0.141955178741093,0.171403727770383,0.0235));
#1042=CARTESIAN_POINT('',(-0.141955178741093,0.171403727770383,0.0185));
#1043=CARTESIAN_POINT('',(-0.141955178741093,0.171403727770383,0.0075));
#1044=CARTESIAN_POINT('',(-0.141955178741093,0.183403727770382,0.0185));
#1045=CARTESIAN_POINT('',(-0.100255854743811,0.171403727770383,0.0185));
#1046=CARTESIAN_POINT('',(-0.100255854743811,0.168203727770383,0.0185));
#1047=CARTESIAN_POINT('',(-0.100255854743811,0.168203727770383,0.0355));
#1048=CARTESIAN_POINT('',(-0.100255854743811,0.168203727770383,0.00149999999999995));
#1049=CARTESIAN_POINT('',(-0.100255854743811,0.171403727770383,0.00149999999999995));
#1050=CARTESIAN_POINT('',(-0.100255854743811,0.168203727770383,0.0355));
#1051=CARTESIAN_POINT('',(-0.110255854743811,0.171403727770383,0.0185));
#1052=CARTESIAN_POINT('',(-0.110255854743811,0.170203727770383,0.0185));
#1053=CARTESIAN_POINT('',(-0.112755854743811,0.170203727770383,0.0185));
#1054=CARTESIAN_POINT('',(-0.141955178741093,0.171403727770383,0.0185));
#1055=CARTESIAN_POINT('',(-0.141955178741093,0.168203727770383,0.0185));
#1056=CARTESIAN_POINT('',(-0.141955178741093,0.168203727770383,0.0075));
#1057=CARTESIAN_POINT('',(0.0397441452561892,0.168203727770383,0.0185));
#1058=CARTESIAN_POINT('',(-0.110255854743811,0.168203727770383,0.0185));
#1059=CARTESIAN_POINT('',(-0.110255854743811,0.168203727770383,0.014));
#1060=CARTESIAN_POINT('',(-0.0687558547438106,0.168203727770383,-0.09));
#1061=CARTESIAN_POINT('',(-0.0217558547438108,0.168203727770383,0.08));
#1062=CARTESIAN_POINT('',(-0.0217558547438108,0.168203727770383,-0.043));
#1063=CARTESIAN_POINT('',(-0.0687558547438108,0.168203727770383,0.127));
#1064=CARTESIAN_POINT('',(0.690612641961041,0.177403727770383,0.0305));
#1065=CARTESIAN_POINT('',(-0.155255854743811,0.171403727770383,0.0305));
#1066=CARTESIAN_POINT('',(0.690612641961041,0.177403727770383,0.0065));
#1067=CARTESIAN_POINT('',(-0.155255854743811,0.183403727770382,0.0065));
#1068=CARTESIAN_POINT('',(-0.155255854743811,0.177403727770383,0.0305));
#1069=CARTESIAN_POINT('',(-0.155255854743811,0.177403727770383,0.0065));
#1070=CARTESIAN_POINT('',(-0.160255854743811,0.183403727770382,0.00149999999999994));
#1071=CARTESIAN_POINT('',(-0.157255854743811,0.183403727770382,0.0385));
#1072=CARTESIAN_POINT('',(-0.103255854743811,0.183403727770382,-0.00150000000000005));
#1073=CARTESIAN_POINT('',(-0.100255854743811,0.171403727770383,0.0355));
#1074=CARTESIAN_POINT('',(-0.149955178741093,0.176203727770383,0.0185));
#1075=CARTESIAN_POINT('',(-0.149955178741093,0.176203727770383,0.0185));
#1076=CARTESIAN_POINT('',(-0.149955178741093,0.176203727770383,0.01675));
#1077=CARTESIAN_POINT('',(0.0357246619986412,0.176203727770383,0.0185));
#1078=CARTESIAN_POINT('',(-0.141955178741093,0.176203727770383,0.0105));
#1079=CARTESIAN_POINT('',(-0.141955178741093,0.176203727770383,0.0105));
#1080=CARTESIAN_POINT('',(-0.141955178741093,0.176203727770383,0.00875));
#1081=CARTESIAN_POINT('',(0.0357246619986412,0.176203727770383,0.0185));
#1082=CARTESIAN_POINT('',(-0.133955178741093,0.176203727770383,0.0185));
#1083=CARTESIAN_POINT('',(-0.133955178741093,0.176203727770383,0.0185));
#1084=CARTESIAN_POINT('',(-0.133955178741093,0.176203727770383,0.01675));
#1085=CARTESIAN_POINT('',(0.0357246619986412,0.176203727770383,0.0185));
#1086=CARTESIAN_POINT('',(-0.141955178741093,0.176203727770383,0.0265));
#1087=CARTESIAN_POINT('',(-0.141955178741093,0.176203727770383,0.0265));
#1088=CARTESIAN_POINT('',(-0.141955178741093,0.176203727770383,0.02475));
#1089=CARTESIAN_POINT('',(0.0357246619986412,0.176203727770383,0.0185));
#1090=CARTESIAN_POINT('',(-0.125255854743811,0.191398574116837,0.0355));
#1091=CARTESIAN_POINT('',(-0.125255854743811,0.188398574116837,-0.00150000000000006));
#1092=CARTESIAN_POINT('',(-0.110255854743811,0.170203727770383,0.0185));
#1093=MECHANICAL_DESIGN_GEOMETRIC_PRESENTATION_REPRESENTATION('',(#663),
#1094);
#1094=(
GEOMETRIC_REPRESENTATION_CONTEXT(3)
GLOBAL_UNCERTAINTY_ASSIGNED_CONTEXT((#1095))
GLOBAL_UNIT_ASSIGNED_CONTEXT((#1098,#1097,#1096))
REPRESENTATION_CONTEXT('Lead Adapter','TOP_LEVEL_ASSEMBLY_PART')
);
#1095=UNCERTAINTY_MEASURE_WITH_UNIT(LENGTH_MEASURE(2.51536535458285E-5),
#1098,'DISTANCE_ACCURACY_VALUE','Maximum Tolerance applied to model');
#1096=(
NAMED_UNIT(*)
SI_UNIT($,.STERADIAN.)
SOLID_ANGLE_UNIT()
);
#1097=(
NAMED_UNIT(*)
PLANE_ANGLE_UNIT()
SI_UNIT($,.RADIAN.)
);
#1098=(
LENGTH_UNIT()
NAMED_UNIT(*)
SI_UNIT($,.METRE.)
);
#1099=PRODUCT_DEFINITION_SHAPE('','',#1100);
#1100=PRODUCT_DEFINITION('','',#1102,#1101);
#1101=PRODUCT_DEFINITION_CONTEXT('',#1108,'design');
#1102=PRODUCT_DEFINITION_FORMATION_WITH_SPECIFIED_SOURCE('','',#1104,
 .NOT_KNOWN.);
#1103=PRODUCT_RELATED_PRODUCT_CATEGORY('','',(#1104));
#1104=PRODUCT('Lead Adapter','Lead Adapter','Lead Adapter',(#1106));
#1105=PRODUCT_CATEGORY('','');
#1106=PRODUCT_CONTEXT('',#1108,'mechanical');
#1107=APPLICATION_PROTOCOL_DEFINITION('international standard',
'ap242_managed_model_based_3d_engineering',2020,#1108);
#1108=APPLICATION_CONTEXT('managed model based 3d engineering');
ENDSEC;
END-ISO-10303-21;
