ISO-10303-21;
HEADER;
/* Generated by software containing ST-Developer
 * from STEP Tools, Inc. (www.steptools.com) 
 */
/* OPTION: using custom renumber hook */

FILE_DESCRIPTION(
/* description */ ('STEP AP242 Edition 2',
'CAx-IF Rec.Pracs.---Representation and Presentation of Product Manufa
cturing Information (PMI)---4.0---2014-10-13',
'CAx-IF Rec.Pracs.---3D Tessellated Geometry---0.4---2014-09-14','2;1',
'CAx-IF Rec.Pracs.---User Defined Attributes---1.5---2016-08-15'),
/* implementation_level */ '2;1');

FILE_NAME(
/* name */ 'NOT-618 - Linear Adapter (2)',
/* time_stamp */ '2026-07-26T08:51:50Z',
/* author */ (''),
/* organization */ (''),
/* preprocessor_version */ 'ST-DEVELOPER v20',
/* originating_system */ 'ONSHAPE BY PTC INC, 1.218',
/* authorisation */ '  ');

FILE_SCHEMA (('AP242_MANAGED_MODEL_BASED_3D_ENGINEERING_MIM_LF { 1 0 10303 442 3 1 4 }'));
ENDSEC;

DATA;
#10=SHAPE_REPRESENTATION_RELATIONSHIP('','',#401,#11);
#11=ADVANCED_BREP_SHAPE_REPRESENTATION('',(#399),#640);
#12=CONICAL_SURFACE('',#430,0.0025,0.785398163397448);
#13=CONICAL_SURFACE('',#431,0.0025,0.785398163397448);
#14=CIRCLE('',#406,0.0025);
#15=CIRCLE('',#407,0.0025);
#16=CIRCLE('',#412,0.0105);
#17=CIRCLE('',#413,0.0105);
#18=CIRCLE('',#415,0.00449999999999995);
#19=CIRCLE('',#418,0.0025);
#20=CIRCLE('',#423,0.0045);
#21=CIRCLE('',#425,0.0025);
#22=CYLINDRICAL_SURFACE('',#405,0.0025);
#23=CYLINDRICAL_SURFACE('',#411,0.0105);
#24=CYLINDRICAL_SURFACE('',#424,0.0025);
#25=ORIENTED_EDGE('',*,*,#123,.F.);
#26=ORIENTED_EDGE('',*,*,#124,.T.);
#27=ORIENTED_EDGE('',*,*,#125,.F.);
#28=ORIENTED_EDGE('',*,*,#126,.T.);
#29=ORIENTED_EDGE('',*,*,#127,.F.);
#30=ORIENTED_EDGE('',*,*,#128,.T.);
#31=ORIENTED_EDGE('',*,*,#129,.T.);
#32=ORIENTED_EDGE('',*,*,#130,.T.);
#33=ORIENTED_EDGE('',*,*,#131,.T.);
#34=ORIENTED_EDGE('',*,*,#132,.T.);
#35=ORIENTED_EDGE('',*,*,#133,.T.);
#36=ORIENTED_EDGE('',*,*,#134,.F.);
#37=ORIENTED_EDGE('',*,*,#135,.F.);
#38=ORIENTED_EDGE('',*,*,#136,.T.);
#39=ORIENTED_EDGE('',*,*,#137,.F.);
#40=ORIENTED_EDGE('',*,*,#138,.T.);
#41=ORIENTED_EDGE('',*,*,#139,.F.);
#42=ORIENTED_EDGE('',*,*,#140,.F.);
#43=ORIENTED_EDGE('',*,*,#138,.F.);
#44=ORIENTED_EDGE('',*,*,#141,.T.);
#45=ORIENTED_EDGE('',*,*,#142,.F.);
#46=ORIENTED_EDGE('',*,*,#143,.T.);
#47=ORIENTED_EDGE('',*,*,#144,.T.);
#48=ORIENTED_EDGE('',*,*,#145,.F.);
#49=ORIENTED_EDGE('',*,*,#146,.T.);
#50=ORIENTED_EDGE('',*,*,#147,.T.);
#51=ORIENTED_EDGE('',*,*,#148,.T.);
#52=ORIENTED_EDGE('',*,*,#149,.F.);
#53=ORIENTED_EDGE('',*,*,#150,.T.);
#54=ORIENTED_EDGE('',*,*,#131,.F.);
#55=ORIENTED_EDGE('',*,*,#151,.T.);
#56=ORIENTED_EDGE('',*,*,#152,.T.);
#57=ORIENTED_EDGE('',*,*,#153,.F.);
#58=ORIENTED_EDGE('',*,*,#141,.F.);
#59=ORIENTED_EDGE('',*,*,#137,.T.);
#60=ORIENTED_EDGE('',*,*,#154,.T.);
#61=ORIENTED_EDGE('',*,*,#142,.T.);
#62=ORIENTED_EDGE('',*,*,#155,.T.);
#63=ORIENTED_EDGE('',*,*,#148,.F.);
#64=ORIENTED_EDGE('',*,*,#125,.T.);
#65=ORIENTED_EDGE('',*,*,#156,.T.);
#66=ORIENTED_EDGE('',*,*,#127,.T.);
#67=ORIENTED_EDGE('',*,*,#157,.T.);
#68=ORIENTED_EDGE('',*,*,#146,.F.);
#69=ORIENTED_EDGE('',*,*,#158,.T.);
#70=ORIENTED_EDGE('',*,*,#134,.T.);
#71=ORIENTED_EDGE('',*,*,#149,.T.);
#72=ORIENTED_EDGE('',*,*,#159,.T.);
#73=ORIENTED_EDGE('',*,*,#144,.F.);
#74=ORIENTED_EDGE('',*,*,#160,.T.);
#75=ORIENTED_EDGE('',*,*,#135,.T.);
#76=ORIENTED_EDGE('',*,*,#140,.T.);
#77=ORIENTED_EDGE('',*,*,#161,.F.);
#78=ORIENTED_EDGE('',*,*,#162,.F.);
#79=ORIENTED_EDGE('',*,*,#163,.F.);
#80=ORIENTED_EDGE('',*,*,#126,.F.);
#81=ORIENTED_EDGE('',*,*,#158,.F.);
#82=ORIENTED_EDGE('',*,*,#145,.T.);
#83=ORIENTED_EDGE('',*,*,#162,.T.);
#84=ORIENTED_EDGE('',*,*,#164,.F.);
#85=ORIENTED_EDGE('',*,*,#161,.T.);
#86=ORIENTED_EDGE('',*,*,#139,.T.);
#87=ORIENTED_EDGE('',*,*,#153,.T.);
#88=ORIENTED_EDGE('',*,*,#165,.F.);
#89=ORIENTED_EDGE('',*,*,#152,.F.);
#90=ORIENTED_EDGE('',*,*,#166,.T.);
#91=ORIENTED_EDGE('',*,*,#167,.T.);
#92=ORIENTED_EDGE('',*,*,#164,.T.);
#93=ORIENTED_EDGE('',*,*,#165,.T.);
#94=ORIENTED_EDGE('',*,*,#168,.T.);
#95=ORIENTED_EDGE('',*,*,#129,.F.);
#96=ORIENTED_EDGE('',*,*,#169,.T.);
#97=ORIENTED_EDGE('',*,*,#123,.T.);
#98=ORIENTED_EDGE('',*,*,#163,.T.);
#99=ORIENTED_EDGE('',*,*,#167,.F.);
#100=ORIENTED_EDGE('',*,*,#170,.T.);
#101=ORIENTED_EDGE('',*,*,#171,.T.);
#102=ORIENTED_EDGE('',*,*,#159,.F.);
#103=ORIENTED_EDGE('',*,*,#169,.F.);
#104=ORIENTED_EDGE('',*,*,#128,.F.);
#105=ORIENTED_EDGE('',*,*,#156,.F.);
#106=ORIENTED_EDGE('',*,*,#124,.F.);
#107=ORIENTED_EDGE('',*,*,#170,.F.);
#108=ORIENTED_EDGE('',*,*,#166,.F.);
#109=ORIENTED_EDGE('',*,*,#151,.F.);
#110=ORIENTED_EDGE('',*,*,#130,.F.);
#111=ORIENTED_EDGE('',*,*,#154,.F.);
#112=ORIENTED_EDGE('',*,*,#136,.F.);
#113=ORIENTED_EDGE('',*,*,#160,.F.);
#114=ORIENTED_EDGE('',*,*,#143,.F.);
#115=ORIENTED_EDGE('',*,*,#155,.F.);
#116=ORIENTED_EDGE('',*,*,#147,.F.);
#117=ORIENTED_EDGE('',*,*,#157,.F.);
#118=ORIENTED_EDGE('',*,*,#132,.F.);
#119=ORIENTED_EDGE('',*,*,#150,.F.);
#120=ORIENTED_EDGE('',*,*,#171,.F.);
#121=ORIENTED_EDGE('',*,*,#168,.F.);
#122=ORIENTED_EDGE('',*,*,#133,.F.);
#123=EDGE_CURVE('',#172,#173,#207,.T.);
#124=EDGE_CURVE('',#172,#174,#208,.T.);
#125=EDGE_CURVE('',#175,#174,#209,.T.);
#126=EDGE_CURVE('',#175,#173,#210,.T.);
#127=EDGE_CURVE('',#176,#177,#211,.T.);
#128=EDGE_CURVE('',#176,#178,#212,.T.);
#129=EDGE_CURVE('',#178,#179,#213,.T.);
#130=EDGE_CURVE('',#179,#180,#214,.T.);
#131=EDGE_CURVE('',#180,#181,#215,.T.);
#132=EDGE_CURVE('',#181,#177,#216,.T.);
#133=EDGE_CURVE('',#182,#182,#14,.T.);
#134=EDGE_CURVE('',#183,#183,#15,.T.);
#135=EDGE_CURVE('',#184,#185,#217,.T.);
#136=EDGE_CURVE('',#184,#186,#218,.T.);
#137=EDGE_CURVE('',#187,#186,#219,.T.);
#138=EDGE_CURVE('',#187,#185,#220,.T.);
#139=EDGE_CURVE('',#188,#189,#221,.T.);
#140=EDGE_CURVE('',#185,#188,#222,.T.);
#141=EDGE_CURVE('',#187,#189,#223,.T.);
#142=EDGE_CURVE('',#190,#191,#224,.T.);
#143=EDGE_CURVE('',#190,#192,#225,.T.);
#144=EDGE_CURVE('',#192,#193,#226,.T.);
#145=EDGE_CURVE('',#194,#193,#227,.T.);
#146=EDGE_CURVE('',#194,#195,#228,.T.);
#147=EDGE_CURVE('',#195,#191,#229,.T.);
#148=EDGE_CURVE('',#196,#196,#16,.T.);
#149=EDGE_CURVE('',#197,#197,#17,.T.);
#150=EDGE_CURVE('',#198,#198,#18,.F.);
#151=EDGE_CURVE('',#180,#199,#230,.F.);
#152=EDGE_CURVE('',#199,#200,#231,.T.);
#153=EDGE_CURVE('',#189,#200,#232,.T.);
#154=EDGE_CURVE('',#186,#190,#233,.F.);
#155=EDGE_CURVE('',#191,#181,#234,.T.);
#156=EDGE_CURVE('',#174,#176,#235,.F.);
#157=EDGE_CURVE('',#177,#195,#236,.T.);
#158=EDGE_CURVE('',#194,#175,#237,.T.);
#159=EDGE_CURVE('',#201,#201,#19,.T.);
#160=EDGE_CURVE('',#192,#184,#238,.F.);
#161=EDGE_CURVE('',#202,#188,#239,.T.);
#162=EDGE_CURVE('',#193,#202,#240,.T.);
#163=EDGE_CURVE('',#173,#203,#241,.T.);
#164=EDGE_CURVE('',#203,#202,#242,.T.);
#165=EDGE_CURVE('',#202,#200,#243,.T.);
#166=EDGE_CURVE('',#199,#204,#244,.T.);
#167=EDGE_CURVE('',#204,#203,#245,.T.);
#168=EDGE_CURVE('',#205,#205,#20,.F.);
#169=EDGE_CURVE('',#178,#172,#246,.F.);
#170=EDGE_CURVE('',#204,#179,#247,.F.);
#171=EDGE_CURVE('',#206,#206,#21,.T.);
#172=VERTEX_POINT('',#536);
#173=VERTEX_POINT('',#537);
#174=VERTEX_POINT('',#539);
#175=VERTEX_POINT('',#541);
#176=VERTEX_POINT('',#545);
#177=VERTEX_POINT('',#546);
#178=VERTEX_POINT('',#548);
#179=VERTEX_POINT('',#550);
#180=VERTEX_POINT('',#552);
#181=VERTEX_POINT('',#554);
#182=VERTEX_POINT('',#558);
#183=VERTEX_POINT('',#560);
#184=VERTEX_POINT('',#563);
#185=VERTEX_POINT('',#564);
#186=VERTEX_POINT('',#566);
#187=VERTEX_POINT('',#568);
#188=VERTEX_POINT('',#572);
#189=VERTEX_POINT('',#573);
#190=VERTEX_POINT('',#578);
#191=VERTEX_POINT('',#579);
#192=VERTEX_POINT('',#581);
#193=VERTEX_POINT('',#583);
#194=VERTEX_POINT('',#585);
#195=VERTEX_POINT('',#587);
#196=VERTEX_POINT('',#591);
#197=VERTEX_POINT('',#593);
#198=VERTEX_POINT('',#596);
#199=VERTEX_POINT('',#598);
#200=VERTEX_POINT('',#600);
#201=VERTEX_POINT('',#610);
#202=VERTEX_POINT('',#613);
#203=VERTEX_POINT('',#617);
#204=VERTEX_POINT('',#623);
#205=VERTEX_POINT('',#627);
#206=VERTEX_POINT('',#632);
#207=LINE('',#535,#248);
#208=LINE('',#538,#249);
#209=LINE('',#540,#250);
#210=LINE('',#542,#251);
#211=LINE('',#544,#252);
#212=LINE('',#547,#253);
#213=LINE('',#549,#254);
#214=LINE('',#551,#255);
#215=LINE('',#553,#256);
#216=LINE('',#555,#257);
#217=LINE('',#562,#258);
#218=LINE('',#565,#259);
#219=LINE('',#567,#260);
#220=LINE('',#569,#261);
#221=LINE('',#571,#262);
#222=LINE('',#574,#263);
#223=LINE('',#575,#264);
#224=LINE('',#577,#265);
#225=LINE('',#580,#266);
#226=LINE('',#582,#267);
#227=LINE('',#584,#268);
#228=LINE('',#586,#269);
#229=LINE('',#588,#270);
#230=LINE('',#597,#271);
#231=LINE('',#599,#272);
#232=LINE('',#601,#273);
#233=LINE('',#602,#274);
#234=LINE('',#603,#275);
#235=LINE('',#605,#276);
#236=LINE('',#606,#277);
#237=LINE('',#607,#278);
#238=LINE('',#611,#279);
#239=LINE('',#612,#280);
#240=LINE('',#614,#281);
#241=LINE('',#616,#282);
#242=LINE('',#618,#283);
#243=LINE('',#620,#284);
#244=LINE('',#622,#285);
#245=LINE('',#624,#286);
#246=LINE('',#628,#287);
#247=LINE('',#629,#288);
#248=VECTOR('',#436,1.);
#249=VECTOR('',#437,1.);
#250=VECTOR('',#438,1.);
#251=VECTOR('',#439,1.);
#252=VECTOR('',#442,1.);
#253=VECTOR('',#443,1.);
#254=VECTOR('',#444,1.);
#255=VECTOR('',#445,1.);
#256=VECTOR('',#446,1.);
#257=VECTOR('',#447,1.);
#258=VECTOR('',#456,1.);
#259=VECTOR('',#457,1.);
#260=VECTOR('',#458,1.);
#261=VECTOR('',#459,1.);
#262=VECTOR('',#462,1.);
#263=VECTOR('',#463,1.);
#264=VECTOR('',#464,1.);
#265=VECTOR('',#467,1.);
#266=VECTOR('',#468,1.);
#267=VECTOR('',#469,1.);
#268=VECTOR('',#470,1.);
#269=VECTOR('',#471,1.);
#270=VECTOR('',#472,1.);
#271=VECTOR('',#483,1.);
#272=VECTOR('',#484,1.);
#273=VECTOR('',#485,1.);
#274=VECTOR('',#486,1.);
#275=VECTOR('',#487,1.);
#276=VECTOR('',#490,1.);
#277=VECTOR('',#491,1.);
#278=VECTOR('',#492,1.);
#279=VECTOR('',#497,1.);
#280=VECTOR('',#498,1.);
#281=VECTOR('',#499,1.);
#282=VECTOR('',#502,1.);
#283=VECTOR('',#503,1.);
#284=VECTOR('',#506,1.);
#285=VECTOR('',#509,1.);
#286=VECTOR('',#510,1.);
#287=VECTOR('',#515,1.);
#288=VECTOR('',#516,1.);
#289=EDGE_LOOP('',(#25,#26,#27,#28));
#290=EDGE_LOOP('',(#29,#30,#31,#32,#33,#34));
#291=EDGE_LOOP('',(#35));
#292=EDGE_LOOP('',(#36));
#293=EDGE_LOOP('',(#37,#38,#39,#40));
#294=EDGE_LOOP('',(#41,#42,#43,#44));
#295=EDGE_LOOP('',(#45,#46,#47,#48,#49,#50));
#296=EDGE_LOOP('',(#51));
#297=EDGE_LOOP('',(#52));
#298=EDGE_LOOP('',(#53));
#299=EDGE_LOOP('',(#54,#55,#56,#57,#58,#59,#60,#61,#62));
#300=EDGE_LOOP('',(#63));
#301=EDGE_LOOP('',(#64,#65,#66,#67,#68,#69));
#302=EDGE_LOOP('',(#70));
#303=EDGE_LOOP('',(#71));
#304=EDGE_LOOP('',(#72));
#305=EDGE_LOOP('',(#73,#74,#75,#76,#77,#78));
#306=EDGE_LOOP('',(#79,#80,#81,#82,#83,#84));
#307=EDGE_LOOP('',(#85,#86,#87,#88));
#308=EDGE_LOOP('',(#89,#90,#91,#92,#93));
#309=EDGE_LOOP('',(#94));
#310=EDGE_LOOP('',(#95,#96,#97,#98,#99,#100));
#311=EDGE_LOOP('',(#101));
#312=EDGE_LOOP('',(#102));
#313=EDGE_LOOP('',(#103,#104,#105,#106));
#314=EDGE_LOOP('',(#107,#108,#109,#110));
#315=EDGE_LOOP('',(#111,#112,#113,#114));
#316=EDGE_LOOP('',(#115,#116,#117,#118));
#317=EDGE_LOOP('',(#119));
#318=EDGE_LOOP('',(#120));
#319=EDGE_LOOP('',(#121));
#320=EDGE_LOOP('',(#122));
#321=FACE_BOUND('',#289,.T.);
#322=FACE_BOUND('',#290,.T.);
#323=FACE_BOUND('',#291,.T.);
#324=FACE_BOUND('',#292,.T.);
#325=FACE_BOUND('',#293,.T.);
#326=FACE_BOUND('',#294,.T.);
#327=FACE_BOUND('',#295,.T.);
#328=FACE_BOUND('',#296,.T.);
#329=FACE_BOUND('',#297,.T.);
#330=FACE_BOUND('',#298,.T.);
#331=FACE_BOUND('',#299,.T.);
#332=FACE_BOUND('',#300,.T.);
#333=FACE_BOUND('',#301,.T.);
#334=FACE_BOUND('',#302,.T.);
#335=FACE_BOUND('',#303,.T.);
#336=FACE_BOUND('',#304,.T.);
#337=FACE_BOUND('',#305,.T.);
#338=FACE_BOUND('',#306,.T.);
#339=FACE_BOUND('',#307,.T.);
#340=FACE_BOUND('',#308,.T.);
#341=FACE_BOUND('',#309,.T.);
#342=FACE_BOUND('',#310,.T.);
#343=FACE_BOUND('',#311,.T.);
#344=FACE_BOUND('',#312,.T.);
#345=FACE_BOUND('',#313,.T.);
#346=FACE_BOUND('',#314,.T.);
#347=FACE_BOUND('',#315,.T.);
#348=FACE_BOUND('',#316,.T.);
#349=FACE_BOUND('',#317,.T.);
#350=FACE_BOUND('',#318,.T.);
#351=FACE_BOUND('',#319,.T.);
#352=FACE_BOUND('',#320,.T.);
#353=PLANE('',#403);
#354=PLANE('',#404);
#355=PLANE('',#408);
#356=PLANE('',#409);
#357=PLANE('',#410);
#358=PLANE('',#414);
#359=PLANE('',#416);
#360=PLANE('',#417);
#361=PLANE('',#419);
#362=PLANE('',#420);
#363=PLANE('',#421);
#364=PLANE('',#422);
#365=PLANE('',#426);
#366=PLANE('',#427);
#367=PLANE('',#428);
#368=PLANE('',#429);
#369=ADVANCED_FACE('',(#321),#353,.T.);
#370=ADVANCED_FACE('',(#322),#354,.T.);
#371=ADVANCED_FACE('',(#323,#324),#22,.F.);
#372=ADVANCED_FACE('',(#325),#355,.F.);
#373=ADVANCED_FACE('',(#326),#356,.T.);
#374=ADVANCED_FACE('',(#327),#357,.F.);
#375=ADVANCED_FACE('',(#328,#329),#23,.F.);
#376=ADVANCED_FACE('',(#330,#331,#332),#358,.T.);
#377=ADVANCED_FACE('',(#333,#334,#335),#359,.F.);
#378=ADVANCED_FACE('',(#336,#337),#360,.F.);
#379=ADVANCED_FACE('',(#338),#361,.T.);
#380=ADVANCED_FACE('',(#339),#362,.F.);
#381=ADVANCED_FACE('',(#340),#363,.T.);
#382=ADVANCED_FACE('',(#341,#342),#364,.T.);
#383=ADVANCED_FACE('',(#343,#344),#24,.F.);
#384=ADVANCED_FACE('',(#345),#365,.F.);
#385=ADVANCED_FACE('',(#346),#366,.F.);
#386=ADVANCED_FACE('',(#347),#367,.F.);
#387=ADVANCED_FACE('',(#348),#368,.T.);
#388=ADVANCED_FACE('',(#349,#350),#12,.F.);
#389=ADVANCED_FACE('',(#351,#352),#13,.F.);
#390=CLOSED_SHELL('',(#369,#370,#371,#372,#373,#374,#375,#376,#377,#378,
#379,#380,#381,#382,#383,#384,#385,#386,#387,#388,#389));
#391=STYLED_ITEM('',(#392),#399);
#392=PRESENTATION_STYLE_ASSIGNMENT((#393));
#393=SURFACE_STYLE_USAGE(.BOTH.,#394);
#394=SURFACE_SIDE_STYLE('',(#395));
#395=SURFACE_STYLE_FILL_AREA(#396);
#396=FILL_AREA_STYLE('',(#397));
#397=FILL_AREA_STYLE_COLOUR('',#398);
#398=COLOUR_RGB('',0.866666666666667,0.32156862745098,0.156862745098039);
#399=MANIFOLD_SOLID_BREP('Linear Adapter',#390);
#400=SHAPE_DEFINITION_REPRESENTATION(#645,#401);
#401=SHAPE_REPRESENTATION('Linear Adapter',(#402),#640);
#402=AXIS2_PLACEMENT_3D('',#533,#432,#433);
#403=AXIS2_PLACEMENT_3D('',#534,#434,#435);
#404=AXIS2_PLACEMENT_3D('',#543,#440,#441);
#405=AXIS2_PLACEMENT_3D('',#556,#448,#449);
#406=AXIS2_PLACEMENT_3D('',#557,#450,#451);
#407=AXIS2_PLACEMENT_3D('',#559,#452,#453);
#408=AXIS2_PLACEMENT_3D('',#561,#454,#455);
#409=AXIS2_PLACEMENT_3D('',#570,#460,#461);
#410=AXIS2_PLACEMENT_3D('',#576,#465,#466);
#411=AXIS2_PLACEMENT_3D('',#589,#473,#474);
#412=AXIS2_PLACEMENT_3D('',#590,#475,#476);
#413=AXIS2_PLACEMENT_3D('',#592,#477,#478);
#414=AXIS2_PLACEMENT_3D('',#594,#479,#480);
#415=AXIS2_PLACEMENT_3D('',#595,#481,#482);
#416=AXIS2_PLACEMENT_3D('',#604,#488,#489);
#417=AXIS2_PLACEMENT_3D('',#608,#493,#494);
#418=AXIS2_PLACEMENT_3D('',#609,#495,#496);
#419=AXIS2_PLACEMENT_3D('',#615,#500,#501);
#420=AXIS2_PLACEMENT_3D('',#619,#504,#505);
#421=AXIS2_PLACEMENT_3D('',#621,#507,#508);
#422=AXIS2_PLACEMENT_3D('',#625,#511,#512);
#423=AXIS2_PLACEMENT_3D('',#626,#513,#514);
#424=AXIS2_PLACEMENT_3D('',#630,#517,#518);
#425=AXIS2_PLACEMENT_3D('',#631,#519,#520);
#426=AXIS2_PLACEMENT_3D('',#633,#521,#522);
#427=AXIS2_PLACEMENT_3D('',#634,#523,#524);
#428=AXIS2_PLACEMENT_3D('',#635,#525,#526);
#429=AXIS2_PLACEMENT_3D('',#636,#527,#528);
#430=AXIS2_PLACEMENT_3D('',#637,#529,#530);
#431=AXIS2_PLACEMENT_3D('',#638,#531,#532);
#432=DIRECTION('',(0.,0.,1.));
#433=DIRECTION('',(1.,0.,0.));
#434=DIRECTION('',(0.,0.,1.));
#435=DIRECTION('',(0.,-1.,0.));
#436=DIRECTION('',(-1.,6.12323399573677E-17,0.));
#437=DIRECTION('',(6.12323399573677E-17,1.,0.));
#438=DIRECTION('',(1.,-6.12323399573677E-17,0.));
#439=DIRECTION('',(0.,-1.,0.));
#440=DIRECTION('',(1.,-6.12323399573677E-17,0.));
#441=DIRECTION('',(-6.12323399573677E-17,-1.,0.));
#442=DIRECTION('',(0.,0.,-1.));
#443=DIRECTION('',(-6.12323399573677E-17,-1.,0.));
#444=DIRECTION('',(2.7755575615629E-15,-1.69953884180861E-31,-1.));
#445=DIRECTION('',(-6.12323399573677E-17,-1.,0.));
#446=DIRECTION('',(0.,0.,-1.));
#447=DIRECTION('',(6.12323399573677E-17,1.,0.));
#448=DIRECTION('',(6.12323399573677E-17,1.,0.));
#449=DIRECTION('',(1.,-6.12323399573677E-17,0.));
#450=DIRECTION('',(0.,-1.,0.));
#451=DIRECTION('',(-1.,0.,0.));
#452=DIRECTION('',(-6.12323399573677E-17,-1.,0.));
#453=DIRECTION('',(-1.,6.12323399573677E-17,0.));
#454=DIRECTION('',(1.,-6.12323399573677E-17,0.));
#455=DIRECTION('',(-6.12323399573677E-17,-1.,0.));
#456=DIRECTION('',(0.,0.,1.));
#457=DIRECTION('',(-6.12323399573677E-17,-1.,0.));
#458=DIRECTION('',(0.,0.,-1.));
#459=DIRECTION('',(6.12323399573677E-17,1.,0.));
#460=DIRECTION('',(0.,0.,1.));
#461=DIRECTION('',(0.,-1.,0.));
#462=DIRECTION('',(-6.12323399573677E-17,-1.,0.));
#463=DIRECTION('',(1.,0.,0.));
#464=DIRECTION('',(1.,-6.12323399573677E-17,0.));
#465=DIRECTION('',(0.,0.,1.));
#466=DIRECTION('',(0.,-1.,0.));
#467=DIRECTION('',(1.,-6.12323399573677E-17,0.));
#468=DIRECTION('',(6.12323399573677E-17,1.,0.));
#469=DIRECTION('',(1.,0.,0.));
#470=DIRECTION('',(0.,-1.,0.));
#471=DIRECTION('',(1.,-6.12323399573677E-17,0.));
#472=DIRECTION('',(-6.12323399573677E-17,-1.,0.));
#473=DIRECTION('',(6.12323399573677E-17,1.,0.));
#474=DIRECTION('',(1.,-6.12323399573677E-17,0.));
#475=DIRECTION('',(-6.12323399573677E-17,-1.,0.));
#476=DIRECTION('',(-1.,6.12323399573677E-17,0.));
#477=DIRECTION('',(-6.12323399573677E-17,-1.,0.));
#478=DIRECTION('',(-1.,6.12323399573677E-17,0.));
#479=DIRECTION('',(-6.12323399573677E-17,-1.,0.));
#480=DIRECTION('',(1.,-6.12323399573677E-17,0.));
#481=DIRECTION('',(-6.12323399573677E-17,-1.,0.));
#482=DIRECTION('',(-1.,6.12323399573677E-17,0.));
#483=DIRECTION('',(0.707106781186546,-4.32978028117746E-17,-0.707106781186549));
#484=DIRECTION('',(-1.,6.12323399573677E-17,-2.08166817117216E-15));
#485=DIRECTION('',(2.77555756156288E-15,-1.69953884180861E-31,-1.));
#486=DIRECTION('',(-0.707106781186548,4.32978028117747E-17,0.707106781186547));
#487=DIRECTION('',(0.707106781186548,-4.32978028117747E-17,0.707106781186547));
#488=DIRECTION('',(-6.12323399573677E-17,-1.,0.));
#489=DIRECTION('',(1.,-6.12323399573677E-17,0.));
#490=DIRECTION('',(-0.707106781186548,4.32978028117747E-17,0.707106781186547));
#491=DIRECTION('',(-0.707106781186548,4.32978028117747E-17,-0.707106781186547));
#492=DIRECTION('',(0.,0.,1.));
#493=DIRECTION('',(0.,-1.,0.));
#494=DIRECTION('',(-1.,0.,0.));
#495=DIRECTION('',(0.,-1.,0.));
#496=DIRECTION('',(-1.,0.,0.));
#497=DIRECTION('',(0.707106781186548,0.,-0.707106781186547));
#498=DIRECTION('',(0.,0.,1.));
#499=DIRECTION('',(0.,0.,1.));
#500=DIRECTION('',(-1.,0.,0.));
#501=DIRECTION('',(0.,1.,0.));
#502=DIRECTION('',(2.77555756156288E-15,-1.69953884180861E-31,-1.));
#503=DIRECTION('',(-6.12323399573677E-17,-1.,0.));
#504=DIRECTION('',(-1.,6.12323399573677E-17,-2.77555756156288E-15));
#505=DIRECTION('',(-2.77555756156288E-15,0.,1.));
#506=DIRECTION('',(-6.12323399573677E-17,-1.,0.));
#507=DIRECTION('',(-2.08166817117216E-15,1.27465413135646E-31,1.));
#508=DIRECTION('',(1.,0.,2.08166817117216E-15));
#509=DIRECTION('',(6.12323399573677E-17,1.,0.));
#510=DIRECTION('',(-1.,6.12323399573677E-17,-2.08166817117216E-15));
#511=DIRECTION('',(-6.12323399573677E-17,-1.,0.));
#512=DIRECTION('',(1.,-6.12323399573677E-17,0.));
#513=DIRECTION('',(-6.12323399573677E-17,-1.,0.));
#514=DIRECTION('',(-1.,6.12323399573677E-17,0.));
#515=DIRECTION('',(0.707106781186548,-4.32978028117747E-17,-0.707106781186547));
#516=DIRECTION('',(-0.707106781186546,4.32978028117746E-17,0.707106781186549));
#517=DIRECTION('',(-6.12323399573677E-17,-1.,0.));
#518=DIRECTION('',(-1.,6.12323399573677E-17,0.));
#519=DIRECTION('',(0.,-1.,0.));
#520=DIRECTION('',(-1.,0.,0.));
#521=DIRECTION('',(-0.707106781186547,4.32978028117746E-17,-0.707106781186548));
#522=DIRECTION('',(6.12323399573677E-17,1.,0.));
#523=DIRECTION('',(-0.707106781186549,4.32978028117747E-17,-0.707106781186546));
#524=DIRECTION('',(-6.12323399573677E-17,-1.,0.));
#525=DIRECTION('',(0.707106781186547,-4.32978028117746E-17,0.707106781186548));
#526=DIRECTION('',(6.12323399573677E-17,1.,0.));
#527=DIRECTION('',(0.707106781186547,-4.32978028117746E-17,-0.707106781186548));
#528=DIRECTION('',(-6.12323399573677E-17,-1.,0.));
#529=DIRECTION('',(0.,-1.,0.));
#530=DIRECTION('',(-1.,0.,0.));
#531=DIRECTION('',(0.,-1.,0.));
#532=DIRECTION('',(-1.,0.,0.));
#533=CARTESIAN_POINT('',(0.,0.,0.));
#534=CARTESIAN_POINT('',(0.129784798026085,0.1664,0.109359476607213));
#535=CARTESIAN_POINT('',(0.139784798026085,0.1864,0.109359476607213));
#536=CARTESIAN_POINT('',(0.151784798026085,0.1864,0.109359476607213));
#537=CARTESIAN_POINT('',(0.119784798026085,0.1864,0.109359476607213));
#538=CARTESIAN_POINT('',(0.151784798026085,0.1664,0.109359476607213));
#539=CARTESIAN_POINT('',(0.151784798026085,0.1914,0.109359476607213));
#540=CARTESIAN_POINT('',(0.129784798026085,0.1914,0.109359476607213));
#541=CARTESIAN_POINT('',(0.119784798026085,0.1914,0.109359476607213));
#542=CARTESIAN_POINT('',(0.119784798026085,0.1814,0.109359476607213));
#543=CARTESIAN_POINT('',(0.159784798026085,0.1664,0.081859476607213));
#544=CARTESIAN_POINT('',(0.159784798026085,0.1914,0.081859476607213));
#545=CARTESIAN_POINT('',(0.159784798026085,0.1914,0.101359476607213));
#546=CARTESIAN_POINT('',(0.159784798026085,0.1914,0.0623594766072129));
#547=CARTESIAN_POINT('',(0.159784798026085,0.1664,0.101359476607213));
#548=CARTESIAN_POINT('',(0.159784798026085,0.1864,0.101359476607213));
#549=CARTESIAN_POINT('',(0.159784798026085,0.1864,0.0993594766072129));
#550=CARTESIAN_POINT('',(0.159784798026085,0.1864,0.081359476607213));
#551=CARTESIAN_POINT('',(0.159784798026085,0.1664,0.081359476607213));
#552=CARTESIAN_POINT('',(0.159784798026085,0.1664,0.081359476607213));
#553=CARTESIAN_POINT('',(0.159784798026085,0.1664,0.081859476607213));
#554=CARTESIAN_POINT('',(0.159784798026085,0.1664,0.0623594766072129));
#555=CARTESIAN_POINT('',(0.159784798026085,0.1914,0.0623594766072129));
#556=CARTESIAN_POINT('',(0.133744145256189,0.1664,0.0993609024903761));
#557=CARTESIAN_POINT('',(0.133744145256189,0.1884,0.0993609024903761));
#558=CARTESIAN_POINT('',(0.131244145256189,0.1884,0.0993609024903761));
#559=CARTESIAN_POINT('',(0.133744145256189,0.1914,0.0993609024903761));
#560=CARTESIAN_POINT('',(0.131244145256189,0.1914,0.0993609024903761));
#561=CARTESIAN_POINT('',(0.0997847980260849,0.1664,0.0818594766072129));
#562=CARTESIAN_POINT('',(0.0997847980260849,0.1714,-0.741509020097639));
#563=CARTESIAN_POINT('',(0.0997847980260849,0.1714,0.0623594766072128));
#564=CARTESIAN_POINT('',(0.0997847980260849,0.1714,0.109359476607213));
#565=CARTESIAN_POINT('',(0.0997847980260849,0.1664,0.0623594766072129));
#566=CARTESIAN_POINT('',(0.0997847980260849,0.1664,0.0623594766072129));
#567=CARTESIAN_POINT('',(0.0997847980260849,0.1664,0.0818594766072129));
#568=CARTESIAN_POINT('',(0.0997847980260849,0.1664,0.109359476607213));
#569=CARTESIAN_POINT('',(0.0997847980260849,0.1664,0.109359476607213));
#570=CARTESIAN_POINT('',(0.129784798026085,0.1664,0.109359476607213));
#571=CARTESIAN_POINT('',(0.119784798026085,0.1864,0.109359476607213));
#572=CARTESIAN_POINT('',(0.119784798026085,0.1714,0.109359476607213));
#573=CARTESIAN_POINT('',(0.119784798026085,0.1664,0.109359476607213));
#574=CARTESIAN_POINT('',(0.109784798026085,0.1714,0.109359476607213));
#575=CARTESIAN_POINT('',(0.129784798026085,0.1664,0.109359476607213));
#576=CARTESIAN_POINT('',(0.129784798026085,0.1664,0.0543594766072129));
#577=CARTESIAN_POINT('',(0.129784798026085,0.1664,0.0543594766072129));
#578=CARTESIAN_POINT('',(0.107784798026085,0.1664,0.0543594766072129));
#579=CARTESIAN_POINT('',(0.151784798026085,0.1664,0.0543594766072129));
#580=CARTESIAN_POINT('',(0.107784798026085,0.1664,0.0543594766072129));
#581=CARTESIAN_POINT('',(0.107784798026085,0.1714,0.0543594766072129));
#582=CARTESIAN_POINT('',(0.129784798026085,0.1714,0.0543594766072129));
#583=CARTESIAN_POINT('',(0.119784798026085,0.1714,0.0543594766072127));
#584=CARTESIAN_POINT('',(0.119784798026085,0.1664,0.0543594766072129));
#585=CARTESIAN_POINT('',(0.119784798026085,0.1914,0.0543594766072129));
#586=CARTESIAN_POINT('',(0.129784798026085,0.1914,0.0543594766072129));
#587=CARTESIAN_POINT('',(0.151784798026085,0.1914,0.0543594766072129));
#588=CARTESIAN_POINT('',(0.151784798026085,0.1664,0.0543594766072129));
#589=CARTESIAN_POINT('',(0.141955178741093,0.1664,0.0735));
#590=CARTESIAN_POINT('',(0.141955178741093,0.1664,0.0735));
#591=CARTESIAN_POINT('',(0.131455178741093,0.1664,0.0735));
#592=CARTESIAN_POINT('',(0.141955178741093,0.1914,0.0735));
#593=CARTESIAN_POINT('',(0.131455178741093,0.1914,0.0735));
#594=CARTESIAN_POINT('',(-0.0403580090403558,0.1664,0.018680451245188));
#595=CARTESIAN_POINT('',(0.109784798026085,0.1664,0.0743594766072129));
#596=CARTESIAN_POINT('',(0.105284798026085,0.1664,0.0743594766072129));
#597=CARTESIAN_POINT('',(0.0910529071738774,0.1664,0.150091367459421));
#598=CARTESIAN_POINT('',(0.151784798026085,0.1664,0.0893594766072129));
#599=CARTESIAN_POINT('',(0.139784798026085,0.1664,0.0893594766072129));
#600=CARTESIAN_POINT('',(0.119784798026085,0.1664,0.0893594766072129));
#601=CARTESIAN_POINT('',(0.119784798026085,0.1664,0.0993594766072129));
#602=CARTESIAN_POINT('',(0.051552907173877,0.1664,0.110591367459421));
#603=CARTESIAN_POINT('',(0.037873881811852,0.1664,-0.0595514396070198));
#604=CARTESIAN_POINT('',(-0.0403580090403558,0.1914,0.018680451245188));
#605=CARTESIAN_POINT('',(0.151784798026085,0.1914,0.109359476607213));
#606=CARTESIAN_POINT('',(0.159784798026085,0.1914,0.0623594766072129));
#607=CARTESIAN_POINT('',(0.119784798026085,0.1914,-0.741509020097639));
#608=CARTESIAN_POINT('',(0.109784798026085,0.1714,-0.741509020097639));
#609=CARTESIAN_POINT('',(0.109784798026085,0.1714,0.0743594766072129));
#610=CARTESIAN_POINT('',(0.107284798026085,0.1714,0.0743594766072129));
#611=CARTESIAN_POINT('',(0.107784798026085,0.1714,0.0543594766072129));
#612=CARTESIAN_POINT('',(0.119784798026085,0.1714,-0.741509020097639));
#613=CARTESIAN_POINT('',(0.119784798026085,0.1714,0.0893594766072129));
#614=CARTESIAN_POINT('',(0.119784798026085,0.1714,-0.741509020097639));
#615=CARTESIAN_POINT('',(0.119784798026085,0.1814,-0.741509020097639));
#616=CARTESIAN_POINT('',(0.119784798026085,0.1864,0.0993594766072129));
#617=CARTESIAN_POINT('',(0.119784798026085,0.1864,0.0893594766072129));
#618=CARTESIAN_POINT('',(0.119784798026085,0.1864,0.0893594766072129));
#619=CARTESIAN_POINT('',(0.119784798026085,0.1864,0.0993594766072129));
#620=CARTESIAN_POINT('',(0.119784798026085,0.1864,0.0893594766072129));
#621=CARTESIAN_POINT('',(0.139784798026085,0.1864,0.0893594766072129));
#622=CARTESIAN_POINT('',(0.151784798026085,0.1864,0.0893594766072129));
#623=CARTESIAN_POINT('',(0.151784798026085,0.1864,0.0893594766072129));
#624=CARTESIAN_POINT('',(0.139784798026085,0.1864,0.0893594766072129));
#625=CARTESIAN_POINT('',(-0.0403580090403557,0.1864,0.018680451245188));
#626=CARTESIAN_POINT('',(0.133744145256189,0.1864,0.0993609024903761));
#627=CARTESIAN_POINT('',(0.129244145256189,0.1864,0.0993609024903761));
#628=CARTESIAN_POINT('',(0.101052907173877,0.1864,0.160091367459421));
#629=CARTESIAN_POINT('',(0.159784798026085,0.1864,0.081359476607213));
#630=CARTESIAN_POINT('',(0.109784798026085,1.01726849670485,0.0743594766072129));
#631=CARTESIAN_POINT('',(0.109784798026085,0.1684,0.0743594766072129));
#632=CARTESIAN_POINT('',(0.107284798026085,0.1684,0.0743594766072129));
#633=CARTESIAN_POINT('',(0.151784798026085,0.1664,0.109359476607213));
#634=CARTESIAN_POINT('',(0.159784798026085,0.1664,0.081359476607213));
#635=CARTESIAN_POINT('',(0.107784798026085,0.1664,0.0543594766072129));
#636=CARTESIAN_POINT('',(0.159784798026085,0.1664,0.0623594766072129));
#637=CARTESIAN_POINT('',(0.109784798026085,0.1684,0.0743594766072129));
#638=CARTESIAN_POINT('',(0.133744145256189,0.1884,0.0993609024903761));
#639=MECHANICAL_DESIGN_GEOMETRIC_PRESENTATION_REPRESENTATION('',(#391),
#640);
#640=(
GEOMETRIC_REPRESENTATION_CONTEXT(3)
GLOBAL_UNCERTAINTY_ASSIGNED_CONTEXT((#641))
GLOBAL_UNIT_ASSIGNED_CONTEXT((#644,#643,#642))
REPRESENTATION_CONTEXT('Linear Adapter','TOP_LEVEL_ASSEMBLY_PART')
);
#641=UNCERTAINTY_MEASURE_WITH_UNIT(LENGTH_MEASURE(1.E-8),#644,
'DISTANCE_ACCURACY_VALUE','Maximum Tolerance applied to model');
#642=(
NAMED_UNIT(*)
SI_UNIT($,.STERADIAN.)
SOLID_ANGLE_UNIT()
);
#643=(
NAMED_UNIT(*)
PLANE_ANGLE_UNIT()
SI_UNIT($,.RADIAN.)
);
#644=(
LENGTH_UNIT()
NAMED_UNIT(*)
SI_UNIT($,.METRE.)
);
#645=PRODUCT_DEFINITION_SHAPE('','',#646);
#646=PRODUCT_DEFINITION('','',#648,#647);
#647=PRODUCT_DEFINITION_CONTEXT('',#654,'design');
#648=PRODUCT_DEFINITION_FORMATION_WITH_SPECIFIED_SOURCE('','',#650,
 .NOT_KNOWN.);
#649=PRODUCT_RELATED_PRODUCT_CATEGORY('','',(#650));
#650=PRODUCT('Linear Adapter','Linear Adapter','Linear Adapter',(#652));
#651=PRODUCT_CATEGORY('','');
#652=PRODUCT_CONTEXT('',#654,'mechanical');
#653=APPLICATION_PROTOCOL_DEFINITION('international standard',
'ap242_managed_model_based_3d_engineering',2020,#654);
#654=APPLICATION_CONTEXT('managed model based 3d engineering');
ENDSEC;
END-ISO-10303-21;
