ISO-10303-21;
HEADER;
/* Generated by software containing ST-Developer
 * from STEP Tools, Inc. (www.steptools.com) 
 */
/* OPTION: using custom renumber hook */

FILE_DESCRIPTION(
/* description */ ('STEP AP242 Edition 2',
'CAx-IF Rec.Pracs.---Representation and Presentation of Product Manufa
cturing Information (PMI)---4.0---2014-10-13',
'CAx-IF Rec.Pracs.---3D Tessellated Geometry---0.4---2014-09-14','2;1',
'CAx-IF Rec.Pracs.---User Defined Attributes---1.5---2016-08-15'),
/* implementation_level */ '2;1');

FILE_NAME(
/* name */ 'NOT-618 - SMPS_Holder',
/* time_stamp */ '2026-07-26T08:51:50Z',
/* author */ (''),
/* organization */ (''),
/* preprocessor_version */ 'ST-DEVELOPER v20',
/* originating_system */ 'ONSHAPE BY PTC INC, 1.218',
/* authorisation */ '  ');

FILE_SCHEMA (('AP242_MANAGED_MODEL_BASED_3D_ENGINEERING_MIM_LF { 1 0 10303 442 3 1 4 }'));
ENDSEC;

DATA;
#10=SHAPE_REPRESENTATION_RELATIONSHIP('','',#755,#11);
#11=ADVANCED_BREP_SHAPE_REPRESENTATION('',(#753),#1213);
#12=CONICAL_SURFACE('',#806,0.0017,0.785398163397448);
#13=CONICAL_SURFACE('',#807,0.0017,0.785398163397448);
#14=CONICAL_SURFACE('',#808,0.0017,0.785398163397448);
#15=CONICAL_SURFACE('',#809,0.0017,0.785398163397448);
#16=CONICAL_SURFACE('',#811,0.0047,0.785398163397448);
#17=CYLINDRICAL_SURFACE('',#784,0.0017);
#18=CYLINDRICAL_SURFACE('',#789,0.0017);
#19=CYLINDRICAL_SURFACE('',#791,0.0017);
#20=CYLINDRICAL_SURFACE('',#796,0.0017);
#21=CYLINDRICAL_SURFACE('',#798,0.0017);
#22=CYLINDRICAL_SURFACE('',#800,0.00265);
#23=CYLINDRICAL_SURFACE('',#801,0.00265);
#24=CIRCLE('',#759,0.00265);
#25=CIRCLE('',#760,0.00265);
#26=CIRCLE('',#762,0.00265);
#27=CIRCLE('',#763,0.00265);
#28=CIRCLE('',#765,0.0047);
#29=CIRCLE('',#766,0.0047);
#30=CIRCLE('',#771,0.0047);
#31=CIRCLE('',#773,0.0017);
#32=CIRCLE('',#776,0.0017);
#33=CIRCLE('',#777,0.0017);
#34=CIRCLE('',#779,0.0047);
#35=CIRCLE('',#780,0.0047);
#36=CIRCLE('',#785,0.0017);
#37=CIRCLE('',#790,0.0017);
#38=CIRCLE('',#792,0.0017);
#39=CIRCLE('',#794,0.0017);
#40=CIRCLE('',#795,0.0017);
#41=CIRCLE('',#797,0.0017);
#42=CIRCLE('',#799,0.0017);
#43=ORIENTED_EDGE('',*,*,#233,.F.);
#44=ORIENTED_EDGE('',*,*,#234,.T.);
#45=ORIENTED_EDGE('',*,*,#235,.T.);
#46=ORIENTED_EDGE('',*,*,#236,.F.);
#47=ORIENTED_EDGE('',*,*,#237,.T.);
#48=ORIENTED_EDGE('',*,*,#238,.T.);
#49=ORIENTED_EDGE('',*,*,#239,.F.);
#50=ORIENTED_EDGE('',*,*,#240,.T.);
#51=ORIENTED_EDGE('',*,*,#233,.T.);
#52=ORIENTED_EDGE('',*,*,#241,.F.);
#53=ORIENTED_EDGE('',*,*,#242,.T.);
#54=ORIENTED_EDGE('',*,*,#243,.T.);
#55=ORIENTED_EDGE('',*,*,#244,.T.);
#56=ORIENTED_EDGE('',*,*,#245,.T.);
#57=ORIENTED_EDGE('',*,*,#246,.F.);
#58=ORIENTED_EDGE('',*,*,#247,.F.);
#59=ORIENTED_EDGE('',*,*,#248,.T.);
#60=ORIENTED_EDGE('',*,*,#249,.F.);
#61=ORIENTED_EDGE('',*,*,#250,.T.);
#62=ORIENTED_EDGE('',*,*,#251,.F.);
#63=ORIENTED_EDGE('',*,*,#252,.T.);
#64=ORIENTED_EDGE('',*,*,#235,.F.);
#65=ORIENTED_EDGE('',*,*,#253,.F.);
#66=ORIENTED_EDGE('',*,*,#254,.F.);
#67=ORIENTED_EDGE('',*,*,#255,.T.);
#68=ORIENTED_EDGE('',*,*,#256,.T.);
#69=ORIENTED_EDGE('',*,*,#249,.T.);
#70=ORIENTED_EDGE('',*,*,#257,.T.);
#71=ORIENTED_EDGE('',*,*,#258,.F.);
#72=ORIENTED_EDGE('',*,*,#259,.T.);
#73=ORIENTED_EDGE('',*,*,#243,.F.);
#74=ORIENTED_EDGE('',*,*,#260,.F.);
#75=ORIENTED_EDGE('',*,*,#261,.F.);
#76=ORIENTED_EDGE('',*,*,#262,.T.);
#77=ORIENTED_EDGE('',*,*,#245,.F.);
#78=ORIENTED_EDGE('',*,*,#263,.T.);
#79=ORIENTED_EDGE('',*,*,#264,.T.);
#80=ORIENTED_EDGE('',*,*,#265,.T.);
#81=ORIENTED_EDGE('',*,*,#266,.F.);
#82=ORIENTED_EDGE('',*,*,#267,.T.);
#83=ORIENTED_EDGE('',*,*,#268,.T.);
#84=ORIENTED_EDGE('',*,*,#269,.F.);
#85=ORIENTED_EDGE('',*,*,#270,.F.);
#86=ORIENTED_EDGE('',*,*,#271,.T.);
#87=ORIENTED_EDGE('',*,*,#272,.F.);
#88=ORIENTED_EDGE('',*,*,#273,.T.);
#89=ORIENTED_EDGE('',*,*,#274,.T.);
#90=ORIENTED_EDGE('',*,*,#261,.T.);
#91=ORIENTED_EDGE('',*,*,#275,.T.);
#92=ORIENTED_EDGE('',*,*,#276,.T.);
#93=ORIENTED_EDGE('',*,*,#251,.T.);
#94=ORIENTED_EDGE('',*,*,#277,.T.);
#95=ORIENTED_EDGE('',*,*,#278,.T.);
#96=ORIENTED_EDGE('',*,*,#279,.T.);
#97=ORIENTED_EDGE('',*,*,#280,.T.);
#98=ORIENTED_EDGE('',*,*,#281,.T.);
#99=ORIENTED_EDGE('',*,*,#270,.T.);
#100=ORIENTED_EDGE('',*,*,#260,.T.);
#101=ORIENTED_EDGE('',*,*,#242,.F.);
#102=ORIENTED_EDGE('',*,*,#282,.T.);
#103=ORIENTED_EDGE('',*,*,#283,.T.);
#104=ORIENTED_EDGE('',*,*,#284,.T.);
#105=ORIENTED_EDGE('',*,*,#285,.F.);
#106=ORIENTED_EDGE('',*,*,#265,.F.);
#107=ORIENTED_EDGE('',*,*,#286,.F.);
#108=ORIENTED_EDGE('',*,*,#287,.T.);
#109=ORIENTED_EDGE('',*,*,#269,.T.);
#110=ORIENTED_EDGE('',*,*,#288,.T.);
#111=ORIENTED_EDGE('',*,*,#289,.F.);
#112=ORIENTED_EDGE('',*,*,#290,.T.);
#113=ORIENTED_EDGE('',*,*,#286,.T.);
#114=ORIENTED_EDGE('',*,*,#264,.F.);
#115=ORIENTED_EDGE('',*,*,#291,.T.);
#116=ORIENTED_EDGE('',*,*,#292,.T.);
#117=ORIENTED_EDGE('',*,*,#293,.T.);
#118=ORIENTED_EDGE('',*,*,#267,.F.);
#119=ORIENTED_EDGE('',*,*,#294,.T.);
#120=ORIENTED_EDGE('',*,*,#289,.T.);
#121=ORIENTED_EDGE('',*,*,#263,.F.);
#122=ORIENTED_EDGE('',*,*,#295,.F.);
#123=ORIENTED_EDGE('',*,*,#296,.T.);
#124=ORIENTED_EDGE('',*,*,#297,.T.);
#125=ORIENTED_EDGE('',*,*,#298,.T.);
#126=ORIENTED_EDGE('',*,*,#299,.T.);
#127=ORIENTED_EDGE('',*,*,#300,.F.);
#128=ORIENTED_EDGE('',*,*,#301,.T.);
#129=ORIENTED_EDGE('',*,*,#247,.T.);
#130=ORIENTED_EDGE('',*,*,#302,.F.);
#131=ORIENTED_EDGE('',*,*,#239,.T.);
#132=ORIENTED_EDGE('',*,*,#262,.F.);
#133=ORIENTED_EDGE('',*,*,#274,.F.);
#134=ORIENTED_EDGE('',*,*,#303,.T.);
#135=ORIENTED_EDGE('',*,*,#304,.F.);
#136=ORIENTED_EDGE('',*,*,#305,.T.);
#137=ORIENTED_EDGE('',*,*,#306,.F.);
#138=ORIENTED_EDGE('',*,*,#272,.T.);
#139=ORIENTED_EDGE('',*,*,#307,.T.);
#140=ORIENTED_EDGE('',*,*,#308,.T.);
#141=ORIENTED_EDGE('',*,*,#268,.F.);
#142=ORIENTED_EDGE('',*,*,#309,.F.);
#143=ORIENTED_EDGE('',*,*,#310,.T.);
#144=ORIENTED_EDGE('',*,*,#287,.F.);
#145=ORIENTED_EDGE('',*,*,#290,.F.);
#146=ORIENTED_EDGE('',*,*,#294,.F.);
#147=ORIENTED_EDGE('',*,*,#266,.T.);
#148=ORIENTED_EDGE('',*,*,#280,.F.);
#149=ORIENTED_EDGE('',*,*,#311,.T.);
#150=ORIENTED_EDGE('',*,*,#282,.F.);
#151=ORIENTED_EDGE('',*,*,#308,.F.);
#152=ORIENTED_EDGE('',*,*,#312,.T.);
#153=ORIENTED_EDGE('',*,*,#313,.T.);
#154=ORIENTED_EDGE('',*,*,#288,.F.);
#155=ORIENTED_EDGE('',*,*,#258,.T.);
#156=ORIENTED_EDGE('',*,*,#314,.T.);
#157=ORIENTED_EDGE('',*,*,#300,.T.);
#158=ORIENTED_EDGE('',*,*,#315,.T.);
#159=ORIENTED_EDGE('',*,*,#316,.F.);
#160=ORIENTED_EDGE('',*,*,#284,.F.);
#161=ORIENTED_EDGE('',*,*,#317,.T.);
#162=ORIENTED_EDGE('',*,*,#278,.F.);
#163=ORIENTED_EDGE('',*,*,#318,.T.);
#164=ORIENTED_EDGE('',*,*,#293,.F.);
#165=ORIENTED_EDGE('',*,*,#319,.T.);
#166=ORIENTED_EDGE('',*,*,#304,.T.);
#167=ORIENTED_EDGE('',*,*,#320,.T.);
#168=ORIENTED_EDGE('',*,*,#309,.T.);
#169=ORIENTED_EDGE('',*,*,#306,.T.);
#170=ORIENTED_EDGE('',*,*,#321,.T.);
#171=ORIENTED_EDGE('',*,*,#291,.F.);
#172=ORIENTED_EDGE('',*,*,#315,.F.);
#173=ORIENTED_EDGE('',*,*,#322,.T.);
#174=ORIENTED_EDGE('',*,*,#297,.F.);
#175=ORIENTED_EDGE('',*,*,#323,.T.);
#176=ORIENTED_EDGE('',*,*,#296,.F.);
#177=ORIENTED_EDGE('',*,*,#324,.T.);
#178=ORIENTED_EDGE('',*,*,#325,.T.);
#179=ORIENTED_EDGE('',*,*,#244,.F.);
#180=ORIENTED_EDGE('',*,*,#285,.T.);
#181=ORIENTED_EDGE('',*,*,#316,.T.);
#182=ORIENTED_EDGE('',*,*,#295,.T.);
#183=ORIENTED_EDGE('',*,*,#326,.T.);
#184=ORIENTED_EDGE('',*,*,#324,.F.);
#185=ORIENTED_EDGE('',*,*,#327,.T.);
#186=ORIENTED_EDGE('',*,*,#325,.F.);
#187=ORIENTED_EDGE('',*,*,#254,.T.);
#188=ORIENTED_EDGE('',*,*,#238,.F.);
#189=ORIENTED_EDGE('',*,*,#253,.T.);
#190=ORIENTED_EDGE('',*,*,#237,.F.);
#191=ORIENTED_EDGE('',*,*,#241,.T.);
#192=ORIENTED_EDGE('',*,*,#236,.T.);
#193=ORIENTED_EDGE('',*,*,#252,.F.);
#194=ORIENTED_EDGE('',*,*,#276,.F.);
#195=ORIENTED_EDGE('',*,*,#302,.T.);
#196=ORIENTED_EDGE('',*,*,#246,.T.);
#197=ORIENTED_EDGE('',*,*,#234,.F.);
#198=ORIENTED_EDGE('',*,*,#240,.F.);
#199=ORIENTED_EDGE('',*,*,#314,.F.);
#200=ORIENTED_EDGE('',*,*,#257,.F.);
#201=ORIENTED_EDGE('',*,*,#248,.F.);
#202=ORIENTED_EDGE('',*,*,#301,.F.);
#203=ORIENTED_EDGE('',*,*,#318,.F.);
#204=ORIENTED_EDGE('',*,*,#277,.F.);
#205=ORIENTED_EDGE('',*,*,#250,.F.);
#206=ORIENTED_EDGE('',*,*,#259,.F.);
#207=ORIENTED_EDGE('',*,*,#255,.F.);
#208=ORIENTED_EDGE('',*,*,#326,.F.);
#209=ORIENTED_EDGE('',*,*,#256,.F.);
#210=ORIENTED_EDGE('',*,*,#327,.F.);
#211=ORIENTED_EDGE('',*,*,#298,.F.);
#212=ORIENTED_EDGE('',*,*,#322,.F.);
#213=ORIENTED_EDGE('',*,*,#299,.F.);
#214=ORIENTED_EDGE('',*,*,#323,.F.);
#215=ORIENTED_EDGE('',*,*,#305,.F.);
#216=ORIENTED_EDGE('',*,*,#319,.F.);
#217=ORIENTED_EDGE('',*,*,#292,.F.);
#218=ORIENTED_EDGE('',*,*,#321,.F.);
#219=ORIENTED_EDGE('',*,*,#313,.F.);
#220=ORIENTED_EDGE('',*,*,#275,.F.);
#221=ORIENTED_EDGE('',*,*,#279,.F.);
#222=ORIENTED_EDGE('',*,*,#317,.F.);
#223=ORIENTED_EDGE('',*,*,#283,.F.);
#224=ORIENTED_EDGE('',*,*,#311,.F.);
#225=ORIENTED_EDGE('',*,*,#271,.F.);
#226=ORIENTED_EDGE('',*,*,#281,.F.);
#227=ORIENTED_EDGE('',*,*,#312,.F.);
#228=ORIENTED_EDGE('',*,*,#307,.F.);
#229=ORIENTED_EDGE('',*,*,#273,.F.);
#230=ORIENTED_EDGE('',*,*,#310,.F.);
#231=ORIENTED_EDGE('',*,*,#320,.F.);
#232=ORIENTED_EDGE('',*,*,#303,.F.);
#233=EDGE_CURVE('',#328,#329,#396,.T.);
#234=EDGE_CURVE('',#328,#330,#397,.T.);
#235=EDGE_CURVE('',#330,#331,#398,.T.);
#236=EDGE_CURVE('',#329,#331,#399,.T.);
#237=EDGE_CURVE('',#332,#332,#24,.T.);
#238=EDGE_CURVE('',#333,#333,#25,.T.);
#239=EDGE_CURVE('',#334,#335,#400,.T.);
#240=EDGE_CURVE('',#334,#328,#401,.T.);
#241=EDGE_CURVE('',#336,#329,#402,.T.);
#242=EDGE_CURVE('',#336,#337,#403,.T.);
#243=EDGE_CURVE('',#337,#338,#404,.T.);
#244=EDGE_CURVE('',#338,#339,#405,.T.);
#245=EDGE_CURVE('',#339,#335,#406,.T.);
#246=EDGE_CURVE('',#340,#330,#407,.T.);
#247=EDGE_CURVE('',#341,#340,#408,.T.);
#248=EDGE_CURVE('',#341,#342,#409,.F.);
#249=EDGE_CURVE('',#343,#342,#410,.T.);
#250=EDGE_CURVE('',#343,#344,#411,.T.);
#251=EDGE_CURVE('',#345,#344,#412,.T.);
#252=EDGE_CURVE('',#345,#331,#413,.T.);
#253=EDGE_CURVE('',#346,#346,#26,.T.);
#254=EDGE_CURVE('',#347,#347,#27,.T.);
#255=EDGE_CURVE('',#348,#348,#28,.F.);
#256=EDGE_CURVE('',#349,#349,#29,.F.);
#257=EDGE_CURVE('',#342,#350,#414,.T.);
#258=EDGE_CURVE('',#351,#350,#415,.T.);
#259=EDGE_CURVE('',#351,#343,#416,.T.);
#260=EDGE_CURVE('',#352,#337,#417,.T.);
#261=EDGE_CURVE('',#353,#352,#418,.T.);
#262=EDGE_CURVE('',#353,#335,#419,.T.);
#263=EDGE_CURVE('',#339,#354,#420,.T.);
#264=EDGE_CURVE('',#354,#355,#421,.T.);
#265=EDGE_CURVE('',#355,#338,#422,.T.);
#266=EDGE_CURVE('',#356,#357,#423,.T.);
#267=EDGE_CURVE('',#356,#358,#424,.T.);
#268=EDGE_CURVE('',#358,#359,#425,.T.);
#269=EDGE_CURVE('',#357,#359,#426,.T.);
#270=EDGE_CURVE('',#360,#352,#427,.T.);
#271=EDGE_CURVE('',#360,#361,#428,.T.);
#272=EDGE_CURVE('',#362,#361,#429,.T.);
#273=EDGE_CURVE('',#362,#363,#430,.F.);
#274=EDGE_CURVE('',#363,#353,#431,.T.);
#275=EDGE_CURVE('',#364,#364,#30,.T.);
#276=EDGE_CURVE('',#336,#345,#432,.T.);
#277=EDGE_CURVE('',#344,#365,#433,.T.);
#278=EDGE_CURVE('',#365,#366,#434,.T.);
#279=EDGE_CURVE('',#366,#367,#435,.F.);
#280=EDGE_CURVE('',#367,#368,#436,.T.);
#281=EDGE_CURVE('',#368,#360,#437,.T.);
#282=EDGE_CURVE('',#359,#369,#438,.T.);
#283=EDGE_CURVE('',#369,#370,#439,.F.);
#284=EDGE_CURVE('',#370,#371,#440,.T.);
#285=EDGE_CURVE('',#338,#371,#441,.T.);
#286=EDGE_CURVE('',#372,#355,#442,.T.);
#287=EDGE_CURVE('',#372,#357,#443,.T.);
#288=EDGE_CURVE('',#373,#373,#31,.T.);
#289=EDGE_CURVE('',#374,#354,#444,.T.);
#290=EDGE_CURVE('',#374,#372,#445,.T.);
#291=EDGE_CURVE('',#375,#376,#446,.T.);
#292=EDGE_CURVE('',#376,#377,#447,.F.);
#293=EDGE_CURVE('',#377,#358,#448,.T.);
#294=EDGE_CURVE('',#356,#374,#449,.T.);
#295=EDGE_CURVE('',#375,#339,#450,.F.);
#296=EDGE_CURVE('',#378,#378,#32,.T.);
#297=EDGE_CURVE('',#379,#379,#33,.T.);
#298=EDGE_CURVE('',#380,#380,#34,.F.);
#299=EDGE_CURVE('',#381,#381,#35,.F.);
#300=EDGE_CURVE('',#382,#383,#451,.T.);
#301=EDGE_CURVE('',#382,#341,#452,.T.);
#302=EDGE_CURVE('',#334,#340,#453,.T.);
#303=EDGE_CURVE('',#363,#384,#454,.T.);
#304=EDGE_CURVE('',#385,#384,#455,.T.);
#305=EDGE_CURVE('',#385,#386,#456,.F.);
#306=EDGE_CURVE('',#383,#386,#457,.T.);
#307=EDGE_CURVE('',#361,#387,#458,.T.);
#308=EDGE_CURVE('',#387,#359,#459,.T.);
#309=EDGE_CURVE('',#388,#358,#460,.T.);
#310=EDGE_CURVE('',#388,#362,#461,.T.);
#311=EDGE_CURVE('',#367,#369,#462,.T.);
#312=EDGE_CURVE('',#387,#368,#463,.T.);
#313=EDGE_CURVE('',#389,#389,#36,.F.);
#314=EDGE_CURVE('',#350,#382,#464,.F.);
#315=EDGE_CURVE('',#383,#375,#465,.T.);
#316=EDGE_CURVE('',#371,#375,#466,.T.);
#317=EDGE_CURVE('',#370,#366,#467,.T.);
#318=EDGE_CURVE('',#365,#351,#468,.T.);
#319=EDGE_CURVE('',#377,#385,#469,.T.);
#320=EDGE_CURVE('',#384,#388,#470,.F.);
#321=EDGE_CURVE('',#386,#376,#471,.T.);
#322=EDGE_CURVE('',#390,#390,#37,.T.);
#323=EDGE_CURVE('',#391,#391,#38,.T.);
#324=EDGE_CURVE('',#392,#392,#39,.T.);
#325=EDGE_CURVE('',#393,#393,#40,.T.);
#326=EDGE_CURVE('',#394,#394,#41,.T.);
#327=EDGE_CURVE('',#395,#395,#42,.T.);
#328=VERTEX_POINT('',#1012);
#329=VERTEX_POINT('',#1013);
#330=VERTEX_POINT('',#1015);
#331=VERTEX_POINT('',#1017);
#332=VERTEX_POINT('',#1021);
#333=VERTEX_POINT('',#1023);
#334=VERTEX_POINT('',#1025);
#335=VERTEX_POINT('',#1026);
#336=VERTEX_POINT('',#1029);
#337=VERTEX_POINT('',#1031);
#338=VERTEX_POINT('',#1033);
#339=VERTEX_POINT('',#1035);
#340=VERTEX_POINT('',#1039);
#341=VERTEX_POINT('',#1041);
#342=VERTEX_POINT('',#1043);
#343=VERTEX_POINT('',#1045);
#344=VERTEX_POINT('',#1047);
#345=VERTEX_POINT('',#1049);
#346=VERTEX_POINT('',#1052);
#347=VERTEX_POINT('',#1054);
#348=VERTEX_POINT('',#1057);
#349=VERTEX_POINT('',#1059);
#350=VERTEX_POINT('',#1061);
#351=VERTEX_POINT('',#1063);
#352=VERTEX_POINT('',#1067);
#353=VERTEX_POINT('',#1069);
#354=VERTEX_POINT('',#1072);
#355=VERTEX_POINT('',#1074);
#356=VERTEX_POINT('',#1078);
#357=VERTEX_POINT('',#1079);
#358=VERTEX_POINT('',#1081);
#359=VERTEX_POINT('',#1083);
#360=VERTEX_POINT('',#1087);
#361=VERTEX_POINT('',#1089);
#362=VERTEX_POINT('',#1091);
#363=VERTEX_POINT('',#1093);
#364=VERTEX_POINT('',#1097);
#365=VERTEX_POINT('',#1100);
#366=VERTEX_POINT('',#1102);
#367=VERTEX_POINT('',#1104);
#368=VERTEX_POINT('',#1106);
#369=VERTEX_POINT('',#1110);
#370=VERTEX_POINT('',#1112);
#371=VERTEX_POINT('',#1114);
#372=VERTEX_POINT('',#1117);
#373=VERTEX_POINT('',#1120);
#374=VERTEX_POINT('',#1123);
#375=VERTEX_POINT('',#1127);
#376=VERTEX_POINT('',#1128);
#377=VERTEX_POINT('',#1130);
#378=VERTEX_POINT('',#1135);
#379=VERTEX_POINT('',#1137);
#380=VERTEX_POINT('',#1140);
#381=VERTEX_POINT('',#1142);
#382=VERTEX_POINT('',#1144);
#383=VERTEX_POINT('',#1145);
#384=VERTEX_POINT('',#1149);
#385=VERTEX_POINT('',#1151);
#386=VERTEX_POINT('',#1153);
#387=VERTEX_POINT('',#1157);
#388=VERTEX_POINT('',#1160);
#389=VERTEX_POINT('',#1168);
#390=VERTEX_POINT('',#1182);
#391=VERTEX_POINT('',#1185);
#392=VERTEX_POINT('',#1188);
#393=VERTEX_POINT('',#1190);
#394=VERTEX_POINT('',#1193);
#395=VERTEX_POINT('',#1196);
#396=LINE('',#1011,#472);
#397=LINE('',#1014,#473);
#398=LINE('',#1016,#474);
#399=LINE('',#1018,#475);
#400=LINE('',#1024,#476);
#401=LINE('',#1027,#477);
#402=LINE('',#1028,#478);
#403=LINE('',#1030,#479);
#404=LINE('',#1032,#480);
#405=LINE('',#1034,#481);
#406=LINE('',#1036,#482);
#407=LINE('',#1038,#483);
#408=LINE('',#1040,#484);
#409=LINE('',#1042,#485);
#410=LINE('',#1044,#486);
#411=LINE('',#1046,#487);
#412=LINE('',#1048,#488);
#413=LINE('',#1050,#489);
#414=LINE('',#1060,#490);
#415=LINE('',#1062,#491);
#416=LINE('',#1064,#492);
#417=LINE('',#1066,#493);
#418=LINE('',#1068,#494);
#419=LINE('',#1070,#495);
#420=LINE('',#1071,#496);
#421=LINE('',#1073,#497);
#422=LINE('',#1075,#498);
#423=LINE('',#1077,#499);
#424=LINE('',#1080,#500);
#425=LINE('',#1082,#501);
#426=LINE('',#1084,#502);
#427=LINE('',#1086,#503);
#428=LINE('',#1088,#504);
#429=LINE('',#1090,#505);
#430=LINE('',#1092,#506);
#431=LINE('',#1094,#507);
#432=LINE('',#1098,#508);
#433=LINE('',#1099,#509);
#434=LINE('',#1101,#510);
#435=LINE('',#1103,#511);
#436=LINE('',#1105,#512);
#437=LINE('',#1107,#513);
#438=LINE('',#1109,#514);
#439=LINE('',#1111,#515);
#440=LINE('',#1113,#516);
#441=LINE('',#1115,#517);
#442=LINE('',#1116,#518);
#443=LINE('',#1118,#519);
#444=LINE('',#1122,#520);
#445=LINE('',#1124,#521);
#446=LINE('',#1126,#522);
#447=LINE('',#1129,#523);
#448=LINE('',#1131,#524);
#449=LINE('',#1132,#525);
#450=LINE('',#1133,#526);
#451=LINE('',#1143,#527);
#452=LINE('',#1146,#528);
#453=LINE('',#1147,#529);
#454=LINE('',#1148,#530);
#455=LINE('',#1150,#531);
#456=LINE('',#1152,#532);
#457=LINE('',#1154,#533);
#458=LINE('',#1156,#534);
#459=LINE('',#1158,#535);
#460=LINE('',#1159,#536);
#461=LINE('',#1161,#537);
#462=LINE('',#1164,#538);
#463=LINE('',#1165,#539);
#464=LINE('',#1170,#540);
#465=LINE('',#1171,#541);
#466=LINE('',#1172,#542);
#467=LINE('',#1173,#543);
#468=LINE('',#1174,#544);
#469=LINE('',#1176,#545);
#470=LINE('',#1177,#546);
#471=LINE('',#1179,#547);
#472=VECTOR('',#819,1.);
#473=VECTOR('',#820,1.);
#474=VECTOR('',#821,1.);
#475=VECTOR('',#822,1.);
#476=VECTOR('',#829,1.);
#477=VECTOR('',#830,1.);
#478=VECTOR('',#831,1.);
#479=VECTOR('',#832,1.);
#480=VECTOR('',#833,1.);
#481=VECTOR('',#834,1.);
#482=VECTOR('',#835,1.);
#483=VECTOR('',#838,1.);
#484=VECTOR('',#839,1.);
#485=VECTOR('',#840,1.);
#486=VECTOR('',#841,1.);
#487=VECTOR('',#842,1.);
#488=VECTOR('',#843,1.);
#489=VECTOR('',#844,1.);
#490=VECTOR('',#855,1.);
#491=VECTOR('',#856,1.);
#492=VECTOR('',#857,1.);
#493=VECTOR('',#860,1.);
#494=VECTOR('',#861,1.);
#495=VECTOR('',#862,1.);
#496=VECTOR('',#863,1.);
#497=VECTOR('',#864,1.);
#498=VECTOR('',#865,1.);
#499=VECTOR('',#868,1.);
#500=VECTOR('',#869,1.);
#501=VECTOR('',#870,1.);
#502=VECTOR('',#871,1.);
#503=VECTOR('',#874,1.);
#504=VECTOR('',#875,1.);
#505=VECTOR('',#876,1.);
#506=VECTOR('',#877,1.);
#507=VECTOR('',#878,1.);
#508=VECTOR('',#883,1.);
#509=VECTOR('',#884,1.);
#510=VECTOR('',#885,1.);
#511=VECTOR('',#886,1.);
#512=VECTOR('',#887,1.);
#513=VECTOR('',#888,1.);
#514=VECTOR('',#891,1.);
#515=VECTOR('',#892,1.);
#516=VECTOR('',#893,1.);
#517=VECTOR('',#894,1.);
#518=VECTOR('',#895,1.);
#519=VECTOR('',#896,1.);
#520=VECTOR('',#901,1.);
#521=VECTOR('',#902,1.);
#522=VECTOR('',#905,1.);
#523=VECTOR('',#906,1.);
#524=VECTOR('',#907,1.);
#525=VECTOR('',#908,1.);
#526=VECTOR('',#909,1.);
#527=VECTOR('',#920,1.);
#528=VECTOR('',#921,1.);
#529=VECTOR('',#922,1.);
#530=VECTOR('',#923,1.);
#531=VECTOR('',#924,1.);
#532=VECTOR('',#925,1.);
#533=VECTOR('',#926,1.);
#534=VECTOR('',#929,1.);
#535=VECTOR('',#930,1.);
#536=VECTOR('',#931,1.);
#537=VECTOR('',#932,1.);
#538=VECTOR('',#937,1.);
#539=VECTOR('',#938,1.);
#540=VECTOR('',#945,1.);
#541=VECTOR('',#946,1.);
#542=VECTOR('',#947,1.);
#543=VECTOR('',#948,1.);
#544=VECTOR('',#949,1.);
#545=VECTOR('',#952,1.);
#546=VECTOR('',#953,1.);
#547=VECTOR('',#956,1.);
#548=EDGE_LOOP('',(#43,#44,#45,#46));
#549=EDGE_LOOP('',(#47));
#550=EDGE_LOOP('',(#48));
#551=EDGE_LOOP('',(#49,#50,#51,#52,#53,#54,#55,#56));
#552=EDGE_LOOP('',(#57,#58,#59,#60,#61,#62,#63,#64));
#553=EDGE_LOOP('',(#65));
#554=EDGE_LOOP('',(#66));
#555=EDGE_LOOP('',(#67));
#556=EDGE_LOOP('',(#68));
#557=EDGE_LOOP('',(#69,#70,#71,#72));
#558=EDGE_LOOP('',(#73,#74,#75,#76,#77,#78,#79,#80));
#559=EDGE_LOOP('',(#81,#82,#83,#84));
#560=EDGE_LOOP('',(#85,#86,#87,#88,#89,#90));
#561=EDGE_LOOP('',(#91));
#562=EDGE_LOOP('',(#92,#93,#94,#95,#96,#97,#98,#99,#100,#101));
#563=EDGE_LOOP('',(#102,#103,#104,#105,#106,#107,#108,#109));
#564=EDGE_LOOP('',(#110));
#565=EDGE_LOOP('',(#111,#112,#113,#114));
#566=EDGE_LOOP('',(#115,#116,#117,#118,#119,#120,#121,#122));
#567=EDGE_LOOP('',(#123));
#568=EDGE_LOOP('',(#124));
#569=EDGE_LOOP('',(#125));
#570=EDGE_LOOP('',(#126));
#571=EDGE_LOOP('',(#127,#128,#129,#130,#131,#132,#133,#134,#135,#136,#137));
#572=EDGE_LOOP('',(#138,#139,#140,#141,#142,#143));
#573=EDGE_LOOP('',(#144,#145,#146,#147));
#574=EDGE_LOOP('',(#148,#149,#150,#151,#152));
#575=EDGE_LOOP('',(#153));
#576=EDGE_LOOP('',(#154));
#577=EDGE_LOOP('',(#155,#156,#157,#158,#159,#160,#161,#162,#163));
#578=EDGE_LOOP('',(#164,#165,#166,#167,#168));
#579=EDGE_LOOP('',(#169,#170,#171,#172));
#580=EDGE_LOOP('',(#173));
#581=EDGE_LOOP('',(#174));
#582=EDGE_LOOP('',(#175));
#583=EDGE_LOOP('',(#176));
#584=EDGE_LOOP('',(#177));
#585=EDGE_LOOP('',(#178));
#586=EDGE_LOOP('',(#179,#180,#181,#182));
#587=EDGE_LOOP('',(#183));
#588=EDGE_LOOP('',(#184));
#589=EDGE_LOOP('',(#185));
#590=EDGE_LOOP('',(#186));
#591=EDGE_LOOP('',(#187));
#592=EDGE_LOOP('',(#188));
#593=EDGE_LOOP('',(#189));
#594=EDGE_LOOP('',(#190));
#595=EDGE_LOOP('',(#191,#192,#193,#194));
#596=EDGE_LOOP('',(#195,#196,#197,#198));
#597=EDGE_LOOP('',(#199,#200,#201,#202));
#598=EDGE_LOOP('',(#203,#204,#205,#206));
#599=EDGE_LOOP('',(#207));
#600=EDGE_LOOP('',(#208));
#601=EDGE_LOOP('',(#209));
#602=EDGE_LOOP('',(#210));
#603=EDGE_LOOP('',(#211));
#604=EDGE_LOOP('',(#212));
#605=EDGE_LOOP('',(#213));
#606=EDGE_LOOP('',(#214));
#607=EDGE_LOOP('',(#215,#216,#217,#218));
#608=EDGE_LOOP('',(#219));
#609=EDGE_LOOP('',(#220));
#610=EDGE_LOOP('',(#221,#222,#223,#224));
#611=EDGE_LOOP('',(#225,#226,#227,#228));
#612=EDGE_LOOP('',(#229,#230,#231,#232));
#613=FACE_BOUND('',#548,.T.);
#614=FACE_BOUND('',#549,.T.);
#615=FACE_BOUND('',#550,.T.);
#616=FACE_BOUND('',#551,.T.);
#617=FACE_BOUND('',#552,.T.);
#618=FACE_BOUND('',#553,.T.);
#619=FACE_BOUND('',#554,.T.);
#620=FACE_BOUND('',#555,.T.);
#621=FACE_BOUND('',#556,.T.);
#622=FACE_BOUND('',#557,.T.);
#623=FACE_BOUND('',#558,.T.);
#624=FACE_BOUND('',#559,.T.);
#625=FACE_BOUND('',#560,.T.);
#626=FACE_BOUND('',#561,.T.);
#627=FACE_BOUND('',#562,.T.);
#628=FACE_BOUND('',#563,.T.);
#629=FACE_BOUND('',#564,.T.);
#630=FACE_BOUND('',#565,.T.);
#631=FACE_BOUND('',#566,.T.);
#632=FACE_BOUND('',#567,.T.);
#633=FACE_BOUND('',#568,.T.);
#634=FACE_BOUND('',#569,.T.);
#635=FACE_BOUND('',#570,.T.);
#636=FACE_BOUND('',#571,.T.);
#637=FACE_BOUND('',#572,.T.);
#638=FACE_BOUND('',#573,.T.);
#639=FACE_BOUND('',#574,.T.);
#640=FACE_BOUND('',#575,.T.);
#641=FACE_BOUND('',#576,.T.);
#642=FACE_BOUND('',#577,.T.);
#643=FACE_BOUND('',#578,.T.);
#644=FACE_BOUND('',#579,.T.);
#645=FACE_BOUND('',#580,.T.);
#646=FACE_BOUND('',#581,.T.);
#647=FACE_BOUND('',#582,.T.);
#648=FACE_BOUND('',#583,.T.);
#649=FACE_BOUND('',#584,.T.);
#650=FACE_BOUND('',#585,.T.);
#651=FACE_BOUND('',#586,.T.);
#652=FACE_BOUND('',#587,.T.);
#653=FACE_BOUND('',#588,.T.);
#654=FACE_BOUND('',#589,.T.);
#655=FACE_BOUND('',#590,.T.);
#656=FACE_BOUND('',#591,.T.);
#657=FACE_BOUND('',#592,.T.);
#658=FACE_BOUND('',#593,.T.);
#659=FACE_BOUND('',#594,.T.);
#660=FACE_BOUND('',#595,.T.);
#661=FACE_BOUND('',#596,.T.);
#662=FACE_BOUND('',#597,.T.);
#663=FACE_BOUND('',#598,.T.);
#664=FACE_BOUND('',#599,.T.);
#665=FACE_BOUND('',#600,.T.);
#666=FACE_BOUND('',#601,.T.);
#667=FACE_BOUND('',#602,.T.);
#668=FACE_BOUND('',#603,.T.);
#669=FACE_BOUND('',#604,.T.);
#670=FACE_BOUND('',#605,.T.);
#671=FACE_BOUND('',#606,.T.);
#672=FACE_BOUND('',#607,.T.);
#673=FACE_BOUND('',#608,.T.);
#674=FACE_BOUND('',#609,.T.);
#675=FACE_BOUND('',#610,.T.);
#676=FACE_BOUND('',#611,.T.);
#677=FACE_BOUND('',#612,.T.);
#678=PLANE('',#757);
#679=PLANE('',#758);
#680=PLANE('',#761);
#681=PLANE('',#764);
#682=PLANE('',#767);
#683=PLANE('',#768);
#684=PLANE('',#769);
#685=PLANE('',#770);
#686=PLANE('',#772);
#687=PLANE('',#774);
#688=PLANE('',#775);
#689=PLANE('',#778);
#690=PLANE('',#781);
#691=PLANE('',#782);
#692=PLANE('',#783);
#693=PLANE('',#786);
#694=PLANE('',#787);
#695=PLANE('',#788);
#696=PLANE('',#793);
#697=PLANE('',#802);
#698=PLANE('',#803);
#699=PLANE('',#804);
#700=PLANE('',#805);
#701=PLANE('',#810);
#702=PLANE('',#812);
#703=PLANE('',#813);
#704=PLANE('',#814);
#705=ADVANCED_FACE('',(#613),#678,.F.);
#706=ADVANCED_FACE('',(#614,#615,#616),#679,.F.);
#707=ADVANCED_FACE('',(#617,#618,#619),#680,.T.);
#708=ADVANCED_FACE('',(#620,#621,#622),#681,.T.);
#709=ADVANCED_FACE('',(#623),#682,.F.);
#710=ADVANCED_FACE('',(#624),#683,.T.);
#711=ADVANCED_FACE('',(#625),#684,.F.);
#712=ADVANCED_FACE('',(#626,#627),#685,.F.);
#713=ADVANCED_FACE('',(#628,#629),#686,.T.);
#714=ADVANCED_FACE('',(#630),#687,.T.);
#715=ADVANCED_FACE('',(#631,#632,#633),#688,.T.);
#716=ADVANCED_FACE('',(#634,#635,#636),#689,.T.);
#717=ADVANCED_FACE('',(#637),#690,.T.);
#718=ADVANCED_FACE('',(#638),#691,.F.);
#719=ADVANCED_FACE('',(#639),#692,.T.);
#720=ADVANCED_FACE('',(#640,#641),#17,.F.);
#721=ADVANCED_FACE('',(#642),#693,.T.);
#722=ADVANCED_FACE('',(#643),#694,.T.);
#723=ADVANCED_FACE('',(#644),#695,.T.);
#724=ADVANCED_FACE('',(#645,#646),#18,.F.);
#725=ADVANCED_FACE('',(#647,#648),#19,.F.);
#726=ADVANCED_FACE('',(#649,#650,#651),#696,.F.);
#727=ADVANCED_FACE('',(#652,#653),#20,.F.);
#728=ADVANCED_FACE('',(#654,#655),#21,.F.);
#729=ADVANCED_FACE('',(#656,#657),#22,.F.);
#730=ADVANCED_FACE('',(#658,#659),#23,.F.);
#731=ADVANCED_FACE('',(#660),#697,.T.);
#732=ADVANCED_FACE('',(#661),#698,.F.);
#733=ADVANCED_FACE('',(#662),#699,.F.);
#734=ADVANCED_FACE('',(#663),#700,.T.);
#735=ADVANCED_FACE('',(#664,#665),#12,.F.);
#736=ADVANCED_FACE('',(#666,#667),#13,.F.);
#737=ADVANCED_FACE('',(#668,#669),#14,.F.);
#738=ADVANCED_FACE('',(#670,#671),#15,.F.);
#739=ADVANCED_FACE('',(#672),#701,.F.);
#740=ADVANCED_FACE('',(#673,#674),#16,.F.);
#741=ADVANCED_FACE('',(#675),#702,.F.);
#742=ADVANCED_FACE('',(#676),#703,.T.);
#743=ADVANCED_FACE('',(#677),#704,.F.);
#744=CLOSED_SHELL('',(#705,#706,#707,#708,#709,#710,#711,#712,#713,#714,
#715,#716,#717,#718,#719,#720,#721,#722,#723,#724,#725,#726,#727,#728,#729,
#730,#731,#732,#733,#734,#735,#736,#737,#738,#739,#740,#741,#742,#743));
#745=STYLED_ITEM('',(#746),#753);
#746=PRESENTATION_STYLE_ASSIGNMENT((#747));
#747=SURFACE_STYLE_USAGE(.BOTH.,#748);
#748=SURFACE_SIDE_STYLE('',(#749));
#749=SURFACE_STYLE_FILL_AREA(#750);
#750=FILL_AREA_STYLE('',(#751));
#751=FILL_AREA_STYLE_COLOUR('',#752);
#752=COLOUR_RGB('',0.866666666666667,0.32156862745098,0.156862745098039);
#753=MANIFOLD_SOLID_BREP('SMPS_Holder',#744);
#754=SHAPE_DEFINITION_REPRESENTATION(#1218,#755);
#755=SHAPE_REPRESENTATION('SMPS_Holder',(#756),#1213);
#756=AXIS2_PLACEMENT_3D('',#1009,#815,#816);
#757=AXIS2_PLACEMENT_3D('',#1010,#817,#818);
#758=AXIS2_PLACEMENT_3D('',#1019,#823,#824);
#759=AXIS2_PLACEMENT_3D('',#1020,#825,#826);
#760=AXIS2_PLACEMENT_3D('',#1022,#827,#828);
#761=AXIS2_PLACEMENT_3D('',#1037,#836,#837);
#762=AXIS2_PLACEMENT_3D('',#1051,#845,#846);
#763=AXIS2_PLACEMENT_3D('',#1053,#847,#848);
#764=AXIS2_PLACEMENT_3D('',#1055,#849,#850);
#765=AXIS2_PLACEMENT_3D('',#1056,#851,#852);
#766=AXIS2_PLACEMENT_3D('',#1058,#853,#854);
#767=AXIS2_PLACEMENT_3D('',#1065,#858,#859);
#768=AXIS2_PLACEMENT_3D('',#1076,#866,#867);
#769=AXIS2_PLACEMENT_3D('',#1085,#872,#873);
#770=AXIS2_PLACEMENT_3D('',#1095,#879,#880);
#771=AXIS2_PLACEMENT_3D('',#1096,#881,#882);
#772=AXIS2_PLACEMENT_3D('',#1108,#889,#890);
#773=AXIS2_PLACEMENT_3D('',#1119,#897,#898);
#774=AXIS2_PLACEMENT_3D('',#1121,#899,#900);
#775=AXIS2_PLACEMENT_3D('',#1125,#903,#904);
#776=AXIS2_PLACEMENT_3D('',#1134,#910,#911);
#777=AXIS2_PLACEMENT_3D('',#1136,#912,#913);
#778=AXIS2_PLACEMENT_3D('',#1138,#914,#915);
#779=AXIS2_PLACEMENT_3D('',#1139,#916,#917);
#780=AXIS2_PLACEMENT_3D('',#1141,#918,#919);
#781=AXIS2_PLACEMENT_3D('',#1155,#927,#928);
#782=AXIS2_PLACEMENT_3D('',#1162,#933,#934);
#783=AXIS2_PLACEMENT_3D('',#1163,#935,#936);
#784=AXIS2_PLACEMENT_3D('',#1166,#939,#940);
#785=AXIS2_PLACEMENT_3D('',#1167,#941,#942);
#786=AXIS2_PLACEMENT_3D('',#1169,#943,#944);
#787=AXIS2_PLACEMENT_3D('',#1175,#950,#951);
#788=AXIS2_PLACEMENT_3D('',#1178,#954,#955);
#789=AXIS2_PLACEMENT_3D('',#1180,#957,#958);
#790=AXIS2_PLACEMENT_3D('',#1181,#959,#960);
#791=AXIS2_PLACEMENT_3D('',#1183,#961,#962);
#792=AXIS2_PLACEMENT_3D('',#1184,#963,#964);
#793=AXIS2_PLACEMENT_3D('',#1186,#965,#966);
#794=AXIS2_PLACEMENT_3D('',#1187,#967,#968);
#795=AXIS2_PLACEMENT_3D('',#1189,#969,#970);
#796=AXIS2_PLACEMENT_3D('',#1191,#971,#972);
#797=AXIS2_PLACEMENT_3D('',#1192,#973,#974);
#798=AXIS2_PLACEMENT_3D('',#1194,#975,#976);
#799=AXIS2_PLACEMENT_3D('',#1195,#977,#978);
#800=AXIS2_PLACEMENT_3D('',#1197,#979,#980);
#801=AXIS2_PLACEMENT_3D('',#1198,#981,#982);
#802=AXIS2_PLACEMENT_3D('',#1199,#983,#984);
#803=AXIS2_PLACEMENT_3D('',#1200,#985,#986);
#804=AXIS2_PLACEMENT_3D('',#1201,#987,#988);
#805=AXIS2_PLACEMENT_3D('',#1202,#989,#990);
#806=AXIS2_PLACEMENT_3D('',#1203,#991,#992);
#807=AXIS2_PLACEMENT_3D('',#1204,#993,#994);
#808=AXIS2_PLACEMENT_3D('',#1205,#995,#996);
#809=AXIS2_PLACEMENT_3D('',#1206,#997,#998);
#810=AXIS2_PLACEMENT_3D('',#1207,#999,#1000);
#811=AXIS2_PLACEMENT_3D('',#1208,#1001,#1002);
#812=AXIS2_PLACEMENT_3D('',#1209,#1003,#1004);
#813=AXIS2_PLACEMENT_3D('',#1210,#1005,#1006);
#814=AXIS2_PLACEMENT_3D('',#1211,#1007,#1008);
#815=DIRECTION('',(0.,0.,1.));
#816=DIRECTION('',(1.,0.,0.));
#817=DIRECTION('',(-1.83697019872103E-16,0.,-1.));
#818=DIRECTION('',(0.,1.,0.));
#819=DIRECTION('',(-1.,0.,1.83697019872103E-16));
#820=DIRECTION('',(0.,1.,0.));
#821=DIRECTION('',(-1.,0.,1.83697019872103E-16));
#822=DIRECTION('',(0.,1.,0.));
#823=DIRECTION('',(0.,1.,0.));
#824=DIRECTION('',(1.,0.,0.));
#825=DIRECTION('',(0.,1.,0.));
#826=DIRECTION('',(1.,0.,0.));
#827=DIRECTION('',(0.,1.,0.));
#828=DIRECTION('',(1.,0.,0.));
#829=DIRECTION('',(-1.83697019872103E-16,0.,-1.));
#830=DIRECTION('',(-0.866052843178269,0.,0.49995247056379));
#831=DIRECTION('',(0.86605284317827,0.,0.499952470563789));
#832=DIRECTION('',(-1.83697019872103E-16,0.,-1.));
#833=DIRECTION('',(1.,0.,-1.83697019872103E-16));
#834=DIRECTION('',(1.,0.,-1.83697019872103E-16));
#835=DIRECTION('',(1.,0.,-1.83697019872103E-16));
#836=DIRECTION('',(0.,1.,0.));
#837=DIRECTION('',(1.,0.,0.));
#838=DIRECTION('',(-0.866052843178269,0.,0.49995247056379));
#839=DIRECTION('',(1.83697019872103E-16,0.,1.));
#840=DIRECTION('',(0.707106781186548,0.,-0.707106781186548));
#841=DIRECTION('',(1.,0.,-1.83697019872103E-16));
#842=DIRECTION('',(-0.707106781186547,0.,-0.707106781186548));
#843=DIRECTION('',(-1.83697019872103E-16,0.,-1.));
#844=DIRECTION('',(0.86605284317827,0.,0.499952470563789));
#845=DIRECTION('',(0.,1.,0.));
#846=DIRECTION('',(1.,0.,0.));
#847=DIRECTION('',(0.,1.,0.));
#848=DIRECTION('',(1.,0.,0.));
#849=DIRECTION('',(1.83697019872103E-16,0.,1.));
#850=DIRECTION('',(1.,0.,-1.83697019872103E-16));
#851=DIRECTION('',(1.83697019872103E-16,0.,1.));
#852=DIRECTION('',(1.,0.,-1.83697019872103E-16));
#853=DIRECTION('',(1.83697019872103E-16,0.,1.));
#854=DIRECTION('',(1.,0.,-1.83697019872103E-16));
#855=DIRECTION('',(0.,1.,0.));
#856=DIRECTION('',(1.,0.,-1.83697019872103E-16));
#857=DIRECTION('',(0.,-1.,0.));
#858=DIRECTION('',(-1.83697019872103E-16,0.,-1.));
#859=DIRECTION('',(-1.,0.,1.83697019872103E-16));
#860=DIRECTION('',(0.,1.,0.));
#861=DIRECTION('',(-1.,0.,1.83697019872103E-16));
#862=DIRECTION('',(0.,1.,0.));
#863=DIRECTION('',(0.,-1.,0.));
#864=DIRECTION('',(-1.,2.45624562970168E-16,1.83697019872103E-16));
#865=DIRECTION('',(0.,1.,0.));
#866=DIRECTION('',(0.,1.,0.));
#867=DIRECTION('',(1.,0.,0.));
#868=DIRECTION('',(-1.,0.,1.83697019872103E-16));
#869=DIRECTION('',(-1.83697019872103E-16,0.,-1.));
#870=DIRECTION('',(-1.,0.,1.83697019872103E-16));
#871=DIRECTION('',(-1.83697019872103E-16,0.,-1.));
#872=DIRECTION('',(0.,1.,0.));
#873=DIRECTION('',(1.,0.,0.));
#874=DIRECTION('',(1.83697019872103E-16,0.,1.));
#875=DIRECTION('',(0.707106781186548,0.,-0.707106781186548));
#876=DIRECTION('',(-1.,0.,1.83697019872103E-16));
#877=DIRECTION('',(-0.707106781186548,0.,-0.707106781186548));
#878=DIRECTION('',(1.83697019872103E-16,0.,1.));
#879=DIRECTION('',(1.,0.,-1.83697019872103E-16));
#880=DIRECTION('',(-1.83697019872103E-16,0.,-1.));
#881=DIRECTION('',(1.,0.,-1.83697019872103E-16));
#882=DIRECTION('',(-1.83697019872103E-16,0.,-1.));
#883=DIRECTION('',(0.,1.,0.));
#884=DIRECTION('',(0.,1.,0.));
#885=DIRECTION('',(-1.83697019872103E-16,0.,-1.));
#886=DIRECTION('',(1.62207226409122E-16,0.46934474178036,0.883015013101775));
#887=DIRECTION('',(-1.02765812433609E-16,-0.828876906624848,-0.559431026726283));
#888=DIRECTION('',(0.,-1.,0.));
#889=DIRECTION('',(1.,0.,-1.83697019872103E-16));
#890=DIRECTION('',(-1.83697019872103E-16,0.,-1.));
#891=DIRECTION('',(1.02765812433609E-16,0.828876906624848,0.559431026726283));
#892=DIRECTION('',(-1.62207226409122E-16,-0.46934474178036,-0.883015013101775));
#893=DIRECTION('',(1.83697019872103E-16,0.,1.));
#894=DIRECTION('',(0.,1.,0.));
#895=DIRECTION('',(1.83697019872103E-16,0.,1.));
#896=DIRECTION('',(0.,1.,0.));
#897=DIRECTION('',(-1.,0.,1.83697019872103E-16));
#898=DIRECTION('',(1.83697019872103E-16,0.,1.));
#899=DIRECTION('',(2.45624562970168E-16,1.,-4.51205002250074E-32));
#900=DIRECTION('',(1.,-2.45624562970168E-16,0.));
#901=DIRECTION('',(1.83697019872103E-16,0.,1.));
#902=DIRECTION('',(-1.,2.45624562970168E-16,1.83697019872103E-16));
#903=DIRECTION('',(-1.,0.,1.83697019872103E-16));
#904=DIRECTION('',(1.83697019872103E-16,0.,1.));
#905=DIRECTION('',(-1.83697019669715E-16,4.6941434672852E-5,-0.999999998898251));
#906=DIRECTION('',(1.62208168878687E-16,0.469335089118731,0.883020143667127));
#907=DIRECTION('',(-1.02761993887678E-16,-0.82889093607574,-0.559410239530422));
#908=DIRECTION('',(0.,-1.,0.));
#909=DIRECTION('',(0.,1.,0.));
#910=DIRECTION('',(1.,0.,-1.83697019872103E-16));
#911=DIRECTION('',(-1.83697019872103E-16,0.,-1.));
#912=DIRECTION('',(1.,0.,-1.83697019872103E-16));
#913=DIRECTION('',(-1.83697019872103E-16,0.,-1.));
#914=DIRECTION('',(1.,0.,-1.83697019872103E-16));
#915=DIRECTION('',(-1.83697019872103E-16,0.,-1.));
#916=DIRECTION('',(1.,0.,-1.83697019872103E-16));
#917=DIRECTION('',(-1.83697019872103E-16,0.,-1.));
#918=DIRECTION('',(1.,0.,-1.83697019872103E-16));
#919=DIRECTION('',(-1.83697019872103E-16,0.,-1.));
#920=DIRECTION('',(-1.83697019872103E-16,0.,-1.));
#921=DIRECTION('',(0.,-1.,0.));
#922=DIRECTION('',(0.,1.,0.));
#923=DIRECTION('',(0.,1.,0.));
#924=DIRECTION('',(-1.02761993887678E-16,-0.82889093607574,-0.559410239530422));
#925=DIRECTION('',(-1.62208168878687E-16,-0.469335089118731,-0.883020143667127));
#926=DIRECTION('',(-1.83697019669715E-16,4.6941434672852E-5,-0.999999998898251));
#927=DIRECTION('',(-1.83697019872103E-16,0.,-1.));
#928=DIRECTION('',(-1.,0.,1.83697019872103E-16));
#929=DIRECTION('',(0.,1.,0.));
#930=DIRECTION('',(1.,0.,-1.83697019872103E-16));
#931=DIRECTION('',(-1.,0.,1.83697019872103E-16));
#932=DIRECTION('',(0.,-1.,0.));
#933=DIRECTION('',(-1.83697019872103E-16,0.,-1.));
#934=DIRECTION('',(-1.,0.,1.83697019872103E-16));
#935=DIRECTION('',(-1.52262217587792E-16,0.559431026726283,-0.828876906624848));
#936=DIRECTION('',(0.,0.828876906624848,0.559431026726283));
#937=DIRECTION('',(1.,1.28669881341872E-32,-1.83697019872103E-16));
#938=DIRECTION('',(-0.4882253137879,0.723375480613915,0.4882253137879));
#939=DIRECTION('',(1.,0.,-1.83697019872103E-16));
#940=DIRECTION('',(-1.83697019872103E-16,0.,-1.));
#941=DIRECTION('',(1.,0.,0.));
#942=DIRECTION('',(0.,-1.,0.));
#943=DIRECTION('',(0.,1.,0.));
#944=DIRECTION('',(1.,0.,0.));
#945=DIRECTION('',(-0.707106781186548,0.,0.707106781186548));
#946=DIRECTION('',(-1.,0.,1.83697019872103E-16));
#947=DIRECTION('',(1.,0.,-1.83697019872103E-16));
#948=DIRECTION('',(-1.,0.,1.83697019872103E-16));
#949=DIRECTION('',(0.707106781186547,0.,0.707106781186548));
#950=DIRECTION('',(-1.52264794756111E-16,0.559410239530422,-0.82889093607574));
#951=DIRECTION('',(0.,0.82889093607574,0.559410239530422));
#952=DIRECTION('',(1.,-4.31560502177278E-33,-1.83697019872103E-16));
#953=DIRECTION('',(0.488211496496717,0.723394131422748,0.488211496496717));
#954=DIRECTION('',(8.62300165792391E-21,0.999999998898251,4.6941434672852E-5));
#955=DIRECTION('',(0.,-4.6941434672852E-5,0.999999998898251));
#956=DIRECTION('',(-1.,-1.5046327673948E-36,1.83697019872103E-16));
#957=DIRECTION('',(-1.,0.,1.83697019872103E-16));
#958=DIRECTION('',(1.83697019872103E-16,0.,1.));
#959=DIRECTION('',(1.,0.,0.));
#960=DIRECTION('',(0.,-1.,0.));
#961=DIRECTION('',(-1.,0.,1.83697019872103E-16));
#962=DIRECTION('',(1.83697019872103E-16,0.,1.));
#963=DIRECTION('',(1.,0.,0.));
#964=DIRECTION('',(0.,-1.,0.));
#965=DIRECTION('',(1.83697019872103E-16,0.,1.));
#966=DIRECTION('',(1.,0.,-1.83697019872103E-16));
#967=DIRECTION('',(1.83697019872103E-16,0.,1.));
#968=DIRECTION('',(1.,0.,-1.83697019872103E-16));
#969=DIRECTION('',(1.83697019872103E-16,0.,1.));
#970=DIRECTION('',(1.,0.,-1.83697019872103E-16));
#971=DIRECTION('',(-1.83697019872103E-16,0.,-1.));
#972=DIRECTION('',(-1.,0.,1.83697019872103E-16));
#973=DIRECTION('',(0.,0.,1.));
#974=DIRECTION('',(0.,-1.,0.));
#975=DIRECTION('',(-1.83697019872103E-16,0.,-1.));
#976=DIRECTION('',(-1.,0.,1.83697019872103E-16));
#977=DIRECTION('',(0.,0.,1.));
#978=DIRECTION('',(0.,-1.,0.));
#979=DIRECTION('',(0.,1.,0.));
#980=DIRECTION('',(1.,0.,0.));
#981=DIRECTION('',(0.,1.,0.));
#982=DIRECTION('',(1.,0.,0.));
#983=DIRECTION('',(-0.499952470563788,0.,0.86605284317827));
#984=DIRECTION('',(0.86605284317827,0.,0.499952470563789));
#985=DIRECTION('',(-0.49995247056379,0.,-0.866052843178269));
#986=DIRECTION('',(-0.866052843178269,0.,0.49995247056379));
#987=DIRECTION('',(-0.707106781186548,0.,-0.707106781186548));
#988=DIRECTION('',(0.,-1.,0.));
#989=DIRECTION('',(-0.707106781186548,0.,0.707106781186547));
#990=DIRECTION('',(0.,1.,0.));
#991=DIRECTION('',(0.,0.,1.));
#992=DIRECTION('',(0.,-1.,0.));
#993=DIRECTION('',(0.,0.,1.));
#994=DIRECTION('',(0.,-1.,0.));
#995=DIRECTION('',(1.,0.,0.));
#996=DIRECTION('',(0.,-1.,0.));
#997=DIRECTION('',(1.,0.,0.));
#998=DIRECTION('',(0.,-1.,0.));
#999=DIRECTION('',(8.62154571925187E-17,-0.883020143667127,0.469335089118731));
#1000=DIRECTION('',(-1.,-1.66367970308586E-32,1.83697019872103E-16));
#1001=DIRECTION('',(-1.,0.,0.));
#1002=DIRECTION('',(0.,1.,0.));
#1003=DIRECTION('',(8.62172303576938E-17,-0.883015013101775,0.46934474178036));
#1004=DIRECTION('',(1.,0.,-1.83697019872103E-16));
#1005=DIRECTION('',(-0.707106781186548,0.,-0.707106781186548));
#1006=DIRECTION('',(0.,-1.,0.));
#1007=DIRECTION('',(-0.707106781186548,0.,0.707106781186548));
#1008=DIRECTION('',(0.,1.,0.));
#1009=CARTESIAN_POINT('',(0.,0.,0.));
#1010=CARTESIAN_POINT('',(0.243210357482187,0.0211469974057165,-0.1515));
#1011=CARTESIAN_POINT('',(0.000210357482186358,0.026398574116837,-0.1515));
#1012=CARTESIAN_POINT('',(0.0357287721868383,0.026398574116837,-0.1515));
#1013=CARTESIAN_POINT('',(-0.0353080572224655,0.026398574116837,-0.1515));
#1014=CARTESIAN_POINT('',(0.0357287721868383,-0.780043340577162,-0.1515));
#1015=CARTESIAN_POINT('',(0.0357287721868383,0.0313985741168371,-0.1515));
#1016=CARTESIAN_POINT('',(0.000210357482186357,0.0313985741168371,-0.1515));
#1017=CARTESIAN_POINT('',(-0.0353080572224655,0.0313985741168371,-0.1515));
#1018=CARTESIAN_POINT('',(-0.0353080572224655,-0.780043340577162,-0.1515));
#1019=CARTESIAN_POINT('',(0.000210357482186356,0.026398574116837,-0.166498574116913));
#1020=CARTESIAN_POINT('',(0.02,0.026398574116837,-0.160660713911056));
#1021=CARTESIAN_POINT('',(0.02265,0.026398574116837,-0.160660713911056));
#1022=CARTESIAN_POINT('',(-0.02,0.026398574116837,-0.160660713911056));
#1023=CARTESIAN_POINT('',(-0.01735,0.026398574116837,-0.160660713911056));
#1024=CARTESIAN_POINT('',(0.0617103574821864,0.026398574116837,-0.166498574116913));
#1025=CARTESIAN_POINT('',(0.0617103574821864,0.026398574116837,-0.166498574116913));
#1026=CARTESIAN_POINT('',(0.0617103574821863,0.026398574116837,-0.171499287058457));
#1027=CARTESIAN_POINT('',(0.0155824345607908,0.026398574116837,-0.139869980713889));
#1028=CARTESIAN_POINT('',(-0.0151617195964181,0.026398574116837,-0.139869980713889));
#1029=CARTESIAN_POINT('',(-0.0612896425178136,0.026398574116837,-0.166498574116913));
#1030=CARTESIAN_POINT('',(-0.0612896425178136,0.026398574116837,-0.166498574116913));
#1031=CARTESIAN_POINT('',(-0.0612896425178136,0.026398574116837,-0.171499287058457));
#1032=CARTESIAN_POINT('',(0.000210357482186281,0.026398574116837,-0.1715));
#1033=CARTESIAN_POINT('',(-0.0562896425178137,0.026398574116837,-0.171499287058457));
#1034=CARTESIAN_POINT('',(0.000210357482186355,0.026398574116837,-0.171498574116913));
#1035=CARTESIAN_POINT('',(0.0567103574821864,0.026398574116837,-0.171499287058457));
#1036=CARTESIAN_POINT('',(0.000210357482186281,0.026398574116837,-0.1715));
#1037=CARTESIAN_POINT('',(0.000210357482186357,0.0313985741168371,-0.151498));
#1038=CARTESIAN_POINT('',(0.0487195648345123,0.0313985741168371,-0.158999287058457));
#1039=CARTESIAN_POINT('',(0.0617103574821864,0.0313985741168371,-0.166498574116913));
#1040=CARTESIAN_POINT('',(0.0617103574821863,0.0313985741168371,-0.222002));
#1041=CARTESIAN_POINT('',(0.0617103574821864,0.0313985741168371,-0.169498574116913));
#1042=CARTESIAN_POINT('',(0.0617103574821864,0.0313985741168371,-0.169498574116913));
#1043=CARTESIAN_POINT('',(0.0587103574821864,0.0313985741168371,-0.166498574116913));
#1044=CARTESIAN_POINT('',(0.000210357482186355,0.0313985741168371,-0.166498574116913));
#1045=CARTESIAN_POINT('',(-0.0582896425178136,0.0313985741168371,-0.166498574116913));
#1046=CARTESIAN_POINT('',(-0.0582896425178137,0.0313985741168371,-0.166498574116913));
#1047=CARTESIAN_POINT('',(-0.0612896425178137,0.0313985741168371,-0.169498574116913));
#1048=CARTESIAN_POINT('',(-0.0612896425178136,0.0313985741168371,-0.151498));
#1049=CARTESIAN_POINT('',(-0.0612896425178137,0.0313985741168371,-0.166498574116913));
#1050=CARTESIAN_POINT('',(-0.0482988498701396,0.0313985741168371,-0.158999287058457));
#1051=CARTESIAN_POINT('',(0.02,0.0313985741168371,-0.160660713911056));
#1052=CARTESIAN_POINT('',(0.02265,0.0313985741168371,-0.160660713911056));
#1053=CARTESIAN_POINT('',(-0.02,0.0313985741168371,-0.160660713911056));
#1054=CARTESIAN_POINT('',(-0.01735,0.0313985741168371,-0.160660713911056));
#1055=CARTESIAN_POINT('',(0.000183575128328461,0.0440879066777802,-0.166498574116913));
#1056=CARTESIAN_POINT('',(0.0252103574821864,0.0467772142387235,-0.166498574116913));
#1057=CARTESIAN_POINT('',(0.0299103574821864,0.0467772142387235,-0.166498574116913));
#1058=CARTESIAN_POINT('',(-0.0247896425178137,0.0467772142387235,-0.166498574116913));
#1059=CARTESIAN_POINT('',(-0.0200896425178137,0.0467772142387235,-0.166498574116913));
#1060=CARTESIAN_POINT('',(0.0587103574821864,0.0440879066777802,-0.166498574116913));
#1061=CARTESIAN_POINT('',(0.0587103574821864,0.0617772142387235,-0.166498574116913));
#1062=CARTESIAN_POINT('',(-0.0612916425178137,0.0617772142387235,-0.166498574116913));
#1063=CARTESIAN_POINT('',(-0.0582896425178136,0.0617772142387235,-0.166498574116913));
#1064=CARTESIAN_POINT('',(-0.0582896425178136,0.0313985741168371,-0.166498574116913));
#1065=CARTESIAN_POINT('',(0.000210357482186281,0.0189014258831633,-0.1715));
#1066=CARTESIAN_POINT('',(-0.0612896425178137,0.0189014258831634,-0.1715));
#1067=CARTESIAN_POINT('',(-0.0612896425178137,0.00640142588316318,-0.1715));
#1068=CARTESIAN_POINT('',(0.243210357482187,0.00640142588316318,-0.1715));
#1069=CARTESIAN_POINT('',(0.0617103574821863,0.00640142588316318,-0.1715));
#1070=CARTESIAN_POINT('',(0.0617103574821864,0.0189014258831634,-0.1715));
#1071=CARTESIAN_POINT('',(0.0567103574821864,0.0233393200609434,-0.1715));
#1072=CARTESIAN_POINT('',(0.0567103574821864,0.0152772142387235,-0.1715));
#1073=CARTESIAN_POINT('',(0.000210357482186355,0.0152772142387236,-0.1715));
#1074=CARTESIAN_POINT('',(-0.0562896425178137,0.0152772142387236,-0.1715));
#1075=CARTESIAN_POINT('',(-0.0562896425178137,0.0233393200609435,-0.1715));
#1076=CARTESIAN_POINT('',(-0.0587896425178137,0.0314014258831634,-0.222002));
#1077=CARTESIAN_POINT('',(-0.0587896425178137,0.0314014258831634,-0.222));
#1078=CARTESIAN_POINT('',(0.0567103574821863,0.0314014258831634,-0.222));
#1079=CARTESIAN_POINT('',(-0.0562896425178137,0.0314014258831634,-0.222));
#1080=CARTESIAN_POINT('',(0.0567103574821863,0.0314014258831634,-0.19925));
#1081=CARTESIAN_POINT('',(0.0567103574821863,0.0314014258831634,-0.227));
#1082=CARTESIAN_POINT('',(-0.0587896425178137,0.0314014258831634,-0.227));
#1083=CARTESIAN_POINT('',(-0.0562896425178137,0.0314014258831634,-0.227));
#1084=CARTESIAN_POINT('',(-0.0562896425178137,0.0314014258831634,-0.199249287058457));
#1085=CARTESIAN_POINT('',(0.243210357482187,0.00640142588316318,-0.222002));
#1086=CARTESIAN_POINT('',(-0.0612896425178137,0.00640142588316318,-0.222002));
#1087=CARTESIAN_POINT('',(-0.0612896425178137,0.00640142588316318,-0.224));
#1088=CARTESIAN_POINT('',(-0.0582896425178137,0.00640142588316319,-0.227));
#1089=CARTESIAN_POINT('',(-0.0582896425178137,0.00640142588316318,-0.227));
#1090=CARTESIAN_POINT('',(0.243210357482187,0.00640142588316318,-0.227));
#1091=CARTESIAN_POINT('',(0.0587103574821863,0.00640142588316318,-0.227));
#1092=CARTESIAN_POINT('',(0.0617103574821863,0.00640142588316319,-0.224));
#1093=CARTESIAN_POINT('',(0.0617103574821863,0.00640142588316318,-0.224));
#1094=CARTESIAN_POINT('',(0.0617103574821863,0.00640142588316318,-0.222002));
#1095=CARTESIAN_POINT('',(-0.0612896425178137,0.0189014258831634,-0.222002));
#1096=CARTESIAN_POINT('',(-0.0612896425178137,0.0470272142387235,-0.18375));
#1097=CARTESIAN_POINT('',(-0.0612896425178137,0.0470272142387235,-0.18845));
#1098=CARTESIAN_POINT('',(-0.0612896425178137,-0.780043340577162,-0.166498574116913));
#1099=CARTESIAN_POINT('',(-0.0612896425178137,0.0617772142387235,-0.169498574116913));
#1100=CARTESIAN_POINT('',(-0.0612896425178136,0.0617772142387235,-0.169498574116913));
#1101=CARTESIAN_POINT('',(-0.0612896425178137,0.0617772142387235,-0.188998574116914));
#1102=CARTESIAN_POINT('',(-0.0612896425178137,0.0617772142387235,-0.203498574116913));
#1103=CARTESIAN_POINT('',(-0.0612896425178137,0.0592905835188489,-0.208176867197092));
#1104=CARTESIAN_POINT('',(-0.0612896425178137,0.0592905835188489,-0.208176867197092));
#1105=CARTESIAN_POINT('',(-0.0612896425178137,0.0465893200609434,-0.216749287058457));
#1106=CARTESIAN_POINT('',(-0.0612896425178137,0.0358463540353003,-0.224));
#1107=CARTESIAN_POINT('',(-0.0612896425178137,0.00640142588316318,-0.224));
#1108=CARTESIAN_POINT('',(-0.0562896425178137,0.0233393200609435,-0.222002));
#1109=CARTESIAN_POINT('',(-0.0562896425178137,0.0465893200609434,-0.216749287058457));
#1110=CARTESIAN_POINT('',(-0.0562896425178137,0.0592905835188489,-0.208176867197092));
#1111=CARTESIAN_POINT('',(-0.0562896425178137,0.0456414112484013,-0.233856123739947));
#1112=CARTESIAN_POINT('',(-0.0562896425178137,0.0617772142387235,-0.203498574116913));
#1113=CARTESIAN_POINT('',(-0.0562896425178137,0.0617772142387235,-0.188998574116914));
#1114=CARTESIAN_POINT('',(-0.0562896425178137,0.0617772142387235,-0.171498574116913));
#1115=CARTESIAN_POINT('',(-0.0562896425178137,0.0465893200609434,-0.171498574116913));
#1116=CARTESIAN_POINT('',(-0.0562896425178137,0.0152772142387236,-0.222002));
#1117=CARTESIAN_POINT('',(-0.0562896425178137,0.0152772142387236,-0.222));
#1118=CARTESIAN_POINT('',(-0.0562896425178137,0.0233393200609435,-0.222));
#1119=CARTESIAN_POINT('',(-0.0562896425178137,0.0470272142387235,-0.18375));
#1120=CARTESIAN_POINT('',(-0.0562896425178137,0.0470272142387235,-0.18205));
#1121=CARTESIAN_POINT('',(0.000210357482186346,0.0152772142387236,-0.222002));
#1122=CARTESIAN_POINT('',(0.0567103574821864,0.0152772142387235,-0.222002));
#1123=CARTESIAN_POINT('',(0.0567103574821864,0.0152772142387235,-0.222));
#1124=CARTESIAN_POINT('',(0.000210357482186346,0.0152772142387236,-0.222));
#1125=CARTESIAN_POINT('',(0.0567103574821863,0.0233393200609434,-0.222002));
#1126=CARTESIAN_POINT('',(0.0567103574821863,0.0617780357138303,-0.188998574097633));
#1127=CARTESIAN_POINT('',(0.0567103574821863,0.0617772142387235,-0.171498574116913));
#1128=CARTESIAN_POINT('',(0.0567103574821863,0.061778716364633,-0.203498574081657));
#1129=CARTESIAN_POINT('',(0.0567103574821863,0.0456430439122931,-0.233856678850225));
#1130=CARTESIAN_POINT('',(0.0567103574821863,0.0592921843807099,-0.208176804796944));
#1131=CARTESIAN_POINT('',(0.0567103574821863,0.0465901415360502,-0.216749287039176));
#1132=CARTESIAN_POINT('',(0.0567103574821863,0.0233393200609434,-0.222));
#1133=CARTESIAN_POINT('',(0.0567103574821864,0.0440879066777802,-0.171498574116913));
#1134=CARTESIAN_POINT('',(0.0567103574821863,0.0470272142387235,-0.18375));
#1135=CARTESIAN_POINT('',(0.0567103574821863,0.0470272142387235,-0.18545));
#1136=CARTESIAN_POINT('',(0.0567103574821863,0.0470272142387235,-0.20875));
#1137=CARTESIAN_POINT('',(0.0567103574821863,0.0470272142387235,-0.21045));
#1138=CARTESIAN_POINT('',(0.0617103574821863,0.0189014258831634,-0.222002));
#1139=CARTESIAN_POINT('',(0.0617103574821863,0.0470272142387235,-0.20875));
#1140=CARTESIAN_POINT('',(0.0617103574821863,0.0470272142387235,-0.21345));
#1141=CARTESIAN_POINT('',(0.0617103574821864,0.0470272142387235,-0.18375));
#1142=CARTESIAN_POINT('',(0.0617103574821864,0.0470272142387235,-0.18845));
#1143=CARTESIAN_POINT('',(0.0617103574821864,0.0617772142387235,-0.166498574116913));
#1144=CARTESIAN_POINT('',(0.0617103574821864,0.0617772142387235,-0.169498574116913));
#1145=CARTESIAN_POINT('',(0.0617103574821864,0.0617772142387235,-0.171498574116913));
#1146=CARTESIAN_POINT('',(0.0617103574821864,0.0189014258831634,-0.169498574116913));
#1147=CARTESIAN_POINT('',(0.0617103574821864,-0.780043340577162,-0.166498574116913));
#1148=CARTESIAN_POINT('',(0.0617103574821863,0.0189014258831634,-0.224));
#1149=CARTESIAN_POINT('',(0.0617103574821863,0.0358465944419558,-0.224));
#1150=CARTESIAN_POINT('',(0.0617103574821863,0.0465901415360502,-0.216749287039176));
#1151=CARTESIAN_POINT('',(0.0617103574821863,0.0592921843807099,-0.208176804796944));
#1152=CARTESIAN_POINT('',(0.0617103574821863,0.0446654848822806,-0.235695885709327));
#1153=CARTESIAN_POINT('',(0.0617103574821864,0.061778716364633,-0.203498574081657));
#1154=CARTESIAN_POINT('',(0.0617103574821864,0.0617780357138303,-0.188998574097633));
#1155=CARTESIAN_POINT('',(0.00021035748218634,0.0189014258831633,-0.227));
#1156=CARTESIAN_POINT('',(-0.0582896425178137,0.0314014258831634,-0.227));
#1157=CARTESIAN_POINT('',(-0.0582896425178137,0.0314014258831634,-0.227));
#1158=CARTESIAN_POINT('',(-0.0612916425178137,0.0314014258831634,-0.227));
#1159=CARTESIAN_POINT('',(-0.0587896425178137,0.0314014258831634,-0.227));
#1160=CARTESIAN_POINT('',(0.0587103574821863,0.0314014258831634,-0.227));
#1161=CARTESIAN_POINT('',(0.0587103574821863,0.0189014258831633,-0.227));
#1162=CARTESIAN_POINT('',(0.000210357482186341,0.0189014258831633,-0.222));
#1163=CARTESIAN_POINT('',(-0.0612916425178137,0.0465893200609434,-0.216749287058457));
#1164=CARTESIAN_POINT('',(-0.0612916425178137,0.0592905835188489,-0.208176867197092));
#1165=CARTESIAN_POINT('',(-0.0668125235592847,0.0440292905093463,-0.218477118958529));
#1166=CARTESIAN_POINT('',(-0.0612916425178137,0.0470272142387235,-0.18375));
#1167=CARTESIAN_POINT('',(-0.0582896425178137,0.0470272142387235,-0.18375));
#1168=CARTESIAN_POINT('',(-0.0582896425178137,0.0453272142387235,-0.18375));
#1169=CARTESIAN_POINT('',(-0.0612916425178137,0.0617772142387235,-0.188998574116914));
#1170=CARTESIAN_POINT('',(0.00995935748218635,0.0617772142387235,-0.117747574116914));
#1171=CARTESIAN_POINT('',(0.0617123574821864,0.0617772142387235,-0.171498574116913));
#1172=CARTESIAN_POINT('',(-0.0612916425178137,0.0617772142387235,-0.171498574116913));
#1173=CARTESIAN_POINT('',(-0.0612916425178137,0.0617772142387235,-0.203498574116913));
#1174=CARTESIAN_POINT('',(-0.0710406425178137,0.0617772142387235,-0.179249574116914));
#1175=CARTESIAN_POINT('',(0.0617123574821864,0.0465901415360502,-0.216749287039176));
#1176=CARTESIAN_POINT('',(0.0617123574821864,0.0592921843807099,-0.208176804796944));
#1177=CARTESIAN_POINT('',(0.0672333363358878,0.044030118425739,-0.218477021146298));
#1178=CARTESIAN_POINT('',(0.0617123574821864,0.0617780357138303,-0.188998574097633));
#1179=CARTESIAN_POINT('',(0.0617123574821864,0.061778716364633,-0.203498574081657));
#1180=CARTESIAN_POINT('',(0.0617123574821864,0.0470272142387235,-0.20875));
#1181=CARTESIAN_POINT('',(0.0587103574821863,0.0470272142387235,-0.20875));
#1182=CARTESIAN_POINT('',(0.0587103574821863,0.0453272142387235,-0.20875));
#1183=CARTESIAN_POINT('',(0.0617123574821864,0.0470272142387235,-0.18375));
#1184=CARTESIAN_POINT('',(0.0587103574821863,0.0470272142387235,-0.18375));
#1185=CARTESIAN_POINT('',(0.0587103574821863,0.0453272142387235,-0.18375));
#1186=CARTESIAN_POINT('',(0.00018357512832846,0.0440879066777802,-0.171498574116913));
#1187=CARTESIAN_POINT('',(0.0252103574821864,0.0467772142387235,-0.171498574116913));
#1188=CARTESIAN_POINT('',(0.0269103574821864,0.0467772142387235,-0.171498574116913));
#1189=CARTESIAN_POINT('',(-0.0247896425178137,0.0467772142387235,-0.171498574116913));
#1190=CARTESIAN_POINT('',(-0.0230896425178137,0.0467772142387235,-0.171498574116913));
#1191=CARTESIAN_POINT('',(0.0252103574821864,0.0467772142387235,-0.166498574116913));
#1192=CARTESIAN_POINT('',(0.0252103574821864,0.0467772142387235,-0.169498574116913));
#1193=CARTESIAN_POINT('',(0.0252103574821864,0.0450772142387235,-0.169498574116913));
#1194=CARTESIAN_POINT('',(-0.0247896425178137,0.0467772142387235,-0.166498574116913));
#1195=CARTESIAN_POINT('',(-0.0247896425178137,0.0467772142387235,-0.169498574116913));
#1196=CARTESIAN_POINT('',(-0.0247896425178137,0.0450772142387235,-0.169498574116913));
#1197=CARTESIAN_POINT('',(-0.02,-0.780043340577162,-0.160660713911056));
#1198=CARTESIAN_POINT('',(0.02,-0.780043340577162,-0.160660713911056));
#1199=CARTESIAN_POINT('',(-0.0482988498701396,-0.780043340577162,-0.158999287058457));
#1200=CARTESIAN_POINT('',(0.0487195648345123,-0.780043340577162,-0.158999287058457));
#1201=CARTESIAN_POINT('',(0.0617103574821864,0.0189014258831634,-0.169498574116913));
#1202=CARTESIAN_POINT('',(-0.0582896425178137,0.0440879066777802,-0.166498574116913));
#1203=CARTESIAN_POINT('',(0.0252103574821864,0.0467772142387235,-0.169498574116913));
#1204=CARTESIAN_POINT('',(-0.0247896425178137,0.0467772142387235,-0.169498574116913));
#1205=CARTESIAN_POINT('',(0.0587103574821863,0.0470272142387235,-0.20875));
#1206=CARTESIAN_POINT('',(0.0587103574821863,0.0470272142387235,-0.18375));
#1207=CARTESIAN_POINT('',(0.0617123574821864,0.061778716364633,-0.203498574081657));
#1208=CARTESIAN_POINT('',(-0.0612896425178137,0.0470272142387235,-0.18375));
#1209=CARTESIAN_POINT('',(-0.0612916425178137,0.0592905835188489,-0.208176867197092));
#1210=CARTESIAN_POINT('',(-0.0582896425178137,0.0189014258831633,-0.227));
#1211=CARTESIAN_POINT('',(0.0617103574821863,0.0189014258831634,-0.224));
#1212=MECHANICAL_DESIGN_GEOMETRIC_PRESENTATION_REPRESENTATION('',(#745),
#1213);
#1213=(
GEOMETRIC_REPRESENTATION_CONTEXT(3)
GLOBAL_UNCERTAINTY_ASSIGNED_CONTEXT((#1214))
GLOBAL_UNIT_ASSIGNED_CONTEXT((#1217,#1216,#1215))
REPRESENTATION_CONTEXT('SMPS_Holder','TOP_LEVEL_ASSEMBLY_PART')
);
#1214=UNCERTAINTY_MEASURE_WITH_UNIT(LENGTH_MEASURE(2.14258830863456E-5),
#1217,'DISTANCE_ACCURACY_VALUE','Maximum Tolerance applied to model');
#1215=(
NAMED_UNIT(*)
SI_UNIT($,.STERADIAN.)
SOLID_ANGLE_UNIT()
);
#1216=(
NAMED_UNIT(*)
PLANE_ANGLE_UNIT()
SI_UNIT($,.RADIAN.)
);
#1217=(
LENGTH_UNIT()
NAMED_UNIT(*)
SI_UNIT($,.METRE.)
);
#1218=PRODUCT_DEFINITION_SHAPE('','',#1219);
#1219=PRODUCT_DEFINITION('','',#1221,#1220);
#1220=PRODUCT_DEFINITION_CONTEXT('',#1227,'design');
#1221=PRODUCT_DEFINITION_FORMATION_WITH_SPECIFIED_SOURCE('','',#1223,
 .NOT_KNOWN.);
#1222=PRODUCT_RELATED_PRODUCT_CATEGORY('','',(#1223));
#1223=PRODUCT('SMPS_Holder','SMPS_Holder','SMPS_Holder',(#1225));
#1224=PRODUCT_CATEGORY('','');
#1225=PRODUCT_CONTEXT('',#1227,'mechanical');
#1226=APPLICATION_PROTOCOL_DEFINITION('international standard',
'ap242_managed_model_based_3d_engineering',2020,#1227);
#1227=APPLICATION_CONTEXT('managed model based 3d engineering');
ENDSEC;
END-ISO-10303-21;
