ISO-10303-21;
HEADER;
/* Generated by software containing ST-Developer
 * from STEP Tools, Inc. (www.steptools.com) 
 */
/* OPTION: using custom renumber hook */

FILE_DESCRIPTION(
/* description */ ('STEP AP242 Edition 2',
'CAx-IF Rec.Pracs.---Representation and Presentation of Product Manufa
cturing Information (PMI)---4.0---2014-10-13',
'CAx-IF Rec.Pracs.---3D Tessellated Geometry---0.4---2014-09-14','2;1',
'CAx-IF Rec.Pracs.---User Defined Attributes---1.5---2016-08-15'),
/* implementation_level */ '2;1');

FILE_NAME(
/* name */ 'NOT-618 - Z-BaseMount',
/* time_stamp */ '2026-07-11T05:58:37Z',
/* author */ (''),
/* organization */ (''),
/* preprocessor_version */ 'ST-DEVELOPER v20',
/* originating_system */ 'ONSHAPE BY PTC INC, 1.217',
/* authorisation */ '  ');

FILE_SCHEMA (('AP242_MANAGED_MODEL_BASED_3D_ENGINEERING_MIM_LF { 1 0 10303 442 3 1 4 }'));
ENDSEC;

DATA;
#10=SHAPE_REPRESENTATION_RELATIONSHIP('','',#947,#11);
#11=ADVANCED_BREP_SHAPE_REPRESENTATION('',(#945),#1533);
#12=CONICAL_SURFACE('',#1024,0.00265,0.785398163397474);
#13=CONICAL_SURFACE('',#1025,0.00265,0.785398163397476);
#14=CYLINDRICAL_SURFACE('',#973,0.013);
#15=CYLINDRICAL_SURFACE('',#976,0.013);
#16=CYLINDRICAL_SURFACE('',#982,0.00265);
#17=CYLINDRICAL_SURFACE('',#984,0.00265);
#18=CYLINDRICAL_SURFACE('',#992,0.006);
#19=CYLINDRICAL_SURFACE('',#997,0.006);
#20=CYLINDRICAL_SURFACE('',#1006,0.00154437958583803);
#21=CYLINDRICAL_SURFACE('',#1008,0.00154437958175155);
#22=CYLINDRICAL_SURFACE('',#1010,0.00154437958829301);
#23=CYLINDRICAL_SURFACE('',#1012,0.0125);
#24=CYLINDRICAL_SURFACE('',#1014,0.0015443795837001);
#25=CIRCLE('',#958,0.00265);
#26=CIRCLE('',#959,0.00265);
#27=CIRCLE('',#974,0.013);
#28=CIRCLE('',#975,0.013);
#29=CIRCLE('',#977,0.013);
#30=CIRCLE('',#978,0.013);
#31=CIRCLE('',#980,0.00465);
#32=CIRCLE('',#981,0.00465);
#33=CIRCLE('',#983,0.00265);
#34=CIRCLE('',#985,0.00265);
#35=CIRCLE('',#989,0.006);
#36=CIRCLE('',#991,0.006);
#37=CIRCLE('',#994,0.006);
#38=CIRCLE('',#996,0.006);
#39=CIRCLE('',#999,0.0125);
#40=CIRCLE('',#1000,0.00154437958829301);
#41=CIRCLE('',#1001,0.00154437958175155);
#42=CIRCLE('',#1002,0.00154437958583803);
#43=CIRCLE('',#1003,0.0015443795837001);
#44=CIRCLE('',#1007,0.00154437958583803);
#45=CIRCLE('',#1009,0.00154437958175155);
#46=CIRCLE('',#1011,0.00154437958829301);
#47=CIRCLE('',#1013,0.0125);
#48=CIRCLE('',#1015,0.0015443795837001);
#49=ORIENTED_EDGE('',*,*,#285,.T.);
#50=ORIENTED_EDGE('',*,*,#286,.F.);
#51=ORIENTED_EDGE('',*,*,#287,.F.);
#52=ORIENTED_EDGE('',*,*,#288,.F.);
#53=ORIENTED_EDGE('',*,*,#289,.T.);
#54=ORIENTED_EDGE('',*,*,#288,.T.);
#55=ORIENTED_EDGE('',*,*,#290,.F.);
#56=ORIENTED_EDGE('',*,*,#291,.F.);
#57=ORIENTED_EDGE('',*,*,#292,.T.);
#58=ORIENTED_EDGE('',*,*,#291,.T.);
#59=ORIENTED_EDGE('',*,*,#293,.F.);
#60=ORIENTED_EDGE('',*,*,#294,.T.);
#61=ORIENTED_EDGE('',*,*,#295,.F.);
#62=ORIENTED_EDGE('',*,*,#296,.T.);
#63=ORIENTED_EDGE('',*,*,#297,.T.);
#64=ORIENTED_EDGE('',*,*,#298,.T.);
#65=ORIENTED_EDGE('',*,*,#299,.F.);
#66=ORIENTED_EDGE('',*,*,#300,.T.);
#67=ORIENTED_EDGE('',*,*,#301,.F.);
#68=ORIENTED_EDGE('',*,*,#295,.T.);
#69=ORIENTED_EDGE('',*,*,#302,.F.);
#70=ORIENTED_EDGE('',*,*,#303,.T.);
#71=ORIENTED_EDGE('',*,*,#304,.T.);
#72=ORIENTED_EDGE('',*,*,#305,.T.);
#73=ORIENTED_EDGE('',*,*,#306,.F.);
#74=ORIENTED_EDGE('',*,*,#307,.F.);
#75=ORIENTED_EDGE('',*,*,#308,.F.);
#76=ORIENTED_EDGE('',*,*,#285,.F.);
#77=ORIENTED_EDGE('',*,*,#309,.T.);
#78=ORIENTED_EDGE('',*,*,#307,.T.);
#79=ORIENTED_EDGE('',*,*,#301,.T.);
#80=ORIENTED_EDGE('',*,*,#310,.T.);
#81=ORIENTED_EDGE('',*,*,#302,.T.);
#82=ORIENTED_EDGE('',*,*,#309,.F.);
#83=ORIENTED_EDGE('',*,*,#289,.F.);
#84=ORIENTED_EDGE('',*,*,#292,.F.);
#85=ORIENTED_EDGE('',*,*,#296,.F.);
#86=ORIENTED_EDGE('',*,*,#310,.F.);
#87=ORIENTED_EDGE('',*,*,#300,.F.);
#88=ORIENTED_EDGE('',*,*,#311,.F.);
#89=ORIENTED_EDGE('',*,*,#303,.F.);
#90=ORIENTED_EDGE('',*,*,#312,.T.);
#91=ORIENTED_EDGE('',*,*,#313,.T.);
#92=ORIENTED_EDGE('',*,*,#314,.T.);
#93=ORIENTED_EDGE('',*,*,#308,.T.);
#94=ORIENTED_EDGE('',*,*,#306,.T.);
#95=ORIENTED_EDGE('',*,*,#315,.T.);
#96=ORIENTED_EDGE('',*,*,#316,.T.);
#97=ORIENTED_EDGE('',*,*,#317,.T.);
#98=ORIENTED_EDGE('',*,*,#318,.F.);
#99=ORIENTED_EDGE('',*,*,#319,.T.);
#100=ORIENTED_EDGE('',*,*,#319,.F.);
#101=ORIENTED_EDGE('',*,*,#320,.F.);
#102=ORIENTED_EDGE('',*,*,#321,.T.);
#103=ORIENTED_EDGE('',*,*,#322,.T.);
#104=ORIENTED_EDGE('',*,*,#320,.T.);
#105=ORIENTED_EDGE('',*,*,#318,.T.);
#106=ORIENTED_EDGE('',*,*,#323,.T.);
#107=ORIENTED_EDGE('',*,*,#324,.F.);
#108=ORIENTED_EDGE('',*,*,#325,.T.);
#109=ORIENTED_EDGE('',*,*,#326,.T.);
#110=ORIENTED_EDGE('',*,*,#327,.F.);
#111=ORIENTED_EDGE('',*,*,#328,.T.);
#112=ORIENTED_EDGE('',*,*,#329,.F.);
#113=ORIENTED_EDGE('',*,*,#330,.T.);
#114=ORIENTED_EDGE('',*,*,#331,.F.);
#115=ORIENTED_EDGE('',*,*,#332,.F.);
#116=ORIENTED_EDGE('',*,*,#332,.T.);
#117=ORIENTED_EDGE('',*,*,#333,.F.);
#118=ORIENTED_EDGE('',*,*,#334,.F.);
#119=ORIENTED_EDGE('',*,*,#335,.F.);
#120=ORIENTED_EDGE('',*,*,#336,.T.);
#121=ORIENTED_EDGE('',*,*,#335,.T.);
#122=ORIENTED_EDGE('',*,*,#337,.F.);
#123=ORIENTED_EDGE('',*,*,#338,.F.);
#124=ORIENTED_EDGE('',*,*,#339,.T.);
#125=ORIENTED_EDGE('',*,*,#338,.T.);
#126=ORIENTED_EDGE('',*,*,#340,.F.);
#127=ORIENTED_EDGE('',*,*,#341,.T.);
#128=ORIENTED_EDGE('',*,*,#322,.F.);
#129=ORIENTED_EDGE('',*,*,#342,.T.);
#130=ORIENTED_EDGE('',*,*,#326,.F.);
#131=ORIENTED_EDGE('',*,*,#343,.T.);
#132=ORIENTED_EDGE('',*,*,#327,.T.);
#133=ORIENTED_EDGE('',*,*,#336,.F.);
#134=ORIENTED_EDGE('',*,*,#339,.F.);
#135=ORIENTED_EDGE('',*,*,#342,.F.);
#136=ORIENTED_EDGE('',*,*,#321,.F.);
#137=ORIENTED_EDGE('',*,*,#343,.F.);
#138=ORIENTED_EDGE('',*,*,#325,.F.);
#139=ORIENTED_EDGE('',*,*,#344,.F.);
#140=ORIENTED_EDGE('',*,*,#328,.F.);
#141=ORIENTED_EDGE('',*,*,#345,.T.);
#142=ORIENTED_EDGE('',*,*,#346,.T.);
#143=ORIENTED_EDGE('',*,*,#316,.F.);
#144=ORIENTED_EDGE('',*,*,#347,.T.);
#145=ORIENTED_EDGE('',*,*,#286,.T.);
#146=ORIENTED_EDGE('',*,*,#314,.F.);
#147=ORIENTED_EDGE('',*,*,#341,.F.);
#148=ORIENTED_EDGE('',*,*,#348,.F.);
#149=ORIENTED_EDGE('',*,*,#349,.F.);
#150=ORIENTED_EDGE('',*,*,#350,.F.);
#151=ORIENTED_EDGE('',*,*,#351,.F.);
#152=ORIENTED_EDGE('',*,*,#352,.T.);
#153=ORIENTED_EDGE('',*,*,#353,.F.);
#154=ORIENTED_EDGE('',*,*,#354,.F.);
#155=ORIENTED_EDGE('',*,*,#355,.F.);
#156=ORIENTED_EDGE('',*,*,#350,.T.);
#157=ORIENTED_EDGE('',*,*,#356,.T.);
#158=ORIENTED_EDGE('',*,*,#357,.F.);
#159=ORIENTED_EDGE('',*,*,#358,.T.);
#160=ORIENTED_EDGE('',*,*,#354,.T.);
#161=ORIENTED_EDGE('',*,*,#359,.T.);
#162=ORIENTED_EDGE('',*,*,#360,.F.);
#163=ORIENTED_EDGE('',*,*,#361,.T.);
#164=ORIENTED_EDGE('',*,*,#362,.F.);
#165=ORIENTED_EDGE('',*,*,#363,.T.);
#166=ORIENTED_EDGE('',*,*,#364,.T.);
#167=ORIENTED_EDGE('',*,*,#361,.F.);
#168=ORIENTED_EDGE('',*,*,#359,.F.);
#169=ORIENTED_EDGE('',*,*,#324,.T.);
#170=ORIENTED_EDGE('',*,*,#365,.T.);
#171=ORIENTED_EDGE('',*,*,#345,.F.);
#172=ORIENTED_EDGE('',*,*,#366,.T.);
#173=ORIENTED_EDGE('',*,*,#304,.F.);
#174=ORIENTED_EDGE('',*,*,#311,.T.);
#175=ORIENTED_EDGE('',*,*,#299,.T.);
#176=ORIENTED_EDGE('',*,*,#351,.T.);
#177=ORIENTED_EDGE('',*,*,#355,.T.);
#178=ORIENTED_EDGE('',*,*,#358,.F.);
#179=ORIENTED_EDGE('',*,*,#329,.T.);
#180=ORIENTED_EDGE('',*,*,#344,.T.);
#181=ORIENTED_EDGE('',*,*,#367,.T.);
#182=ORIENTED_EDGE('',*,*,#313,.F.);
#183=ORIENTED_EDGE('',*,*,#368,.T.);
#184=ORIENTED_EDGE('',*,*,#312,.F.);
#185=ORIENTED_EDGE('',*,*,#317,.F.);
#186=ORIENTED_EDGE('',*,*,#346,.F.);
#187=ORIENTED_EDGE('',*,*,#365,.F.);
#188=ORIENTED_EDGE('',*,*,#323,.F.);
#189=ORIENTED_EDGE('',*,*,#315,.F.);
#190=ORIENTED_EDGE('',*,*,#305,.F.);
#191=ORIENTED_EDGE('',*,*,#366,.F.);
#192=ORIENTED_EDGE('',*,*,#347,.F.);
#193=ORIENTED_EDGE('',*,*,#369,.F.);
#194=ORIENTED_EDGE('',*,*,#362,.T.);
#195=ORIENTED_EDGE('',*,*,#370,.T.);
#196=ORIENTED_EDGE('',*,*,#370,.F.);
#197=ORIENTED_EDGE('',*,*,#369,.T.);
#198=ORIENTED_EDGE('',*,*,#371,.F.);
#199=ORIENTED_EDGE('',*,*,#360,.T.);
#200=ORIENTED_EDGE('',*,*,#372,.T.);
#201=ORIENTED_EDGE('',*,*,#372,.F.);
#202=ORIENTED_EDGE('',*,*,#371,.T.);
#203=ORIENTED_EDGE('',*,*,#373,.T.);
#204=ORIENTED_EDGE('',*,*,#374,.T.);
#205=ORIENTED_EDGE('',*,*,#375,.T.);
#206=ORIENTED_EDGE('',*,*,#376,.T.);
#207=ORIENTED_EDGE('',*,*,#377,.T.);
#208=ORIENTED_EDGE('',*,*,#378,.F.);
#209=ORIENTED_EDGE('',*,*,#293,.T.);
#210=ORIENTED_EDGE('',*,*,#290,.T.);
#211=ORIENTED_EDGE('',*,*,#287,.T.);
#212=ORIENTED_EDGE('',*,*,#348,.T.);
#213=ORIENTED_EDGE('',*,*,#340,.T.);
#214=ORIENTED_EDGE('',*,*,#337,.T.);
#215=ORIENTED_EDGE('',*,*,#334,.T.);
#216=ORIENTED_EDGE('',*,*,#378,.T.);
#217=ORIENTED_EDGE('',*,*,#333,.T.);
#218=ORIENTED_EDGE('',*,*,#379,.T.);
#219=ORIENTED_EDGE('',*,*,#294,.F.);
#220=ORIENTED_EDGE('',*,*,#349,.T.);
#221=ORIENTED_EDGE('',*,*,#380,.T.);
#222=ORIENTED_EDGE('',*,*,#381,.T.);
#223=ORIENTED_EDGE('',*,*,#382,.T.);
#224=ORIENTED_EDGE('',*,*,#383,.F.);
#225=ORIENTED_EDGE('',*,*,#384,.F.);
#226=ORIENTED_EDGE('',*,*,#376,.F.);
#227=ORIENTED_EDGE('',*,*,#385,.F.);
#228=ORIENTED_EDGE('',*,*,#375,.F.);
#229=ORIENTED_EDGE('',*,*,#386,.F.);
#230=ORIENTED_EDGE('',*,*,#374,.F.);
#231=ORIENTED_EDGE('',*,*,#387,.F.);
#232=ORIENTED_EDGE('',*,*,#373,.F.);
#233=ORIENTED_EDGE('',*,*,#388,.F.);
#234=ORIENTED_EDGE('',*,*,#377,.F.);
#235=ORIENTED_EDGE('',*,*,#389,.F.);
#236=ORIENTED_EDGE('',*,*,#390,.F.);
#237=ORIENTED_EDGE('',*,*,#353,.T.);
#238=ORIENTED_EDGE('',*,*,#383,.T.);
#239=ORIENTED_EDGE('',*,*,#391,.F.);
#240=ORIENTED_EDGE('',*,*,#392,.T.);
#241=ORIENTED_EDGE('',*,*,#393,.T.);
#242=ORIENTED_EDGE('',*,*,#356,.F.);
#243=ORIENTED_EDGE('',*,*,#390,.T.);
#244=ORIENTED_EDGE('',*,*,#384,.T.);
#245=ORIENTED_EDGE('',*,*,#385,.T.);
#246=ORIENTED_EDGE('',*,*,#386,.T.);
#247=ORIENTED_EDGE('',*,*,#387,.T.);
#248=ORIENTED_EDGE('',*,*,#388,.T.);
#249=ORIENTED_EDGE('',*,*,#391,.T.);
#250=ORIENTED_EDGE('',*,*,#389,.T.);
#251=ORIENTED_EDGE('',*,*,#382,.F.);
#252=ORIENTED_EDGE('',*,*,#394,.F.);
#253=ORIENTED_EDGE('',*,*,#395,.T.);
#254=ORIENTED_EDGE('',*,*,#396,.T.);
#255=ORIENTED_EDGE('',*,*,#397,.T.);
#256=ORIENTED_EDGE('',*,*,#398,.T.);
#257=ORIENTED_EDGE('',*,*,#399,.F.);
#258=ORIENTED_EDGE('',*,*,#398,.F.);
#259=ORIENTED_EDGE('',*,*,#400,.F.);
#260=ORIENTED_EDGE('',*,*,#297,.F.);
#261=ORIENTED_EDGE('',*,*,#379,.F.);
#262=ORIENTED_EDGE('',*,*,#331,.T.);
#263=ORIENTED_EDGE('',*,*,#400,.T.);
#264=ORIENTED_EDGE('',*,*,#397,.F.);
#265=ORIENTED_EDGE('',*,*,#401,.F.);
#266=ORIENTED_EDGE('',*,*,#380,.F.);
#267=ORIENTED_EDGE('',*,*,#352,.F.);
#268=ORIENTED_EDGE('',*,*,#298,.F.);
#269=ORIENTED_EDGE('',*,*,#357,.T.);
#270=ORIENTED_EDGE('',*,*,#393,.F.);
#271=ORIENTED_EDGE('',*,*,#402,.F.);
#272=ORIENTED_EDGE('',*,*,#395,.F.);
#273=ORIENTED_EDGE('',*,*,#399,.T.);
#274=ORIENTED_EDGE('',*,*,#330,.F.);
#275=ORIENTED_EDGE('',*,*,#401,.T.);
#276=ORIENTED_EDGE('',*,*,#396,.F.);
#277=ORIENTED_EDGE('',*,*,#402,.T.);
#278=ORIENTED_EDGE('',*,*,#392,.F.);
#279=ORIENTED_EDGE('',*,*,#394,.T.);
#280=ORIENTED_EDGE('',*,*,#381,.F.);
#281=ORIENTED_EDGE('',*,*,#363,.F.);
#282=ORIENTED_EDGE('',*,*,#367,.F.);
#283=ORIENTED_EDGE('',*,*,#364,.F.);
#284=ORIENTED_EDGE('',*,*,#368,.F.);
#285=EDGE_CURVE('',#403,#404,#487,.T.);
#286=EDGE_CURVE('',#405,#404,#488,.T.);
#287=EDGE_CURVE('',#406,#405,#489,.T.);
#288=EDGE_CURVE('',#407,#406,#490,.T.);
#289=EDGE_CURVE('',#407,#403,#491,.T.);
#290=EDGE_CURVE('',#408,#406,#492,.T.);
#291=EDGE_CURVE('',#409,#408,#493,.T.);
#292=EDGE_CURVE('',#409,#407,#494,.T.);
#293=EDGE_CURVE('',#410,#408,#495,.T.);
#294=EDGE_CURVE('',#410,#411,#496,.T.);
#295=EDGE_CURVE('',#412,#411,#497,.T.);
#296=EDGE_CURVE('',#412,#409,#498,.T.);
#297=EDGE_CURVE('',#411,#413,#499,.T.);
#298=EDGE_CURVE('',#413,#414,#500,.T.);
#299=EDGE_CURVE('',#415,#414,#501,.T.);
#300=EDGE_CURVE('',#415,#416,#502,.T.);
#301=EDGE_CURVE('',#412,#416,#503,.T.);
#302=EDGE_CURVE('',#417,#418,#504,.T.);
#303=EDGE_CURVE('',#417,#419,#505,.T.);
#304=EDGE_CURVE('',#419,#420,#506,.T.);
#305=EDGE_CURVE('',#420,#421,#507,.T.);
#306=EDGE_CURVE('',#422,#421,#508,.T.);
#307=EDGE_CURVE('',#418,#422,#509,.T.);
#308=EDGE_CURVE('',#404,#422,#510,.T.);
#309=EDGE_CURVE('',#403,#418,#511,.T.);
#310=EDGE_CURVE('',#416,#417,#512,.F.);
#311=EDGE_CURVE('',#419,#415,#513,.T.);
#312=EDGE_CURVE('',#423,#423,#25,.T.);
#313=EDGE_CURVE('',#424,#424,#26,.T.);
#314=EDGE_CURVE('',#425,#404,#514,.T.);
#315=EDGE_CURVE('',#421,#426,#515,.F.);
#316=EDGE_CURVE('',#426,#427,#516,.T.);
#317=EDGE_CURVE('',#427,#428,#517,.T.);
#318=EDGE_CURVE('',#429,#428,#518,.T.);
#319=EDGE_CURVE('',#429,#425,#519,.T.);
#320=EDGE_CURVE('',#430,#429,#520,.T.);
#321=EDGE_CURVE('',#430,#431,#521,.T.);
#322=EDGE_CURVE('',#431,#425,#522,.T.);
#323=EDGE_CURVE('',#428,#432,#523,.T.);
#324=EDGE_CURVE('',#433,#432,#524,.T.);
#325=EDGE_CURVE('',#433,#434,#525,.T.);
#326=EDGE_CURVE('',#434,#430,#526,.T.);
#327=EDGE_CURVE('',#435,#436,#527,.T.);
#328=EDGE_CURVE('',#435,#437,#528,.T.);
#329=EDGE_CURVE('',#438,#437,#529,.T.);
#330=EDGE_CURVE('',#438,#439,#530,.T.);
#331=EDGE_CURVE('',#440,#439,#531,.T.);
#332=EDGE_CURVE('',#436,#440,#532,.T.);
#333=EDGE_CURVE('',#441,#440,#533,.T.);
#334=EDGE_CURVE('',#442,#441,#534,.T.);
#335=EDGE_CURVE('',#443,#442,#535,.T.);
#336=EDGE_CURVE('',#443,#436,#536,.T.);
#337=EDGE_CURVE('',#444,#442,#537,.T.);
#338=EDGE_CURVE('',#445,#444,#538,.T.);
#339=EDGE_CURVE('',#445,#443,#539,.T.);
#340=EDGE_CURVE('',#446,#444,#540,.T.);
#341=EDGE_CURVE('',#446,#425,#541,.T.);
#342=EDGE_CURVE('',#431,#445,#542,.T.);
#343=EDGE_CURVE('',#434,#435,#543,.T.);
#344=EDGE_CURVE('',#437,#433,#544,.F.);
#345=EDGE_CURVE('',#447,#448,#545,.T.);
#346=EDGE_CURVE('',#448,#427,#546,.T.);
#347=EDGE_CURVE('',#426,#447,#547,.T.);
#348=EDGE_CURVE('',#405,#446,#548,.T.);
#349=EDGE_CURVE('',#449,#450,#549,.T.);
#350=EDGE_CURVE('',#451,#449,#550,.T.);
#351=EDGE_CURVE('',#414,#451,#551,.T.);
#352=EDGE_CURVE('',#414,#450,#552,.T.);
#353=EDGE_CURVE('',#452,#449,#553,.T.);
#354=EDGE_CURVE('',#453,#452,#554,.T.);
#355=EDGE_CURVE('',#451,#453,#555,.T.);
#356=EDGE_CURVE('',#452,#454,#556,.T.);
#357=EDGE_CURVE('',#438,#454,#557,.T.);
#358=EDGE_CURVE('',#438,#453,#558,.T.);
#359=EDGE_CURVE('',#455,#455,#27,.T.);
#360=EDGE_CURVE('',#456,#456,#28,.T.);
#361=EDGE_CURVE('',#457,#457,#29,.T.);
#362=EDGE_CURVE('',#458,#458,#30,.T.);
#363=EDGE_CURVE('',#459,#459,#31,.F.);
#364=EDGE_CURVE('',#460,#460,#32,.F.);
#365=EDGE_CURVE('',#432,#448,#559,.T.);
#366=EDGE_CURVE('',#447,#420,#560,.F.);
#367=EDGE_CURVE('',#461,#461,#33,.T.);
#368=EDGE_CURVE('',#462,#462,#34,.T.);
#369=EDGE_CURVE('',#463,#463,#35,.T.);
#370=EDGE_CURVE('',#464,#464,#36,.T.);
#371=EDGE_CURVE('',#465,#465,#37,.T.);
#372=EDGE_CURVE('',#466,#466,#38,.T.);
#373=EDGE_CURVE('',#467,#467,#39,.T.);
#374=EDGE_CURVE('',#468,#468,#40,.T.);
#375=EDGE_CURVE('',#469,#469,#41,.T.);
#376=EDGE_CURVE('',#470,#470,#42,.T.);
#377=EDGE_CURVE('',#471,#471,#43,.T.);
#378=EDGE_CURVE('',#410,#441,#561,.T.);
#379=EDGE_CURVE('',#440,#411,#562,.T.);
#380=EDGE_CURVE('',#450,#472,#563,.F.);
#381=EDGE_CURVE('',#472,#473,#564,.F.);
#382=EDGE_CURVE('',#473,#474,#565,.T.);
#383=EDGE_CURVE('',#449,#474,#566,.F.);
#384=EDGE_CURVE('',#475,#475,#44,.T.);
#385=EDGE_CURVE('',#476,#476,#45,.T.);
#386=EDGE_CURVE('',#477,#477,#46,.T.);
#387=EDGE_CURVE('',#478,#478,#47,.T.);
#388=EDGE_CURVE('',#479,#479,#48,.T.);
#389=EDGE_CURVE('',#480,#474,#567,.T.);
#390=EDGE_CURVE('',#452,#480,#568,.T.);
#391=EDGE_CURVE('',#481,#480,#569,.T.);
#392=EDGE_CURVE('',#481,#482,#570,.F.);
#393=EDGE_CURVE('',#482,#454,#571,.F.);
#394=EDGE_CURVE('',#481,#473,#572,.T.);
#395=EDGE_CURVE('',#483,#484,#573,.T.);
#396=EDGE_CURVE('',#484,#485,#574,.T.);
#397=EDGE_CURVE('',#485,#486,#575,.T.);
#398=EDGE_CURVE('',#486,#483,#576,.T.);
#399=EDGE_CURVE('',#483,#439,#577,.T.);
#400=EDGE_CURVE('',#413,#486,#578,.F.);
#401=EDGE_CURVE('',#472,#485,#579,.F.);
#402=EDGE_CURVE('',#484,#482,#580,.T.);
#403=VERTEX_POINT('',#1279);
#404=VERTEX_POINT('',#1280);
#405=VERTEX_POINT('',#1282);
#406=VERTEX_POINT('',#1284);
#407=VERTEX_POINT('',#1286);
#408=VERTEX_POINT('',#1290);
#409=VERTEX_POINT('',#1292);
#410=VERTEX_POINT('',#1296);
#411=VERTEX_POINT('',#1298);
#412=VERTEX_POINT('',#1300);
#413=VERTEX_POINT('',#1304);
#414=VERTEX_POINT('',#1306);
#415=VERTEX_POINT('',#1308);
#416=VERTEX_POINT('',#1310);
#417=VERTEX_POINT('',#1314);
#418=VERTEX_POINT('',#1315);
#419=VERTEX_POINT('',#1317);
#420=VERTEX_POINT('',#1319);
#421=VERTEX_POINT('',#1321);
#422=VERTEX_POINT('',#1323);
#423=VERTEX_POINT('',#1334);
#424=VERTEX_POINT('',#1336);
#425=VERTEX_POINT('',#1338);
#426=VERTEX_POINT('',#1340);
#427=VERTEX_POINT('',#1342);
#428=VERTEX_POINT('',#1344);
#429=VERTEX_POINT('',#1346);
#430=VERTEX_POINT('',#1350);
#431=VERTEX_POINT('',#1352);
#432=VERTEX_POINT('',#1356);
#433=VERTEX_POINT('',#1358);
#434=VERTEX_POINT('',#1360);
#435=VERTEX_POINT('',#1364);
#436=VERTEX_POINT('',#1365);
#437=VERTEX_POINT('',#1367);
#438=VERTEX_POINT('',#1369);
#439=VERTEX_POINT('',#1371);
#440=VERTEX_POINT('',#1373);
#441=VERTEX_POINT('',#1377);
#442=VERTEX_POINT('',#1379);
#443=VERTEX_POINT('',#1381);
#444=VERTEX_POINT('',#1385);
#445=VERTEX_POINT('',#1387);
#446=VERTEX_POINT('',#1391);
#447=VERTEX_POINT('',#1400);
#448=VERTEX_POINT('',#1401);
#449=VERTEX_POINT('',#1408);
#450=VERTEX_POINT('',#1409);
#451=VERTEX_POINT('',#1411);
#452=VERTEX_POINT('',#1416);
#453=VERTEX_POINT('',#1418);
#454=VERTEX_POINT('',#1422);
#455=VERTEX_POINT('',#1427);
#456=VERTEX_POINT('',#1429);
#457=VERTEX_POINT('',#1432);
#458=VERTEX_POINT('',#1434);
#459=VERTEX_POINT('',#1437);
#460=VERTEX_POINT('',#1439);
#461=VERTEX_POINT('',#1444);
#462=VERTEX_POINT('',#1447);
#463=VERTEX_POINT('',#1452);
#464=VERTEX_POINT('',#1455);
#465=VERTEX_POINT('',#1459);
#466=VERTEX_POINT('',#1462);
#467=VERTEX_POINT('',#1466);
#468=VERTEX_POINT('',#1468);
#469=VERTEX_POINT('',#1470);
#470=VERTEX_POINT('',#1472);
#471=VERTEX_POINT('',#1474);
#472=VERTEX_POINT('',#1480);
#473=VERTEX_POINT('',#1482);
#474=VERTEX_POINT('',#1484);
#475=VERTEX_POINT('',#1488);
#476=VERTEX_POINT('',#1491);
#477=VERTEX_POINT('',#1494);
#478=VERTEX_POINT('',#1497);
#479=VERTEX_POINT('',#1500);
#480=VERTEX_POINT('',#1503);
#481=VERTEX_POINT('',#1507);
#482=VERTEX_POINT('',#1509);
#483=VERTEX_POINT('',#1515);
#484=VERTEX_POINT('',#1516);
#485=VERTEX_POINT('',#1518);
#486=VERTEX_POINT('',#1520);
#487=LINE('',#1278,#581);
#488=LINE('',#1281,#582);
#489=LINE('',#1283,#583);
#490=LINE('',#1285,#584);
#491=LINE('',#1287,#585);
#492=LINE('',#1289,#586);
#493=LINE('',#1291,#587);
#494=LINE('',#1293,#588);
#495=LINE('',#1295,#589);
#496=LINE('',#1297,#590);
#497=LINE('',#1299,#591);
#498=LINE('',#1301,#592);
#499=LINE('',#1303,#593);
#500=LINE('',#1305,#594);
#501=LINE('',#1307,#595);
#502=LINE('',#1309,#596);
#503=LINE('',#1311,#597);
#504=LINE('',#1313,#598);
#505=LINE('',#1316,#599);
#506=LINE('',#1318,#600);
#507=LINE('',#1320,#601);
#508=LINE('',#1322,#602);
#509=LINE('',#1324,#603);
#510=LINE('',#1326,#604);
#511=LINE('',#1327,#605);
#512=LINE('',#1329,#606);
#513=LINE('',#1331,#607);
#514=LINE('',#1337,#608);
#515=LINE('',#1339,#609);
#516=LINE('',#1341,#610);
#517=LINE('',#1343,#611);
#518=LINE('',#1345,#612);
#519=LINE('',#1347,#613);
#520=LINE('',#1349,#614);
#521=LINE('',#1351,#615);
#522=LINE('',#1353,#616);
#523=LINE('',#1355,#617);
#524=LINE('',#1357,#618);
#525=LINE('',#1359,#619);
#526=LINE('',#1361,#620);
#527=LINE('',#1363,#621);
#528=LINE('',#1366,#622);
#529=LINE('',#1368,#623);
#530=LINE('',#1370,#624);
#531=LINE('',#1372,#625);
#532=LINE('',#1374,#626);
#533=LINE('',#1376,#627);
#534=LINE('',#1378,#628);
#535=LINE('',#1380,#629);
#536=LINE('',#1382,#630);
#537=LINE('',#1384,#631);
#538=LINE('',#1386,#632);
#539=LINE('',#1388,#633);
#540=LINE('',#1390,#634);
#541=LINE('',#1392,#635);
#542=LINE('',#1393,#636);
#543=LINE('',#1395,#637);
#544=LINE('',#1397,#638);
#545=LINE('',#1399,#639);
#546=LINE('',#1402,#640);
#547=LINE('',#1403,#641);
#548=LINE('',#1405,#642);
#549=LINE('',#1407,#643);
#550=LINE('',#1410,#644);
#551=LINE('',#1412,#645);
#552=LINE('',#1413,#646);
#553=LINE('',#1415,#647);
#554=LINE('',#1417,#648);
#555=LINE('',#1419,#649);
#556=LINE('',#1421,#650);
#557=LINE('',#1423,#651);
#558=LINE('',#1424,#652);
#559=LINE('',#1440,#653);
#560=LINE('',#1441,#654);
#561=LINE('',#1475,#655);
#562=LINE('',#1477,#656);
#563=LINE('',#1479,#657);
#564=LINE('',#1481,#658);
#565=LINE('',#1483,#659);
#566=LINE('',#1485,#660);
#567=LINE('',#1502,#661);
#568=LINE('',#1504,#662);
#569=LINE('',#1506,#663);
#570=LINE('',#1508,#664);
#571=LINE('',#1510,#665);
#572=LINE('',#1512,#666);
#573=LINE('',#1514,#667);
#574=LINE('',#1517,#668);
#575=LINE('',#1519,#669);
#576=LINE('',#1521,#670);
#577=LINE('',#1523,#671);
#578=LINE('',#1524,#672);
#579=LINE('',#1526,#673);
#580=LINE('',#1528,#674);
#581=VECTOR('',#1030,1.);
#582=VECTOR('',#1031,1.);
#583=VECTOR('',#1032,1.);
#584=VECTOR('',#1033,1.);
#585=VECTOR('',#1034,1.);
#586=VECTOR('',#1037,1.);
#587=VECTOR('',#1038,1.);
#588=VECTOR('',#1039,1.);
#589=VECTOR('',#1042,1.);
#590=VECTOR('',#1043,1.);
#591=VECTOR('',#1044,1.);
#592=VECTOR('',#1045,1.);
#593=VECTOR('',#1048,1.);
#594=VECTOR('',#1049,1.);
#595=VECTOR('',#1050,1.);
#596=VECTOR('',#1051,1.);
#597=VECTOR('',#1052,1.);
#598=VECTOR('',#1055,1.);
#599=VECTOR('',#1056,1.);
#600=VECTOR('',#1057,1.);
#601=VECTOR('',#1058,1.);
#602=VECTOR('',#1059,1.);
#603=VECTOR('',#1060,1.);
#604=VECTOR('',#1063,1.);
#605=VECTOR('',#1064,1.);
#606=VECTOR('',#1067,1.);
#607=VECTOR('',#1070,1.);
#608=VECTOR('',#1077,1.);
#609=VECTOR('',#1078,1.);
#610=VECTOR('',#1079,1.);
#611=VECTOR('',#1080,1.);
#612=VECTOR('',#1081,1.);
#613=VECTOR('',#1082,1.);
#614=VECTOR('',#1085,1.);
#615=VECTOR('',#1086,1.);
#616=VECTOR('',#1087,1.);
#617=VECTOR('',#1090,1.);
#618=VECTOR('',#1091,1.);
#619=VECTOR('',#1092,1.);
#620=VECTOR('',#1093,1.);
#621=VECTOR('',#1096,1.);
#622=VECTOR('',#1097,1.);
#623=VECTOR('',#1098,1.);
#624=VECTOR('',#1099,1.);
#625=VECTOR('',#1100,1.);
#626=VECTOR('',#1101,1.);
#627=VECTOR('',#1104,1.);
#628=VECTOR('',#1105,1.);
#629=VECTOR('',#1106,1.);
#630=VECTOR('',#1107,1.);
#631=VECTOR('',#1110,1.);
#632=VECTOR('',#1111,1.);
#633=VECTOR('',#1112,1.);
#634=VECTOR('',#1115,1.);
#635=VECTOR('',#1116,1.);
#636=VECTOR('',#1117,1.);
#637=VECTOR('',#1120,1.);
#638=VECTOR('',#1123,1.);
#639=VECTOR('',#1126,1.);
#640=VECTOR('',#1127,1.);
#641=VECTOR('',#1128,1.);
#642=VECTOR('',#1131,1.);
#643=VECTOR('',#1134,1.);
#644=VECTOR('',#1135,1.);
#645=VECTOR('',#1136,1.);
#646=VECTOR('',#1137,1.);
#647=VECTOR('',#1140,1.);
#648=VECTOR('',#1141,1.);
#649=VECTOR('',#1142,1.);
#650=VECTOR('',#1145,1.);
#651=VECTOR('',#1146,1.);
#652=VECTOR('',#1147,1.);
#653=VECTOR('',#1166,1.);
#654=VECTOR('',#1167,1.);
#655=VECTOR('',#1212,1.);
#656=VECTOR('',#1215,1.);
#657=VECTOR('',#1218,1.);
#658=VECTOR('',#1219,1.);
#659=VECTOR('',#1220,1.);
#660=VECTOR('',#1221,1.);
#661=VECTOR('',#1244,1.);
#662=VECTOR('',#1245,1.);
#663=VECTOR('',#1248,1.);
#664=VECTOR('',#1249,1.);
#665=VECTOR('',#1250,1.);
#666=VECTOR('',#1253,1.);
#667=VECTOR('',#1256,1.);
#668=VECTOR('',#1257,1.);
#669=VECTOR('',#1258,1.);
#670=VECTOR('',#1259,1.);
#671=VECTOR('',#1262,1.);
#672=VECTOR('',#1263,1.);
#673=VECTOR('',#1266,1.);
#674=VECTOR('',#1269,1.);
#675=EDGE_LOOP('',(#49,#50,#51,#52,#53));
#676=EDGE_LOOP('',(#54,#55,#56,#57));
#677=EDGE_LOOP('',(#58,#59,#60,#61,#62));
#678=EDGE_LOOP('',(#63,#64,#65,#66,#67,#68));
#679=EDGE_LOOP('',(#69,#70,#71,#72,#73,#74));
#680=EDGE_LOOP('',(#75,#76,#77,#78));
#681=EDGE_LOOP('',(#79,#80,#81,#82,#83,#84,#85));
#682=EDGE_LOOP('',(#86,#87,#88,#89));
#683=EDGE_LOOP('',(#90));
#684=EDGE_LOOP('',(#91));
#685=EDGE_LOOP('',(#92,#93,#94,#95,#96,#97,#98,#99));
#686=EDGE_LOOP('',(#100,#101,#102,#103));
#687=EDGE_LOOP('',(#104,#105,#106,#107,#108,#109));
#688=EDGE_LOOP('',(#110,#111,#112,#113,#114,#115));
#689=EDGE_LOOP('',(#116,#117,#118,#119,#120));
#690=EDGE_LOOP('',(#121,#122,#123,#124));
#691=EDGE_LOOP('',(#125,#126,#127,#128,#129));
#692=EDGE_LOOP('',(#130,#131,#132,#133,#134,#135,#136));
#693=EDGE_LOOP('',(#137,#138,#139,#140));
#694=EDGE_LOOP('',(#141,#142,#143,#144));
#695=EDGE_LOOP('',(#145,#146,#147,#148));
#696=EDGE_LOOP('',(#149,#150,#151,#152));
#697=EDGE_LOOP('',(#153,#154,#155,#156));
#698=EDGE_LOOP('',(#157,#158,#159,#160));
#699=EDGE_LOOP('',(#161));
#700=EDGE_LOOP('',(#162));
#701=EDGE_LOOP('',(#163));
#702=EDGE_LOOP('',(#164));
#703=EDGE_LOOP('',(#165));
#704=EDGE_LOOP('',(#166));
#705=EDGE_LOOP('',(#167));
#706=EDGE_LOOP('',(#168));
#707=EDGE_LOOP('',(#169,#170,#171,#172,#173,#174,#175,#176,#177,#178,#179,
#180));
#708=EDGE_LOOP('',(#181));
#709=EDGE_LOOP('',(#182));
#710=EDGE_LOOP('',(#183));
#711=EDGE_LOOP('',(#184));
#712=EDGE_LOOP('',(#185,#186,#187,#188));
#713=EDGE_LOOP('',(#189,#190,#191,#192));
#714=EDGE_LOOP('',(#193));
#715=EDGE_LOOP('',(#194));
#716=EDGE_LOOP('',(#195));
#717=EDGE_LOOP('',(#196));
#718=EDGE_LOOP('',(#197));
#719=EDGE_LOOP('',(#198));
#720=EDGE_LOOP('',(#199));
#721=EDGE_LOOP('',(#200));
#722=EDGE_LOOP('',(#201));
#723=EDGE_LOOP('',(#202));
#724=EDGE_LOOP('',(#203));
#725=EDGE_LOOP('',(#204));
#726=EDGE_LOOP('',(#205));
#727=EDGE_LOOP('',(#206));
#728=EDGE_LOOP('',(#207));
#729=EDGE_LOOP('',(#208,#209,#210,#211,#212,#213,#214,#215));
#730=EDGE_LOOP('',(#216,#217,#218,#219));
#731=EDGE_LOOP('',(#220,#221,#222,#223,#224));
#732=EDGE_LOOP('',(#225));
#733=EDGE_LOOP('',(#226));
#734=EDGE_LOOP('',(#227));
#735=EDGE_LOOP('',(#228));
#736=EDGE_LOOP('',(#229));
#737=EDGE_LOOP('',(#230));
#738=EDGE_LOOP('',(#231));
#739=EDGE_LOOP('',(#232));
#740=EDGE_LOOP('',(#233));
#741=EDGE_LOOP('',(#234));
#742=EDGE_LOOP('',(#235,#236,#237,#238));
#743=EDGE_LOOP('',(#239,#240,#241,#242,#243));
#744=EDGE_LOOP('',(#244));
#745=EDGE_LOOP('',(#245));
#746=EDGE_LOOP('',(#246));
#747=EDGE_LOOP('',(#247));
#748=EDGE_LOOP('',(#248));
#749=EDGE_LOOP('',(#249,#250,#251,#252));
#750=EDGE_LOOP('',(#253,#254,#255,#256));
#751=EDGE_LOOP('',(#257,#258,#259,#260,#261,#262));
#752=EDGE_LOOP('',(#263,#264,#265,#266,#267,#268));
#753=EDGE_LOOP('',(#269,#270,#271,#272,#273,#274));
#754=EDGE_LOOP('',(#275,#276,#277,#278,#279,#280));
#755=EDGE_LOOP('',(#281));
#756=EDGE_LOOP('',(#282));
#757=EDGE_LOOP('',(#283));
#758=EDGE_LOOP('',(#284));
#759=FACE_BOUND('',#675,.T.);
#760=FACE_BOUND('',#676,.T.);
#761=FACE_BOUND('',#677,.T.);
#762=FACE_BOUND('',#678,.T.);
#763=FACE_BOUND('',#679,.T.);
#764=FACE_BOUND('',#680,.T.);
#765=FACE_BOUND('',#681,.T.);
#766=FACE_BOUND('',#682,.T.);
#767=FACE_BOUND('',#683,.T.);
#768=FACE_BOUND('',#684,.T.);
#769=FACE_BOUND('',#685,.T.);
#770=FACE_BOUND('',#686,.T.);
#771=FACE_BOUND('',#687,.T.);
#772=FACE_BOUND('',#688,.T.);
#773=FACE_BOUND('',#689,.T.);
#774=FACE_BOUND('',#690,.T.);
#775=FACE_BOUND('',#691,.T.);
#776=FACE_BOUND('',#692,.T.);
#777=FACE_BOUND('',#693,.T.);
#778=FACE_BOUND('',#694,.T.);
#779=FACE_BOUND('',#695,.T.);
#780=FACE_BOUND('',#696,.T.);
#781=FACE_BOUND('',#697,.T.);
#782=FACE_BOUND('',#698,.T.);
#783=FACE_BOUND('',#699,.T.);
#784=FACE_BOUND('',#700,.T.);
#785=FACE_BOUND('',#701,.T.);
#786=FACE_BOUND('',#702,.T.);
#787=FACE_BOUND('',#703,.T.);
#788=FACE_BOUND('',#704,.T.);
#789=FACE_BOUND('',#705,.T.);
#790=FACE_BOUND('',#706,.T.);
#791=FACE_BOUND('',#707,.T.);
#792=FACE_BOUND('',#708,.T.);
#793=FACE_BOUND('',#709,.T.);
#794=FACE_BOUND('',#710,.T.);
#795=FACE_BOUND('',#711,.T.);
#796=FACE_BOUND('',#712,.T.);
#797=FACE_BOUND('',#713,.T.);
#798=FACE_BOUND('',#714,.T.);
#799=FACE_BOUND('',#715,.T.);
#800=FACE_BOUND('',#716,.T.);
#801=FACE_BOUND('',#717,.T.);
#802=FACE_BOUND('',#718,.T.);
#803=FACE_BOUND('',#719,.T.);
#804=FACE_BOUND('',#720,.T.);
#805=FACE_BOUND('',#721,.T.);
#806=FACE_BOUND('',#722,.T.);
#807=FACE_BOUND('',#723,.T.);
#808=FACE_BOUND('',#724,.T.);
#809=FACE_BOUND('',#725,.T.);
#810=FACE_BOUND('',#726,.T.);
#811=FACE_BOUND('',#727,.T.);
#812=FACE_BOUND('',#728,.T.);
#813=FACE_BOUND('',#729,.T.);
#814=FACE_BOUND('',#730,.T.);
#815=FACE_BOUND('',#731,.T.);
#816=FACE_BOUND('',#732,.T.);
#817=FACE_BOUND('',#733,.T.);
#818=FACE_BOUND('',#734,.T.);
#819=FACE_BOUND('',#735,.T.);
#820=FACE_BOUND('',#736,.T.);
#821=FACE_BOUND('',#737,.T.);
#822=FACE_BOUND('',#738,.T.);
#823=FACE_BOUND('',#739,.T.);
#824=FACE_BOUND('',#740,.T.);
#825=FACE_BOUND('',#741,.T.);
#826=FACE_BOUND('',#742,.T.);
#827=FACE_BOUND('',#743,.T.);
#828=FACE_BOUND('',#744,.T.);
#829=FACE_BOUND('',#745,.T.);
#830=FACE_BOUND('',#746,.T.);
#831=FACE_BOUND('',#747,.T.);
#832=FACE_BOUND('',#748,.T.);
#833=FACE_BOUND('',#749,.T.);
#834=FACE_BOUND('',#750,.T.);
#835=FACE_BOUND('',#751,.T.);
#836=FACE_BOUND('',#752,.T.);
#837=FACE_BOUND('',#753,.T.);
#838=FACE_BOUND('',#754,.T.);
#839=FACE_BOUND('',#755,.T.);
#840=FACE_BOUND('',#756,.T.);
#841=FACE_BOUND('',#757,.T.);
#842=FACE_BOUND('',#758,.T.);
#843=PLANE('',#949);
#844=PLANE('',#950);
#845=PLANE('',#951);
#846=PLANE('',#952);
#847=PLANE('',#953);
#848=PLANE('',#954);
#849=PLANE('',#955);
#850=PLANE('',#956);
#851=PLANE('',#957);
#852=PLANE('',#960);
#853=PLANE('',#961);
#854=PLANE('',#962);
#855=PLANE('',#963);
#856=PLANE('',#964);
#857=PLANE('',#965);
#858=PLANE('',#966);
#859=PLANE('',#967);
#860=PLANE('',#968);
#861=PLANE('',#969);
#862=PLANE('',#970);
#863=PLANE('',#971);
#864=PLANE('',#972);
#865=PLANE('',#979);
#866=PLANE('',#986);
#867=PLANE('',#987);
#868=PLANE('',#988);
#869=PLANE('',#990);
#870=PLANE('',#993);
#871=PLANE('',#995);
#872=PLANE('',#998);
#873=PLANE('',#1004);
#874=PLANE('',#1005);
#875=PLANE('',#1016);
#876=PLANE('',#1017);
#877=PLANE('',#1018);
#878=PLANE('',#1019);
#879=PLANE('',#1020);
#880=PLANE('',#1021);
#881=PLANE('',#1022);
#882=PLANE('',#1023);
#883=ADVANCED_FACE('',(#759),#843,.T.);
#884=ADVANCED_FACE('',(#760),#844,.T.);
#885=ADVANCED_FACE('',(#761),#845,.T.);
#886=ADVANCED_FACE('',(#762),#846,.F.);
#887=ADVANCED_FACE('',(#763),#847,.F.);
#888=ADVANCED_FACE('',(#764),#848,.T.);
#889=ADVANCED_FACE('',(#765),#849,.T.);
#890=ADVANCED_FACE('',(#766),#850,.F.);
#891=ADVANCED_FACE('',(#767,#768,#769),#851,.F.);
#892=ADVANCED_FACE('',(#770),#852,.T.);
#893=ADVANCED_FACE('',(#771),#853,.T.);
#894=ADVANCED_FACE('',(#772),#854,.F.);
#895=ADVANCED_FACE('',(#773),#855,.T.);
#896=ADVANCED_FACE('',(#774),#856,.T.);
#897=ADVANCED_FACE('',(#775),#857,.T.);
#898=ADVANCED_FACE('',(#776),#858,.T.);
#899=ADVANCED_FACE('',(#777),#859,.T.);
#900=ADVANCED_FACE('',(#778),#860,.F.);
#901=ADVANCED_FACE('',(#779),#861,.T.);
#902=ADVANCED_FACE('',(#780),#862,.F.);
#903=ADVANCED_FACE('',(#781),#863,.F.);
#904=ADVANCED_FACE('',(#782),#864,.T.);
#905=ADVANCED_FACE('',(#783,#784),#14,.T.);
#906=ADVANCED_FACE('',(#785,#786),#15,.T.);
#907=ADVANCED_FACE('',(#787,#788,#789,#790,#791),#865,.T.);
#908=ADVANCED_FACE('',(#792,#793),#16,.F.);
#909=ADVANCED_FACE('',(#794,#795),#17,.F.);
#910=ADVANCED_FACE('',(#796),#866,.T.);
#911=ADVANCED_FACE('',(#797),#867,.F.);
#912=ADVANCED_FACE('',(#798,#799),#868,.T.);
#913=ADVANCED_FACE('',(#800),#869,.T.);
#914=ADVANCED_FACE('',(#801,#802),#18,.F.);
#915=ADVANCED_FACE('',(#803,#804),#870,.T.);
#916=ADVANCED_FACE('',(#805),#871,.T.);
#917=ADVANCED_FACE('',(#806,#807),#19,.F.);
#918=ADVANCED_FACE('',(#808,#809,#810,#811,#812,#813),#872,.F.);
#919=ADVANCED_FACE('',(#814),#873,.F.);
#920=ADVANCED_FACE('',(#815),#874,.T.);
#921=ADVANCED_FACE('',(#816,#817),#20,.F.);
#922=ADVANCED_FACE('',(#818,#819),#21,.F.);
#923=ADVANCED_FACE('',(#820,#821),#22,.F.);
#924=ADVANCED_FACE('',(#822,#823),#23,.F.);
#925=ADVANCED_FACE('',(#824,#825),#24,.F.);
#926=ADVANCED_FACE('',(#826),#875,.T.);
#927=ADVANCED_FACE('',(#827),#876,.F.);
#928=ADVANCED_FACE('',(#828,#829,#830,#831,#832,#833),#877,.F.);
#929=ADVANCED_FACE('',(#834),#878,.T.);
#930=ADVANCED_FACE('',(#835),#879,.F.);
#931=ADVANCED_FACE('',(#836),#880,.F.);
#932=ADVANCED_FACE('',(#837),#881,.F.);
#933=ADVANCED_FACE('',(#838),#882,.F.);
#934=ADVANCED_FACE('',(#839,#840),#12,.F.);
#935=ADVANCED_FACE('',(#841,#842),#13,.F.);
#936=CLOSED_SHELL('',(#883,#884,#885,#886,#887,#888,#889,#890,#891,#892,
#893,#894,#895,#896,#897,#898,#899,#900,#901,#902,#903,#904,#905,#906,#907,
#908,#909,#910,#911,#912,#913,#914,#915,#916,#917,#918,#919,#920,#921,#922,
#923,#924,#925,#926,#927,#928,#929,#930,#931,#932,#933,#934,#935));
#937=STYLED_ITEM('',(#938),#945);
#938=PRESENTATION_STYLE_ASSIGNMENT((#939));
#939=SURFACE_STYLE_USAGE(.BOTH.,#940);
#940=SURFACE_SIDE_STYLE('',(#941));
#941=SURFACE_STYLE_FILL_AREA(#942);
#942=FILL_AREA_STYLE('',(#943));
#943=FILL_AREA_STYLE_COLOUR('',#944);
#944=COLOUR_RGB('',0.866666666666667,0.32156862745098,0.156862745098039);
#945=MANIFOLD_SOLID_BREP('Z-BaseMount',#936);
#946=SHAPE_DEFINITION_REPRESENTATION(#1538,#947);
#947=SHAPE_REPRESENTATION('Z-BaseMount',(#948),#1533);
#948=AXIS2_PLACEMENT_3D('',#1276,#1026,#1027);
#949=AXIS2_PLACEMENT_3D('',#1277,#1028,#1029);
#950=AXIS2_PLACEMENT_3D('',#1288,#1035,#1036);
#951=AXIS2_PLACEMENT_3D('',#1294,#1040,#1041);
#952=AXIS2_PLACEMENT_3D('',#1302,#1046,#1047);
#953=AXIS2_PLACEMENT_3D('',#1312,#1053,#1054);
#954=AXIS2_PLACEMENT_3D('',#1325,#1061,#1062);
#955=AXIS2_PLACEMENT_3D('',#1328,#1065,#1066);
#956=AXIS2_PLACEMENT_3D('',#1330,#1068,#1069);
#957=AXIS2_PLACEMENT_3D('',#1332,#1071,#1072);
#958=AXIS2_PLACEMENT_3D('',#1333,#1073,#1074);
#959=AXIS2_PLACEMENT_3D('',#1335,#1075,#1076);
#960=AXIS2_PLACEMENT_3D('',#1348,#1083,#1084);
#961=AXIS2_PLACEMENT_3D('',#1354,#1088,#1089);
#962=AXIS2_PLACEMENT_3D('',#1362,#1094,#1095);
#963=AXIS2_PLACEMENT_3D('',#1375,#1102,#1103);
#964=AXIS2_PLACEMENT_3D('',#1383,#1108,#1109);
#965=AXIS2_PLACEMENT_3D('',#1389,#1113,#1114);
#966=AXIS2_PLACEMENT_3D('',#1394,#1118,#1119);
#967=AXIS2_PLACEMENT_3D('',#1396,#1121,#1122);
#968=AXIS2_PLACEMENT_3D('',#1398,#1124,#1125);
#969=AXIS2_PLACEMENT_3D('',#1404,#1129,#1130);
#970=AXIS2_PLACEMENT_3D('',#1406,#1132,#1133);
#971=AXIS2_PLACEMENT_3D('',#1414,#1138,#1139);
#972=AXIS2_PLACEMENT_3D('',#1420,#1143,#1144);
#973=AXIS2_PLACEMENT_3D('',#1425,#1148,#1149);
#974=AXIS2_PLACEMENT_3D('',#1426,#1150,#1151);
#975=AXIS2_PLACEMENT_3D('',#1428,#1152,#1153);
#976=AXIS2_PLACEMENT_3D('',#1430,#1154,#1155);
#977=AXIS2_PLACEMENT_3D('',#1431,#1156,#1157);
#978=AXIS2_PLACEMENT_3D('',#1433,#1158,#1159);
#979=AXIS2_PLACEMENT_3D('',#1435,#1160,#1161);
#980=AXIS2_PLACEMENT_3D('',#1436,#1162,#1163);
#981=AXIS2_PLACEMENT_3D('',#1438,#1164,#1165);
#982=AXIS2_PLACEMENT_3D('',#1442,#1168,#1169);
#983=AXIS2_PLACEMENT_3D('',#1443,#1170,#1171);
#984=AXIS2_PLACEMENT_3D('',#1445,#1172,#1173);
#985=AXIS2_PLACEMENT_3D('',#1446,#1174,#1175);
#986=AXIS2_PLACEMENT_3D('',#1448,#1176,#1177);
#987=AXIS2_PLACEMENT_3D('',#1449,#1178,#1179);
#988=AXIS2_PLACEMENT_3D('',#1450,#1180,#1181);
#989=AXIS2_PLACEMENT_3D('',#1451,#1182,#1183);
#990=AXIS2_PLACEMENT_3D('',#1453,#1184,#1185);
#991=AXIS2_PLACEMENT_3D('',#1454,#1186,#1187);
#992=AXIS2_PLACEMENT_3D('',#1456,#1188,#1189);
#993=AXIS2_PLACEMENT_3D('',#1457,#1190,#1191);
#994=AXIS2_PLACEMENT_3D('',#1458,#1192,#1193);
#995=AXIS2_PLACEMENT_3D('',#1460,#1194,#1195);
#996=AXIS2_PLACEMENT_3D('',#1461,#1196,#1197);
#997=AXIS2_PLACEMENT_3D('',#1463,#1198,#1199);
#998=AXIS2_PLACEMENT_3D('',#1464,#1200,#1201);
#999=AXIS2_PLACEMENT_3D('',#1465,#1202,#1203);
#1000=AXIS2_PLACEMENT_3D('',#1467,#1204,#1205);
#1001=AXIS2_PLACEMENT_3D('',#1469,#1206,#1207);
#1002=AXIS2_PLACEMENT_3D('',#1471,#1208,#1209);
#1003=AXIS2_PLACEMENT_3D('',#1473,#1210,#1211);
#1004=AXIS2_PLACEMENT_3D('',#1476,#1213,#1214);
#1005=AXIS2_PLACEMENT_3D('',#1478,#1216,#1217);
#1006=AXIS2_PLACEMENT_3D('',#1486,#1222,#1223);
#1007=AXIS2_PLACEMENT_3D('',#1487,#1224,#1225);
#1008=AXIS2_PLACEMENT_3D('',#1489,#1226,#1227);
#1009=AXIS2_PLACEMENT_3D('',#1490,#1228,#1229);
#1010=AXIS2_PLACEMENT_3D('',#1492,#1230,#1231);
#1011=AXIS2_PLACEMENT_3D('',#1493,#1232,#1233);
#1012=AXIS2_PLACEMENT_3D('',#1495,#1234,#1235);
#1013=AXIS2_PLACEMENT_3D('',#1496,#1236,#1237);
#1014=AXIS2_PLACEMENT_3D('',#1498,#1238,#1239);
#1015=AXIS2_PLACEMENT_3D('',#1499,#1240,#1241);
#1016=AXIS2_PLACEMENT_3D('',#1501,#1242,#1243);
#1017=AXIS2_PLACEMENT_3D('',#1505,#1246,#1247);
#1018=AXIS2_PLACEMENT_3D('',#1511,#1251,#1252);
#1019=AXIS2_PLACEMENT_3D('',#1513,#1254,#1255);
#1020=AXIS2_PLACEMENT_3D('',#1522,#1260,#1261);
#1021=AXIS2_PLACEMENT_3D('',#1525,#1264,#1265);
#1022=AXIS2_PLACEMENT_3D('',#1527,#1267,#1268);
#1023=AXIS2_PLACEMENT_3D('',#1529,#1270,#1271);
#1024=AXIS2_PLACEMENT_3D('',#1530,#1272,#1273);
#1025=AXIS2_PLACEMENT_3D('',#1531,#1274,#1275);
#1026=DIRECTION('',(0.,0.,1.));
#1027=DIRECTION('',(1.,0.,0.));
#1028=DIRECTION('',(-0.707106781186547,-0.707106781186549,4.26655559424939E-17));
#1029=DIRECTION('',(0.707106781186549,-0.707106781186547,0.));
#1030=DIRECTION('',(0.,6.03382078600629E-17,1.));
#1031=DIRECTION('',(0.,-6.03382078600628E-17,-1.));
#1032=DIRECTION('',(0.70710678118655,-0.707106781186545,4.26655559424937E-17));
#1033=DIRECTION('',(0.,6.03382078600629E-17,1.));
#1034=DIRECTION('',(0.707106781186549,-0.707106781186547,4.26655559424938E-17));
#1035=DIRECTION('',(-2.25783321344897E-16,-1.,6.03382078600629E-17));
#1036=DIRECTION('',(1.,-2.25783321344897E-16,0.));
#1037=DIRECTION('',(1.,-1.19532346594357E-16,7.2123675748114E-33));
#1038=DIRECTION('',(0.,6.03382078600629E-17,1.));
#1039=DIRECTION('',(1.,-2.25783321344897E-16,1.36233609746438E-32));
#1040=DIRECTION('',(0.707106781186547,-0.707106781186548,4.26655559424939E-17));
#1041=DIRECTION('',(0.707106781186548,0.707106781186547,0.));
#1042=DIRECTION('',(0.707106781186548,0.707106781186547,-4.26655559424938E-17));
#1043=DIRECTION('',(0.,-6.03382078600628E-17,-1.));
#1044=DIRECTION('',(0.,6.03382078600629E-17,1.));
#1045=DIRECTION('',(0.707106781186548,0.707106781186547,-4.26655559424938E-17));
#1046=DIRECTION('',(1.,0.,0.));
#1047=DIRECTION('',(0.,0.,-1.));
#1048=DIRECTION('',(0.,1.,-6.03382078600629E-17));
#1049=DIRECTION('',(0.,0.,1.));
#1050=DIRECTION('',(0.,-1.,6.03382078600629E-17));
#1051=DIRECTION('',(0.,-6.03382078600629E-17,-1.));
#1052=DIRECTION('',(0.,1.,-6.03382078600629E-17));
#1053=DIRECTION('',(0.,-1.,6.03382078600629E-17));
#1054=DIRECTION('',(0.,-6.03382078600629E-17,-1.));
#1055=DIRECTION('',(1.,0.,0.));
#1056=DIRECTION('',(0.,6.03382078600629E-17,1.));
#1057=DIRECTION('',(1.,0.,0.));
#1058=DIRECTION('',(0.,-6.03382078600629E-17,-1.));
#1059=DIRECTION('',(1.,0.,0.));
#1060=DIRECTION('',(0.,6.03382078600629E-17,1.));
#1061=DIRECTION('',(1.,0.,0.));
#1062=DIRECTION('',(0.,0.,-1.));
#1063=DIRECTION('',(0.,1.,-6.03382078600629E-17));
#1064=DIRECTION('',(0.,1.,-6.03382078600629E-17));
#1065=DIRECTION('',(0.,-6.03382078600629E-17,-1.));
#1066=DIRECTION('',(1.,0.,0.));
#1067=DIRECTION('',(-0.707106781186548,-0.707106781186547,4.26655559424938E-17));
#1068=DIRECTION('',(0.707106781186547,-0.707106781186548,4.26655559424939E-17));
#1069=DIRECTION('',(0.,6.03382078600629E-17,1.));
#1070=DIRECTION('',(-0.707106781186548,-0.707106781186547,4.26655559424938E-17));
#1071=DIRECTION('',(0.,6.03382078600629E-17,1.));
#1072=DIRECTION('',(1.,0.,0.));
#1073=DIRECTION('',(0.,6.03382078600629E-17,1.));
#1074=DIRECTION('',(0.,-1.,6.03382078600629E-17));
#1075=DIRECTION('',(0.,6.03382078600629E-17,1.));
#1076=DIRECTION('',(0.,-1.,6.03382078600629E-17));
#1077=DIRECTION('',(0.,1.,-6.03382078600629E-17));
#1078=DIRECTION('',(-0.707106781186548,0.707106781186547,-4.26655559424938E-17));
#1079=DIRECTION('',(0.,-1.,6.03382078600629E-17));
#1080=DIRECTION('',(-0.707106781186548,-0.707106781186547,4.26655559424938E-17));
#1081=DIRECTION('',(1.,0.,0.));
#1082=DIRECTION('',(0.,1.,-6.03382078600629E-17));
#1083=DIRECTION('',(1.,0.,0.));
#1084=DIRECTION('',(0.,0.,-1.));
#1085=DIRECTION('',(0.,6.03382078600629E-17,1.));
#1086=DIRECTION('',(0.,1.,-6.03382078600629E-17));
#1087=DIRECTION('',(0.,6.03382078600629E-17,1.));
#1088=DIRECTION('',(0.,-1.,6.03382078600629E-17));
#1089=DIRECTION('',(0.,-6.03382078600629E-17,-1.));
#1090=DIRECTION('',(0.,6.03382078600629E-17,1.));
#1091=DIRECTION('',(1.,0.,0.));
#1092=DIRECTION('',(0.,-6.03382078600629E-17,-1.));
#1093=DIRECTION('',(1.,0.,0.));
#1094=DIRECTION('',(1.,0.,0.));
#1095=DIRECTION('',(0.,0.,-1.));
#1096=DIRECTION('',(0.,1.,-6.03382078600629E-17));
#1097=DIRECTION('',(0.,6.03382078600629E-17,1.));
#1098=DIRECTION('',(0.,-1.,6.03382078600629E-17));
#1099=DIRECTION('',(0.,0.,-1.));
#1100=DIRECTION('',(0.,-1.,6.03382078600629E-17));
#1101=DIRECTION('',(0.,6.03382078600629E-17,1.));
#1102=DIRECTION('',(0.707106781186547,0.707106781186548,-4.26655559424939E-17));
#1103=DIRECTION('',(-0.707106781186548,0.707106781186547,0.));
#1104=DIRECTION('',(0.,-6.03382078600628E-17,-1.));
#1105=DIRECTION('',(-0.707106781186549,0.707106781186547,-4.26655559424938E-17));
#1106=DIRECTION('',(0.,6.03382078600629E-17,1.));
#1107=DIRECTION('',(-0.707106781186548,0.707106781186547,-4.26655559424938E-17));
#1108=DIRECTION('',(0.,1.,-6.03382078600629E-17));
#1109=DIRECTION('',(0.,6.03382078600629E-17,1.));
#1110=DIRECTION('',(-1.,0.,0.));
#1111=DIRECTION('',(0.,6.03382078600629E-17,1.));
#1112=DIRECTION('',(-1.,0.,0.));
#1113=DIRECTION('',(-0.707106781186544,0.707106781186552,-4.26655559424941E-17));
#1114=DIRECTION('',(-0.707106781186552,-0.707106781186544,0.));
#1115=DIRECTION('',(-0.70710678118655,-0.707106781186546,4.26655559424938E-17));
#1116=DIRECTION('',(0.,-6.03382078600628E-17,-1.));
#1117=DIRECTION('',(-0.707106781186552,-0.707106781186544,4.26655559424936E-17));
#1118=DIRECTION('',(0.,-6.03382078600629E-17,-1.));
#1119=DIRECTION('',(1.,0.,0.));
#1120=DIRECTION('',(-0.707106781186548,0.707106781186547,-4.26655559424938E-17));
#1121=DIRECTION('',(-0.707106781186547,-0.707106781186548,4.26655559424939E-17));
#1122=DIRECTION('',(0.,-6.03382078600629E-17,-1.));
#1123=DIRECTION('',(-0.707106781186549,0.707106781186546,-4.26655559424938E-17));
#1124=DIRECTION('',(-1.,0.,0.));
#1125=DIRECTION('',(0.,0.,1.));
#1126=DIRECTION('',(0.,-1.,6.03382078600629E-17));
#1127=DIRECTION('',(0.,-6.03382078600629E-17,-1.));
#1128=DIRECTION('',(0.,6.03382078600629E-17,1.));
#1129=DIRECTION('',(-1.,0.,0.));
#1130=DIRECTION('',(0.,0.,1.));
#1131=DIRECTION('',(0.,-1.,6.03382078600629E-17));
#1132=DIRECTION('',(0.,-1.,6.03382078600629E-17));
#1133=DIRECTION('',(0.,-6.03382078600629E-17,-1.));
#1134=DIRECTION('',(-1.,-1.0842021724855E-16,6.54188160457621E-33));
#1135=DIRECTION('',(0.,6.03382078600629E-17,1.));
#1136=DIRECTION('',(1.,0.,0.));
#1137=DIRECTION('',(0.,6.03382078600629E-17,1.));
#1138=DIRECTION('',(-1.,0.,0.));
#1139=DIRECTION('',(0.,0.,1.));
#1140=DIRECTION('',(0.,1.,-6.03382078600629E-17));
#1141=DIRECTION('',(0.,6.03382078600629E-17,1.));
#1142=DIRECTION('',(0.,-1.,6.03382078600629E-17));
#1143=DIRECTION('',(0.,-1.,6.03382078600629E-17));
#1144=DIRECTION('',(0.,-6.03382078600629E-17,-1.));
#1145=DIRECTION('',(-1.,0.,0.));
#1146=DIRECTION('',(0.,6.03382078600629E-17,1.));
#1147=DIRECTION('',(1.,0.,0.));
#1148=DIRECTION('',(0.,6.03382078600629E-17,1.));
#1149=DIRECTION('',(0.,-1.,6.03382078600629E-17));
#1150=DIRECTION('',(0.,6.03382078600629E-17,1.));
#1151=DIRECTION('',(0.,-1.,6.03382078600629E-17));
#1152=DIRECTION('',(0.,6.03382078600629E-17,1.));
#1153=DIRECTION('',(0.,-1.,6.03382078600629E-17));
#1154=DIRECTION('',(0.,6.03382078600629E-17,1.));
#1155=DIRECTION('',(0.,-1.,6.03382078600629E-17));
#1156=DIRECTION('',(0.,6.03382078600629E-17,1.));
#1157=DIRECTION('',(0.,-1.,6.03382078600629E-17));
#1158=DIRECTION('',(0.,6.03382078600629E-17,1.));
#1159=DIRECTION('',(0.,-1.,6.03382078600629E-17));
#1160=DIRECTION('',(0.,6.03382078600629E-17,1.));
#1161=DIRECTION('',(1.,0.,0.));
#1162=DIRECTION('',(0.,6.03382078600629E-17,1.));
#1163=DIRECTION('',(0.,-1.,6.03382078600629E-17));
#1164=DIRECTION('',(0.,6.03382078600629E-17,1.));
#1165=DIRECTION('',(0.,-1.,6.03382078600629E-17));
#1166=DIRECTION('',(0.707106781186548,0.707106781186547,-4.26655559424938E-17));
#1167=DIRECTION('',(0.707106781186548,-0.707106781186547,4.26655559424938E-17));
#1168=DIRECTION('',(0.,6.03382078600628E-17,1.));
#1169=DIRECTION('',(0.,-1.,6.03382078600629E-17));
#1170=DIRECTION('',(0.,0.,1.));
#1171=DIRECTION('',(1.,0.,0.));
#1172=DIRECTION('',(0.,6.03382078600628E-17,1.));
#1173=DIRECTION('',(0.,-1.,6.03382078600629E-17));
#1174=DIRECTION('',(0.,0.,1.));
#1175=DIRECTION('',(1.,0.,0.));
#1176=DIRECTION('',(0.707106781186547,-0.707106781186548,4.26655559424939E-17));
#1177=DIRECTION('',(0.,-6.03382078600629E-17,-1.));
#1178=DIRECTION('',(-0.707106781186547,-0.707106781186548,4.26655559424939E-17));
#1179=DIRECTION('',(0.,6.03382078600629E-17,1.));
#1180=DIRECTION('',(0.,6.03382078600629E-17,1.));
#1181=DIRECTION('',(1.,0.,0.));
#1182=DIRECTION('',(0.,6.03382078600629E-17,1.));
#1183=DIRECTION('',(0.,-1.,6.03382078600629E-17));
#1184=DIRECTION('',(0.,6.03382078600629E-17,1.));
#1185=DIRECTION('',(1.,0.,0.));
#1186=DIRECTION('',(0.,6.03382078600629E-17,1.));
#1187=DIRECTION('',(0.,-1.,6.03382078600629E-17));
#1188=DIRECTION('',(0.,6.03382078600629E-17,1.));
#1189=DIRECTION('',(0.,-1.,6.03382078600629E-17));
#1190=DIRECTION('',(0.,6.03382078600629E-17,1.));
#1191=DIRECTION('',(1.,0.,0.));
#1192=DIRECTION('',(0.,6.03382078600629E-17,1.));
#1193=DIRECTION('',(0.,-1.,6.03382078600629E-17));
#1194=DIRECTION('',(0.,6.03382078600629E-17,1.));
#1195=DIRECTION('',(1.,0.,0.));
#1196=DIRECTION('',(0.,6.03382078600629E-17,1.));
#1197=DIRECTION('',(0.,-1.,6.03382078600629E-17));
#1198=DIRECTION('',(0.,6.03382078600629E-17,1.));
#1199=DIRECTION('',(0.,-1.,6.03382078600629E-17));
#1200=DIRECTION('',(0.,6.03382078600629E-17,1.));
#1201=DIRECTION('',(1.,0.,0.));
#1202=DIRECTION('',(0.,6.03382078600629E-17,1.));
#1203=DIRECTION('',(0.,-1.,6.03382078600629E-17));
#1204=DIRECTION('',(0.,6.03382078600629E-17,1.));
#1205=DIRECTION('',(0.,-1.,6.03382078600629E-17));
#1206=DIRECTION('',(0.,6.03382078600629E-17,1.));
#1207=DIRECTION('',(0.,-1.,6.03382078600629E-17));
#1208=DIRECTION('',(0.,6.03382078600629E-17,1.));
#1209=DIRECTION('',(0.,-1.,6.03382078600629E-17));
#1210=DIRECTION('',(0.,6.03382078600629E-17,1.));
#1211=DIRECTION('',(0.,-1.,6.03382078600629E-17));
#1212=DIRECTION('',(0.,-1.,6.03382078600629E-17));
#1213=DIRECTION('',(-1.,0.,0.));
#1214=DIRECTION('',(0.,-1.,0.));
#1215=DIRECTION('',(0.,1.,-5.78241158658936E-17));
#1216=DIRECTION('',(-9.38946624210725E-17,0.866025403784439,0.5));
#1217=DIRECTION('',(1.,1.0842021724855E-16,-6.54188160457621E-33));
#1218=DIRECTION('',(0.447213595499958,0.447213595499957,-0.774596669241485));
#1219=DIRECTION('',(-0.654653670707978,0.377964473009226,-0.654653670707977));
#1220=DIRECTION('',(1.,0.,0.));
#1221=DIRECTION('',(0.447213595499958,0.447213595499958,-0.774596669241483));
#1222=DIRECTION('',(0.,-6.03382078600629E-17,-1.));
#1223=DIRECTION('',(0.,1.,-6.03382078600629E-17));
#1224=DIRECTION('',(0.,0.,-1.));
#1225=DIRECTION('',(-1.,0.,0.));
#1226=DIRECTION('',(0.,-6.03382078600629E-17,-1.));
#1227=DIRECTION('',(0.,1.,-6.03382078600629E-17));
#1228=DIRECTION('',(0.,0.,-1.));
#1229=DIRECTION('',(-1.,0.,0.));
#1230=DIRECTION('',(0.,-6.03382078600629E-17,-1.));
#1231=DIRECTION('',(0.,1.,-6.03382078600629E-17));
#1232=DIRECTION('',(0.,0.,-1.));
#1233=DIRECTION('',(-1.,0.,0.));
#1234=DIRECTION('',(0.,-6.03382078600629E-17,-1.));
#1235=DIRECTION('',(0.,1.,-6.03382078600629E-17));
#1236=DIRECTION('',(0.,0.,-1.));
#1237=DIRECTION('',(-1.,0.,0.));
#1238=DIRECTION('',(0.,-6.03382078600629E-17,-1.));
#1239=DIRECTION('',(0.,1.,-6.03382078600629E-17));
#1240=DIRECTION('',(0.,0.,-1.));
#1241=DIRECTION('',(-1.,0.,0.));
#1242=DIRECTION('',(0.866025403784439,3.01691039300314E-17,0.5));
#1243=DIRECTION('',(0.,-1.,6.03382078600629E-17));
#1244=DIRECTION('',(-3.48362805504269E-17,1.,0.));
#1245=DIRECTION('',(-0.447213595499959,0.447213595499958,0.774596669241483));
#1246=DIRECTION('',(0.,0.866025403784439,-0.5));
#1247=DIRECTION('',(-1.,0.,0.));
#1248=DIRECTION('',(1.,0.,0.));
#1249=DIRECTION('',(0.654653670707978,0.377964473009227,0.654653670707977));
#1250=DIRECTION('',(-0.447213595499959,0.447213595499958,0.774596669241483));
#1251=DIRECTION('',(0.,0.,-1.));
#1252=DIRECTION('',(-1.,0.,0.));
#1253=DIRECTION('',(0.,1.,0.));
#1254=DIRECTION('',(-1.,0.,0.));
#1255=DIRECTION('',(0.,-1.,0.));
#1256=DIRECTION('',(0.,0.,1.));
#1257=DIRECTION('',(0.,1.,-6.26466578345044E-17));
#1258=DIRECTION('',(0.,0.,-1.));
#1259=DIRECTION('',(0.,-1.,5.78241158658936E-17));
#1260=DIRECTION('',(0.707106781186547,4.088782444489E-17,0.707106781186548));
#1261=DIRECTION('',(0.,1.,-5.78241158658936E-17));
#1262=DIRECTION('',(0.577350269189626,-0.577350269189625,-0.577350269189626));
#1263=DIRECTION('',(0.577350269189626,0.577350269189625,-0.577350269189626));
#1264=DIRECTION('',(0.707106781186547,-0.707106781186548,0.));
#1265=DIRECTION('',(0.,0.,1.));
#1266=DIRECTION('',(0.577350269189626,0.577350269189625,0.577350269189626));
#1267=DIRECTION('',(0.707106781186547,0.707106781186548,0.));
#1268=DIRECTION('',(0.,0.,-1.));
#1269=DIRECTION('',(0.577350269189626,-0.577350269189625,0.577350269189626));
#1270=DIRECTION('',(0.707106781186547,-4.42978765734514E-17,-0.707106781186548));
#1271=DIRECTION('',(0.,-1.,6.26466578345044E-17));
#1272=DIRECTION('',(0.,0.,1.));
#1273=DIRECTION('',(1.,0.,0.));
#1274=DIRECTION('',(0.,0.,1.));
#1275=DIRECTION('',(1.,0.,0.));
#1276=CARTESIAN_POINT('',(0.,0.,0.));
#1277=CARTESIAN_POINT('',(0.160693508442536,0.000238329701443641,0.00640142588316314));
#1278=CARTESIAN_POINT('',(0.163105178741093,-0.00217334059711287,0.00640142588316314));
#1279=CARTESIAN_POINT('',(0.163105178741093,-0.00217334059711287,0.00640142588316314));
#1280=CARTESIAN_POINT('',(0.163105178741093,-0.00217334059711287,0.0264014258831631));
#1281=CARTESIAN_POINT('',(0.163105178741093,-0.00217334059711282,0.877269922588015));
#1282=CARTESIAN_POINT('',(0.163105178741093,-0.00217334059711286,0.0464014258831634));
#1283=CARTESIAN_POINT('',(0.0698602670955164,0.0910715710484632,0.0464014258831631));
#1284=CARTESIAN_POINT('',(0.15828183814398,0.00265000000000015,0.0464014258831634));
#1285=CARTESIAN_POINT('',(0.15828183814398,0.00265000000000015,0.00640142588316314));
#1286=CARTESIAN_POINT('',(0.15828183814398,0.00265000000000015,0.00640142588316314));
#1287=CARTESIAN_POINT('',(0.160693508442536,0.000238329701443641,0.00640142588316314));
#1288=CARTESIAN_POINT('',(0.141955178741093,0.00265000000000015,0.00640142588316314));
#1289=CARTESIAN_POINT('',(-0.0397113039529461,0.00265000000000018,0.0464014258831631));
#1290=CARTESIAN_POINT('',(0.125628519338206,0.00265000000000015,0.0464014258831634));
#1291=CARTESIAN_POINT('',(0.125628519338206,0.00265000000000016,0.00640142588316314));
#1292=CARTESIAN_POINT('',(0.125628519338206,0.00265000000000016,0.00640142588316314));
#1293=CARTESIAN_POINT('',(0.141955178741093,0.00265000000000015,0.00640142588316314));
#1294=CARTESIAN_POINT('',(0.123216849039649,0.000238329701443664,0.00640142588316314));
#1295=CARTESIAN_POINT('',(0.0323836076926299,-0.0905949116455759,0.0464014258831632));
#1296=CARTESIAN_POINT('',(0.120805178741093,-0.00217334059711285,0.0464014258831634));
#1297=CARTESIAN_POINT('',(0.120805178741093,-0.0021733405971128,0.877269922588015));
#1298=CARTESIAN_POINT('',(0.120805178741093,-0.00217334059711284,0.0264014258831631));
#1299=CARTESIAN_POINT('',(0.120805178741093,-0.00217334059711285,0.00640142588316314));
#1300=CARTESIAN_POINT('',(0.120805178741093,-0.00217334059711285,0.00640142588316314));
#1301=CARTESIAN_POINT('',(0.123216849039649,0.000238329701443664,0.00640142588316314));
#1302=CARTESIAN_POINT('',(0.120805178741093,0.0296633297014437,0.00640142588316314));
#1303=CARTESIAN_POINT('',(0.120805178741093,0.0296633297014437,0.0264014258831631));
#1304=CARTESIAN_POINT('',(0.120805178741093,0.0116500000000001,0.0264014258831631));
#1305=CARTESIAN_POINT('',(0.120805178741093,0.0116500000000001,0.0364014258831631));
#1306=CARTESIAN_POINT('',(0.120805178741093,0.0116500000000001,0.0344014258831632));
#1307=CARTESIAN_POINT('',(0.120805178741093,-0.0185,0.0344014258831632));
#1308=CARTESIAN_POINT('',(0.120805178741093,0.0535,0.0344014258831632));
#1309=CARTESIAN_POINT('',(0.120805178741093,0.0535,0.00640142588316314));
#1310=CARTESIAN_POINT('',(0.120805178741093,0.0535,0.00640142588316314));
#1311=CARTESIAN_POINT('',(0.120805178741093,0.0296633297014437,0.00640142588316314));
#1312=CARTESIAN_POINT('',(0.141955178741093,0.0615,0.00640142588316314));
#1313=CARTESIAN_POINT('',(0.141955178741093,0.0615,0.00640142588316314));
#1314=CARTESIAN_POINT('',(0.128805178741093,0.0615,0.00640142588316314));
#1315=CARTESIAN_POINT('',(0.163105178741093,0.0615,0.00640142588316314));
#1316=CARTESIAN_POINT('',(0.128805178741093,0.0615,0.00640142588316314));
#1317=CARTESIAN_POINT('',(0.128805178741093,0.0615,0.0344014258831632));
#1318=CARTESIAN_POINT('',(0.151934351572724,0.0615,0.0344014258831632));
#1319=CARTESIAN_POINT('',(0.175063524404355,0.0615,0.0344014258831632));
#1320=CARTESIAN_POINT('',(0.175063524404355,0.0615,0.0264014258831631));
#1321=CARTESIAN_POINT('',(0.175063524404355,0.0615,0.0264014258831631));
#1322=CARTESIAN_POINT('',(0.151934351572724,0.0615,0.0264014258831631));
#1323=CARTESIAN_POINT('',(0.163105178741093,0.0615,0.0264014258831631));
#1324=CARTESIAN_POINT('',(0.163105178741093,0.0615,0.00640142588316314));
#1325=CARTESIAN_POINT('',(0.163105178741093,0.0296633297014437,0.00640142588316314));
#1326=CARTESIAN_POINT('',(0.163105178741093,0.0296633297014437,0.0264014258831631));
#1327=CARTESIAN_POINT('',(0.163105178741093,0.0296633297014437,0.00640142588316314));
#1328=CARTESIAN_POINT('',(-0.049690476784577,-0.0185,0.00640142588316314));
#1329=CARTESIAN_POINT('',(-0.000442649021742042,-0.0677478277628349,0.00640142588316314));
#1330=CARTESIAN_POINT('',(0.128805178741093,0.0615,0.00640142588316314));
#1331=CARTESIAN_POINT('',(0.100369765156908,0.0330645864158157,0.0344014258831632));
#1332=CARTESIAN_POINT('',(-0.0397113039529461,-0.0185,0.0264014258831631));
#1333=CARTESIAN_POINT('',(0.173139499088135,0.03165,0.0264014258831631));
#1334=CARTESIAN_POINT('',(0.173139499088135,0.029,0.0264014258831631));
#1335=CARTESIAN_POINT('',(0.173139499088135,-0.06835,0.0264014258831631));
#1336=CARTESIAN_POINT('',(0.173139499088135,-0.071,0.0264014258831631));
#1337=CARTESIAN_POINT('',(0.163105178741093,-0.0185,0.0264014258831631));
#1338=CARTESIAN_POINT('',(0.163105178741093,-0.0348266594028869,0.0264014258831631));
#1339=CARTESIAN_POINT('',(0.183063524404355,0.0535,0.0264014258831631));
#1340=CARTESIAN_POINT('',(0.183063524404355,0.0535,0.0264014258831631));
#1341=CARTESIAN_POINT('',(0.183063524404355,-0.0185,0.0264014258831631));
#1342=CARTESIAN_POINT('',(0.183063524404355,-0.0905,0.0264014258831631));
#1343=CARTESIAN_POINT('',(0.175063524404355,-0.0985,0.0264014258831631));
#1344=CARTESIAN_POINT('',(0.175063524404355,-0.0985,0.0264014258831631));
#1345=CARTESIAN_POINT('',(0.151934351572724,-0.0985,0.0264014258831631));
#1346=CARTESIAN_POINT('',(0.163105178741093,-0.0985,0.0264014258831631));
#1347=CARTESIAN_POINT('',(0.163105178741093,-0.0666633297014434,0.0264014258831631));
#1348=CARTESIAN_POINT('',(0.163105178741093,-0.0666633297014434,0.00640142588316315));
#1349=CARTESIAN_POINT('',(0.163105178741093,-0.0985,0.00640142588316315));
#1350=CARTESIAN_POINT('',(0.163105178741093,-0.0985,0.00640142588316315));
#1351=CARTESIAN_POINT('',(0.163105178741093,-0.0666633297014434,0.00640142588316315));
#1352=CARTESIAN_POINT('',(0.163105178741093,-0.0348266594028869,0.00640142588316314));
#1353=CARTESIAN_POINT('',(0.163105178741093,-0.0348266594028869,0.00640142588316314));
#1354=CARTESIAN_POINT('',(0.141955178741093,-0.0985,0.00640142588316315));
#1355=CARTESIAN_POINT('',(0.175063524404355,-0.0985,0.0344014258831632));
#1356=CARTESIAN_POINT('',(0.175063524404355,-0.0985,0.0344014258831632));
#1357=CARTESIAN_POINT('',(0.151934351572724,-0.0985,0.0344014258831632));
#1358=CARTESIAN_POINT('',(0.128805178741093,-0.0985,0.0344014258831632));
#1359=CARTESIAN_POINT('',(0.128805178741093,-0.0985,0.00640142588316315));
#1360=CARTESIAN_POINT('',(0.128805178741093,-0.0985,0.00640142588316315));
#1361=CARTESIAN_POINT('',(0.141955178741093,-0.0985,0.00640142588316315));
#1362=CARTESIAN_POINT('',(0.120805178741093,-0.0666633297014434,0.00640142588316315));
#1363=CARTESIAN_POINT('',(0.120805178741093,-0.0666633297014434,0.00640142588316315));
#1364=CARTESIAN_POINT('',(0.120805178741093,-0.0905,0.00640142588316315));
#1365=CARTESIAN_POINT('',(0.120805178741093,-0.0348266594028869,0.00640142588316314));
#1366=CARTESIAN_POINT('',(0.120805178741093,-0.0905,0.0264014258831631));
#1367=CARTESIAN_POINT('',(0.120805178741093,-0.0905,0.0344014258831632));
#1368=CARTESIAN_POINT('',(0.120805178741093,-0.0185,0.0344014258831632));
#1369=CARTESIAN_POINT('',(0.120805178741093,-0.04835,0.0344014258831632));
#1370=CARTESIAN_POINT('',(0.120805178741093,-0.04835,0.0364014258831631));
#1371=CARTESIAN_POINT('',(0.120805178741093,-0.04835,0.0264014258831631));
#1372=CARTESIAN_POINT('',(0.120805178741093,-0.0185,0.0264014258831631));
#1373=CARTESIAN_POINT('',(0.120805178741093,-0.0348266594028869,0.0264014258831631));
#1374=CARTESIAN_POINT('',(0.120805178741093,-0.0348266594028869,0.00640142588316314));
#1375=CARTESIAN_POINT('',(0.123216849039649,-0.0372383297014434,0.00640142588316314));
#1376=CARTESIAN_POINT('',(0.120805178741093,-0.0348266594028868,0.877269922588015));
#1377=CARTESIAN_POINT('',(0.120805178741093,-0.0348266594028869,0.0464014258831634));
#1378=CARTESIAN_POINT('',(0.0323836076926298,0.0535949116455762,0.0464014258831631));
#1379=CARTESIAN_POINT('',(0.125628519338206,-0.03965,0.0464014258831632));
#1380=CARTESIAN_POINT('',(0.125628519338206,-0.03965,0.00640142588316314));
#1381=CARTESIAN_POINT('',(0.125628519338206,-0.03965,0.00640142588316314));
#1382=CARTESIAN_POINT('',(0.123216849039649,-0.0372383297014434,0.00640142588316314));
#1383=CARTESIAN_POINT('',(0.141955178741093,-0.03965,0.00640142588316314));
#1384=CARTESIAN_POINT('',(-0.0397113039529461,-0.03965,0.0464014258831631));
#1385=CARTESIAN_POINT('',(0.15828183814398,-0.03965,0.0464014258831634));
#1386=CARTESIAN_POINT('',(0.15828183814398,-0.03965,0.00640142588316314));
#1387=CARTESIAN_POINT('',(0.15828183814398,-0.03965,0.00640142588316314));
#1388=CARTESIAN_POINT('',(0.141955178741093,-0.03965,0.00640142588316314));
#1389=CARTESIAN_POINT('',(0.160693508442536,-0.0372383297014434,0.00640142588316314));
#1390=CARTESIAN_POINT('',(0.0698602670955164,-0.128071571048463,0.0464014258831632));
#1391=CARTESIAN_POINT('',(0.163105178741093,-0.0348266594028869,0.0464014258831634));
#1392=CARTESIAN_POINT('',(0.163105178741093,-0.0348266594028868,0.877269922588015));
#1393=CARTESIAN_POINT('',(0.160693508442536,-0.0372383297014434,0.00640142588316314));
#1394=CARTESIAN_POINT('',(-0.049690476784577,-0.0185,0.00640142588316314));
#1395=CARTESIAN_POINT('',(-0.000442649021742076,0.0307478277628351,0.00640142588316314));
#1396=CARTESIAN_POINT('',(0.120805178741093,-0.0905,0.00640142588316315));
#1397=CARTESIAN_POINT('',(0.100369765156909,-0.0700645864158155,0.0344014258831632));
#1398=CARTESIAN_POINT('',(0.183063524404355,-0.0185,0.0264014258831631));
#1399=CARTESIAN_POINT('',(0.183063524404355,-0.0185,0.0344014258831632));
#1400=CARTESIAN_POINT('',(0.183063524404355,0.0535,0.0344014258831632));
#1401=CARTESIAN_POINT('',(0.183063524404355,-0.0905,0.0344014258831632));
#1402=CARTESIAN_POINT('',(0.183063524404355,-0.0905,0.0264014258831631));
#1403=CARTESIAN_POINT('',(0.183063524404355,0.0535,0.0264014258831631));
#1404=CARTESIAN_POINT('',(0.163105178741093,-0.0185,0.877269922588015));
#1405=CARTESIAN_POINT('',(0.163105178741093,-0.0185,0.0464014258831631));
#1406=CARTESIAN_POINT('',(0.144805178741093,0.0116500000000001,0.0344014258831632));
#1407=CARTESIAN_POINT('',(0.144805178741093,0.0116500000000002,0.0464014258831631));
#1408=CARTESIAN_POINT('',(0.168805178741093,0.0116500000000001,0.0464014258831631));
#1409=CARTESIAN_POINT('',(0.120805178741093,0.0116500000000001,0.0464014258831631));
#1410=CARTESIAN_POINT('',(0.168805178741093,0.0116500000000001,0.0344014258831632));
#1411=CARTESIAN_POINT('',(0.168805178741093,0.0116500000000001,0.0344014258831632));
#1412=CARTESIAN_POINT('',(0.144805178741093,0.0116500000000001,0.0344014258831632));
#1413=CARTESIAN_POINT('',(0.120805178741093,0.0116500000000001,0.0344014258831632));
#1414=CARTESIAN_POINT('',(0.168805178741093,-0.01835,0.0344014258831632));
#1415=CARTESIAN_POINT('',(0.168805178741093,-0.01835,0.0464014258831631));
#1416=CARTESIAN_POINT('',(0.168805178741093,-0.04835,0.0464014258831631));
#1417=CARTESIAN_POINT('',(0.168805178741093,-0.04835,0.0344014258831632));
#1418=CARTESIAN_POINT('',(0.168805178741093,-0.04835,0.0344014258831632));
#1419=CARTESIAN_POINT('',(0.168805178741093,-0.01835,0.0344014258831632));
#1420=CARTESIAN_POINT('',(0.144805178741093,-0.04835,0.0344014258831632));
#1421=CARTESIAN_POINT('',(0.144805178741093,-0.04835,0.0464014258831631));
#1422=CARTESIAN_POINT('',(0.120805178741093,-0.04835,0.0464014258831631));
#1423=CARTESIAN_POINT('',(0.120805178741093,-0.04835,0.0344014258831632));
#1424=CARTESIAN_POINT('',(0.144805178741093,-0.04835,0.0344014258831632));
#1425=CARTESIAN_POINT('',(0.141955178741093,-0.0735,0.0344014258831632));
#1426=CARTESIAN_POINT('',(0.141955178741093,-0.0735,0.0344014258831632));
#1427=CARTESIAN_POINT('',(0.141955178741093,-0.0865,0.0344014258831632));
#1428=CARTESIAN_POINT('',(0.141955178741093,-0.0735,0.0514014258831632));
#1429=CARTESIAN_POINT('',(0.141955178741093,-0.0865,0.0514014258831632));
#1430=CARTESIAN_POINT('',(0.141955178741093,0.0365,0.0344014258831632));
#1431=CARTESIAN_POINT('',(0.141955178741093,0.0365,0.0344014258831632));
#1432=CARTESIAN_POINT('',(0.141955178741093,0.0235,0.0344014258831632));
#1433=CARTESIAN_POINT('',(0.141955178741093,0.0365,0.0514014258831631));
#1434=CARTESIAN_POINT('',(0.141955178741093,0.0235,0.0514014258831631));
#1435=CARTESIAN_POINT('',(0.151934351572724,-0.0185,0.0344014258831632));
#1436=CARTESIAN_POINT('',(0.173139499088135,-0.06835,0.0344014258831632));
#1437=CARTESIAN_POINT('',(0.173139499088135,-0.073,0.0344014258831632));
#1438=CARTESIAN_POINT('',(0.173139499088135,0.03165,0.0344014258831632));
#1439=CARTESIAN_POINT('',(0.173139499088135,0.027,0.0344014258831632));
#1440=CARTESIAN_POINT('',(0.20349893798854,-0.0700645864158154,0.0344014258831632));
#1441=CARTESIAN_POINT('',(0.20349893798854,0.0330645864158156,0.0344014258831632));
#1442=CARTESIAN_POINT('',(0.173139499088135,-0.06835,-0.816467070821689));
#1443=CARTESIAN_POINT('',(0.173139499088135,-0.06835,0.0324014258831632));
#1444=CARTESIAN_POINT('',(0.175789499088135,-0.06835,0.0324014258831632));
#1445=CARTESIAN_POINT('',(0.173139499088135,0.03165,-0.816467070821689));
#1446=CARTESIAN_POINT('',(0.173139499088135,0.03165,0.0324014258831632));
#1447=CARTESIAN_POINT('',(0.175789499088135,0.03165,0.0324014258831632));
#1448=CARTESIAN_POINT('',(0.175063524404355,-0.0985,0.0264014258831631));
#1449=CARTESIAN_POINT('',(0.183063524404355,0.0535,0.0264014258831631));
#1450=CARTESIAN_POINT('',(-0.0397113039529461,-0.0185,0.0514014258831631));
#1451=CARTESIAN_POINT('',(0.141955178741093,0.0365,0.0514014258831631));
#1452=CARTESIAN_POINT('',(0.141955178741093,0.0305,0.0514014258831631));
#1453=CARTESIAN_POINT('',(0.151934351572724,-0.0185,0.0344014258831632));
#1454=CARTESIAN_POINT('',(0.141955178741093,0.0365,0.0344014258831632));
#1455=CARTESIAN_POINT('',(0.141955178741093,0.0305,0.0344014258831632));
#1456=CARTESIAN_POINT('',(0.141955178741093,0.0365,0.0344014258831632));
#1457=CARTESIAN_POINT('',(-0.0397113039529461,-0.0185,0.0514014258831631));
#1458=CARTESIAN_POINT('',(0.141955178741093,-0.0735,0.0514014258831632));
#1459=CARTESIAN_POINT('',(0.141955178741093,-0.0795,0.0514014258831632));
#1460=CARTESIAN_POINT('',(0.151934351572724,-0.0185,0.0344014258831632));
#1461=CARTESIAN_POINT('',(0.141955178741093,-0.0735,0.0344014258831632));
#1462=CARTESIAN_POINT('',(0.141955178741093,-0.0795,0.0344014258831632));
#1463=CARTESIAN_POINT('',(0.141955178741093,-0.0735,0.0344014258831632));
#1464=CARTESIAN_POINT('',(-0.0328708271683692,-0.0185,0.0464014258831631));
#1465=CARTESIAN_POINT('',(0.141955178741093,-0.0185,0.0464014258831631));
#1466=CARTESIAN_POINT('',(0.141955178741093,-0.031,0.0464014258831631));
#1467=CARTESIAN_POINT('',(0.157455178741093,-0.034,0.0464014258831631));
#1468=CARTESIAN_POINT('',(0.157455178741093,-0.035544379588293,0.0464014258831631));
#1469=CARTESIAN_POINT('',(0.126455178741093,-0.034,0.0464014258831631));
#1470=CARTESIAN_POINT('',(0.126455178741093,-0.0355443795817516,0.0464014258831631));
#1471=CARTESIAN_POINT('',(0.157455178741093,-0.00299999999999985,0.0464014258831631));
#1472=CARTESIAN_POINT('',(0.157455178741093,-0.00454437958583788,0.0464014258831631));
#1473=CARTESIAN_POINT('',(0.126455178741093,-0.00299999999999985,0.0464014258831631));
#1474=CARTESIAN_POINT('',(0.126455178741093,-0.00454437958369995,0.0464014258831631));
#1475=CARTESIAN_POINT('',(0.120805178741093,-0.0185,0.0464014258831631));
#1476=CARTESIAN_POINT('',(0.120805178741093,-0.039425,0.0384014258831631));
#1477=CARTESIAN_POINT('',(0.120805178741093,-0.01835,0.0264014258831631));
#1478=CARTESIAN_POINT('',(-0.0328708271683692,0.00703119784648313,0.0544014258831631));
#1479=CARTESIAN_POINT('',(0.11908141831039,0.00992623956929676,0.0493870665292183));
#1480=CARTESIAN_POINT('',(0.119341077125955,0.0101858983848624,0.0489373242680254));
#1481=CARTESIAN_POINT('',(0.11794803588395,0.0109901711209263,0.0475442830260203));
#1482=CARTESIAN_POINT('',(0.120805178741093,0.00934059892324166,0.0504014258831632));
#1483=CARTESIAN_POINT('',(-0.667804972300497,0.00934059892324166,0.0504014258831632));
#1484=CARTESIAN_POINT('',(0.166495777664335,0.00934059892324166,0.0504014258831632));
#1485=CARTESIAN_POINT('',(0.124774935836387,-0.0323802429047059,0.122664043663713));
#1486=CARTESIAN_POINT('',(0.157455178741093,-0.00299999999999985,0.0544014258831631));
#1487=CARTESIAN_POINT('',(0.157455178741093,-0.00299999999999985,0.0504014258831632));
#1488=CARTESIAN_POINT('',(0.155910799155255,-0.00299999999999985,0.0504014258831632));
#1489=CARTESIAN_POINT('',(0.126455178741093,-0.034,0.0544014258831631));
#1490=CARTESIAN_POINT('',(0.126455178741093,-0.034,0.0504014258831632));
#1491=CARTESIAN_POINT('',(0.124910799159341,-0.034,0.0504014258831632));
#1492=CARTESIAN_POINT('',(0.157455178741093,-0.034,0.0544014258831631));
#1493=CARTESIAN_POINT('',(0.157455178741093,-0.034,0.0504014258831632));
#1494=CARTESIAN_POINT('',(0.1559107991528,-0.034,0.0504014258831632));
#1495=CARTESIAN_POINT('',(0.141955178741093,-0.0185,0.0544014258831631));
#1496=CARTESIAN_POINT('',(0.141955178741093,-0.0185,0.0504014258831632));
#1497=CARTESIAN_POINT('',(0.129455178741093,-0.0185,0.0504014258831632));
#1498=CARTESIAN_POINT('',(0.126455178741093,-0.00299999999999985,0.0544014258831631));
#1499=CARTESIAN_POINT('',(0.126455178741093,-0.00299999999999985,0.0504014258831632));
#1500=CARTESIAN_POINT('',(0.124910799157393,-0.00299999999999985,0.0504014258831632));
#1501=CARTESIAN_POINT('',(0.164186376587576,-0.0185,0.0544014258831631));
#1502=CARTESIAN_POINT('',(0.166495777664335,-0.0185,0.0504014258831632));
#1503=CARTESIAN_POINT('',(0.166495777664335,-0.0460405989232413,0.0504014258831632));
#1504=CARTESIAN_POINT('',(0.159140137018279,-0.0386849582771863,0.0631417692043493));
#1505=CARTESIAN_POINT('',(0.144805178741093,-0.04835,0.0464014258831631));
#1506=CARTESIAN_POINT('',(-0.667804972300497,-0.0460405989232413,0.0504014258831632));
#1507=CARTESIAN_POINT('',(0.120805178741093,-0.0460405989232413,0.0504014258831632));
#1508=CARTESIAN_POINT('',(0.11794803588395,-0.047690171120926,0.0475442830260203));
#1509=CARTESIAN_POINT('',(0.119341077125955,-0.0468858983848621,0.0489373242680254));
#1510=CARTESIAN_POINT('',(0.11908141831039,-0.0466262395692964,0.0493870665292183));
#1511=CARTESIAN_POINT('',(-0.667804972300497,-0.01835,0.0504014258831632));
#1512=CARTESIAN_POINT('',(0.120805178741093,-0.0185,0.0504014258831632));
#1513=CARTESIAN_POINT('',(0.116805178741093,-0.039425,0.0384014258831631));
#1514=CARTESIAN_POINT('',(0.116805178741093,-0.04435,0.0384014258831631));
#1515=CARTESIAN_POINT('',(0.116805178741093,-0.04435,0.0304014258831631));
#1516=CARTESIAN_POINT('',(0.116805178741093,-0.04435,0.0464014258831632));
#1517=CARTESIAN_POINT('',(0.116805178741093,-0.039425,0.0464014258831632));
#1518=CARTESIAN_POINT('',(0.116805178741093,0.00765000000000016,0.0464014258831632));
#1519=CARTESIAN_POINT('',(0.116805178741093,0.00765000000000016,0.0384014258831631));
#1520=CARTESIAN_POINT('',(0.116805178741093,0.00765000000000016,0.0304014258831631));
#1521=CARTESIAN_POINT('',(0.116805178741093,-0.039425,0.0304014258831631));
#1522=CARTESIAN_POINT('',(0.120805178741093,-0.01835,0.0264014258831631));
#1523=CARTESIAN_POINT('',(0.11747184540776,-0.0450166666666665,0.0297347592164965));
#1524=CARTESIAN_POINT('',(0.110805178741093,0.00165000000000017,0.0364014258831631));
#1525=CARTESIAN_POINT('',(0.120805178741093,0.0116500000000001,0.0364014258831631));
#1526=CARTESIAN_POINT('',(0.116138512074426,0.00698333333333349,0.0457347592164965));
#1527=CARTESIAN_POINT('',(0.120805178741093,-0.04835,0.0364014258831631));
#1528=CARTESIAN_POINT('',(0.110805178741093,-0.03835,0.0404014258831632));
#1529=CARTESIAN_POINT('',(0.120805178741093,-0.01835,0.0504014258831632));
#1530=CARTESIAN_POINT('',(0.173139499088135,-0.06835,0.0324014258831632));
#1531=CARTESIAN_POINT('',(0.173139499088135,0.03165,0.0324014258831632));
#1532=MECHANICAL_DESIGN_GEOMETRIC_PRESENTATION_REPRESENTATION('',(#937),
#1533);
#1533=(
GEOMETRIC_REPRESENTATION_CONTEXT(3)
GLOBAL_UNCERTAINTY_ASSIGNED_CONTEXT((#1534))
GLOBAL_UNIT_ASSIGNED_CONTEXT((#1537,#1536,#1535))
REPRESENTATION_CONTEXT('Z-BaseMount','TOP_LEVEL_ASSEMBLY_PART')
);
#1534=UNCERTAINTY_MEASURE_WITH_UNIT(LENGTH_MEASURE(1.E-8),#1537,
'DISTANCE_ACCURACY_VALUE','Maximum Tolerance applied to model');
#1535=(
NAMED_UNIT(*)
SI_UNIT($,.STERADIAN.)
SOLID_ANGLE_UNIT()
);
#1536=(
NAMED_UNIT(*)
PLANE_ANGLE_UNIT()
SI_UNIT($,.RADIAN.)
);
#1537=(
LENGTH_UNIT()
NAMED_UNIT(*)
SI_UNIT($,.METRE.)
);
#1538=PRODUCT_DEFINITION_SHAPE('','',#1539);
#1539=PRODUCT_DEFINITION('','',#1541,#1540);
#1540=PRODUCT_DEFINITION_CONTEXT('',#1547,'design');
#1541=PRODUCT_DEFINITION_FORMATION_WITH_SPECIFIED_SOURCE('','',#1543,
 .NOT_KNOWN.);
#1542=PRODUCT_RELATED_PRODUCT_CATEGORY('','',(#1543));
#1543=PRODUCT('Z-BaseMount','Z-BaseMount','Z-BaseMount',(#1545));
#1544=PRODUCT_CATEGORY('','');
#1545=PRODUCT_CONTEXT('',#1547,'mechanical');
#1546=APPLICATION_PROTOCOL_DEFINITION('international standard',
'ap242_managed_model_based_3d_engineering',2020,#1547);
#1547=APPLICATION_CONTEXT('managed model based 3d engineering');
ENDSEC;
END-ISO-10303-21;
