ISO-10303-21;
HEADER;
/* Generated by software containing ST-Developer
 * from STEP Tools, Inc. (www.steptools.com) 
 */
/* OPTION: using custom renumber hook */

FILE_DESCRIPTION(
/* description */ ('STEP AP242 Edition 2',
'CAx-IF Rec.Pracs.---Representation and Presentation of Product Manufa
cturing Information (PMI)---4.0---2014-10-13',
'CAx-IF Rec.Pracs.---3D Tessellated Geometry---0.4---2014-09-14','2;1',
'CAx-IF Rec.Pracs.---User Defined Attributes---1.5---2016-08-15'),
/* implementation_level */ '2;1');

FILE_NAME(
/* name */ 'NOT-618 - Z-TopMount',
/* time_stamp */ '2026-07-26T08:51:50Z',
/* author */ (''),
/* organization */ (''),
/* preprocessor_version */ 'ST-DEVELOPER v20',
/* originating_system */ 'ONSHAPE BY PTC INC, 1.218',
/* authorisation */ '  ');

FILE_SCHEMA (('AP242_MANAGED_MODEL_BASED_3D_ENGINEERING_MIM_LF { 1 0 10303 442 3 1 4 }'));
ENDSEC;

DATA;
#10=SHAPE_REPRESENTATION_RELATIONSHIP('','',#631,#11);
#11=ADVANCED_BREP_SHAPE_REPRESENTATION('',(#629),#997);
#12=CONICAL_SURFACE('',#662,0.0025,0.785398163397448);
#13=CONICAL_SURFACE('',#663,0.0025,0.785398163397448);
#14=CYLINDRICAL_SURFACE('',#651,0.0025);
#15=CYLINDRICAL_SURFACE('',#654,0.0025);
#16=CYLINDRICAL_SURFACE('',#659,0.006);
#17=CYLINDRICAL_SURFACE('',#660,0.006);
#18=CYLINDRICAL_SURFACE('',#661,0.004);
#19=LINE('',#838,#85);
#20=LINE('',#841,#86);
#21=LINE('',#843,#87);
#22=LINE('',#845,#88);
#23=LINE('',#847,#89);
#24=LINE('',#849,#90);
#25=LINE('',#850,#91);
#26=LINE('',#853,#92);
#27=LINE('',#855,#93);
#28=LINE('',#856,#94);
#29=LINE('',#859,#95);
#30=LINE('',#861,#96);
#31=LINE('',#862,#97);
#32=LINE('',#865,#98);
#33=LINE('',#867,#99);
#34=LINE('',#868,#100);
#35=LINE('',#871,#101);
#36=LINE('',#873,#102);
#37=LINE('',#881,#103);
#38=LINE('',#884,#104);
#39=LINE('',#886,#105);
#40=LINE('',#888,#106);
#41=LINE('',#890,#107);
#42=LINE('',#892,#108);
#43=LINE('',#894,#109);
#44=LINE('',#896,#110);
#45=LINE('',#901,#111);
#46=LINE('',#904,#112);
#47=LINE('',#906,#113);
#48=LINE('',#907,#114);
#49=LINE('',#910,#115);
#50=LINE('',#912,#116);
#51=LINE('',#913,#117);
#52=LINE('',#916,#118);
#53=LINE('',#918,#119);
#54=LINE('',#919,#120);
#55=LINE('',#922,#121);
#56=LINE('',#924,#122);
#57=LINE('',#926,#123);
#58=LINE('',#927,#124);
#59=LINE('',#929,#125);
#60=LINE('',#931,#126);
#61=LINE('',#933,#127);
#62=LINE('',#935,#128);
#63=LINE('',#937,#129);
#64=LINE('',#939,#130);
#65=LINE('',#941,#131);
#66=LINE('',#943,#132);
#67=LINE('',#945,#133);
#68=LINE('',#947,#134);
#69=LINE('',#949,#135);
#70=LINE('',#951,#136);
#71=LINE('',#953,#137);
#72=LINE('',#965,#138);
#73=LINE('',#973,#139);
#74=LINE('',#974,#140);
#75=LINE('',#976,#141);
#76=LINE('',#979,#142);
#77=LINE('',#980,#143);
#78=LINE('',#982,#144);
#79=LINE('',#985,#145);
#80=LINE('',#986,#146);
#81=LINE('',#988,#147);
#82=LINE('',#991,#148);
#83=LINE('',#992,#149);
#84=LINE('',#994,#150);
#85=VECTOR('',#686,1.);
#86=VECTOR('',#687,1.);
#87=VECTOR('',#688,1.);
#88=VECTOR('',#689,1.);
#89=VECTOR('',#690,1.);
#90=VECTOR('',#691,1.);
#91=VECTOR('',#692,1.);
#92=VECTOR('',#693,1.);
#93=VECTOR('',#694,1.);
#94=VECTOR('',#695,1.);
#95=VECTOR('',#696,1.);
#96=VECTOR('',#697,1.);
#97=VECTOR('',#698,1.);
#98=VECTOR('',#699,1.);
#99=VECTOR('',#700,1.);
#100=VECTOR('',#701,1.);
#101=VECTOR('',#702,1.);
#102=VECTOR('',#703,1.);
#103=VECTOR('',#712,1.);
#104=VECTOR('',#713,1.);
#105=VECTOR('',#714,1.);
#106=VECTOR('',#715,1.);
#107=VECTOR('',#716,1.);
#108=VECTOR('',#717,1.);
#109=VECTOR('',#718,1.);
#110=VECTOR('',#719,1.);
#111=VECTOR('',#724,1.);
#112=VECTOR('',#725,1.);
#113=VECTOR('',#726,1.);
#114=VECTOR('',#727,1.);
#115=VECTOR('',#728,1.);
#116=VECTOR('',#729,1.);
#117=VECTOR('',#730,1.);
#118=VECTOR('',#731,1.);
#119=VECTOR('',#732,1.);
#120=VECTOR('',#733,1.);
#121=VECTOR('',#734,1.);
#122=VECTOR('',#735,1.);
#123=VECTOR('',#738,1.);
#124=VECTOR('',#739,1.);
#125=VECTOR('',#740,1.);
#126=VECTOR('',#741,1.);
#127=VECTOR('',#744,1.);
#128=VECTOR('',#747,1.);
#129=VECTOR('',#750,1.);
#130=VECTOR('',#753,1.);
#131=VECTOR('',#754,1.);
#132=VECTOR('',#755,1.);
#133=VECTOR('',#758,1.);
#134=VECTOR('',#759,1.);
#135=VECTOR('',#762,1.);
#136=VECTOR('',#763,1.);
#137=VECTOR('',#766,1.);
#138=VECTOR('',#781,1.);
#139=VECTOR('',#796,1.);
#140=VECTOR('',#797,1.);
#141=VECTOR('',#800,1.);
#142=VECTOR('',#805,1.);
#143=VECTOR('',#806,1.);
#144=VECTOR('',#809,1.);
#145=VECTOR('',#814,1.);
#146=VECTOR('',#815,1.);
#147=VECTOR('',#818,1.);
#148=VECTOR('',#823,1.);
#149=VECTOR('',#824,1.);
#150=VECTOR('',#827,1.);
#151=ORIENTED_EDGE('',*,*,#307,.T.);
#152=ORIENTED_EDGE('',*,*,#308,.T.);
#153=ORIENTED_EDGE('',*,*,#309,.F.);
#154=ORIENTED_EDGE('',*,*,#310,.T.);
#155=ORIENTED_EDGE('',*,*,#311,.T.);
#156=ORIENTED_EDGE('',*,*,#312,.T.);
#157=ORIENTED_EDGE('',*,*,#313,.T.);
#158=ORIENTED_EDGE('',*,*,#314,.T.);
#159=ORIENTED_EDGE('',*,*,#315,.T.);
#160=ORIENTED_EDGE('',*,*,#316,.T.);
#161=ORIENTED_EDGE('',*,*,#317,.T.);
#162=ORIENTED_EDGE('',*,*,#318,.T.);
#163=ORIENTED_EDGE('',*,*,#319,.T.);
#164=ORIENTED_EDGE('',*,*,#320,.T.);
#165=ORIENTED_EDGE('',*,*,#321,.T.);
#166=ORIENTED_EDGE('',*,*,#322,.T.);
#167=ORIENTED_EDGE('',*,*,#323,.T.);
#168=ORIENTED_EDGE('',*,*,#324,.T.);
#169=ORIENTED_EDGE('',*,*,#325,.T.);
#170=ORIENTED_EDGE('',*,*,#326,.T.);
#171=ORIENTED_EDGE('',*,*,#327,.T.);
#172=ORIENTED_EDGE('',*,*,#328,.T.);
#173=ORIENTED_EDGE('',*,*,#329,.T.);
#174=ORIENTED_EDGE('',*,*,#330,.F.);
#175=ORIENTED_EDGE('',*,*,#331,.F.);
#176=ORIENTED_EDGE('',*,*,#332,.F.);
#177=ORIENTED_EDGE('',*,*,#333,.F.);
#178=ORIENTED_EDGE('',*,*,#334,.F.);
#179=ORIENTED_EDGE('',*,*,#335,.F.);
#180=ORIENTED_EDGE('',*,*,#336,.F.);
#181=ORIENTED_EDGE('',*,*,#337,.F.);
#182=ORIENTED_EDGE('',*,*,#338,.F.);
#183=ORIENTED_EDGE('',*,*,#339,.F.);
#184=ORIENTED_EDGE('',*,*,#340,.F.);
#185=ORIENTED_EDGE('',*,*,#341,.F.);
#186=ORIENTED_EDGE('',*,*,#342,.F.);
#187=ORIENTED_EDGE('',*,*,#343,.F.);
#188=ORIENTED_EDGE('',*,*,#344,.F.);
#189=ORIENTED_EDGE('',*,*,#345,.F.);
#190=ORIENTED_EDGE('',*,*,#346,.F.);
#191=ORIENTED_EDGE('',*,*,#347,.F.);
#192=ORIENTED_EDGE('',*,*,#348,.F.);
#193=ORIENTED_EDGE('',*,*,#349,.F.);
#194=ORIENTED_EDGE('',*,*,#350,.F.);
#195=ORIENTED_EDGE('',*,*,#351,.F.);
#196=ORIENTED_EDGE('',*,*,#352,.F.);
#197=ORIENTED_EDGE('',*,*,#353,.F.);
#198=ORIENTED_EDGE('',*,*,#331,.T.);
#199=ORIENTED_EDGE('',*,*,#354,.T.);
#200=ORIENTED_EDGE('',*,*,#355,.F.);
#201=ORIENTED_EDGE('',*,*,#356,.T.);
#202=ORIENTED_EDGE('',*,*,#315,.F.);
#203=ORIENTED_EDGE('',*,*,#357,.F.);
#204=ORIENTED_EDGE('',*,*,#332,.T.);
#205=ORIENTED_EDGE('',*,*,#353,.T.);
#206=ORIENTED_EDGE('',*,*,#314,.F.);
#207=ORIENTED_EDGE('',*,*,#358,.F.);
#208=ORIENTED_EDGE('',*,*,#333,.T.);
#209=ORIENTED_EDGE('',*,*,#357,.T.);
#210=ORIENTED_EDGE('',*,*,#313,.F.);
#211=ORIENTED_EDGE('',*,*,#359,.F.);
#212=ORIENTED_EDGE('',*,*,#334,.T.);
#213=ORIENTED_EDGE('',*,*,#358,.T.);
#214=ORIENTED_EDGE('',*,*,#312,.F.);
#215=ORIENTED_EDGE('',*,*,#360,.F.);
#216=ORIENTED_EDGE('',*,*,#335,.T.);
#217=ORIENTED_EDGE('',*,*,#359,.T.);
#218=ORIENTED_EDGE('',*,*,#311,.F.);
#219=ORIENTED_EDGE('',*,*,#361,.F.);
#220=ORIENTED_EDGE('',*,*,#362,.F.);
#221=ORIENTED_EDGE('',*,*,#363,.F.);
#222=ORIENTED_EDGE('',*,*,#336,.T.);
#223=ORIENTED_EDGE('',*,*,#360,.T.);
#224=ORIENTED_EDGE('',*,*,#364,.F.);
#225=ORIENTED_EDGE('',*,*,#365,.F.);
#226=ORIENTED_EDGE('',*,*,#337,.T.);
#227=ORIENTED_EDGE('',*,*,#363,.T.);
#228=ORIENTED_EDGE('',*,*,#366,.F.);
#229=ORIENTED_EDGE('',*,*,#354,.F.);
#230=ORIENTED_EDGE('',*,*,#338,.T.);
#231=ORIENTED_EDGE('',*,*,#365,.T.);
#232=ORIENTED_EDGE('',*,*,#367,.F.);
#233=ORIENTED_EDGE('',*,*,#368,.T.);
#234=ORIENTED_EDGE('',*,*,#369,.F.);
#235=ORIENTED_EDGE('',*,*,#370,.T.);
#236=ORIENTED_EDGE('',*,*,#371,.F.);
#237=ORIENTED_EDGE('',*,*,#362,.T.);
#238=ORIENTED_EDGE('',*,*,#372,.T.);
#239=ORIENTED_EDGE('',*,*,#355,.T.);
#240=ORIENTED_EDGE('',*,*,#367,.T.);
#241=ORIENTED_EDGE('',*,*,#366,.T.);
#242=ORIENTED_EDGE('',*,*,#364,.T.);
#243=ORIENTED_EDGE('',*,*,#369,.T.);
#244=ORIENTED_EDGE('',*,*,#371,.T.);
#245=ORIENTED_EDGE('',*,*,#372,.F.);
#246=ORIENTED_EDGE('',*,*,#361,.T.);
#247=ORIENTED_EDGE('',*,*,#310,.F.);
#248=ORIENTED_EDGE('',*,*,#356,.F.);
#249=ORIENTED_EDGE('',*,*,#339,.T.);
#250=ORIENTED_EDGE('',*,*,#307,.F.);
#251=ORIENTED_EDGE('',*,*,#340,.T.);
#252=ORIENTED_EDGE('',*,*,#308,.F.);
#253=ORIENTED_EDGE('',*,*,#309,.T.);
#254=ORIENTED_EDGE('',*,*,#330,.T.);
#255=ORIENTED_EDGE('',*,*,#328,.F.);
#256=ORIENTED_EDGE('',*,*,#370,.F.);
#257=ORIENTED_EDGE('',*,*,#329,.F.);
#258=ORIENTED_EDGE('',*,*,#368,.F.);
#259=ORIENTED_EDGE('',*,*,#342,.T.);
#260=ORIENTED_EDGE('',*,*,#373,.T.);
#261=ORIENTED_EDGE('',*,*,#317,.F.);
#262=ORIENTED_EDGE('',*,*,#374,.F.);
#263=ORIENTED_EDGE('',*,*,#343,.T.);
#264=ORIENTED_EDGE('',*,*,#374,.T.);
#265=ORIENTED_EDGE('',*,*,#316,.F.);
#266=ORIENTED_EDGE('',*,*,#375,.F.);
#267=ORIENTED_EDGE('',*,*,#341,.T.);
#268=ORIENTED_EDGE('',*,*,#375,.T.);
#269=ORIENTED_EDGE('',*,*,#318,.F.);
#270=ORIENTED_EDGE('',*,*,#373,.F.);
#271=ORIENTED_EDGE('',*,*,#345,.T.);
#272=ORIENTED_EDGE('',*,*,#376,.T.);
#273=ORIENTED_EDGE('',*,*,#320,.F.);
#274=ORIENTED_EDGE('',*,*,#377,.F.);
#275=ORIENTED_EDGE('',*,*,#346,.T.);
#276=ORIENTED_EDGE('',*,*,#377,.T.);
#277=ORIENTED_EDGE('',*,*,#319,.F.);
#278=ORIENTED_EDGE('',*,*,#378,.F.);
#279=ORIENTED_EDGE('',*,*,#344,.T.);
#280=ORIENTED_EDGE('',*,*,#378,.T.);
#281=ORIENTED_EDGE('',*,*,#321,.F.);
#282=ORIENTED_EDGE('',*,*,#376,.F.);
#283=ORIENTED_EDGE('',*,*,#348,.T.);
#284=ORIENTED_EDGE('',*,*,#379,.T.);
#285=ORIENTED_EDGE('',*,*,#323,.F.);
#286=ORIENTED_EDGE('',*,*,#380,.F.);
#287=ORIENTED_EDGE('',*,*,#349,.T.);
#288=ORIENTED_EDGE('',*,*,#380,.T.);
#289=ORIENTED_EDGE('',*,*,#322,.F.);
#290=ORIENTED_EDGE('',*,*,#381,.F.);
#291=ORIENTED_EDGE('',*,*,#347,.T.);
#292=ORIENTED_EDGE('',*,*,#381,.T.);
#293=ORIENTED_EDGE('',*,*,#324,.F.);
#294=ORIENTED_EDGE('',*,*,#379,.F.);
#295=ORIENTED_EDGE('',*,*,#351,.T.);
#296=ORIENTED_EDGE('',*,*,#382,.T.);
#297=ORIENTED_EDGE('',*,*,#326,.F.);
#298=ORIENTED_EDGE('',*,*,#383,.F.);
#299=ORIENTED_EDGE('',*,*,#352,.T.);
#300=ORIENTED_EDGE('',*,*,#383,.T.);
#301=ORIENTED_EDGE('',*,*,#325,.F.);
#302=ORIENTED_EDGE('',*,*,#384,.F.);
#303=ORIENTED_EDGE('',*,*,#350,.T.);
#304=ORIENTED_EDGE('',*,*,#384,.T.);
#305=ORIENTED_EDGE('',*,*,#327,.F.);
#306=ORIENTED_EDGE('',*,*,#382,.F.);
#307=EDGE_CURVE('',#385,#385,#441,.F.);
#308=EDGE_CURVE('',#386,#386,#442,.F.);
#309=EDGE_CURVE('',#387,#387,#443,.T.);
#310=EDGE_CURVE('',#388,#389,#19,.T.);
#311=EDGE_CURVE('',#389,#390,#20,.T.);
#312=EDGE_CURVE('',#390,#391,#21,.T.);
#313=EDGE_CURVE('',#391,#392,#22,.T.);
#314=EDGE_CURVE('',#392,#393,#23,.T.);
#315=EDGE_CURVE('',#393,#388,#24,.T.);
#316=EDGE_CURVE('',#394,#395,#25,.T.);
#317=EDGE_CURVE('',#395,#396,#26,.T.);
#318=EDGE_CURVE('',#396,#394,#27,.T.);
#319=EDGE_CURVE('',#397,#398,#28,.T.);
#320=EDGE_CURVE('',#398,#399,#29,.T.);
#321=EDGE_CURVE('',#399,#397,#30,.T.);
#322=EDGE_CURVE('',#400,#401,#31,.T.);
#323=EDGE_CURVE('',#401,#402,#32,.T.);
#324=EDGE_CURVE('',#402,#400,#33,.T.);
#325=EDGE_CURVE('',#403,#404,#34,.T.);
#326=EDGE_CURVE('',#404,#405,#35,.T.);
#327=EDGE_CURVE('',#405,#403,#36,.T.);
#328=EDGE_CURVE('',#406,#406,#444,.F.);
#329=EDGE_CURVE('',#407,#407,#445,.F.);
#330=EDGE_CURVE('',#408,#408,#446,.T.);
#331=EDGE_CURVE('',#409,#410,#37,.T.);
#332=EDGE_CURVE('',#411,#409,#38,.T.);
#333=EDGE_CURVE('',#412,#411,#39,.T.);
#334=EDGE_CURVE('',#413,#412,#40,.T.);
#335=EDGE_CURVE('',#414,#413,#41,.T.);
#336=EDGE_CURVE('',#415,#414,#42,.T.);
#337=EDGE_CURVE('',#416,#415,#43,.T.);
#338=EDGE_CURVE('',#410,#416,#44,.T.);
#339=EDGE_CURVE('',#417,#417,#447,.T.);
#340=EDGE_CURVE('',#418,#418,#448,.T.);
#341=EDGE_CURVE('',#419,#420,#45,.T.);
#342=EDGE_CURVE('',#421,#419,#46,.T.);
#343=EDGE_CURVE('',#420,#421,#47,.T.);
#344=EDGE_CURVE('',#422,#423,#48,.T.);
#345=EDGE_CURVE('',#424,#422,#49,.T.);
#346=EDGE_CURVE('',#423,#424,#50,.T.);
#347=EDGE_CURVE('',#425,#426,#51,.T.);
#348=EDGE_CURVE('',#427,#425,#52,.T.);
#349=EDGE_CURVE('',#426,#427,#53,.T.);
#350=EDGE_CURVE('',#428,#429,#54,.T.);
#351=EDGE_CURVE('',#430,#428,#55,.T.);
#352=EDGE_CURVE('',#429,#430,#56,.T.);
#353=EDGE_CURVE('',#409,#393,#57,.T.);
#354=EDGE_CURVE('',#410,#431,#58,.T.);
#355=EDGE_CURVE('',#432,#431,#59,.T.);
#356=EDGE_CURVE('',#432,#388,#60,.T.);
#357=EDGE_CURVE('',#411,#392,#61,.T.);
#358=EDGE_CURVE('',#412,#391,#62,.T.);
#359=EDGE_CURVE('',#413,#390,#63,.T.);
#360=EDGE_CURVE('',#414,#433,#64,.T.);
#361=EDGE_CURVE('',#434,#389,#65,.T.);
#362=EDGE_CURVE('',#433,#434,#66,.T.);
#363=EDGE_CURVE('',#415,#435,#67,.T.);
#364=EDGE_CURVE('',#435,#433,#68,.T.);
#365=EDGE_CURVE('',#416,#436,#69,.T.);
#366=EDGE_CURVE('',#436,#435,#70,.T.);
#367=EDGE_CURVE('',#431,#436,#71,.T.);
#368=EDGE_CURVE('',#437,#437,#449,.T.);
#369=EDGE_CURVE('',#438,#438,#450,.T.);
#370=EDGE_CURVE('',#439,#439,#451,.T.);
#371=EDGE_CURVE('',#440,#440,#452,.T.);
#372=EDGE_CURVE('',#434,#432,#72,.T.);
#373=EDGE_CURVE('',#419,#396,#73,.T.);
#374=EDGE_CURVE('',#421,#395,#74,.T.);
#375=EDGE_CURVE('',#420,#394,#75,.T.);
#376=EDGE_CURVE('',#422,#399,#76,.T.);
#377=EDGE_CURVE('',#424,#398,#77,.T.);
#378=EDGE_CURVE('',#423,#397,#78,.T.);
#379=EDGE_CURVE('',#425,#402,#79,.T.);
#380=EDGE_CURVE('',#427,#401,#80,.T.);
#381=EDGE_CURVE('',#426,#400,#81,.T.);
#382=EDGE_CURVE('',#428,#405,#82,.T.);
#383=EDGE_CURVE('',#430,#404,#83,.T.);
#384=EDGE_CURVE('',#429,#403,#84,.T.);
#385=VERTEX_POINT('',#833);
#386=VERTEX_POINT('',#835);
#387=VERTEX_POINT('',#837);
#388=VERTEX_POINT('',#839);
#389=VERTEX_POINT('',#840);
#390=VERTEX_POINT('',#842);
#391=VERTEX_POINT('',#844);
#392=VERTEX_POINT('',#846);
#393=VERTEX_POINT('',#848);
#394=VERTEX_POINT('',#851);
#395=VERTEX_POINT('',#852);
#396=VERTEX_POINT('',#854);
#397=VERTEX_POINT('',#857);
#398=VERTEX_POINT('',#858);
#399=VERTEX_POINT('',#860);
#400=VERTEX_POINT('',#863);
#401=VERTEX_POINT('',#864);
#402=VERTEX_POINT('',#866);
#403=VERTEX_POINT('',#869);
#404=VERTEX_POINT('',#870);
#405=VERTEX_POINT('',#872);
#406=VERTEX_POINT('',#876);
#407=VERTEX_POINT('',#878);
#408=VERTEX_POINT('',#880);
#409=VERTEX_POINT('',#882);
#410=VERTEX_POINT('',#883);
#411=VERTEX_POINT('',#885);
#412=VERTEX_POINT('',#887);
#413=VERTEX_POINT('',#889);
#414=VERTEX_POINT('',#891);
#415=VERTEX_POINT('',#893);
#416=VERTEX_POINT('',#895);
#417=VERTEX_POINT('',#898);
#418=VERTEX_POINT('',#900);
#419=VERTEX_POINT('',#902);
#420=VERTEX_POINT('',#903);
#421=VERTEX_POINT('',#905);
#422=VERTEX_POINT('',#908);
#423=VERTEX_POINT('',#909);
#424=VERTEX_POINT('',#911);
#425=VERTEX_POINT('',#914);
#426=VERTEX_POINT('',#915);
#427=VERTEX_POINT('',#917);
#428=VERTEX_POINT('',#920);
#429=VERTEX_POINT('',#921);
#430=VERTEX_POINT('',#923);
#431=VERTEX_POINT('',#928);
#432=VERTEX_POINT('',#930);
#433=VERTEX_POINT('',#940);
#434=VERTEX_POINT('',#942);
#435=VERTEX_POINT('',#946);
#436=VERTEX_POINT('',#950);
#437=VERTEX_POINT('',#956);
#438=VERTEX_POINT('',#958);
#439=VERTEX_POINT('',#961);
#440=VERTEX_POINT('',#963);
#441=CIRCLE('',#634,0.006);
#442=CIRCLE('',#635,0.006);
#443=CIRCLE('',#636,0.004);
#444=CIRCLE('',#638,0.0045);
#445=CIRCLE('',#639,0.0045);
#446=CIRCLE('',#640,0.004);
#447=CIRCLE('',#641,0.006);
#448=CIRCLE('',#642,0.006);
#449=CIRCLE('',#652,0.0025);
#450=CIRCLE('',#653,0.0025);
#451=CIRCLE('',#655,0.0025);
#452=CIRCLE('',#656,0.0025);
#453=EDGE_LOOP('',(#151));
#454=EDGE_LOOP('',(#152));
#455=EDGE_LOOP('',(#153));
#456=EDGE_LOOP('',(#154,#155,#156,#157,#158,#159));
#457=EDGE_LOOP('',(#160,#161,#162));
#458=EDGE_LOOP('',(#163,#164,#165));
#459=EDGE_LOOP('',(#166,#167,#168));
#460=EDGE_LOOP('',(#169,#170,#171));
#461=EDGE_LOOP('',(#172));
#462=EDGE_LOOP('',(#173));
#463=EDGE_LOOP('',(#174));
#464=EDGE_LOOP('',(#175,#176,#177,#178,#179,#180,#181,#182));
#465=EDGE_LOOP('',(#183));
#466=EDGE_LOOP('',(#184));
#467=EDGE_LOOP('',(#185,#186,#187));
#468=EDGE_LOOP('',(#188,#189,#190));
#469=EDGE_LOOP('',(#191,#192,#193));
#470=EDGE_LOOP('',(#194,#195,#196));
#471=EDGE_LOOP('',(#197,#198,#199,#200,#201,#202));
#472=EDGE_LOOP('',(#203,#204,#205,#206));
#473=EDGE_LOOP('',(#207,#208,#209,#210));
#474=EDGE_LOOP('',(#211,#212,#213,#214));
#475=EDGE_LOOP('',(#215,#216,#217,#218,#219,#220));
#476=EDGE_LOOP('',(#221,#222,#223,#224));
#477=EDGE_LOOP('',(#225,#226,#227,#228));
#478=EDGE_LOOP('',(#229,#230,#231,#232));
#479=EDGE_LOOP('',(#233));
#480=EDGE_LOOP('',(#234));
#481=EDGE_LOOP('',(#235));
#482=EDGE_LOOP('',(#236));
#483=EDGE_LOOP('',(#237,#238,#239,#240,#241,#242));
#484=EDGE_LOOP('',(#243));
#485=EDGE_LOOP('',(#244));
#486=EDGE_LOOP('',(#245,#246,#247,#248));
#487=EDGE_LOOP('',(#249));
#488=EDGE_LOOP('',(#250));
#489=EDGE_LOOP('',(#251));
#490=EDGE_LOOP('',(#252));
#491=EDGE_LOOP('',(#253));
#492=EDGE_LOOP('',(#254));
#493=EDGE_LOOP('',(#255));
#494=EDGE_LOOP('',(#256));
#495=EDGE_LOOP('',(#257));
#496=EDGE_LOOP('',(#258));
#497=EDGE_LOOP('',(#259,#260,#261,#262));
#498=EDGE_LOOP('',(#263,#264,#265,#266));
#499=EDGE_LOOP('',(#267,#268,#269,#270));
#500=EDGE_LOOP('',(#271,#272,#273,#274));
#501=EDGE_LOOP('',(#275,#276,#277,#278));
#502=EDGE_LOOP('',(#279,#280,#281,#282));
#503=EDGE_LOOP('',(#283,#284,#285,#286));
#504=EDGE_LOOP('',(#287,#288,#289,#290));
#505=EDGE_LOOP('',(#291,#292,#293,#294));
#506=EDGE_LOOP('',(#295,#296,#297,#298));
#507=EDGE_LOOP('',(#299,#300,#301,#302));
#508=EDGE_LOOP('',(#303,#304,#305,#306));
#509=FACE_BOUND('',#453,.T.);
#510=FACE_BOUND('',#454,.T.);
#511=FACE_BOUND('',#455,.T.);
#512=FACE_BOUND('',#456,.T.);
#513=FACE_BOUND('',#457,.T.);
#514=FACE_BOUND('',#458,.T.);
#515=FACE_BOUND('',#459,.T.);
#516=FACE_BOUND('',#460,.T.);
#517=FACE_BOUND('',#461,.T.);
#518=FACE_BOUND('',#462,.T.);
#519=FACE_BOUND('',#463,.T.);
#520=FACE_BOUND('',#464,.T.);
#521=FACE_BOUND('',#465,.T.);
#522=FACE_BOUND('',#466,.T.);
#523=FACE_BOUND('',#467,.T.);
#524=FACE_BOUND('',#468,.T.);
#525=FACE_BOUND('',#469,.T.);
#526=FACE_BOUND('',#470,.T.);
#527=FACE_BOUND('',#471,.T.);
#528=FACE_BOUND('',#472,.T.);
#529=FACE_BOUND('',#473,.T.);
#530=FACE_BOUND('',#474,.T.);
#531=FACE_BOUND('',#475,.T.);
#532=FACE_BOUND('',#476,.T.);
#533=FACE_BOUND('',#477,.T.);
#534=FACE_BOUND('',#478,.T.);
#535=FACE_BOUND('',#479,.T.);
#536=FACE_BOUND('',#480,.T.);
#537=FACE_BOUND('',#481,.T.);
#538=FACE_BOUND('',#482,.T.);
#539=FACE_BOUND('',#483,.T.);
#540=FACE_BOUND('',#484,.T.);
#541=FACE_BOUND('',#485,.T.);
#542=FACE_BOUND('',#486,.T.);
#543=FACE_BOUND('',#487,.T.);
#544=FACE_BOUND('',#488,.T.);
#545=FACE_BOUND('',#489,.T.);
#546=FACE_BOUND('',#490,.T.);
#547=FACE_BOUND('',#491,.T.);
#548=FACE_BOUND('',#492,.T.);
#549=FACE_BOUND('',#493,.T.);
#550=FACE_BOUND('',#494,.T.);
#551=FACE_BOUND('',#495,.T.);
#552=FACE_BOUND('',#496,.T.);
#553=FACE_BOUND('',#497,.T.);
#554=FACE_BOUND('',#498,.T.);
#555=FACE_BOUND('',#499,.T.);
#556=FACE_BOUND('',#500,.T.);
#557=FACE_BOUND('',#501,.T.);
#558=FACE_BOUND('',#502,.T.);
#559=FACE_BOUND('',#503,.T.);
#560=FACE_BOUND('',#504,.T.);
#561=FACE_BOUND('',#505,.T.);
#562=FACE_BOUND('',#506,.T.);
#563=FACE_BOUND('',#507,.T.);
#564=FACE_BOUND('',#508,.T.);
#565=PLANE('',#633);
#566=PLANE('',#637);
#567=PLANE('',#643);
#568=PLANE('',#644);
#569=PLANE('',#645);
#570=PLANE('',#646);
#571=PLANE('',#647);
#572=PLANE('',#648);
#573=PLANE('',#649);
#574=PLANE('',#650);
#575=PLANE('',#657);
#576=PLANE('',#658);
#577=PLANE('',#664);
#578=PLANE('',#665);
#579=PLANE('',#666);
#580=PLANE('',#667);
#581=PLANE('',#668);
#582=PLANE('',#669);
#583=PLANE('',#670);
#584=PLANE('',#671);
#585=PLANE('',#672);
#586=PLANE('',#673);
#587=PLANE('',#674);
#588=PLANE('',#675);
#589=ADVANCED_FACE('',(#509,#510,#511,#512,#513,#514,#515,#516),#565,.T.);
#590=ADVANCED_FACE('',(#517,#518,#519,#520,#521,#522,#523,#524,#525,#526),
#566,.T.);
#591=ADVANCED_FACE('',(#527),#567,.T.);
#592=ADVANCED_FACE('',(#528),#568,.T.);
#593=ADVANCED_FACE('',(#529),#569,.T.);
#594=ADVANCED_FACE('',(#530),#570,.T.);
#595=ADVANCED_FACE('',(#531),#571,.T.);
#596=ADVANCED_FACE('',(#532),#572,.T.);
#597=ADVANCED_FACE('',(#533),#573,.T.);
#598=ADVANCED_FACE('',(#534),#574,.T.);
#599=ADVANCED_FACE('',(#535,#536),#14,.F.);
#600=ADVANCED_FACE('',(#537,#538),#15,.F.);
#601=ADVANCED_FACE('',(#539,#540,#541),#575,.F.);
#602=ADVANCED_FACE('',(#542),#576,.T.);
#603=ADVANCED_FACE('',(#543,#544),#16,.F.);
#604=ADVANCED_FACE('',(#545,#546),#17,.F.);
#605=ADVANCED_FACE('',(#547,#548),#18,.F.);
#606=ADVANCED_FACE('',(#549,#550),#12,.F.);
#607=ADVANCED_FACE('',(#551,#552),#13,.F.);
#608=ADVANCED_FACE('',(#553),#577,.T.);
#609=ADVANCED_FACE('',(#554),#578,.T.);
#610=ADVANCED_FACE('',(#555),#579,.T.);
#611=ADVANCED_FACE('',(#556),#580,.T.);
#612=ADVANCED_FACE('',(#557),#581,.T.);
#613=ADVANCED_FACE('',(#558),#582,.T.);
#614=ADVANCED_FACE('',(#559),#583,.T.);
#615=ADVANCED_FACE('',(#560),#584,.T.);
#616=ADVANCED_FACE('',(#561),#585,.T.);
#617=ADVANCED_FACE('',(#562),#586,.T.);
#618=ADVANCED_FACE('',(#563),#587,.T.);
#619=ADVANCED_FACE('',(#564),#588,.T.);
#620=CLOSED_SHELL('',(#589,#590,#591,#592,#593,#594,#595,#596,#597,#598,
#599,#600,#601,#602,#603,#604,#605,#606,#607,#608,#609,#610,#611,#612,#613,
#614,#615,#616,#617,#618,#619));
#621=STYLED_ITEM('',(#622),#629);
#622=PRESENTATION_STYLE_ASSIGNMENT((#623));
#623=SURFACE_STYLE_USAGE(.BOTH.,#624);
#624=SURFACE_SIDE_STYLE('',(#625));
#625=SURFACE_STYLE_FILL_AREA(#626);
#626=FILL_AREA_STYLE('',(#627));
#627=FILL_AREA_STYLE_COLOUR('',#628);
#628=COLOUR_RGB('',0.866666666666667,0.32156862745098,0.156862745098039);
#629=MANIFOLD_SOLID_BREP('Z-TopMount',#620);
#630=SHAPE_DEFINITION_REPRESENTATION(#1002,#631);
#631=SHAPE_REPRESENTATION('Z-TopMount',(#632),#997);
#632=AXIS2_PLACEMENT_3D('',#830,#676,#677);
#633=AXIS2_PLACEMENT_3D('',#831,#678,#679);
#634=AXIS2_PLACEMENT_3D('',#832,#680,#681);
#635=AXIS2_PLACEMENT_3D('',#834,#682,#683);
#636=AXIS2_PLACEMENT_3D('',#836,#684,#685);
#637=AXIS2_PLACEMENT_3D('',#874,#704,#705);
#638=AXIS2_PLACEMENT_3D('',#875,#706,#707);
#639=AXIS2_PLACEMENT_3D('',#877,#708,#709);
#640=AXIS2_PLACEMENT_3D('',#879,#710,#711);
#641=AXIS2_PLACEMENT_3D('',#897,#720,#721);
#642=AXIS2_PLACEMENT_3D('',#899,#722,#723);
#643=AXIS2_PLACEMENT_3D('',#925,#736,#737);
#644=AXIS2_PLACEMENT_3D('',#932,#742,#743);
#645=AXIS2_PLACEMENT_3D('',#934,#745,#746);
#646=AXIS2_PLACEMENT_3D('',#936,#748,#749);
#647=AXIS2_PLACEMENT_3D('',#938,#751,#752);
#648=AXIS2_PLACEMENT_3D('',#944,#756,#757);
#649=AXIS2_PLACEMENT_3D('',#948,#760,#761);
#650=AXIS2_PLACEMENT_3D('',#952,#764,#765);
#651=AXIS2_PLACEMENT_3D('',#954,#767,#768);
#652=AXIS2_PLACEMENT_3D('',#955,#769,#770);
#653=AXIS2_PLACEMENT_3D('',#957,#771,#772);
#654=AXIS2_PLACEMENT_3D('',#959,#773,#774);
#655=AXIS2_PLACEMENT_3D('',#960,#775,#776);
#656=AXIS2_PLACEMENT_3D('',#962,#777,#778);
#657=AXIS2_PLACEMENT_3D('',#964,#779,#780);
#658=AXIS2_PLACEMENT_3D('',#966,#782,#783);
#659=AXIS2_PLACEMENT_3D('',#967,#784,#785);
#660=AXIS2_PLACEMENT_3D('',#968,#786,#787);
#661=AXIS2_PLACEMENT_3D('',#969,#788,#789);
#662=AXIS2_PLACEMENT_3D('',#970,#790,#791);
#663=AXIS2_PLACEMENT_3D('',#971,#792,#793);
#664=AXIS2_PLACEMENT_3D('',#972,#794,#795);
#665=AXIS2_PLACEMENT_3D('',#975,#798,#799);
#666=AXIS2_PLACEMENT_3D('',#977,#801,#802);
#667=AXIS2_PLACEMENT_3D('',#978,#803,#804);
#668=AXIS2_PLACEMENT_3D('',#981,#807,#808);
#669=AXIS2_PLACEMENT_3D('',#983,#810,#811);
#670=AXIS2_PLACEMENT_3D('',#984,#812,#813);
#671=AXIS2_PLACEMENT_3D('',#987,#816,#817);
#672=AXIS2_PLACEMENT_3D('',#989,#819,#820);
#673=AXIS2_PLACEMENT_3D('',#990,#821,#822);
#674=AXIS2_PLACEMENT_3D('',#993,#825,#826);
#675=AXIS2_PLACEMENT_3D('',#995,#828,#829);
#676=DIRECTION('',(0.,0.,1.));
#677=DIRECTION('',(1.,0.,0.));
#678=DIRECTION('',(0.,1.,0.));
#679=DIRECTION('',(1.,0.,0.));
#680=DIRECTION('',(0.,1.,0.));
#681=DIRECTION('',(1.,0.,0.));
#682=DIRECTION('',(0.,1.,0.));
#683=DIRECTION('',(1.,0.,0.));
#684=DIRECTION('',(0.,1.,0.));
#685=DIRECTION('',(1.,0.,0.));
#686=DIRECTION('',(0.,0.,-1.));
#687=DIRECTION('',(-1.,0.,0.));
#688=DIRECTION('',(-0.707106781186548,0.,0.707106781186547));
#689=DIRECTION('',(0.,0.,1.));
#690=DIRECTION('',(0.707106781186548,0.,0.707106781186547));
#691=DIRECTION('',(1.,0.,0.));
#692=DIRECTION('',(0.,0.,1.));
#693=DIRECTION('',(-0.484122918275927,0.,-0.875));
#694=DIRECTION('',(0.968245836551854,0.,-0.25));
#695=DIRECTION('',(-0.968245836551854,0.,0.25));
#696=DIRECTION('',(0.,0.,-1.));
#697=DIRECTION('',(0.484122918275927,0.,0.875));
#698=DIRECTION('',(0.,0.,1.));
#699=DIRECTION('',(-0.484122918275927,0.,-0.875));
#700=DIRECTION('',(0.968245836551854,0.,-0.25));
#701=DIRECTION('',(-0.968245836551854,0.,0.25));
#702=DIRECTION('',(0.,0.,-1.));
#703=DIRECTION('',(0.484122918275927,0.,0.875));
#704=DIRECTION('',(0.,-1.,0.));
#705=DIRECTION('',(1.,0.,0.));
#706=DIRECTION('',(0.,-1.,0.));
#707=DIRECTION('',(-1.,0.,0.));
#708=DIRECTION('',(0.,-1.,0.));
#709=DIRECTION('',(-1.,0.,0.));
#710=DIRECTION('',(0.,-1.,0.));
#711=DIRECTION('',(-1.,0.,0.));
#712=DIRECTION('',(1.,0.,0.));
#713=DIRECTION('',(0.707106781186548,0.,0.707106781186547));
#714=DIRECTION('',(0.,0.,1.));
#715=DIRECTION('',(-0.707106781186548,0.,0.707106781186548));
#716=DIRECTION('',(-1.,0.,0.));
#717=DIRECTION('',(-0.707106781186551,0.,-0.707106781186544));
#718=DIRECTION('',(0.,0.,-1.));
#719=DIRECTION('',(0.707106781186553,0.,-0.707106781186542));
#720=DIRECTION('',(0.,-1.,0.));
#721=DIRECTION('',(-1.,0.,0.));
#722=DIRECTION('',(0.,-1.,0.));
#723=DIRECTION('',(-1.,0.,0.));
#724=DIRECTION('',(0.968245836551854,0.,-0.25));
#725=DIRECTION('',(-0.484122918275927,0.,-0.875));
#726=DIRECTION('',(0.,0.,1.));
#727=DIRECTION('',(0.484122918275927,0.,0.875));
#728=DIRECTION('',(0.,0.,-1.));
#729=DIRECTION('',(-0.968245836551854,0.,0.25));
#730=DIRECTION('',(0.968245836551854,0.,-0.25));
#731=DIRECTION('',(-0.484122918275927,0.,-0.875));
#732=DIRECTION('',(0.,0.,1.));
#733=DIRECTION('',(0.484122918275927,0.,0.875));
#734=DIRECTION('',(0.,0.,-1.));
#735=DIRECTION('',(-0.968245836551854,0.,0.25));
#736=DIRECTION('',(0.,0.,1.));
#737=DIRECTION('',(0.,-1.,0.));
#738=DIRECTION('',(0.,1.,0.));
#739=DIRECTION('',(0.,1.,0.));
#740=DIRECTION('',(1.,0.,0.));
#741=DIRECTION('',(0.,1.,0.));
#742=DIRECTION('',(-0.707106781186547,0.,0.707106781186548));
#743=DIRECTION('',(0.707106781186548,0.,0.707106781186547));
#744=DIRECTION('',(0.,1.,0.));
#745=DIRECTION('',(-1.,0.,0.));
#746=DIRECTION('',(0.,1.,0.));
#747=DIRECTION('',(0.,1.,0.));
#748=DIRECTION('',(-0.707106781186548,0.,-0.707106781186548));
#749=DIRECTION('',(-0.707106781186548,0.,0.707106781186548));
#750=DIRECTION('',(0.,1.,0.));
#751=DIRECTION('',(0.,0.,-1.));
#752=DIRECTION('',(0.,1.,0.));
#753=DIRECTION('',(0.,1.,0.));
#754=DIRECTION('',(0.,1.,0.));
#755=DIRECTION('',(-1.,0.,0.));
#756=DIRECTION('',(0.707106781186544,0.,-0.707106781186551));
#757=DIRECTION('',(-0.707106781186551,0.,-0.707106781186544));
#758=DIRECTION('',(0.,1.,0.));
#759=DIRECTION('',(-0.707106781186551,0.,-0.707106781186544));
#760=DIRECTION('',(1.,0.,0.));
#761=DIRECTION('',(0.,-1.,0.));
#762=DIRECTION('',(0.,1.,0.));
#763=DIRECTION('',(0.,0.,-1.));
#764=DIRECTION('',(0.707106781186542,0.,0.707106781186553));
#765=DIRECTION('',(0.707106781186553,0.,-0.707106781186542));
#766=DIRECTION('',(0.707106781186553,0.,-0.707106781186542));
#767=DIRECTION('',(0.,1.,0.));
#768=DIRECTION('',(1.,0.,0.));
#769=DIRECTION('',(0.,-1.,0.));
#770=DIRECTION('',(-1.,0.,0.));
#771=DIRECTION('',(0.,-1.,0.));
#772=DIRECTION('',(-1.,0.,0.));
#773=DIRECTION('',(0.,1.,0.));
#774=DIRECTION('',(1.,0.,0.));
#775=DIRECTION('',(0.,-1.,0.));
#776=DIRECTION('',(-1.,0.,0.));
#777=DIRECTION('',(0.,-1.,0.));
#778=DIRECTION('',(-1.,0.,0.));
#779=DIRECTION('',(0.,-1.,0.));
#780=DIRECTION('',(1.,0.,0.));
#781=DIRECTION('',(0.,0.,1.));
#782=DIRECTION('',(1.,0.,0.));
#783=DIRECTION('',(0.,-1.,0.));
#784=DIRECTION('',(0.,1.,0.));
#785=DIRECTION('',(1.,0.,0.));
#786=DIRECTION('',(0.,1.,0.));
#787=DIRECTION('',(1.,0.,0.));
#788=DIRECTION('',(0.,-1.,0.));
#789=DIRECTION('',(-1.,0.,0.));
#790=DIRECTION('',(0.,-1.,0.));
#791=DIRECTION('',(-1.,0.,0.));
#792=DIRECTION('',(0.,-1.,0.));
#793=DIRECTION('',(-1.,0.,0.));
#794=DIRECTION('',(0.875,0.,-0.484122918275927));
#795=DIRECTION('',(-0.484122918275927,0.,-0.875));
#796=DIRECTION('',(0.,1.,0.));
#797=DIRECTION('',(0.,1.,0.));
#798=DIRECTION('',(-1.,0.,0.));
#799=DIRECTION('',(0.,1.,0.));
#800=DIRECTION('',(0.,1.,0.));
#801=DIRECTION('',(0.25,0.,0.968245836551854));
#802=DIRECTION('',(0.968245836551854,0.,-0.25));
#803=DIRECTION('',(1.,0.,0.));
#804=DIRECTION('',(0.,-1.,0.));
#805=DIRECTION('',(0.,1.,0.));
#806=DIRECTION('',(0.,1.,0.));
#807=DIRECTION('',(-0.25,0.,-0.968245836551854));
#808=DIRECTION('',(-0.968245836551854,0.,0.25));
#809=DIRECTION('',(0.,1.,0.));
#810=DIRECTION('',(-0.875,0.,0.484122918275927));
#811=DIRECTION('',(0.484122918275927,0.,0.875));
#812=DIRECTION('',(0.875,0.,-0.484122918275927));
#813=DIRECTION('',(-0.484122918275927,0.,-0.875));
#814=DIRECTION('',(0.,1.,0.));
#815=DIRECTION('',(0.,1.,0.));
#816=DIRECTION('',(-1.,0.,0.));
#817=DIRECTION('',(0.,1.,0.));
#818=DIRECTION('',(0.,1.,0.));
#819=DIRECTION('',(0.25,0.,0.968245836551854));
#820=DIRECTION('',(0.968245836551854,0.,-0.25));
#821=DIRECTION('',(1.,0.,0.));
#822=DIRECTION('',(0.,-1.,0.));
#823=DIRECTION('',(0.,1.,0.));
#824=DIRECTION('',(0.,1.,0.));
#825=DIRECTION('',(-0.25,0.,-0.968245836551854));
#826=DIRECTION('',(-0.968245836551854,0.,0.25));
#827=DIRECTION('',(0.,1.,0.));
#828=DIRECTION('',(-0.875,0.,0.484122918275927));
#829=DIRECTION('',(0.484122918275927,0.,0.875));
#830=CARTESIAN_POINT('',(0.,0.,0.));
#831=CARTESIAN_POINT('',(-0.0494613039529461,0.324506029657602,0.0185));
#832=CARTESIAN_POINT('',(0.141955178741093,0.324506029657602,0.0735));
#833=CARTESIAN_POINT('',(0.147955178741093,0.324506029657602,0.0735));
#834=CARTESIAN_POINT('',(0.141955178741093,0.324506029657602,-0.0365));
#835=CARTESIAN_POINT('',(0.147955178741093,0.324506029657602,-0.0365));
#836=CARTESIAN_POINT('',(0.141955178741093,0.324506029657602,0.0185));
#837=CARTESIAN_POINT('',(0.145955178741093,0.324506029657602,0.0185));
#838=CARTESIAN_POINT('',(0.163563524404355,0.324506029657602,0.0185));
#839=CARTESIAN_POINT('',(0.163563524404355,0.324506029657602,0.0985));
#840=CARTESIAN_POINT('',(0.163563524404355,0.324506029657602,-0.0615));
#841=CARTESIAN_POINT('',(0.146184351572724,0.324506029657602,-0.0615));
#842=CARTESIAN_POINT('',(0.128805178741093,0.324506029657602,-0.0615));
#843=CARTESIAN_POINT('',(0.124805178741093,0.324506029657602,-0.0575));
#844=CARTESIAN_POINT('',(0.120805178741093,0.324506029657602,-0.0535));
#845=CARTESIAN_POINT('',(0.120805178741093,0.324506029657602,0.0185));
#846=CARTESIAN_POINT('',(0.120805178741093,0.324506029657602,0.0905));
#847=CARTESIAN_POINT('',(0.124805178741093,0.324506029657602,0.0945));
#848=CARTESIAN_POINT('',(0.128805178741093,0.324506029657602,0.0985));
#849=CARTESIAN_POINT('',(0.146184351572724,0.324506029657602,0.0985));
#850=CARTESIAN_POINT('',(0.155288043719303,0.324506029657602,-0.00564309733702924));
#851=CARTESIAN_POINT('',(0.155288043719303,0.324506029657602,-0.0206430973370292));
#852=CARTESIAN_POINT('',(0.155288043719303,0.324506029657602,0.00935690266297076));
#853=CARTESIAN_POINT('',(0.148026199945164,0.324506029657602,-0.00376809733702923));
#854=CARTESIAN_POINT('',(0.140764356171025,0.324506029657602,-0.0168930973370292));
#855=CARTESIAN_POINT('',(0.148026199945164,0.324506029657602,-0.0187680973370292));
#856=CARTESIAN_POINT('',(0.136067022515232,0.324506029657602,0.0566560268666772));
#857=CARTESIAN_POINT('',(0.143328866289371,0.324506029657602,0.0547810268666772));
#858=CARTESIAN_POINT('',(0.128805178741093,0.324506029657602,0.0585310268666772));
#859=CARTESIAN_POINT('',(0.128805178741093,0.324506029657602,0.0435310268666772));
#860=CARTESIAN_POINT('',(0.128805178741093,0.324506029657602,0.0285310268666772));
#861=CARTESIAN_POINT('',(0.136067022515232,0.324506029657602,0.0416560268666772));
#862=CARTESIAN_POINT('',(0.155288043719303,0.324506029657602,0.0435310268666772));
#863=CARTESIAN_POINT('',(0.155288043719303,0.324506029657602,0.0285310268666772));
#864=CARTESIAN_POINT('',(0.155288043719303,0.324506029657602,0.0585310268666772));
#865=CARTESIAN_POINT('',(0.148026199945164,0.324506029657602,0.0454060268666772));
#866=CARTESIAN_POINT('',(0.140764356171025,0.324506029657602,0.0322810268666772));
#867=CARTESIAN_POINT('',(0.148026199945164,0.324506029657602,0.0304060268666772));
#868=CARTESIAN_POINT('',(0.136067022515232,0.324506029657602,0.00748190266297077));
#869=CARTESIAN_POINT('',(0.143328866289371,0.324506029657602,0.00560690266297077));
#870=CARTESIAN_POINT('',(0.128805178741093,0.324506029657602,0.00935690266297076));
#871=CARTESIAN_POINT('',(0.128805178741093,0.324506029657602,-0.00564309733702923));
#872=CARTESIAN_POINT('',(0.128805178741093,0.324506029657602,-0.0206430973370292));
#873=CARTESIAN_POINT('',(0.136067022515232,0.324506029657602,-0.00751809733702923));
#874=CARTESIAN_POINT('',(-0.0397113039529461,0.304506029657602,0.0188810511188456));
#875=CARTESIAN_POINT('',(0.173139499088135,0.304506029657602,0.06835));
#876=CARTESIAN_POINT('',(0.168639499088135,0.304506029657602,0.06835));
#877=CARTESIAN_POINT('',(0.173139499088135,0.304506029657602,-0.03165));
#878=CARTESIAN_POINT('',(0.168639499088135,0.304506029657602,-0.03165));
#879=CARTESIAN_POINT('',(0.141955178741093,0.304506029657602,0.0185));
#880=CARTESIAN_POINT('',(0.137955178741093,0.304506029657602,0.0185));
#881=CARTESIAN_POINT('',(0.151934351572724,0.304506029657602,0.0985));
#882=CARTESIAN_POINT('',(0.128805178741093,0.304506029657602,0.0985));
#883=CARTESIAN_POINT('',(0.175063524404355,0.304506029657602,0.0985));
#884=CARTESIAN_POINT('',(0.124805178741093,0.304506029657602,0.0945));
#885=CARTESIAN_POINT('',(0.120805178741093,0.304506029657602,0.0905));
#886=CARTESIAN_POINT('',(0.120805178741093,0.304506029657602,0.0185));
#887=CARTESIAN_POINT('',(0.120805178741093,0.304506029657602,-0.0535));
#888=CARTESIAN_POINT('',(0.124805178741093,0.304506029657602,-0.0575));
#889=CARTESIAN_POINT('',(0.128805178741093,0.304506029657602,-0.0615));
#890=CARTESIAN_POINT('',(0.151934351572724,0.304506029657602,-0.0615));
#891=CARTESIAN_POINT('',(0.175063524404355,0.304506029657602,-0.0615));
#892=CARTESIAN_POINT('',(0.179063524404355,0.304506029657602,-0.0575));
#893=CARTESIAN_POINT('',(0.183063524404355,0.304506029657602,-0.0535));
#894=CARTESIAN_POINT('',(0.183063524404355,0.304506029657602,0.0185));
#895=CARTESIAN_POINT('',(0.183063524404355,0.304506029657602,0.0905));
#896=CARTESIAN_POINT('',(0.179063524404355,0.304506029657602,0.0945));
#897=CARTESIAN_POINT('',(0.141955178741093,0.304506029657602,0.0735));
#898=CARTESIAN_POINT('',(0.135955178741093,0.304506029657602,0.0735));
#899=CARTESIAN_POINT('',(0.141955178741093,0.304506029657602,-0.0365));
#900=CARTESIAN_POINT('',(0.135955178741093,0.304506029657602,-0.0365));
#901=CARTESIAN_POINT('',(0.148026199945164,0.304506029657602,-0.0187680973370292));
#902=CARTESIAN_POINT('',(0.140764356171025,0.304506029657602,-0.0168930973370292));
#903=CARTESIAN_POINT('',(0.155288043719303,0.304506029657602,-0.0206430973370292));
#904=CARTESIAN_POINT('',(0.148026199945164,0.304506029657602,-0.00376809733702923));
#905=CARTESIAN_POINT('',(0.155288043719303,0.304506029657602,0.00935690266297076));
#906=CARTESIAN_POINT('',(0.155288043719303,0.304506029657602,-0.00564309733702924));
#907=CARTESIAN_POINT('',(0.136067022515232,0.304506029657602,0.0416560268666772));
#908=CARTESIAN_POINT('',(0.128805178741093,0.304506029657602,0.0285310268666772));
#909=CARTESIAN_POINT('',(0.143328866289371,0.304506029657602,0.0547810268666772));
#910=CARTESIAN_POINT('',(0.128805178741093,0.304506029657602,0.0435310268666772));
#911=CARTESIAN_POINT('',(0.128805178741093,0.304506029657602,0.0585310268666772));
#912=CARTESIAN_POINT('',(0.136067022515232,0.304506029657602,0.0566560268666772));
#913=CARTESIAN_POINT('',(0.148026199945164,0.304506029657602,0.0304060268666772));
#914=CARTESIAN_POINT('',(0.140764356171025,0.304506029657602,0.0322810268666772));
#915=CARTESIAN_POINT('',(0.155288043719303,0.304506029657602,0.0285310268666772));
#916=CARTESIAN_POINT('',(0.148026199945164,0.304506029657602,0.0454060268666772));
#917=CARTESIAN_POINT('',(0.155288043719303,0.304506029657602,0.0585310268666772));
#918=CARTESIAN_POINT('',(0.155288043719303,0.304506029657602,0.0435310268666772));
#919=CARTESIAN_POINT('',(0.136067022515232,0.304506029657602,-0.00751809733702923));
#920=CARTESIAN_POINT('',(0.128805178741093,0.304506029657602,-0.0206430973370292));
#921=CARTESIAN_POINT('',(0.143328866289371,0.304506029657602,0.00560690266297077));
#922=CARTESIAN_POINT('',(0.128805178741093,0.304506029657602,-0.00564309733702923));
#923=CARTESIAN_POINT('',(0.128805178741093,0.304506029657602,0.00935690266297076));
#924=CARTESIAN_POINT('',(0.136067022515232,0.304506029657602,0.00748190266297077));
#925=CARTESIAN_POINT('',(0.151934351572724,0.297506029657602,0.0985));
#926=CARTESIAN_POINT('',(0.128805178741093,0.297506029657602,0.0985));
#927=CARTESIAN_POINT('',(0.175063524404355,0.297506029657602,0.0985));
#928=CARTESIAN_POINT('',(0.175063524404355,0.312506029657602,0.0985));
#929=CARTESIAN_POINT('',(0.151934351572724,0.312506029657602,0.0985));
#930=CARTESIAN_POINT('',(0.163563524404355,0.312506029657602,0.0985));
#931=CARTESIAN_POINT('',(0.163563524404355,0.309506029657602,0.0985));
#932=CARTESIAN_POINT('',(0.124805178741093,0.297506029657602,0.0945));
#933=CARTESIAN_POINT('',(0.120805178741093,0.297506029657602,0.0905));
#934=CARTESIAN_POINT('',(0.120805178741093,0.297506029657602,0.0185));
#935=CARTESIAN_POINT('',(0.120805178741093,0.297506029657602,-0.0535));
#936=CARTESIAN_POINT('',(0.124805178741093,0.297506029657602,-0.0575));
#937=CARTESIAN_POINT('',(0.128805178741093,0.297506029657602,-0.0615));
#938=CARTESIAN_POINT('',(0.151934351572724,0.297506029657602,-0.0615));
#939=CARTESIAN_POINT('',(0.175063524404355,0.297506029657602,-0.0615));
#940=CARTESIAN_POINT('',(0.175063524404355,0.312506029657602,-0.0615));
#941=CARTESIAN_POINT('',(0.163563524404355,0.309506029657602,-0.0615));
#942=CARTESIAN_POINT('',(0.163563524404355,0.312506029657602,-0.0615));
#943=CARTESIAN_POINT('',(0.151934351572724,0.312506029657602,-0.0615));
#944=CARTESIAN_POINT('',(0.179063524404355,0.297506029657602,-0.0575));
#945=CARTESIAN_POINT('',(0.183063524404355,0.297506029657602,-0.0535));
#946=CARTESIAN_POINT('',(0.183063524404355,0.312506029657602,-0.0535));
#947=CARTESIAN_POINT('',(0.179063524404355,0.312506029657602,-0.0575));
#948=CARTESIAN_POINT('',(0.183063524404355,0.297506029657602,0.0185));
#949=CARTESIAN_POINT('',(0.183063524404355,0.297506029657602,0.0905));
#950=CARTESIAN_POINT('',(0.183063524404355,0.312506029657602,0.0905));
#951=CARTESIAN_POINT('',(0.183063524404355,0.312506029657602,0.0185));
#952=CARTESIAN_POINT('',(0.179063524404355,0.297506029657602,0.0945));
#953=CARTESIAN_POINT('',(0.179063524404355,0.312506029657602,0.0945));
#954=CARTESIAN_POINT('',(0.173139499088135,0.297506029657602,-0.03165));
#955=CARTESIAN_POINT('',(0.173139499088135,0.306506029657602,-0.03165));
#956=CARTESIAN_POINT('',(0.170639499088135,0.306506029657602,-0.03165));
#957=CARTESIAN_POINT('',(0.173139499088135,0.312506029657602,-0.03165));
#958=CARTESIAN_POINT('',(0.170639499088135,0.312506029657602,-0.03165));
#959=CARTESIAN_POINT('',(0.173139499088135,0.297506029657602,0.06835));
#960=CARTESIAN_POINT('',(0.173139499088135,0.306506029657602,0.06835));
#961=CARTESIAN_POINT('',(0.170639499088135,0.306506029657602,0.06835));
#962=CARTESIAN_POINT('',(0.173139499088135,0.312506029657602,0.06835));
#963=CARTESIAN_POINT('',(0.170639499088135,0.312506029657602,0.06835));
#964=CARTESIAN_POINT('',(-0.0397113039529461,0.312506029657602,0.0188810511188456));
#965=CARTESIAN_POINT('',(0.163563524404355,0.312506029657602,0.0188810511188456));
#966=CARTESIAN_POINT('',(0.163563524404355,0.309506029657602,0.0185));
#967=CARTESIAN_POINT('',(0.141955178741093,0.297506029657602,0.0735));
#968=CARTESIAN_POINT('',(0.141955178741093,0.297506029657602,-0.0365));
#969=CARTESIAN_POINT('',(0.141955178741093,1.15537452636245,0.0185));
#970=CARTESIAN_POINT('',(0.173139499088135,0.306506029657602,0.06835));
#971=CARTESIAN_POINT('',(0.173139499088135,0.306506029657602,-0.03165));
#972=CARTESIAN_POINT('',(0.148026199945164,0.304504029657602,-0.00376809733702923));
#973=CARTESIAN_POINT('',(0.140764356171025,0.304504029657602,-0.0168930973370292));
#974=CARTESIAN_POINT('',(0.155288043719303,0.304504029657602,0.00935690266297076));
#975=CARTESIAN_POINT('',(0.155288043719303,0.304504029657602,-0.00564309733702924));
#976=CARTESIAN_POINT('',(0.155288043719303,0.304504029657602,-0.0206430973370292));
#977=CARTESIAN_POINT('',(0.148026199945164,0.304504029657602,-0.0187680973370292));
#978=CARTESIAN_POINT('',(0.128805178741093,0.304504029657602,0.0435310268666772));
#979=CARTESIAN_POINT('',(0.128805178741093,0.304504029657602,0.0285310268666772));
#980=CARTESIAN_POINT('',(0.128805178741093,0.304504029657602,0.0585310268666772));
#981=CARTESIAN_POINT('',(0.136067022515232,0.304504029657602,0.0566560268666772));
#982=CARTESIAN_POINT('',(0.143328866289371,0.304504029657602,0.0547810268666772));
#983=CARTESIAN_POINT('',(0.136067022515232,0.304504029657602,0.0416560268666772));
#984=CARTESIAN_POINT('',(0.148026199945164,0.304504029657602,0.0454060268666772));
#985=CARTESIAN_POINT('',(0.140764356171025,0.304504029657602,0.0322810268666772));
#986=CARTESIAN_POINT('',(0.155288043719303,0.304504029657602,0.0585310268666772));
#987=CARTESIAN_POINT('',(0.155288043719303,0.304504029657602,0.0435310268666772));
#988=CARTESIAN_POINT('',(0.155288043719303,0.304504029657602,0.0285310268666772));
#989=CARTESIAN_POINT('',(0.148026199945164,0.304504029657602,0.0304060268666772));
#990=CARTESIAN_POINT('',(0.128805178741093,0.304504029657602,-0.00564309733702923));
#991=CARTESIAN_POINT('',(0.128805178741093,0.304504029657602,-0.0206430973370292));
#992=CARTESIAN_POINT('',(0.128805178741093,0.304504029657602,0.00935690266297076));
#993=CARTESIAN_POINT('',(0.136067022515232,0.304504029657602,0.00748190266297077));
#994=CARTESIAN_POINT('',(0.143328866289371,0.304504029657602,0.00560690266297077));
#995=CARTESIAN_POINT('',(0.136067022515232,0.304504029657602,-0.00751809733702923));
#996=MECHANICAL_DESIGN_GEOMETRIC_PRESENTATION_REPRESENTATION('',(#621),
#997);
#997=(
GEOMETRIC_REPRESENTATION_CONTEXT(3)
GLOBAL_UNCERTAINTY_ASSIGNED_CONTEXT((#998))
GLOBAL_UNIT_ASSIGNED_CONTEXT((#1001,#1000,#999))
REPRESENTATION_CONTEXT('Z-TopMount','TOP_LEVEL_ASSEMBLY_PART')
);
#998=UNCERTAINTY_MEASURE_WITH_UNIT(LENGTH_MEASURE(1.E-8),#1001,
'DISTANCE_ACCURACY_VALUE','Maximum Tolerance applied to model');
#999=(
NAMED_UNIT(*)
SI_UNIT($,.STERADIAN.)
SOLID_ANGLE_UNIT()
);
#1000=(
NAMED_UNIT(*)
PLANE_ANGLE_UNIT()
SI_UNIT($,.RADIAN.)
);
#1001=(
LENGTH_UNIT()
NAMED_UNIT(*)
SI_UNIT($,.METRE.)
);
#1002=PRODUCT_DEFINITION_SHAPE('','',#1003);
#1003=PRODUCT_DEFINITION('','',#1005,#1004);
#1004=PRODUCT_DEFINITION_CONTEXT('',#1011,'design');
#1005=PRODUCT_DEFINITION_FORMATION_WITH_SPECIFIED_SOURCE('','',#1007,
 .NOT_KNOWN.);
#1006=PRODUCT_RELATED_PRODUCT_CATEGORY('','',(#1007));
#1007=PRODUCT('Z-TopMount','Z-TopMount','Z-TopMount',(#1009));
#1008=PRODUCT_CATEGORY('','');
#1009=PRODUCT_CONTEXT('',#1011,'mechanical');
#1010=APPLICATION_PROTOCOL_DEFINITION('international standard',
'ap242_managed_model_based_3d_engineering',2020,#1011);
#1011=APPLICATION_CONTEXT('managed model based 3d engineering');
ENDSEC;
END-ISO-10303-21;
