ISO-10303-21;
HEADER;
/* Generated by software containing ST-Developer
 * from STEP Tools, Inc. (www.steptools.com) 
 */
/* OPTION: using custom renumber hook */

FILE_DESCRIPTION(
/* description */ ('STEP AP242 Edition 2',
'CAx-IF Rec.Pracs.---Representation and Presentation of Product Manufa
cturing Information (PMI)---4.0---2014-10-13',
'CAx-IF Rec.Pracs.---3D Tessellated Geometry---0.4---2014-09-14','2;1',
'CAx-IF Rec.Pracs.---User Defined Attributes---1.5---2016-08-15'),
/* implementation_level */ '2;1');

FILE_NAME(
/* name */ 'NOT-618 - LCD Back',
/* time_stamp */ '2026-07-11T06:14:13Z',
/* author */ (''),
/* organization */ (''),
/* preprocessor_version */ 'ST-DEVELOPER v20',
/* originating_system */ 'ONSHAPE BY PTC INC, 1.217',
/* authorisation */ '  ');

FILE_SCHEMA (('AP242_MANAGED_MODEL_BASED_3D_ENGINEERING_MIM_LF { 1 0 10303 442 3 1 4 }'));
ENDSEC;

DATA;
#10=SHAPE_REPRESENTATION_RELATIONSHIP('','',#875,#11);
#11=ADVANCED_BREP_SHAPE_REPRESENTATION('',(#873),#1387);
#12=CYLINDRICAL_SURFACE('',#895,0.00265);
#13=CYLINDRICAL_SURFACE('',#896,0.00265);
#14=CYLINDRICAL_SURFACE('',#917,0.002);
#15=CYLINDRICAL_SURFACE('',#918,0.002);
#16=CYLINDRICAL_SURFACE('',#919,0.002);
#17=CYLINDRICAL_SURFACE('',#920,0.002);
#18=CIRCLE('',#884,0.002);
#19=CIRCLE('',#885,0.002);
#20=CIRCLE('',#887,0.00265);
#21=CIRCLE('',#889,0.00265);
#22=CIRCLE('',#891,0.00265);
#23=CIRCLE('',#892,0.00265);
#24=CIRCLE('',#899,0.002);
#25=CIRCLE('',#900,0.002);
#26=CIRCLE('',#901,0.002);
#27=CIRCLE('',#902,0.002);
#28=CIRCLE('',#908,0.002);
#29=CIRCLE('',#909,0.002);
#30=ORIENTED_EDGE('',*,*,#258,.T.);
#31=ORIENTED_EDGE('',*,*,#259,.T.);
#32=ORIENTED_EDGE('',*,*,#260,.T.);
#33=ORIENTED_EDGE('',*,*,#261,.F.);
#34=ORIENTED_EDGE('',*,*,#262,.F.);
#35=ORIENTED_EDGE('',*,*,#263,.F.);
#36=ORIENTED_EDGE('',*,*,#264,.T.);
#37=ORIENTED_EDGE('',*,*,#265,.T.);
#38=ORIENTED_EDGE('',*,*,#266,.F.);
#39=ORIENTED_EDGE('',*,*,#267,.T.);
#40=ORIENTED_EDGE('',*,*,#268,.T.);
#41=ORIENTED_EDGE('',*,*,#269,.F.);
#42=ORIENTED_EDGE('',*,*,#270,.F.);
#43=ORIENTED_EDGE('',*,*,#271,.T.);
#44=ORIENTED_EDGE('',*,*,#272,.F.);
#45=ORIENTED_EDGE('',*,*,#273,.T.);
#46=ORIENTED_EDGE('',*,*,#274,.T.);
#47=ORIENTED_EDGE('',*,*,#275,.T.);
#48=ORIENTED_EDGE('',*,*,#276,.T.);
#49=ORIENTED_EDGE('',*,*,#277,.T.);
#50=ORIENTED_EDGE('',*,*,#278,.T.);
#51=ORIENTED_EDGE('',*,*,#279,.T.);
#52=ORIENTED_EDGE('',*,*,#280,.F.);
#53=ORIENTED_EDGE('',*,*,#281,.T.);
#54=ORIENTED_EDGE('',*,*,#282,.T.);
#55=ORIENTED_EDGE('',*,*,#283,.F.);
#56=ORIENTED_EDGE('',*,*,#284,.T.);
#57=ORIENTED_EDGE('',*,*,#285,.T.);
#58=ORIENTED_EDGE('',*,*,#286,.F.);
#59=ORIENTED_EDGE('',*,*,#287,.T.);
#60=ORIENTED_EDGE('',*,*,#288,.T.);
#61=ORIENTED_EDGE('',*,*,#289,.F.);
#62=ORIENTED_EDGE('',*,*,#290,.F.);
#63=ORIENTED_EDGE('',*,*,#291,.F.);
#64=ORIENTED_EDGE('',*,*,#266,.T.);
#65=ORIENTED_EDGE('',*,*,#292,.T.);
#66=ORIENTED_EDGE('',*,*,#293,.F.);
#67=ORIENTED_EDGE('',*,*,#294,.T.);
#68=ORIENTED_EDGE('',*,*,#276,.F.);
#69=ORIENTED_EDGE('',*,*,#295,.T.);
#70=ORIENTED_EDGE('',*,*,#296,.T.);
#71=ORIENTED_EDGE('',*,*,#297,.T.);
#72=ORIENTED_EDGE('',*,*,#287,.F.);
#73=ORIENTED_EDGE('',*,*,#298,.T.);
#74=ORIENTED_EDGE('',*,*,#280,.T.);
#75=ORIENTED_EDGE('',*,*,#299,.T.);
#76=ORIENTED_EDGE('',*,*,#300,.T.);
#77=ORIENTED_EDGE('',*,*,#301,.T.);
#78=ORIENTED_EDGE('',*,*,#281,.F.);
#79=ORIENTED_EDGE('',*,*,#302,.T.);
#80=ORIENTED_EDGE('',*,*,#286,.T.);
#81=ORIENTED_EDGE('',*,*,#303,.T.);
#82=ORIENTED_EDGE('',*,*,#304,.T.);
#83=ORIENTED_EDGE('',*,*,#305,.T.);
#84=ORIENTED_EDGE('',*,*,#306,.F.);
#85=ORIENTED_EDGE('',*,*,#307,.T.);
#86=ORIENTED_EDGE('',*,*,#308,.T.);
#87=ORIENTED_EDGE('',*,*,#309,.F.);
#88=ORIENTED_EDGE('',*,*,#310,.F.);
#89=ORIENTED_EDGE('',*,*,#298,.F.);
#90=ORIENTED_EDGE('',*,*,#289,.T.);
#91=ORIENTED_EDGE('',*,*,#311,.T.);
#92=ORIENTED_EDGE('',*,*,#312,.T.);
#93=ORIENTED_EDGE('',*,*,#313,.T.);
#94=ORIENTED_EDGE('',*,*,#278,.F.);
#95=ORIENTED_EDGE('',*,*,#314,.F.);
#96=ORIENTED_EDGE('',*,*,#302,.F.);
#97=ORIENTED_EDGE('',*,*,#283,.T.);
#98=ORIENTED_EDGE('',*,*,#315,.T.);
#99=ORIENTED_EDGE('',*,*,#316,.T.);
#100=ORIENTED_EDGE('',*,*,#317,.T.);
#101=ORIENTED_EDGE('',*,*,#284,.F.);
#102=ORIENTED_EDGE('',*,*,#318,.F.);
#103=ORIENTED_EDGE('',*,*,#319,.T.);
#104=ORIENTED_EDGE('',*,*,#273,.F.);
#105=ORIENTED_EDGE('',*,*,#320,.T.);
#106=ORIENTED_EDGE('',*,*,#269,.T.);
#107=ORIENTED_EDGE('',*,*,#321,.T.);
#108=ORIENTED_EDGE('',*,*,#322,.T.);
#109=ORIENTED_EDGE('',*,*,#323,.T.);
#110=ORIENTED_EDGE('',*,*,#324,.T.);
#111=ORIENTED_EDGE('',*,*,#325,.T.);
#112=ORIENTED_EDGE('',*,*,#326,.F.);
#113=ORIENTED_EDGE('',*,*,#327,.T.);
#114=ORIENTED_EDGE('',*,*,#328,.F.);
#115=ORIENTED_EDGE('',*,*,#329,.T.);
#116=ORIENTED_EDGE('',*,*,#318,.T.);
#117=ORIENTED_EDGE('',*,*,#330,.T.);
#118=ORIENTED_EDGE('',*,*,#331,.F.);
#119=ORIENTED_EDGE('',*,*,#316,.F.);
#120=ORIENTED_EDGE('',*,*,#332,.F.);
#121=ORIENTED_EDGE('',*,*,#312,.F.);
#122=ORIENTED_EDGE('',*,*,#310,.T.);
#123=ORIENTED_EDGE('',*,*,#323,.F.);
#124=ORIENTED_EDGE('',*,*,#314,.T.);
#125=ORIENTED_EDGE('',*,*,#322,.F.);
#126=ORIENTED_EDGE('',*,*,#307,.F.);
#127=ORIENTED_EDGE('',*,*,#333,.T.);
#128=ORIENTED_EDGE('',*,*,#334,.T.);
#129=ORIENTED_EDGE('',*,*,#335,.F.);
#130=ORIENTED_EDGE('',*,*,#336,.T.);
#131=ORIENTED_EDGE('',*,*,#337,.T.);
#132=ORIENTED_EDGE('',*,*,#338,.T.);
#133=ORIENTED_EDGE('',*,*,#339,.T.);
#134=ORIENTED_EDGE('',*,*,#260,.F.);
#135=ORIENTED_EDGE('',*,*,#340,.T.);
#136=ORIENTED_EDGE('',*,*,#324,.F.);
#137=ORIENTED_EDGE('',*,*,#341,.T.);
#138=ORIENTED_EDGE('',*,*,#270,.T.);
#139=ORIENTED_EDGE('',*,*,#342,.T.);
#140=ORIENTED_EDGE('',*,*,#343,.T.);
#141=ORIENTED_EDGE('',*,*,#344,.T.);
#142=ORIENTED_EDGE('',*,*,#264,.F.);
#143=ORIENTED_EDGE('',*,*,#345,.T.);
#144=ORIENTED_EDGE('',*,*,#346,.F.);
#145=ORIENTED_EDGE('',*,*,#347,.T.);
#146=ORIENTED_EDGE('',*,*,#348,.T.);
#147=ORIENTED_EDGE('',*,*,#349,.T.);
#148=ORIENTED_EDGE('',*,*,#350,.F.);
#149=ORIENTED_EDGE('',*,*,#334,.F.);
#150=ORIENTED_EDGE('',*,*,#308,.F.);
#151=ORIENTED_EDGE('',*,*,#335,.T.);
#152=ORIENTED_EDGE('',*,*,#350,.T.);
#153=ORIENTED_EDGE('',*,*,#351,.F.);
#154=ORIENTED_EDGE('',*,*,#333,.F.);
#155=ORIENTED_EDGE('',*,*,#306,.T.);
#156=ORIENTED_EDGE('',*,*,#352,.T.);
#157=ORIENTED_EDGE('',*,*,#348,.F.);
#158=ORIENTED_EDGE('',*,*,#352,.F.);
#159=ORIENTED_EDGE('',*,*,#309,.T.);
#160=ORIENTED_EDGE('',*,*,#351,.T.);
#161=ORIENTED_EDGE('',*,*,#349,.F.);
#162=ORIENTED_EDGE('',*,*,#293,.T.);
#163=ORIENTED_EDGE('',*,*,#353,.T.);
#164=ORIENTED_EDGE('',*,*,#343,.F.);
#165=ORIENTED_EDGE('',*,*,#354,.T.);
#166=ORIENTED_EDGE('',*,*,#355,.F.);
#167=ORIENTED_EDGE('',*,*,#356,.F.);
#168=ORIENTED_EDGE('',*,*,#326,.T.);
#169=ORIENTED_EDGE('',*,*,#357,.T.);
#170=ORIENTED_EDGE('',*,*,#258,.F.);
#171=ORIENTED_EDGE('',*,*,#320,.F.);
#172=ORIENTED_EDGE('',*,*,#272,.T.);
#173=ORIENTED_EDGE('',*,*,#358,.T.);
#174=ORIENTED_EDGE('',*,*,#359,.F.);
#175=ORIENTED_EDGE('',*,*,#360,.T.);
#176=ORIENTED_EDGE('',*,*,#261,.T.);
#177=ORIENTED_EDGE('',*,*,#347,.F.);
#178=ORIENTED_EDGE('',*,*,#263,.T.);
#179=ORIENTED_EDGE('',*,*,#361,.F.);
#180=ORIENTED_EDGE('',*,*,#362,.F.);
#181=ORIENTED_EDGE('',*,*,#345,.F.);
#182=ORIENTED_EDGE('',*,*,#346,.T.);
#183=ORIENTED_EDGE('',*,*,#362,.T.);
#184=ORIENTED_EDGE('',*,*,#363,.T.);
#185=ORIENTED_EDGE('',*,*,#359,.T.);
#186=ORIENTED_EDGE('',*,*,#262,.T.);
#187=ORIENTED_EDGE('',*,*,#360,.F.);
#188=ORIENTED_EDGE('',*,*,#363,.F.);
#189=ORIENTED_EDGE('',*,*,#361,.T.);
#190=ORIENTED_EDGE('',*,*,#296,.F.);
#191=ORIENTED_EDGE('',*,*,#364,.T.);
#192=ORIENTED_EDGE('',*,*,#328,.T.);
#193=ORIENTED_EDGE('',*,*,#365,.T.);
#194=ORIENTED_EDGE('',*,*,#331,.T.);
#195=ORIENTED_EDGE('',*,*,#366,.T.);
#196=ORIENTED_EDGE('',*,*,#304,.F.);
#197=ORIENTED_EDGE('',*,*,#367,.T.);
#198=ORIENTED_EDGE('',*,*,#332,.T.);
#199=ORIENTED_EDGE('',*,*,#368,.T.);
#200=ORIENTED_EDGE('',*,*,#300,.F.);
#201=ORIENTED_EDGE('',*,*,#369,.T.);
#202=ORIENTED_EDGE('',*,*,#356,.T.);
#203=ORIENTED_EDGE('',*,*,#338,.F.);
#204=ORIENTED_EDGE('',*,*,#355,.T.);
#205=ORIENTED_EDGE('',*,*,#337,.F.);
#206=ORIENTED_EDGE('',*,*,#291,.T.);
#207=ORIENTED_EDGE('',*,*,#339,.F.);
#208=ORIENTED_EDGE('',*,*,#290,.T.);
#209=ORIENTED_EDGE('',*,*,#336,.F.);
#210=ORIENTED_EDGE('',*,*,#321,.F.);
#211=ORIENTED_EDGE('',*,*,#268,.F.);
#212=ORIENTED_EDGE('',*,*,#370,.F.);
#213=ORIENTED_EDGE('',*,*,#330,.F.);
#214=ORIENTED_EDGE('',*,*,#305,.F.);
#215=ORIENTED_EDGE('',*,*,#366,.F.);
#216=ORIENTED_EDGE('',*,*,#370,.T.);
#217=ORIENTED_EDGE('',*,*,#267,.F.);
#218=ORIENTED_EDGE('',*,*,#319,.F.);
#219=ORIENTED_EDGE('',*,*,#329,.F.);
#220=ORIENTED_EDGE('',*,*,#371,.F.);
#221=ORIENTED_EDGE('',*,*,#274,.F.);
#222=ORIENTED_EDGE('',*,*,#295,.F.);
#223=ORIENTED_EDGE('',*,*,#275,.F.);
#224=ORIENTED_EDGE('',*,*,#371,.T.);
#225=ORIENTED_EDGE('',*,*,#364,.F.);
#226=ORIENTED_EDGE('',*,*,#317,.F.);
#227=ORIENTED_EDGE('',*,*,#367,.F.);
#228=ORIENTED_EDGE('',*,*,#303,.F.);
#229=ORIENTED_EDGE('',*,*,#285,.F.);
#230=ORIENTED_EDGE('',*,*,#315,.F.);
#231=ORIENTED_EDGE('',*,*,#282,.F.);
#232=ORIENTED_EDGE('',*,*,#301,.F.);
#233=ORIENTED_EDGE('',*,*,#368,.F.);
#234=ORIENTED_EDGE('',*,*,#313,.F.);
#235=ORIENTED_EDGE('',*,*,#369,.F.);
#236=ORIENTED_EDGE('',*,*,#299,.F.);
#237=ORIENTED_EDGE('',*,*,#279,.F.);
#238=ORIENTED_EDGE('',*,*,#311,.F.);
#239=ORIENTED_EDGE('',*,*,#288,.F.);
#240=ORIENTED_EDGE('',*,*,#297,.F.);
#241=ORIENTED_EDGE('',*,*,#365,.F.);
#242=ORIENTED_EDGE('',*,*,#357,.F.);
#243=ORIENTED_EDGE('',*,*,#325,.F.);
#244=ORIENTED_EDGE('',*,*,#340,.F.);
#245=ORIENTED_EDGE('',*,*,#259,.F.);
#246=ORIENTED_EDGE('',*,*,#358,.F.);
#247=ORIENTED_EDGE('',*,*,#271,.F.);
#248=ORIENTED_EDGE('',*,*,#341,.F.);
#249=ORIENTED_EDGE('',*,*,#327,.F.);
#250=ORIENTED_EDGE('',*,*,#292,.F.);
#251=ORIENTED_EDGE('',*,*,#265,.F.);
#252=ORIENTED_EDGE('',*,*,#344,.F.);
#253=ORIENTED_EDGE('',*,*,#353,.F.);
#254=ORIENTED_EDGE('',*,*,#294,.F.);
#255=ORIENTED_EDGE('',*,*,#354,.F.);
#256=ORIENTED_EDGE('',*,*,#342,.F.);
#257=ORIENTED_EDGE('',*,*,#277,.F.);
#258=EDGE_CURVE('',#372,#373,#450,.T.);
#259=EDGE_CURVE('',#373,#374,#451,.T.);
#260=EDGE_CURVE('',#374,#375,#452,.T.);
#261=EDGE_CURVE('',#376,#375,#453,.T.);
#262=EDGE_CURVE('',#377,#376,#454,.T.);
#263=EDGE_CURVE('',#378,#377,#455,.T.);
#264=EDGE_CURVE('',#378,#379,#456,.T.);
#265=EDGE_CURVE('',#379,#380,#457,.T.);
#266=EDGE_CURVE('',#381,#380,#458,.T.);
#267=EDGE_CURVE('',#381,#382,#459,.T.);
#268=EDGE_CURVE('',#382,#383,#460,.T.);
#269=EDGE_CURVE('',#372,#383,#461,.T.);
#270=EDGE_CURVE('',#384,#385,#462,.T.);
#271=EDGE_CURVE('',#384,#386,#463,.T.);
#272=EDGE_CURVE('',#387,#386,#464,.T.);
#273=EDGE_CURVE('',#387,#388,#465,.T.);
#274=EDGE_CURVE('',#388,#389,#466,.T.);
#275=EDGE_CURVE('',#389,#390,#467,.T.);
#276=EDGE_CURVE('',#390,#391,#468,.T.);
#277=EDGE_CURVE('',#391,#385,#469,.T.);
#278=EDGE_CURVE('',#392,#393,#470,.T.);
#279=EDGE_CURVE('',#393,#394,#471,.T.);
#280=EDGE_CURVE('',#392,#394,#472,.T.);
#281=EDGE_CURVE('',#395,#396,#473,.T.);
#282=EDGE_CURVE('',#396,#397,#474,.T.);
#283=EDGE_CURVE('',#395,#397,#475,.T.);
#284=EDGE_CURVE('',#398,#399,#476,.T.);
#285=EDGE_CURVE('',#399,#400,#477,.T.);
#286=EDGE_CURVE('',#398,#400,#478,.T.);
#287=EDGE_CURVE('',#401,#402,#479,.T.);
#288=EDGE_CURVE('',#402,#403,#480,.T.);
#289=EDGE_CURVE('',#401,#403,#481,.T.);
#290=EDGE_CURVE('',#404,#404,#18,.T.);
#291=EDGE_CURVE('',#405,#405,#19,.T.);
#292=EDGE_CURVE('',#380,#406,#482,.F.);
#293=EDGE_CURVE('',#407,#406,#483,.T.);
#294=EDGE_CURVE('',#407,#391,#484,.T.);
#295=EDGE_CURVE('',#390,#408,#485,.T.);
#296=EDGE_CURVE('',#408,#409,#486,.T.);
#297=EDGE_CURVE('',#409,#402,#487,.T.);
#298=EDGE_CURVE('',#401,#392,#488,.T.);
#299=EDGE_CURVE('',#394,#410,#489,.F.);
#300=EDGE_CURVE('',#410,#411,#490,.T.);
#301=EDGE_CURVE('',#411,#396,#491,.T.);
#302=EDGE_CURVE('',#395,#398,#492,.T.);
#303=EDGE_CURVE('',#400,#412,#493,.F.);
#304=EDGE_CURVE('',#412,#413,#494,.T.);
#305=EDGE_CURVE('',#413,#381,#495,.F.);
#306=EDGE_CURVE('',#414,#415,#496,.T.);
#307=EDGE_CURVE('',#414,#416,#497,.T.);
#308=EDGE_CURVE('',#416,#417,#498,.T.);
#309=EDGE_CURVE('',#415,#417,#499,.T.);
#310=EDGE_CURVE('',#418,#418,#20,.T.);
#311=EDGE_CURVE('',#403,#419,#500,.T.);
#312=EDGE_CURVE('',#419,#420,#501,.T.);
#313=EDGE_CURVE('',#420,#393,#502,.F.);
#314=EDGE_CURVE('',#421,#421,#21,.T.);
#315=EDGE_CURVE('',#397,#422,#503,.T.);
#316=EDGE_CURVE('',#422,#423,#504,.T.);
#317=EDGE_CURVE('',#423,#399,#505,.F.);
#318=EDGE_CURVE('',#424,#425,#506,.T.);
#319=EDGE_CURVE('',#424,#388,#507,.F.);
#320=EDGE_CURVE('',#387,#372,#508,.T.);
#321=EDGE_CURVE('',#383,#425,#509,.T.);
#322=EDGE_CURVE('',#426,#426,#22,.T.);
#323=EDGE_CURVE('',#427,#427,#23,.T.);
#324=EDGE_CURVE('',#428,#429,#510,.T.);
#325=EDGE_CURVE('',#429,#430,#511,.T.);
#326=EDGE_CURVE('',#431,#430,#512,.T.);
#327=EDGE_CURVE('',#431,#428,#513,.T.);
#328=EDGE_CURVE('',#432,#419,#514,.T.);
#329=EDGE_CURVE('',#432,#424,#515,.T.);
#330=EDGE_CURVE('',#425,#433,#516,.T.);
#331=EDGE_CURVE('',#423,#433,#517,.T.);
#332=EDGE_CURVE('',#420,#422,#518,.T.);
#333=EDGE_CURVE('',#414,#434,#519,.T.);
#334=EDGE_CURVE('',#434,#435,#520,.T.);
#335=EDGE_CURVE('',#416,#435,#521,.T.);
#336=EDGE_CURVE('',#436,#436,#24,.T.);
#337=EDGE_CURVE('',#437,#437,#25,.T.);
#338=EDGE_CURVE('',#438,#438,#26,.T.);
#339=EDGE_CURVE('',#439,#439,#27,.T.);
#340=EDGE_CURVE('',#374,#429,#522,.T.);
#341=EDGE_CURVE('',#428,#384,#523,.F.);
#342=EDGE_CURVE('',#385,#440,#524,.T.);
#343=EDGE_CURVE('',#440,#441,#525,.T.);
#344=EDGE_CURVE('',#441,#379,#526,.F.);
#345=EDGE_CURVE('',#378,#442,#527,.T.);
#346=EDGE_CURVE('',#443,#442,#528,.T.);
#347=EDGE_CURVE('',#443,#375,#529,.T.);
#348=EDGE_CURVE('',#434,#444,#530,.T.);
#349=EDGE_CURVE('',#444,#445,#531,.T.);
#350=EDGE_CURVE('',#435,#445,#532,.T.);
#351=EDGE_CURVE('',#417,#445,#533,.T.);
#352=EDGE_CURVE('',#415,#444,#534,.T.);
#353=EDGE_CURVE('',#406,#441,#535,.T.);
#354=EDGE_CURVE('',#440,#407,#536,.T.);
#355=EDGE_CURVE('',#446,#446,#28,.T.);
#356=EDGE_CURVE('',#447,#447,#29,.T.);
#357=EDGE_CURVE('',#430,#373,#537,.T.);
#358=EDGE_CURVE('',#386,#431,#538,.F.);
#359=EDGE_CURVE('',#448,#443,#539,.T.);
#360=EDGE_CURVE('',#448,#376,#540,.T.);
#361=EDGE_CURVE('',#449,#377,#541,.T.);
#362=EDGE_CURVE('',#442,#449,#542,.T.);
#363=EDGE_CURVE('',#449,#448,#543,.T.);
#364=EDGE_CURVE('',#408,#432,#544,.T.);
#365=EDGE_CURVE('',#419,#409,#545,.T.);
#366=EDGE_CURVE('',#433,#413,#546,.T.);
#367=EDGE_CURVE('',#412,#423,#547,.T.);
#368=EDGE_CURVE('',#422,#411,#548,.T.);
#369=EDGE_CURVE('',#410,#420,#549,.T.);
#370=EDGE_CURVE('',#433,#382,#550,.T.);
#371=EDGE_CURVE('',#389,#432,#551,.T.);
#372=VERTEX_POINT('',#1152);
#373=VERTEX_POINT('',#1153);
#374=VERTEX_POINT('',#1155);
#375=VERTEX_POINT('',#1157);
#376=VERTEX_POINT('',#1159);
#377=VERTEX_POINT('',#1161);
#378=VERTEX_POINT('',#1163);
#379=VERTEX_POINT('',#1165);
#380=VERTEX_POINT('',#1167);
#381=VERTEX_POINT('',#1169);
#382=VERTEX_POINT('',#1171);
#383=VERTEX_POINT('',#1173);
#384=VERTEX_POINT('',#1177);
#385=VERTEX_POINT('',#1178);
#386=VERTEX_POINT('',#1180);
#387=VERTEX_POINT('',#1182);
#388=VERTEX_POINT('',#1184);
#389=VERTEX_POINT('',#1186);
#390=VERTEX_POINT('',#1188);
#391=VERTEX_POINT('',#1190);
#392=VERTEX_POINT('',#1194);
#393=VERTEX_POINT('',#1195);
#394=VERTEX_POINT('',#1197);
#395=VERTEX_POINT('',#1201);
#396=VERTEX_POINT('',#1202);
#397=VERTEX_POINT('',#1204);
#398=VERTEX_POINT('',#1208);
#399=VERTEX_POINT('',#1209);
#400=VERTEX_POINT('',#1211);
#401=VERTEX_POINT('',#1215);
#402=VERTEX_POINT('',#1216);
#403=VERTEX_POINT('',#1218);
#404=VERTEX_POINT('',#1222);
#405=VERTEX_POINT('',#1224);
#406=VERTEX_POINT('',#1226);
#407=VERTEX_POINT('',#1228);
#408=VERTEX_POINT('',#1231);
#409=VERTEX_POINT('',#1233);
#410=VERTEX_POINT('',#1237);
#411=VERTEX_POINT('',#1239);
#412=VERTEX_POINT('',#1243);
#413=VERTEX_POINT('',#1245);
#414=VERTEX_POINT('',#1248);
#415=VERTEX_POINT('',#1249);
#416=VERTEX_POINT('',#1251);
#417=VERTEX_POINT('',#1253);
#418=VERTEX_POINT('',#1257);
#419=VERTEX_POINT('',#1259);
#420=VERTEX_POINT('',#1261);
#421=VERTEX_POINT('',#1265);
#422=VERTEX_POINT('',#1267);
#423=VERTEX_POINT('',#1269);
#424=VERTEX_POINT('',#1273);
#425=VERTEX_POINT('',#1274);
#426=VERTEX_POINT('',#1279);
#427=VERTEX_POINT('',#1281);
#428=VERTEX_POINT('',#1284);
#429=VERTEX_POINT('',#1285);
#430=VERTEX_POINT('',#1287);
#431=VERTEX_POINT('',#1289);
#432=VERTEX_POINT('',#1293);
#433=VERTEX_POINT('',#1296);
#434=VERTEX_POINT('',#1303);
#435=VERTEX_POINT('',#1305);
#436=VERTEX_POINT('',#1309);
#437=VERTEX_POINT('',#1311);
#438=VERTEX_POINT('',#1313);
#439=VERTEX_POINT('',#1315);
#440=VERTEX_POINT('',#1319);
#441=VERTEX_POINT('',#1321);
#442=VERTEX_POINT('',#1324);
#443=VERTEX_POINT('',#1326);
#444=VERTEX_POINT('',#1329);
#445=VERTEX_POINT('',#1331);
#446=VERTEX_POINT('',#1343);
#447=VERTEX_POINT('',#1345);
#448=VERTEX_POINT('',#1350);
#449=VERTEX_POINT('',#1354);
#450=LINE('',#1151,#552);
#451=LINE('',#1154,#553);
#452=LINE('',#1156,#554);
#453=LINE('',#1158,#555);
#454=LINE('',#1160,#556);
#455=LINE('',#1162,#557);
#456=LINE('',#1164,#558);
#457=LINE('',#1166,#559);
#458=LINE('',#1168,#560);
#459=LINE('',#1170,#561);
#460=LINE('',#1172,#562);
#461=LINE('',#1174,#563);
#462=LINE('',#1176,#564);
#463=LINE('',#1179,#565);
#464=LINE('',#1181,#566);
#465=LINE('',#1183,#567);
#466=LINE('',#1185,#568);
#467=LINE('',#1187,#569);
#468=LINE('',#1189,#570);
#469=LINE('',#1191,#571);
#470=LINE('',#1193,#572);
#471=LINE('',#1196,#573);
#472=LINE('',#1198,#574);
#473=LINE('',#1200,#575);
#474=LINE('',#1203,#576);
#475=LINE('',#1205,#577);
#476=LINE('',#1207,#578);
#477=LINE('',#1210,#579);
#478=LINE('',#1212,#580);
#479=LINE('',#1214,#581);
#480=LINE('',#1217,#582);
#481=LINE('',#1219,#583);
#482=LINE('',#1225,#584);
#483=LINE('',#1227,#585);
#484=LINE('',#1229,#586);
#485=LINE('',#1230,#587);
#486=LINE('',#1232,#588);
#487=LINE('',#1234,#589);
#488=LINE('',#1235,#590);
#489=LINE('',#1236,#591);
#490=LINE('',#1238,#592);
#491=LINE('',#1240,#593);
#492=LINE('',#1241,#594);
#493=LINE('',#1242,#595);
#494=LINE('',#1244,#596);
#495=LINE('',#1246,#597);
#496=LINE('',#1247,#598);
#497=LINE('',#1250,#599);
#498=LINE('',#1252,#600);
#499=LINE('',#1254,#601);
#500=LINE('',#1258,#602);
#501=LINE('',#1260,#603);
#502=LINE('',#1262,#604);
#503=LINE('',#1266,#605);
#504=LINE('',#1268,#606);
#505=LINE('',#1270,#607);
#506=LINE('',#1272,#608);
#507=LINE('',#1275,#609);
#508=LINE('',#1276,#610);
#509=LINE('',#1277,#611);
#510=LINE('',#1283,#612);
#511=LINE('',#1286,#613);
#512=LINE('',#1288,#614);
#513=LINE('',#1290,#615);
#514=LINE('',#1292,#616);
#515=LINE('',#1294,#617);
#516=LINE('',#1295,#618);
#517=LINE('',#1297,#619);
#518=LINE('',#1298,#620);
#519=LINE('',#1302,#621);
#520=LINE('',#1304,#622);
#521=LINE('',#1306,#623);
#522=LINE('',#1316,#624);
#523=LINE('',#1317,#625);
#524=LINE('',#1318,#626);
#525=LINE('',#1320,#627);
#526=LINE('',#1322,#628);
#527=LINE('',#1323,#629);
#528=LINE('',#1325,#630);
#529=LINE('',#1327,#631);
#530=LINE('',#1328,#632);
#531=LINE('',#1330,#633);
#532=LINE('',#1332,#634);
#533=LINE('',#1334,#635);
#534=LINE('',#1336,#636);
#535=LINE('',#1339,#637);
#536=LINE('',#1340,#638);
#537=LINE('',#1346,#639);
#538=LINE('',#1347,#640);
#539=LINE('',#1349,#641);
#540=LINE('',#1351,#642);
#541=LINE('',#1353,#643);
#542=LINE('',#1355,#644);
#543=LINE('',#1357,#645);
#544=LINE('',#1360,#646);
#545=LINE('',#1361,#647);
#546=LINE('',#1363,#648);
#547=LINE('',#1364,#649);
#548=LINE('',#1366,#650);
#549=LINE('',#1367,#651);
#550=LINE('',#1373,#652);
#551=LINE('',#1376,#653);
#552=VECTOR('',#937,1.);
#553=VECTOR('',#938,1.);
#554=VECTOR('',#939,1.);
#555=VECTOR('',#940,1.);
#556=VECTOR('',#941,1.);
#557=VECTOR('',#942,1.);
#558=VECTOR('',#943,1.);
#559=VECTOR('',#944,1.);
#560=VECTOR('',#945,1.);
#561=VECTOR('',#946,1.);
#562=VECTOR('',#947,1.);
#563=VECTOR('',#948,1.);
#564=VECTOR('',#951,1.);
#565=VECTOR('',#952,1.);
#566=VECTOR('',#953,1.);
#567=VECTOR('',#954,1.);
#568=VECTOR('',#955,1.);
#569=VECTOR('',#956,1.);
#570=VECTOR('',#957,1.);
#571=VECTOR('',#958,1.);
#572=VECTOR('',#961,1.);
#573=VECTOR('',#962,1.);
#574=VECTOR('',#963,1.);
#575=VECTOR('',#966,1.);
#576=VECTOR('',#967,1.);
#577=VECTOR('',#968,1.);
#578=VECTOR('',#971,1.);
#579=VECTOR('',#972,1.);
#580=VECTOR('',#973,1.);
#581=VECTOR('',#976,1.);
#582=VECTOR('',#977,1.);
#583=VECTOR('',#978,1.);
#584=VECTOR('',#985,1.);
#585=VECTOR('',#986,1.);
#586=VECTOR('',#987,1.);
#587=VECTOR('',#988,1.);
#588=VECTOR('',#989,1.);
#589=VECTOR('',#990,1.);
#590=VECTOR('',#991,1.);
#591=VECTOR('',#992,1.);
#592=VECTOR('',#993,1.);
#593=VECTOR('',#994,1.);
#594=VECTOR('',#995,1.);
#595=VECTOR('',#996,1.);
#596=VECTOR('',#997,1.);
#597=VECTOR('',#998,1.);
#598=VECTOR('',#999,1.);
#599=VECTOR('',#1000,1.);
#600=VECTOR('',#1001,1.);
#601=VECTOR('',#1002,1.);
#602=VECTOR('',#1007,1.);
#603=VECTOR('',#1008,1.);
#604=VECTOR('',#1009,1.);
#605=VECTOR('',#1014,1.);
#606=VECTOR('',#1015,1.);
#607=VECTOR('',#1016,1.);
#608=VECTOR('',#1019,1.);
#609=VECTOR('',#1020,1.);
#610=VECTOR('',#1021,1.);
#611=VECTOR('',#1022,1.);
#612=VECTOR('',#1029,1.);
#613=VECTOR('',#1030,1.);
#614=VECTOR('',#1031,1.);
#615=VECTOR('',#1032,1.);
#616=VECTOR('',#1035,1.);
#617=VECTOR('',#1036,1.);
#618=VECTOR('',#1037,1.);
#619=VECTOR('',#1038,1.);
#620=VECTOR('',#1039,1.);
#621=VECTOR('',#1046,1.);
#622=VECTOR('',#1047,1.);
#623=VECTOR('',#1048,1.);
#624=VECTOR('',#1059,1.);
#625=VECTOR('',#1060,1.);
#626=VECTOR('',#1061,1.);
#627=VECTOR('',#1062,1.);
#628=VECTOR('',#1063,1.);
#629=VECTOR('',#1064,1.);
#630=VECTOR('',#1065,1.);
#631=VECTOR('',#1066,1.);
#632=VECTOR('',#1067,1.);
#633=VECTOR('',#1068,1.);
#634=VECTOR('',#1069,1.);
#635=VECTOR('',#1072,1.);
#636=VECTOR('',#1075,1.);
#637=VECTOR('',#1080,1.);
#638=VECTOR('',#1081,1.);
#639=VECTOR('',#1088,1.);
#640=VECTOR('',#1089,1.);
#641=VECTOR('',#1092,1.);
#642=VECTOR('',#1093,1.);
#643=VECTOR('',#1096,1.);
#644=VECTOR('',#1097,1.);
#645=VECTOR('',#1100,1.);
#646=VECTOR('',#1105,1.);
#647=VECTOR('',#1106,1.);
#648=VECTOR('',#1109,1.);
#649=VECTOR('',#1110,1.);
#650=VECTOR('',#1113,1.);
#651=VECTOR('',#1114,1.);
#652=VECTOR('',#1125,1.);
#653=VECTOR('',#1130,1.);
#654=EDGE_LOOP('',(#30,#31,#32,#33,#34,#35,#36,#37,#38,#39,#40,#41));
#655=EDGE_LOOP('',(#42,#43,#44,#45,#46,#47,#48,#49));
#656=EDGE_LOOP('',(#50,#51,#52));
#657=EDGE_LOOP('',(#53,#54,#55));
#658=EDGE_LOOP('',(#56,#57,#58));
#659=EDGE_LOOP('',(#59,#60,#61));
#660=EDGE_LOOP('',(#62));
#661=EDGE_LOOP('',(#63));
#662=EDGE_LOOP('',(#64,#65,#66,#67,#68,#69,#70,#71,#72,#73,#74,#75,#76,
#77,#78,#79,#80,#81,#82,#83));
#663=EDGE_LOOP('',(#84,#85,#86,#87));
#664=EDGE_LOOP('',(#88));
#665=EDGE_LOOP('',(#89,#90,#91,#92,#93,#94));
#666=EDGE_LOOP('',(#95));
#667=EDGE_LOOP('',(#96,#97,#98,#99,#100,#101));
#668=EDGE_LOOP('',(#102,#103,#104,#105,#106,#107));
#669=EDGE_LOOP('',(#108));
#670=EDGE_LOOP('',(#109));
#671=EDGE_LOOP('',(#110,#111,#112,#113));
#672=EDGE_LOOP('',(#114,#115,#116,#117,#118,#119,#120,#121));
#673=EDGE_LOOP('',(#122));
#674=EDGE_LOOP('',(#123));
#675=EDGE_LOOP('',(#124));
#676=EDGE_LOOP('',(#125));
#677=EDGE_LOOP('',(#126,#127,#128,#129));
#678=EDGE_LOOP('',(#130));
#679=EDGE_LOOP('',(#131));
#680=EDGE_LOOP('',(#132));
#681=EDGE_LOOP('',(#133));
#682=EDGE_LOOP('',(#134,#135,#136,#137,#138,#139,#140,#141,#142,#143,#144,
#145));
#683=EDGE_LOOP('',(#146,#147,#148,#149));
#684=EDGE_LOOP('',(#150,#151,#152,#153));
#685=EDGE_LOOP('',(#154,#155,#156,#157));
#686=EDGE_LOOP('',(#158,#159,#160,#161));
#687=EDGE_LOOP('',(#162,#163,#164,#165));
#688=EDGE_LOOP('',(#166));
#689=EDGE_LOOP('',(#167));
#690=EDGE_LOOP('',(#168,#169,#170,#171,#172,#173));
#691=EDGE_LOOP('',(#174,#175,#176,#177));
#692=EDGE_LOOP('',(#178,#179,#180,#181));
#693=EDGE_LOOP('',(#182,#183,#184,#185));
#694=EDGE_LOOP('',(#186,#187,#188,#189));
#695=EDGE_LOOP('',(#190,#191,#192,#193));
#696=EDGE_LOOP('',(#194,#195,#196,#197));
#697=EDGE_LOOP('',(#198,#199,#200,#201));
#698=EDGE_LOOP('',(#202));
#699=EDGE_LOOP('',(#203));
#700=EDGE_LOOP('',(#204));
#701=EDGE_LOOP('',(#205));
#702=EDGE_LOOP('',(#206));
#703=EDGE_LOOP('',(#207));
#704=EDGE_LOOP('',(#208));
#705=EDGE_LOOP('',(#209));
#706=EDGE_LOOP('',(#210,#211,#212,#213));
#707=EDGE_LOOP('',(#214,#215,#216,#217));
#708=EDGE_LOOP('',(#218,#219,#220,#221));
#709=EDGE_LOOP('',(#222,#223,#224,#225));
#710=EDGE_LOOP('',(#226,#227,#228,#229));
#711=EDGE_LOOP('',(#230,#231,#232,#233));
#712=EDGE_LOOP('',(#234,#235,#236,#237));
#713=EDGE_LOOP('',(#238,#239,#240,#241));
#714=EDGE_LOOP('',(#242,#243,#244,#245));
#715=EDGE_LOOP('',(#246,#247,#248,#249));
#716=EDGE_LOOP('',(#250,#251,#252,#253));
#717=EDGE_LOOP('',(#254,#255,#256,#257));
#718=FACE_BOUND('',#654,.T.);
#719=FACE_BOUND('',#655,.T.);
#720=FACE_BOUND('',#656,.T.);
#721=FACE_BOUND('',#657,.T.);
#722=FACE_BOUND('',#658,.T.);
#723=FACE_BOUND('',#659,.T.);
#724=FACE_BOUND('',#660,.T.);
#725=FACE_BOUND('',#661,.T.);
#726=FACE_BOUND('',#662,.T.);
#727=FACE_BOUND('',#663,.T.);
#728=FACE_BOUND('',#664,.T.);
#729=FACE_BOUND('',#665,.T.);
#730=FACE_BOUND('',#666,.T.);
#731=FACE_BOUND('',#667,.T.);
#732=FACE_BOUND('',#668,.T.);
#733=FACE_BOUND('',#669,.T.);
#734=FACE_BOUND('',#670,.T.);
#735=FACE_BOUND('',#671,.T.);
#736=FACE_BOUND('',#672,.T.);
#737=FACE_BOUND('',#673,.T.);
#738=FACE_BOUND('',#674,.T.);
#739=FACE_BOUND('',#675,.T.);
#740=FACE_BOUND('',#676,.T.);
#741=FACE_BOUND('',#677,.T.);
#742=FACE_BOUND('',#678,.T.);
#743=FACE_BOUND('',#679,.T.);
#744=FACE_BOUND('',#680,.T.);
#745=FACE_BOUND('',#681,.T.);
#746=FACE_BOUND('',#682,.T.);
#747=FACE_BOUND('',#683,.T.);
#748=FACE_BOUND('',#684,.T.);
#749=FACE_BOUND('',#685,.T.);
#750=FACE_BOUND('',#686,.T.);
#751=FACE_BOUND('',#687,.T.);
#752=FACE_BOUND('',#688,.T.);
#753=FACE_BOUND('',#689,.T.);
#754=FACE_BOUND('',#690,.T.);
#755=FACE_BOUND('',#691,.T.);
#756=FACE_BOUND('',#692,.T.);
#757=FACE_BOUND('',#693,.T.);
#758=FACE_BOUND('',#694,.T.);
#759=FACE_BOUND('',#695,.T.);
#760=FACE_BOUND('',#696,.T.);
#761=FACE_BOUND('',#697,.T.);
#762=FACE_BOUND('',#698,.T.);
#763=FACE_BOUND('',#699,.T.);
#764=FACE_BOUND('',#700,.T.);
#765=FACE_BOUND('',#701,.T.);
#766=FACE_BOUND('',#702,.T.);
#767=FACE_BOUND('',#703,.T.);
#768=FACE_BOUND('',#704,.T.);
#769=FACE_BOUND('',#705,.T.);
#770=FACE_BOUND('',#706,.T.);
#771=FACE_BOUND('',#707,.T.);
#772=FACE_BOUND('',#708,.T.);
#773=FACE_BOUND('',#709,.T.);
#774=FACE_BOUND('',#710,.T.);
#775=FACE_BOUND('',#711,.T.);
#776=FACE_BOUND('',#712,.T.);
#777=FACE_BOUND('',#713,.T.);
#778=FACE_BOUND('',#714,.T.);
#779=FACE_BOUND('',#715,.T.);
#780=FACE_BOUND('',#716,.T.);
#781=FACE_BOUND('',#717,.T.);
#782=PLANE('',#877);
#783=PLANE('',#878);
#784=PLANE('',#879);
#785=PLANE('',#880);
#786=PLANE('',#881);
#787=PLANE('',#882);
#788=PLANE('',#883);
#789=PLANE('',#886);
#790=PLANE('',#888);
#791=PLANE('',#890);
#792=PLANE('',#893);
#793=PLANE('',#894);
#794=PLANE('',#897);
#795=PLANE('',#898);
#796=PLANE('',#903);
#797=PLANE('',#904);
#798=PLANE('',#905);
#799=PLANE('',#906);
#800=PLANE('',#907);
#801=PLANE('',#910);
#802=PLANE('',#911);
#803=PLANE('',#912);
#804=PLANE('',#913);
#805=PLANE('',#914);
#806=PLANE('',#915);
#807=PLANE('',#916);
#808=PLANE('',#921);
#809=PLANE('',#922);
#810=PLANE('',#923);
#811=PLANE('',#924);
#812=PLANE('',#925);
#813=PLANE('',#926);
#814=PLANE('',#927);
#815=PLANE('',#928);
#816=PLANE('',#929);
#817=PLANE('',#930);
#818=PLANE('',#931);
#819=PLANE('',#932);
#820=ADVANCED_FACE('',(#718),#782,.T.);
#821=ADVANCED_FACE('',(#719),#783,.F.);
#822=ADVANCED_FACE('',(#720),#784,.T.);
#823=ADVANCED_FACE('',(#721),#785,.F.);
#824=ADVANCED_FACE('',(#722),#786,.T.);
#825=ADVANCED_FACE('',(#723),#787,.F.);
#826=ADVANCED_FACE('',(#724,#725,#726,#727),#788,.T.);
#827=ADVANCED_FACE('',(#728,#729),#789,.T.);
#828=ADVANCED_FACE('',(#730,#731),#790,.T.);
#829=ADVANCED_FACE('',(#732,#733,#734),#791,.F.);
#830=ADVANCED_FACE('',(#735),#792,.F.);
#831=ADVANCED_FACE('',(#736),#793,.F.);
#832=ADVANCED_FACE('',(#737,#738),#12,.F.);
#833=ADVANCED_FACE('',(#739,#740),#13,.F.);
#834=ADVANCED_FACE('',(#741),#794,.F.);
#835=ADVANCED_FACE('',(#742,#743,#744,#745,#746,#747),#795,.F.);
#836=ADVANCED_FACE('',(#748),#796,.F.);
#837=ADVANCED_FACE('',(#749),#797,.T.);
#838=ADVANCED_FACE('',(#750),#798,.T.);
#839=ADVANCED_FACE('',(#751),#799,.T.);
#840=ADVANCED_FACE('',(#752,#753,#754),#800,.T.);
#841=ADVANCED_FACE('',(#755),#801,.F.);
#842=ADVANCED_FACE('',(#756),#802,.F.);
#843=ADVANCED_FACE('',(#757),#803,.T.);
#844=ADVANCED_FACE('',(#758),#804,.F.);
#845=ADVANCED_FACE('',(#759),#805,.T.);
#846=ADVANCED_FACE('',(#760),#806,.T.);
#847=ADVANCED_FACE('',(#761),#807,.T.);
#848=ADVANCED_FACE('',(#762,#763),#14,.F.);
#849=ADVANCED_FACE('',(#764,#765),#15,.F.);
#850=ADVANCED_FACE('',(#766,#767),#16,.F.);
#851=ADVANCED_FACE('',(#768,#769),#17,.F.);
#852=ADVANCED_FACE('',(#770),#808,.T.);
#853=ADVANCED_FACE('',(#771),#809,.F.);
#854=ADVANCED_FACE('',(#772),#810,.F.);
#855=ADVANCED_FACE('',(#773),#811,.T.);
#856=ADVANCED_FACE('',(#774),#812,.F.);
#857=ADVANCED_FACE('',(#775),#813,.T.);
#858=ADVANCED_FACE('',(#776),#814,.F.);
#859=ADVANCED_FACE('',(#777),#815,.T.);
#860=ADVANCED_FACE('',(#778),#816,.T.);
#861=ADVANCED_FACE('',(#779),#817,.F.);
#862=ADVANCED_FACE('',(#780),#818,.F.);
#863=ADVANCED_FACE('',(#781),#819,.T.);
#864=CLOSED_SHELL('',(#820,#821,#822,#823,#824,#825,#826,#827,#828,#829,
#830,#831,#832,#833,#834,#835,#836,#837,#838,#839,#840,#841,#842,#843,#844,
#845,#846,#847,#848,#849,#850,#851,#852,#853,#854,#855,#856,#857,#858,#859,
#860,#861,#862,#863));
#865=STYLED_ITEM('',(#866),#873);
#866=PRESENTATION_STYLE_ASSIGNMENT((#867));
#867=SURFACE_STYLE_USAGE(.BOTH.,#868);
#868=SURFACE_SIDE_STYLE('',(#869));
#869=SURFACE_STYLE_FILL_AREA(#870);
#870=FILL_AREA_STYLE('',(#871));
#871=FILL_AREA_STYLE_COLOUR('',#872);
#872=COLOUR_RGB('',0.866666666666667,0.32156862745098,0.156862745098039);
#873=MANIFOLD_SOLID_BREP('LCD Back',#864);
#874=SHAPE_DEFINITION_REPRESENTATION(#1392,#875);
#875=SHAPE_REPRESENTATION('LCD Back',(#876),#1387);
#876=AXIS2_PLACEMENT_3D('',#1149,#933,#934);
#877=AXIS2_PLACEMENT_3D('',#1150,#935,#936);
#878=AXIS2_PLACEMENT_3D('',#1175,#949,#950);
#879=AXIS2_PLACEMENT_3D('',#1192,#959,#960);
#880=AXIS2_PLACEMENT_3D('',#1199,#964,#965);
#881=AXIS2_PLACEMENT_3D('',#1206,#969,#970);
#882=AXIS2_PLACEMENT_3D('',#1213,#974,#975);
#883=AXIS2_PLACEMENT_3D('',#1220,#979,#980);
#884=AXIS2_PLACEMENT_3D('',#1221,#981,#982);
#885=AXIS2_PLACEMENT_3D('',#1223,#983,#984);
#886=AXIS2_PLACEMENT_3D('',#1255,#1003,#1004);
#887=AXIS2_PLACEMENT_3D('',#1256,#1005,#1006);
#888=AXIS2_PLACEMENT_3D('',#1263,#1010,#1011);
#889=AXIS2_PLACEMENT_3D('',#1264,#1012,#1013);
#890=AXIS2_PLACEMENT_3D('',#1271,#1017,#1018);
#891=AXIS2_PLACEMENT_3D('',#1278,#1023,#1024);
#892=AXIS2_PLACEMENT_3D('',#1280,#1025,#1026);
#893=AXIS2_PLACEMENT_3D('',#1282,#1027,#1028);
#894=AXIS2_PLACEMENT_3D('',#1291,#1033,#1034);
#895=AXIS2_PLACEMENT_3D('',#1299,#1040,#1041);
#896=AXIS2_PLACEMENT_3D('',#1300,#1042,#1043);
#897=AXIS2_PLACEMENT_3D('',#1301,#1044,#1045);
#898=AXIS2_PLACEMENT_3D('',#1307,#1049,#1050);
#899=AXIS2_PLACEMENT_3D('',#1308,#1051,#1052);
#900=AXIS2_PLACEMENT_3D('',#1310,#1053,#1054);
#901=AXIS2_PLACEMENT_3D('',#1312,#1055,#1056);
#902=AXIS2_PLACEMENT_3D('',#1314,#1057,#1058);
#903=AXIS2_PLACEMENT_3D('',#1333,#1070,#1071);
#904=AXIS2_PLACEMENT_3D('',#1335,#1073,#1074);
#905=AXIS2_PLACEMENT_3D('',#1337,#1076,#1077);
#906=AXIS2_PLACEMENT_3D('',#1338,#1078,#1079);
#907=AXIS2_PLACEMENT_3D('',#1341,#1082,#1083);
#908=AXIS2_PLACEMENT_3D('',#1342,#1084,#1085);
#909=AXIS2_PLACEMENT_3D('',#1344,#1086,#1087);
#910=AXIS2_PLACEMENT_3D('',#1348,#1090,#1091);
#911=AXIS2_PLACEMENT_3D('',#1352,#1094,#1095);
#912=AXIS2_PLACEMENT_3D('',#1356,#1098,#1099);
#913=AXIS2_PLACEMENT_3D('',#1358,#1101,#1102);
#914=AXIS2_PLACEMENT_3D('',#1359,#1103,#1104);
#915=AXIS2_PLACEMENT_3D('',#1362,#1107,#1108);
#916=AXIS2_PLACEMENT_3D('',#1365,#1111,#1112);
#917=AXIS2_PLACEMENT_3D('',#1368,#1115,#1116);
#918=AXIS2_PLACEMENT_3D('',#1369,#1117,#1118);
#919=AXIS2_PLACEMENT_3D('',#1370,#1119,#1120);
#920=AXIS2_PLACEMENT_3D('',#1371,#1121,#1122);
#921=AXIS2_PLACEMENT_3D('',#1372,#1123,#1124);
#922=AXIS2_PLACEMENT_3D('',#1374,#1126,#1127);
#923=AXIS2_PLACEMENT_3D('',#1375,#1128,#1129);
#924=AXIS2_PLACEMENT_3D('',#1377,#1131,#1132);
#925=AXIS2_PLACEMENT_3D('',#1378,#1133,#1134);
#926=AXIS2_PLACEMENT_3D('',#1379,#1135,#1136);
#927=AXIS2_PLACEMENT_3D('',#1380,#1137,#1138);
#928=AXIS2_PLACEMENT_3D('',#1381,#1139,#1140);
#929=AXIS2_PLACEMENT_3D('',#1382,#1141,#1142);
#930=AXIS2_PLACEMENT_3D('',#1383,#1143,#1144);
#931=AXIS2_PLACEMENT_3D('',#1384,#1145,#1146);
#932=AXIS2_PLACEMENT_3D('',#1385,#1147,#1148);
#933=DIRECTION('',(0.,0.,1.));
#934=DIRECTION('',(1.,0.,0.));
#935=DIRECTION('',(-1.,0.,0.));
#936=DIRECTION('',(0.,0.,1.));
#937=DIRECTION('',(0.,-0.5,-0.866025403784439));
#938=DIRECTION('',(0.,-0.866025403784439,0.5));
#939=DIRECTION('',(3.39907768361723E-33,0.5,0.866025403784439));
#940=DIRECTION('',(6.12323399573677E-17,-0.86602540378444,0.5));
#941=DIRECTION('',(2.77333911991762E-32,-0.5,-0.866025403784439));
#942=DIRECTION('',(-6.12323399573677E-17,0.866025403784436,-0.5));
#943=DIRECTION('',(3.39907768361723E-33,0.5,0.866025403784439));
#944=DIRECTION('',(0.,0.866025403784439,-0.5));
#945=DIRECTION('',(3.08148791101958E-33,0.5,0.866025403784439));
#946=DIRECTION('',(0.,-0.0516926295616055,-0.998663042296553));
#947=DIRECTION('',(0.,0.,-1.));
#948=DIRECTION('',(0.,1.,0.));
#949=DIRECTION('',(-1.,0.,0.));
#950=DIRECTION('',(0.,0.,1.));
#951=DIRECTION('',(2.02595442449846E-16,0.5,0.866025403784439));
#952=DIRECTION('',(0.,0.866025403784439,-0.5));
#953=DIRECTION('',(0.,-0.5,-0.866025403784439));
#954=DIRECTION('',(0.,1.,0.));
#955=DIRECTION('',(0.,0.,1.));
#956=DIRECTION('',(0.,0.0516926295616055,0.998663042296553));
#957=DIRECTION('',(2.02595442449846E-16,0.5,0.866025403784439));
#958=DIRECTION('',(0.,-0.866025403784439,0.5));
#959=DIRECTION('',(1.,5.30287619362454E-17,-3.06161699786838E-17));
#960=DIRECTION('',(-5.30287619362454E-17,1.,0.));
#961=DIRECTION('',(-5.30287619362454E-17,1.,0.));
#962=DIRECTION('',(2.78340413074998E-17,0.0516926295616055,0.998663042296553));
#963=DIRECTION('',(2.03944661017033E-32,0.5,0.866025403784439));
#964=DIRECTION('',(1.,5.30287619362454E-17,-3.06161699786838E-17));
#965=DIRECTION('',(-5.30287619362454E-17,1.,0.));
#966=DIRECTION('',(2.03944661017033E-32,0.5,0.866025403784439));
#967=DIRECTION('',(-2.78340413074998E-17,-0.0516926295616055,-0.998663042296553));
#968=DIRECTION('',(-5.30287619362454E-17,1.,0.));
#969=DIRECTION('',(1.,5.30287619362454E-17,-3.06161699786838E-17));
#970=DIRECTION('',(-5.30287619362454E-17,1.,0.));
#971=DIRECTION('',(-5.30287619362454E-17,1.,0.));
#972=DIRECTION('',(2.78340413074998E-17,0.0516926295616055,0.998663042296553));
#973=DIRECTION('',(2.03944661017033E-32,0.5,0.866025403784439));
#974=DIRECTION('',(1.,5.30287619362454E-17,-3.06161699786838E-17));
#975=DIRECTION('',(-5.30287619362454E-17,1.,0.));
#976=DIRECTION('',(2.03944661017033E-32,0.5,0.866025403784439));
#977=DIRECTION('',(-2.78340413074998E-17,-0.0516926295616055,-0.998663042296553));
#978=DIRECTION('',(-5.30287619362454E-17,1.,0.));
#979=DIRECTION('',(-6.12323399573677E-17,0.866025403784439,-0.5));
#980=DIRECTION('',(-1.,-5.30287619362454E-17,3.06161699786838E-17));
#981=DIRECTION('',(-6.12323399573677E-17,0.866025403784439,-0.5));
#982=DIRECTION('',(0.,0.5,0.866025403784439));
#983=DIRECTION('',(-6.12323399573677E-17,0.866025403784439,-0.5));
#984=DIRECTION('',(0.,0.5,0.866025403784439));
#985=DIRECTION('',(-0.707106781186546,-0.353553390593274,-0.612372435695796));
#986=DIRECTION('',(-1.,-5.30287619362454E-17,3.06161699786838E-17));
#987=DIRECTION('',(0.707106781186549,-0.353553390593273,-0.612372435695793));
#988=DIRECTION('',(-0.413817231177291,0.45517999164637,0.788394872120292));
#989=DIRECTION('',(-1.,-5.30287619362454E-17,3.06161699786838E-17));
#990=DIRECTION('',(-0.413817231177303,-0.455179991646368,-0.788394872120287));
#991=DIRECTION('',(-1.,-7.07050159149938E-17,0.));
#992=DIRECTION('',(0.413817231177296,-0.455179991646369,-0.78839487212029));
#993=DIRECTION('',(-1.,-5.30287619362454E-17,3.06161699786838E-17));
#994=DIRECTION('',(-0.413817231177298,-0.455179991646369,-0.788394872120289));
#995=DIRECTION('',(-1.,-7.07050159149938E-17,0.));
#996=DIRECTION('',(0.413817231177301,-0.455179991646368,-0.788394872120288));
#997=DIRECTION('',(-1.,-5.30287619362454E-17,3.06161699786838E-17));
#998=DIRECTION('',(0.41381723117729,0.455179991646371,0.788394872120292));
#999=DIRECTION('',(-1.,-5.30287619362454E-17,3.06161699786838E-17));
#1000=DIRECTION('',(-4.00593428432545E-32,0.5,0.866025403784439));
#1001=DIRECTION('',(-1.,-5.30287619362454E-17,3.06161699786838E-17));
#1002=DIRECTION('',(-4.00593428432545E-32,0.5,0.866025403784439));
#1003=DIRECTION('',(0.,0.,1.));
#1004=DIRECTION('',(1.,0.,0.));
#1005=DIRECTION('',(0.,0.,1.));
#1006=DIRECTION('',(1.,0.,0.));
#1007=DIRECTION('',(0.70663362096967,0.707579625000108,0.));
#1008=DIRECTION('',(-1.,0.,0.));
#1009=DIRECTION('',(-0.706633620969663,0.707579625000115,0.));
#1010=DIRECTION('',(0.,0.,1.));
#1011=DIRECTION('',(1.,0.,0.));
#1012=DIRECTION('',(0.,0.,1.));
#1013=DIRECTION('',(1.,0.,0.));
#1014=DIRECTION('',(0.706633620969665,0.707579625000113,0.));
#1015=DIRECTION('',(-1.,0.,0.));
#1016=DIRECTION('',(-0.706633620969668,0.70757962500011,0.));
#1017=DIRECTION('',(0.,0.,1.));
#1018=DIRECTION('',(1.,0.,0.));
#1019=DIRECTION('',(-1.,0.,0.));
#1020=DIRECTION('',(-0.707106781186547,0.707106781186548,0.));
#1021=DIRECTION('',(-1.,0.,0.));
#1022=DIRECTION('',(0.707106781186548,0.707106781186548,0.));
#1023=DIRECTION('',(0.,0.,1.));
#1024=DIRECTION('',(1.,0.,0.));
#1025=DIRECTION('',(0.,0.,1.));
#1026=DIRECTION('',(1.,0.,0.));
#1027=DIRECTION('',(0.,0.5,0.866025403784439));
#1028=DIRECTION('',(0.,-0.866025403784439,0.5));
#1029=DIRECTION('',(-1.,-5.30287619362454E-17,3.06161699786838E-17));
#1030=DIRECTION('',(0.,0.866025403784439,-0.5));
#1031=DIRECTION('',(-1.,0.,0.));
#1032=DIRECTION('',(0.,-0.866025403784439,0.5));
#1033=DIRECTION('',(0.,-1.,0.));
#1034=DIRECTION('',(0.,0.,-1.));
#1035=DIRECTION('',(-1.,0.,0.));
#1036=DIRECTION('',(0.,0.,-1.));
#1037=DIRECTION('',(0.,0.,1.));
#1038=DIRECTION('',(-1.,-7.07050159149938E-17,0.));
#1039=DIRECTION('',(-1.,-7.07050159149938E-17,0.));
#1040=DIRECTION('',(0.,0.,-1.));
#1041=DIRECTION('',(-1.,0.,0.));
#1042=DIRECTION('',(0.,0.,-1.));
#1043=DIRECTION('',(-1.,0.,0.));
#1044=DIRECTION('',(1.,5.30287619362454E-17,-3.06161699786837E-17));
#1045=DIRECTION('',(-5.30287619362454E-17,1.,0.));
#1046=DIRECTION('',(6.12323399573677E-17,-0.866025403784439,0.5));
#1047=DIRECTION('',(-3.73898545197895E-32,0.5,0.866025403784439));
#1048=DIRECTION('',(6.12323399573677E-17,-0.866025403784439,0.5));
#1049=DIRECTION('',(-6.12323399573677E-17,0.866025403784439,-0.5));
#1050=DIRECTION('',(-1.,-5.30287619362454E-17,3.06161699786838E-17));
#1051=DIRECTION('',(-6.12323399573677E-17,0.866025403784439,-0.5));
#1052=DIRECTION('',(0.,0.5,0.866025403784439));
#1053=DIRECTION('',(-6.12323399573677E-17,0.866025403784439,-0.5));
#1054=DIRECTION('',(0.,0.5,0.866025403784439));
#1055=DIRECTION('',(-6.12323399573677E-17,0.866025403784439,-0.5));
#1056=DIRECTION('',(0.,0.5,0.866025403784439));
#1057=DIRECTION('',(-6.12323399573677E-17,0.866025403784439,-0.5));
#1058=DIRECTION('',(0.,0.5,0.866025403784439));
#1059=DIRECTION('',(0.707106781186546,-0.353553390593275,-0.612372435695797));
#1060=DIRECTION('',(-0.707106781186552,-0.353553390593271,-0.612372435695791));
#1061=DIRECTION('',(-0.707106781186549,0.353553390593273,0.612372435695793));
#1062=DIRECTION('',(-1.,-5.30287619362454E-17,3.06161699786838E-17));
#1063=DIRECTION('',(0.707106781186546,0.353553390593274,0.612372435695796));
#1064=DIRECTION('',(1.,5.30287619362454E-17,-3.06161699786838E-17));
#1065=DIRECTION('',(6.16297582203916E-33,0.5,0.866025403784439));
#1066=DIRECTION('',(-1.,-5.30287619362454E-17,3.06161699786838E-17));
#1067=DIRECTION('',(-1.,-5.30287619362454E-17,3.06161699786838E-17));
#1068=DIRECTION('',(-3.73898545197895E-32,0.5,0.866025403784439));
#1069=DIRECTION('',(-1.,-5.30287619362454E-17,3.06161699786838E-17));
#1070=DIRECTION('',(0.,0.5,0.866025403784439));
#1071=DIRECTION('',(0.,-0.866025403784439,0.5));
#1072=DIRECTION('',(6.12323399573677E-17,-0.866025403784439,0.5));
#1073=DIRECTION('',(0.,0.5,0.866025403784439));
#1074=DIRECTION('',(0.,-0.866025403784439,0.5));
#1075=DIRECTION('',(6.12323399573677E-17,-0.866025403784439,0.5));
#1076=DIRECTION('',(1.,5.30287619362454E-17,-3.06161699786837E-17));
#1077=DIRECTION('',(-5.30287619362454E-17,1.,0.));
#1078=DIRECTION('',(0.,0.5,0.866025403784439));
#1079=DIRECTION('',(0.,-0.866025403784439,0.5));
#1080=DIRECTION('',(0.,-0.866025403784439,0.5));
#1081=DIRECTION('',(0.,0.866025403784439,-0.5));
#1082=DIRECTION('',(0.,0.866025403784439,-0.5));
#1083=DIRECTION('',(0.,0.5,0.866025403784439));
#1084=DIRECTION('',(0.,0.866025403784439,-0.5));
#1085=DIRECTION('',(0.,0.5,0.866025403784439));
#1086=DIRECTION('',(0.,0.866025403784439,-0.5));
#1087=DIRECTION('',(0.,0.5,0.866025403784439));
#1088=DIRECTION('',(-0.707106781186546,0.353553390593275,0.612372435695797));
#1089=DIRECTION('',(0.707106781186552,0.353553390593271,0.612372435695791));
#1090=DIRECTION('',(-7.70371977754894E-32,-0.5,-0.86602540378444));
#1091=DIRECTION('',(0.,0.86602540378444,-0.5));
#1092=DIRECTION('',(6.12323399573677E-17,-0.86602540378444,0.5));
#1093=DIRECTION('',(-1.,-5.30287619362454E-17,3.06161699786838E-17));
#1094=DIRECTION('',(-3.50519249878477E-31,0.5,0.866025403784436));
#1095=DIRECTION('',(0.,-0.866025403784436,0.5));
#1096=DIRECTION('',(-1.,-5.30287619362454E-17,3.06161699786838E-17));
#1097=DIRECTION('',(-6.12323399573677E-17,0.866025403784436,-0.5));
#1098=DIRECTION('',(-1.,-5.30287619362454E-17,3.06161699786838E-17));
#1099=DIRECTION('',(5.30287619362454E-17,-1.,-1.62353758919925E-33));
#1100=DIRECTION('',(2.77333911991762E-32,-0.5,-0.866025403784439));
#1101=DIRECTION('',(-6.12323399573677E-17,0.866025403784439,-0.5));
#1102=DIRECTION('',(0.,0.5,0.866025403784439));
#1103=DIRECTION('',(0.,0.998663042296553,-0.0516926295616055));
#1104=DIRECTION('',(0.,0.0516926295616055,0.998663042296553));
#1105=DIRECTION('',(0.,-0.0516926295616055,-0.998663042296553));
#1106=DIRECTION('',(2.78340413074998E-17,0.0516926295616055,0.998663042296553));
#1107=DIRECTION('',(0.,0.998663042296553,-0.0516926295616055));
#1108=DIRECTION('',(0.,0.0516926295616055,0.998663042296553));
#1109=DIRECTION('',(0.,0.0516926295616055,0.998663042296553));
#1110=DIRECTION('',(-2.78340413074998E-17,-0.0516926295616055,-0.998663042296553));
#1111=DIRECTION('',(0.,0.998663042296553,-0.0516926295616055));
#1112=DIRECTION('',(0.,0.0516926295616055,0.998663042296553));
#1113=DIRECTION('',(2.78340413074998E-17,0.0516926295616055,0.998663042296553));
#1114=DIRECTION('',(-2.78340413074998E-17,-0.0516926295616055,-0.998663042296553));
#1115=DIRECTION('',(-6.12323399573677E-17,0.866025403784439,-0.5));
#1116=DIRECTION('',(0.,0.5,0.866025403784439));
#1117=DIRECTION('',(-6.12323399573677E-17,0.866025403784439,-0.5));
#1118=DIRECTION('',(0.,0.5,0.866025403784439));
#1119=DIRECTION('',(-6.12323399573677E-17,0.866025403784439,-0.5));
#1120=DIRECTION('',(0.,0.5,0.866025403784439));
#1121=DIRECTION('',(-6.12323399573677E-17,0.866025403784439,-0.5));
#1122=DIRECTION('',(0.,0.5,0.866025403784439));
#1123=DIRECTION('',(-0.707106781186548,0.707106781186548,0.));
#1124=DIRECTION('',(0.,0.,1.));
#1125=DIRECTION('',(-0.706988560310837,-0.706988560310837,0.0182852721943511));
#1126=DIRECTION('',(0.707106781186557,-0.706161409328271,0.036552208900375));
#1127=DIRECTION('',(0.,-0.0516926295616055,-0.998663042296553));
#1128=DIRECTION('',(-0.707106781186548,-0.707106781186547,0.));
#1129=DIRECTION('',(0.,0.,-1.));
#1130=DIRECTION('',(-0.706988560310837,0.706988560310838,-0.0182852721942539));
#1131=DIRECTION('',(0.707106781186555,0.706161409328273,-0.036552208900375));
#1132=DIRECTION('',(0.,0.0516926295616055,0.998663042296553));
#1133=DIRECTION('',(-0.707106781186546,-0.706161409328282,0.0365522089003756));
#1134=DIRECTION('',(2.78340413074998E-17,0.0516926295616055,0.998663042296553));
#1135=DIRECTION('',(-0.707106781186548,0.70616140932828,-0.0365522089003754));
#1136=DIRECTION('',(-2.78340413074998E-17,-0.0516926295616055,-0.998663042296553));
#1137=DIRECTION('',(-0.707106781186551,-0.706161409328277,0.0365522089003753));
#1138=DIRECTION('',(2.78340413074998E-17,0.0516926295616055,0.998663042296553));
#1139=DIRECTION('',(-0.707106781186544,0.706161409328285,-0.0365522089003757));
#1140=DIRECTION('',(-2.78340413074998E-17,-0.0516926295616055,-0.998663042296553));
#1141=DIRECTION('',(-0.70710678118655,-0.353553390593273,-0.612372435695793));
#1142=DIRECTION('',(0.,0.866025403784439,-0.5));
#1143=DIRECTION('',(-0.707106781186543,0.353553390593276,0.612372435695799));
#1144=DIRECTION('',(0.,-0.866025403784439,0.5));
#1145=DIRECTION('',(0.707106781186549,-0.353553390593273,-0.612372435695794));
#1146=DIRECTION('',(0.,-0.866025403784439,0.5));
#1147=DIRECTION('',(0.707106781186546,0.353553390593275,0.612372435695796));
#1148=DIRECTION('',(0.,0.866025403784439,-0.5));
#1149=CARTESIAN_POINT('',(0.,0.,0.));
#1150=CARTESIAN_POINT('',(-0.129048775100593,-0.198421009107381,0.505967056131344));
#1151=CARTESIAN_POINT('',(-0.129048775100593,-0.211801425740072,0.49515587504017));
#1152=CARTESIAN_POINT('',(-0.129048775100593,-0.208446338772774,0.500967056131344));
#1153=CARTESIAN_POINT('',(-0.129048775100593,-0.214156512707371,0.491076744756565));
#1154=CARTESIAN_POINT('',(-0.129048775100593,-0.218822932896028,0.493770903708637));
#1155=CARTESIAN_POINT('',(-0.129048775100593,-0.218822932896028,0.493770903708637));
#1156=CARTESIAN_POINT('',(-0.129048775100593,-0.194135432896028,0.536530908020494));
#1157=CARTESIAN_POINT('',(-0.129048775100593,-0.197185432896028,0.531248153057409));
#1158=CARTESIAN_POINT('',(-0.129048775100593,-0.197817631440791,0.531613153057409));
#1159=CARTESIAN_POINT('',(-0.129048775100593,-0.196085580633222,0.530613153057409));
#1160=CARTESIAN_POINT('',(-0.129048775100593,-0.189148080633221,0.542629255534918));
#1161=CARTESIAN_POINT('',(-0.129048775100593,-0.182210580633222,0.554645358012427));
#1162=CARTESIAN_POINT('',(-0.129048775100593,-0.183942631440791,0.555645358012427));
#1163=CARTESIAN_POINT('',(-0.129048775100593,-0.183310432896028,0.555280358012427));
#1164=CARTESIAN_POINT('',(-0.129048775100593,-0.194135432896028,0.536530908020494));
#1165=CARTESIAN_POINT('',(-0.129048775100593,-0.169447932896028,0.57929091233235));
#1166=CARTESIAN_POINT('',(-0.129048775100593,-0.159427578967788,0.573505658294506));
#1167=CARTESIAN_POINT('',(-0.129048775100593,-0.164387515458327,0.576369278962482));
#1168=CARTESIAN_POINT('',(-0.129048775100593,-0.189075015458327,0.533609274650626));
#1169=CARTESIAN_POINT('',(-0.129048775100593,-0.189534026981597,0.532814243371063));
#1170=CARTESIAN_POINT('',(-0.129048775100593,-0.190943720407508,0.505580017962795));
#1171=CARTESIAN_POINT('',(-0.129048775100593,-0.190921009107381,0.50601878333945));
#1172=CARTESIAN_POINT('',(-0.129048775100593,-0.190921009107381,0.500967056131344));
#1173=CARTESIAN_POINT('',(-0.129048775100593,-0.190921009107381,0.500967056131344));
#1174=CARTESIAN_POINT('',(-0.129048775100593,-0.198421009107381,0.500967056131344));
#1175=CARTESIAN_POINT('',(-0.0302987751005933,-0.198421009107381,0.505967056131344));
#1176=CARTESIAN_POINT('',(-0.0302987751005933,-0.194135432896028,0.536530908020494));
#1177=CARTESIAN_POINT('',(-0.0302987751005933,-0.218822932896028,0.493770903708637));
#1178=CARTESIAN_POINT('',(-0.0302987751005933,-0.169447932896028,0.57929091233235));
#1179=CARTESIAN_POINT('',(-0.0302987751005933,-0.208802578967788,0.487985649670793));
#1180=CARTESIAN_POINT('',(-0.0302987751005933,-0.214156512707371,0.491076744756565));
#1181=CARTESIAN_POINT('',(-0.0302987751005933,-0.203774942846964,0.509058151217116));
#1182=CARTESIAN_POINT('',(-0.0302987751005933,-0.208446338772774,0.500967056131344));
#1183=CARTESIAN_POINT('',(-0.0302987751005933,-0.198421009107381,0.500967056131344));
#1184=CARTESIAN_POINT('',(-0.0302987751005933,-0.190921009107381,0.500967056131344));
#1185=CARTESIAN_POINT('',(-0.0302987751005933,-0.190921009107381,0.505967056131344));
#1186=CARTESIAN_POINT('',(-0.0302987751005933,-0.190921009107381,0.50601878333945));
#1187=CARTESIAN_POINT('',(-0.0302987751005933,-0.189331444713647,0.536727981668785));
#1188=CARTESIAN_POINT('',(-0.0302987751005933,-0.189534026981597,0.532814243371063));
#1189=CARTESIAN_POINT('',(-0.0302987751005933,-0.189075015458327,0.533609274650626));
#1190=CARTESIAN_POINT('',(-0.0302987751005933,-0.164387515458327,0.576369278962482));
#1191=CARTESIAN_POINT('',(-0.0302987751005933,-0.169447932896028,0.57929091233235));
#1192=CARTESIAN_POINT('',(-0.0706737751005933,-0.187597519653897,0.508255407108059));
#1193=CARTESIAN_POINT('',(-0.0706737751005933,-0.198421009107381,0.505967056131344));
#1194=CARTESIAN_POINT('',(-0.0706737751005933,-0.205034257761433,0.505967056131344));
#1195=CARTESIAN_POINT('',(-0.0706737751005933,-0.190923686602486,0.505967056131344));
#1196=CARTESIAN_POINT('',(-0.0706737751005933,-0.190796665929369,0.50842100078313));
#1197=CARTESIAN_POINT('',(-0.0706737751005933,-0.189534026981597,0.532814243371063));
#1198=CARTESIAN_POINT('',(-0.0706737751005933,-0.199684188195244,0.515233648444011));
#1199=CARTESIAN_POINT('',(-0.0886737751005933,-0.187597519653897,0.508255407108059));
#1200=CARTESIAN_POINT('',(-0.0886737751005933,-0.199684188195244,0.515233648444011));
#1201=CARTESIAN_POINT('',(-0.0886737751005933,-0.205034257761433,0.505967056131344));
#1202=CARTESIAN_POINT('',(-0.0886737751005933,-0.189534026981597,0.532814243371063));
#1203=CARTESIAN_POINT('',(-0.0886737751005933,-0.190918335191974,0.506070441390467));
#1204=CARTESIAN_POINT('',(-0.0886737751005933,-0.190923686602486,0.505967056131344));
#1205=CARTESIAN_POINT('',(-0.0886737751005933,-0.198421009107381,0.505967056131344));
#1206=CARTESIAN_POINT('',(-0.103673775100593,-0.187597519653897,0.508255407108059));
#1207=CARTESIAN_POINT('',(-0.103673775100593,-0.198421009107381,0.505967056131344));
#1208=CARTESIAN_POINT('',(-0.103673775100593,-0.205034257761433,0.505967056131344));
#1209=CARTESIAN_POINT('',(-0.103673775100593,-0.190923686602486,0.505967056131344));
#1210=CARTESIAN_POINT('',(-0.103673775100593,-0.190796665929369,0.50842100078313));
#1211=CARTESIAN_POINT('',(-0.103673775100593,-0.189534026981597,0.532814243371063));
#1212=CARTESIAN_POINT('',(-0.103673775100593,-0.199684188195244,0.515233648444011));
#1213=CARTESIAN_POINT('',(-0.0556737751005933,-0.187597519653897,0.508255407108059));
#1214=CARTESIAN_POINT('',(-0.0556737751005933,-0.199684188195244,0.515233648444011));
#1215=CARTESIAN_POINT('',(-0.0556737751005933,-0.205034257761433,0.505967056131344));
#1216=CARTESIAN_POINT('',(-0.0556737751005933,-0.189534026981597,0.532814243371063));
#1217=CARTESIAN_POINT('',(-0.0556737751005933,-0.190918335191974,0.506070441390467));
#1218=CARTESIAN_POINT('',(-0.0556737751005933,-0.190923686602486,0.505967056131344));
#1219=CARTESIAN_POINT('',(-0.0556737751005933,-0.198421009107381,0.505967056131344));
#1220=CARTESIAN_POINT('',(-0.129048775100593,-0.207921009107381,0.500967056131344));
#1221=CARTESIAN_POINT('',(-0.123048775100593,-0.165887515458327,0.573771202751129));
#1222=CARTESIAN_POINT('',(-0.123048775100593,-0.164887515458327,0.575503253558698));
#1223=CARTESIAN_POINT('',(-0.0362987751005932,-0.165887515458327,0.573771202751129));
#1224=CARTESIAN_POINT('',(-0.0362987751005932,-0.164887515458327,0.575503253558698));
#1225=CARTESIAN_POINT('',(-0.172582268749647,-0.186154262282854,0.538668167546913));
#1226=CARTESIAN_POINT('',(-0.127048775100593,-0.163387515458327,0.578101329770051));
#1227=CARTESIAN_POINT('',(-0.0796737751005933,-0.163387515458327,0.578101329770051));
#1228=CARTESIAN_POINT('',(-0.0322987751005933,-0.163387515458327,0.578101329770051));
#1229=CARTESIAN_POINT('',(-0.0361402814515396,-0.161466762282854,0.58142817185877));
#1230=CARTESIAN_POINT('',(-0.0271482882465218,-0.192999418154019,0.526812009792326));
#1231=CARTESIAN_POINT('',(-0.0322987751005932,-0.187334118629054,0.536624596409661));
#1232=CARTESIAN_POINT('',(-0.0429862751005932,-0.187334118629054,0.536624596409661));
#1233=CARTESIAN_POINT('',(-0.0536737751005932,-0.187334118629054,0.536624596409661));
#1234=CARTESIAN_POINT('',(-0.0588242619546648,-0.192999418154019,0.526812009792327));
#1235=CARTESIAN_POINT('',(0.00032622489940673,-0.205034257761433,0.505967056131344));
#1236=CARTESIAN_POINT('',(-0.0624776136253568,-0.198549429025674,0.51719910898006));
#1237=CARTESIAN_POINT('',(-0.0726737751005933,-0.187334118629054,0.536624596409661));
#1238=CARTESIAN_POINT('',(-0.0796737751005933,-0.187334118629054,0.536624596409661));
#1239=CARTESIAN_POINT('',(-0.0866737751005933,-0.187334118629054,0.536624596409661));
#1240=CARTESIAN_POINT('',(-0.0918242619546648,-0.192999418154019,0.526812009792326));
#1241=CARTESIAN_POINT('',(0.00032622489940673,-0.205034257761433,0.505967056131344));
#1242=CARTESIAN_POINT('',(-0.0954776136253568,-0.198549429025674,0.51719910898006));
#1243=CARTESIAN_POINT('',(-0.105673775100593,-0.187334118629054,0.536624596409661));
#1244=CARTESIAN_POINT('',(-0.116361275100593,-0.187334118629054,0.536624596409661));
#1245=CARTESIAN_POINT('',(-0.127048775100593,-0.187334118629054,0.536624596409661));
#1246=CARTESIAN_POINT('',(-0.138199510526378,-0.199599416629139,0.515380477103542));
#1247=CARTESIAN_POINT('',(-0.0795487751005933,-0.176387515458327,0.555584669271656));
#1248=CARTESIAN_POINT('',(-0.0520487751005933,-0.176387515458327,0.555584669271656));
#1249=CARTESIAN_POINT('',(-0.107048775100593,-0.176387515458327,0.555584669271656));
#1250=CARTESIAN_POINT('',(-0.0520487751005933,-0.172887515458327,0.561646847098147));
#1251=CARTESIAN_POINT('',(-0.0520487751005933,-0.169387515458327,0.567709024924638));
#1252=CARTESIAN_POINT('',(-0.0795487751005933,-0.169387515458327,0.567709024924638));
#1253=CARTESIAN_POINT('',(-0.107048775100593,-0.169387515458327,0.567709024924638));
#1254=CARTESIAN_POINT('',(-0.107048775100593,-0.172887515458327,0.561646847098147));
#1255=CARTESIAN_POINT('',(0.000326224899406729,-0.198421009107381,0.505967056131344));
#1256=CARTESIAN_POINT('',(-0.0632154417672599,-0.198421009107381,0.505967056131344));
#1257=CARTESIAN_POINT('',(-0.0605654417672599,-0.198421009107381,0.505967056131344));
#1258=CARTESIAN_POINT('',(-0.053277052836048,-0.188523755731875,0.505967056131344));
#1259=CARTESIAN_POINT('',(-0.0536737751005932,-0.188921009107381,0.505967056131344));
#1260=CARTESIAN_POINT('',(-0.0796737751005933,-0.188921009107381,0.505967056131344));
#1261=CARTESIAN_POINT('',(-0.0726737751005933,-0.188921009107381,0.505967056131344));
#1262=CARTESIAN_POINT('',(-0.0707372853803148,-0.190860091298532,0.505967056131344));
#1263=CARTESIAN_POINT('',(0.000326224899406729,-0.198421009107381,0.505967056131344));
#1264=CARTESIAN_POINT('',(-0.0961321084339266,-0.198421009107381,0.505967056131344));
#1265=CARTESIAN_POINT('',(-0.0934821084339266,-0.198421009107381,0.505967056131344));
#1266=CARTESIAN_POINT('',(-0.0862770528360481,-0.188523755731875,0.505967056131344));
#1267=CARTESIAN_POINT('',(-0.0866737751005933,-0.188921009107381,0.505967056131344));
#1268=CARTESIAN_POINT('',(-0.0796737751005933,-0.188921009107381,0.505967056131344));
#1269=CARTESIAN_POINT('',(-0.105673775100593,-0.188921009107381,0.505967056131344));
#1270=CARTESIAN_POINT('',(-0.103737285380315,-0.190860091298532,0.505967056131344));
#1271=CARTESIAN_POINT('',(0.000326224899406729,-0.198421009107381,0.500967056131344));
#1272=CARTESIAN_POINT('',(-0.0796737751005933,-0.188921009107381,0.500967056131344));
#1273=CARTESIAN_POINT('',(-0.0322987751005933,-0.188921009107381,0.500967056131344));
#1274=CARTESIAN_POINT('',(-0.127048775100593,-0.188921009107381,0.500967056131344));
#1275=CARTESIAN_POINT('',(-0.0322987751005933,-0.188921009107381,0.500967056131344));
#1276=CARTESIAN_POINT('',(0.707024198966057,-0.208446338772774,0.500967056131344));
#1277=CARTESIAN_POINT('',(-0.129048775100593,-0.190921009107381,0.500967056131344));
#1278=CARTESIAN_POINT('',(-0.0961321084339266,-0.198421009107381,0.500967056131344));
#1279=CARTESIAN_POINT('',(-0.0934821084339266,-0.198421009107381,0.500967056131344));
#1280=CARTESIAN_POINT('',(-0.0632154417672599,-0.198421009107381,0.500967056131344));
#1281=CARTESIAN_POINT('',(-0.0605654417672599,-0.198421009107381,0.500967056131344));
#1282=CARTESIAN_POINT('',(-0.0796737751005933,-0.21476078340752,0.4891162195312));
#1283=CARTESIAN_POINT('',(-0.0796737751005933,-0.219822932896028,0.492038852901068));
#1284=CARTESIAN_POINT('',(-0.0322987751005933,-0.219822932896028,0.492038852901068));
#1285=CARTESIAN_POINT('',(-0.127048775100593,-0.219822932896028,0.492038852901068));
#1286=CARTESIAN_POINT('',(-0.127048775100593,-0.215156512707371,0.489344693948996));
#1287=CARTESIAN_POINT('',(-0.127048775100593,-0.215156512707371,0.489344693948996));
#1288=CARTESIAN_POINT('',(0.707024198966057,-0.215156512707371,0.489344693948996));
#1289=CARTESIAN_POINT('',(-0.0322987751005932,-0.215156512707371,0.489344693948996));
#1290=CARTESIAN_POINT('',(-0.0322987751005933,-0.21476078340752,0.4891162195312));
#1291=CARTESIAN_POINT('',(-0.0796737751005933,-0.188921009107381,0.505967056131344));
#1292=CARTESIAN_POINT('',(-0.0796737751005933,-0.188921009107381,0.505967056131344));
#1293=CARTESIAN_POINT('',(-0.0322987751005933,-0.188921009107381,0.505967056131344));
#1294=CARTESIAN_POINT('',(-0.0322987751005933,-0.188921009107381,0.505967056131344));
#1295=CARTESIAN_POINT('',(-0.127048775100593,-0.188921009107381,0.505967056131344));
#1296=CARTESIAN_POINT('',(-0.127048775100593,-0.188921009107381,0.505967056131344));
#1297=CARTESIAN_POINT('',(0.000326224899406729,-0.188921009107381,0.505967056131344));
#1298=CARTESIAN_POINT('',(0.000326224899406729,-0.188921009107381,0.505967056131344));
#1299=CARTESIAN_POINT('',(-0.0632154417672599,-0.198421009107381,0.505967056131344));
#1300=CARTESIAN_POINT('',(-0.0961321084339266,-0.198421009107381,0.505967056131344));
#1301=CARTESIAN_POINT('',(-0.0520487751005933,-0.17288578340752,0.561645847098147));
#1302=CARTESIAN_POINT('',(-0.0520487751005933,-0.17638578340752,0.555583669271656));
#1303=CARTESIAN_POINT('',(-0.0520487751005933,-0.181447932896028,0.558506302641524));
#1304=CARTESIAN_POINT('',(-0.0520487751005933,-0.177947932896028,0.564568480468015));
#1305=CARTESIAN_POINT('',(-0.0520487751005933,-0.174447932896028,0.570630658294506));
#1306=CARTESIAN_POINT('',(-0.0520487751005933,-0.16938578340752,0.567708024924638));
#1307=CARTESIAN_POINT('',(-0.0796737751005933,-0.194135432896028,0.536530908020494));
#1308=CARTESIAN_POINT('',(-0.123048775100593,-0.170947932896028,0.576692836120997));
#1309=CARTESIAN_POINT('',(-0.123048775100593,-0.169947932896028,0.578424886928566));
#1310=CARTESIAN_POINT('',(-0.0362987751005932,-0.217322932896028,0.496368979919991));
#1311=CARTESIAN_POINT('',(-0.0362987751005932,-0.216322932896028,0.49810103072756));
#1312=CARTESIAN_POINT('',(-0.123048775100593,-0.217322932896028,0.496368979919991));
#1313=CARTESIAN_POINT('',(-0.123048775100593,-0.216322932896028,0.49810103072756));
#1314=CARTESIAN_POINT('',(-0.0362987751005932,-0.170947932896028,0.576692836120997));
#1315=CARTESIAN_POINT('',(-0.0362987751005932,-0.169947932896028,0.578424886928566));
#1316=CARTESIAN_POINT('',(-0.129048775100593,-0.218822932896028,0.493770903708637));
#1317=CARTESIAN_POINT('',(-0.0322987751005933,-0.219822932896028,0.492038852901068));
#1318=CARTESIAN_POINT('',(-0.0302987751005933,-0.169447932896028,0.57929091233235));
#1319=CARTESIAN_POINT('',(-0.0322987751005933,-0.168447932896028,0.581022963139919));
#1320=CARTESIAN_POINT('',(-0.0796737751005933,-0.168447932896028,0.581022963139919));
#1321=CARTESIAN_POINT('',(-0.127048775100593,-0.168447932896028,0.581022963139919));
#1322=CARTESIAN_POINT('',(-0.127048775100593,-0.168447932896028,0.581022963139919));
#1323=CARTESIAN_POINT('',(-0.0796737751005933,-0.183310432896028,0.555280358012427));
#1324=CARTESIAN_POINT('',(-0.104048775100593,-0.183310432896028,0.555280358012427));
#1325=CARTESIAN_POINT('',(-0.104048775100593,-0.194135432896028,0.536530908020494));
#1326=CARTESIAN_POINT('',(-0.104048775100593,-0.197185432896028,0.531248153057409));
#1327=CARTESIAN_POINT('',(-0.0796737751005933,-0.197185432896028,0.531248153057409));
#1328=CARTESIAN_POINT('',(-0.0795487751005933,-0.181447932896028,0.558506302641524));
#1329=CARTESIAN_POINT('',(-0.107048775100593,-0.181447932896028,0.558506302641524));
#1330=CARTESIAN_POINT('',(-0.107048775100593,-0.177947932896028,0.564568480468015));
#1331=CARTESIAN_POINT('',(-0.107048775100593,-0.174447932896028,0.570630658294506));
#1332=CARTESIAN_POINT('',(-0.0795487751005933,-0.174447932896028,0.570630658294506));
#1333=CARTESIAN_POINT('',(-0.0795487751005933,-0.16938578340752,0.567708024924638));
#1334=CARTESIAN_POINT('',(-0.107048775100593,-0.16938578340752,0.567708024924638));
#1335=CARTESIAN_POINT('',(-0.0795487751005933,-0.17638578340752,0.555583669271656));
#1336=CARTESIAN_POINT('',(-0.107048775100593,-0.17638578340752,0.555583669271656));
#1337=CARTESIAN_POINT('',(-0.107048775100593,-0.17288578340752,0.561645847098147));
#1338=CARTESIAN_POINT('',(-0.0796737751005933,-0.16338578340752,0.578100329770051));
#1339=CARTESIAN_POINT('',(-0.127048775100593,-0.16338578340752,0.578100329770051));
#1340=CARTESIAN_POINT('',(-0.0322987751005933,-0.163387515458327,0.578101329770051));
#1341=CARTESIAN_POINT('',(0.707024198966057,-0.211801425740072,0.49515587504017));
#1342=CARTESIAN_POINT('',(-0.0362987751005932,-0.212656512707371,0.493674820967918));
#1343=CARTESIAN_POINT('',(-0.0362987751005932,-0.211656512707371,0.495406871775487));
#1344=CARTESIAN_POINT('',(-0.123048775100593,-0.212656512707371,0.493674820967918));
#1345=CARTESIAN_POINT('',(-0.123048775100593,-0.211656512707371,0.495406871775487));
#1346=CARTESIAN_POINT('',(0.286632624965431,-0.421997212740384,0.131086092418704));
#1347=CARTESIAN_POINT('',(0.340717798900036,-0.0286482257070599,0.812386523066174));
#1348=CARTESIAN_POINT('',(-0.104048775100593,-0.197817631440791,0.531613153057409));
#1349=CARTESIAN_POINT('',(-0.104048775100593,-0.197817631440791,0.531613153057409));
#1350=CARTESIAN_POINT('',(-0.104048775100593,-0.196085580633222,0.530613153057409));
#1351=CARTESIAN_POINT('',(-0.104048775100593,-0.196085580633222,0.530613153057409));
#1352=CARTESIAN_POINT('',(-0.104048775100593,-0.183942631440791,0.555645358012427));
#1353=CARTESIAN_POINT('',(-0.104048775100593,-0.182210580633222,0.554645358012427));
#1354=CARTESIAN_POINT('',(-0.104048775100593,-0.182210580633222,0.554645358012427));
#1355=CARTESIAN_POINT('',(-0.104048775100593,-0.183942631440791,0.555645358012427));
#1356=CARTESIAN_POINT('',(-0.104048775100593,-0.202232770421413,0.541205908020494));
#1357=CARTESIAN_POINT('',(-0.104048775100593,-0.189148080633221,0.542629255534918));
#1358=CARTESIAN_POINT('',(-0.104048775100593,-0.189148080633221,0.542629255534918));
#1359=CARTESIAN_POINT('',(0.707024198966057,-0.188127563868217,0.521295826270502));
#1360=CARTESIAN_POINT('',(-0.0322987751005932,-0.188921009107381,0.505967056131344));
#1361=CARTESIAN_POINT('',(-0.0536737751005932,-0.187334118629054,0.536624596409661));
#1362=CARTESIAN_POINT('',(0.707024198966057,-0.188127563868217,0.521295826270502));
#1363=CARTESIAN_POINT('',(-0.127048775100593,-0.188127563868217,0.521295826270502));
#1364=CARTESIAN_POINT('',(-0.105673775100593,-0.188127563868217,0.521295826270502));
#1365=CARTESIAN_POINT('',(0.707024198966057,-0.188127563868217,0.521295826270502));
#1366=CARTESIAN_POINT('',(-0.0866737751005933,-0.187334118629054,0.536624596409661));
#1367=CARTESIAN_POINT('',(-0.0726737751005933,-0.188127563868217,0.521295826270502));
#1368=CARTESIAN_POINT('',(-0.123048775100593,-0.223385110722519,0.499868979919991));
#1369=CARTESIAN_POINT('',(-0.0362987751005932,-0.223385110722519,0.499868979919991));
#1370=CARTESIAN_POINT('',(-0.0362987751005932,-0.177010110722519,0.580192836120997));
#1371=CARTESIAN_POINT('',(-0.123048775100593,-0.177010110722519,0.580192836120997));
#1372=CARTESIAN_POINT('',(-0.129048775100593,-0.190921009107381,0.505967056131344));
#1373=CARTESIAN_POINT('',(-0.129054454824013,-0.1909266888308,0.506018930237567));
#1374=CARTESIAN_POINT('',(-0.129048775100593,-0.190943720407508,0.505580017962795));
#1375=CARTESIAN_POINT('',(-0.0322987751005933,-0.188921009107381,0.505967056131344));
#1376=CARTESIAN_POINT('',(-0.0324972027327189,-0.188722581475256,0.505961924077632));
#1377=CARTESIAN_POINT('',(-0.0322987751005932,-0.188127563868217,0.521295826270502));
#1378=CARTESIAN_POINT('',(-0.103673775100593,-0.190796665929369,0.50842100078313));
#1379=CARTESIAN_POINT('',(-0.0866737751005933,-0.188127563868217,0.521295826270502));
#1380=CARTESIAN_POINT('',(-0.0706737751005933,-0.190796665929369,0.50842100078313));
#1381=CARTESIAN_POINT('',(-0.0536737751005932,-0.188127563868217,0.521295826270502));
#1382=CARTESIAN_POINT('',(-0.129048775100593,-0.208802578967788,0.487985649670793));
#1383=CARTESIAN_POINT('',(-0.0322987751005933,-0.21476078340752,0.4891162195312));
#1384=CARTESIAN_POINT('',(-0.127048775100593,-0.16338578340752,0.578100329770051));
#1385=CARTESIAN_POINT('',(-0.0302987751005933,-0.159427578967788,0.573505658294506));
#1386=MECHANICAL_DESIGN_GEOMETRIC_PRESENTATION_REPRESENTATION('',(#865),
#1387);
#1387=(
GEOMETRIC_REPRESENTATION_CONTEXT(3)
GLOBAL_UNCERTAINTY_ASSIGNED_CONTEXT((#1388))
GLOBAL_UNIT_ASSIGNED_CONTEXT((#1391,#1390,#1389))
REPRESENTATION_CONTEXT('LCD Back','TOP_LEVEL_ASSEMBLY_PART')
);
#1388=UNCERTAINTY_MEASURE_WITH_UNIT(LENGTH_MEASURE(1.E-8),#1391,
'DISTANCE_ACCURACY_VALUE','Maximum Tolerance applied to model');
#1389=(
NAMED_UNIT(*)
SI_UNIT($,.STERADIAN.)
SOLID_ANGLE_UNIT()
);
#1390=(
NAMED_UNIT(*)
PLANE_ANGLE_UNIT()
SI_UNIT($,.RADIAN.)
);
#1391=(
LENGTH_UNIT()
NAMED_UNIT(*)
SI_UNIT($,.METRE.)
);
#1392=PRODUCT_DEFINITION_SHAPE('','',#1393);
#1393=PRODUCT_DEFINITION('','',#1395,#1394);
#1394=PRODUCT_DEFINITION_CONTEXT('',#1401,'design');
#1395=PRODUCT_DEFINITION_FORMATION_WITH_SPECIFIED_SOURCE('','',#1397,
 .NOT_KNOWN.);
#1396=PRODUCT_RELATED_PRODUCT_CATEGORY('','',(#1397));
#1397=PRODUCT('LCD Back','LCD Back','LCD Back',(#1399));
#1398=PRODUCT_CATEGORY('','');
#1399=PRODUCT_CONTEXT('',#1401,'mechanical');
#1400=APPLICATION_PROTOCOL_DEFINITION('international standard',
'ap242_managed_model_based_3d_engineering',2020,#1401);
#1401=APPLICATION_CONTEXT('managed model based 3d engineering');
ENDSEC;
END-ISO-10303-21;
