ISO-10303-21;
HEADER;
/* Generated by software containing ST-Developer
 * from STEP Tools, Inc. (www.steptools.com) 
 */
/* OPTION: using custom renumber hook */

FILE_DESCRIPTION(
/* description */ ('STEP AP242 Edition 2',
'CAx-IF Rec.Pracs.---Representation and Presentation of Product Manufa
cturing Information (PMI)---4.0---2014-10-13',
'CAx-IF Rec.Pracs.---3D Tessellated Geometry---0.4---2014-09-14','2;1',
'CAx-IF Rec.Pracs.---User Defined Attributes---1.5---2016-08-15'),
/* implementation_level */ '2;1');

FILE_NAME(
/* name */ 'NOT-618 - Bed Adapter',
/* time_stamp */ '2026-07-11T06:15:41Z',
/* author */ (''),
/* organization */ (''),
/* preprocessor_version */ 'ST-DEVELOPER v20',
/* originating_system */ 'ONSHAPE BY PTC INC, 1.217',
/* authorisation */ '  ');

FILE_SCHEMA (('AP242_MANAGED_MODEL_BASED_3D_ENGINEERING_MIM_LF { 1 0 10303 442 3 1 4 }'));
ENDSEC;

DATA;
#10=SHAPE_REPRESENTATION_RELATIONSHIP('','',#332,#11);
#11=ADVANCED_BREP_SHAPE_REPRESENTATION('',(#330),#524);
#12=CYLINDRICAL_SURFACE('',#339,0.00265);
#13=CYLINDRICAL_SURFACE('',#341,0.0015);
#14=LINE('',#440,#51);
#15=LINE('',#443,#52);
#16=LINE('',#445,#53);
#17=LINE('',#447,#54);
#18=LINE('',#449,#55);
#19=LINE('',#451,#56);
#20=LINE('',#453,#57);
#21=LINE('',#455,#58);
#22=LINE('',#457,#59);
#23=LINE('',#460,#60);
#24=LINE('',#462,#61);
#25=LINE('',#464,#62);
#26=LINE('',#466,#63);
#27=LINE('',#469,#64);
#28=LINE('',#470,#65);
#29=LINE('',#472,#66);
#30=LINE('',#474,#67);
#31=LINE('',#476,#68);
#32=LINE('',#478,#69);
#33=LINE('',#480,#70);
#34=LINE('',#490,#71);
#35=LINE('',#492,#72);
#36=LINE('',#494,#73);
#37=LINE('',#496,#74);
#38=LINE('',#498,#75);
#39=LINE('',#500,#76);
#40=LINE('',#501,#77);
#41=LINE('',#502,#78);
#42=LINE('',#503,#79);
#43=LINE('',#505,#80);
#44=LINE('',#506,#81);
#45=LINE('',#507,#82);
#46=LINE('',#513,#83);
#47=LINE('',#515,#84);
#48=LINE('',#517,#85);
#49=LINE('',#519,#86);
#50=LINE('',#520,#87);
#51=VECTOR('',#361,1.);
#52=VECTOR('',#362,1.);
#53=VECTOR('',#363,1.);
#54=VECTOR('',#364,1.);
#55=VECTOR('',#365,1.);
#56=VECTOR('',#366,1.);
#57=VECTOR('',#367,1.);
#58=VECTOR('',#368,1.);
#59=VECTOR('',#371,1.);
#60=VECTOR('',#372,1.);
#61=VECTOR('',#373,1.);
#62=VECTOR('',#374,1.);
#63=VECTOR('',#377,1.);
#64=VECTOR('',#378,1.);
#65=VECTOR('',#379,1.);
#66=VECTOR('',#380,1.);
#67=VECTOR('',#381,1.);
#68=VECTOR('',#384,1.);
#69=VECTOR('',#385,1.);
#70=VECTOR('',#386,1.);
#71=VECTOR('',#399,1.);
#72=VECTOR('',#400,1.);
#73=VECTOR('',#401,1.);
#74=VECTOR('',#402,1.);
#75=VECTOR('',#403,1.);
#76=VECTOR('',#406,1.);
#77=VECTOR('',#407,1.);
#78=VECTOR('',#408,1.);
#79=VECTOR('',#409,1.);
#80=VECTOR('',#412,1.);
#81=VECTOR('',#413,1.);
#82=VECTOR('',#414,1.);
#83=VECTOR('',#425,1.);
#84=VECTOR('',#426,1.);
#85=VECTOR('',#427,1.);
#86=VECTOR('',#430,1.);
#87=VECTOR('',#431,1.);
#88=ORIENTED_EDGE('',*,*,#170,.T.);
#89=ORIENTED_EDGE('',*,*,#171,.F.);
#90=ORIENTED_EDGE('',*,*,#172,.T.);
#91=ORIENTED_EDGE('',*,*,#173,.F.);
#92=ORIENTED_EDGE('',*,*,#174,.T.);
#93=ORIENTED_EDGE('',*,*,#175,.F.);
#94=ORIENTED_EDGE('',*,*,#176,.T.);
#95=ORIENTED_EDGE('',*,*,#177,.T.);
#96=ORIENTED_EDGE('',*,*,#178,.T.);
#97=ORIENTED_EDGE('',*,*,#179,.T.);
#98=ORIENTED_EDGE('',*,*,#180,.T.);
#99=ORIENTED_EDGE('',*,*,#181,.F.);
#100=ORIENTED_EDGE('',*,*,#182,.T.);
#101=ORIENTED_EDGE('',*,*,#183,.F.);
#102=ORIENTED_EDGE('',*,*,#184,.T.);
#103=ORIENTED_EDGE('',*,*,#177,.F.);
#104=ORIENTED_EDGE('',*,*,#185,.T.);
#105=ORIENTED_EDGE('',*,*,#186,.T.);
#106=ORIENTED_EDGE('',*,*,#187,.T.);
#107=ORIENTED_EDGE('',*,*,#175,.T.);
#108=ORIENTED_EDGE('',*,*,#188,.T.);
#109=ORIENTED_EDGE('',*,*,#189,.F.);
#110=ORIENTED_EDGE('',*,*,#190,.T.);
#111=ORIENTED_EDGE('',*,*,#191,.T.);
#112=ORIENTED_EDGE('',*,*,#170,.F.);
#113=ORIENTED_EDGE('',*,*,#192,.T.);
#114=ORIENTED_EDGE('',*,*,#193,.F.);
#115=ORIENTED_EDGE('',*,*,#173,.T.);
#116=ORIENTED_EDGE('',*,*,#194,.T.);
#117=ORIENTED_EDGE('',*,*,#195,.T.);
#118=ORIENTED_EDGE('',*,*,#196,.T.);
#119=ORIENTED_EDGE('',*,*,#197,.F.);
#120=ORIENTED_EDGE('',*,*,#198,.T.);
#121=ORIENTED_EDGE('',*,*,#192,.F.);
#122=ORIENTED_EDGE('',*,*,#191,.F.);
#123=ORIENTED_EDGE('',*,*,#189,.T.);
#124=ORIENTED_EDGE('',*,*,#199,.T.);
#125=ORIENTED_EDGE('',*,*,#197,.T.);
#126=ORIENTED_EDGE('',*,*,#200,.T.);
#127=ORIENTED_EDGE('',*,*,#181,.T.);
#128=ORIENTED_EDGE('',*,*,#201,.T.);
#129=ORIENTED_EDGE('',*,*,#186,.F.);
#130=ORIENTED_EDGE('',*,*,#202,.T.);
#131=ORIENTED_EDGE('',*,*,#193,.T.);
#132=ORIENTED_EDGE('',*,*,#203,.T.);
#133=ORIENTED_EDGE('',*,*,#204,.T.);
#134=ORIENTED_EDGE('',*,*,#205,.T.);
#135=ORIENTED_EDGE('',*,*,#179,.F.);
#136=ORIENTED_EDGE('',*,*,#201,.F.);
#137=ORIENTED_EDGE('',*,*,#180,.F.);
#138=ORIENTED_EDGE('',*,*,#205,.F.);
#139=ORIENTED_EDGE('',*,*,#187,.F.);
#140=ORIENTED_EDGE('',*,*,#200,.F.);
#141=ORIENTED_EDGE('',*,*,#196,.F.);
#142=ORIENTED_EDGE('',*,*,#203,.F.);
#143=ORIENTED_EDGE('',*,*,#182,.F.);
#144=ORIENTED_EDGE('',*,*,#199,.F.);
#145=ORIENTED_EDGE('',*,*,#188,.F.);
#146=ORIENTED_EDGE('',*,*,#174,.F.);
#147=ORIENTED_EDGE('',*,*,#198,.F.);
#148=ORIENTED_EDGE('',*,*,#202,.F.);
#149=ORIENTED_EDGE('',*,*,#185,.F.);
#150=ORIENTED_EDGE('',*,*,#176,.F.);
#151=ORIENTED_EDGE('',*,*,#190,.F.);
#152=ORIENTED_EDGE('',*,*,#171,.T.);
#153=ORIENTED_EDGE('',*,*,#206,.T.);
#154=ORIENTED_EDGE('',*,*,#207,.F.);
#155=ORIENTED_EDGE('',*,*,#208,.T.);
#156=ORIENTED_EDGE('',*,*,#207,.T.);
#157=ORIENTED_EDGE('',*,*,#209,.T.);
#158=ORIENTED_EDGE('',*,*,#183,.T.);
#159=ORIENTED_EDGE('',*,*,#204,.F.);
#160=ORIENTED_EDGE('',*,*,#195,.F.);
#161=ORIENTED_EDGE('',*,*,#210,.T.);
#162=ORIENTED_EDGE('',*,*,#209,.F.);
#163=ORIENTED_EDGE('',*,*,#206,.F.);
#164=ORIENTED_EDGE('',*,*,#178,.F.);
#165=ORIENTED_EDGE('',*,*,#184,.F.);
#166=ORIENTED_EDGE('',*,*,#210,.F.);
#167=ORIENTED_EDGE('',*,*,#194,.F.);
#168=ORIENTED_EDGE('',*,*,#172,.F.);
#169=ORIENTED_EDGE('',*,*,#208,.F.);
#170=EDGE_CURVE('',#211,#211,#239,.T.);
#171=EDGE_CURVE('',#212,#213,#14,.T.);
#172=EDGE_CURVE('',#212,#214,#15,.F.);
#173=EDGE_CURVE('',#215,#214,#16,.T.);
#174=EDGE_CURVE('',#215,#216,#17,.F.);
#175=EDGE_CURVE('',#217,#216,#18,.T.);
#176=EDGE_CURVE('',#217,#218,#19,.T.);
#177=EDGE_CURVE('',#218,#219,#20,.T.);
#178=EDGE_CURVE('',#219,#213,#21,.T.);
#179=EDGE_CURVE('',#220,#221,#22,.T.);
#180=EDGE_CURVE('',#221,#222,#23,.T.);
#181=EDGE_CURVE('',#223,#222,#24,.T.);
#182=EDGE_CURVE('',#223,#220,#25,.T.);
#183=EDGE_CURVE('',#224,#225,#26,.T.);
#184=EDGE_CURVE('',#224,#219,#27,.T.);
#185=EDGE_CURVE('',#218,#226,#28,.T.);
#186=EDGE_CURVE('',#226,#227,#29,.T.);
#187=EDGE_CURVE('',#227,#225,#30,.T.);
#188=EDGE_CURVE('',#216,#228,#31,.T.);
#189=EDGE_CURVE('',#229,#228,#32,.T.);
#190=EDGE_CURVE('',#229,#217,#33,.T.);
#191=EDGE_CURVE('',#230,#230,#240,.T.);
#192=EDGE_CURVE('',#231,#231,#241,.T.);
#193=EDGE_CURVE('',#232,#232,#242,.T.);
#194=EDGE_CURVE('',#214,#233,#34,.T.);
#195=EDGE_CURVE('',#233,#234,#35,.T.);
#196=EDGE_CURVE('',#234,#235,#36,.T.);
#197=EDGE_CURVE('',#236,#235,#37,.T.);
#198=EDGE_CURVE('',#236,#215,#38,.T.);
#199=EDGE_CURVE('',#228,#236,#39,.F.);
#200=EDGE_CURVE('',#235,#223,#40,.F.);
#201=EDGE_CURVE('',#222,#227,#41,.T.);
#202=EDGE_CURVE('',#226,#229,#42,.T.);
#203=EDGE_CURVE('',#220,#234,#43,.F.);
#204=EDGE_CURVE('',#234,#225,#44,.T.);
#205=EDGE_CURVE('',#225,#221,#45,.T.);
#206=EDGE_CURVE('',#213,#237,#46,.T.);
#207=EDGE_CURVE('',#238,#237,#47,.T.);
#208=EDGE_CURVE('',#238,#212,#48,.T.);
#209=EDGE_CURVE('',#237,#224,#49,.T.);
#210=EDGE_CURVE('',#233,#238,#50,.F.);
#211=VERTEX_POINT('',#439);
#212=VERTEX_POINT('',#441);
#213=VERTEX_POINT('',#442);
#214=VERTEX_POINT('',#444);
#215=VERTEX_POINT('',#446);
#216=VERTEX_POINT('',#448);
#217=VERTEX_POINT('',#450);
#218=VERTEX_POINT('',#452);
#219=VERTEX_POINT('',#454);
#220=VERTEX_POINT('',#458);
#221=VERTEX_POINT('',#459);
#222=VERTEX_POINT('',#461);
#223=VERTEX_POINT('',#463);
#224=VERTEX_POINT('',#467);
#225=VERTEX_POINT('',#468);
#226=VERTEX_POINT('',#471);
#227=VERTEX_POINT('',#473);
#228=VERTEX_POINT('',#477);
#229=VERTEX_POINT('',#479);
#230=VERTEX_POINT('',#483);
#231=VERTEX_POINT('',#486);
#232=VERTEX_POINT('',#488);
#233=VERTEX_POINT('',#491);
#234=VERTEX_POINT('',#493);
#235=VERTEX_POINT('',#495);
#236=VERTEX_POINT('',#497);
#237=VERTEX_POINT('',#514);
#238=VERTEX_POINT('',#516);
#239=CIRCLE('',#335,0.00265);
#240=CIRCLE('',#340,0.00265);
#241=CIRCLE('',#342,0.0015);
#242=CIRCLE('',#343,0.0015);
#243=EDGE_LOOP('',(#88));
#244=EDGE_LOOP('',(#89,#90,#91,#92,#93,#94,#95,#96));
#245=EDGE_LOOP('',(#97,#98,#99,#100));
#246=EDGE_LOOP('',(#101,#102,#103,#104,#105,#106));
#247=EDGE_LOOP('',(#107,#108,#109,#110));
#248=EDGE_LOOP('',(#111));
#249=EDGE_LOOP('',(#112));
#250=EDGE_LOOP('',(#113));
#251=EDGE_LOOP('',(#114));
#252=EDGE_LOOP('',(#115,#116,#117,#118,#119,#120));
#253=EDGE_LOOP('',(#121));
#254=EDGE_LOOP('',(#122));
#255=EDGE_LOOP('',(#123,#124,#125,#126,#127,#128,#129,#130));
#256=EDGE_LOOP('',(#131));
#257=EDGE_LOOP('',(#132,#133,#134,#135));
#258=EDGE_LOOP('',(#136,#137,#138,#139));
#259=EDGE_LOOP('',(#140,#141,#142,#143));
#260=EDGE_LOOP('',(#144,#145,#146,#147));
#261=EDGE_LOOP('',(#148,#149,#150,#151));
#262=EDGE_LOOP('',(#152,#153,#154,#155));
#263=EDGE_LOOP('',(#156,#157,#158,#159,#160,#161));
#264=EDGE_LOOP('',(#162,#163,#164,#165));
#265=EDGE_LOOP('',(#166,#167,#168,#169));
#266=FACE_BOUND('',#243,.T.);
#267=FACE_BOUND('',#244,.T.);
#268=FACE_BOUND('',#245,.T.);
#269=FACE_BOUND('',#246,.T.);
#270=FACE_BOUND('',#247,.T.);
#271=FACE_BOUND('',#248,.T.);
#272=FACE_BOUND('',#249,.T.);
#273=FACE_BOUND('',#250,.T.);
#274=FACE_BOUND('',#251,.T.);
#275=FACE_BOUND('',#252,.T.);
#276=FACE_BOUND('',#253,.T.);
#277=FACE_BOUND('',#254,.T.);
#278=FACE_BOUND('',#255,.T.);
#279=FACE_BOUND('',#256,.T.);
#280=FACE_BOUND('',#257,.T.);
#281=FACE_BOUND('',#258,.T.);
#282=FACE_BOUND('',#259,.T.);
#283=FACE_BOUND('',#260,.T.);
#284=FACE_BOUND('',#261,.T.);
#285=FACE_BOUND('',#262,.T.);
#286=FACE_BOUND('',#263,.T.);
#287=FACE_BOUND('',#264,.T.);
#288=FACE_BOUND('',#265,.T.);
#289=PLANE('',#334);
#290=PLANE('',#336);
#291=PLANE('',#337);
#292=PLANE('',#338);
#293=PLANE('',#344);
#294=PLANE('',#345);
#295=PLANE('',#346);
#296=PLANE('',#347);
#297=PLANE('',#348);
#298=PLANE('',#349);
#299=PLANE('',#350);
#300=PLANE('',#351);
#301=PLANE('',#352);
#302=PLANE('',#353);
#303=PLANE('',#354);
#304=ADVANCED_FACE('',(#266,#267),#289,.F.);
#305=ADVANCED_FACE('',(#268),#290,.F.);
#306=ADVANCED_FACE('',(#269),#291,.T.);
#307=ADVANCED_FACE('',(#270),#292,.F.);
#308=ADVANCED_FACE('',(#271,#272),#12,.F.);
#309=ADVANCED_FACE('',(#273,#274),#13,.F.);
#310=ADVANCED_FACE('',(#275),#293,.F.);
#311=ADVANCED_FACE('',(#276,#277,#278),#294,.T.);
#312=ADVANCED_FACE('',(#279,#280),#295,.F.);
#313=ADVANCED_FACE('',(#281),#296,.T.);
#314=ADVANCED_FACE('',(#282),#297,.F.);
#315=ADVANCED_FACE('',(#283),#298,.F.);
#316=ADVANCED_FACE('',(#284),#299,.T.);
#317=ADVANCED_FACE('',(#285),#300,.F.);
#318=ADVANCED_FACE('',(#286),#301,.F.);
#319=ADVANCED_FACE('',(#287),#302,.T.);
#320=ADVANCED_FACE('',(#288),#303,.F.);
#321=CLOSED_SHELL('',(#304,#305,#306,#307,#308,#309,#310,#311,#312,#313,
#314,#315,#316,#317,#318,#319,#320));
#322=STYLED_ITEM('',(#323),#330);
#323=PRESENTATION_STYLE_ASSIGNMENT((#324));
#324=SURFACE_STYLE_USAGE(.BOTH.,#325);
#325=SURFACE_SIDE_STYLE('',(#326));
#326=SURFACE_STYLE_FILL_AREA(#327);
#327=FILL_AREA_STYLE('',(#328));
#328=FILL_AREA_STYLE_COLOUR('',#329);
#329=COLOUR_RGB('',0.866666666666667,0.32156862745098,0.156862745098039);
#330=MANIFOLD_SOLID_BREP('Bed Adapter',#321);
#331=SHAPE_DEFINITION_REPRESENTATION(#529,#332);
#332=SHAPE_REPRESENTATION('Bed Adapter',(#333),#524);
#333=AXIS2_PLACEMENT_3D('',#436,#355,#356);
#334=AXIS2_PLACEMENT_3D('',#437,#357,#358);
#335=AXIS2_PLACEMENT_3D('',#438,#359,#360);
#336=AXIS2_PLACEMENT_3D('',#456,#369,#370);
#337=AXIS2_PLACEMENT_3D('',#465,#375,#376);
#338=AXIS2_PLACEMENT_3D('',#475,#382,#383);
#339=AXIS2_PLACEMENT_3D('',#481,#387,#388);
#340=AXIS2_PLACEMENT_3D('',#482,#389,#390);
#341=AXIS2_PLACEMENT_3D('',#484,#391,#392);
#342=AXIS2_PLACEMENT_3D('',#485,#393,#394);
#343=AXIS2_PLACEMENT_3D('',#487,#395,#396);
#344=AXIS2_PLACEMENT_3D('',#489,#397,#398);
#345=AXIS2_PLACEMENT_3D('',#499,#404,#405);
#346=AXIS2_PLACEMENT_3D('',#504,#410,#411);
#347=AXIS2_PLACEMENT_3D('',#508,#415,#416);
#348=AXIS2_PLACEMENT_3D('',#509,#417,#418);
#349=AXIS2_PLACEMENT_3D('',#510,#419,#420);
#350=AXIS2_PLACEMENT_3D('',#511,#421,#422);
#351=AXIS2_PLACEMENT_3D('',#512,#423,#424);
#352=AXIS2_PLACEMENT_3D('',#518,#428,#429);
#353=AXIS2_PLACEMENT_3D('',#521,#432,#433);
#354=AXIS2_PLACEMENT_3D('',#522,#434,#435);
#355=DIRECTION('',(0.,0.,1.));
#356=DIRECTION('',(1.,0.,0.));
#357=DIRECTION('',(6.12323399573677E-17,0.,1.));
#358=DIRECTION('',(1.,0.,-6.12323399573677E-17));
#359=DIRECTION('',(6.12323399573677E-17,0.,1.));
#360=DIRECTION('',(1.,0.,-6.12323399573677E-17));
#361=DIRECTION('',(-1.,0.,6.12323399573677E-17));
#362=DIRECTION('',(-0.707106781186549,-0.707106781186546,4.32978028117747E-17));
#363=DIRECTION('',(-3.96508223080413E-16,1.,2.42791263115516E-32));
#364=DIRECTION('',(0.70710678118655,0.707106781186546,-4.32978028117748E-17));
#365=DIRECTION('',(1.,0.,-6.12323399573677E-17));
#366=DIRECTION('',(-0.707106781186548,0.707106781186548,4.32978028117747E-17));
#367=DIRECTION('',(-1.98254111540206E-16,1.,1.21395631557758E-32));
#368=DIRECTION('',(0.707106781186546,-0.707106781186549,-4.32978028117746E-17));
#369=DIRECTION('',(0.,-1.,0.));
#370=DIRECTION('',(0.,0.,-1.));
#371=DIRECTION('',(-1.,0.,6.12323399573677E-17));
#372=DIRECTION('',(6.12323399573677E-17,0.,1.));
#373=DIRECTION('',(-1.,0.,6.12323399573677E-17));
#374=DIRECTION('',(-6.12323399573677E-17,0.,-1.));
#375=DIRECTION('',(-1.,-1.98254111540206E-16,6.12323399573677E-17));
#376=DIRECTION('',(1.98254111540206E-16,-1.,0.));
#377=DIRECTION('',(-1.86978540197378E-16,0.988938125757222,0.148328633189258));
#378=DIRECTION('',(6.12323399573677E-17,0.,1.));
#379=DIRECTION('',(6.12323399573677E-17,0.,1.));
#380=DIRECTION('',(-1.98254111540206E-16,1.,1.21395631557758E-32));
#381=DIRECTION('',(-6.12323399573677E-17,0.,-1.));
#382=DIRECTION('',(0.,1.,0.));
#383=DIRECTION('',(0.,0.,1.));
#384=DIRECTION('',(6.12323399573677E-17,0.,1.));
#385=DIRECTION('',(1.,0.,-6.12323399573677E-17));
#386=DIRECTION('',(-6.12323399573677E-17,0.,-1.));
#387=DIRECTION('',(-6.12323399573677E-17,0.,-1.));
#388=DIRECTION('',(-1.,0.,6.12323399573677E-17));
#389=DIRECTION('',(6.12323399573677E-17,0.,1.));
#390=DIRECTION('',(1.,0.,-6.12323399573677E-17));
#391=DIRECTION('',(-6.12323399573677E-17,0.,-1.));
#392=DIRECTION('',(-1.,0.,6.12323399573677E-17));
#393=DIRECTION('',(6.12323399573677E-17,0.,1.));
#394=DIRECTION('',(1.,0.,-6.12323399573677E-17));
#395=DIRECTION('',(6.12323399573677E-17,0.,1.));
#396=DIRECTION('',(1.,0.,-6.12323399573677E-17));
#397=DIRECTION('',(-1.,-3.96508223080413E-16,6.12323399573677E-17));
#398=DIRECTION('',(3.96508223080413E-16,-1.,0.));
#399=DIRECTION('',(-6.12323399573677E-17,0.,-1.));
#400=DIRECTION('',(-3.83039589687614E-16,0.988938125757222,0.148328633189258));
#401=DIRECTION('',(6.12323399573677E-17,0.,1.));
#402=DIRECTION('',(-3.96508223080413E-16,1.,2.42791263115516E-32));
#403=DIRECTION('',(-6.12323399573677E-17,0.,-1.));
#404=DIRECTION('',(6.12323399573677E-17,0.,1.));
#405=DIRECTION('',(1.,0.,-6.12323399573677E-17));
#406=DIRECTION('',(-0.70710678118655,-0.707106781186546,4.32978028117748E-17));
#407=DIRECTION('',(0.316227766016836,-0.948683298050514,-1.93633660727018E-17));
#408=DIRECTION('',(-0.316227766016838,-0.948683298050514,1.93633660727019E-17));
#409=DIRECTION('',(0.707106781186548,-0.707106781186548,-4.32978028117747E-17));
#410=DIRECTION('',(6.12323399573677E-17,0.,1.));
#411=DIRECTION('',(1.,0.,-6.12323399573677E-17));
#412=DIRECTION('',(-0.316227766016836,0.948683298050514,1.93633660727018E-17));
#413=DIRECTION('',(-1.,0.,6.12323399573677E-17));
#414=DIRECTION('',(0.316227766016838,0.948683298050514,-1.93633660727019E-17));
#415=DIRECTION('',(-0.948683298050514,0.316227766016838,5.80900982181058E-17));
#416=DIRECTION('',(6.12323399573677E-17,0.,1.));
#417=DIRECTION('',(-0.948683298050514,-0.316227766016836,5.80900982181058E-17));
#418=DIRECTION('',(-6.12323399573677E-17,0.,-1.));
#419=DIRECTION('',(-0.707106781186546,0.707106781186549,4.32978028117745E-17));
#420=DIRECTION('',(-6.12323399573677E-17,0.,-1.));
#421=DIRECTION('',(-0.707106781186548,-0.707106781186548,4.32978028117746E-17));
#422=DIRECTION('',(6.12323399573677E-17,0.,1.));
#423=DIRECTION('',(0.,1.,0.));
#424=DIRECTION('',(0.,0.,1.));
#425=DIRECTION('',(-6.12323399573677E-17,0.,-1.));
#426=DIRECTION('',(-1.,0.,6.12323399573677E-17));
#427=DIRECTION('',(6.12323399573677E-17,0.,1.));
#428=DIRECTION('',(8.99617569020777E-17,-0.148328633189258,0.988938125757222));
#429=DIRECTION('',(0.,-0.988938125757222,-0.148328633189258));
#430=DIRECTION('',(-0.70316319123347,0.703163191233473,0.105465885426145));
#431=DIRECTION('',(0.703163191233473,0.70316319123347,0.105465885426145));
#432=DIRECTION('',(-0.707106781186549,-0.707106781186546,4.32978028117747E-17));
#433=DIRECTION('',(-6.12323399573677E-17,0.,-1.));
#434=DIRECTION('',(-0.707106781186546,0.707106781186549,4.32978028117746E-17));
#435=DIRECTION('',(6.12323399573677E-17,0.,1.));
#436=CARTESIAN_POINT('',(0.,0.,0.));
#437=CARTESIAN_POINT('',(-0.000755854743810778,-0.018680451245188,0.2114));
#438=CARTESIAN_POINT('',(-0.0853863114118576,-0.0993609024903761,0.2114));
#439=CARTESIAN_POINT('',(-0.0827363114118576,-0.0993609024903761,0.2114));
#440=CARTESIAN_POINT('',(-0.0853863114118576,-0.0893623283735393,0.2114));
#441=CARTESIAN_POINT('',(-0.0783863114118576,-0.0893623283735393,0.2114));
#442=CARTESIAN_POINT('',(-0.0923863114118576,-0.0893623283735393,0.2114));
#443=CARTESIAN_POINT('',(-0.00423014451365839,-0.0152061614753404,0.2114));
#444=CARTESIAN_POINT('',(-0.0753863114118576,-0.0863623283735393,0.2114));
#445=CARTESIAN_POINT('',(-0.0753863114118576,-0.0743594766072129,0.2114));
#446=CARTESIAN_POINT('',(-0.0753863114118576,-0.104359476607213,0.2114));
#447=CARTESIAN_POINT('',(-0.0753863114118576,-0.104359476607213,0.2114));
#448=CARTESIAN_POINT('',(-0.0803863114118576,-0.109359476607213,0.2114));
#449=CARTESIAN_POINT('',(-0.290255854743811,-0.109359476607213,0.2114));
#450=CARTESIAN_POINT('',(-0.0903863114118576,-0.109359476607213,0.2114));
#451=CARTESIAN_POINT('',(-0.0903863114118576,-0.109359476607213,0.2114));
#452=CARTESIAN_POINT('',(-0.0953863114118576,-0.104359476607213,0.2114));
#453=CARTESIAN_POINT('',(-0.0953863114118576,-0.0743594766072129,0.2114));
#454=CARTESIAN_POINT('',(-0.0953863114118576,-0.0863623283735393,0.2114));
#455=CARTESIAN_POINT('',(-0.08191202164201,-0.0998366181433869,0.2114));
#456=CARTESIAN_POINT('',(-0.0853863114118576,-0.0393594766072129,0.2174));
#457=CARTESIAN_POINT('',(-0.0853863114118576,-0.0393594766072129,0.2114));
#458=CARTESIAN_POINT('',(-0.0803863114118576,-0.0393594766072129,0.2114));
#459=CARTESIAN_POINT('',(-0.0903863114118576,-0.0393594766072129,0.2114));
#460=CARTESIAN_POINT('',(-0.0903863114118576,-0.0393594766072129,0.2174));
#461=CARTESIAN_POINT('',(-0.0903863114118576,-0.0393594766072129,0.2174));
#462=CARTESIAN_POINT('',(-0.0853863114118576,-0.0393594766072129,0.2174));
#463=CARTESIAN_POINT('',(-0.0803863114118576,-0.0393594766072129,0.2174));
#464=CARTESIAN_POINT('',(-0.0803863114118576,-0.0393594766072129,0.2174));
#465=CARTESIAN_POINT('',(-0.0953863114118576,-0.0743594766072129,0.2174));
#466=CARTESIAN_POINT('',(-0.0953863114118576,-0.0718609024903761,0.208775));
#467=CARTESIAN_POINT('',(-0.0953863114118576,-0.0863623283735393,0.20659996333742));
#468=CARTESIAN_POINT('',(-0.0953863114118576,-0.0543594766072129,0.2114));
#469=CARTESIAN_POINT('',(-0.0953863114118576,-0.0863623283735393,0.2114));
#470=CARTESIAN_POINT('',(-0.0953863114118576,-0.104359476607213,0.2174));
#471=CARTESIAN_POINT('',(-0.0953863114118576,-0.104359476607213,0.2174));
#472=CARTESIAN_POINT('',(-0.0953863114118576,-0.0743594766072129,0.2174));
#473=CARTESIAN_POINT('',(-0.0953863114118576,-0.0543594766072129,0.2174));
#474=CARTESIAN_POINT('',(-0.0953863114118576,-0.0543594766072129,0.2114));
#475=CARTESIAN_POINT('',(-0.290255854743811,-0.109359476607213,0.2174));
#476=CARTESIAN_POINT('',(-0.0803863114118576,-0.109359476607213,0.2174));
#477=CARTESIAN_POINT('',(-0.0803863114118576,-0.109359476607213,0.2174));
#478=CARTESIAN_POINT('',(-0.290255854743811,-0.109359476607213,0.2174));
#479=CARTESIAN_POINT('',(-0.0903863114118576,-0.109359476607213,0.2174));
#480=CARTESIAN_POINT('',(-0.0903863114118576,-0.109359476607213,0.2114));
#481=CARTESIAN_POINT('',(-0.0853863114118576,-0.0993609024903761,0.2174));
#482=CARTESIAN_POINT('',(-0.0853863114118576,-0.0993609024903761,0.2174));
#483=CARTESIAN_POINT('',(-0.0827363114118576,-0.0993609024903761,0.2174));
#484=CARTESIAN_POINT('',(-0.0853863114118576,-0.0493594766072129,0.2174));
#485=CARTESIAN_POINT('',(-0.0853863114118576,-0.0493594766072129,0.2174));
#486=CARTESIAN_POINT('',(-0.0838863114118576,-0.0493594766072129,0.2174));
#487=CARTESIAN_POINT('',(-0.0853863114118576,-0.0493594766072129,0.2114));
#488=CARTESIAN_POINT('',(-0.0838863114118576,-0.0493594766072129,0.2114));
#489=CARTESIAN_POINT('',(-0.0753863114118576,-0.0743594766072129,0.2174));
#490=CARTESIAN_POINT('',(-0.0753863114118576,-0.0863623283735393,0.2174));
#491=CARTESIAN_POINT('',(-0.0753863114118576,-0.0863623283735393,0.20659996333742));
#492=CARTESIAN_POINT('',(-0.0753863114118576,-0.0730393218957232,0.208598251490496));
#493=CARTESIAN_POINT('',(-0.0753863114118576,-0.0543594766072129,0.2114));
#494=CARTESIAN_POINT('',(-0.0753863114118576,-0.0543594766072129,0.2174));
#495=CARTESIAN_POINT('',(-0.0753863114118576,-0.0543594766072129,0.2174));
#496=CARTESIAN_POINT('',(-0.0753863114118576,-0.0743594766072129,0.2174));
#497=CARTESIAN_POINT('',(-0.0753863114118576,-0.104359476607213,0.2174));
#498=CARTESIAN_POINT('',(-0.0753863114118576,-0.104359476607213,0.2174));
#499=CARTESIAN_POINT('',(-0.000755854743810778,-0.018680451245188,0.2174));
#500=CARTESIAN_POINT('',(0.0047684296031785,-0.0242047355921774,0.2174));
#501=CARTESIAN_POINT('',(-0.0786269733536604,-0.0446374907818044,0.2174));
#502=CARTESIAN_POINT('',(-0.0752195581364454,0.00614078321902355,0.2174));
#503=CARTESIAN_POINT('',(-0.0909105957588466,-0.108835192260224,0.2174));
#504=CARTESIAN_POINT('',(-0.000755854743810778,-0.018680451245188,0.2114));
#505=CARTESIAN_POINT('',(-0.0803863114118576,-0.0393594766072129,0.2114));
#506=CARTESIAN_POINT('',(-0.0853863114118576,-0.0543594766072129,0.2114));
#507=CARTESIAN_POINT('',(-0.0953863114118576,-0.0543594766072129,0.2114));
#508=CARTESIAN_POINT('',(-0.0953863114118576,-0.0543594766072129,0.2174));
#509=CARTESIAN_POINT('',(-0.0803863114118576,-0.0393594766072129,0.2174));
#510=CARTESIAN_POINT('',(-0.0753863114118576,-0.104359476607213,0.2174));
#511=CARTESIAN_POINT('',(-0.0903863114118576,-0.109359476607213,0.2174));
#512=CARTESIAN_POINT('',(-0.0853863114118576,-0.0893623283735393,0.206148));
#513=CARTESIAN_POINT('',(-0.0923863114118576,-0.0893623283735393,0.20615));
#514=CARTESIAN_POINT('',(-0.0923863114118576,-0.0893623283735393,0.20615));
#515=CARTESIAN_POINT('',(-0.0853863114118576,-0.0893623283735393,0.20615));
#516=CARTESIAN_POINT('',(-0.0783863114118576,-0.0893623283735393,0.20615));
#517=CARTESIAN_POINT('',(-0.0783863114118576,-0.0893623283735393,0.206148));
#518=CARTESIAN_POINT('',(0.0820268503983022,-0.0718609024903761,0.208775));
#519=CARTESIAN_POINT('',(-0.0961872391992197,-0.0855614005861772,0.206720092717498));
#520=CARTESIAN_POINT('',(-0.0783864597313147,-0.0893624766929964,0.206149977753894));
#521=CARTESIAN_POINT('',(-0.0953863114118576,-0.0863623283735393,0.2174));
#522=CARTESIAN_POINT('',(-0.0783863114118576,-0.0893623283735393,0.206148));
#523=MECHANICAL_DESIGN_GEOMETRIC_PRESENTATION_REPRESENTATION('',(#322),
#524);
#524=(
GEOMETRIC_REPRESENTATION_CONTEXT(3)
GLOBAL_UNCERTAINTY_ASSIGNED_CONTEXT((#525))
GLOBAL_UNIT_ASSIGNED_CONTEXT((#528,#527,#526))
REPRESENTATION_CONTEXT('Bed Adapter','TOP_LEVEL_ASSEMBLY_PART')
);
#525=UNCERTAINTY_MEASURE_WITH_UNIT(LENGTH_MEASURE(1.E-8),#528,
'DISTANCE_ACCURACY_VALUE','Maximum Tolerance applied to model');
#526=(
NAMED_UNIT(*)
SI_UNIT($,.STERADIAN.)
SOLID_ANGLE_UNIT()
);
#527=(
NAMED_UNIT(*)
PLANE_ANGLE_UNIT()
SI_UNIT($,.RADIAN.)
);
#528=(
LENGTH_UNIT()
NAMED_UNIT(*)
SI_UNIT($,.METRE.)
);
#529=PRODUCT_DEFINITION_SHAPE('','',#530);
#530=PRODUCT_DEFINITION('','',#532,#531);
#531=PRODUCT_DEFINITION_CONTEXT('',#538,'design');
#532=PRODUCT_DEFINITION_FORMATION_WITH_SPECIFIED_SOURCE('','',#534,
 .NOT_KNOWN.);
#533=PRODUCT_RELATED_PRODUCT_CATEGORY('','',(#534));
#534=PRODUCT('Bed Adapter','Bed Adapter','Bed Adapter',(#536));
#535=PRODUCT_CATEGORY('','');
#536=PRODUCT_CONTEXT('',#538,'mechanical');
#537=APPLICATION_PROTOCOL_DEFINITION('international standard',
'ap242_managed_model_based_3d_engineering',2020,#538);
#538=APPLICATION_CONTEXT('managed model based 3d engineering');
ENDSEC;
END-ISO-10303-21;
