ISO-10303-21;
HEADER;
/* Generated by software containing ST-Developer
 * from STEP Tools, Inc. (www.steptools.com) 
 */
/* OPTION: using custom renumber hook */

FILE_DESCRIPTION(
/* description */ ('STEP AP242 Edition 2',
'CAx-IF Rec.Pracs.---Representation and Presentation of Product Manufa
cturing Information (PMI)---4.0---2014-10-13',
'CAx-IF Rec.Pracs.---3D Tessellated Geometry---0.4---2014-09-14','2;1',
'CAx-IF Rec.Pracs.---User Defined Attributes---1.5---2016-08-15'),
/* implementation_level */ '2;1');

FILE_NAME(
/* name */ 'NOT-618 - Ext Connector (3)',
/* time_stamp */ '2026-07-26T08:51:49Z',
/* author */ (''),
/* organization */ (''),
/* preprocessor_version */ 'ST-DEVELOPER v20',
/* originating_system */ 'ONSHAPE BY PTC INC, 1.218',
/* authorisation */ '  ');

FILE_SCHEMA (('AP242_MANAGED_MODEL_BASED_3D_ENGINEERING_MIM_LF { 1 0 10303 442 3 1 4 }'));
ENDSEC;

DATA;
#10=SHAPE_REPRESENTATION_RELATIONSHIP('','',#747,#11);
#11=ADVANCED_BREP_SHAPE_REPRESENTATION('',(#745),#1207);
#12=CONICAL_SURFACE('',#806,0.00465,0.785398163397448);
#13=CONICAL_SURFACE('',#807,0.00465,0.785398163397455);
#14=CONICAL_SURFACE('',#808,0.00465,0.785398163397455);
#15=CONICAL_SURFACE('',#809,0.00265,0.785398163397448);
#16=CONICAL_SURFACE('',#810,0.00265,0.785398163397442);
#17=CONICAL_SURFACE('',#811,0.00265,0.785398163397442);
#18=CYLINDRICAL_SURFACE('',#794,0.00265);
#19=CYLINDRICAL_SURFACE('',#796,0.00265);
#20=CYLINDRICAL_SURFACE('',#798,0.00265);
#21=CYLINDRICAL_SURFACE('',#800,0.00265);
#22=CYLINDRICAL_SURFACE('',#802,0.00265);
#23=CYLINDRICAL_SURFACE('',#804,0.00265);
#24=CIRCLE('',#755,0.00465);
#25=CIRCLE('',#756,0.00465);
#26=CIRCLE('',#757,0.00465);
#27=CIRCLE('',#759,0.00465);
#28=CIRCLE('',#760,0.00465);
#29=CIRCLE('',#761,0.00465);
#30=CIRCLE('',#764,0.00265);
#31=CIRCLE('',#765,0.00265);
#32=CIRCLE('',#766,0.00265);
#33=CIRCLE('',#769,0.00265);
#34=CIRCLE('',#770,0.00265);
#35=CIRCLE('',#771,0.00265);
#36=CIRCLE('',#795,0.00265);
#37=CIRCLE('',#797,0.00265);
#38=CIRCLE('',#799,0.00265);
#39=CIRCLE('',#801,0.00265);
#40=CIRCLE('',#803,0.00265);
#41=CIRCLE('',#805,0.00265);
#42=ORIENTED_EDGE('',*,*,#222,.T.);
#43=ORIENTED_EDGE('',*,*,#223,.T.);
#44=ORIENTED_EDGE('',*,*,#224,.T.);
#45=ORIENTED_EDGE('',*,*,#225,.T.);
#46=ORIENTED_EDGE('',*,*,#226,.F.);
#47=ORIENTED_EDGE('',*,*,#227,.T.);
#48=ORIENTED_EDGE('',*,*,#228,.T.);
#49=ORIENTED_EDGE('',*,*,#229,.F.);
#50=ORIENTED_EDGE('',*,*,#230,.F.);
#51=ORIENTED_EDGE('',*,*,#231,.T.);
#52=ORIENTED_EDGE('',*,*,#232,.T.);
#53=ORIENTED_EDGE('',*,*,#233,.F.);
#54=ORIENTED_EDGE('',*,*,#234,.T.);
#55=ORIENTED_EDGE('',*,*,#235,.T.);
#56=ORIENTED_EDGE('',*,*,#236,.T.);
#57=ORIENTED_EDGE('',*,*,#237,.T.);
#58=ORIENTED_EDGE('',*,*,#233,.T.);
#59=ORIENTED_EDGE('',*,*,#238,.T.);
#60=ORIENTED_EDGE('',*,*,#239,.F.);
#61=ORIENTED_EDGE('',*,*,#240,.F.);
#62=ORIENTED_EDGE('',*,*,#241,.T.);
#63=ORIENTED_EDGE('',*,*,#242,.T.);
#64=ORIENTED_EDGE('',*,*,#243,.T.);
#65=ORIENTED_EDGE('',*,*,#244,.T.);
#66=ORIENTED_EDGE('',*,*,#245,.T.);
#67=ORIENTED_EDGE('',*,*,#246,.T.);
#68=ORIENTED_EDGE('',*,*,#247,.F.);
#69=ORIENTED_EDGE('',*,*,#248,.F.);
#70=ORIENTED_EDGE('',*,*,#249,.T.);
#71=ORIENTED_EDGE('',*,*,#250,.T.);
#72=ORIENTED_EDGE('',*,*,#251,.T.);
#73=ORIENTED_EDGE('',*,*,#252,.T.);
#74=ORIENTED_EDGE('',*,*,#253,.T.);
#75=ORIENTED_EDGE('',*,*,#254,.T.);
#76=ORIENTED_EDGE('',*,*,#255,.T.);
#77=ORIENTED_EDGE('',*,*,#256,.T.);
#78=ORIENTED_EDGE('',*,*,#257,.T.);
#79=ORIENTED_EDGE('',*,*,#258,.T.);
#80=ORIENTED_EDGE('',*,*,#259,.T.);
#81=ORIENTED_EDGE('',*,*,#260,.T.);
#82=ORIENTED_EDGE('',*,*,#261,.T.);
#83=ORIENTED_EDGE('',*,*,#262,.T.);
#84=ORIENTED_EDGE('',*,*,#263,.T.);
#85=ORIENTED_EDGE('',*,*,#264,.T.);
#86=ORIENTED_EDGE('',*,*,#265,.T.);
#87=ORIENTED_EDGE('',*,*,#266,.T.);
#88=ORIENTED_EDGE('',*,*,#267,.F.);
#89=ORIENTED_EDGE('',*,*,#268,.F.);
#90=ORIENTED_EDGE('',*,*,#246,.F.);
#91=ORIENTED_EDGE('',*,*,#269,.T.);
#92=ORIENTED_EDGE('',*,*,#270,.T.);
#93=ORIENTED_EDGE('',*,*,#271,.T.);
#94=ORIENTED_EDGE('',*,*,#272,.T.);
#95=ORIENTED_EDGE('',*,*,#268,.T.);
#96=ORIENTED_EDGE('',*,*,#273,.T.);
#97=ORIENTED_EDGE('',*,*,#229,.T.);
#98=ORIENTED_EDGE('',*,*,#274,.F.);
#99=ORIENTED_EDGE('',*,*,#230,.T.);
#100=ORIENTED_EDGE('',*,*,#240,.T.);
#101=ORIENTED_EDGE('',*,*,#275,.F.);
#102=ORIENTED_EDGE('',*,*,#247,.T.);
#103=ORIENTED_EDGE('',*,*,#248,.T.);
#104=ORIENTED_EDGE('',*,*,#275,.T.);
#105=ORIENTED_EDGE('',*,*,#239,.T.);
#106=ORIENTED_EDGE('',*,*,#276,.F.);
#107=ORIENTED_EDGE('',*,*,#277,.F.);
#108=ORIENTED_EDGE('',*,*,#278,.F.);
#109=ORIENTED_EDGE('',*,*,#279,.F.);
#110=ORIENTED_EDGE('',*,*,#232,.F.);
#111=ORIENTED_EDGE('',*,*,#280,.T.);
#112=ORIENTED_EDGE('',*,*,#227,.F.);
#113=ORIENTED_EDGE('',*,*,#281,.F.);
#114=ORIENTED_EDGE('',*,*,#269,.F.);
#115=ORIENTED_EDGE('',*,*,#245,.F.);
#116=ORIENTED_EDGE('',*,*,#276,.T.);
#117=ORIENTED_EDGE('',*,*,#238,.F.);
#118=ORIENTED_EDGE('',*,*,#267,.T.);
#119=ORIENTED_EDGE('',*,*,#281,.T.);
#120=ORIENTED_EDGE('',*,*,#226,.T.);
#121=ORIENTED_EDGE('',*,*,#273,.F.);
#122=ORIENTED_EDGE('',*,*,#274,.T.);
#123=ORIENTED_EDGE('',*,*,#228,.F.);
#124=ORIENTED_EDGE('',*,*,#280,.F.);
#125=ORIENTED_EDGE('',*,*,#231,.F.);
#126=ORIENTED_EDGE('',*,*,#282,.F.);
#127=ORIENTED_EDGE('',*,*,#224,.F.);
#128=ORIENTED_EDGE('',*,*,#283,.F.);
#129=ORIENTED_EDGE('',*,*,#263,.F.);
#130=ORIENTED_EDGE('',*,*,#284,.F.);
#131=ORIENTED_EDGE('',*,*,#282,.T.);
#132=ORIENTED_EDGE('',*,*,#285,.F.);
#133=ORIENTED_EDGE('',*,*,#286,.F.);
#134=ORIENTED_EDGE('',*,*,#283,.T.);
#135=ORIENTED_EDGE('',*,*,#287,.F.);
#136=ORIENTED_EDGE('',*,*,#285,.T.);
#137=ORIENTED_EDGE('',*,*,#266,.F.);
#138=ORIENTED_EDGE('',*,*,#288,.F.);
#139=ORIENTED_EDGE('',*,*,#234,.F.);
#140=ORIENTED_EDGE('',*,*,#284,.T.);
#141=ORIENTED_EDGE('',*,*,#237,.F.);
#142=ORIENTED_EDGE('',*,*,#289,.F.);
#143=ORIENTED_EDGE('',*,*,#225,.F.);
#144=ORIENTED_EDGE('',*,*,#290,.F.);
#145=ORIENTED_EDGE('',*,*,#222,.F.);
#146=ORIENTED_EDGE('',*,*,#291,.F.);
#147=ORIENTED_EDGE('',*,*,#258,.F.);
#148=ORIENTED_EDGE('',*,*,#287,.T.);
#149=ORIENTED_EDGE('',*,*,#223,.F.);
#150=ORIENTED_EDGE('',*,*,#292,.F.);
#151=ORIENTED_EDGE('',*,*,#244,.F.);
#152=ORIENTED_EDGE('',*,*,#286,.T.);
#153=ORIENTED_EDGE('',*,*,#243,.F.);
#154=ORIENTED_EDGE('',*,*,#293,.F.);
#155=ORIENTED_EDGE('',*,*,#264,.F.);
#156=ORIENTED_EDGE('',*,*,#294,.F.);
#157=ORIENTED_EDGE('',*,*,#265,.F.);
#158=ORIENTED_EDGE('',*,*,#295,.F.);
#159=ORIENTED_EDGE('',*,*,#249,.F.);
#160=ORIENTED_EDGE('',*,*,#288,.T.);
#161=ORIENTED_EDGE('',*,*,#294,.T.);
#162=ORIENTED_EDGE('',*,*,#296,.F.);
#163=ORIENTED_EDGE('',*,*,#291,.T.);
#164=ORIENTED_EDGE('',*,*,#289,.T.);
#165=ORIENTED_EDGE('',*,*,#297,.F.);
#166=ORIENTED_EDGE('',*,*,#292,.T.);
#167=ORIENTED_EDGE('',*,*,#290,.T.);
#168=ORIENTED_EDGE('',*,*,#298,.F.);
#169=ORIENTED_EDGE('',*,*,#295,.T.);
#170=ORIENTED_EDGE('',*,*,#293,.T.);
#171=ORIENTED_EDGE('',*,*,#299,.F.);
#172=ORIENTED_EDGE('',*,*,#296,.T.);
#173=ORIENTED_EDGE('',*,*,#252,.F.);
#174=ORIENTED_EDGE('',*,*,#300,.F.);
#175=ORIENTED_EDGE('',*,*,#235,.F.);
#176=ORIENTED_EDGE('',*,*,#297,.T.);
#177=ORIENTED_EDGE('',*,*,#236,.F.);
#178=ORIENTED_EDGE('',*,*,#301,.F.);
#179=ORIENTED_EDGE('',*,*,#259,.F.);
#180=ORIENTED_EDGE('',*,*,#298,.T.);
#181=ORIENTED_EDGE('',*,*,#257,.F.);
#182=ORIENTED_EDGE('',*,*,#302,.F.);
#183=ORIENTED_EDGE('',*,*,#241,.F.);
#184=ORIENTED_EDGE('',*,*,#299,.T.);
#185=ORIENTED_EDGE('',*,*,#242,.F.);
#186=ORIENTED_EDGE('',*,*,#303,.F.);
#187=ORIENTED_EDGE('',*,*,#250,.F.);
#188=ORIENTED_EDGE('',*,*,#301,.T.);
#189=ORIENTED_EDGE('',*,*,#300,.T.);
#190=ORIENTED_EDGE('',*,*,#304,.F.);
#191=ORIENTED_EDGE('',*,*,#303,.T.);
#192=ORIENTED_EDGE('',*,*,#302,.T.);
#193=ORIENTED_EDGE('',*,*,#305,.F.);
#194=ORIENTED_EDGE('',*,*,#304,.T.);
#195=ORIENTED_EDGE('',*,*,#251,.F.);
#196=ORIENTED_EDGE('',*,*,#305,.T.);
#197=ORIENTED_EDGE('',*,*,#256,.F.);
#198=ORIENTED_EDGE('',*,*,#306,.T.);
#199=ORIENTED_EDGE('',*,*,#279,.T.);
#200=ORIENTED_EDGE('',*,*,#307,.T.);
#201=ORIENTED_EDGE('',*,*,#278,.T.);
#202=ORIENTED_EDGE('',*,*,#308,.T.);
#203=ORIENTED_EDGE('',*,*,#277,.T.);
#204=ORIENTED_EDGE('',*,*,#309,.T.);
#205=ORIENTED_EDGE('',*,*,#272,.F.);
#206=ORIENTED_EDGE('',*,*,#310,.T.);
#207=ORIENTED_EDGE('',*,*,#271,.F.);
#208=ORIENTED_EDGE('',*,*,#311,.T.);
#209=ORIENTED_EDGE('',*,*,#270,.F.);
#210=ORIENTED_EDGE('',*,*,#306,.F.);
#211=ORIENTED_EDGE('',*,*,#253,.F.);
#212=ORIENTED_EDGE('',*,*,#307,.F.);
#213=ORIENTED_EDGE('',*,*,#254,.F.);
#214=ORIENTED_EDGE('',*,*,#308,.F.);
#215=ORIENTED_EDGE('',*,*,#255,.F.);
#216=ORIENTED_EDGE('',*,*,#260,.F.);
#217=ORIENTED_EDGE('',*,*,#309,.F.);
#218=ORIENTED_EDGE('',*,*,#261,.F.);
#219=ORIENTED_EDGE('',*,*,#310,.F.);
#220=ORIENTED_EDGE('',*,*,#262,.F.);
#221=ORIENTED_EDGE('',*,*,#311,.F.);
#222=EDGE_CURVE('',#312,#313,#370,.T.);
#223=EDGE_CURVE('',#313,#314,#371,.T.);
#224=EDGE_CURVE('',#314,#315,#372,.T.);
#225=EDGE_CURVE('',#315,#312,#373,.T.);
#226=EDGE_CURVE('',#316,#317,#374,.T.);
#227=EDGE_CURVE('',#316,#318,#375,.T.);
#228=EDGE_CURVE('',#318,#319,#376,.T.);
#229=EDGE_CURVE('',#317,#319,#377,.T.);
#230=EDGE_CURVE('',#320,#321,#378,.T.);
#231=EDGE_CURVE('',#320,#322,#379,.T.);
#232=EDGE_CURVE('',#322,#323,#380,.T.);
#233=EDGE_CURVE('',#321,#323,#381,.T.);
#234=EDGE_CURVE('',#324,#325,#382,.T.);
#235=EDGE_CURVE('',#325,#326,#383,.T.);
#236=EDGE_CURVE('',#326,#327,#384,.T.);
#237=EDGE_CURVE('',#327,#324,#385,.T.);
#238=EDGE_CURVE('',#323,#328,#386,.T.);
#239=EDGE_CURVE('',#329,#328,#387,.T.);
#240=EDGE_CURVE('',#321,#329,#388,.T.);
#241=EDGE_CURVE('',#330,#331,#389,.T.);
#242=EDGE_CURVE('',#331,#332,#390,.T.);
#243=EDGE_CURVE('',#332,#333,#391,.T.);
#244=EDGE_CURVE('',#333,#330,#392,.T.);
#245=EDGE_CURVE('',#334,#335,#393,.T.);
#246=EDGE_CURVE('',#335,#336,#394,.T.);
#247=EDGE_CURVE('',#337,#336,#395,.T.);
#248=EDGE_CURVE('',#334,#337,#396,.T.);
#249=EDGE_CURVE('',#338,#339,#397,.T.);
#250=EDGE_CURVE('',#339,#340,#398,.T.);
#251=EDGE_CURVE('',#340,#341,#399,.T.);
#252=EDGE_CURVE('',#341,#338,#400,.T.);
#253=EDGE_CURVE('',#342,#342,#24,.T.);
#254=EDGE_CURVE('',#343,#343,#25,.T.);
#255=EDGE_CURVE('',#344,#344,#26,.T.);
#256=EDGE_CURVE('',#345,#346,#401,.T.);
#257=EDGE_CURVE('',#346,#347,#402,.T.);
#258=EDGE_CURVE('',#347,#348,#403,.T.);
#259=EDGE_CURVE('',#348,#345,#404,.T.);
#260=EDGE_CURVE('',#349,#349,#27,.F.);
#261=EDGE_CURVE('',#350,#350,#28,.F.);
#262=EDGE_CURVE('',#351,#351,#29,.F.);
#263=EDGE_CURVE('',#352,#353,#405,.T.);
#264=EDGE_CURVE('',#353,#354,#406,.T.);
#265=EDGE_CURVE('',#354,#355,#407,.T.);
#266=EDGE_CURVE('',#355,#352,#408,.T.);
#267=EDGE_CURVE('',#356,#357,#409,.T.);
#268=EDGE_CURVE('',#336,#356,#410,.T.);
#269=EDGE_CURVE('',#335,#357,#411,.T.);
#270=EDGE_CURVE('',#358,#358,#30,.T.);
#271=EDGE_CURVE('',#359,#359,#31,.T.);
#272=EDGE_CURVE('',#360,#360,#32,.T.);
#273=EDGE_CURVE('',#356,#317,#412,.T.);
#274=EDGE_CURVE('',#320,#319,#413,.T.);
#275=EDGE_CURVE('',#337,#329,#414,.T.);
#276=EDGE_CURVE('',#334,#328,#415,.T.);
#277=EDGE_CURVE('',#361,#361,#33,.T.);
#278=EDGE_CURVE('',#362,#362,#34,.T.);
#279=EDGE_CURVE('',#363,#363,#35,.T.);
#280=EDGE_CURVE('',#322,#318,#416,.T.);
#281=EDGE_CURVE('',#357,#316,#417,.T.);
#282=EDGE_CURVE('',#315,#352,#418,.F.);
#283=EDGE_CURVE('',#353,#314,#419,.F.);
#284=EDGE_CURVE('',#315,#324,#420,.F.);
#285=EDGE_CURVE('',#324,#352,#421,.F.);
#286=EDGE_CURVE('',#353,#333,#422,.T.);
#287=EDGE_CURVE('',#333,#314,#423,.T.);
#288=EDGE_CURVE('',#325,#355,#424,.T.);
#289=EDGE_CURVE('',#312,#327,#425,.T.);
#290=EDGE_CURVE('',#313,#347,#426,.T.);
#291=EDGE_CURVE('',#348,#312,#427,.T.);
#292=EDGE_CURVE('',#330,#313,#428,.F.);
#293=EDGE_CURVE('',#354,#332,#429,.F.);
#294=EDGE_CURVE('',#355,#338,#430,.T.);
#295=EDGE_CURVE('',#339,#354,#431,.T.);
#296=EDGE_CURVE('',#325,#338,#432,.T.);
#297=EDGE_CURVE('',#348,#327,#433,.T.);
#298=EDGE_CURVE('',#330,#347,#434,.F.);
#299=EDGE_CURVE('',#339,#332,#435,.F.);
#300=EDGE_CURVE('',#326,#341,#436,.F.);
#301=EDGE_CURVE('',#345,#326,#437,.F.);
#302=EDGE_CURVE('',#331,#346,#438,.T.);
#303=EDGE_CURVE('',#340,#331,#439,.T.);
#304=EDGE_CURVE('',#345,#341,#440,.T.);
#305=EDGE_CURVE('',#340,#346,#441,.T.);
#306=EDGE_CURVE('',#364,#364,#36,.F.);
#307=EDGE_CURVE('',#365,#365,#37,.F.);
#308=EDGE_CURVE('',#366,#366,#38,.F.);
#309=EDGE_CURVE('',#367,#367,#39,.T.);
#310=EDGE_CURVE('',#368,#368,#40,.T.);
#311=EDGE_CURVE('',#369,#369,#41,.T.);
#312=VERTEX_POINT('',#1015);
#313=VERTEX_POINT('',#1016);
#314=VERTEX_POINT('',#1018);
#315=VERTEX_POINT('',#1020);
#316=VERTEX_POINT('',#1023);
#317=VERTEX_POINT('',#1024);
#318=VERTEX_POINT('',#1026);
#319=VERTEX_POINT('',#1028);
#320=VERTEX_POINT('',#1032);
#321=VERTEX_POINT('',#1033);
#322=VERTEX_POINT('',#1035);
#323=VERTEX_POINT('',#1037);
#324=VERTEX_POINT('',#1041);
#325=VERTEX_POINT('',#1042);
#326=VERTEX_POINT('',#1044);
#327=VERTEX_POINT('',#1046);
#328=VERTEX_POINT('',#1049);
#329=VERTEX_POINT('',#1051);
#330=VERTEX_POINT('',#1055);
#331=VERTEX_POINT('',#1056);
#332=VERTEX_POINT('',#1058);
#333=VERTEX_POINT('',#1060);
#334=VERTEX_POINT('',#1063);
#335=VERTEX_POINT('',#1064);
#336=VERTEX_POINT('',#1066);
#337=VERTEX_POINT('',#1068);
#338=VERTEX_POINT('',#1072);
#339=VERTEX_POINT('',#1073);
#340=VERTEX_POINT('',#1075);
#341=VERTEX_POINT('',#1077);
#342=VERTEX_POINT('',#1081);
#343=VERTEX_POINT('',#1083);
#344=VERTEX_POINT('',#1085);
#345=VERTEX_POINT('',#1087);
#346=VERTEX_POINT('',#1088);
#347=VERTEX_POINT('',#1090);
#348=VERTEX_POINT('',#1092);
#349=VERTEX_POINT('',#1096);
#350=VERTEX_POINT('',#1098);
#351=VERTEX_POINT('',#1100);
#352=VERTEX_POINT('',#1102);
#353=VERTEX_POINT('',#1103);
#354=VERTEX_POINT('',#1105);
#355=VERTEX_POINT('',#1107);
#356=VERTEX_POINT('',#1111);
#357=VERTEX_POINT('',#1112);
#358=VERTEX_POINT('',#1117);
#359=VERTEX_POINT('',#1119);
#360=VERTEX_POINT('',#1121);
#361=VERTEX_POINT('',#1129);
#362=VERTEX_POINT('',#1131);
#363=VERTEX_POINT('',#1133);
#364=VERTEX_POINT('',#1184);
#365=VERTEX_POINT('',#1187);
#366=VERTEX_POINT('',#1190);
#367=VERTEX_POINT('',#1193);
#368=VERTEX_POINT('',#1196);
#369=VERTEX_POINT('',#1199);
#370=LINE('',#1014,#442);
#371=LINE('',#1017,#443);
#372=LINE('',#1019,#444);
#373=LINE('',#1021,#445);
#374=LINE('',#1022,#446);
#375=LINE('',#1025,#447);
#376=LINE('',#1027,#448);
#377=LINE('',#1029,#449);
#378=LINE('',#1031,#450);
#379=LINE('',#1034,#451);
#380=LINE('',#1036,#452);
#381=LINE('',#1038,#453);
#382=LINE('',#1040,#454);
#383=LINE('',#1043,#455);
#384=LINE('',#1045,#456);
#385=LINE('',#1047,#457);
#386=LINE('',#1048,#458);
#387=LINE('',#1050,#459);
#388=LINE('',#1052,#460);
#389=LINE('',#1054,#461);
#390=LINE('',#1057,#462);
#391=LINE('',#1059,#463);
#392=LINE('',#1061,#464);
#393=LINE('',#1062,#465);
#394=LINE('',#1065,#466);
#395=LINE('',#1067,#467);
#396=LINE('',#1069,#468);
#397=LINE('',#1071,#469);
#398=LINE('',#1074,#470);
#399=LINE('',#1076,#471);
#400=LINE('',#1078,#472);
#401=LINE('',#1086,#473);
#402=LINE('',#1089,#474);
#403=LINE('',#1091,#475);
#404=LINE('',#1093,#476);
#405=LINE('',#1101,#477);
#406=LINE('',#1104,#478);
#407=LINE('',#1106,#479);
#408=LINE('',#1108,#480);
#409=LINE('',#1110,#481);
#410=LINE('',#1113,#482);
#411=LINE('',#1114,#483);
#412=LINE('',#1122,#484);
#413=LINE('',#1123,#485);
#414=LINE('',#1124,#486);
#415=LINE('',#1126,#487);
#416=LINE('',#1134,#488);
#417=LINE('',#1135,#489);
#418=LINE('',#1139,#490);
#419=LINE('',#1140,#491);
#420=LINE('',#1142,#492);
#421=LINE('',#1143,#493);
#422=LINE('',#1145,#494);
#423=LINE('',#1146,#495);
#424=LINE('',#1148,#496);
#425=LINE('',#1150,#497);
#426=LINE('',#1152,#498);
#427=LINE('',#1153,#499);
#428=LINE('',#1155,#500);
#429=LINE('',#1157,#501);
#430=LINE('',#1159,#502);
#431=LINE('',#1160,#503);
#432=LINE('',#1162,#504);
#433=LINE('',#1164,#505);
#434=LINE('',#1166,#506);
#435=LINE('',#1168,#507);
#436=LINE('',#1170,#508);
#437=LINE('',#1172,#509);
#438=LINE('',#1174,#510);
#439=LINE('',#1176,#511);
#440=LINE('',#1178,#512);
#441=LINE('',#1180,#513);
#442=VECTOR('',#816,1.);
#443=VECTOR('',#817,1.);
#444=VECTOR('',#818,1.);
#445=VECTOR('',#819,1.);
#446=VECTOR('',#820,1.);
#447=VECTOR('',#821,1.);
#448=VECTOR('',#822,1.);
#449=VECTOR('',#823,1.);
#450=VECTOR('',#826,1.);
#451=VECTOR('',#827,1.);
#452=VECTOR('',#828,1.);
#453=VECTOR('',#829,1.);
#454=VECTOR('',#832,1.);
#455=VECTOR('',#833,1.);
#456=VECTOR('',#834,1.);
#457=VECTOR('',#835,1.);
#458=VECTOR('',#836,1.);
#459=VECTOR('',#837,1.);
#460=VECTOR('',#838,1.);
#461=VECTOR('',#841,1.);
#462=VECTOR('',#842,1.);
#463=VECTOR('',#843,1.);
#464=VECTOR('',#844,1.);
#465=VECTOR('',#845,1.);
#466=VECTOR('',#846,1.);
#467=VECTOR('',#847,1.);
#468=VECTOR('',#848,1.);
#469=VECTOR('',#851,1.);
#470=VECTOR('',#852,1.);
#471=VECTOR('',#853,1.);
#472=VECTOR('',#854,1.);
#473=VECTOR('',#863,1.);
#474=VECTOR('',#864,1.);
#475=VECTOR('',#865,1.);
#476=VECTOR('',#866,1.);
#477=VECTOR('',#875,1.);
#478=VECTOR('',#876,1.);
#479=VECTOR('',#877,1.);
#480=VECTOR('',#878,1.);
#481=VECTOR('',#881,1.);
#482=VECTOR('',#882,1.);
#483=VECTOR('',#883,1.);
#484=VECTOR('',#892,1.);
#485=VECTOR('',#893,1.);
#486=VECTOR('',#894,1.);
#487=VECTOR('',#897,1.);
#488=VECTOR('',#906,1.);
#489=VECTOR('',#907,1.);
#490=VECTOR('',#914,1.);
#491=VECTOR('',#915,1.);
#492=VECTOR('',#918,1.);
#493=VECTOR('',#919,1.);
#494=VECTOR('',#922,1.);
#495=VECTOR('',#923,1.);
#496=VECTOR('',#926,1.);
#497=VECTOR('',#929,1.);
#498=VECTOR('',#932,1.);
#499=VECTOR('',#933,1.);
#500=VECTOR('',#936,1.);
#501=VECTOR('',#939,1.);
#502=VECTOR('',#942,1.);
#503=VECTOR('',#943,1.);
#504=VECTOR('',#946,1.);
#505=VECTOR('',#949,1.);
#506=VECTOR('',#952,1.);
#507=VECTOR('',#955,1.);
#508=VECTOR('',#958,1.);
#509=VECTOR('',#961,1.);
#510=VECTOR('',#964,1.);
#511=VECTOR('',#967,1.);
#512=VECTOR('',#970,1.);
#513=VECTOR('',#973,1.);
#514=EDGE_LOOP('',(#42,#43,#44,#45));
#515=EDGE_LOOP('',(#46,#47,#48,#49));
#516=EDGE_LOOP('',(#50,#51,#52,#53));
#517=EDGE_LOOP('',(#54,#55,#56,#57));
#518=EDGE_LOOP('',(#58,#59,#60,#61));
#519=EDGE_LOOP('',(#62,#63,#64,#65));
#520=EDGE_LOOP('',(#66,#67,#68,#69));
#521=EDGE_LOOP('',(#70,#71,#72,#73));
#522=EDGE_LOOP('',(#74));
#523=EDGE_LOOP('',(#75));
#524=EDGE_LOOP('',(#76));
#525=EDGE_LOOP('',(#77,#78,#79,#80));
#526=EDGE_LOOP('',(#81));
#527=EDGE_LOOP('',(#82));
#528=EDGE_LOOP('',(#83));
#529=EDGE_LOOP('',(#84,#85,#86,#87));
#530=EDGE_LOOP('',(#88,#89,#90,#91));
#531=EDGE_LOOP('',(#92));
#532=EDGE_LOOP('',(#93));
#533=EDGE_LOOP('',(#94));
#534=EDGE_LOOP('',(#95,#96,#97,#98,#99,#100,#101,#102));
#535=EDGE_LOOP('',(#103,#104,#105,#106));
#536=EDGE_LOOP('',(#107));
#537=EDGE_LOOP('',(#108));
#538=EDGE_LOOP('',(#109));
#539=EDGE_LOOP('',(#110,#111,#112,#113,#114,#115,#116,#117));
#540=EDGE_LOOP('',(#118,#119,#120,#121));
#541=EDGE_LOOP('',(#122,#123,#124,#125));
#542=EDGE_LOOP('',(#126,#127,#128,#129));
#543=EDGE_LOOP('',(#130,#131,#132));
#544=EDGE_LOOP('',(#133,#134,#135));
#545=EDGE_LOOP('',(#136,#137,#138,#139));
#546=EDGE_LOOP('',(#140,#141,#142,#143));
#547=EDGE_LOOP('',(#144,#145,#146,#147));
#548=EDGE_LOOP('',(#148,#149,#150,#151));
#549=EDGE_LOOP('',(#152,#153,#154,#155));
#550=EDGE_LOOP('',(#156,#157,#158,#159));
#551=EDGE_LOOP('',(#160,#161,#162));
#552=EDGE_LOOP('',(#163,#164,#165));
#553=EDGE_LOOP('',(#166,#167,#168));
#554=EDGE_LOOP('',(#169,#170,#171));
#555=EDGE_LOOP('',(#172,#173,#174,#175));
#556=EDGE_LOOP('',(#176,#177,#178,#179));
#557=EDGE_LOOP('',(#180,#181,#182,#183));
#558=EDGE_LOOP('',(#184,#185,#186,#187));
#559=EDGE_LOOP('',(#188,#189,#190));
#560=EDGE_LOOP('',(#191,#192,#193));
#561=EDGE_LOOP('',(#194,#195,#196,#197));
#562=EDGE_LOOP('',(#198));
#563=EDGE_LOOP('',(#199));
#564=EDGE_LOOP('',(#200));
#565=EDGE_LOOP('',(#201));
#566=EDGE_LOOP('',(#202));
#567=EDGE_LOOP('',(#203));
#568=EDGE_LOOP('',(#204));
#569=EDGE_LOOP('',(#205));
#570=EDGE_LOOP('',(#206));
#571=EDGE_LOOP('',(#207));
#572=EDGE_LOOP('',(#208));
#573=EDGE_LOOP('',(#209));
#574=EDGE_LOOP('',(#210));
#575=EDGE_LOOP('',(#211));
#576=EDGE_LOOP('',(#212));
#577=EDGE_LOOP('',(#213));
#578=EDGE_LOOP('',(#214));
#579=EDGE_LOOP('',(#215));
#580=EDGE_LOOP('',(#216));
#581=EDGE_LOOP('',(#217));
#582=EDGE_LOOP('',(#218));
#583=EDGE_LOOP('',(#219));
#584=EDGE_LOOP('',(#220));
#585=EDGE_LOOP('',(#221));
#586=FACE_BOUND('',#514,.T.);
#587=FACE_BOUND('',#515,.T.);
#588=FACE_BOUND('',#516,.T.);
#589=FACE_BOUND('',#517,.T.);
#590=FACE_BOUND('',#518,.T.);
#591=FACE_BOUND('',#519,.T.);
#592=FACE_BOUND('',#520,.T.);
#593=FACE_BOUND('',#521,.T.);
#594=FACE_BOUND('',#522,.T.);
#595=FACE_BOUND('',#523,.T.);
#596=FACE_BOUND('',#524,.T.);
#597=FACE_BOUND('',#525,.T.);
#598=FACE_BOUND('',#526,.T.);
#599=FACE_BOUND('',#527,.T.);
#600=FACE_BOUND('',#528,.T.);
#601=FACE_BOUND('',#529,.T.);
#602=FACE_BOUND('',#530,.T.);
#603=FACE_BOUND('',#531,.T.);
#604=FACE_BOUND('',#532,.T.);
#605=FACE_BOUND('',#533,.T.);
#606=FACE_BOUND('',#534,.T.);
#607=FACE_BOUND('',#535,.T.);
#608=FACE_BOUND('',#536,.T.);
#609=FACE_BOUND('',#537,.T.);
#610=FACE_BOUND('',#538,.T.);
#611=FACE_BOUND('',#539,.T.);
#612=FACE_BOUND('',#540,.T.);
#613=FACE_BOUND('',#541,.T.);
#614=FACE_BOUND('',#542,.T.);
#615=FACE_BOUND('',#543,.T.);
#616=FACE_BOUND('',#544,.T.);
#617=FACE_BOUND('',#545,.T.);
#618=FACE_BOUND('',#546,.T.);
#619=FACE_BOUND('',#547,.T.);
#620=FACE_BOUND('',#548,.T.);
#621=FACE_BOUND('',#549,.T.);
#622=FACE_BOUND('',#550,.T.);
#623=FACE_BOUND('',#551,.T.);
#624=FACE_BOUND('',#552,.T.);
#625=FACE_BOUND('',#553,.T.);
#626=FACE_BOUND('',#554,.T.);
#627=FACE_BOUND('',#555,.T.);
#628=FACE_BOUND('',#556,.T.);
#629=FACE_BOUND('',#557,.T.);
#630=FACE_BOUND('',#558,.T.);
#631=FACE_BOUND('',#559,.T.);
#632=FACE_BOUND('',#560,.T.);
#633=FACE_BOUND('',#561,.T.);
#634=FACE_BOUND('',#562,.T.);
#635=FACE_BOUND('',#563,.T.);
#636=FACE_BOUND('',#564,.T.);
#637=FACE_BOUND('',#565,.T.);
#638=FACE_BOUND('',#566,.T.);
#639=FACE_BOUND('',#567,.T.);
#640=FACE_BOUND('',#568,.T.);
#641=FACE_BOUND('',#569,.T.);
#642=FACE_BOUND('',#570,.T.);
#643=FACE_BOUND('',#571,.T.);
#644=FACE_BOUND('',#572,.T.);
#645=FACE_BOUND('',#573,.T.);
#646=FACE_BOUND('',#574,.T.);
#647=FACE_BOUND('',#575,.T.);
#648=FACE_BOUND('',#576,.T.);
#649=FACE_BOUND('',#577,.T.);
#650=FACE_BOUND('',#578,.T.);
#651=FACE_BOUND('',#579,.T.);
#652=FACE_BOUND('',#580,.T.);
#653=FACE_BOUND('',#581,.T.);
#654=FACE_BOUND('',#582,.T.);
#655=FACE_BOUND('',#583,.T.);
#656=FACE_BOUND('',#584,.T.);
#657=FACE_BOUND('',#585,.T.);
#658=PLANE('',#749);
#659=PLANE('',#750);
#660=PLANE('',#751);
#661=PLANE('',#752);
#662=PLANE('',#753);
#663=PLANE('',#754);
#664=PLANE('',#758);
#665=PLANE('',#762);
#666=PLANE('',#763);
#667=PLANE('',#767);
#668=PLANE('',#768);
#669=PLANE('',#772);
#670=PLANE('',#773);
#671=PLANE('',#774);
#672=PLANE('',#775);
#673=PLANE('',#776);
#674=PLANE('',#777);
#675=PLANE('',#778);
#676=PLANE('',#779);
#677=PLANE('',#780);
#678=PLANE('',#781);
#679=PLANE('',#782);
#680=PLANE('',#783);
#681=PLANE('',#784);
#682=PLANE('',#785);
#683=PLANE('',#786);
#684=PLANE('',#787);
#685=PLANE('',#788);
#686=PLANE('',#789);
#687=PLANE('',#790);
#688=PLANE('',#791);
#689=PLANE('',#792);
#690=PLANE('',#793);
#691=ADVANCED_FACE('',(#586,#587),#658,.T.);
#692=ADVANCED_FACE('',(#588),#659,.T.);
#693=ADVANCED_FACE('',(#589,#590),#660,.F.);
#694=ADVANCED_FACE('',(#591,#592),#661,.T.);
#695=ADVANCED_FACE('',(#593),#662,.F.);
#696=ADVANCED_FACE('',(#594,#595,#596,#597),#663,.F.);
#697=ADVANCED_FACE('',(#598,#599,#600,#601),#664,.T.);
#698=ADVANCED_FACE('',(#602),#665,.T.);
#699=ADVANCED_FACE('',(#603,#604,#605,#606),#666,.F.);
#700=ADVANCED_FACE('',(#607),#667,.F.);
#701=ADVANCED_FACE('',(#608,#609,#610,#611),#668,.T.);
#702=ADVANCED_FACE('',(#612),#669,.F.);
#703=ADVANCED_FACE('',(#613),#670,.T.);
#704=ADVANCED_FACE('',(#614),#671,.F.);
#705=ADVANCED_FACE('',(#615),#672,.T.);
#706=ADVANCED_FACE('',(#616),#673,.T.);
#707=ADVANCED_FACE('',(#617),#674,.T.);
#708=ADVANCED_FACE('',(#618),#675,.T.);
#709=ADVANCED_FACE('',(#619),#676,.T.);
#710=ADVANCED_FACE('',(#620),#677,.F.);
#711=ADVANCED_FACE('',(#621),#678,.F.);
#712=ADVANCED_FACE('',(#622),#679,.T.);
#713=ADVANCED_FACE('',(#623),#680,.T.);
#714=ADVANCED_FACE('',(#624),#681,.T.);
#715=ADVANCED_FACE('',(#625),#682,.T.);
#716=ADVANCED_FACE('',(#626),#683,.T.);
#717=ADVANCED_FACE('',(#627),#684,.F.);
#718=ADVANCED_FACE('',(#628),#685,.F.);
#719=ADVANCED_FACE('',(#629),#686,.T.);
#720=ADVANCED_FACE('',(#630),#687,.T.);
#721=ADVANCED_FACE('',(#631),#688,.T.);
#722=ADVANCED_FACE('',(#632),#689,.T.);
#723=ADVANCED_FACE('',(#633),#690,.F.);
#724=ADVANCED_FACE('',(#634,#635),#18,.F.);
#725=ADVANCED_FACE('',(#636,#637),#19,.F.);
#726=ADVANCED_FACE('',(#638,#639),#20,.F.);
#727=ADVANCED_FACE('',(#640,#641),#21,.F.);
#728=ADVANCED_FACE('',(#642,#643),#22,.F.);
#729=ADVANCED_FACE('',(#644,#645),#23,.F.);
#730=ADVANCED_FACE('',(#646,#647),#12,.F.);
#731=ADVANCED_FACE('',(#648,#649),#13,.F.);
#732=ADVANCED_FACE('',(#650,#651),#14,.F.);
#733=ADVANCED_FACE('',(#652,#653),#15,.F.);
#734=ADVANCED_FACE('',(#654,#655),#16,.F.);
#735=ADVANCED_FACE('',(#656,#657),#17,.F.);
#736=CLOSED_SHELL('',(#691,#692,#693,#694,#695,#696,#697,#698,#699,#700,
#701,#702,#703,#704,#705,#706,#707,#708,#709,#710,#711,#712,#713,#714,#715,
#716,#717,#718,#719,#720,#721,#722,#723,#724,#725,#726,#727,#728,#729,#730,
#731,#732,#733,#734,#735));
#737=STYLED_ITEM('',(#738),#745);
#738=PRESENTATION_STYLE_ASSIGNMENT((#739));
#739=SURFACE_STYLE_USAGE(.BOTH.,#740);
#740=SURFACE_SIDE_STYLE('',(#741));
#741=SURFACE_STYLE_FILL_AREA(#742);
#742=FILL_AREA_STYLE('',(#743));
#743=FILL_AREA_STYLE_COLOUR('',#744);
#744=COLOUR_RGB('',0.866666666666667,0.32156862745098,0.156862745098039);
#745=MANIFOLD_SOLID_BREP('Ext Connector',#736);
#746=SHAPE_DEFINITION_REPRESENTATION(#1212,#747);
#747=SHAPE_REPRESENTATION('Ext Connector',(#748),#1207);
#748=AXIS2_PLACEMENT_3D('',#1012,#812,#813);
#749=AXIS2_PLACEMENT_3D('',#1013,#814,#815);
#750=AXIS2_PLACEMENT_3D('',#1030,#824,#825);
#751=AXIS2_PLACEMENT_3D('',#1039,#830,#831);
#752=AXIS2_PLACEMENT_3D('',#1053,#839,#840);
#753=AXIS2_PLACEMENT_3D('',#1070,#849,#850);
#754=AXIS2_PLACEMENT_3D('',#1079,#855,#856);
#755=AXIS2_PLACEMENT_3D('',#1080,#857,#858);
#756=AXIS2_PLACEMENT_3D('',#1082,#859,#860);
#757=AXIS2_PLACEMENT_3D('',#1084,#861,#862);
#758=AXIS2_PLACEMENT_3D('',#1094,#867,#868);
#759=AXIS2_PLACEMENT_3D('',#1095,#869,#870);
#760=AXIS2_PLACEMENT_3D('',#1097,#871,#872);
#761=AXIS2_PLACEMENT_3D('',#1099,#873,#874);
#762=AXIS2_PLACEMENT_3D('',#1109,#879,#880);
#763=AXIS2_PLACEMENT_3D('',#1115,#884,#885);
#764=AXIS2_PLACEMENT_3D('',#1116,#886,#887);
#765=AXIS2_PLACEMENT_3D('',#1118,#888,#889);
#766=AXIS2_PLACEMENT_3D('',#1120,#890,#891);
#767=AXIS2_PLACEMENT_3D('',#1125,#895,#896);
#768=AXIS2_PLACEMENT_3D('',#1127,#898,#899);
#769=AXIS2_PLACEMENT_3D('',#1128,#900,#901);
#770=AXIS2_PLACEMENT_3D('',#1130,#902,#903);
#771=AXIS2_PLACEMENT_3D('',#1132,#904,#905);
#772=AXIS2_PLACEMENT_3D('',#1136,#908,#909);
#773=AXIS2_PLACEMENT_3D('',#1137,#910,#911);
#774=AXIS2_PLACEMENT_3D('',#1138,#912,#913);
#775=AXIS2_PLACEMENT_3D('',#1141,#916,#917);
#776=AXIS2_PLACEMENT_3D('',#1144,#920,#921);
#777=AXIS2_PLACEMENT_3D('',#1147,#924,#925);
#778=AXIS2_PLACEMENT_3D('',#1149,#927,#928);
#779=AXIS2_PLACEMENT_3D('',#1151,#930,#931);
#780=AXIS2_PLACEMENT_3D('',#1154,#934,#935);
#781=AXIS2_PLACEMENT_3D('',#1156,#937,#938);
#782=AXIS2_PLACEMENT_3D('',#1158,#940,#941);
#783=AXIS2_PLACEMENT_3D('',#1161,#944,#945);
#784=AXIS2_PLACEMENT_3D('',#1163,#947,#948);
#785=AXIS2_PLACEMENT_3D('',#1165,#950,#951);
#786=AXIS2_PLACEMENT_3D('',#1167,#953,#954);
#787=AXIS2_PLACEMENT_3D('',#1169,#956,#957);
#788=AXIS2_PLACEMENT_3D('',#1171,#959,#960);
#789=AXIS2_PLACEMENT_3D('',#1173,#962,#963);
#790=AXIS2_PLACEMENT_3D('',#1175,#965,#966);
#791=AXIS2_PLACEMENT_3D('',#1177,#968,#969);
#792=AXIS2_PLACEMENT_3D('',#1179,#971,#972);
#793=AXIS2_PLACEMENT_3D('',#1181,#974,#975);
#794=AXIS2_PLACEMENT_3D('',#1182,#976,#977);
#795=AXIS2_PLACEMENT_3D('',#1183,#978,#979);
#796=AXIS2_PLACEMENT_3D('',#1185,#980,#981);
#797=AXIS2_PLACEMENT_3D('',#1186,#982,#983);
#798=AXIS2_PLACEMENT_3D('',#1188,#984,#985);
#799=AXIS2_PLACEMENT_3D('',#1189,#986,#987);
#800=AXIS2_PLACEMENT_3D('',#1191,#988,#989);
#801=AXIS2_PLACEMENT_3D('',#1192,#990,#991);
#802=AXIS2_PLACEMENT_3D('',#1194,#992,#993);
#803=AXIS2_PLACEMENT_3D('',#1195,#994,#995);
#804=AXIS2_PLACEMENT_3D('',#1197,#996,#997);
#805=AXIS2_PLACEMENT_3D('',#1198,#998,#999);
#806=AXIS2_PLACEMENT_3D('',#1200,#1000,#1001);
#807=AXIS2_PLACEMENT_3D('',#1201,#1002,#1003);
#808=AXIS2_PLACEMENT_3D('',#1202,#1004,#1005);
#809=AXIS2_PLACEMENT_3D('',#1203,#1006,#1007);
#810=AXIS2_PLACEMENT_3D('',#1204,#1008,#1009);
#811=AXIS2_PLACEMENT_3D('',#1205,#1010,#1011);
#812=DIRECTION('',(0.,0.,1.));
#813=DIRECTION('',(1.,0.,0.));
#814=DIRECTION('',(0.,0.,-1.));
#815=DIRECTION('',(0.,1.,0.));
#816=DIRECTION('',(0.,-1.,0.));
#817=DIRECTION('',(-1.,0.,0.));
#818=DIRECTION('',(0.,1.,0.));
#819=DIRECTION('',(1.,0.,0.));
#820=DIRECTION('',(-1.,0.,0.));
#821=DIRECTION('',(0.,1.,0.));
#822=DIRECTION('',(-1.,0.,0.));
#823=DIRECTION('',(0.,1.,0.));
#824=DIRECTION('',(0.,0.,1.));
#825=DIRECTION('',(0.,-1.,0.));
#826=DIRECTION('',(0.,1.,0.));
#827=DIRECTION('',(1.,0.,0.));
#828=DIRECTION('',(0.,1.,0.));
#829=DIRECTION('',(1.,0.,0.));
#830=DIRECTION('',(0.,-1.,0.));
#831=DIRECTION('',(-1.,0.,0.));
#832=DIRECTION('',(0.,0.,1.));
#833=DIRECTION('',(1.,0.,0.));
#834=DIRECTION('',(0.,0.,-1.));
#835=DIRECTION('',(-1.,0.,0.));
#836=DIRECTION('',(0.,0.,1.));
#837=DIRECTION('',(1.,0.,0.));
#838=DIRECTION('',(0.,0.,1.));
#839=DIRECTION('',(0.,-1.,0.));
#840=DIRECTION('',(-1.,0.,0.));
#841=DIRECTION('',(0.,0.,1.));
#842=DIRECTION('',(-1.,0.,0.));
#843=DIRECTION('',(0.,0.,-1.));
#844=DIRECTION('',(1.,0.,0.));
#845=DIRECTION('',(0.,0.,-1.));
#846=DIRECTION('',(-1.,0.,0.));
#847=DIRECTION('',(0.,0.,-1.));
#848=DIRECTION('',(-1.,0.,0.));
#849=DIRECTION('',(0.,0.,-1.));
#850=DIRECTION('',(0.,1.,0.));
#851=DIRECTION('',(0.,-1.,0.));
#852=DIRECTION('',(1.,0.,0.));
#853=DIRECTION('',(0.,1.,0.));
#854=DIRECTION('',(-1.,0.,0.));
#855=DIRECTION('',(-1.,0.,0.));
#856=DIRECTION('',(0.,0.,1.));
#857=DIRECTION('',(-1.,0.,0.));
#858=DIRECTION('',(0.,1.,0.));
#859=DIRECTION('',(-1.,0.,0.));
#860=DIRECTION('',(0.,1.,0.));
#861=DIRECTION('',(-1.,0.,0.));
#862=DIRECTION('',(0.,1.,0.));
#863=DIRECTION('',(0.,-1.,0.));
#864=DIRECTION('',(0.,0.,-1.));
#865=DIRECTION('',(0.,1.,0.));
#866=DIRECTION('',(0.,0.,1.));
#867=DIRECTION('',(-1.,0.,0.));
#868=DIRECTION('',(0.,0.,1.));
#869=DIRECTION('',(-1.,0.,0.));
#870=DIRECTION('',(0.,1.,0.));
#871=DIRECTION('',(-1.,0.,0.));
#872=DIRECTION('',(0.,1.,0.));
#873=DIRECTION('',(-1.,0.,0.));
#874=DIRECTION('',(0.,1.,0.));
#875=DIRECTION('',(0.,-1.,0.));
#876=DIRECTION('',(0.,0.,1.));
#877=DIRECTION('',(0.,1.,0.));
#878=DIRECTION('',(0.,0.,-1.));
#879=DIRECTION('',(0.,0.,1.));
#880=DIRECTION('',(0.,-1.,0.));
#881=DIRECTION('',(1.,0.,0.));
#882=DIRECTION('',(0.,1.,0.));
#883=DIRECTION('',(0.,1.,0.));
#884=DIRECTION('',(-1.,0.,0.));
#885=DIRECTION('',(0.,1.,0.));
#886=DIRECTION('',(-1.,0.,0.));
#887=DIRECTION('',(0.,1.,0.));
#888=DIRECTION('',(-1.,0.,0.));
#889=DIRECTION('',(0.,1.,0.));
#890=DIRECTION('',(-1.,0.,0.));
#891=DIRECTION('',(0.,1.,0.));
#892=DIRECTION('',(0.,0.,-1.));
#893=DIRECTION('',(0.,0.,-1.));
#894=DIRECTION('',(0.,1.,0.));
#895=DIRECTION('',(0.,0.,1.));
#896=DIRECTION('',(0.,-1.,0.));
#897=DIRECTION('',(0.,1.,0.));
#898=DIRECTION('',(-1.,0.,0.));
#899=DIRECTION('',(0.,1.,0.));
#900=DIRECTION('',(-1.,0.,0.));
#901=DIRECTION('',(0.,1.,0.));
#902=DIRECTION('',(-1.,0.,0.));
#903=DIRECTION('',(0.,1.,0.));
#904=DIRECTION('',(-1.,0.,0.));
#905=DIRECTION('',(0.,1.,0.));
#906=DIRECTION('',(0.,0.,-1.));
#907=DIRECTION('',(0.,0.,-1.));
#908=DIRECTION('',(0.,-1.,0.));
#909=DIRECTION('',(-1.,0.,0.));
#910=DIRECTION('',(0.,-1.,0.));
#911=DIRECTION('',(-1.,0.,0.));
#912=DIRECTION('',(0.707106781186548,0.,0.707106781186548));
#913=DIRECTION('',(0.,-1.,0.));
#914=DIRECTION('',(0.707106781186548,0.,-0.707106781186548));
#915=DIRECTION('',(-0.707106781186548,0.,0.707106781186548));
#916=DIRECTION('',(-0.577350269189626,0.577350269189626,-0.577350269189626));
#917=DIRECTION('',(0.707106781186548,0.707106781186548,0.));
#918=DIRECTION('',(0.,-0.707106781186548,-0.707106781186548));
#919=DIRECTION('',(0.707106781186548,0.707106781186548,0.));
#920=DIRECTION('',(-0.577350269189626,-0.577350269189626,-0.577350269189626));
#921=DIRECTION('',(-0.707106781186548,0.707106781186548,0.));
#922=DIRECTION('',(0.707106781186548,-0.707106781186548,0.));
#923=DIRECTION('',(0.,0.707106781186548,-0.707106781186548));
#924=DIRECTION('',(-0.707106781186548,0.707106781186548,0.));
#925=DIRECTION('',(0.,0.,-1.));
#926=DIRECTION('',(-0.707106781186548,-0.707106781186548,0.));
#927=DIRECTION('',(0.,0.707106781186548,-0.707106781186548));
#928=DIRECTION('',(1.,0.,0.));
#929=DIRECTION('',(0.,0.707106781186548,0.707106781186548));
#930=DIRECTION('',(0.707106781186548,0.,-0.707106781186548));
#931=DIRECTION('',(0.,1.,0.));
#932=DIRECTION('',(0.707106781186548,0.,0.707106781186548));
#933=DIRECTION('',(-0.707106781186548,0.,-0.707106781186548));
#934=DIRECTION('',(0.,0.707106781186548,0.707106781186548));
#935=DIRECTION('',(-1.,0.,0.));
#936=DIRECTION('',(0.,-0.707106781186548,0.707106781186548));
#937=DIRECTION('',(0.707106781186548,0.707106781186548,0.));
#938=DIRECTION('',(0.,0.,1.));
#939=DIRECTION('',(-0.707106781186548,0.707106781186548,0.));
#940=DIRECTION('',(-0.707106781186548,0.,0.707106781186548));
#941=DIRECTION('',(0.,1.,0.));
#942=DIRECTION('',(0.707106781186548,0.,0.707106781186548));
#943=DIRECTION('',(-0.707106781186548,0.,-0.707106781186548));
#944=DIRECTION('',(-0.577350269189626,0.577350269189626,0.577350269189626));
#945=DIRECTION('',(0.707106781186548,0.707106781186548,0.));
#946=DIRECTION('',(0.,-0.707106781186548,0.707106781186548));
#947=DIRECTION('',(0.577350269189626,0.577350269189626,-0.577350269189626));
#948=DIRECTION('',(0.707106781186548,-0.707106781186548,0.));
#949=DIRECTION('',(-0.707106781186548,0.707106781186548,0.));
#950=DIRECTION('',(0.577350269189626,-0.577350269189626,-0.577350269189626));
#951=DIRECTION('',(-0.707106781186548,-0.707106781186548,0.));
#952=DIRECTION('',(-0.707106781186548,-0.707106781186548,0.));
#953=DIRECTION('',(-0.577350269189626,-0.577350269189626,0.577350269189626));
#954=DIRECTION('',(-0.707106781186548,0.707106781186548,0.));
#955=DIRECTION('',(0.,0.707106781186548,0.707106781186548));
#956=DIRECTION('',(0.,-0.707106781186548,-0.707106781186548));
#957=DIRECTION('',(-1.,0.,0.));
#958=DIRECTION('',(0.,0.707106781186548,-0.707106781186548));
#959=DIRECTION('',(-0.707106781186548,-0.707106781186548,0.));
#960=DIRECTION('',(0.,0.,1.));
#961=DIRECTION('',(0.707106781186548,-0.707106781186548,0.));
#962=DIRECTION('',(0.707106781186548,-0.707106781186548,0.));
#963=DIRECTION('',(0.,0.,-1.));
#964=DIRECTION('',(0.707106781186548,0.707106781186548,0.));
#965=DIRECTION('',(0.,-0.707106781186548,0.707106781186548));
#966=DIRECTION('',(1.,0.,0.));
#967=DIRECTION('',(0.,-0.707106781186548,-0.707106781186548));
#968=DIRECTION('',(0.577350269189626,0.577350269189626,0.577350269189626));
#969=DIRECTION('',(0.707106781186548,-0.707106781186548,0.));
#970=DIRECTION('',(-0.707106781186548,0.,0.707106781186548));
#971=DIRECTION('',(0.577350269189626,-0.577350269189626,0.577350269189626));
#972=DIRECTION('',(-0.707106781186548,-0.707106781186548,0.));
#973=DIRECTION('',(0.707106781186548,0.,-0.707106781186548));
#974=DIRECTION('',(-0.707106781186548,0.,-0.707106781186548));
#975=DIRECTION('',(0.,-1.,0.));
#976=DIRECTION('',(1.,0.,0.));
#977=DIRECTION('',(0.,-1.,0.));
#978=DIRECTION('',(-1.,0.,0.));
#979=DIRECTION('',(0.,1.,0.));
#980=DIRECTION('',(1.,0.,0.));
#981=DIRECTION('',(0.,-1.,0.));
#982=DIRECTION('',(-1.,0.,0.));
#983=DIRECTION('',(0.,1.,0.));
#984=DIRECTION('',(1.,0.,0.));
#985=DIRECTION('',(0.,-1.,0.));
#986=DIRECTION('',(-1.,0.,0.));
#987=DIRECTION('',(0.,1.,0.));
#988=DIRECTION('',(1.,0.,0.));
#989=DIRECTION('',(0.,-1.,0.));
#990=DIRECTION('',(-1.,0.,0.));
#991=DIRECTION('',(0.,1.,0.));
#992=DIRECTION('',(1.,0.,0.));
#993=DIRECTION('',(0.,-1.,0.));
#994=DIRECTION('',(-1.,0.,0.));
#995=DIRECTION('',(0.,1.,0.));
#996=DIRECTION('',(1.,0.,0.));
#997=DIRECTION('',(0.,-1.,0.));
#998=DIRECTION('',(-1.,0.,0.));
#999=DIRECTION('',(0.,1.,0.));
#1000=DIRECTION('',(1.,0.,0.));
#1001=DIRECTION('',(0.,-1.,0.));
#1002=DIRECTION('',(1.,0.,0.));
#1003=DIRECTION('',(0.,-1.,0.));
#1004=DIRECTION('',(1.,0.,0.));
#1005=DIRECTION('',(0.,-1.,0.));
#1006=DIRECTION('',(-1.,0.,0.));
#1007=DIRECTION('',(0.,1.,0.));
#1008=DIRECTION('',(-1.,0.,0.));
#1009=DIRECTION('',(0.,1.,0.));
#1010=DIRECTION('',(-1.,0.,0.));
#1011=DIRECTION('',(0.,1.,0.));
#1012=CARTESIAN_POINT('',(0.,0.,0.));
#1013=CARTESIAN_POINT('',(-0.157736132310247,0.332756029657602,0.168390007992224));
#1014=CARTESIAN_POINT('',(-0.160736132310247,0.307756029657602,0.168390007992224));
#1015=CARTESIAN_POINT('',(-0.160736132310247,0.354756029657602,0.168390007992224));
#1016=CARTESIAN_POINT('',(-0.160736132310247,0.310756029657602,0.168390007992224));
#1017=CARTESIAN_POINT('',(-0.157736132310247,0.310756029657602,0.168390007992224));
#1018=CARTESIAN_POINT('',(-0.184736132310247,0.310756029657602,0.168390007992224));
#1019=CARTESIAN_POINT('',(-0.184736132310247,0.332756029657602,0.168390007992224));
#1020=CARTESIAN_POINT('',(-0.184736132310247,0.354756029657602,0.168390007992224));
#1021=CARTESIAN_POINT('',(-0.157736132310247,0.354756029657602,0.168390007992224));
#1022=CARTESIAN_POINT('',(-0.172736132310247,0.312756029657602,0.168390007992224));
#1023=CARTESIAN_POINT('',(-0.162736132310247,0.312756029657602,0.168390007992224));
#1024=CARTESIAN_POINT('',(-0.182736132310247,0.312756029657602,0.168390007992224));
#1025=CARTESIAN_POINT('',(-0.162736132310247,0.332756029657602,0.168390007992224));
#1026=CARTESIAN_POINT('',(-0.162736132310247,0.352756029657602,0.168390007992224));
#1027=CARTESIAN_POINT('',(-0.172736132310247,0.352756029657602,0.168390007992224));
#1028=CARTESIAN_POINT('',(-0.182736132310247,0.352756029657602,0.168390007992224));
#1029=CARTESIAN_POINT('',(-0.182736132310247,0.332756029657602,0.168390007992224));
#1030=CARTESIAN_POINT('',(-0.172736132310247,-0.49311246704725,0.188390007992223));
#1031=CARTESIAN_POINT('',(-0.182736132310247,-0.49311246704725,0.188390007992223));
#1032=CARTESIAN_POINT('',(-0.182736132310247,0.352756029657602,0.188390007992223));
#1033=CARTESIAN_POINT('',(-0.182736132310247,0.357756029657602,0.188390007992223));
#1034=CARTESIAN_POINT('',(-0.172736132310247,0.352756029657602,0.188390007992223));
#1035=CARTESIAN_POINT('',(-0.162736132310247,0.352756029657602,0.188390007992223));
#1036=CARTESIAN_POINT('',(-0.162736132310247,-0.49311246704725,0.188390007992223));
#1037=CARTESIAN_POINT('',(-0.162736132310247,0.357756029657602,0.188390007992223));
#1038=CARTESIAN_POINT('',(-0.172736132310247,0.357756029657602,0.188390007992223));
#1039=CARTESIAN_POINT('',(-0.157736132310247,0.357756029657602,0.190890007992223));
#1040=CARTESIAN_POINT('',(-0.184736132310247,0.357756029657602,0.213390007992224));
#1041=CARTESIAN_POINT('',(-0.184736132310247,0.357756029657602,0.171390007992224));
#1042=CARTESIAN_POINT('',(-0.184736132310247,0.357756029657602,0.210390007992224));
#1043=CARTESIAN_POINT('',(-0.157736132310247,0.357756029657602,0.210390007992224));
#1044=CARTESIAN_POINT('',(-0.160736132310247,0.357756029657602,0.210390007992224));
#1045=CARTESIAN_POINT('',(-0.160736132310247,0.357756029657602,0.190890007992223));
#1046=CARTESIAN_POINT('',(-0.160736132310247,0.357756029657602,0.171390007992224));
#1047=CARTESIAN_POINT('',(-0.187736132310247,0.357756029657602,0.171390007992224));
#1048=CARTESIAN_POINT('',(-0.162736132310247,0.357756029657602,0.19838858210906));
#1049=CARTESIAN_POINT('',(-0.162736132310247,0.357756029657602,0.208387156225897));
#1050=CARTESIAN_POINT('',(-0.172736132310247,0.357756029657602,0.208387156225897));
#1051=CARTESIAN_POINT('',(-0.182736132310247,0.357756029657602,0.208387156225897));
#1052=CARTESIAN_POINT('',(-0.182736132310247,0.357756029657602,0.19838858210906));
#1053=CARTESIAN_POINT('',(-0.157736132310247,0.307756029657602,0.190890007992223));
#1054=CARTESIAN_POINT('',(-0.160736132310247,0.307756029657602,0.213390007992224));
#1055=CARTESIAN_POINT('',(-0.160736132310247,0.307756029657602,0.171390007992224));
#1056=CARTESIAN_POINT('',(-0.160736132310247,0.307756029657602,0.210390007992224));
#1057=CARTESIAN_POINT('',(-0.187736132310247,0.307756029657602,0.210390007992224));
#1058=CARTESIAN_POINT('',(-0.184736132310247,0.307756029657602,0.210390007992224));
#1059=CARTESIAN_POINT('',(-0.184736132310247,0.307756029657602,0.190890007992223));
#1060=CARTESIAN_POINT('',(-0.184736132310247,0.307756029657602,0.171390007992224));
#1061=CARTESIAN_POINT('',(-0.157736132310247,0.307756029657602,0.171390007992224));
#1062=CARTESIAN_POINT('',(-0.162736132310247,0.307756029657602,0.190890007992223));
#1063=CARTESIAN_POINT('',(-0.162736132310247,0.307756029657602,0.208387156225897));
#1064=CARTESIAN_POINT('',(-0.162736132310247,0.307756029657602,0.188390007992223));
#1065=CARTESIAN_POINT('',(-0.157736132310247,0.307756029657602,0.188390007992223));
#1066=CARTESIAN_POINT('',(-0.182736132310247,0.307756029657602,0.188390007992223));
#1067=CARTESIAN_POINT('',(-0.182736132310247,0.307756029657602,0.190890007992223));
#1068=CARTESIAN_POINT('',(-0.182736132310247,0.307756029657602,0.208387156225897));
#1069=CARTESIAN_POINT('',(-0.157736132310247,0.307756029657602,0.208387156225897));
#1070=CARTESIAN_POINT('',(-0.157736132310247,0.332756029657602,0.213390007992224));
#1071=CARTESIAN_POINT('',(-0.184736132310247,0.307756029657602,0.213390007992224));
#1072=CARTESIAN_POINT('',(-0.184736132310247,0.354756029657602,0.213390007992224));
#1073=CARTESIAN_POINT('',(-0.184736132310247,0.310756029657602,0.213390007992224));
#1074=CARTESIAN_POINT('',(-0.157736132310247,0.310756029657602,0.213390007992224));
#1075=CARTESIAN_POINT('',(-0.160736132310247,0.310756029657602,0.213390007992224));
#1076=CARTESIAN_POINT('',(-0.160736132310247,0.332756029657602,0.213390007992224));
#1077=CARTESIAN_POINT('',(-0.160736132310247,0.354756029657602,0.213390007992224));
#1078=CARTESIAN_POINT('',(-0.157736132310247,0.354756029657602,0.213390007992224));
#1079=CARTESIAN_POINT('',(-0.157736132310247,0.332631029657602,-0.0413649579444655));
#1080=CARTESIAN_POINT('',(-0.157736132310247,0.332506029657602,0.198447915675596));
#1081=CARTESIAN_POINT('',(-0.157736132310247,0.337156029657602,0.198447915675596));
#1082=CARTESIAN_POINT('',(-0.157736132310247,0.322506029657602,0.177673297524452));
#1083=CARTESIAN_POINT('',(-0.157736132310247,0.327156029657602,0.177673297524452));
#1084=CARTESIAN_POINT('',(-0.157736132310247,0.342506029657602,0.177673297524452));
#1085=CARTESIAN_POINT('',(-0.157736132310247,0.347156029657602,0.177673297524452));
#1086=CARTESIAN_POINT('',(-0.157736132310247,0.332631029657602,0.210390007992224));
#1087=CARTESIAN_POINT('',(-0.157736132310247,0.354756029657602,0.210390007992224));
#1088=CARTESIAN_POINT('',(-0.157736132310247,0.310756029657602,0.210390007992224));
#1089=CARTESIAN_POINT('',(-0.157736132310247,0.310756029657602,0.168390007992224));
#1090=CARTESIAN_POINT('',(-0.157736132310247,0.310756029657602,0.171390007992224));
#1091=CARTESIAN_POINT('',(-0.157736132310247,0.357756029657602,0.171390007992224));
#1092=CARTESIAN_POINT('',(-0.157736132310247,0.354756029657602,0.171390007992224));
#1093=CARTESIAN_POINT('',(-0.157736132310247,0.354756029657602,-0.0413649579444655));
#1094=CARTESIAN_POINT('',(-0.187736132310247,0.332631029657602,-0.0413649579444655));
#1095=CARTESIAN_POINT('',(-0.187736132310247,0.332506029657602,0.198447915675596));
#1096=CARTESIAN_POINT('',(-0.187736132310247,0.337156029657602,0.198447915675596));
#1097=CARTESIAN_POINT('',(-0.187736132310247,0.322506029657602,0.177673297524452));
#1098=CARTESIAN_POINT('',(-0.187736132310247,0.327156029657602,0.177673297524452));
#1099=CARTESIAN_POINT('',(-0.187736132310247,0.342506029657602,0.177673297524452));
#1100=CARTESIAN_POINT('',(-0.187736132310247,0.347156029657602,0.177673297524452));
#1101=CARTESIAN_POINT('',(-0.187736132310247,0.332631029657602,0.171390007992224));
#1102=CARTESIAN_POINT('',(-0.187736132310247,0.354756029657602,0.171390007992224));
#1103=CARTESIAN_POINT('',(-0.187736132310247,0.310756029657602,0.171390007992224));
#1104=CARTESIAN_POINT('',(-0.187736132310247,0.310756029657602,-0.0413649579444655));
#1105=CARTESIAN_POINT('',(-0.187736132310247,0.310756029657602,0.210390007992224));
#1106=CARTESIAN_POINT('',(-0.187736132310247,0.357756029657602,0.210390007992224));
#1107=CARTESIAN_POINT('',(-0.187736132310247,0.354756029657602,0.210390007992224));
#1108=CARTESIAN_POINT('',(-0.187736132310247,0.354756029657602,0.168390007992224));
#1109=CARTESIAN_POINT('',(-0.172736132310247,-0.49311246704725,0.188390007992223));
#1110=CARTESIAN_POINT('',(-0.172736132310247,0.312756029657602,0.188390007992223));
#1111=CARTESIAN_POINT('',(-0.182736132310247,0.312756029657602,0.188390007992223));
#1112=CARTESIAN_POINT('',(-0.162736132310247,0.312756029657602,0.188390007992223));
#1113=CARTESIAN_POINT('',(-0.182736132310247,-0.49311246704725,0.188390007992223));
#1114=CARTESIAN_POINT('',(-0.162736132310247,-0.49311246704725,0.188390007992223));
#1115=CARTESIAN_POINT('',(-0.182736132310247,-0.49311246704725,0.19838858210906));
#1116=CARTESIAN_POINT('',(-0.182736132310247,0.342506029657602,0.177673297524452));
#1117=CARTESIAN_POINT('',(-0.182736132310247,0.345156029657602,0.177673297524452));
#1118=CARTESIAN_POINT('',(-0.182736132310247,0.322506029657602,0.177673297524452));
#1119=CARTESIAN_POINT('',(-0.182736132310247,0.325156029657602,0.177673297524452));
#1120=CARTESIAN_POINT('',(-0.182736132310247,0.332506029657602,0.198447915675596));
#1121=CARTESIAN_POINT('',(-0.182736132310247,0.335156029657602,0.198447915675596));
#1122=CARTESIAN_POINT('',(-0.182736132310247,0.312756029657602,0.198390007992224));
#1123=CARTESIAN_POINT('',(-0.182736132310247,0.352756029657602,0.198390007992224));
#1124=CARTESIAN_POINT('',(-0.182736132310247,-0.49311246704725,0.208387156225897));
#1125=CARTESIAN_POINT('',(-0.172736132310247,-0.49311246704725,0.208387156225897));
#1126=CARTESIAN_POINT('',(-0.162736132310247,-0.49311246704725,0.208387156225897));
#1127=CARTESIAN_POINT('',(-0.162736132310247,-0.49311246704725,0.19838858210906));
#1128=CARTESIAN_POINT('',(-0.162736132310247,0.342506029657602,0.177673297524452));
#1129=CARTESIAN_POINT('',(-0.162736132310247,0.345156029657602,0.177673297524452));
#1130=CARTESIAN_POINT('',(-0.162736132310247,0.322506029657602,0.177673297524452));
#1131=CARTESIAN_POINT('',(-0.162736132310247,0.325156029657602,0.177673297524452));
#1132=CARTESIAN_POINT('',(-0.162736132310247,0.332506029657602,0.198447915675596));
#1133=CARTESIAN_POINT('',(-0.162736132310247,0.335156029657602,0.198447915675596));
#1134=CARTESIAN_POINT('',(-0.162736132310247,0.352756029657602,0.198390007992224));
#1135=CARTESIAN_POINT('',(-0.162736132310247,0.312756029657602,0.198390007992224));
#1136=CARTESIAN_POINT('',(-0.172736132310247,0.312756029657602,0.198390007992224));
#1137=CARTESIAN_POINT('',(-0.172736132310247,0.352756029657602,0.198390007992224));
#1138=CARTESIAN_POINT('',(-0.187736132310247,0.332631029657602,0.171390007992224));
#1139=CARTESIAN_POINT('',(-0.184736132310247,0.354756029657602,0.168390007992224));
#1140=CARTESIAN_POINT('',(-0.187736132310247,0.310756029657602,0.171390007992224));
#1141=CARTESIAN_POINT('',(-0.184736132310247,0.354756029657602,0.168390007992224));
#1142=CARTESIAN_POINT('',(-0.184736132310247,0.354756029657602,0.168390007992224));
#1143=CARTESIAN_POINT('',(-0.186236132310247,0.356256029657602,0.171390007992224));
#1144=CARTESIAN_POINT('',(-0.187736132310247,0.310756029657602,0.171390007992224));
#1145=CARTESIAN_POINT('',(-0.187736132310247,0.310756029657602,0.171390007992224));
#1146=CARTESIAN_POINT('',(-0.184736132310247,0.309256029657602,0.169890007992224));
#1147=CARTESIAN_POINT('',(-0.184736132310247,0.357756029657602,0.190890007992223));
#1148=CARTESIAN_POINT('',(-0.187736132310247,0.354756029657602,0.210390007992224));
#1149=CARTESIAN_POINT('',(-0.157736132310247,0.357756029657602,0.171390007992224));
#1150=CARTESIAN_POINT('',(-0.160736132310247,0.356256029657602,0.169890007992224));
#1151=CARTESIAN_POINT('',(-0.160736132310247,0.332756029657602,0.168390007992224));
#1152=CARTESIAN_POINT('',(-0.160736132310247,0.310756029657602,0.168390007992224));
#1153=CARTESIAN_POINT('',(-0.157736132310247,0.354756029657602,0.171390007992224));
#1154=CARTESIAN_POINT('',(-0.157736132310247,0.310756029657602,0.168390007992224));
#1155=CARTESIAN_POINT('',(-0.160736132310247,0.310756029657602,0.168390007992224));
#1156=CARTESIAN_POINT('',(-0.187736132310247,0.310756029657602,-0.0413649579444655));
#1157=CARTESIAN_POINT('',(-0.186236132310247,0.309256029657602,0.210390007992224));
#1158=CARTESIAN_POINT('',(-0.184736132310247,0.332756029657602,0.213390007992224));
#1159=CARTESIAN_POINT('',(-0.187736132310247,0.354756029657602,0.210390007992224));
#1160=CARTESIAN_POINT('',(-0.184736132310247,0.310756029657602,0.213390007992224));
#1161=CARTESIAN_POINT('',(-0.187736132310247,0.354756029657602,0.210390007992224));
#1162=CARTESIAN_POINT('',(-0.184736132310247,0.356256029657602,0.211890007992224));
#1163=CARTESIAN_POINT('',(-0.157736132310247,0.354756029657602,0.171390007992224));
#1164=CARTESIAN_POINT('',(-0.157736132310247,0.354756029657602,0.171390007992224));
#1165=CARTESIAN_POINT('',(-0.160736132310247,0.310756029657602,0.168390007992224));
#1166=CARTESIAN_POINT('',(-0.159236132310247,0.309256029657602,0.171390007992224));
#1167=CARTESIAN_POINT('',(-0.184736132310247,0.310756029657602,0.213390007992224));
#1168=CARTESIAN_POINT('',(-0.184736132310247,0.310756029657602,0.213390007992224));
#1169=CARTESIAN_POINT('',(-0.157736132310247,0.354756029657602,0.213390007992224));
#1170=CARTESIAN_POINT('',(-0.160736132310247,0.354756029657602,0.213390007992224));
#1171=CARTESIAN_POINT('',(-0.157736132310247,0.354756029657602,-0.0413649579444655));
#1172=CARTESIAN_POINT('',(-0.159236132310247,0.356256029657602,0.210390007992224));
#1173=CARTESIAN_POINT('',(-0.160736132310247,0.307756029657602,0.190890007992223));
#1174=CARTESIAN_POINT('',(-0.157736132310247,0.310756029657602,0.210390007992224));
#1175=CARTESIAN_POINT('',(-0.157736132310247,0.307756029657602,0.210390007992224));
#1176=CARTESIAN_POINT('',(-0.160736132310247,0.309256029657602,0.211890007992224));
#1177=CARTESIAN_POINT('',(-0.160736132310247,0.354756029657602,0.213390007992224));
#1178=CARTESIAN_POINT('',(-0.160736132310247,0.354756029657602,0.213390007992224));
#1179=CARTESIAN_POINT('',(-0.157736132310247,0.310756029657602,0.210390007992224));
#1180=CARTESIAN_POINT('',(-0.157736132310247,0.310756029657602,0.210390007992224));
#1181=CARTESIAN_POINT('',(-0.157736132310247,0.332631029657602,0.210390007992224));
#1182=CARTESIAN_POINT('',(-0.582554972300497,0.332506029657602,0.198447915675596));
#1183=CARTESIAN_POINT('',(-0.159736132310247,0.332506029657602,0.198447915675596));
#1184=CARTESIAN_POINT('',(-0.159736132310247,0.335156029657602,0.198447915675596));
#1185=CARTESIAN_POINT('',(-0.582554972300497,0.322506029657602,0.177673297524452));
#1186=CARTESIAN_POINT('',(-0.159736132310247,0.322506029657602,0.177673297524452));
#1187=CARTESIAN_POINT('',(-0.159736132310247,0.325156029657602,0.177673297524452));
#1188=CARTESIAN_POINT('',(-0.582554972300497,0.342506029657602,0.177673297524452));
#1189=CARTESIAN_POINT('',(-0.159736132310247,0.342506029657602,0.177673297524452));
#1190=CARTESIAN_POINT('',(-0.159736132310247,0.345156029657602,0.177673297524452));
#1191=CARTESIAN_POINT('',(-0.582554972300497,0.332506029657602,0.198447915675596));
#1192=CARTESIAN_POINT('',(-0.185736132310247,0.332506029657602,0.198447915675596));
#1193=CARTESIAN_POINT('',(-0.185736132310247,0.335156029657602,0.198447915675596));
#1194=CARTESIAN_POINT('',(-0.582554972300497,0.322506029657602,0.177673297524452));
#1195=CARTESIAN_POINT('',(-0.185736132310247,0.322506029657602,0.177673297524452));
#1196=CARTESIAN_POINT('',(-0.185736132310247,0.325156029657602,0.177673297524452));
#1197=CARTESIAN_POINT('',(-0.582554972300497,0.342506029657602,0.177673297524452));
#1198=CARTESIAN_POINT('',(-0.185736132310247,0.342506029657602,0.177673297524452));
#1199=CARTESIAN_POINT('',(-0.185736132310247,0.345156029657602,0.177673297524452));
#1200=CARTESIAN_POINT('',(-0.157736132310247,0.332506029657602,0.198447915675596));
#1201=CARTESIAN_POINT('',(-0.157736132310247,0.322506029657602,0.177673297524452));
#1202=CARTESIAN_POINT('',(-0.157736132310247,0.342506029657602,0.177673297524452));
#1203=CARTESIAN_POINT('',(-0.185736132310247,0.332506029657602,0.198447915675596));
#1204=CARTESIAN_POINT('',(-0.185736132310247,0.322506029657602,0.177673297524452));
#1205=CARTESIAN_POINT('',(-0.185736132310247,0.342506029657602,0.177673297524452));
#1206=MECHANICAL_DESIGN_GEOMETRIC_PRESENTATION_REPRESENTATION('',(#737),
#1207);
#1207=(
GEOMETRIC_REPRESENTATION_CONTEXT(3)
GLOBAL_UNCERTAINTY_ASSIGNED_CONTEXT((#1208))
GLOBAL_UNIT_ASSIGNED_CONTEXT((#1211,#1210,#1209))
REPRESENTATION_CONTEXT('Ext Connector','TOP_LEVEL_ASSEMBLY_PART')
);
#1208=UNCERTAINTY_MEASURE_WITH_UNIT(LENGTH_MEASURE(1.E-8),#1211,
'DISTANCE_ACCURACY_VALUE','Maximum Tolerance applied to model');
#1209=(
NAMED_UNIT(*)
SI_UNIT($,.STERADIAN.)
SOLID_ANGLE_UNIT()
);
#1210=(
NAMED_UNIT(*)
PLANE_ANGLE_UNIT()
SI_UNIT($,.RADIAN.)
);
#1211=(
LENGTH_UNIT()
NAMED_UNIT(*)
SI_UNIT($,.METRE.)
);
#1212=PRODUCT_DEFINITION_SHAPE('','',#1213);
#1213=PRODUCT_DEFINITION('','',#1215,#1214);
#1214=PRODUCT_DEFINITION_CONTEXT('',#1221,'design');
#1215=PRODUCT_DEFINITION_FORMATION_WITH_SPECIFIED_SOURCE('','',#1217,
 .NOT_KNOWN.);
#1216=PRODUCT_RELATED_PRODUCT_CATEGORY('','',(#1217));
#1217=PRODUCT('Ext Connector','Ext Connector','Ext Connector',(#1219));
#1218=PRODUCT_CATEGORY('','');
#1219=PRODUCT_CONTEXT('',#1221,'mechanical');
#1220=APPLICATION_PROTOCOL_DEFINITION('international standard',
'ap242_managed_model_based_3d_engineering',2020,#1221);
#1221=APPLICATION_CONTEXT('managed model based 3d engineering');
ENDSEC;
END-ISO-10303-21;
